solid Exported from Blender-4.0.2
facet normal 1.000000 0.000000 0.000000
outer loop
vertex 0.400000 0.450000 0.000000
vertex 0.400000 0.420000 0.430000
vertex 0.400000 0.420000 0.000000
endloop
endfacet
facet normal 1.000000 0.000000 0.000000
outer loop
vertex 0.400000 0.420000 0.430000
vertex 0.400000 0.030000 0.460000
vertex 0.400000 0.030000 0.430000
endloop
endfacet
facet normal 1.000000 0.000000 0.000000
outer loop
vertex 0.400000 0.030000 0.460000
vertex 0.400000 0.420000 0.430000
vertex 0.400000 0.450000 0.460000
endloop
endfacet
facet normal 1.000000 0.000000 0.000000
outer loop
vertex 0.400000 0.450000 0.460000
vertex 0.400000 0.420000 0.430000
vertex 0.400000 0.450000 0.000000
endloop
endfacet
facet normal 1.000000 0.000000 0.000000
outer loop
vertex 0.400000 0.030000 0.000000
vertex 0.400000 0.000000 0.810000
vertex 0.400000 0.000000 0.000000
endloop
endfacet
facet normal 1.000000 0.000000 0.000000
outer loop
vertex 0.400000 0.000000 0.810000
vertex 0.400000 0.030000 0.000000
vertex 0.400000 0.030000 0.430000
endloop
endfacet
facet normal 1.000000 0.000000 0.000000
outer loop
vertex 0.400000 0.000000 0.810000
vertex 0.400000 0.030000 0.430000
vertex 0.400000 0.030000 0.810000
endloop
endfacet
facet normal 0.000000 -1.000000 0.000000
outer loop
vertex 0.400000 0.030000 0.810000
vertex 0.400000 0.030000 0.430000
vertex 0.400000 0.030000 0.460000
endloop
endfacet
facet normal 0.000000 -1.000000 0.000000
outer loop
vertex 0.400000 0.000000 0.810000
vertex 0.370000 0.000000 0.000000
vertex 0.400000 0.000000 0.000000
endloop
endfacet
facet normal 0.000000 -1.000000 0.000000
outer loop
vertex 0.370000 0.000000 0.000000
vertex 0.400000 0.000000 0.810000
vertex 0.370000 0.000000 0.430000
endloop
endfacet
facet normal 0.000000 -1.000000 0.000000
outer loop
vertex 0.370000 0.000000 0.430000
vertex 0.400000 0.000000 0.810000
vertex 0.370000 0.000000 0.460000
endloop
endfacet
facet normal 0.000000 -1.000000 0.000000
outer loop
vertex 0.370000 0.000000 0.430000
vertex 0.370000 0.000000 0.460000
vertex 0.030000 0.000000 0.430000
endloop
endfacet
facet normal 0.000000 -1.000000 0.000000
outer loop
vertex 0.370000 0.000000 0.460000
vertex 0.400000 0.000000 0.810000
vertex 0.370000 0.000000 0.599868
endloop
endfacet
facet normal 0.000000 -1.000000 0.000000
outer loop
vertex 0.370000 0.000000 0.599868
vertex 0.400000 0.000000 0.810000
vertex 0.370000 0.000000 0.810000
endloop
endfacet
facet normal 0.000000 -1.000000 0.000000
outer loop
vertex 0.030000 0.000000 0.430000
vertex 0.000000 0.000000 0.000000
vertex 0.030000 0.000000 0.000000
endloop
endfacet
facet normal 0.000000 -1.000000 0.000000
outer loop
vertex 0.000000 0.000000 0.000000
vertex 0.030000 0.000000 0.430000
vertex 0.000000 0.000000 0.810000
endloop
endfacet
facet normal 0.000000 -1.000000 0.000000
outer loop
vertex 0.000000 0.000000 0.810000
vertex 0.030000 0.000000 0.430000
vertex 0.030000 0.000000 0.460000
endloop
endfacet
facet normal 0.000000 -1.000000 0.000000
outer loop
vertex 0.030000 0.000000 0.460000
vertex 0.030000 0.000000 0.430000
vertex 0.370000 0.000000 0.460000
endloop
endfacet
facet normal 0.000000 -1.000000 0.000000
outer loop
vertex 0.000000 0.000000 0.810000
vertex 0.030000 0.000000 0.460000
vertex 0.030000 0.000000 0.599868
endloop
endfacet
facet normal 0.000000 -1.000000 0.000000
outer loop
vertex 0.000000 0.000000 0.810000
vertex 0.030000 0.000000 0.599868
vertex 0.030000 0.000000 0.810000
endloop
endfacet
facet normal -1.000000 0.000000 0.000000
outer loop
vertex 0.000000 0.030000 0.810000
vertex 0.000000 0.000000 0.000000
vertex 0.000000 0.000000 0.810000
endloop
endfacet
facet normal -1.000000 0.000000 0.000000
outer loop
vertex 0.000000 0.000000 0.000000
vertex 0.000000 0.030000 0.810000
vertex 0.000000 0.030000 0.430000
endloop
endfacet
facet normal 0.000000 0.000000 0.000000
outer loop
vertex 0.000000 0.030000 0.430000
vertex 0.000000 0.030000 0.810000
vertex 0.000000 0.030000 0.460000
endloop
endfacet
facet normal -1.000000 0.000000 0.000000
outer loop
vertex 0.000000 0.030000 0.430000
vertex 0.000000 0.030000 0.460000
vertex 0.000000 0.420000 0.430000
endloop
endfacet
facet normal -1.000000 0.000000 0.000000
outer loop
vertex 0.000000 0.420000 0.430000
vertex 0.000000 0.030000 0.460000
vertex 0.000000 0.450000 0.460000
endloop
endfacet
facet normal -1.000000 0.000000 0.000000
outer loop
vertex 0.000000 0.420000 0.430000
vertex 0.000000 0.450000 0.460000
vertex 0.000000 0.420000 0.000000
endloop
endfacet
facet normal -1.000000 0.000000 0.000000
outer loop
vertex 0.000000 0.420000 0.000000
vertex 0.000000 0.450000 0.460000
vertex 0.000000 0.450000 0.000000
endloop
endfacet
facet normal -1.000000 0.000000 0.000000
outer loop
vertex 0.000000 0.030000 0.000000
vertex 0.000000 0.000000 0.000000
vertex 0.000000 0.030000 0.430000
endloop
endfacet
facet normal 0.000000 0.000000 -1.000000
outer loop
vertex 0.030000 0.030000 0.000000
vertex 0.000000 0.000000 0.000000
vertex 0.000000 0.030000 0.000000
endloop
endfacet
facet normal 0.000000 0.000000 -1.000000
outer loop
vertex 0.000000 0.000000 0.000000
vertex 0.030000 0.030000 0.000000
vertex 0.030000 0.000000 0.000000
endloop
endfacet
facet normal 0.000000 1.000000 0.000000
outer loop
vertex 0.000000 0.030000 0.430000
vertex 0.030000 0.030000 0.000000
vertex 0.000000 0.030000 0.000000
endloop
endfacet
facet normal 0.000000 1.000000 0.000000
outer loop
vertex 0.030000 0.030000 0.000000
vertex 0.000000 0.030000 0.430000
vertex 0.030000 0.030000 0.430000
endloop
endfacet
facet normal 1.000000 0.000000 0.000000
outer loop
vertex 0.030000 0.030000 0.000000
vertex 0.030000 0.000000 0.430000
vertex 0.030000 0.000000 0.000000
endloop
endfacet
facet normal 1.000000 0.000000 0.000000
outer loop
vertex 0.030000 0.000000 0.430000
vertex 0.030000 0.030000 0.000000
vertex 0.030000 0.030000 0.430000
endloop
endfacet
facet normal 0.000000 0.000000 -1.000000
outer loop
vertex 0.400000 0.420000 0.430000
vertex 0.370000 0.030000 0.430000
vertex 0.370000 0.420000 0.430000
endloop
endfacet
facet normal 0.000000 0.000000 -1.000000
outer loop
vertex 0.370000 0.030000 0.430000
vertex 0.400000 0.420000 0.430000
vertex 0.400000 0.030000 0.430000
endloop
endfacet
facet normal 0.000000 0.000000 -1.000000
outer loop
vertex 0.370000 0.450000 0.430000
vertex 0.030000 0.420000 0.430000
vertex 0.030000 0.450000 0.430000
endloop
endfacet
facet normal 0.000000 0.000000 -1.000000
outer loop
vertex 0.030000 0.420000 0.430000
vertex 0.370000 0.450000 0.430000
vertex 0.030000 0.030000 0.430000
endloop
endfacet
facet normal 0.000000 0.000000 -1.000000
outer loop
vertex 0.030000 0.030000 0.430000
vertex 0.370000 0.450000 0.430000
vertex 0.030000 0.000000 0.430000
endloop
endfacet
facet normal 0.000000 0.000000 -1.000000
outer loop
vertex 0.030000 0.000000 0.430000
vertex 0.370000 0.450000 0.430000
vertex 0.370000 0.000000 0.430000
endloop
endfacet
facet normal 1.000000 0.000000 0.000000
outer loop
vertex 0.370000 0.000000 0.430000
vertex 0.370000 0.450000 0.430000
vertex 0.370000 0.420000 0.430000
endloop
endfacet
facet normal -1.000000 0.000000 0.000000
outer loop
vertex 0.370000 0.000000 0.430000
vertex 0.370000 0.420000 0.430000
vertex 0.370000 0.030000 0.430000
endloop
endfacet
facet normal 0.000000 0.000000 -1.000000
outer loop
vertex 0.030000 0.420000 0.430000
vertex 0.000000 0.030000 0.430000
vertex 0.000000 0.420000 0.430000
endloop
endfacet
facet normal 0.000000 0.000000 -1.000000
outer loop
vertex 0.000000 0.030000 0.430000
vertex 0.030000 0.420000 0.430000
vertex 0.030000 0.030000 0.430000
endloop
endfacet
facet normal 0.000000 -1.000000 0.000000
outer loop
vertex 0.030000 0.420000 0.430000
vertex 0.000000 0.420000 0.000000
vertex 0.030000 0.420000 0.000000
endloop
endfacet
facet normal 0.000000 -1.000000 0.000000
outer loop
vertex 0.000000 0.420000 0.000000
vertex 0.030000 0.420000 0.430000
vertex 0.000000 0.420000 0.430000
endloop
endfacet
facet normal 0.000000 0.000000 -1.000000
outer loop
vertex 0.400000 0.030000 0.000000
vertex 0.370000 0.000000 0.000000
vertex 0.370000 0.030000 0.000000
endloop
endfacet
facet normal 0.000000 0.000000 -1.000000
outer loop
vertex 0.370000 0.000000 0.000000
vertex 0.400000 0.030000 0.000000
vertex 0.400000 0.000000 0.000000
endloop
endfacet
facet normal -1.000000 0.000000 0.000000
outer loop
vertex 0.370000 0.030000 0.430000
vertex 0.370000 0.000000 0.000000
vertex 0.370000 0.000000 0.430000
endloop
endfacet
facet normal -1.000000 0.000000 0.000000
outer loop
vertex 0.370000 0.000000 0.000000
vertex 0.370000 0.030000 0.430000
vertex 0.370000 0.030000 0.000000
endloop
endfacet
facet normal 0.000000 1.000000 0.000000
outer loop
vertex 0.370000 0.030000 0.430000
vertex 0.400000 0.030000 0.000000
vertex 0.370000 0.030000 0.000000
endloop
endfacet
facet normal 0.000000 1.000000 0.000000
outer loop
vertex 0.400000 0.030000 0.000000
vertex 0.370000 0.030000 0.430000
vertex 0.400000 0.030000 0.430000
endloop
endfacet
facet normal 1.000000 0.000000 0.000000
outer loop
vertex 0.030000 0.450000 0.000000
vertex 0.030000 0.420000 0.430000
vertex 0.030000 0.420000 0.000000
endloop
endfacet
facet normal 1.000000 0.000000 0.000000
outer loop
vertex 0.030000 0.420000 0.430000
vertex 0.030000 0.450000 0.000000
vertex 0.030000 0.450000 0.430000
endloop
endfacet
facet normal 0.000000 0.000000 -1.000000
outer loop
vertex 0.030000 0.450000 0.000000
vertex 0.000000 0.420000 0.000000
vertex 0.000000 0.450000 0.000000
endloop
endfacet
facet normal 0.000000 0.000000 -1.000000
outer loop
vertex 0.000000 0.420000 0.000000
vertex 0.030000 0.450000 0.000000
vertex 0.030000 0.420000 0.000000
endloop
endfacet
facet normal 0.000000 1.000000 0.000000
outer loop
vertex 0.000000 0.450000 0.460000
vertex 0.030000 0.450000 0.000000
vertex 0.000000 0.450000 0.000000
endloop
endfacet
facet normal 0.000000 1.000000 0.000000
outer loop
vertex 0.030000 0.450000 0.000000
vertex 0.000000 0.450000 0.460000
vertex 0.030000 0.450000 0.430000
endloop
endfacet
facet normal 0.000000 1.000000 0.000000
outer loop
vertex 0.030000 0.450000 0.430000
vertex 0.000000 0.450000 0.460000
vertex 0.370000 0.450000 0.430000
endloop
endfacet
facet normal 0.000000 1.000000 0.000000
outer loop
vertex 0.370000 0.450000 0.430000
vertex 0.400000 0.450000 0.000000
vertex 0.370000 0.450000 0.000000
endloop
endfacet
facet normal 0.000000 1.000000 0.000000
outer loop
vertex 0.400000 0.450000 0.000000
vertex 0.370000 0.450000 0.430000
vertex 0.400000 0.450000 0.460000
endloop
endfacet
facet normal 0.000000 1.000000 0.000002
outer loop
vertex 0.400000 0.450000 0.460000
vertex 0.370000 0.450000 0.430000
vertex 0.000000 0.450000 0.460000
endloop
endfacet
facet normal 0.000000 0.000000 1.000000
outer loop
vertex 0.370000 0.000000 0.460000
vertex 0.030000 0.030000 0.460000
vertex 0.030000 0.000000 0.460000
endloop
endfacet
facet normal 0.000000 0.000000 1.000000
outer loop
vertex 0.030000 0.030000 0.460000
vertex 0.000000 0.450000 0.460000
vertex 0.000000 0.030000 0.460000
endloop
endfacet
facet normal 0.000000 0.000000 1.000000
outer loop
vertex 0.000000 0.450000 0.460000
vertex 0.030000 0.030000 0.460000
vertex 0.400000 0.450000 0.460000
endloop
endfacet
facet normal 0.000000 0.000000 1.000000
outer loop
vertex 0.400000 0.450000 0.460000
vertex 0.030000 0.030000 0.460000
vertex 0.370000 0.030000 0.460000
endloop
endfacet
facet normal 0.000000 0.000000 1.000000
outer loop
vertex 0.370000 0.030000 0.460000
vertex 0.030000 0.030000 0.460000
vertex 0.370000 0.000000 0.460000
endloop
endfacet
facet normal 0.000000 0.000000 1.000000
outer loop
vertex 0.400000 0.450000 0.460000
vertex 0.370000 0.030000 0.460000
vertex 0.400000 0.030000 0.460000
endloop
endfacet
facet normal 0.000000 0.000000 1.000000
outer loop
vertex 0.030000 0.000000 0.810000
vertex 0.000000 0.030000 0.810000
vertex 0.000000 0.000000 0.810000
endloop
endfacet
facet normal 0.000000 0.000000 1.000000
outer loop
vertex 0.000000 0.030000 0.810000
vertex 0.030000 0.000000 0.810000
vertex 0.030000 0.030000 0.810000
endloop
endfacet
facet normal 1.000000 0.000000 0.000000
outer loop
vertex 0.030000 0.030000 0.460000
vertex 0.030000 0.000000 0.599868
vertex 0.030000 0.000000 0.460000
endloop
endfacet
facet normal 1.000000 0.000000 0.000000
outer loop
vertex 0.030000 0.000000 0.599868
vertex 0.030000 0.030000 0.460000
vertex 0.030000 0.030000 0.599868
endloop
endfacet
facet normal 0.000000 1.000000 0.000000
outer loop
vertex 0.000000 0.030000 0.810000
vertex 0.030000 0.030000 0.460000
vertex 0.000000 0.030000 0.460000
endloop
endfacet
facet normal 0.000000 1.000000 0.000000
outer loop
vertex 0.030000 0.030000 0.460000
vertex 0.000000 0.030000 0.810000
vertex 0.030000 0.030000 0.599868
endloop
endfacet
facet normal 0.000000 1.000000 0.000000
outer loop
vertex 0.030000 0.030000 0.599868
vertex 0.000000 0.030000 0.810000
vertex 0.030000 0.030000 0.810000
endloop
endfacet
facet normal 0.000000 0.000000 1.000000
outer loop
vertex 0.400000 0.000000 0.810000
vertex 0.370000 0.030000 0.810000
vertex 0.370000 0.000000 0.810000
endloop
endfacet
facet normal 0.000000 0.000000 1.000000
outer loop
vertex 0.370000 0.030000 0.810000
vertex 0.400000 0.000000 0.810000
vertex 0.400000 0.030000 0.810000
endloop
endfacet
facet normal 0.000000 1.000000 0.000000
outer loop
vertex 0.370000 0.030000 0.599868
vertex 0.400000 0.030000 0.460000
vertex 0.370000 0.030000 0.460000
endloop
endfacet
facet normal 0.000000 1.000000 0.000000
outer loop
vertex 0.400000 0.030000 0.460000
vertex 0.370000 0.030000 0.599868
vertex 0.400000 0.030000 0.810000
endloop
endfacet
facet normal 0.000000 1.000000 0.000000
outer loop
vertex 0.400000 0.030000 0.810000
vertex 0.370000 0.030000 0.599868
vertex 0.370000 0.030000 0.810000
endloop
endfacet
facet normal -1.000000 0.000000 0.000000
outer loop
vertex 0.370000 0.030000 0.599868
vertex 0.370000 0.000000 0.460000
vertex 0.370000 0.000000 0.599868
endloop
endfacet
facet normal -1.000000 0.000000 0.000000
outer loop
vertex 0.370000 0.000000 0.460000
vertex 0.370000 0.030000 0.599868
vertex 0.370000 0.030000 0.460000
endloop
endfacet
facet normal 0.000000 -1.000000 0.000000
outer loop
vertex 0.370000 0.000000 0.810000
vertex 0.030000 0.000000 0.599868
vertex 0.370000 0.000000 0.599868
endloop
endfacet
facet normal 0.000000 -1.000000 0.000000
outer loop
vertex 0.030000 0.000000 0.599868
vertex 0.370000 0.000000 0.810000
vertex 0.030000 0.000000 0.810000
endloop
endfacet
facet normal 0.000000 1.000000 0.000000
outer loop
vertex 0.030000 0.030000 0.810000
vertex 0.370000 0.030000 0.599868
vertex 0.030000 0.030000 0.599868
endloop
endfacet
facet normal 0.000000 1.000000 0.000000
outer loop
vertex 0.370000 0.030000 0.599868
vertex 0.030000 0.030000 0.810000
vertex 0.370000 0.030000 0.810000
endloop
endfacet
facet normal 0.000000 0.000000 1.000000
outer loop
vertex 0.370000 0.000000 0.810000
vertex 0.030000 0.030000 0.810000
vertex 0.030000 0.000000 0.810000
endloop
endfacet
facet normal 0.000000 0.000000 1.000000
outer loop
vertex 0.030000 0.030000 0.810000
vertex 0.370000 0.000000 0.810000
vertex 0.370000 0.030000 0.810000
endloop
endfacet
facet normal 1.000000 0.000000 0.000000
outer loop
vertex 0.030000 0.030000 0.599868
vertex 0.030000 0.000000 0.810000
vertex 0.030000 0.000000 0.599868
endloop
endfacet
facet normal 1.000000 0.000000 0.000000
outer loop
vertex 0.030000 0.000000 0.810000
vertex 0.030000 0.030000 0.599868
vertex 0.030000 0.030000 0.810000
endloop
endfacet
facet normal 0.000000 0.000000 -1.000000
outer loop
vertex 0.370000 0.030000 0.599868
vertex 0.030000 0.000000 0.599868
vertex 0.030000 0.030000 0.599868
endloop
endfacet
facet normal 0.000000 0.000000 -1.000000
outer loop
vertex 0.030000 0.000000 0.599868
vertex 0.370000 0.030000 0.599868
vertex 0.370000 0.000000 0.599868
endloop
endfacet
facet normal -1.000000 0.000000 0.000000
outer loop
vertex 0.370000 0.030000 0.810000
vertex 0.370000 0.000000 0.599868
vertex 0.370000 0.000000 0.810000
endloop
endfacet
facet normal -1.000000 0.000000 0.000000
outer loop
vertex 0.370000 0.000000 0.599868
vertex 0.370000 0.030000 0.810000
vertex 0.370000 0.030000 0.599868
endloop
endfacet
facet normal 0.000000 0.000000 -1.000000
outer loop
vertex 0.400000 0.450000 0.000000
vertex 0.370000 0.420000 0.000000
vertex 0.370000 0.450000 0.000000
endloop
endfacet
facet normal 0.000000 0.000000 -1.000000
outer loop
vertex 0.370000 0.420000 0.000000
vertex 0.400000 0.450000 0.000000
vertex 0.400000 0.420000 0.000000
endloop
endfacet
facet normal -1.000000 0.000000 0.000000
outer loop
vertex 0.370000 0.450000 0.430000
vertex 0.370000 0.420000 0.000000
vertex 0.370000 0.420000 0.430000
endloop
endfacet
facet normal -1.000000 0.000000 0.000000
outer loop
vertex 0.370000 0.420000 0.000000
vertex 0.370000 0.450000 0.430000
vertex 0.370000 0.450000 0.000000
endloop
endfacet
facet normal 0.000000 -1.000000 0.000000
outer loop
vertex 0.400000 0.420000 0.430000
vertex 0.370000 0.420000 0.000000
vertex 0.400000 0.420000 0.000000
endloop
endfacet
facet normal 0.000000 -1.000000 0.000000
outer loop
vertex 0.370000 0.420000 0.000000
vertex 0.400000 0.420000 0.430000
vertex 0.370000 0.420000 0.430000
endloop
endfacet
endsolid Exported from Blender-4.0.2
