solid desk
facet normal -1.000000 0.000000 0.000000
outer loop
vertex 0.400000 0.450000 0.730000
vertex 0.400000 0.400000 0.700000
vertex 0.400000 0.400000 0.730000
endloop
endfacet
facet normal -1.000000 0.000000 0.000000
outer loop
vertex 0.400000 0.400000 0.700000
vertex 0.400000 0.450000 0.730000
vertex 0.400000 0.450000 0.700000
endloop
endfacet
facet normal 0.000000 -1.000000 0.000000
outer loop
vertex 0.450000 0.400000 0.730000
vertex 0.400000 0.400000 0.700000
vertex 0.450000 0.400000 0.700000
endloop
endfacet
facet normal 0.000000 -1.000000 0.000000
outer loop
vertex 0.400000 0.400000 0.700000
vertex 0.450000 0.400000 0.730000
vertex 0.400000 0.400000 0.730000
endloop
endfacet
facet normal 0.000000 -1.000000 0.000000
outer loop
vertex 0.450000 0.450000 0.730000
vertex 0.400000 0.450000 0.700000
vertex 0.450000 0.450000 0.700000
endloop
endfacet
facet normal 0.000000 -1.000000 0.000000
outer loop
vertex 0.400000 0.450000 0.700000
vertex 0.450000 0.450000 0.730000
vertex 0.400000 0.450000 0.730000
endloop
endfacet
facet normal -1.000000 0.000000 0.000000
outer loop
vertex 0.450000 0.450000 0.730000
vertex 0.450000 0.400000 0.700000
vertex 0.450000 0.400000 0.730000
endloop
endfacet
facet normal -1.000000 0.000000 0.000000
outer loop
vertex 0.450000 0.400000 0.700000
vertex 0.450000 0.450000 0.730000
vertex 0.450000 0.450000 0.700000
endloop
endfacet
facet normal 0.000000 -1.000000 0.000000
outer loop
vertex 1.350000 0.400000 0.730000
vertex 0.450000 0.400000 0.700000
vertex 1.350000 0.400000 0.700000
endloop
endfacet
facet normal 0.000000 -1.000000 0.000000
outer loop
vertex 0.450000 0.400000 0.700000
vertex 1.350000 0.400000 0.730000
vertex 0.450000 0.400000 0.730000
endloop
endfacet
facet normal 0.000000 0.000000 1.000000
outer loop
vertex 0.450000 0.400000 0.730000
vertex 0.400000 0.450000 0.730000
vertex 0.400000 0.400000 0.730000
endloop
endfacet
facet normal 0.000000 0.000000 1.000000
outer loop
vertex 0.400000 0.450000 0.730000
vertex 0.450000 0.400000 0.730000
vertex 0.450000 0.450000 0.730000
endloop
endfacet
facet normal 1.000000 0.000000 0.000000
outer loop
vertex 1.400000 0.950000 0.700000
vertex 1.400000 0.450000 0.730000
vertex 1.400000 0.450000 0.700000
endloop
endfacet
facet normal 1.000000 0.000000 0.000000
outer loop
vertex 1.400000 0.450000 0.730000
vertex 1.400000 0.950000 0.700000
vertex 1.400000 0.950000 0.730000
endloop
endfacet
facet normal 0.000000 1.000000 0.000000
outer loop
vertex 1.350000 0.450000 0.730000
vertex 1.400000 0.450000 0.700000
vertex 1.350000 0.450000 0.700000
endloop
endfacet
facet normal 0.000000 1.000000 0.000000
outer loop
vertex 1.400000 0.450000 0.700000
vertex 1.350000 0.450000 0.730000
vertex 1.400000 0.450000 0.730000
endloop
endfacet
facet normal -1.000000 0.000000 0.000000
outer loop
vertex 1.350000 0.450000 0.730000
vertex 1.350000 0.400000 0.700000
vertex 1.350000 0.400000 0.730000
endloop
endfacet
facet normal -1.000000 0.000000 0.000000
outer loop
vertex 1.350000 0.400000 0.700000
vertex 1.350000 0.450000 0.730000
vertex 1.350000 0.450000 0.700000
endloop
endfacet
facet normal 0.000000 0.000000 1.000000
outer loop
vertex 1.400000 0.400000 0.730000
vertex 1.350000 0.450000 0.730000
vertex 1.350000 0.400000 0.730000
endloop
endfacet
facet normal 0.000000 0.000000 1.000000
outer loop
vertex 1.350000 0.450000 0.730000
vertex 1.400000 0.400000 0.730000
vertex 1.400000 0.450000 0.730000
endloop
endfacet
facet normal 0.000000 0.000000 -1.000000
outer loop
vertex 1.400000 0.450000 0.000000
vertex 1.350000 0.400000 0.000000
vertex 1.350000 0.450000 0.000000
endloop
endfacet
facet normal 0.000000 0.000000 -1.000000
outer loop
vertex 1.350000 0.400000 0.000000
vertex 1.400000 0.450000 0.000000
vertex 1.400000 0.400000 0.000000
endloop
endfacet
facet normal 1.000000 0.000000 0.000000
outer loop
vertex 1.400000 0.450000 0.000000
vertex 1.400000 0.400000 0.730000
vertex 1.400000 0.400000 0.000000
endloop
endfacet
facet normal 1.000000 0.000000 0.000000
outer loop
vertex 1.400000 0.400000 0.730000
vertex 1.400000 0.450000 0.000000
vertex 1.400000 0.450000 0.730000
endloop
endfacet
facet normal 0.000000 -1.000000 0.000000
outer loop
vertex 1.400000 0.450000 0.730000
vertex 1.400000 0.450000 0.000000
vertex 1.400000 0.450000 0.700000
endloop
endfacet
facet normal 0.000000 1.000000 0.000000
outer loop
vertex 1.350000 0.450000 0.700000
vertex 1.400000 0.450000 0.000000
vertex 1.350000 0.450000 0.000000
endloop
endfacet
facet normal 0.000000 1.000000 0.000000
outer loop
vertex 1.400000 0.450000 0.000000
vertex 1.350000 0.450000 0.700000
vertex 1.400000 0.450000 0.700000
endloop
endfacet
facet normal -1.000000 0.000000 0.000000
outer loop
vertex 1.350000 0.450000 0.700000
vertex 1.350000 0.400000 0.000000
vertex 1.350000 0.400000 0.700000
endloop
endfacet
facet normal -1.000000 0.000000 0.000000
outer loop
vertex 1.350000 0.400000 0.000000
vertex 1.350000 0.450000 0.700000
vertex 1.350000 0.450000 0.000000
endloop
endfacet
facet normal 0.000000 -1.000000 0.000000
outer loop
vertex 1.400000 0.400000 0.730000
vertex 1.350000 0.400000 0.000000
vertex 1.400000 0.400000 0.000000
endloop
endfacet
facet normal 0.000000 -1.000000 0.000000
outer loop
vertex 1.350000 0.400000 0.000000
vertex 1.400000 0.400000 0.730000
vertex 1.350000 0.400000 0.700000
endloop
endfacet
facet normal 0.000000 -1.000000 0.000000
outer loop
vertex 1.350000 0.400000 0.700000
vertex 1.400000 0.400000 0.730000
vertex 1.350000 0.400000 0.730000
endloop
endfacet
facet normal -1.000000 0.000000 0.000000
outer loop
vertex 1.350000 1.000000 0.730000
vertex 1.350000 0.950000 0.700000
vertex 1.350000 0.950000 0.730000
endloop
endfacet
facet normal -1.000000 0.000000 0.000000
outer loop
vertex 1.350000 0.950000 0.700000
vertex 1.350000 1.000000 0.730000
vertex 1.350000 1.000000 0.700000
endloop
endfacet
facet normal 0.000000 -1.000000 0.000000
outer loop
vertex 1.400000 0.950000 0.730000
vertex 1.350000 0.950000 0.700000
vertex 1.400000 0.950000 0.700000
endloop
endfacet
facet normal 0.000000 -1.000000 0.000000
outer loop
vertex 1.350000 0.950000 0.700000
vertex 1.400000 0.950000 0.730000
vertex 1.350000 0.950000 0.730000
endloop
endfacet
facet normal 0.000000 0.000000 1.000000
outer loop
vertex 1.400000 0.950000 0.730000
vertex 1.350000 1.000000 0.730000
vertex 1.350000 0.950000 0.730000
endloop
endfacet
facet normal 0.000000 0.000000 1.000000
outer loop
vertex 1.350000 1.000000 0.730000
vertex 1.400000 0.950000 0.730000
vertex 1.400000 1.000000 0.730000
endloop
endfacet
facet normal 0.000000 0.000000 -1.000000
outer loop
vertex 1.400000 1.000000 0.000000
vertex 1.350000 0.950000 0.000000
vertex 1.350000 1.000000 0.000000
endloop
endfacet
facet normal 0.000000 0.000000 -1.000000
outer loop
vertex 1.350000 0.950000 0.000000
vertex 1.400000 1.000000 0.000000
vertex 1.400000 0.950000 0.000000
endloop
endfacet
facet normal 1.000000 0.000000 0.000000
outer loop
vertex 1.400000 1.000000 0.000000
vertex 1.400000 0.950000 0.700000
vertex 1.400000 0.950000 0.000000
endloop
endfacet
facet normal 1.000000 0.000000 0.000000
outer loop
vertex 1.400000 0.950000 0.700000
vertex 1.400000 1.000000 0.000000
vertex 1.400000 0.950000 0.730000
endloop
endfacet
facet normal 1.000000 0.000000 0.000000
outer loop
vertex 1.400000 0.950000 0.730000
vertex 1.400000 1.000000 0.000000
vertex 1.400000 1.000000 0.730000
endloop
endfacet
facet normal 0.000000 1.000000 0.000000
outer loop
vertex 1.350000 1.000000 0.700000
vertex 1.400000 1.000000 0.000000
vertex 1.350000 1.000000 0.000000
endloop
endfacet
facet normal 0.000000 1.000000 0.000000
outer loop
vertex 1.400000 1.000000 0.000000
vertex 1.350000 1.000000 0.700000
vertex 1.400000 1.000000 0.730000
endloop
endfacet
facet normal 0.000000 1.000000 0.000000
outer loop
vertex 1.400000 1.000000 0.730000
vertex 1.350000 1.000000 0.700000
vertex 1.350000 1.000000 0.730000
endloop
endfacet
facet normal -1.000000 0.000000 0.000000
outer loop
vertex 1.350000 1.000000 0.700000
vertex 1.350000 0.950000 0.000000
vertex 1.350000 0.950000 0.700000
endloop
endfacet
facet normal -1.000000 0.000000 0.000000
outer loop
vertex 1.350000 0.950000 0.000000
vertex 1.350000 1.000000 0.700000
vertex 1.350000 1.000000 0.000000
endloop
endfacet
facet normal 0.000000 -1.000000 0.000000
outer loop
vertex 1.400000 0.950000 0.700000
vertex 1.350000 0.950000 0.000000
vertex 1.400000 0.950000 0.000000
endloop
endfacet
facet normal 0.000000 -1.000000 0.000000
outer loop
vertex 1.350000 0.950000 0.000000
vertex 1.400000 0.950000 0.700000
vertex 1.350000 0.950000 0.700000
endloop
endfacet
facet normal 0.000000 -1.000000 0.000000
outer loop
vertex 0.400000 0.400000 0.000000
vertex 0.000000 0.400000 0.730000
vertex 0.000000 0.400000 0.000000
endloop
endfacet
facet normal 0.000000 -1.000000 0.000000
outer loop
vertex 0.000000 0.400000 0.730000
vertex 0.400000 0.400000 0.000000
vertex 0.400000 0.400000 0.700000
endloop
endfacet
facet normal 0.000000 -1.000000 0.000000
outer loop
vertex 0.000000 0.400000 0.730000
vertex 0.400000 0.400000 0.700000
vertex 0.400000 0.400000 0.730000
endloop
endfacet
facet normal -1.000000 0.000000 0.000000
outer loop
vertex 0.000000 1.000000 0.730000
vertex 0.000000 0.400000 0.000000
vertex 0.000000 0.400000 0.730000
endloop
endfacet
facet normal -1.000000 0.000000 0.000000
outer loop
vertex 0.000000 0.400000 0.000000
vertex 0.000000 1.000000 0.730000
vertex 0.000000 1.000000 0.000000
endloop
endfacet
facet normal 0.000000 0.000000 -1.000000
outer loop
vertex 1.400000 0.950000 0.700000
vertex 1.350000 0.450000 0.700000
vertex 1.350000 0.950000 0.700000
endloop
endfacet
facet normal 0.000000 0.000000 -1.000000
outer loop
vertex 1.350000 0.450000 0.700000
vertex 1.400000 0.950000 0.700000
vertex 1.400000 0.450000 0.700000
endloop
endfacet
facet normal 0.000000 0.000000 -1.000000
outer loop
vertex 1.350000 1.000000 0.700000
vertex 0.450000 0.950000 0.700000
vertex 0.450000 1.000000 0.700000
endloop
endfacet
facet normal 0.000000 0.000000 -1.000000
outer loop
vertex 0.450000 0.950000 0.700000
vertex 1.350000 1.000000 0.700000
vertex 0.450000 0.450000 0.700000
endloop
endfacet
facet normal 0.000001 0.000000 -1.000000
outer loop
vertex 0.450000 0.450000 0.700000
vertex 1.350000 1.000000 0.700000
vertex 0.450000 0.400000 0.700000
endloop
endfacet
facet normal 0.000000 0.000000 -1.000000
outer loop
vertex 0.450000 0.400000 0.700000
vertex 1.350000 1.000000 0.700000
vertex 1.350000 0.400000 0.700000
endloop
endfacet
facet normal -1.000000 0.000000 0.000000
outer loop
vertex 1.350000 0.400000 0.700000
vertex 1.350000 1.000000 0.700000
vertex 1.350000 0.950000 0.700000
endloop
endfacet
facet normal 1.000000 0.000000 0.000000
outer loop
vertex 1.350000 0.400000 0.700000
vertex 1.350000 0.950000 0.700000
vertex 1.350000 0.450000 0.700000
endloop
endfacet
facet normal 0.000000 0.000000 -1.000000
outer loop
vertex 0.450000 0.950000 0.700000
vertex 0.400000 0.450000 0.700000
vertex 0.400000 0.950000 0.700000
endloop
endfacet
facet normal 0.000000 0.000000 -1.000000
outer loop
vertex 0.400000 0.450000 0.700000
vertex 0.450000 0.950000 0.700000
vertex 0.450000 0.450000 0.700000
endloop
endfacet
facet normal 0.000000 -1.000000 0.000000
outer loop
vertex 0.450000 0.950000 0.730000
vertex 0.400000 0.950000 0.700000
vertex 0.450000 0.950000 0.700000
endloop
endfacet
facet normal 0.000000 -1.000000 0.000000
outer loop
vertex 0.400000 0.950000 0.700000
vertex 0.450000 0.950000 0.730000
vertex 0.400000 0.950000 0.730000
endloop
endfacet
facet normal 1.000000 0.000000 0.000000
outer loop
vertex 0.450000 1.000000 0.700000
vertex 0.450000 0.950000 0.730000
vertex 0.450000 0.950000 0.700000
endloop
endfacet
facet normal 1.000000 0.000000 0.000000
outer loop
vertex 0.450000 0.950000 0.730000
vertex 0.450000 1.000000 0.700000
vertex 0.450000 1.000000 0.730000
endloop
endfacet
facet normal 0.000000 0.000000 1.000000
outer loop
vertex 0.450000 0.950000 0.730000
vertex 0.400000 1.000000 0.730000
vertex 0.400000 0.950000 0.730000
endloop
endfacet
facet normal 0.000000 0.000000 1.000000
outer loop
vertex 0.400000 1.000000 0.730000
vertex 0.450000 0.950000 0.730000
vertex 0.450000 1.000000 0.730000
endloop
endfacet
facet normal 0.000000 0.000000 1.000000
outer loop
vertex 1.400000 0.450000 0.730000
vertex 1.350000 0.950000 0.730000
vertex 1.350000 0.450000 0.730000
endloop
endfacet
facet normal 0.000000 0.000000 1.000000
outer loop
vertex 1.350000 0.950000 0.730000
vertex 1.400000 0.450000 0.730000
vertex 1.400000 0.950000 0.730000
endloop
endfacet
facet normal 0.000000 0.000000 1.000000
outer loop
vertex 1.350000 0.400000 0.730000
vertex 0.450000 0.450000 0.730000
vertex 0.450000 0.400000 0.730000
endloop
endfacet
facet normal 0.000000 0.000000 1.000000
outer loop
vertex 0.450000 0.450000 0.730000
vertex 1.350000 0.400000 0.730000
vertex 0.450000 0.950000 0.730000
endloop
endfacet
facet normal -0.000001 0.000000 1.000000
outer loop
vertex 0.450000 0.950000 0.730000
vertex 1.350000 0.400000 0.730000
vertex 0.450000 1.000000 0.730000
endloop
endfacet
facet normal 0.000000 0.000000 1.000000
outer loop
vertex 0.450000 1.000000 0.730000
vertex 1.350000 0.400000 0.730000
vertex 1.350000 1.000000 0.730000
endloop
endfacet
facet normal 1.000000 0.000000 0.000000
outer loop
vertex 1.350000 1.000000 0.730000
vertex 1.350000 0.400000 0.730000
vertex 1.350000 0.450000 0.730000
endloop
endfacet
facet normal 0.000000 0.000000 0.000000
outer loop
vertex 1.350000 1.000000 0.730000
vertex 1.350000 0.450000 0.730000
vertex 1.350000 0.950000 0.730000
endloop
endfacet
facet normal 0.000000 0.000000 1.000000
outer loop
vertex 0.450000 0.450000 0.730000
vertex 0.400000 0.950000 0.730000
vertex 0.400000 0.450000 0.730000
endloop
endfacet
facet normal 0.000000 0.000000 1.000000
outer loop
vertex 0.400000 0.950000 0.730000
vertex 0.450000 0.450000 0.730000
vertex 0.450000 0.950000 0.730000
endloop
endfacet
facet normal 0.000000 1.000000 0.000000
outer loop
vertex 0.450000 1.000000 0.730000
vertex 1.350000 1.000000 0.700000
vertex 0.450000 1.000000 0.700000
endloop
endfacet
facet normal 0.000000 1.000000 0.000000
outer loop
vertex 1.350000 1.000000 0.700000
vertex 0.450000 1.000000 0.730000
vertex 1.350000 1.000000 0.730000
endloop
endfacet
facet normal 0.000000 0.000000 1.000000
outer loop
vertex 0.400000 0.400000 0.730000
vertex 0.000000 1.000000 0.730000
vertex 0.000000 0.400000 0.730000
endloop
endfacet
facet normal 0.000000 0.000000 1.000000
outer loop
vertex 0.000000 1.000000 0.730000
vertex 0.400000 0.400000 0.730000
vertex 0.400000 1.000000 0.730000
endloop
endfacet
facet normal 1.000000 0.000000 0.000000
outer loop
vertex 0.400000 1.000000 0.730000
vertex 0.400000 0.400000 0.730000
vertex 0.400000 0.450000 0.730000
endloop
endfacet
facet normal 0.000000 0.000000 0.000000
outer loop
vertex 0.400000 1.000000 0.730000
vertex 0.400000 0.450000 0.730000
vertex 0.400000 0.950000 0.730000
endloop
endfacet
facet normal 0.000000 0.000000 -1.000000
outer loop
vertex 0.400000 1.000000 0.000000
vertex 0.000000 0.400000 0.000000
vertex 0.000000 1.000000 0.000000
endloop
endfacet
facet normal 0.000000 0.000000 -1.000000
outer loop
vertex 0.000000 0.400000 0.000000
vertex 0.400000 1.000000 0.000000
vertex 0.400000 0.400000 0.000000
endloop
endfacet
facet normal 1.000000 0.000000 0.000000
outer loop
vertex 0.400000 0.950000 0.700000
vertex 0.400000 0.450000 0.730000
vertex 0.400000 0.450000 0.700000
endloop
endfacet
facet normal 1.000000 0.000000 0.000000
outer loop
vertex 0.400000 0.450000 0.730000
vertex 0.400000 0.950000 0.700000
vertex 0.400000 0.950000 0.730000
endloop
endfacet
facet normal 0.000000 1.000000 0.000000
outer loop
vertex 0.000000 1.000000 0.730000
vertex 0.400000 1.000000 0.000000
vertex 0.000000 1.000000 0.000000
endloop
endfacet
facet normal 0.000000 1.000000 0.000000
outer loop
vertex 0.400000 1.000000 0.000000
vertex 0.000000 1.000000 0.730000
vertex 0.400000 1.000000 0.700000
endloop
endfacet
facet normal 0.000000 1.000000 0.000000
outer loop
vertex 0.400000 1.000000 0.700000
vertex 0.000000 1.000000 0.730000
vertex 0.400000 1.000000 0.730000
endloop
endfacet
facet normal 0.000000 0.000000 -1.000000
outer loop
vertex 0.450000 1.000000 0.700000
vertex 0.400000 0.950000 0.700000
vertex 0.400000 1.000000 0.700000
endloop
endfacet
facet normal 0.000000 0.000000 -1.000000
outer loop
vertex 0.400000 0.950000 0.700000
vertex 0.450000 1.000000 0.700000
vertex 0.450000 0.950000 0.700000
endloop
endfacet
facet normal 0.000000 1.000000 0.000000
outer loop
vertex 0.400000 1.000000 0.730000
vertex 0.450000 1.000000 0.700000
vertex 0.400000 1.000000 0.700000
endloop
endfacet
facet normal 0.000000 1.000000 0.000000
outer loop
vertex 0.450000 1.000000 0.700000
vertex 0.400000 1.000000 0.730000
vertex 0.450000 1.000000 0.730000
endloop
endfacet
facet normal 1.000000 0.000000 0.000000
outer loop
vertex 0.400000 1.000000 0.700000
vertex 0.400000 0.950000 0.730000
vertex 0.400000 0.950000 0.700000
endloop
endfacet
facet normal 1.000000 0.000000 0.000000
outer loop
vertex 0.400000 0.950000 0.730000
vertex 0.400000 1.000000 0.700000
vertex 0.400000 1.000000 0.730000
endloop
endfacet
facet normal 0.000000 0.000000 -1.000000
outer loop
vertex 0.450000 0.450000 0.700000
vertex 0.400000 0.400000 0.700000
vertex 0.400000 0.450000 0.700000
endloop
endfacet
facet normal 0.000000 0.000000 -1.000000
outer loop
vertex 0.400000 0.400000 0.700000
vertex 0.450000 0.450000 0.700000
vertex 0.450000 0.400000 0.700000
endloop
endfacet
facet normal 1.000000 0.000000 0.000000
outer loop
vertex 0.400000 1.000000 0.000000
vertex 0.400000 0.400000 0.700000
vertex 0.400000 0.400000 0.000000
endloop
endfacet
facet normal 1.000000 0.000000 0.000000
outer loop
vertex 0.400000 0.400000 0.700000
vertex 0.400000 1.000000 0.000000
vertex 0.400000 0.450000 0.700000
endloop
endfacet
facet normal 1.000000 0.000000 0.000000
outer loop
vertex 0.400000 0.450000 0.700000
vertex 0.400000 1.000000 0.000000
vertex 0.400000 0.950000 0.700000
endloop
endfacet
facet normal 1.000000 0.000000 0.000000
outer loop
vertex 0.400000 0.950000 0.700000
vertex 0.400000 1.000000 0.000000
vertex 0.400000 1.000000 0.700000
endloop
endfacet
endsolid desk
