solid Exported from Blender-4.0.2
facet normal -0.969256 0.139564 -0.202645
outer loop
vertex 0.687449 0.000557 1.221945
vertex 0.684262 0.000000 1.236807
vertex 0.686962 0.018567 1.236678
endloop
endfacet
facet normal -0.981900 0.067669 -0.176899
outer loop
vertex 0.682851 0.000628 1.252635
vertex 0.684716 0.022925 1.250812
vertex 0.686962 0.018567 1.236678
endloop
endfacet
facet normal 0.470289 -0.107420 -0.875950
outer loop
vertex 0.738678 0.033760 1.124060
vertex 0.751847 0.040344 1.130323
vertex 0.742763 0.030329 1.126674
endloop
endfacet
facet normal 0.496715 -0.067824 -0.865260
outer loop
vertex 0.738678 0.033760 1.124060
vertex 0.742763 0.030329 1.126674
vertex 0.738407 0.021862 1.124837
endloop
endfacet
facet normal 0.362764 0.149392 -0.919828
outer loop
vertex 0.751847 0.040344 1.130323
vertex 0.738678 0.033760 1.124060
vertex 0.731595 0.039507 1.122200
endloop
endfacet
facet normal 0.368997 -0.255410 -0.893648
outer loop
vertex 0.751847 0.040344 1.130323
vertex 0.731595 0.039507 1.122200
vertex 0.744560 0.046569 1.125535
endloop
endfacet
facet normal -0.290697 0.789179 -0.541009
outer loop
vertex 0.744560 0.046569 1.125535
vertex 0.731595 0.039507 1.122200
vertex 0.720359 0.045085 1.136374
endloop
endfacet
facet normal -0.413132 0.686957 -0.597840
outer loop
vertex 0.720359 0.045085 1.136374
vertex 0.731595 0.039507 1.122200
vertex 0.719844 0.029716 1.119070
endloop
endfacet
facet normal 0.255673 0.002207 -0.966761
outer loop
vertex 0.738678 0.033760 1.124060
vertex 0.719844 0.029716 1.119070
vertex 0.731595 0.039507 1.122200
endloop
endfacet
facet normal -0.592898 0.540350 -0.597071
outer loop
vertex 0.719844 0.029716 1.119070
vertex 0.702347 0.018491 1.126286
vertex 0.709746 0.030994 1.130254
endloop
endfacet
facet normal -0.499342 0.243895 -0.831368
outer loop
vertex 0.702347 0.018491 1.126286
vertex 0.719844 0.029716 1.119070
vertex 0.714459 0.014164 1.117742
endloop
endfacet
facet normal -0.531855 0.640955 -0.553450
outer loop
vertex 0.720359 0.045085 1.136374
vertex 0.719844 0.029716 1.119070
vertex 0.709746 0.030994 1.130254
endloop
endfacet
facet normal 0.232004 0.111758 -0.966273
outer loop
vertex 0.738678 0.033760 1.124060
vertex 0.729436 0.024120 1.120726
vertex 0.719844 0.029716 1.119070
endloop
endfacet
facet normal 0.181946 0.020953 -0.983085
outer loop
vertex 0.714459 0.014164 1.117742
vertex 0.719844 0.029716 1.119070
vertex 0.729436 0.024120 1.120726
endloop
endfacet
facet normal -0.569418 0.028259 -0.821562
outer loop
vertex 0.702347 0.018491 1.126286
vertex 0.714459 0.014164 1.117742
vertex 0.713790 0.000000 1.117719
endloop
endfacet
facet normal 0.205315 -0.008096 -0.978663
outer loop
vertex 0.722766 0.000000 1.119602
vertex 0.713790 0.000000 1.117719
vertex 0.714459 0.014164 1.117742
endloop
endfacet
facet normal 0.199533 -0.006472 -0.979870
outer loop
vertex 0.714459 0.014164 1.117742
vertex 0.729436 0.024120 1.120726
vertex 0.724142 0.011847 1.119729
endloop
endfacet
facet normal 0.198149 -0.012513 -0.980092
outer loop
vertex 0.722766 0.000000 1.119602
vertex 0.714459 0.014164 1.117742
vertex 0.724142 0.011847 1.119729
endloop
endfacet
facet normal 0.714868 -0.458544 0.527922
outer loop
vertex 0.700022 0.047914 1.246545
vertex 0.690960 0.036301 1.248729
vertex 0.703342 0.027940 1.224701
endloop
endfacet
facet normal 0.319289 -0.026934 -0.947275
outer loop
vertex 0.734026 0.000000 1.123397
vertex 0.722766 0.000000 1.119602
vertex 0.724142 0.011847 1.119729
endloop
endfacet
facet normal -0.742923 -0.634739 0.212536
outer loop
vertex 0.682600 0.000000 1.185486
vertex 0.690058 0.000000 1.211555
vertex 0.689612 0.000528 1.211575
endloop
endfacet
facet normal 0.346694 -0.015480 -0.937850
outer loop
vertex 0.724142 0.011847 1.119729
vertex 0.738407 0.021862 1.124837
vertex 0.735914 0.012260 1.124074
endloop
endfacet
facet normal 0.346309 -0.001567 -0.938119
outer loop
vertex 0.734026 0.000000 1.123397
vertex 0.724142 0.011847 1.119729
vertex 0.735914 0.012260 1.124074
endloop
endfacet
facet normal -0.906386 0.052292 -0.419202
outer loop
vertex 0.697130 0.000000 1.154069
vertex 0.682600 0.000000 1.185486
vertex 0.691533 0.015553 1.168111
endloop
endfacet
facet normal 0.919246 -0.148454 0.364620
outer loop
vertex 0.721265 0.000000 1.155568
vertex 0.725569 0.060526 1.169360
vertex 0.714885 0.000000 1.171653
endloop
endfacet
facet normal 0.771740 -0.112515 0.625905
outer loop
vertex 0.725569 0.060526 1.169360
vertex 0.715836 0.030065 1.175884
vertex 0.714885 0.000000 1.171653
endloop
endfacet
facet normal 0.955246 -0.277406 0.102720
outer loop
vertex 0.713367 0.059831 1.217598
vertex 0.710939 0.055875 1.229493
vertex 0.707140 0.041908 1.227097
endloop
endfacet
facet normal 0.921674 -0.262040 0.286099
outer loop
vertex 0.735914 0.012260 1.124074
vertex 0.738407 0.021862 1.124837
vertex 0.727645 0.000000 1.139482
endloop
endfacet
facet normal 0.138675 -0.447637 0.883397
outer loop
vertex 0.742763 0.030329 1.126674
vertex 0.751847 0.040344 1.130323
vertex 0.736095 0.054619 1.140029
endloop
endfacet
facet normal -0.999721 0.010371 -0.021219
outer loop
vertex 0.697130 0.000000 1.154069
vertex 0.697260 0.015413 1.155491
vertex 0.697581 0.016768 1.141031
endloop
endfacet
facet normal -0.885181 0.398863 -0.239506
outer loop
vertex 0.702347 0.018491 1.126286
vertex 0.697581 0.016768 1.141031
vertex 0.702839 0.030279 1.144099
endloop
endfacet
facet normal -0.907566 0.389060 -0.157977
outer loop
vertex 0.697581 0.016768 1.141031
vertex 0.699834 0.028856 1.157858
vertex 0.702839 0.030279 1.144099
endloop
endfacet
facet normal -0.982015 0.188757 -0.004111
outer loop
vertex 0.697581 0.016768 1.141031
vertex 0.697260 0.015413 1.155491
vertex 0.699834 0.028856 1.157858
endloop
endfacet
facet normal -0.879523 0.437941 -0.186138
outer loop
vertex 0.708963 0.043667 1.149570
vertex 0.699834 0.028856 1.157858
vertex 0.705581 0.041728 1.160988
endloop
endfacet
facet normal -0.876365 0.459660 -0.143863
outer loop
vertex 0.708963 0.043667 1.149570
vertex 0.702839 0.030279 1.144099
vertex 0.699834 0.028856 1.157858
endloop
endfacet
facet normal -0.916135 0.398540 0.043167
outer loop
vertex 0.705581 0.041728 1.160988
vertex 0.699834 0.028856 1.157858
vertex 0.699386 0.026482 1.170268
endloop
endfacet
facet normal -0.982174 0.187976 0.000503
outer loop
vertex 0.697260 0.015413 1.155491
vertex 0.699386 0.026482 1.170268
vertex 0.699834 0.028856 1.157858
endloop
endfacet
facet normal -0.816933 0.571057 0.080719
outer loop
vertex 0.690464 0.012113 1.181629
vertex 0.699386 0.026482 1.170268
vertex 0.691533 0.015553 1.168111
endloop
endfacet
facet normal -0.669608 0.669692 0.321151
outer loop
vertex 0.690464 0.012113 1.181629
vertex 0.702353 0.022792 1.184149
vertex 0.699386 0.026482 1.170268
endloop
endfacet
facet normal -0.942498 0.315018 -0.111628
outer loop
vertex 0.705581 0.041728 1.160988
vertex 0.699386 0.026482 1.170268
vertex 0.703260 0.039247 1.173583
endloop
endfacet
facet normal -0.731255 0.592234 -0.338417
outer loop
vertex 0.697260 0.015413 1.155491
vertex 0.691533 0.015553 1.168111
vertex 0.699386 0.026482 1.170268
endloop
endfacet
facet normal -0.975174 0.037132 0.218306
outer loop
vertex 0.703509 0.036760 1.186937
vertex 0.699386 0.026482 1.170268
vertex 0.702353 0.022792 1.184149
endloop
endfacet
facet normal -0.959460 0.273321 0.068791
outer loop
vertex 0.703509 0.036760 1.186937
vertex 0.703260 0.039247 1.173583
vertex 0.699386 0.026482 1.170268
endloop
endfacet
facet normal -0.944635 -0.017329 0.327666
outer loop
vertex 0.703509 0.036760 1.186937
vertex 0.708223 0.033240 1.200341
vertex 0.708843 0.048487 1.202935
endloop
endfacet
facet normal -0.942372 0.011242 0.334377
outer loop
vertex 0.702353 0.022792 1.184149
vertex 0.708223 0.033240 1.200341
vertex 0.703509 0.036760 1.186937
endloop
endfacet
facet normal -0.964322 0.110300 0.240660
outer loop
vertex 0.703509 0.036760 1.186937
vertex 0.708843 0.048487 1.202935
vertex 0.705875 0.050665 1.190044
endloop
endfacet
facet normal -0.986418 0.157189 0.047666
outer loop
vertex 0.705875 0.050665 1.190044
vertex 0.703260 0.039247 1.173583
vertex 0.703509 0.036760 1.186937
endloop
endfacet
facet normal -0.813679 0.512707 0.273967
outer loop
vertex 0.713759 0.061897 1.192440
vertex 0.705875 0.050665 1.190044
vertex 0.708843 0.048487 1.202935
endloop
endfacet
facet normal -0.943854 0.329706 -0.020834
outer loop
vertex 0.713759 0.061897 1.192440
vertex 0.708843 0.048487 1.202935
vertex 0.713533 0.062038 1.204911
endloop
endfacet
facet normal -0.949607 0.308731 0.054136
outer loop
vertex 0.713367 0.059831 1.217598
vertex 0.708843 0.048487 1.202935
vertex 0.708714 0.045854 1.215688
endloop
endfacet
facet normal -0.999161 0.040913 -0.001659
outer loop
vertex 0.708714 0.045854 1.215688
vertex 0.708843 0.048487 1.202935
vertex 0.708223 0.033240 1.200341
endloop
endfacet
facet normal -0.946054 0.321079 0.043477
outer loop
vertex 0.713367 0.059831 1.217598
vertex 0.713533 0.062038 1.204911
vertex 0.708843 0.048487 1.202935
endloop
endfacet
facet normal -0.793690 0.333709 -0.508620
outer loop
vertex 0.707700 0.051237 1.220802
vertex 0.713367 0.059831 1.217598
vertex 0.708714 0.045854 1.215688
endloop
endfacet
facet normal -0.820166 0.305238 -0.483899
outer loop
vertex 0.701339 0.044134 1.227103
vertex 0.707700 0.051237 1.220802
vertex 0.708714 0.045854 1.215688
endloop
endfacet
facet normal -0.744294 0.644328 -0.175693
outer loop
vertex 0.700022 0.047914 1.246545
vertex 0.710939 0.055875 1.229493
vertex 0.701339 0.044134 1.227103
endloop
endfacet
facet normal -0.792258 0.586679 -0.167733
outer loop
vertex 0.701339 0.044134 1.227103
vertex 0.690960 0.036301 1.248729
vertex 0.700022 0.047914 1.246545
endloop
endfacet
facet normal -0.846915 0.403195 -0.346653
outer loop
vertex 0.692381 0.033063 1.236112
vertex 0.701339 0.044134 1.227103
vertex 0.695428 0.030220 1.225361
endloop
endfacet
facet normal -0.838457 0.497635 -0.222150
outer loop
vertex 0.701339 0.044134 1.227103
vertex 0.692381 0.033063 1.236112
vertex 0.690960 0.036301 1.248729
endloop
endfacet
facet normal -0.632879 0.355009 -0.688064
outer loop
vertex 0.701339 0.044134 1.227103
vertex 0.707672 0.030879 1.214439
vertex 0.695428 0.030220 1.225361
endloop
endfacet
facet normal -0.842485 0.102721 -0.528837
outer loop
vertex 0.707672 0.030879 1.214439
vertex 0.701339 0.044134 1.227103
vertex 0.708714 0.045854 1.215688
endloop
endfacet
facet normal -0.628357 0.374569 -0.681810
outer loop
vertex 0.701154 0.013774 1.211049
vertex 0.695428 0.030220 1.225361
vertex 0.707672 0.030879 1.214439
endloop
endfacet
facet normal -0.913387 0.378001 -0.151126
outer loop
vertex 0.707672 0.030879 1.214439
vertex 0.705809 0.019522 1.197292
vertex 0.701154 0.013774 1.211049
endloop
endfacet
facet normal -0.997066 0.071635 -0.026972
outer loop
vertex 0.708714 0.045854 1.215688
vertex 0.708223 0.033240 1.200341
vertex 0.707672 0.030879 1.214439
endloop
endfacet
facet normal -0.984479 0.175264 -0.009124
outer loop
vertex 0.707672 0.030879 1.214439
vertex 0.708223 0.033240 1.200341
vertex 0.705809 0.019522 1.197292
endloop
endfacet
facet normal -0.559755 0.814779 0.151028
outer loop
vertex 0.701154 0.013774 1.211049
vertex 0.705809 0.019522 1.197292
vertex 0.694705 0.011650 1.198606
endloop
endfacet
facet normal -0.518961 0.787520 0.332403
outer loop
vertex 0.694705 0.011650 1.198606
vertex 0.705809 0.019522 1.197292
vertex 0.702353 0.022792 1.184149
endloop
endfacet
facet normal -0.954814 0.106340 0.277529
outer loop
vertex 0.702353 0.022792 1.184149
vertex 0.705809 0.019522 1.197292
vertex 0.708223 0.033240 1.200341
endloop
endfacet
facet normal -0.787307 0.578800 0.212459
outer loop
vertex 0.694705 0.011650 1.198606
vertex 0.690464 0.012113 1.181629
vertex 0.682600 0.000000 1.185486
endloop
endfacet
facet normal -0.678067 0.710349 0.188759
outer loop
vertex 0.694705 0.011650 1.198606
vertex 0.702353 0.022792 1.184149
vertex 0.690464 0.012113 1.181629
endloop
endfacet
facet normal -0.941355 0.228151 -0.248591
outer loop
vertex 0.687449 0.000557 1.221945
vertex 0.690736 0.015919 1.223597
vertex 0.690058 0.000000 1.211555
endloop
endfacet
facet normal -0.950500 -0.211862 -0.227298
outer loop
vertex 0.690058 0.000000 1.211555
vertex 0.687558 0.000000 1.222006
vertex 0.687449 0.000557 1.221945
endloop
endfacet
facet normal -0.968164 -0.132147 -0.212593
outer loop
vertex 0.687449 0.000557 1.221945
vertex 0.687424 0.000000 1.222404
vertex 0.684262 0.000000 1.236807
endloop
endfacet
facet normal -0.630125 0.485345 -0.606121
outer loop
vertex 0.690736 0.015919 1.223597
vertex 0.701154 0.013774 1.211049
vertex 0.690058 0.000000 1.211555
endloop
endfacet
facet normal -0.921438 0.230773 -0.312564
outer loop
vertex 0.686962 0.018567 1.236678
vertex 0.690736 0.015919 1.223597
vertex 0.687449 0.000557 1.221945
endloop
endfacet
facet normal -0.886789 0.330763 -0.322802
outer loop
vertex 0.686962 0.018567 1.236678
vertex 0.695428 0.030220 1.225361
vertex 0.690736 0.015919 1.223597
endloop
endfacet
facet normal -0.704787 0.309943 -0.638130
outer loop
vertex 0.701154 0.013774 1.211049
vertex 0.690736 0.015919 1.223597
vertex 0.695428 0.030220 1.225361
endloop
endfacet
facet normal -0.791613 0.567505 0.226464
outer loop
vertex 0.682600 0.000000 1.185486
vertex 0.690058 0.000000 1.211555
vertex 0.694705 0.011650 1.198606
endloop
endfacet
facet normal -0.997073 0.061800 0.045024
outer loop
vertex 0.697130 0.000000 1.154069
vertex 0.697581 0.016768 1.141031
vertex 0.696486 0.000000 1.139807
endloop
endfacet
facet normal 0.660774 0.749961 -0.030614
outer loop
vertex 0.751847 0.040344 1.130323
vertex 0.744560 0.046569 1.125535
vertex 0.736095 0.054619 1.140029
endloop
endfacet
facet normal -0.909474 0.045787 -0.413232
outer loop
vertex 0.697130 0.000000 1.154069
vertex 0.691533 0.015553 1.168111
vertex 0.697260 0.015413 1.155491
endloop
endfacet
facet normal 0.837335 -0.305503 0.453363
outer loop
vertex 0.707140 0.041908 1.227097
vertex 0.703342 0.027940 1.224701
vertex 0.710387 0.023197 1.208492
endloop
endfacet
facet normal 0.888743 -0.115065 0.443728
outer loop
vertex 0.736095 0.054619 1.140029
vertex 0.729764 0.059573 1.153994
vertex 0.721265 0.000000 1.155568
endloop
endfacet
facet normal 0.934653 -0.347794 0.073910
outer loop
vertex 0.702124 0.000000 1.203823
vertex 0.708088 0.015446 1.201089
vertex 0.710387 0.023197 1.208492
endloop
endfacet
facet normal -0.940943 0.186908 -0.282299
outer loop
vertex 0.697581 0.016768 1.141031
vertex 0.702347 0.018491 1.126286
vertex 0.699163 0.000000 1.124656
endloop
endfacet
facet normal -0.981843 0.076775 -0.173464
outer loop
vertex 0.699163 0.000000 1.124656
vertex 0.696486 0.000000 1.139807
vertex 0.697581 0.016768 1.141031
endloop
endfacet
facet normal -0.824799 0.560116 0.077309
outer loop
vertex 0.682600 0.000000 1.185486
vertex 0.690464 0.012113 1.181629
vertex 0.691533 0.015553 1.168111
endloop
endfacet
facet normal -0.899269 0.388486 -0.200983
outer loop
vertex 0.684716 0.022925 1.250812
vertex 0.690960 0.036301 1.248729
vertex 0.692381 0.033063 1.236112
endloop
endfacet
facet normal -0.886635 0.318344 -0.335464
outer loop
vertex 0.686962 0.018567 1.236678
vertex 0.692381 0.033063 1.236112
vertex 0.695428 0.030220 1.225361
endloop
endfacet
facet normal -0.910844 0.330869 -0.246758
outer loop
vertex 0.684716 0.022925 1.250812
vertex 0.692381 0.033063 1.236112
vertex 0.686962 0.018567 1.236678
endloop
endfacet
facet normal -0.759355 0.591051 -0.272099
outer loop
vertex 0.716788 0.060115 1.180116
vertex 0.705875 0.050665 1.190044
vertex 0.713759 0.061897 1.192440
endloop
endfacet
facet normal -0.702356 0.704566 -0.101407
outer loop
vertex 0.716788 0.060115 1.180116
vertex 0.708240 0.051139 1.176957
vertex 0.705875 0.050665 1.190044
endloop
endfacet
facet normal -0.569015 0.696012 -0.437937
outer loop
vertex 0.725569 0.060526 1.169360
vertex 0.708240 0.051139 1.176957
vertex 0.716788 0.060115 1.180116
endloop
endfacet
facet normal -0.512756 0.850243 -0.119031
outer loop
vertex 0.725569 0.060526 1.169360
vertex 0.713046 0.052279 1.164397
vertex 0.708240 0.051139 1.176957
endloop
endfacet
facet normal -0.896825 0.417264 -0.146958
outer loop
vertex 0.705875 0.050665 1.190044
vertex 0.708240 0.051139 1.176957
vertex 0.703260 0.039247 1.173583
endloop
endfacet
facet normal -0.852130 0.438070 -0.286302
outer loop
vertex 0.703260 0.039247 1.173583
vertex 0.708240 0.051139 1.176957
vertex 0.713046 0.052279 1.164397
endloop
endfacet
facet normal -0.429670 0.901075 -0.058719
outer loop
vertex 0.729764 0.059573 1.153994
vertex 0.717089 0.053368 1.151524
vertex 0.713046 0.052279 1.164397
endloop
endfacet
facet normal -0.771214 0.607298 -0.190835
outer loop
vertex 0.705581 0.041728 1.160988
vertex 0.713046 0.052279 1.164397
vertex 0.717089 0.053368 1.151524
endloop
endfacet
facet normal -0.810605 0.584592 -0.034228
outer loop
vertex 0.703260 0.039247 1.173583
vertex 0.713046 0.052279 1.164397
vertex 0.705581 0.041728 1.160988
endloop
endfacet
facet normal -0.487888 0.852840 -0.186088
outer loop
vertex 0.729764 0.059573 1.153994
vertex 0.713046 0.052279 1.164397
vertex 0.725569 0.060526 1.169360
endloop
endfacet
facet normal -0.323030 0.836250 -0.443101
outer loop
vertex 0.736095 0.054619 1.140029
vertex 0.717089 0.053368 1.151524
vertex 0.729764 0.059573 1.153994
endloop
endfacet
facet normal -0.750599 0.651244 -0.111731
outer loop
vertex 0.705581 0.041728 1.160988
vertex 0.717089 0.053368 1.151524
vertex 0.708963 0.043667 1.149570
endloop
endfacet
facet normal -0.625767 0.619599 -0.473828
outer loop
vertex 0.708963 0.043667 1.149570
vertex 0.717089 0.053368 1.151524
vertex 0.720359 0.045085 1.136374
endloop
endfacet
facet normal -0.357821 0.784659 -0.506235
outer loop
vertex 0.736095 0.054619 1.140029
vertex 0.720359 0.045085 1.136374
vertex 0.717089 0.053368 1.151524
endloop
endfacet
facet normal -0.781811 0.506318 -0.363885
outer loop
vertex 0.708963 0.043667 1.149570
vertex 0.709746 0.030994 1.130254
vertex 0.702839 0.030279 1.144099
endloop
endfacet
facet normal -0.606217 0.653464 -0.453306
outer loop
vertex 0.708963 0.043667 1.149570
vertex 0.720359 0.045085 1.136374
vertex 0.709746 0.030994 1.130254
endloop
endfacet
facet normal -0.754427 0.556779 -0.347616
outer loop
vertex 0.702347 0.018491 1.126286
vertex 0.702839 0.030279 1.144099
vertex 0.709746 0.030994 1.130254
endloop
endfacet
facet normal -0.423582 0.151661 -0.893072
outer loop
vertex 0.702347 0.018491 1.126286
vertex 0.713790 0.000000 1.117719
vertex 0.699163 0.000000 1.124656
endloop
endfacet
facet normal 0.394592 -0.095988 -0.913829
outer loop
vertex 0.724142 0.011847 1.119729
vertex 0.729436 0.024120 1.120726
vertex 0.738407 0.021862 1.124837
endloop
endfacet
facet normal 0.401249 -0.068786 -0.913383
outer loop
vertex 0.738678 0.033760 1.124060
vertex 0.738407 0.021862 1.124837
vertex 0.729436 0.024120 1.120726
endloop
endfacet
facet normal -0.311485 0.741787 -0.593910
outer loop
vertex 0.744560 0.046569 1.125535
vertex 0.720359 0.045085 1.136374
vertex 0.736095 0.054619 1.140029
endloop
endfacet
facet normal 0.907106 -0.297740 0.297507
outer loop
vertex 0.703342 0.027940 1.224701
vertex 0.699543 0.013973 1.222305
vertex 0.701708 0.015442 1.217174
endloop
endfacet
facet normal -0.985349 0.142654 -0.093470
outer loop
vertex 0.682851 0.000628 1.252635
vertex 0.686962 0.018567 1.236678
vertex 0.684262 0.000000 1.236807
endloop
endfacet
facet normal -0.766134 -0.604519 0.218162
outer loop
vertex 0.682600 0.000000 1.185486
vertex 0.689612 0.000528 1.211575
vertex 0.682208 0.000567 1.185682
endloop
endfacet
facet normal -0.742315 0.608332 0.280892
outer loop
vertex 0.701154 0.013774 1.211049
vertex 0.694705 0.011650 1.198606
vertex 0.690058 0.000000 1.211555
endloop
endfacet
facet normal -0.987348 -0.135348 -0.082618
outer loop
vertex 0.682851 0.000628 1.252635
vertex 0.684262 0.000000 1.236807
vertex 0.682984 0.000000 1.252079
endloop
endfacet
facet normal 0.954562 -0.129084 0.268605
outer loop
vertex 0.729764 0.059573 1.153994
vertex 0.725569 0.060526 1.169360
vertex 0.721265 0.000000 1.155568
endloop
endfacet
facet normal 0.866884 -0.477245 0.144047
outer loop
vertex 0.738407 0.021862 1.124837
vertex 0.742763 0.030329 1.126674
vertex 0.721265 0.000000 1.155568
endloop
endfacet
facet normal 0.917362 -0.161372 0.363877
outer loop
vertex 0.727645 0.000000 1.139482
vertex 0.734026 0.000000 1.123397
vertex 0.735914 0.012260 1.124074
endloop
endfacet
facet normal 0.993884 0.027190 -0.107032
outer loop
vertex 0.713367 0.059831 1.217598
vertex 0.713293 0.035063 1.210616
vertex 0.711754 0.030472 1.195162
endloop
endfacet
facet normal 0.909601 -0.206047 0.360791
outer loop
vertex 0.721265 0.000000 1.155568
vertex 0.727645 0.000000 1.139482
vertex 0.738407 0.021862 1.124837
endloop
endfacet
facet normal 0.834603 -0.071210 0.546230
outer loop
vertex 0.742763 0.030329 1.126674
vertex 0.736095 0.054619 1.140029
vertex 0.721265 0.000000 1.155568
endloop
endfacet
facet normal 0.966021 -0.153618 0.207859
outer loop
vertex 0.708088 0.015446 1.201089
vertex 0.708505 0.000000 1.187738
vertex 0.715836 0.030065 1.175884
endloop
endfacet
facet normal 0.907121 -0.297648 0.297554
outer loop
vertex 0.699543 0.013973 1.222305
vertex 0.695744 0.000000 1.219909
vertex 0.701708 0.015442 1.217174
endloop
endfacet
facet normal 0.997897 -0.062031 0.018787
outer loop
vertex 0.713759 0.061897 1.192440
vertex 0.713533 0.062038 1.204911
vertex 0.711754 0.030472 1.195162
endloop
endfacet
facet normal 0.891880 -0.281786 0.353762
outer loop
vertex 0.702124 0.000000 1.203823
vertex 0.701708 0.015442 1.217174
vertex 0.695744 0.000000 1.219909
endloop
endfacet
facet normal 0.743247 -0.250329 0.620419
outer loop
vertex 0.690960 0.036301 1.248729
vertex 0.684716 0.022925 1.250812
vertex 0.689364 0.000000 1.235994
endloop
endfacet
facet normal 0.929540 -0.047859 0.365602
outer loop
vertex 0.684716 0.022925 1.250812
vertex 0.682851 0.000628 1.252635
vertex 0.689364 0.000000 1.235994
endloop
endfacet
facet normal 0.921801 -0.128812 0.365636
outer loop
vertex 0.682851 0.000628 1.252635
vertex 0.682984 0.000000 1.252079
vertex 0.689364 0.000000 1.235994
endloop
endfacet
facet normal 0.916363 -0.167813 0.363480
outer loop
vertex 0.689364 0.000000 1.235994
vertex 0.695744 0.000000 1.219909
vertex 0.690960 0.036301 1.248729
endloop
endfacet
facet normal 0.860417 -0.304148 0.408872
outer loop
vertex 0.707140 0.041908 1.227097
vertex 0.700022 0.047914 1.246545
vertex 0.703342 0.027940 1.224701
endloop
endfacet
facet normal 0.798690 -0.306093 0.518075
outer loop
vertex 0.690960 0.036301 1.248729
vertex 0.699543 0.013973 1.222305
vertex 0.703342 0.027940 1.224701
endloop
endfacet
facet normal 0.967289 -0.250858 -0.037723
outer loop
vertex 0.711754 0.030472 1.195162
vertex 0.710387 0.023197 1.208492
vertex 0.708088 0.015446 1.201089
endloop
endfacet
facet normal 0.926486 -0.081046 0.367499
outer loop
vertex 0.708505 0.000000 1.187738
vertex 0.714885 0.000000 1.171653
vertex 0.715836 0.030065 1.175884
endloop
endfacet
facet normal 0.998357 -0.057217 0.003109
outer loop
vertex 0.711754 0.030472 1.195162
vertex 0.713533 0.062038 1.204911
vertex 0.713367 0.059831 1.217598
endloop
endfacet
facet normal 0.914785 -0.112128 0.388067
outer loop
vertex 0.713367 0.059831 1.217598
vertex 0.707140 0.041908 1.227097
vertex 0.713293 0.035063 1.210616
endloop
endfacet
facet normal 0.976272 -0.060209 0.208009
outer loop
vertex 0.715836 0.030065 1.175884
vertex 0.716788 0.060115 1.180116
vertex 0.711754 0.030472 1.195162
endloop
endfacet
facet normal 0.968916 -0.040678 0.244021
outer loop
vertex 0.716788 0.060115 1.180116
vertex 0.713759 0.061897 1.192440
vertex 0.711754 0.030472 1.195162
endloop
endfacet
facet normal 0.972067 -0.233082 -0.027534
outer loop
vertex 0.710387 0.023197 1.208492
vertex 0.711754 0.030472 1.195162
vertex 0.713293 0.035063 1.210616
endloop
endfacet
facet normal 0.801514 -0.381884 0.460152
outer loop
vertex 0.703342 0.027940 1.224701
vertex 0.701708 0.015442 1.217174
vertex 0.710387 0.023197 1.208492
endloop
endfacet
facet normal 0.771815 -0.112566 0.625804
outer loop
vertex 0.725569 0.060526 1.169360
vertex 0.716788 0.060115 1.180116
vertex 0.715836 0.030065 1.175884
endloop
endfacet
facet normal 0.891888 -0.281747 0.353771
outer loop
vertex 0.702124 0.000000 1.203823
vertex 0.708505 0.000000 1.187738
vertex 0.708088 0.015446 1.201089
endloop
endfacet
facet normal 0.801420 -0.378657 0.462974
outer loop
vertex 0.701708 0.015442 1.217174
vertex 0.702124 0.000000 1.203823
vertex 0.710387 0.023197 1.208492
endloop
endfacet
facet normal -0.832272 0.554179 0.014428
outer loop
vertex 0.707700 0.051237 1.220802
vertex 0.710939 0.055875 1.229493
vertex 0.713367 0.059831 1.217598
endloop
endfacet
facet normal 0.860421 -0.304145 0.408867
outer loop
vertex 0.707140 0.041908 1.227097
vertex 0.710939 0.055875 1.229493
vertex 0.700022 0.047914 1.246545
endloop
endfacet
facet normal 0.798772 -0.305990 0.518010
outer loop
vertex 0.690960 0.036301 1.248729
vertex 0.695744 0.000000 1.219909
vertex 0.699543 0.013973 1.222305
endloop
endfacet
facet normal 0.966018 -0.153696 0.207814
outer loop
vertex 0.708088 0.015446 1.201089
vertex 0.715836 0.030065 1.175884
vertex 0.711754 0.030472 1.195162
endloop
endfacet
facet normal 0.852274 -0.286988 0.437342
outer loop
vertex 0.710387 0.023197 1.208492
vertex 0.713293 0.035063 1.210616
vertex 0.707140 0.041908 1.227097
endloop
endfacet
facet normal -0.767496 0.638706 -0.054812
outer loop
vertex 0.701339 0.044134 1.227103
vertex 0.710939 0.055875 1.229493
vertex 0.707700 0.051237 1.220802
endloop
endfacet
facet normal -0.969256 -0.139564 -0.202645
outer loop
vertex 0.687449 -0.000557 1.221945
vertex 0.686962 -0.018567 1.236678
vertex 0.684262 0.000000 1.236807
endloop
endfacet
facet normal -0.981900 -0.067669 -0.176899
outer loop
vertex 0.682851 -0.000628 1.252635
vertex 0.686962 -0.018567 1.236678
vertex 0.684716 -0.022925 1.250812
endloop
endfacet
facet normal 0.470289 0.107420 -0.875950
outer loop
vertex 0.738678 -0.033760 1.124060
vertex 0.742763 -0.030329 1.126674
vertex 0.751847 -0.040344 1.130323
endloop
endfacet
facet normal 0.496715 0.067824 -0.865260
outer loop
vertex 0.738678 -0.033760 1.124060
vertex 0.738407 -0.021862 1.124837
vertex 0.742763 -0.030329 1.126674
endloop
endfacet
facet normal 0.362764 -0.149392 -0.919828
outer loop
vertex 0.751847 -0.040344 1.130323
vertex 0.731595 -0.039507 1.122200
vertex 0.738678 -0.033760 1.124060
endloop
endfacet
facet normal 0.368997 0.255410 -0.893648
outer loop
vertex 0.751847 -0.040344 1.130323
vertex 0.744560 -0.046569 1.125535
vertex 0.731595 -0.039507 1.122200
endloop
endfacet
facet normal -0.290697 -0.789179 -0.541009
outer loop
vertex 0.744560 -0.046569 1.125535
vertex 0.720359 -0.045085 1.136374
vertex 0.731595 -0.039507 1.122200
endloop
endfacet
facet normal -0.413132 -0.686957 -0.597840
outer loop
vertex 0.720359 -0.045085 1.136374
vertex 0.719844 -0.029716 1.119070
vertex 0.731595 -0.039507 1.122200
endloop
endfacet
facet normal 0.255673 -0.002207 -0.966761
outer loop
vertex 0.738678 -0.033760 1.124060
vertex 0.731595 -0.039507 1.122200
vertex 0.719844 -0.029716 1.119070
endloop
endfacet
facet normal -0.592898 -0.540350 -0.597071
outer loop
vertex 0.719844 -0.029716 1.119070
vertex 0.709746 -0.030994 1.130254
vertex 0.702347 -0.018491 1.126286
endloop
endfacet
facet normal -0.499342 -0.243895 -0.831368
outer loop
vertex 0.702347 -0.018491 1.126286
vertex 0.714459 -0.014164 1.117742
vertex 0.719844 -0.029716 1.119070
endloop
endfacet
facet normal -0.531855 -0.640955 -0.553450
outer loop
vertex 0.720359 -0.045085 1.136374
vertex 0.709746 -0.030994 1.130254
vertex 0.719844 -0.029716 1.119070
endloop
endfacet
facet normal 0.232004 -0.111758 -0.966273
outer loop
vertex 0.738678 -0.033760 1.124060
vertex 0.719844 -0.029716 1.119070
vertex 0.729436 -0.024120 1.120726
endloop
endfacet
facet normal 0.181946 -0.020953 -0.983085
outer loop
vertex 0.714459 -0.014164 1.117742
vertex 0.729436 -0.024120 1.120726
vertex 0.719844 -0.029716 1.119070
endloop
endfacet
facet normal -0.569418 -0.028259 -0.821562
outer loop
vertex 0.702347 -0.018491 1.126286
vertex 0.713790 0.000000 1.117719
vertex 0.714459 -0.014164 1.117742
endloop
endfacet
facet normal 0.205315 0.008096 -0.978663
outer loop
vertex 0.722766 0.000000 1.119602
vertex 0.714459 -0.014164 1.117742
vertex 0.713790 0.000000 1.117719
endloop
endfacet
facet normal 0.199533 0.006472 -0.979870
outer loop
vertex 0.714459 -0.014164 1.117742
vertex 0.724142 -0.011847 1.119729
vertex 0.729436 -0.024120 1.120726
endloop
endfacet
facet normal 0.198149 0.012513 -0.980092
outer loop
vertex 0.722766 0.000000 1.119602
vertex 0.724142 -0.011847 1.119729
vertex 0.714459 -0.014164 1.117742
endloop
endfacet
facet normal 0.714868 0.458544 0.527922
outer loop
vertex 0.700022 -0.047914 1.246545
vertex 0.703342 -0.027940 1.224701
vertex 0.690960 -0.036301 1.248729
endloop
endfacet
facet normal 0.319289 0.026934 -0.947275
outer loop
vertex 0.734026 0.000000 1.123397
vertex 0.724142 -0.011847 1.119729
vertex 0.722766 0.000000 1.119602
endloop
endfacet
facet normal -0.742923 0.634739 0.212536
outer loop
vertex 0.682600 0.000000 1.185486
vertex 0.689612 -0.000528 1.211575
vertex 0.690058 0.000000 1.211555
endloop
endfacet
facet normal 0.346694 0.015480 -0.937850
outer loop
vertex 0.724142 -0.011847 1.119729
vertex 0.735914 -0.012260 1.124074
vertex 0.738407 -0.021862 1.124837
endloop
endfacet
facet normal 0.346309 0.001567 -0.938119
outer loop
vertex 0.734026 0.000000 1.123397
vertex 0.735914 -0.012260 1.124074
vertex 0.724142 -0.011847 1.119729
endloop
endfacet
facet normal -0.906386 -0.052292 -0.419202
outer loop
vertex 0.697130 0.000000 1.154069
vertex 0.691533 -0.015553 1.168111
vertex 0.682600 0.000000 1.185486
endloop
endfacet
facet normal 0.919246 0.148454 0.364620
outer loop
vertex 0.721265 0.000000 1.155568
vertex 0.714885 0.000000 1.171653
vertex 0.725569 -0.060526 1.169360
endloop
endfacet
facet normal 0.771740 0.112515 0.625905
outer loop
vertex 0.725569 -0.060526 1.169360
vertex 0.714885 0.000000 1.171653
vertex 0.715836 -0.030065 1.175884
endloop
endfacet
facet normal 0.955246 0.277406 0.102720
outer loop
vertex 0.713367 -0.059831 1.217598
vertex 0.707140 -0.041908 1.227097
vertex 0.710939 -0.055875 1.229493
endloop
endfacet
facet normal 0.921674 0.262040 0.286099
outer loop
vertex 0.735914 -0.012260 1.124074
vertex 0.727645 0.000000 1.139482
vertex 0.738407 -0.021862 1.124837
endloop
endfacet
facet normal 0.138675 0.447637 0.883397
outer loop
vertex 0.742763 -0.030329 1.126674
vertex 0.736095 -0.054619 1.140029
vertex 0.751847 -0.040344 1.130323
endloop
endfacet
facet normal -0.999721 -0.010371 -0.021219
outer loop
vertex 0.697130 0.000000 1.154069
vertex 0.697581 -0.016768 1.141031
vertex 0.697260 -0.015413 1.155491
endloop
endfacet
facet normal -0.885181 -0.398863 -0.239506
outer loop
vertex 0.702347 -0.018491 1.126286
vertex 0.702839 -0.030279 1.144099
vertex 0.697581 -0.016768 1.141031
endloop
endfacet
facet normal -0.907566 -0.389060 -0.157977
outer loop
vertex 0.697581 -0.016768 1.141031
vertex 0.702839 -0.030279 1.144099
vertex 0.699834 -0.028856 1.157858
endloop
endfacet
facet normal -0.982015 -0.188757 -0.004111
outer loop
vertex 0.697581 -0.016768 1.141031
vertex 0.699834 -0.028856 1.157858
vertex 0.697260 -0.015413 1.155491
endloop
endfacet
facet normal -0.879523 -0.437941 -0.186138
outer loop
vertex 0.708963 -0.043667 1.149570
vertex 0.705581 -0.041728 1.160988
vertex 0.699834 -0.028856 1.157858
endloop
endfacet
facet normal -0.876365 -0.459660 -0.143863
outer loop
vertex 0.708963 -0.043667 1.149570
vertex 0.699834 -0.028856 1.157858
vertex 0.702839 -0.030279 1.144099
endloop
endfacet
facet normal -0.916135 -0.398540 0.043167
outer loop
vertex 0.705581 -0.041728 1.160988
vertex 0.699386 -0.026482 1.170268
vertex 0.699834 -0.028856 1.157858
endloop
endfacet
facet normal -0.982174 -0.187976 0.000503
outer loop
vertex 0.697260 -0.015413 1.155491
vertex 0.699834 -0.028856 1.157858
vertex 0.699386 -0.026482 1.170268
endloop
endfacet
facet normal -0.816933 -0.571057 0.080719
outer loop
vertex 0.690464 -0.012113 1.181629
vertex 0.691533 -0.015553 1.168111
vertex 0.699386 -0.026482 1.170268
endloop
endfacet
facet normal -0.669608 -0.669692 0.321151
outer loop
vertex 0.690464 -0.012113 1.181629
vertex 0.699386 -0.026482 1.170268
vertex 0.702353 -0.022792 1.184149
endloop
endfacet
facet normal -0.942498 -0.315018 -0.111628
outer loop
vertex 0.705581 -0.041728 1.160988
vertex 0.703260 -0.039247 1.173583
vertex 0.699386 -0.026482 1.170268
endloop
endfacet
facet normal -0.731255 -0.592234 -0.338417
outer loop
vertex 0.697260 -0.015413 1.155491
vertex 0.699386 -0.026482 1.170268
vertex 0.691533 -0.015553 1.168111
endloop
endfacet
facet normal -0.975174 -0.037132 0.218306
outer loop
vertex 0.703509 -0.036760 1.186937
vertex 0.702353 -0.022792 1.184149
vertex 0.699386 -0.026482 1.170268
endloop
endfacet
facet normal -0.959460 -0.273321 0.068791
outer loop
vertex 0.703509 -0.036760 1.186937
vertex 0.699386 -0.026482 1.170268
vertex 0.703260 -0.039247 1.173583
endloop
endfacet
facet normal -0.944635 0.017329 0.327666
outer loop
vertex 0.703509 -0.036760 1.186937
vertex 0.708843 -0.048487 1.202935
vertex 0.708223 -0.033240 1.200341
endloop
endfacet
facet normal -0.942372 -0.011242 0.334377
outer loop
vertex 0.702353 -0.022792 1.184149
vertex 0.703509 -0.036760 1.186937
vertex 0.708223 -0.033240 1.200341
endloop
endfacet
facet normal -0.964322 -0.110300 0.240660
outer loop
vertex 0.703509 -0.036760 1.186937
vertex 0.705875 -0.050665 1.190044
vertex 0.708843 -0.048487 1.202935
endloop
endfacet
facet normal -0.986418 -0.157189 0.047666
outer loop
vertex 0.705875 -0.050665 1.190044
vertex 0.703509 -0.036760 1.186937
vertex 0.703260 -0.039247 1.173583
endloop
endfacet
facet normal -0.813679 -0.512707 0.273967
outer loop
vertex 0.713759 -0.061897 1.192440
vertex 0.708843 -0.048487 1.202935
vertex 0.705875 -0.050665 1.190044
endloop
endfacet
facet normal -0.943854 -0.329706 -0.020834
outer loop
vertex 0.713759 -0.061897 1.192440
vertex 0.713533 -0.062038 1.204911
vertex 0.708843 -0.048487 1.202935
endloop
endfacet
facet normal -0.949607 -0.308731 0.054136
outer loop
vertex 0.713367 -0.059831 1.217598
vertex 0.708714 -0.045854 1.215688
vertex 0.708843 -0.048487 1.202935
endloop
endfacet
facet normal -0.999161 -0.040913 -0.001659
outer loop
vertex 0.708714 -0.045854 1.215688
vertex 0.708223 -0.033240 1.200341
vertex 0.708843 -0.048487 1.202935
endloop
endfacet
facet normal -0.946054 -0.321079 0.043477
outer loop
vertex 0.713367 -0.059831 1.217598
vertex 0.708843 -0.048487 1.202935
vertex 0.713533 -0.062038 1.204911
endloop
endfacet
facet normal -0.793690 -0.333709 -0.508620
outer loop
vertex 0.707700 -0.051237 1.220802
vertex 0.708714 -0.045854 1.215688
vertex 0.713367 -0.059831 1.217598
endloop
endfacet
facet normal -0.820166 -0.305238 -0.483899
outer loop
vertex 0.701339 -0.044134 1.227103
vertex 0.708714 -0.045854 1.215688
vertex 0.707700 -0.051237 1.220802
endloop
endfacet
facet normal -0.744294 -0.644328 -0.175693
outer loop
vertex 0.700022 -0.047914 1.246545
vertex 0.701339 -0.044134 1.227103
vertex 0.710939 -0.055875 1.229493
endloop
endfacet
facet normal -0.792258 -0.586679 -0.167733
outer loop
vertex 0.701339 -0.044134 1.227103
vertex 0.700022 -0.047914 1.246545
vertex 0.690960 -0.036301 1.248729
endloop
endfacet
facet normal -0.846915 -0.403195 -0.346653
outer loop
vertex 0.692381 -0.033063 1.236112
vertex 0.695428 -0.030220 1.225361
vertex 0.701339 -0.044134 1.227103
endloop
endfacet
facet normal -0.838457 -0.497635 -0.222150
outer loop
vertex 0.701339 -0.044134 1.227103
vertex 0.690960 -0.036301 1.248729
vertex 0.692381 -0.033063 1.236112
endloop
endfacet
facet normal -0.632879 -0.355009 -0.688064
outer loop
vertex 0.701339 -0.044134 1.227103
vertex 0.695428 -0.030220 1.225361
vertex 0.707672 -0.030879 1.214439
endloop
endfacet
facet normal -0.842485 -0.102721 -0.528837
outer loop
vertex 0.707672 -0.030879 1.214439
vertex 0.708714 -0.045854 1.215688
vertex 0.701339 -0.044134 1.227103
endloop
endfacet
facet normal -0.628357 -0.374569 -0.681810
outer loop
vertex 0.701154 -0.013774 1.211049
vertex 0.707672 -0.030879 1.214439
vertex 0.695428 -0.030220 1.225361
endloop
endfacet
facet normal -0.913387 -0.378001 -0.151126
outer loop
vertex 0.707672 -0.030879 1.214439
vertex 0.701154 -0.013774 1.211049
vertex 0.705809 -0.019522 1.197292
endloop
endfacet
facet normal -0.997066 -0.071635 -0.026972
outer loop
vertex 0.708714 -0.045854 1.215688
vertex 0.707672 -0.030879 1.214439
vertex 0.708223 -0.033240 1.200341
endloop
endfacet
facet normal -0.984479 -0.175264 -0.009124
outer loop
vertex 0.707672 -0.030879 1.214439
vertex 0.705809 -0.019522 1.197292
vertex 0.708223 -0.033240 1.200341
endloop
endfacet
facet normal -0.559755 -0.814779 0.151028
outer loop
vertex 0.701154 -0.013774 1.211049
vertex 0.694705 -0.011650 1.198606
vertex 0.705809 -0.019522 1.197292
endloop
endfacet
facet normal -0.518961 -0.787520 0.332403
outer loop
vertex 0.694705 -0.011650 1.198606
vertex 0.702353 -0.022792 1.184149
vertex 0.705809 -0.019522 1.197292
endloop
endfacet
facet normal -0.954814 -0.106340 0.277529
outer loop
vertex 0.702353 -0.022792 1.184149
vertex 0.708223 -0.033240 1.200341
vertex 0.705809 -0.019522 1.197292
endloop
endfacet
facet normal -0.787307 -0.578800 0.212459
outer loop
vertex 0.694705 -0.011650 1.198606
vertex 0.682600 0.000000 1.185486
vertex 0.690464 -0.012113 1.181629
endloop
endfacet
facet normal -0.678067 -0.710349 0.188759
outer loop
vertex 0.694705 -0.011650 1.198606
vertex 0.690464 -0.012113 1.181629
vertex 0.702353 -0.022792 1.184149
endloop
endfacet
facet normal -0.941355 -0.228151 -0.248591
outer loop
vertex 0.687449 -0.000557 1.221945
vertex 0.690058 0.000000 1.211555
vertex 0.690736 -0.015919 1.223597
endloop
endfacet
facet normal -0.950500 0.211862 -0.227298
outer loop
vertex 0.690058 0.000000 1.211555
vertex 0.687449 -0.000557 1.221945
vertex 0.687558 0.000000 1.222006
endloop
endfacet
facet normal -0.968164 0.132147 -0.212593
outer loop
vertex 0.687449 -0.000557 1.221945
vertex 0.684262 0.000000 1.236807
vertex 0.687424 0.000000 1.222404
endloop
endfacet
facet normal -0.630125 -0.485345 -0.606121
outer loop
vertex 0.690736 -0.015919 1.223597
vertex 0.690058 0.000000 1.211555
vertex 0.701154 -0.013774 1.211049
endloop
endfacet
facet normal -0.921438 -0.230773 -0.312564
outer loop
vertex 0.686962 -0.018567 1.236678
vertex 0.687449 -0.000557 1.221945
vertex 0.690736 -0.015919 1.223597
endloop
endfacet
facet normal -0.886789 -0.330763 -0.322802
outer loop
vertex 0.686962 -0.018567 1.236678
vertex 0.690736 -0.015919 1.223597
vertex 0.695428 -0.030220 1.225361
endloop
endfacet
facet normal -0.704787 -0.309943 -0.638130
outer loop
vertex 0.701154 -0.013774 1.211049
vertex 0.695428 -0.030220 1.225361
vertex 0.690736 -0.015919 1.223597
endloop
endfacet
facet normal -0.791613 -0.567505 0.226464
outer loop
vertex 0.682600 0.000000 1.185486
vertex 0.694705 -0.011650 1.198606
vertex 0.690058 0.000000 1.211555
endloop
endfacet
facet normal -0.997073 -0.061800 0.045024
outer loop
vertex 0.697130 0.000000 1.154069
vertex 0.696486 0.000000 1.139807
vertex 0.697581 -0.016768 1.141031
endloop
endfacet
facet normal 0.660774 -0.749961 -0.030614
outer loop
vertex 0.751847 -0.040344 1.130323
vertex 0.736095 -0.054619 1.140029
vertex 0.744560 -0.046569 1.125535
endloop
endfacet
facet normal -0.909474 -0.045787 -0.413232
outer loop
vertex 0.697130 0.000000 1.154069
vertex 0.697260 -0.015413 1.155491
vertex 0.691533 -0.015553 1.168111
endloop
endfacet
facet normal 0.837335 0.305503 0.453363
outer loop
vertex 0.707140 -0.041908 1.227097
vertex 0.710387 -0.023197 1.208492
vertex 0.703342 -0.027940 1.224701
endloop
endfacet
facet normal 0.888743 0.115065 0.443728
outer loop
vertex 0.736095 -0.054619 1.140029
vertex 0.721265 0.000000 1.155568
vertex 0.729764 -0.059573 1.153994
endloop
endfacet
facet normal 0.934653 0.347794 0.073910
outer loop
vertex 0.702124 0.000000 1.203823
vertex 0.710387 -0.023197 1.208492
vertex 0.708088 -0.015446 1.201089
endloop
endfacet
facet normal -0.940943 -0.186908 -0.282299
outer loop
vertex 0.697581 -0.016768 1.141031
vertex 0.699163 0.000000 1.124656
vertex 0.702347 -0.018491 1.126286
endloop
endfacet
facet normal -0.981843 -0.076775 -0.173464
outer loop
vertex 0.699163 0.000000 1.124656
vertex 0.697581 -0.016768 1.141031
vertex 0.696486 0.000000 1.139807
endloop
endfacet
facet normal -0.824799 -0.560116 0.077309
outer loop
vertex 0.682600 0.000000 1.185486
vertex 0.691533 -0.015553 1.168111
vertex 0.690464 -0.012113 1.181629
endloop
endfacet
facet normal -0.899269 -0.388486 -0.200983
outer loop
vertex 0.684716 -0.022925 1.250812
vertex 0.692381 -0.033063 1.236112
vertex 0.690960 -0.036301 1.248729
endloop
endfacet
facet normal -0.886635 -0.318344 -0.335464
outer loop
vertex 0.686962 -0.018567 1.236678
vertex 0.695428 -0.030220 1.225361
vertex 0.692381 -0.033063 1.236112
endloop
endfacet
facet normal -0.910844 -0.330869 -0.246758
outer loop
vertex 0.684716 -0.022925 1.250812
vertex 0.686962 -0.018567 1.236678
vertex 0.692381 -0.033063 1.236112
endloop
endfacet
facet normal -0.759355 -0.591051 -0.272099
outer loop
vertex 0.716788 -0.060115 1.180116
vertex 0.713759 -0.061897 1.192440
vertex 0.705875 -0.050665 1.190044
endloop
endfacet
facet normal -0.702356 -0.704566 -0.101407
outer loop
vertex 0.716788 -0.060115 1.180116
vertex 0.705875 -0.050665 1.190044
vertex 0.708240 -0.051139 1.176957
endloop
endfacet
facet normal -0.569015 -0.696012 -0.437937
outer loop
vertex 0.725569 -0.060526 1.169360
vertex 0.716788 -0.060115 1.180116
vertex 0.708240 -0.051139 1.176957
endloop
endfacet
facet normal -0.512756 -0.850243 -0.119031
outer loop
vertex 0.725569 -0.060526 1.169360
vertex 0.708240 -0.051139 1.176957
vertex 0.713046 -0.052279 1.164397
endloop
endfacet
facet normal -0.896825 -0.417264 -0.146958
outer loop
vertex 0.705875 -0.050665 1.190044
vertex 0.703260 -0.039247 1.173583
vertex 0.708240 -0.051139 1.176957
endloop
endfacet
facet normal -0.852130 -0.438070 -0.286302
outer loop
vertex 0.703260 -0.039247 1.173583
vertex 0.713046 -0.052279 1.164397
vertex 0.708240 -0.051139 1.176957
endloop
endfacet
facet normal -0.429670 -0.901075 -0.058719
outer loop
vertex 0.729764 -0.059573 1.153994
vertex 0.713046 -0.052279 1.164397
vertex 0.717089 -0.053368 1.151524
endloop
endfacet
facet normal -0.771214 -0.607298 -0.190835
outer loop
vertex 0.705581 -0.041728 1.160988
vertex 0.717089 -0.053368 1.151524
vertex 0.713046 -0.052279 1.164397
endloop
endfacet
facet normal -0.810605 -0.584592 -0.034228
outer loop
vertex 0.703260 -0.039247 1.173583
vertex 0.705581 -0.041728 1.160988
vertex 0.713046 -0.052279 1.164397
endloop
endfacet
facet normal -0.487888 -0.852840 -0.186088
outer loop
vertex 0.729764 -0.059573 1.153994
vertex 0.725569 -0.060526 1.169360
vertex 0.713046 -0.052279 1.164397
endloop
endfacet
facet normal -0.323030 -0.836250 -0.443101
outer loop
vertex 0.736095 -0.054619 1.140029
vertex 0.729764 -0.059573 1.153994
vertex 0.717089 -0.053368 1.151524
endloop
endfacet
facet normal -0.750599 -0.651244 -0.111731
outer loop
vertex 0.705581 -0.041728 1.160988
vertex 0.708963 -0.043667 1.149570
vertex 0.717089 -0.053368 1.151524
endloop
endfacet
facet normal -0.625767 -0.619599 -0.473828
outer loop
vertex 0.708963 -0.043667 1.149570
vertex 0.720359 -0.045085 1.136374
vertex 0.717089 -0.053368 1.151524
endloop
endfacet
facet normal -0.357821 -0.784659 -0.506235
outer loop
vertex 0.736095 -0.054619 1.140029
vertex 0.717089 -0.053368 1.151524
vertex 0.720359 -0.045085 1.136374
endloop
endfacet
facet normal -0.781811 -0.506318 -0.363885
outer loop
vertex 0.708963 -0.043667 1.149570
vertex 0.702839 -0.030279 1.144099
vertex 0.709746 -0.030994 1.130254
endloop
endfacet
facet normal -0.606217 -0.653464 -0.453306
outer loop
vertex 0.708963 -0.043667 1.149570
vertex 0.709746 -0.030994 1.130254
vertex 0.720359 -0.045085 1.136374
endloop
endfacet
facet normal -0.754427 -0.556779 -0.347616
outer loop
vertex 0.702347 -0.018491 1.126286
vertex 0.709746 -0.030994 1.130254
vertex 0.702839 -0.030279 1.144099
endloop
endfacet
facet normal -0.423582 -0.151661 -0.893072
outer loop
vertex 0.702347 -0.018491 1.126286
vertex 0.699163 0.000000 1.124656
vertex 0.713790 0.000000 1.117719
endloop
endfacet
facet normal 0.394592 0.095988 -0.913829
outer loop
vertex 0.724142 -0.011847 1.119729
vertex 0.738407 -0.021862 1.124837
vertex 0.729436 -0.024120 1.120726
endloop
endfacet
facet normal 0.401249 0.068786 -0.913383
outer loop
vertex 0.738678 -0.033760 1.124060
vertex 0.729436 -0.024120 1.120726
vertex 0.738407 -0.021862 1.124837
endloop
endfacet
facet normal -0.311485 -0.741787 -0.593910
outer loop
vertex 0.744560 -0.046569 1.125535
vertex 0.736095 -0.054619 1.140029
vertex 0.720359 -0.045085 1.136374
endloop
endfacet
facet normal 0.907106 0.297740 0.297507
outer loop
vertex 0.703342 -0.027940 1.224701
vertex 0.701708 -0.015442 1.217174
vertex 0.699543 -0.013973 1.222305
endloop
endfacet
facet normal -0.985349 -0.142654 -0.093470
outer loop
vertex 0.682851 -0.000628 1.252635
vertex 0.684262 0.000000 1.236807
vertex 0.686962 -0.018567 1.236678
endloop
endfacet
facet normal -0.766134 0.604519 0.218162
outer loop
vertex 0.682600 0.000000 1.185486
vertex 0.682208 -0.000567 1.185682
vertex 0.689612 -0.000528 1.211575
endloop
endfacet
facet normal -0.742315 -0.608332 0.280892
outer loop
vertex 0.701154 -0.013774 1.211049
vertex 0.690058 0.000000 1.211555
vertex 0.694705 -0.011650 1.198606
endloop
endfacet
facet normal -0.987348 0.135348 -0.082618
outer loop
vertex 0.682851 -0.000628 1.252635
vertex 0.682984 0.000000 1.252079
vertex 0.684262 0.000000 1.236807
endloop
endfacet
facet normal 0.954562 0.129084 0.268605
outer loop
vertex 0.729764 -0.059573 1.153994
vertex 0.721265 0.000000 1.155568
vertex 0.725569 -0.060526 1.169360
endloop
endfacet
facet normal 0.866884 0.477245 0.144047
outer loop
vertex 0.738407 -0.021862 1.124837
vertex 0.721265 0.000000 1.155568
vertex 0.742763 -0.030329 1.126674
endloop
endfacet
facet normal 0.917362 0.161372 0.363877
outer loop
vertex 0.727645 0.000000 1.139482
vertex 0.735914 -0.012260 1.124074
vertex 0.734026 0.000000 1.123397
endloop
endfacet
facet normal 0.993884 -0.027190 -0.107032
outer loop
vertex 0.713367 -0.059831 1.217598
vertex 0.711754 -0.030472 1.195162
vertex 0.713293 -0.035063 1.210616
endloop
endfacet
facet normal 0.909601 0.206047 0.360791
outer loop
vertex 0.721265 0.000000 1.155568
vertex 0.738407 -0.021862 1.124837
vertex 0.727645 0.000000 1.139482
endloop
endfacet
facet normal 0.834603 0.071210 0.546230
outer loop
vertex 0.742763 -0.030329 1.126674
vertex 0.721265 0.000000 1.155568
vertex 0.736095 -0.054619 1.140029
endloop
endfacet
facet normal 0.966021 0.153618 0.207859
outer loop
vertex 0.708088 -0.015446 1.201089
vertex 0.715836 -0.030065 1.175884
vertex 0.708505 0.000000 1.187738
endloop
endfacet
facet normal 0.907121 0.297648 0.297554
outer loop
vertex 0.699543 -0.013973 1.222305
vertex 0.701708 -0.015442 1.217174
vertex 0.695744 0.000000 1.219909
endloop
endfacet
facet normal 0.997897 0.062031 0.018787
outer loop
vertex 0.713759 -0.061897 1.192440
vertex 0.711754 -0.030472 1.195162
vertex 0.713533 -0.062038 1.204911
endloop
endfacet
facet normal 0.891880 0.281786 0.353762
outer loop
vertex 0.702124 0.000000 1.203823
vertex 0.695744 0.000000 1.219909
vertex 0.701708 -0.015442 1.217174
endloop
endfacet
facet normal 0.743247 0.250329 0.620419
outer loop
vertex 0.690960 -0.036301 1.248729
vertex 0.689364 0.000000 1.235994
vertex 0.684716 -0.022925 1.250812
endloop
endfacet
facet normal 0.929540 0.047859 0.365602
outer loop
vertex 0.684716 -0.022925 1.250812
vertex 0.689364 0.000000 1.235994
vertex 0.682851 -0.000628 1.252635
endloop
endfacet
facet normal 0.921801 0.128812 0.365636
outer loop
vertex 0.682851 -0.000628 1.252635
vertex 0.689364 0.000000 1.235994
vertex 0.682984 0.000000 1.252079
endloop
endfacet
facet normal 0.916363 0.167813 0.363480
outer loop
vertex 0.689364 0.000000 1.235994
vertex 0.690960 -0.036301 1.248729
vertex 0.695744 0.000000 1.219909
endloop
endfacet
facet normal 0.860417 0.304148 0.408872
outer loop
vertex 0.707140 -0.041908 1.227097
vertex 0.703342 -0.027940 1.224701
vertex 0.700022 -0.047914 1.246545
endloop
endfacet
facet normal 0.798690 0.306093 0.518075
outer loop
vertex 0.690960 -0.036301 1.248729
vertex 0.703342 -0.027940 1.224701
vertex 0.699543 -0.013973 1.222305
endloop
endfacet
facet normal 0.967289 0.250858 -0.037723
outer loop
vertex 0.711754 -0.030472 1.195162
vertex 0.708088 -0.015446 1.201089
vertex 0.710387 -0.023197 1.208492
endloop
endfacet
facet normal 0.926486 0.081046 0.367499
outer loop
vertex 0.708505 0.000000 1.187738
vertex 0.715836 -0.030065 1.175884
vertex 0.714885 0.000000 1.171653
endloop
endfacet
facet normal 0.998357 0.057217 0.003109
outer loop
vertex 0.711754 -0.030472 1.195162
vertex 0.713367 -0.059831 1.217598
vertex 0.713533 -0.062038 1.204911
endloop
endfacet
facet normal 0.914785 0.112128 0.388067
outer loop
vertex 0.713367 -0.059831 1.217598
vertex 0.713293 -0.035063 1.210616
vertex 0.707140 -0.041908 1.227097
endloop
endfacet
facet normal 0.976272 0.060209 0.208009
outer loop
vertex 0.715836 -0.030065 1.175884
vertex 0.711754 -0.030472 1.195162
vertex 0.716788 -0.060115 1.180116
endloop
endfacet
facet normal 0.968916 0.040678 0.244021
outer loop
vertex 0.716788 -0.060115 1.180116
vertex 0.711754 -0.030472 1.195162
vertex 0.713759 -0.061897 1.192440
endloop
endfacet
facet normal 0.972067 0.233082 -0.027534
outer loop
vertex 0.710387 -0.023197 1.208492
vertex 0.713293 -0.035063 1.210616
vertex 0.711754 -0.030472 1.195162
endloop
endfacet
facet normal 0.801514 0.381884 0.460152
outer loop
vertex 0.703342 -0.027940 1.224701
vertex 0.710387 -0.023197 1.208492
vertex 0.701708 -0.015442 1.217174
endloop
endfacet
facet normal 0.771815 0.112566 0.625804
outer loop
vertex 0.725569 -0.060526 1.169360
vertex 0.715836 -0.030065 1.175884
vertex 0.716788 -0.060115 1.180116
endloop
endfacet
facet normal 0.891888 0.281747 0.353771
outer loop
vertex 0.702124 0.000000 1.203823
vertex 0.708088 -0.015446 1.201089
vertex 0.708505 0.000000 1.187738
endloop
endfacet
facet normal 0.801420 0.378657 0.462974
outer loop
vertex 0.701708 -0.015442 1.217174
vertex 0.710387 -0.023197 1.208492
vertex 0.702124 0.000000 1.203823
endloop
endfacet
facet normal -0.832272 -0.554179 0.014428
outer loop
vertex 0.707700 -0.051237 1.220802
vertex 0.713367 -0.059831 1.217598
vertex 0.710939 -0.055875 1.229493
endloop
endfacet
facet normal 0.860421 0.304145 0.408867
outer loop
vertex 0.707140 -0.041908 1.227097
vertex 0.700022 -0.047914 1.246545
vertex 0.710939 -0.055875 1.229493
endloop
endfacet
facet normal 0.798772 0.305990 0.518010
outer loop
vertex 0.690960 -0.036301 1.248729
vertex 0.699543 -0.013973 1.222305
vertex 0.695744 0.000000 1.219909
endloop
endfacet
facet normal 0.966018 0.153696 0.207814
outer loop
vertex 0.708088 -0.015446 1.201089
vertex 0.711754 -0.030472 1.195162
vertex 0.715836 -0.030065 1.175884
endloop
endfacet
facet normal 0.852274 0.286988 0.437342
outer loop
vertex 0.710387 -0.023197 1.208492
vertex 0.707140 -0.041908 1.227097
vertex 0.713293 -0.035063 1.210616
endloop
endfacet
facet normal -0.767496 -0.638706 -0.054812
outer loop
vertex 0.701339 -0.044134 1.227103
vertex 0.707700 -0.051237 1.220802
vertex 0.710939 -0.055875 1.229493
endloop
endfacet
endsolid Exported from Blender-4.0.2
