solid Exported from Blender-4.0.2
facet normal -0.969256 0.139565 -0.202645
outer loop
vertex -0.086209 0.000557 1.221945
vertex -0.089396 0.000000 1.236807
vertex -0.086696 0.018567 1.236678
endloop
endfacet
facet normal -0.981900 0.067667 -0.176899
outer loop
vertex -0.090807 0.000628 1.252635
vertex -0.088942 0.022925 1.250812
vertex -0.086696 0.018567 1.236678
endloop
endfacet
facet normal 0.470289 -0.107426 -0.875950
outer loop
vertex -0.034980 0.033760 1.124060
vertex -0.021811 0.040344 1.130323
vertex -0.030895 0.030329 1.126674
endloop
endfacet
facet normal 0.496715 -0.067819 -0.865260
outer loop
vertex -0.034980 0.033760 1.124060
vertex -0.030895 0.030329 1.126674
vertex -0.035251 0.021862 1.124837
endloop
endfacet
facet normal 0.362764 0.149394 -0.919828
outer loop
vertex -0.021811 0.040344 1.130323
vertex -0.034980 0.033760 1.124060
vertex -0.042063 0.039507 1.122200
endloop
endfacet
facet normal 0.368996 -0.255412 -0.893648
outer loop
vertex -0.021811 0.040344 1.130323
vertex -0.042063 0.039507 1.122200
vertex -0.029098 0.046569 1.125535
endloop
endfacet
facet normal -0.290699 0.789177 -0.541012
outer loop
vertex -0.029098 0.046569 1.125535
vertex -0.042063 0.039507 1.122200
vertex -0.053299 0.045085 1.136374
endloop
endfacet
facet normal -0.413133 0.686955 -0.597842
outer loop
vertex -0.053299 0.045085 1.136374
vertex -0.042063 0.039507 1.122200
vertex -0.053814 0.029716 1.119070
endloop
endfacet
facet normal 0.255673 0.002206 -0.966761
outer loop
vertex -0.034980 0.033760 1.124060
vertex -0.053814 0.029716 1.119070
vertex -0.042063 0.039507 1.122200
endloop
endfacet
facet normal -0.592897 0.540352 -0.597070
outer loop
vertex -0.053814 0.029716 1.119070
vertex -0.071311 0.018491 1.126286
vertex -0.063912 0.030994 1.130254
endloop
endfacet
facet normal -0.499342 0.243895 -0.831368
outer loop
vertex -0.071311 0.018491 1.126286
vertex -0.053814 0.029716 1.119070
vertex -0.059199 0.014164 1.117742
endloop
endfacet
facet normal -0.531856 0.640953 -0.553451
outer loop
vertex -0.053299 0.045085 1.136374
vertex -0.053814 0.029716 1.119070
vertex -0.063912 0.030994 1.130254
endloop
endfacet
facet normal 0.232004 0.111756 -0.966274
outer loop
vertex -0.034980 0.033760 1.124060
vertex -0.044222 0.024120 1.120726
vertex -0.053814 0.029716 1.119070
endloop
endfacet
facet normal 0.181946 0.020955 -0.983085
outer loop
vertex -0.059199 0.014164 1.117742
vertex -0.053814 0.029716 1.119070
vertex -0.044222 0.024120 1.120726
endloop
endfacet
facet normal -0.569418 0.028260 -0.821562
outer loop
vertex -0.071311 0.018491 1.126286
vertex -0.059199 0.014164 1.117742
vertex -0.059868 0.000000 1.117719
endloop
endfacet
facet normal 0.205315 -0.008098 -0.978662
outer loop
vertex -0.050892 0.000000 1.119602
vertex -0.059868 0.000000 1.117719
vertex -0.059199 0.014164 1.117742
endloop
endfacet
facet normal 0.199533 -0.006474 -0.979870
outer loop
vertex -0.059199 0.014164 1.117742
vertex -0.044222 0.024120 1.120726
vertex -0.049516 0.011847 1.119729
endloop
endfacet
facet normal 0.198149 -0.012511 -0.980092
outer loop
vertex -0.050892 0.000000 1.119602
vertex -0.059199 0.014164 1.117742
vertex -0.049516 0.011847 1.119729
endloop
endfacet
facet normal 0.714869 -0.458542 0.527923
outer loop
vertex -0.073636 0.047914 1.246545
vertex -0.082698 0.036301 1.248729
vertex -0.070316 0.027940 1.224701
endloop
endfacet
facet normal 0.319289 -0.026936 -0.947275
outer loop
vertex -0.039632 0.000000 1.123397
vertex -0.050892 0.000000 1.119602
vertex -0.049516 0.011847 1.119729
endloop
endfacet
facet normal -0.742883 -0.634790 0.212524
outer loop
vertex -0.091058 0.000000 1.185486
vertex -0.083600 0.000000 1.211555
vertex -0.084046 0.000528 1.211575
endloop
endfacet
facet normal 0.346694 -0.015485 -0.937850
outer loop
vertex -0.049516 0.011847 1.119729
vertex -0.035251 0.021862 1.124837
vertex -0.037744 0.012260 1.124074
endloop
endfacet
facet normal 0.346309 -0.001565 -0.938119
outer loop
vertex -0.039632 0.000000 1.123397
vertex -0.049516 0.011847 1.119729
vertex -0.037744 0.012260 1.124074
endloop
endfacet
facet normal -0.906386 0.052292 -0.419202
outer loop
vertex -0.076528 0.000000 1.154069
vertex -0.091058 0.000000 1.185486
vertex -0.082125 0.015553 1.168111
endloop
endfacet
facet normal 0.919247 -0.148451 0.364620
outer loop
vertex -0.052393 0.000000 1.155568
vertex -0.048089 0.060526 1.169360
vertex -0.058773 0.000000 1.171653
endloop
endfacet
facet normal 0.771740 -0.112515 0.625905
outer loop
vertex -0.048089 0.060526 1.169360
vertex -0.057822 0.030065 1.175884
vertex -0.058773 0.000000 1.171653
endloop
endfacet
facet normal 0.955245 -0.277410 0.102720
outer loop
vertex -0.060291 0.059831 1.217598
vertex -0.062719 0.055875 1.229493
vertex -0.066518 0.041908 1.227097
endloop
endfacet
facet normal 0.921675 -0.262036 0.286099
outer loop
vertex -0.037744 0.012260 1.124074
vertex -0.035251 0.021862 1.124837
vertex -0.046013 0.000000 1.139482
endloop
endfacet
facet normal 0.138675 -0.447637 0.883397
outer loop
vertex -0.030895 0.030329 1.126674
vertex -0.021811 0.040344 1.130323
vertex -0.037563 0.054619 1.140029
endloop
endfacet
facet normal -0.999721 0.010371 -0.021219
outer loop
vertex -0.076528 0.000000 1.154069
vertex -0.076398 0.015413 1.155491
vertex -0.076077 0.016768 1.141031
endloop
endfacet
facet normal -0.885179 0.398868 -0.239506
outer loop
vertex -0.071311 0.018491 1.126286
vertex -0.076077 0.016768 1.141031
vertex -0.070819 0.030279 1.144099
endloop
endfacet
facet normal -0.907564 0.389065 -0.157977
outer loop
vertex -0.076077 0.016768 1.141031
vertex -0.073824 0.028856 1.157858
vertex -0.070819 0.030279 1.144099
endloop
endfacet
facet normal -0.982016 0.188755 -0.004111
outer loop
vertex -0.076077 0.016768 1.141031
vertex -0.076398 0.015413 1.155491
vertex -0.073824 0.028856 1.157858
endloop
endfacet
facet normal -0.879522 0.437943 -0.186138
outer loop
vertex -0.064695 0.043667 1.149570
vertex -0.073824 0.028856 1.157858
vertex -0.068077 0.041728 1.160988
endloop
endfacet
facet normal -0.876365 0.459660 -0.143863
outer loop
vertex -0.064695 0.043667 1.149570
vertex -0.070819 0.030279 1.144099
vertex -0.073824 0.028856 1.157858
endloop
endfacet
facet normal -0.916135 0.398539 0.043167
outer loop
vertex -0.068077 0.041728 1.160988
vertex -0.073824 0.028856 1.157858
vertex -0.074272 0.026482 1.170268
endloop
endfacet
facet normal -0.982174 0.187972 0.000503
outer loop
vertex -0.076398 0.015413 1.155491
vertex -0.074272 0.026482 1.170268
vertex -0.073824 0.028856 1.157858
endloop
endfacet
facet normal -0.816929 0.571061 0.080719
outer loop
vertex -0.083194 0.012113 1.181629
vertex -0.074272 0.026482 1.170268
vertex -0.082125 0.015553 1.168111
endloop
endfacet
facet normal -0.669609 0.669691 0.321151
outer loop
vertex -0.083194 0.012113 1.181629
vertex -0.071305 0.022792 1.184149
vertex -0.074272 0.026482 1.170268
endloop
endfacet
facet normal -0.942497 0.315022 -0.111627
outer loop
vertex -0.068077 0.041728 1.160988
vertex -0.074272 0.026482 1.170268
vertex -0.070398 0.039247 1.173583
endloop
endfacet
facet normal -0.731255 0.592234 -0.338416
outer loop
vertex -0.076398 0.015413 1.155491
vertex -0.082125 0.015553 1.168111
vertex -0.074272 0.026482 1.170268
endloop
endfacet
facet normal -0.975174 0.037129 0.218306
outer loop
vertex -0.070149 0.036760 1.186937
vertex -0.074272 0.026482 1.170268
vertex -0.071305 0.022792 1.184149
endloop
endfacet
facet normal -0.959460 0.273322 0.068791
outer loop
vertex -0.070149 0.036760 1.186937
vertex -0.070398 0.039247 1.173583
vertex -0.074272 0.026482 1.170268
endloop
endfacet
facet normal -0.944635 -0.017333 0.327666
outer loop
vertex -0.070149 0.036760 1.186937
vertex -0.065435 0.033240 1.200341
vertex -0.064815 0.048487 1.202935
endloop
endfacet
facet normal -0.942372 0.011250 0.334377
outer loop
vertex -0.071305 0.022792 1.184149
vertex -0.065435 0.033240 1.200341
vertex -0.070149 0.036760 1.186937
endloop
endfacet
facet normal -0.964321 0.110307 0.240660
outer loop
vertex -0.070149 0.036760 1.186937
vertex -0.064815 0.048487 1.202935
vertex -0.067783 0.050665 1.190044
endloop
endfacet
facet normal -0.986417 0.157193 0.047666
outer loop
vertex -0.067783 0.050665 1.190044
vertex -0.070398 0.039247 1.173583
vertex -0.070149 0.036760 1.186937
endloop
endfacet
facet normal -0.813681 0.512704 0.273968
outer loop
vertex -0.059899 0.061897 1.192440
vertex -0.067783 0.050665 1.190044
vertex -0.064815 0.048487 1.202935
endloop
endfacet
facet normal -0.943854 0.329706 -0.020834
outer loop
vertex -0.059899 0.061897 1.192440
vertex -0.064815 0.048487 1.202935
vertex -0.060125 0.062038 1.204911
endloop
endfacet
facet normal -0.949608 0.308731 0.054136
outer loop
vertex -0.060291 0.059831 1.217598
vertex -0.064815 0.048487 1.202935
vertex -0.064944 0.045854 1.215688
endloop
endfacet
facet normal -0.999161 0.040912 -0.001659
outer loop
vertex -0.064944 0.045854 1.215688
vertex -0.064815 0.048487 1.202935
vertex -0.065435 0.033240 1.200341
endloop
endfacet
facet normal -0.946052 0.321084 0.043477
outer loop
vertex -0.060291 0.059831 1.217598
vertex -0.060125 0.062038 1.204911
vertex -0.064815 0.048487 1.202935
endloop
endfacet
facet normal -0.793689 0.333713 -0.508620
outer loop
vertex -0.065958 0.051237 1.220802
vertex -0.060291 0.059831 1.217598
vertex -0.064944 0.045854 1.215688
endloop
endfacet
facet normal -0.820168 0.305230 -0.483900
outer loop
vertex -0.072319 0.044134 1.227103
vertex -0.065958 0.051237 1.220802
vertex -0.064944 0.045854 1.215688
endloop
endfacet
facet normal -0.744293 0.644329 -0.175693
outer loop
vertex -0.073636 0.047914 1.246545
vertex -0.062719 0.055875 1.229493
vertex -0.072319 0.044134 1.227103
endloop
endfacet
facet normal -0.792259 0.586678 -0.167733
outer loop
vertex -0.072319 0.044134 1.227103
vertex -0.082698 0.036301 1.248729
vertex -0.073636 0.047914 1.246545
endloop
endfacet
facet normal -0.846915 0.403196 -0.346653
outer loop
vertex -0.081277 0.033063 1.236112
vertex -0.072319 0.044134 1.227103
vertex -0.078230 0.030220 1.225361
endloop
endfacet
facet normal -0.838450 0.497646 -0.222148
outer loop
vertex -0.072319 0.044134 1.227103
vertex -0.081277 0.033063 1.236112
vertex -0.082698 0.036301 1.248729
endloop
endfacet
facet normal -0.632880 0.355006 -0.688065
outer loop
vertex -0.072319 0.044134 1.227103
vertex -0.065986 0.030879 1.214439
vertex -0.078230 0.030220 1.225361
endloop
endfacet
facet normal -0.842484 0.102730 -0.528836
outer loop
vertex -0.065986 0.030879 1.214439
vertex -0.072319 0.044134 1.227103
vertex -0.064944 0.045854 1.215688
endloop
endfacet
facet normal -0.628357 0.374569 -0.681810
outer loop
vertex -0.072504 0.013774 1.211049
vertex -0.078230 0.030220 1.225361
vertex -0.065986 0.030879 1.214439
endloop
endfacet
facet normal -0.913386 0.378004 -0.151125
outer loop
vertex -0.065986 0.030879 1.214439
vertex -0.067849 0.019522 1.197292
vertex -0.072504 0.013774 1.211049
endloop
endfacet
facet normal -0.997067 0.071628 -0.026972
outer loop
vertex -0.064944 0.045854 1.215688
vertex -0.065435 0.033240 1.200341
vertex -0.065986 0.030879 1.214439
endloop
endfacet
facet normal -0.984478 0.175269 -0.009124
outer loop
vertex -0.065986 0.030879 1.214439
vertex -0.065435 0.033240 1.200341
vertex -0.067849 0.019522 1.197292
endloop
endfacet
facet normal -0.559757 0.814777 0.151028
outer loop
vertex -0.072504 0.013774 1.211049
vertex -0.067849 0.019522 1.197292
vertex -0.078953 0.011650 1.198606
endloop
endfacet
facet normal -0.518958 0.787522 0.332402
outer loop
vertex -0.078953 0.011650 1.198606
vertex -0.067849 0.019522 1.197292
vertex -0.071305 0.022792 1.184149
endloop
endfacet
facet normal -0.954814 0.106336 0.277529
outer loop
vertex -0.071305 0.022792 1.184149
vertex -0.067849 0.019522 1.197292
vertex -0.065435 0.033240 1.200341
endloop
endfacet
facet normal -0.787308 0.578799 0.212459
outer loop
vertex -0.078953 0.011650 1.198606
vertex -0.083194 0.012113 1.181629
vertex -0.091058 0.000000 1.185486
endloop
endfacet
facet normal -0.678066 0.710350 0.188758
outer loop
vertex -0.078953 0.011650 1.198606
vertex -0.071305 0.022792 1.184149
vertex -0.083194 0.012113 1.181629
endloop
endfacet
facet normal -0.941354 0.228155 -0.248591
outer loop
vertex -0.086209 0.000557 1.221945
vertex -0.082922 0.015919 1.223597
vertex -0.083600 0.000000 1.211555
endloop
endfacet
facet normal -0.950530 -0.211720 -0.227306
outer loop
vertex -0.083600 0.000000 1.211555
vertex -0.086100 0.000000 1.222006
vertex -0.086209 0.000557 1.221945
endloop
endfacet
facet normal -0.968175 -0.132064 -0.212595
outer loop
vertex -0.086209 0.000557 1.221945
vertex -0.086234 0.000000 1.222404
vertex -0.089396 0.000000 1.236807
endloop
endfacet
facet normal -0.630127 0.485340 -0.606123
outer loop
vertex -0.082922 0.015919 1.223597
vertex -0.072504 0.013774 1.211049
vertex -0.083600 0.000000 1.211555
endloop
endfacet
facet normal -0.921437 0.230776 -0.312564
outer loop
vertex -0.086696 0.018567 1.236678
vertex -0.082922 0.015919 1.223597
vertex -0.086209 0.000557 1.221945
endloop
endfacet
facet normal -0.886790 0.330760 -0.322802
outer loop
vertex -0.086696 0.018567 1.236678
vertex -0.078230 0.030220 1.225361
vertex -0.082922 0.015919 1.223597
endloop
endfacet
facet normal -0.704787 0.309944 -0.638130
outer loop
vertex -0.072504 0.013774 1.211049
vertex -0.082922 0.015919 1.223597
vertex -0.078230 0.030220 1.225361
endloop
endfacet
facet normal -0.791615 0.567503 0.226465
outer loop
vertex -0.091058 0.000000 1.185486
vertex -0.083600 0.000000 1.211555
vertex -0.078953 0.011650 1.198606
endloop
endfacet
facet normal -0.997072 0.061804 0.045024
outer loop
vertex -0.076528 0.000000 1.154069
vertex -0.076077 0.016768 1.141031
vertex -0.077172 0.000000 1.139807
endloop
endfacet
facet normal 0.660774 0.749960 -0.030614
outer loop
vertex -0.021811 0.040344 1.130323
vertex -0.029098 0.046569 1.125535
vertex -0.037563 0.054619 1.140029
endloop
endfacet
facet normal -0.909474 0.045788 -0.413232
outer loop
vertex -0.076528 0.000000 1.154069
vertex -0.082125 0.015553 1.168111
vertex -0.076398 0.015413 1.155491
endloop
endfacet
facet normal 0.837335 -0.305501 0.453363
outer loop
vertex -0.066518 0.041908 1.227097
vertex -0.070316 0.027940 1.224701
vertex -0.063271 0.023197 1.208492
endloop
endfacet
facet normal 0.888743 -0.115066 0.443728
outer loop
vertex -0.037563 0.054619 1.140029
vertex -0.043894 0.059573 1.153994
vertex -0.052393 0.000000 1.155568
endloop
endfacet
facet normal 0.934651 -0.347800 0.073910
outer loop
vertex -0.071534 0.000000 1.203823
vertex -0.065570 0.015446 1.201089
vertex -0.063271 0.023197 1.208492
endloop
endfacet
facet normal -0.940942 0.186909 -0.282299
outer loop
vertex -0.076077 0.016768 1.141031
vertex -0.071311 0.018491 1.126286
vertex -0.074495 0.000000 1.124656
endloop
endfacet
facet normal -0.981844 0.076767 -0.173464
outer loop
vertex -0.074495 0.000000 1.124656
vertex -0.077172 0.000000 1.139807
vertex -0.076077 0.016768 1.141031
endloop
endfacet
facet normal -0.824800 0.560115 0.077309
outer loop
vertex -0.091058 0.000000 1.185486
vertex -0.083194 0.012113 1.181629
vertex -0.082125 0.015553 1.168111
endloop
endfacet
facet normal -0.899270 0.388485 -0.200983
outer loop
vertex -0.088942 0.022925 1.250812
vertex -0.082698 0.036301 1.248729
vertex -0.081277 0.033063 1.236112
endloop
endfacet
facet normal -0.886634 0.318345 -0.335464
outer loop
vertex -0.086696 0.018567 1.236678
vertex -0.081277 0.033063 1.236112
vertex -0.078230 0.030220 1.225361
endloop
endfacet
facet normal -0.910845 0.330866 -0.246758
outer loop
vertex -0.088942 0.022925 1.250812
vertex -0.081277 0.033063 1.236112
vertex -0.086696 0.018567 1.236678
endloop
endfacet
facet normal -0.759354 0.591053 -0.272098
outer loop
vertex -0.056870 0.060115 1.180116
vertex -0.067783 0.050665 1.190044
vertex -0.059899 0.061897 1.192440
endloop
endfacet
facet normal -0.702357 0.704565 -0.101407
outer loop
vertex -0.056870 0.060115 1.180116
vertex -0.065418 0.051139 1.176957
vertex -0.067783 0.050665 1.190044
endloop
endfacet
facet normal -0.569016 0.696012 -0.437937
outer loop
vertex -0.048089 0.060526 1.169360
vertex -0.065418 0.051139 1.176957
vertex -0.056870 0.060115 1.180116
endloop
endfacet
facet normal -0.512757 0.850242 -0.119031
outer loop
vertex -0.048089 0.060526 1.169360
vertex -0.060612 0.052279 1.164397
vertex -0.065418 0.051139 1.176957
endloop
endfacet
facet normal -0.896826 0.417261 -0.146958
outer loop
vertex -0.067783 0.050665 1.190044
vertex -0.065418 0.051139 1.176957
vertex -0.070398 0.039247 1.173583
endloop
endfacet
facet normal -0.852130 0.438070 -0.286302
outer loop
vertex -0.070398 0.039247 1.173583
vertex -0.065418 0.051139 1.176957
vertex -0.060612 0.052279 1.164397
endloop
endfacet
facet normal -0.429672 0.901074 -0.058720
outer loop
vertex -0.043894 0.059573 1.153994
vertex -0.056569 0.053368 1.151524
vertex -0.060612 0.052279 1.164397
endloop
endfacet
facet normal -0.771213 0.607300 -0.190834
outer loop
vertex -0.068077 0.041728 1.160988
vertex -0.060612 0.052279 1.164397
vertex -0.056569 0.053368 1.151524
endloop
endfacet
facet normal -0.810607 0.584590 -0.034228
outer loop
vertex -0.070398 0.039247 1.173583
vertex -0.060612 0.052279 1.164397
vertex -0.068077 0.041728 1.160988
endloop
endfacet
facet normal -0.487887 0.852841 -0.186087
outer loop
vertex -0.043894 0.059573 1.153994
vertex -0.060612 0.052279 1.164397
vertex -0.048089 0.060526 1.169360
endloop
endfacet
facet normal -0.323030 0.836249 -0.443102
outer loop
vertex -0.037563 0.054619 1.140029
vertex -0.056569 0.053368 1.151524
vertex -0.043894 0.059573 1.153994
endloop
endfacet
facet normal -0.750599 0.651243 -0.111731
outer loop
vertex -0.068077 0.041728 1.160988
vertex -0.056569 0.053368 1.151524
vertex -0.064695 0.043667 1.149570
endloop
endfacet
facet normal -0.625764 0.619604 -0.473826
outer loop
vertex -0.064695 0.043667 1.149570
vertex -0.056569 0.053368 1.151524
vertex -0.053299 0.045085 1.136374
endloop
endfacet
facet normal -0.357821 0.784660 -0.506234
outer loop
vertex -0.037563 0.054619 1.140029
vertex -0.053299 0.045085 1.136374
vertex -0.056569 0.053368 1.151524
endloop
endfacet
facet normal -0.781810 0.506320 -0.363885
outer loop
vertex -0.064695 0.043667 1.149570
vertex -0.063912 0.030994 1.130254
vertex -0.070819 0.030279 1.144099
endloop
endfacet
facet normal -0.606216 0.653464 -0.453306
outer loop
vertex -0.064695 0.043667 1.149570
vertex -0.053299 0.045085 1.136374
vertex -0.063912 0.030994 1.130254
endloop
endfacet
facet normal -0.754428 0.556777 -0.347617
outer loop
vertex -0.071311 0.018491 1.126286
vertex -0.070819 0.030279 1.144099
vertex -0.063912 0.030994 1.130254
endloop
endfacet
facet normal -0.423582 0.151664 -0.893072
outer loop
vertex -0.071311 0.018491 1.126286
vertex -0.059868 0.000000 1.117719
vertex -0.074495 0.000000 1.124656
endloop
endfacet
facet normal 0.394592 -0.095985 -0.913829
outer loop
vertex -0.049516 0.011847 1.119729
vertex -0.044222 0.024120 1.120726
vertex -0.035251 0.021862 1.124837
endloop
endfacet
facet normal 0.401249 -0.068787 -0.913383
outer loop
vertex -0.034980 0.033760 1.124060
vertex -0.035251 0.021862 1.124837
vertex -0.044222 0.024120 1.120726
endloop
endfacet
facet normal -0.311485 0.741788 -0.593909
outer loop
vertex -0.029098 0.046569 1.125535
vertex -0.053299 0.045085 1.136374
vertex -0.037563 0.054619 1.140029
endloop
endfacet
facet normal 0.907106 -0.297738 0.297507
outer loop
vertex -0.070316 0.027940 1.224701
vertex -0.074115 0.013973 1.222305
vertex -0.071950 0.015442 1.217174
endloop
endfacet
facet normal -0.985348 0.142661 -0.093470
outer loop
vertex -0.090807 0.000628 1.252635
vertex -0.086696 0.018567 1.236678
vertex -0.089396 0.000000 1.236807
endloop
endfacet
facet normal -0.766112 -0.604550 0.218155
outer loop
vertex -0.091058 0.000000 1.185486
vertex -0.084046 0.000528 1.211575
vertex -0.091450 0.000567 1.185682
endloop
endfacet
facet normal -0.742312 0.608336 0.280891
outer loop
vertex -0.072504 0.013774 1.211049
vertex -0.078953 0.011650 1.198606
vertex -0.083600 0.000000 1.211555
endloop
endfacet
facet normal -0.987351 -0.135324 -0.082618
outer loop
vertex -0.090807 0.000628 1.252635
vertex -0.089396 0.000000 1.236807
vertex -0.090674 0.000000 1.252079
endloop
endfacet
facet normal 0.954562 -0.129084 0.268605
outer loop
vertex -0.043894 0.059573 1.153994
vertex -0.048089 0.060526 1.169360
vertex -0.052393 0.000000 1.155568
endloop
endfacet
facet normal 0.866887 -0.477239 0.144048
outer loop
vertex -0.035251 0.021862 1.124837
vertex -0.030895 0.030329 1.126674
vertex -0.052393 0.000000 1.155568
endloop
endfacet
facet normal 0.917361 -0.161376 0.363877
outer loop
vertex -0.046013 0.000000 1.139482
vertex -0.039632 0.000000 1.123397
vertex -0.037744 0.012260 1.124074
endloop
endfacet
facet normal 0.993884 0.027196 -0.107032
outer loop
vertex -0.060291 0.059831 1.217598
vertex -0.060365 0.035063 1.210616
vertex -0.061904 0.030472 1.195162
endloop
endfacet
facet normal 0.909600 -0.206054 0.360790
outer loop
vertex -0.052393 0.000000 1.155568
vertex -0.046013 0.000000 1.139482
vertex -0.035251 0.021862 1.124837
endloop
endfacet
facet normal 0.834603 -0.071209 0.546230
outer loop
vertex -0.030895 0.030329 1.126674
vertex -0.037563 0.054619 1.140029
vertex -0.052393 0.000000 1.155568
endloop
endfacet
facet normal 0.966020 -0.153624 0.207859
outer loop
vertex -0.065570 0.015446 1.201089
vertex -0.065153 0.000000 1.187738
vertex -0.057822 0.030065 1.175884
endloop
endfacet
facet normal 0.907121 -0.297647 0.297554
outer loop
vertex -0.074115 0.013973 1.222305
vertex -0.077914 0.000000 1.219909
vertex -0.071950 0.015442 1.217174
endloop
endfacet
facet normal 0.997897 -0.062035 0.018787
outer loop
vertex -0.059899 0.061897 1.192440
vertex -0.060125 0.062038 1.204911
vertex -0.061904 0.030472 1.195162
endloop
endfacet
facet normal 0.891878 -0.281794 0.353761
outer loop
vertex -0.071534 0.000000 1.203823
vertex -0.071950 0.015442 1.217174
vertex -0.077914 0.000000 1.219909
endloop
endfacet
facet normal 0.743245 -0.250335 0.620418
outer loop
vertex -0.082698 0.036301 1.248729
vertex -0.088942 0.022925 1.250812
vertex -0.084294 0.000000 1.235994
endloop
endfacet
facet normal 0.929540 -0.047858 0.365602
outer loop
vertex -0.088942 0.022925 1.250812
vertex -0.090807 0.000628 1.252635
vertex -0.084294 0.000000 1.235994
endloop
endfacet
facet normal 0.921784 -0.128958 0.365629
outer loop
vertex -0.090807 0.000628 1.252635
vertex -0.090674 0.000000 1.252079
vertex -0.084294 0.000000 1.235994
endloop
endfacet
facet normal 0.916364 -0.167806 0.363480
outer loop
vertex -0.084294 0.000000 1.235994
vertex -0.077914 0.000000 1.219909
vertex -0.082698 0.036301 1.248729
endloop
endfacet
facet normal 0.860416 -0.304152 0.408872
outer loop
vertex -0.066518 0.041908 1.227097
vertex -0.073636 0.047914 1.246545
vertex -0.070316 0.027940 1.224701
endloop
endfacet
facet normal 0.798689 -0.306095 0.518075
outer loop
vertex -0.082698 0.036301 1.248729
vertex -0.074115 0.013973 1.222305
vertex -0.070316 0.027940 1.224701
endloop
endfacet
facet normal 0.967289 -0.250856 -0.037723
outer loop
vertex -0.061904 0.030472 1.195162
vertex -0.063271 0.023197 1.208492
vertex -0.065570 0.015446 1.201089
endloop
endfacet
facet normal 0.926486 -0.081045 0.367499
outer loop
vertex -0.065153 0.000000 1.187738
vertex -0.058773 0.000000 1.171653
vertex -0.057822 0.030065 1.175884
endloop
endfacet
facet normal 0.998357 -0.057220 0.003109
outer loop
vertex -0.061904 0.030472 1.195162
vertex -0.060125 0.062038 1.204911
vertex -0.060291 0.059831 1.217598
endloop
endfacet
facet normal 0.914785 -0.112130 0.388066
outer loop
vertex -0.060291 0.059831 1.217598
vertex -0.066518 0.041908 1.227097
vertex -0.060365 0.035063 1.210616
endloop
endfacet
facet normal 0.976272 -0.060205 0.208009
outer loop
vertex -0.057822 0.030065 1.175884
vertex -0.056870 0.060115 1.180116
vertex -0.061904 0.030472 1.195162
endloop
endfacet
facet normal 0.968916 -0.040678 0.244021
outer loop
vertex -0.056870 0.060115 1.180116
vertex -0.059899 0.061897 1.192440
vertex -0.061904 0.030472 1.195162
endloop
endfacet
facet normal 0.972066 -0.233087 -0.027534
outer loop
vertex -0.063271 0.023197 1.208492
vertex -0.061904 0.030472 1.195162
vertex -0.060365 0.035063 1.210616
endloop
endfacet
facet normal 0.801511 -0.381892 0.460151
outer loop
vertex -0.070316 0.027940 1.224701
vertex -0.071950 0.015442 1.217174
vertex -0.063271 0.023197 1.208492
endloop
endfacet
facet normal 0.771815 -0.112565 0.625804
outer loop
vertex -0.048089 0.060526 1.169360
vertex -0.056870 0.060115 1.180116
vertex -0.057822 0.030065 1.175884
endloop
endfacet
facet normal 0.891890 -0.281742 0.353771
outer loop
vertex -0.071534 0.000000 1.203823
vertex -0.065153 0.000000 1.187738
vertex -0.065570 0.015446 1.201089
endloop
endfacet
facet normal 0.801422 -0.378652 0.462975
outer loop
vertex -0.071950 0.015442 1.217174
vertex -0.071534 0.000000 1.203823
vertex -0.063271 0.023197 1.208492
endloop
endfacet
facet normal -0.832265 0.554190 0.014428
outer loop
vertex -0.065958 0.051237 1.220802
vertex -0.062719 0.055875 1.229493
vertex -0.060291 0.059831 1.217598
endloop
endfacet
facet normal 0.860422 -0.304142 0.408867
outer loop
vertex -0.066518 0.041908 1.227097
vertex -0.062719 0.055875 1.229493
vertex -0.073636 0.047914 1.246545
endloop
endfacet
facet normal 0.798772 -0.305989 0.518010
outer loop
vertex -0.082698 0.036301 1.248729
vertex -0.077914 0.000000 1.219909
vertex -0.074115 0.013973 1.222305
endloop
endfacet
facet normal 0.966017 -0.153703 0.207813
outer loop
vertex -0.065570 0.015446 1.201089
vertex -0.057822 0.030065 1.175884
vertex -0.061904 0.030472 1.195162
endloop
endfacet
facet normal 0.852276 -0.286978 0.437343
outer loop
vertex -0.063271 0.023197 1.208492
vertex -0.060365 0.035063 1.210616
vertex -0.066518 0.041908 1.227097
endloop
endfacet
facet normal -0.767500 0.638701 -0.054813
outer loop
vertex -0.072319 0.044134 1.227103
vertex -0.062719 0.055875 1.229493
vertex -0.065958 0.051237 1.220802
endloop
endfacet
facet normal -0.969256 -0.139565 -0.202645
outer loop
vertex -0.086209 -0.000557 1.221945
vertex -0.086696 -0.018567 1.236678
vertex -0.089396 0.000000 1.236807
endloop
endfacet
facet normal -0.981900 -0.067667 -0.176899
outer loop
vertex -0.090807 -0.000628 1.252635
vertex -0.086696 -0.018567 1.236678
vertex -0.088942 -0.022925 1.250812
endloop
endfacet
facet normal 0.470289 0.107426 -0.875950
outer loop
vertex -0.034980 -0.033760 1.124060
vertex -0.030895 -0.030329 1.126674
vertex -0.021811 -0.040344 1.130323
endloop
endfacet
facet normal 0.496715 0.067819 -0.865260
outer loop
vertex -0.034980 -0.033760 1.124060
vertex -0.035251 -0.021862 1.124837
vertex -0.030895 -0.030329 1.126674
endloop
endfacet
facet normal 0.362764 -0.149394 -0.919828
outer loop
vertex -0.021811 -0.040344 1.130323
vertex -0.042063 -0.039507 1.122200
vertex -0.034980 -0.033760 1.124060
endloop
endfacet
facet normal 0.368996 0.255412 -0.893648
outer loop
vertex -0.021811 -0.040344 1.130323
vertex -0.029098 -0.046569 1.125535
vertex -0.042063 -0.039507 1.122200
endloop
endfacet
facet normal -0.290699 -0.789177 -0.541012
outer loop
vertex -0.029098 -0.046569 1.125535
vertex -0.053299 -0.045085 1.136374
vertex -0.042063 -0.039507 1.122200
endloop
endfacet
facet normal -0.413133 -0.686955 -0.597842
outer loop
vertex -0.053299 -0.045085 1.136374
vertex -0.053814 -0.029716 1.119070
vertex -0.042063 -0.039507 1.122200
endloop
endfacet
facet normal 0.255673 -0.002206 -0.966761
outer loop
vertex -0.034980 -0.033760 1.124060
vertex -0.042063 -0.039507 1.122200
vertex -0.053814 -0.029716 1.119070
endloop
endfacet
facet normal -0.592897 -0.540352 -0.597070
outer loop
vertex -0.053814 -0.029716 1.119070
vertex -0.063912 -0.030994 1.130254
vertex -0.071311 -0.018491 1.126286
endloop
endfacet
facet normal -0.499342 -0.243895 -0.831368
outer loop
vertex -0.071311 -0.018491 1.126286
vertex -0.059199 -0.014164 1.117742
vertex -0.053814 -0.029716 1.119070
endloop
endfacet
facet normal -0.531856 -0.640953 -0.553451
outer loop
vertex -0.053299 -0.045085 1.136374
vertex -0.063912 -0.030994 1.130254
vertex -0.053814 -0.029716 1.119070
endloop
endfacet
facet normal 0.232004 -0.111756 -0.966274
outer loop
vertex -0.034980 -0.033760 1.124060
vertex -0.053814 -0.029716 1.119070
vertex -0.044222 -0.024120 1.120726
endloop
endfacet
facet normal 0.181946 -0.020955 -0.983085
outer loop
vertex -0.059199 -0.014164 1.117742
vertex -0.044222 -0.024120 1.120726
vertex -0.053814 -0.029716 1.119070
endloop
endfacet
facet normal -0.569418 -0.028260 -0.821562
outer loop
vertex -0.071311 -0.018491 1.126286
vertex -0.059868 0.000000 1.117719
vertex -0.059199 -0.014164 1.117742
endloop
endfacet
facet normal 0.205315 0.008098 -0.978662
outer loop
vertex -0.050892 0.000000 1.119602
vertex -0.059199 -0.014164 1.117742
vertex -0.059868 0.000000 1.117719
endloop
endfacet
facet normal 0.199533 0.006474 -0.979870
outer loop
vertex -0.059199 -0.014164 1.117742
vertex -0.049516 -0.011847 1.119729
vertex -0.044222 -0.024120 1.120726
endloop
endfacet
facet normal 0.198149 0.012511 -0.980092
outer loop
vertex -0.050892 0.000000 1.119602
vertex -0.049516 -0.011847 1.119729
vertex -0.059199 -0.014164 1.117742
endloop
endfacet
facet normal 0.714869 0.458542 0.527923
outer loop
vertex -0.073636 -0.047914 1.246545
vertex -0.070316 -0.027940 1.224701
vertex -0.082698 -0.036301 1.248729
endloop
endfacet
facet normal 0.319289 0.026936 -0.947275
outer loop
vertex -0.039632 0.000000 1.123397
vertex -0.049516 -0.011847 1.119729
vertex -0.050892 0.000000 1.119602
endloop
endfacet
facet normal -0.742883 0.634790 0.212524
outer loop
vertex -0.091058 0.000000 1.185486
vertex -0.084046 -0.000528 1.211575
vertex -0.083600 0.000000 1.211555
endloop
endfacet
facet normal 0.346694 0.015485 -0.937850
outer loop
vertex -0.049516 -0.011847 1.119729
vertex -0.037744 -0.012260 1.124074
vertex -0.035251 -0.021862 1.124837
endloop
endfacet
facet normal 0.346309 0.001565 -0.938119
outer loop
vertex -0.039632 0.000000 1.123397
vertex -0.037744 -0.012260 1.124074
vertex -0.049516 -0.011847 1.119729
endloop
endfacet
facet normal -0.906386 -0.052292 -0.419202
outer loop
vertex -0.076528 0.000000 1.154069
vertex -0.082125 -0.015553 1.168111
vertex -0.091058 0.000000 1.185486
endloop
endfacet
facet normal 0.919247 0.148451 0.364620
outer loop
vertex -0.052393 0.000000 1.155568
vertex -0.058773 0.000000 1.171653
vertex -0.048089 -0.060526 1.169360
endloop
endfacet
facet normal 0.771740 0.112515 0.625905
outer loop
vertex -0.048089 -0.060526 1.169360
vertex -0.058773 0.000000 1.171653
vertex -0.057822 -0.030065 1.175884
endloop
endfacet
facet normal 0.955245 0.277410 0.102720
outer loop
vertex -0.060291 -0.059831 1.217598
vertex -0.066518 -0.041908 1.227097
vertex -0.062719 -0.055875 1.229493
endloop
endfacet
facet normal 0.921675 0.262036 0.286099
outer loop
vertex -0.037744 -0.012260 1.124074
vertex -0.046013 0.000000 1.139482
vertex -0.035251 -0.021862 1.124837
endloop
endfacet
facet normal 0.138675 0.447637 0.883397
outer loop
vertex -0.030895 -0.030329 1.126674
vertex -0.037563 -0.054619 1.140029
vertex -0.021811 -0.040344 1.130323
endloop
endfacet
facet normal -0.999721 -0.010371 -0.021219
outer loop
vertex -0.076528 0.000000 1.154069
vertex -0.076077 -0.016768 1.141031
vertex -0.076398 -0.015413 1.155491
endloop
endfacet
facet normal -0.885179 -0.398868 -0.239506
outer loop
vertex -0.071311 -0.018491 1.126286
vertex -0.070819 -0.030279 1.144099
vertex -0.076077 -0.016768 1.141031
endloop
endfacet
facet normal -0.907564 -0.389065 -0.157977
outer loop
vertex -0.076077 -0.016768 1.141031
vertex -0.070819 -0.030279 1.144099
vertex -0.073824 -0.028856 1.157858
endloop
endfacet
facet normal -0.982016 -0.188755 -0.004111
outer loop
vertex -0.076077 -0.016768 1.141031
vertex -0.073824 -0.028856 1.157858
vertex -0.076398 -0.015413 1.155491
endloop
endfacet
facet normal -0.879522 -0.437943 -0.186138
outer loop
vertex -0.064695 -0.043667 1.149570
vertex -0.068077 -0.041728 1.160988
vertex -0.073824 -0.028856 1.157858
endloop
endfacet
facet normal -0.876365 -0.459660 -0.143863
outer loop
vertex -0.064695 -0.043667 1.149570
vertex -0.073824 -0.028856 1.157858
vertex -0.070819 -0.030279 1.144099
endloop
endfacet
facet normal -0.916135 -0.398539 0.043167
outer loop
vertex -0.068077 -0.041728 1.160988
vertex -0.074272 -0.026482 1.170268
vertex -0.073824 -0.028856 1.157858
endloop
endfacet
facet normal -0.982174 -0.187972 0.000503
outer loop
vertex -0.076398 -0.015413 1.155491
vertex -0.073824 -0.028856 1.157858
vertex -0.074272 -0.026482 1.170268
endloop
endfacet
facet normal -0.816929 -0.571061 0.080719
outer loop
vertex -0.083194 -0.012113 1.181629
vertex -0.082125 -0.015553 1.168111
vertex -0.074272 -0.026482 1.170268
endloop
endfacet
facet normal -0.669609 -0.669691 0.321151
outer loop
vertex -0.083194 -0.012113 1.181629
vertex -0.074272 -0.026482 1.170268
vertex -0.071305 -0.022792 1.184149
endloop
endfacet
facet normal -0.942497 -0.315022 -0.111627
outer loop
vertex -0.068077 -0.041728 1.160988
vertex -0.070398 -0.039247 1.173583
vertex -0.074272 -0.026482 1.170268
endloop
endfacet
facet normal -0.731255 -0.592234 -0.338416
outer loop
vertex -0.076398 -0.015413 1.155491
vertex -0.074272 -0.026482 1.170268
vertex -0.082125 -0.015553 1.168111
endloop
endfacet
facet normal -0.975174 -0.037129 0.218306
outer loop
vertex -0.070149 -0.036760 1.186937
vertex -0.071305 -0.022792 1.184149
vertex -0.074272 -0.026482 1.170268
endloop
endfacet
facet normal -0.959460 -0.273322 0.068791
outer loop
vertex -0.070149 -0.036760 1.186937
vertex -0.074272 -0.026482 1.170268
vertex -0.070398 -0.039247 1.173583
endloop
endfacet
facet normal -0.944635 0.017333 0.327666
outer loop
vertex -0.070149 -0.036760 1.186937
vertex -0.064815 -0.048487 1.202935
vertex -0.065435 -0.033240 1.200341
endloop
endfacet
facet normal -0.942372 -0.011250 0.334377
outer loop
vertex -0.071305 -0.022792 1.184149
vertex -0.070149 -0.036760 1.186937
vertex -0.065435 -0.033240 1.200341
endloop
endfacet
facet normal -0.964321 -0.110307 0.240660
outer loop
vertex -0.070149 -0.036760 1.186937
vertex -0.067783 -0.050665 1.190044
vertex -0.064815 -0.048487 1.202935
endloop
endfacet
facet normal -0.986417 -0.157193 0.047666
outer loop
vertex -0.067783 -0.050665 1.190044
vertex -0.070149 -0.036760 1.186937
vertex -0.070398 -0.039247 1.173583
endloop
endfacet
facet normal -0.813681 -0.512704 0.273968
outer loop
vertex -0.059899 -0.061897 1.192440
vertex -0.064815 -0.048487 1.202935
vertex -0.067783 -0.050665 1.190044
endloop
endfacet
facet normal -0.943854 -0.329706 -0.020834
outer loop
vertex -0.059899 -0.061897 1.192440
vertex -0.060125 -0.062038 1.204911
vertex -0.064815 -0.048487 1.202935
endloop
endfacet
facet normal -0.949608 -0.308731 0.054136
outer loop
vertex -0.060291 -0.059831 1.217598
vertex -0.064944 -0.045854 1.215688
vertex -0.064815 -0.048487 1.202935
endloop
endfacet
facet normal -0.999161 -0.040912 -0.001659
outer loop
vertex -0.064944 -0.045854 1.215688
vertex -0.065435 -0.033240 1.200341
vertex -0.064815 -0.048487 1.202935
endloop
endfacet
facet normal -0.946052 -0.321084 0.043477
outer loop
vertex -0.060291 -0.059831 1.217598
vertex -0.064815 -0.048487 1.202935
vertex -0.060125 -0.062038 1.204911
endloop
endfacet
facet normal -0.793689 -0.333713 -0.508620
outer loop
vertex -0.065958 -0.051237 1.220802
vertex -0.064944 -0.045854 1.215688
vertex -0.060291 -0.059831 1.217598
endloop
endfacet
facet normal -0.820168 -0.305230 -0.483900
outer loop
vertex -0.072319 -0.044134 1.227103
vertex -0.064944 -0.045854 1.215688
vertex -0.065958 -0.051237 1.220802
endloop
endfacet
facet normal -0.744293 -0.644329 -0.175693
outer loop
vertex -0.073636 -0.047914 1.246545
vertex -0.072319 -0.044134 1.227103
vertex -0.062719 -0.055875 1.229493
endloop
endfacet
facet normal -0.792259 -0.586678 -0.167733
outer loop
vertex -0.072319 -0.044134 1.227103
vertex -0.073636 -0.047914 1.246545
vertex -0.082698 -0.036301 1.248729
endloop
endfacet
facet normal -0.846915 -0.403196 -0.346653
outer loop
vertex -0.081277 -0.033063 1.236112
vertex -0.078230 -0.030220 1.225361
vertex -0.072319 -0.044134 1.227103
endloop
endfacet
facet normal -0.838450 -0.497646 -0.222148
outer loop
vertex -0.072319 -0.044134 1.227103
vertex -0.082698 -0.036301 1.248729
vertex -0.081277 -0.033063 1.236112
endloop
endfacet
facet normal -0.632880 -0.355006 -0.688065
outer loop
vertex -0.072319 -0.044134 1.227103
vertex -0.078230 -0.030220 1.225361
vertex -0.065986 -0.030879 1.214439
endloop
endfacet
facet normal -0.842484 -0.102730 -0.528836
outer loop
vertex -0.065986 -0.030879 1.214439
vertex -0.064944 -0.045854 1.215688
vertex -0.072319 -0.044134 1.227103
endloop
endfacet
facet normal -0.628357 -0.374569 -0.681810
outer loop
vertex -0.072504 -0.013774 1.211049
vertex -0.065986 -0.030879 1.214439
vertex -0.078230 -0.030220 1.225361
endloop
endfacet
facet normal -0.913386 -0.378004 -0.151125
outer loop
vertex -0.065986 -0.030879 1.214439
vertex -0.072504 -0.013774 1.211049
vertex -0.067849 -0.019522 1.197292
endloop
endfacet
facet normal -0.997067 -0.071628 -0.026972
outer loop
vertex -0.064944 -0.045854 1.215688
vertex -0.065986 -0.030879 1.214439
vertex -0.065435 -0.033240 1.200341
endloop
endfacet
facet normal -0.984478 -0.175269 -0.009124
outer loop
vertex -0.065986 -0.030879 1.214439
vertex -0.067849 -0.019522 1.197292
vertex -0.065435 -0.033240 1.200341
endloop
endfacet
facet normal -0.559757 -0.814777 0.151028
outer loop
vertex -0.072504 -0.013774 1.211049
vertex -0.078953 -0.011650 1.198606
vertex -0.067849 -0.019522 1.197292
endloop
endfacet
facet normal -0.518958 -0.787522 0.332402
outer loop
vertex -0.078953 -0.011650 1.198606
vertex -0.071305 -0.022792 1.184149
vertex -0.067849 -0.019522 1.197292
endloop
endfacet
facet normal -0.954814 -0.106336 0.277529
outer loop
vertex -0.071305 -0.022792 1.184149
vertex -0.065435 -0.033240 1.200341
vertex -0.067849 -0.019522 1.197292
endloop
endfacet
facet normal -0.787308 -0.578799 0.212459
outer loop
vertex -0.078953 -0.011650 1.198606
vertex -0.091058 0.000000 1.185486
vertex -0.083194 -0.012113 1.181629
endloop
endfacet
facet normal -0.678066 -0.710350 0.188758
outer loop
vertex -0.078953 -0.011650 1.198606
vertex -0.083194 -0.012113 1.181629
vertex -0.071305 -0.022792 1.184149
endloop
endfacet
facet normal -0.941354 -0.228155 -0.248591
outer loop
vertex -0.086209 -0.000557 1.221945
vertex -0.083600 0.000000 1.211555
vertex -0.082922 -0.015919 1.223597
endloop
endfacet
facet normal -0.950530 0.211720 -0.227306
outer loop
vertex -0.083600 0.000000 1.211555
vertex -0.086209 -0.000557 1.221945
vertex -0.086100 0.000000 1.222006
endloop
endfacet
facet normal -0.968175 0.132064 -0.212595
outer loop
vertex -0.086209 -0.000557 1.221945
vertex -0.089396 0.000000 1.236807
vertex -0.086234 0.000000 1.222404
endloop
endfacet
facet normal -0.630127 -0.485340 -0.606123
outer loop
vertex -0.082922 -0.015919 1.223597
vertex -0.083600 0.000000 1.211555
vertex -0.072504 -0.013774 1.211049
endloop
endfacet
facet normal -0.921437 -0.230776 -0.312564
outer loop
vertex -0.086696 -0.018567 1.236678
vertex -0.086209 -0.000557 1.221945
vertex -0.082922 -0.015919 1.223597
endloop
endfacet
facet normal -0.886790 -0.330760 -0.322802
outer loop
vertex -0.086696 -0.018567 1.236678
vertex -0.082922 -0.015919 1.223597
vertex -0.078230 -0.030220 1.225361
endloop
endfacet
facet normal -0.704787 -0.309944 -0.638130
outer loop
vertex -0.072504 -0.013774 1.211049
vertex -0.078230 -0.030220 1.225361
vertex -0.082922 -0.015919 1.223597
endloop
endfacet
facet normal -0.791615 -0.567503 0.226465
outer loop
vertex -0.091058 0.000000 1.185486
vertex -0.078953 -0.011650 1.198606
vertex -0.083600 0.000000 1.211555
endloop
endfacet
facet normal -0.997072 -0.061804 0.045024
outer loop
vertex -0.076528 0.000000 1.154069
vertex -0.077172 0.000000 1.139807
vertex -0.076077 -0.016768 1.141031
endloop
endfacet
facet normal 0.660774 -0.749960 -0.030614
outer loop
vertex -0.021811 -0.040344 1.130323
vertex -0.037563 -0.054619 1.140029
vertex -0.029098 -0.046569 1.125535
endloop
endfacet
facet normal -0.909474 -0.045788 -0.413232
outer loop
vertex -0.076528 0.000000 1.154069
vertex -0.076398 -0.015413 1.155491
vertex -0.082125 -0.015553 1.168111
endloop
endfacet
facet normal 0.837335 0.305501 0.453363
outer loop
vertex -0.066518 -0.041908 1.227097
vertex -0.063271 -0.023197 1.208492
vertex -0.070316 -0.027940 1.224701
endloop
endfacet
facet normal 0.888743 0.115066 0.443728
outer loop
vertex -0.037563 -0.054619 1.140029
vertex -0.052393 0.000000 1.155568
vertex -0.043894 -0.059573 1.153994
endloop
endfacet
facet normal 0.934651 0.347800 0.073910
outer loop
vertex -0.071534 0.000000 1.203823
vertex -0.063271 -0.023197 1.208492
vertex -0.065570 -0.015446 1.201089
endloop
endfacet
facet normal -0.940942 -0.186909 -0.282299
outer loop
vertex -0.076077 -0.016768 1.141031
vertex -0.074495 0.000000 1.124656
vertex -0.071311 -0.018491 1.126286
endloop
endfacet
facet normal -0.981844 -0.076767 -0.173464
outer loop
vertex -0.074495 0.000000 1.124656
vertex -0.076077 -0.016768 1.141031
vertex -0.077172 0.000000 1.139807
endloop
endfacet
facet normal -0.824800 -0.560115 0.077309
outer loop
vertex -0.091058 0.000000 1.185486
vertex -0.082125 -0.015553 1.168111
vertex -0.083194 -0.012113 1.181629
endloop
endfacet
facet normal -0.899270 -0.388485 -0.200983
outer loop
vertex -0.088942 -0.022925 1.250812
vertex -0.081277 -0.033063 1.236112
vertex -0.082698 -0.036301 1.248729
endloop
endfacet
facet normal -0.886634 -0.318345 -0.335464
outer loop
vertex -0.086696 -0.018567 1.236678
vertex -0.078230 -0.030220 1.225361
vertex -0.081277 -0.033063 1.236112
endloop
endfacet
facet normal -0.910845 -0.330866 -0.246758
outer loop
vertex -0.088942 -0.022925 1.250812
vertex -0.086696 -0.018567 1.236678
vertex -0.081277 -0.033063 1.236112
endloop
endfacet
facet normal -0.759354 -0.591053 -0.272098
outer loop
vertex -0.056870 -0.060115 1.180116
vertex -0.059899 -0.061897 1.192440
vertex -0.067783 -0.050665 1.190044
endloop
endfacet
facet normal -0.702357 -0.704565 -0.101407
outer loop
vertex -0.056870 -0.060115 1.180116
vertex -0.067783 -0.050665 1.190044
vertex -0.065418 -0.051139 1.176957
endloop
endfacet
facet normal -0.569016 -0.696012 -0.437937
outer loop
vertex -0.048089 -0.060526 1.169360
vertex -0.056870 -0.060115 1.180116
vertex -0.065418 -0.051139 1.176957
endloop
endfacet
facet normal -0.512757 -0.850242 -0.119031
outer loop
vertex -0.048089 -0.060526 1.169360
vertex -0.065418 -0.051139 1.176957
vertex -0.060612 -0.052279 1.164397
endloop
endfacet
facet normal -0.896826 -0.417261 -0.146958
outer loop
vertex -0.067783 -0.050665 1.190044
vertex -0.070398 -0.039247 1.173583
vertex -0.065418 -0.051139 1.176957
endloop
endfacet
facet normal -0.852130 -0.438070 -0.286302
outer loop
vertex -0.070398 -0.039247 1.173583
vertex -0.060612 -0.052279 1.164397
vertex -0.065418 -0.051139 1.176957
endloop
endfacet
facet normal -0.429672 -0.901074 -0.058720
outer loop
vertex -0.043894 -0.059573 1.153994
vertex -0.060612 -0.052279 1.164397
vertex -0.056569 -0.053368 1.151524
endloop
endfacet
facet normal -0.771213 -0.607300 -0.190834
outer loop
vertex -0.068077 -0.041728 1.160988
vertex -0.056569 -0.053368 1.151524
vertex -0.060612 -0.052279 1.164397
endloop
endfacet
facet normal -0.810607 -0.584590 -0.034228
outer loop
vertex -0.070398 -0.039247 1.173583
vertex -0.068077 -0.041728 1.160988
vertex -0.060612 -0.052279 1.164397
endloop
endfacet
facet normal -0.487887 -0.852841 -0.186087
outer loop
vertex -0.043894 -0.059573 1.153994
vertex -0.048089 -0.060526 1.169360
vertex -0.060612 -0.052279 1.164397
endloop
endfacet
facet normal -0.323030 -0.836249 -0.443102
outer loop
vertex -0.037563 -0.054619 1.140029
vertex -0.043894 -0.059573 1.153994
vertex -0.056569 -0.053368 1.151524
endloop
endfacet
facet normal -0.750599 -0.651243 -0.111731
outer loop
vertex -0.068077 -0.041728 1.160988
vertex -0.064695 -0.043667 1.149570
vertex -0.056569 -0.053368 1.151524
endloop
endfacet
facet normal -0.625764 -0.619604 -0.473826
outer loop
vertex -0.064695 -0.043667 1.149570
vertex -0.053299 -0.045085 1.136374
vertex -0.056569 -0.053368 1.151524
endloop
endfacet
facet normal -0.357821 -0.784660 -0.506234
outer loop
vertex -0.037563 -0.054619 1.140029
vertex -0.056569 -0.053368 1.151524
vertex -0.053299 -0.045085 1.136374
endloop
endfacet
facet normal -0.781810 -0.506320 -0.363885
outer loop
vertex -0.064695 -0.043667 1.149570
vertex -0.070819 -0.030279 1.144099
vertex -0.063912 -0.030994 1.130254
endloop
endfacet
facet normal -0.606216 -0.653464 -0.453306
outer loop
vertex -0.064695 -0.043667 1.149570
vertex -0.063912 -0.030994 1.130254
vertex -0.053299 -0.045085 1.136374
endloop
endfacet
facet normal -0.754428 -0.556777 -0.347617
outer loop
vertex -0.071311 -0.018491 1.126286
vertex -0.063912 -0.030994 1.130254
vertex -0.070819 -0.030279 1.144099
endloop
endfacet
facet normal -0.423582 -0.151664 -0.893072
outer loop
vertex -0.071311 -0.018491 1.126286
vertex -0.074495 0.000000 1.124656
vertex -0.059868 0.000000 1.117719
endloop
endfacet
facet normal 0.394592 0.095985 -0.913829
outer loop
vertex -0.049516 -0.011847 1.119729
vertex -0.035251 -0.021862 1.124837
vertex -0.044222 -0.024120 1.120726
endloop
endfacet
facet normal 0.401249 0.068787 -0.913383
outer loop
vertex -0.034980 -0.033760 1.124060
vertex -0.044222 -0.024120 1.120726
vertex -0.035251 -0.021862 1.124837
endloop
endfacet
facet normal -0.311485 -0.741788 -0.593909
outer loop
vertex -0.029098 -0.046569 1.125535
vertex -0.037563 -0.054619 1.140029
vertex -0.053299 -0.045085 1.136374
endloop
endfacet
facet normal 0.907106 0.297738 0.297507
outer loop
vertex -0.070316 -0.027940 1.224701
vertex -0.071950 -0.015442 1.217174
vertex -0.074115 -0.013973 1.222305
endloop
endfacet
facet normal -0.985348 -0.142661 -0.093470
outer loop
vertex -0.090807 -0.000628 1.252635
vertex -0.089396 0.000000 1.236807
vertex -0.086696 -0.018567 1.236678
endloop
endfacet
facet normal -0.766112 0.604550 0.218155
outer loop
vertex -0.091058 0.000000 1.185486
vertex -0.091450 -0.000567 1.185682
vertex -0.084046 -0.000528 1.211575
endloop
endfacet
facet normal -0.742312 -0.608336 0.280891
outer loop
vertex -0.072504 -0.013774 1.211049
vertex -0.083600 0.000000 1.211555
vertex -0.078953 -0.011650 1.198606
endloop
endfacet
facet normal -0.987351 0.135324 -0.082618
outer loop
vertex -0.090807 -0.000628 1.252635
vertex -0.090674 0.000000 1.252079
vertex -0.089396 0.000000 1.236807
endloop
endfacet
facet normal 0.954562 0.129084 0.268605
outer loop
vertex -0.043894 -0.059573 1.153994
vertex -0.052393 0.000000 1.155568
vertex -0.048089 -0.060526 1.169360
endloop
endfacet
facet normal 0.866887 0.477239 0.144048
outer loop
vertex -0.035251 -0.021862 1.124837
vertex -0.052393 0.000000 1.155568
vertex -0.030895 -0.030329 1.126674
endloop
endfacet
facet normal 0.917361 0.161376 0.363877
outer loop
vertex -0.046013 0.000000 1.139482
vertex -0.037744 -0.012260 1.124074
vertex -0.039632 0.000000 1.123397
endloop
endfacet
facet normal 0.993884 -0.027196 -0.107032
outer loop
vertex -0.060291 -0.059831 1.217598
vertex -0.061904 -0.030472 1.195162
vertex -0.060365 -0.035063 1.210616
endloop
endfacet
facet normal 0.909600 0.206054 0.360790
outer loop
vertex -0.052393 0.000000 1.155568
vertex -0.035251 -0.021862 1.124837
vertex -0.046013 0.000000 1.139482
endloop
endfacet
facet normal 0.834603 0.071209 0.546230
outer loop
vertex -0.030895 -0.030329 1.126674
vertex -0.052393 0.000000 1.155568
vertex -0.037563 -0.054619 1.140029
endloop
endfacet
facet normal 0.966020 0.153624 0.207859
outer loop
vertex -0.065570 -0.015446 1.201089
vertex -0.057822 -0.030065 1.175884
vertex -0.065153 0.000000 1.187738
endloop
endfacet
facet normal 0.907121 0.297647 0.297554
outer loop
vertex -0.074115 -0.013973 1.222305
vertex -0.071950 -0.015442 1.217174
vertex -0.077914 0.000000 1.219909
endloop
endfacet
facet normal 0.997897 0.062035 0.018787
outer loop
vertex -0.059899 -0.061897 1.192440
vertex -0.061904 -0.030472 1.195162
vertex -0.060125 -0.062038 1.204911
endloop
endfacet
facet normal 0.891878 0.281794 0.353761
outer loop
vertex -0.071534 0.000000 1.203823
vertex -0.077914 0.000000 1.219909
vertex -0.071950 -0.015442 1.217174
endloop
endfacet
facet normal 0.743245 0.250335 0.620418
outer loop
vertex -0.082698 -0.036301 1.248729
vertex -0.084294 0.000000 1.235994
vertex -0.088942 -0.022925 1.250812
endloop
endfacet
facet normal 0.929540 0.047858 0.365602
outer loop
vertex -0.088942 -0.022925 1.250812
vertex -0.084294 0.000000 1.235994
vertex -0.090807 -0.000628 1.252635
endloop
endfacet
facet normal 0.921784 0.128958 0.365629
outer loop
vertex -0.090807 -0.000628 1.252635
vertex -0.084294 0.000000 1.235994
vertex -0.090674 0.000000 1.252079
endloop
endfacet
facet normal 0.916364 0.167806 0.363480
outer loop
vertex -0.084294 0.000000 1.235994
vertex -0.082698 -0.036301 1.248729
vertex -0.077914 0.000000 1.219909
endloop
endfacet
facet normal 0.860416 0.304152 0.408872
outer loop
vertex -0.066518 -0.041908 1.227097
vertex -0.070316 -0.027940 1.224701
vertex -0.073636 -0.047914 1.246545
endloop
endfacet
facet normal 0.798689 0.306095 0.518075
outer loop
vertex -0.082698 -0.036301 1.248729
vertex -0.070316 -0.027940 1.224701
vertex -0.074115 -0.013973 1.222305
endloop
endfacet
facet normal 0.967289 0.250856 -0.037723
outer loop
vertex -0.061904 -0.030472 1.195162
vertex -0.065570 -0.015446 1.201089
vertex -0.063271 -0.023197 1.208492
endloop
endfacet
facet normal 0.926486 0.081045 0.367499
outer loop
vertex -0.065153 0.000000 1.187738
vertex -0.057822 -0.030065 1.175884
vertex -0.058773 0.000000 1.171653
endloop
endfacet
facet normal 0.998357 0.057220 0.003109
outer loop
vertex -0.061904 -0.030472 1.195162
vertex -0.060291 -0.059831 1.217598
vertex -0.060125 -0.062038 1.204911
endloop
endfacet
facet normal 0.914785 0.112130 0.388066
outer loop
vertex -0.060291 -0.059831 1.217598
vertex -0.060365 -0.035063 1.210616
vertex -0.066518 -0.041908 1.227097
endloop
endfacet
facet normal 0.976272 0.060205 0.208009
outer loop
vertex -0.057822 -0.030065 1.175884
vertex -0.061904 -0.030472 1.195162
vertex -0.056870 -0.060115 1.180116
endloop
endfacet
facet normal 0.968916 0.040678 0.244021
outer loop
vertex -0.056870 -0.060115 1.180116
vertex -0.061904 -0.030472 1.195162
vertex -0.059899 -0.061897 1.192440
endloop
endfacet
facet normal 0.972066 0.233087 -0.027534
outer loop
vertex -0.063271 -0.023197 1.208492
vertex -0.060365 -0.035063 1.210616
vertex -0.061904 -0.030472 1.195162
endloop
endfacet
facet normal 0.801511 0.381892 0.460151
outer loop
vertex -0.070316 -0.027940 1.224701
vertex -0.063271 -0.023197 1.208492
vertex -0.071950 -0.015442 1.217174
endloop
endfacet
facet normal 0.771815 0.112565 0.625804
outer loop
vertex -0.048089 -0.060526 1.169360
vertex -0.057822 -0.030065 1.175884
vertex -0.056870 -0.060115 1.180116
endloop
endfacet
facet normal 0.891890 0.281742 0.353771
outer loop
vertex -0.071534 0.000000 1.203823
vertex -0.065570 -0.015446 1.201089
vertex -0.065153 0.000000 1.187738
endloop
endfacet
facet normal 0.801422 0.378652 0.462975
outer loop
vertex -0.071950 -0.015442 1.217174
vertex -0.063271 -0.023197 1.208492
vertex -0.071534 0.000000 1.203823
endloop
endfacet
facet normal -0.832265 -0.554190 0.014428
outer loop
vertex -0.065958 -0.051237 1.220802
vertex -0.060291 -0.059831 1.217598
vertex -0.062719 -0.055875 1.229493
endloop
endfacet
facet normal 0.860422 0.304142 0.408867
outer loop
vertex -0.066518 -0.041908 1.227097
vertex -0.073636 -0.047914 1.246545
vertex -0.062719 -0.055875 1.229493
endloop
endfacet
facet normal 0.798772 0.305989 0.518010
outer loop
vertex -0.082698 -0.036301 1.248729
vertex -0.074115 -0.013973 1.222305
vertex -0.077914 0.000000 1.219909
endloop
endfacet
facet normal 0.966017 0.153703 0.207813
outer loop
vertex -0.065570 -0.015446 1.201089
vertex -0.061904 -0.030472 1.195162
vertex -0.057822 -0.030065 1.175884
endloop
endfacet
facet normal 0.852276 0.286978 0.437343
outer loop
vertex -0.063271 -0.023197 1.208492
vertex -0.066518 -0.041908 1.227097
vertex -0.060365 -0.035063 1.210616
endloop
endfacet
facet normal -0.767500 -0.638701 -0.054813
outer loop
vertex -0.072319 -0.044134 1.227103
vertex -0.065958 -0.051237 1.220802
vertex -0.062719 -0.055875 1.229493
endloop
endfacet
endsolid Exported from Blender-4.0.2
