solid Exported from Blender-4.0.2
facet normal -0.006783 0.016870 0.999835
outer loop
vertex -0.459864 -0.192268 0.098995
vertex -0.464865 -0.158897 0.098398
vertex -0.471124 -0.200114 0.099051
endloop
endfacet
facet normal 0.550199 -0.787629 0.277349
outer loop
vertex -0.471124 -0.200114 0.099051
vertex -0.455427 -0.194747 0.083153
vertex -0.459864 -0.192268 0.098995
endloop
endfacet
facet normal 0.828480 -0.469359 0.305487
outer loop
vertex -0.449708 -0.181400 0.088150
vertex -0.459864 -0.192268 0.098995
vertex -0.455427 -0.194747 0.083153
endloop
endfacet
facet normal 0.819613 -0.514580 0.251877
outer loop
vertex -0.449708 -0.181400 0.088150
vertex -0.452228 -0.180076 0.099055
vertex -0.459864 -0.192268 0.098995
endloop
endfacet
facet normal -0.029373 0.013479 0.999478
outer loop
vertex -0.452228 -0.180076 0.099055
vertex -0.464865 -0.158897 0.098398
vertex -0.459864 -0.192268 0.098995
endloop
endfacet
facet normal 0.025609 0.046257 0.998601
outer loop
vertex -0.452228 -0.180076 0.099055
vertex -0.454357 -0.167607 0.098532
vertex -0.464865 -0.158897 0.098398
endloop
endfacet
facet normal 0.630742 0.763118 0.140766
outer loop
vertex -0.450629 -0.168548 0.086929
vertex -0.464865 -0.158897 0.098398
vertex -0.454357 -0.167607 0.098532
endloop
endfacet
facet normal 0.050286 0.008186 0.998701
outer loop
vertex -0.476287 -0.151440 0.098912
vertex -0.471124 -0.200114 0.099051
vertex -0.464865 -0.158897 0.098398
endloop
endfacet
facet normal 0.543835 0.821041 0.173596
outer loop
vertex -0.461239 -0.158667 0.085951
vertex -0.476287 -0.151440 0.098912
vertex -0.464865 -0.158897 0.098398
endloop
endfacet
facet normal 0.656904 0.725633 0.204777
outer loop
vertex -0.450629 -0.168548 0.086929
vertex -0.461239 -0.158667 0.085951
vertex -0.464865 -0.158897 0.098398
endloop
endfacet
facet normal 0.921062 0.101714 0.375898
outer loop
vertex -0.449708 -0.181400 0.088150
vertex -0.445281 -0.169373 0.074048
vertex -0.450629 -0.168548 0.086929
endloop
endfacet
facet normal 0.652906 0.723327 0.224749
outer loop
vertex -0.461239 -0.158667 0.085951
vertex -0.450629 -0.168548 0.086929
vertex -0.445281 -0.169373 0.074048
endloop
endfacet
facet normal 0.949888 0.096318 0.297382
outer loop
vertex -0.449708 -0.181400 0.088150
vertex -0.450629 -0.168548 0.086929
vertex -0.454357 -0.167607 0.098532
endloop
endfacet
facet normal 0.909018 0.268772 0.318510
outer loop
vertex -0.445281 -0.169373 0.074048
vertex -0.439096 -0.176649 0.062536
vertex -0.442059 -0.164612 0.060835
endloop
endfacet
facet normal 0.613198 0.683590 0.395845
outer loop
vertex -0.451949 -0.155155 0.059824
vertex -0.445281 -0.169373 0.074048
vertex -0.442059 -0.164612 0.060835
endloop
endfacet
facet normal 0.891157 0.042923 0.451660
outer loop
vertex -0.439096 -0.176649 0.062536
vertex -0.445281 -0.169373 0.074048
vertex -0.446150 -0.184320 0.077183
endloop
endfacet
facet normal 0.684392 0.647529 0.335132
outer loop
vertex -0.461239 -0.158667 0.085951
vertex -0.445281 -0.169373 0.074048
vertex -0.456404 -0.157151 0.073148
endloop
endfacet
facet normal 0.686836 0.649151 0.326894
outer loop
vertex -0.451949 -0.155155 0.059824
vertex -0.456404 -0.157151 0.073148
vertex -0.445281 -0.169373 0.074048
endloop
endfacet
facet normal 0.951852 0.008934 0.306429
outer loop
vertex -0.449708 -0.181400 0.088150
vertex -0.446150 -0.184320 0.077183
vertex -0.445281 -0.169373 0.074048
endloop
endfacet
facet normal 0.344837 0.936380 0.065427
outer loop
vertex -0.451949 -0.155155 0.059824
vertex -0.448463 -0.155476 0.046045
vertex -0.461873 -0.150434 0.044563
endloop
endfacet
facet normal 0.674617 0.721956 0.153855
outer loop
vertex -0.448463 -0.155476 0.046045
vertex -0.451949 -0.155155 0.059824
vertex -0.442059 -0.164612 0.060835
endloop
endfacet
facet normal 0.372953 0.926798 0.044179
outer loop
vertex -0.451949 -0.155155 0.059824
vertex -0.461873 -0.150434 0.044563
vertex -0.465477 -0.149622 0.057953
endloop
endfacet
facet normal 0.337002 0.908059 0.248713
outer loop
vertex -0.456404 -0.157151 0.073148
vertex -0.451949 -0.155155 0.059824
vertex -0.465477 -0.149622 0.057953
endloop
endfacet
facet normal 0.350268 0.936501 0.016691
outer loop
vertex -0.448463 -0.155476 0.046045
vertex -0.458450 -0.151478 0.031306
vertex -0.461873 -0.150434 0.044563
endloop
endfacet
facet normal 0.181128 0.983399 -0.010883
outer loop
vertex -0.479765 -0.147016 0.055637
vertex -0.465477 -0.149622 0.057953
vertex -0.461873 -0.150434 0.044563
endloop
endfacet
facet normal 0.147375 0.986844 -0.066478
outer loop
vertex -0.479765 -0.147016 0.055637
vertex -0.461873 -0.150434 0.044563
vertex -0.475998 -0.148431 0.042983
endloop
endfacet
facet normal 0.144723 0.988643 -0.040490
outer loop
vertex -0.475998 -0.148431 0.042983
vertex -0.461873 -0.150434 0.044563
vertex -0.458450 -0.151478 0.031306
endloop
endfacet
facet normal 0.044057 0.994991 -0.089731
outer loop
vertex -0.475998 -0.148431 0.042983
vertex -0.472863 -0.149671 0.030772
vertex -0.487394 -0.149078 0.030213
endloop
endfacet
facet normal 0.050124 0.994205 -0.095101
outer loop
vertex -0.475998 -0.148431 0.042983
vertex -0.487394 -0.149078 0.030213
vertex -0.489538 -0.147937 0.041011
endloop
endfacet
facet normal 0.126592 0.989622 -0.067992
outer loop
vertex -0.475998 -0.148431 0.042983
vertex -0.458450 -0.151478 0.031306
vertex -0.472863 -0.149671 0.030772
endloop
endfacet
facet normal 0.050279 0.994092 -0.096193
outer loop
vertex -0.479765 -0.147016 0.055637
vertex -0.475998 -0.148431 0.042983
vertex -0.489538 -0.147937 0.041011
endloop
endfacet
facet normal 0.035257 0.994552 -0.098094
outer loop
vertex -0.489538 -0.147937 0.041011
vertex -0.487394 -0.149078 0.030213
vertex -0.501926 -0.148616 0.029674
endloop
endfacet
facet normal -0.014238 0.998918 -0.044268
outer loop
vertex -0.489538 -0.147937 0.041011
vertex -0.501926 -0.148616 0.029674
vertex -0.504677 -0.148045 0.043443
endloop
endfacet
facet normal 0.034635 0.995706 -0.085845
outer loop
vertex -0.479765 -0.147016 0.055637
vertex -0.489538 -0.147937 0.041011
vertex -0.493375 -0.146817 0.052454
endloop
endfacet
facet normal -0.024017 0.994144 -0.105357
outer loop
vertex -0.489538 -0.147937 0.041011
vertex -0.504677 -0.148045 0.043443
vertex -0.493375 -0.146817 0.052454
endloop
endfacet
facet normal -0.124526 0.991973 0.021987
outer loop
vertex -0.512086 -0.149280 0.057198
vertex -0.504677 -0.148045 0.043443
vertex -0.519932 -0.149875 0.039608
endloop
endfacet
facet normal -0.169541 0.985519 -0.002836
outer loop
vertex -0.499486 -0.147090 0.064972
vertex -0.504677 -0.148045 0.043443
vertex -0.512086 -0.149280 0.057198
endloop
endfacet
facet normal -0.128092 0.991087 0.036603
outer loop
vertex -0.504677 -0.148045 0.043443
vertex -0.516445 -0.149033 0.029011
vertex -0.519932 -0.149875 0.039608
endloop
endfacet
facet normal -0.026546 0.998556 -0.046714
outer loop
vertex -0.504677 -0.148045 0.043443
vertex -0.501926 -0.148616 0.029674
vertex -0.516445 -0.149033 0.029011
endloop
endfacet
facet normal -0.090335 0.995660 -0.022385
outer loop
vertex -0.499486 -0.147090 0.064972
vertex -0.493375 -0.146817 0.052454
vertex -0.504677 -0.148045 0.043443
endloop
endfacet
facet normal -0.186680 0.982079 0.025911
outer loop
vertex -0.507182 -0.149006 0.082144
vertex -0.499486 -0.147090 0.064972
vertex -0.512086 -0.149280 0.057198
endloop
endfacet
facet normal 0.015583 0.999044 0.040842
outer loop
vertex -0.479765 -0.147016 0.055637
vertex -0.499486 -0.147090 0.064972
vertex -0.484656 -0.147483 0.068927
endloop
endfacet
facet normal 0.008543 0.999626 0.025972
outer loop
vertex -0.479765 -0.147016 0.055637
vertex -0.493375 -0.146817 0.052454
vertex -0.499486 -0.147090 0.064972
endloop
endfacet
facet normal 0.027387 0.999619 -0.003362
outer loop
vertex -0.499486 -0.147090 0.064972
vertex -0.489182 -0.147309 0.083800
vertex -0.484656 -0.147483 0.068927
endloop
endfacet
facet normal -0.099681 0.992821 0.066101
outer loop
vertex -0.499486 -0.147090 0.064972
vertex -0.507182 -0.149006 0.082144
vertex -0.489182 -0.147309 0.083800
endloop
endfacet
facet normal -0.428851 0.894777 0.124345
outer loop
vertex -0.519769 -0.157887 0.102640
vertex -0.507182 -0.149006 0.082144
vertex -0.524765 -0.157967 0.085985
endloop
endfacet
facet normal -0.423968 0.894011 0.144897
outer loop
vertex -0.524765 -0.157967 0.085985
vertex -0.507182 -0.149006 0.082144
vertex -0.519103 -0.152730 0.070240
endloop
endfacet
facet normal -0.350561 0.934702 0.058648
outer loop
vertex -0.507182 -0.149006 0.082144
vertex -0.512086 -0.149280 0.057198
vertex -0.519103 -0.152730 0.070240
endloop
endfacet
facet normal -0.089179 0.994758 -0.050041
outer loop
vertex -0.507182 -0.149006 0.082144
vertex -0.491229 -0.146698 0.099594
vertex -0.489182 -0.147309 0.083800
endloop
endfacet
facet normal -0.183913 0.982199 0.038229
outer loop
vertex -0.507182 -0.149006 0.082144
vertex -0.506547 -0.149607 0.100641
vertex -0.491229 -0.146698 0.099594
endloop
endfacet
facet normal -0.525230 0.849735 0.045643
outer loop
vertex -0.519769 -0.157887 0.102640
vertex -0.506547 -0.149607 0.100641
vertex -0.507182 -0.149006 0.082144
endloop
endfacet
facet normal -0.659582 0.726067 0.194368
outer loop
vertex -0.535506 -0.169566 0.092864
vertex -0.519769 -0.157887 0.102640
vertex -0.524765 -0.157967 0.085985
endloop
endfacet
facet normal -0.678457 0.678564 0.281508
outer loop
vertex -0.535506 -0.169566 0.092864
vertex -0.529272 -0.168222 0.104649
vertex -0.519769 -0.157887 0.102640
endloop
endfacet
facet normal 0.152984 -0.005717 0.988212
outer loop
vertex -0.506547 -0.149607 0.100641
vertex -0.519769 -0.157887 0.102640
vertex -0.511265 -0.202399 0.101066
endloop
endfacet
facet normal 0.210642 -0.003661 0.977556
outer loop
vertex -0.530270 -0.181855 0.104813
vertex -0.519769 -0.157887 0.102640
vertex -0.529272 -0.168222 0.104649
endloop
endfacet
facet normal 0.207825 0.005116 0.978153
outer loop
vertex -0.511265 -0.202399 0.101066
vertex -0.519769 -0.157887 0.102640
vertex -0.522392 -0.193584 0.103384
endloop
endfacet
facet normal 0.188054 0.006652 0.982136
outer loop
vertex -0.522392 -0.193584 0.103384
vertex -0.519769 -0.157887 0.102640
vertex -0.530270 -0.181855 0.104813
endloop
endfacet
facet normal -0.924020 0.072162 0.375473
outer loop
vertex -0.529272 -0.168222 0.104649
vertex -0.535054 -0.183656 0.093386
vertex -0.530270 -0.181855 0.104813
endloop
endfacet
facet normal -0.682695 -0.621783 0.383814
outer loop
vertex -0.526320 -0.194974 0.090586
vertex -0.530270 -0.181855 0.104813
vertex -0.535054 -0.183656 0.093386
endloop
endfacet
facet normal -0.775092 -0.556956 0.298384
outer loop
vertex -0.526320 -0.194974 0.090586
vertex -0.522392 -0.193584 0.103384
vertex -0.530270 -0.181855 0.104813
endloop
endfacet
facet normal -0.655582 -0.706805 0.265781
outer loop
vertex -0.526320 -0.194974 0.090586
vertex -0.540881 -0.184847 0.081601
vertex -0.530807 -0.196505 0.075447
endloop
endfacet
facet normal -0.676435 -0.620254 0.397141
outer loop
vertex -0.526320 -0.194974 0.090586
vertex -0.535054 -0.183656 0.093386
vertex -0.540881 -0.184847 0.081601
endloop
endfacet
facet normal -0.540249 -0.823892 0.171268
outer loop
vertex -0.517511 -0.203999 0.074958
vertex -0.514510 -0.203220 0.088172
vertex -0.526320 -0.194974 0.090586
endloop
endfacet
facet normal -0.519910 -0.817325 0.248342
outer loop
vertex -0.514510 -0.203220 0.088172
vertex -0.522392 -0.193584 0.103384
vertex -0.526320 -0.194974 0.090586
endloop
endfacet
facet normal -0.471977 -0.852135 0.226063
outer loop
vertex -0.517511 -0.203999 0.074958
vertex -0.526320 -0.194974 0.090586
vertex -0.530807 -0.196505 0.075447
endloop
endfacet
facet normal -0.545893 -0.708131 0.447829
outer loop
vertex -0.540881 -0.184847 0.081601
vertex -0.539431 -0.196714 0.064604
vertex -0.530807 -0.196505 0.075447
endloop
endfacet
facet normal -0.471827 -0.790495 0.390508
outer loop
vertex -0.532166 -0.206538 0.053495
vertex -0.530807 -0.196505 0.075447
vertex -0.539431 -0.196714 0.064604
endloop
endfacet
facet normal -0.476033 -0.857353 0.195800
outer loop
vertex -0.517511 -0.203999 0.074958
vertex -0.530807 -0.196505 0.075447
vertex -0.522699 -0.203980 0.062428
endloop
endfacet
facet normal -0.153119 -0.895168 0.418604
outer loop
vertex -0.532166 -0.206538 0.053495
vertex -0.522699 -0.203980 0.062428
vertex -0.530807 -0.196505 0.075447
endloop
endfacet
facet normal -0.041580 -0.886238 0.461360
outer loop
vertex -0.532166 -0.206538 0.053495
vertex -0.535840 -0.215187 0.036550
vertex -0.521061 -0.216401 0.035550
endloop
endfacet
facet normal -0.039991 -0.886432 0.461128
outer loop
vertex -0.532166 -0.206538 0.053495
vertex -0.542128 -0.209203 0.047508
vertex -0.535840 -0.215187 0.036550
endloop
endfacet
facet normal -0.169726 -0.904200 0.391937
outer loop
vertex -0.532166 -0.206538 0.053495
vertex -0.521061 -0.216401 0.035550
vertex -0.509602 -0.211112 0.052714
endloop
endfacet
facet normal -0.149141 -0.787102 0.598521
outer loop
vertex -0.542128 -0.209203 0.047508
vertex -0.532166 -0.206538 0.053495
vertex -0.539431 -0.196714 0.064604
endloop
endfacet
facet normal -0.165139 -0.887948 0.429276
outer loop
vertex -0.532166 -0.206538 0.053495
vertex -0.509602 -0.211112 0.052714
vertex -0.522699 -0.203980 0.062428
endloop
endfacet
facet normal -0.056690 -0.986863 0.151287
outer loop
vertex -0.509602 -0.211112 0.052714
vertex -0.489864 -0.209864 0.068251
vertex -0.504482 -0.208670 0.070562
endloop
endfacet
facet normal -0.099576 -0.973744 0.204714
outer loop
vertex -0.509602 -0.211112 0.052714
vertex -0.491957 -0.213081 0.051931
vertex -0.489864 -0.209864 0.068251
endloop
endfacet
facet normal -0.090947 -0.942687 0.321046
outer loop
vertex -0.491957 -0.213081 0.051931
vertex -0.509602 -0.211112 0.052714
vertex -0.506132 -0.217408 0.035210
endloop
endfacet
facet normal -0.056136 -0.942989 0.328054
outer loop
vertex -0.521061 -0.216401 0.035550
vertex -0.506132 -0.217408 0.035210
vertex -0.509602 -0.211112 0.052714
endloop
endfacet
facet normal -0.334645 -0.915984 0.221326
outer loop
vertex -0.504482 -0.208670 0.070562
vertex -0.522699 -0.203980 0.062428
vertex -0.509602 -0.211112 0.052714
endloop
endfacet
facet normal -0.072708 -0.995857 0.054612
outer loop
vertex -0.500994 -0.208106 0.085491
vertex -0.504482 -0.208670 0.070562
vertex -0.489864 -0.209864 0.068251
endloop
endfacet
facet normal -0.303465 -0.946853 0.106672
outer loop
vertex -0.500994 -0.208106 0.085491
vertex -0.517511 -0.203999 0.074958
vertex -0.504482 -0.208670 0.070562
endloop
endfacet
facet normal -0.298211 -0.946666 0.122038
outer loop
vertex -0.504482 -0.208670 0.070562
vertex -0.517511 -0.203999 0.074958
vertex -0.522699 -0.203980 0.062428
endloop
endfacet
facet normal 0.051696 -0.990342 0.128647
outer loop
vertex -0.500994 -0.208106 0.085491
vertex -0.486079 -0.207571 0.083616
vertex -0.483769 -0.205449 0.099023
endloop
endfacet
facet normal 0.134781 -0.990610 0.022943
outer loop
vertex -0.500994 -0.208106 0.085491
vertex -0.483769 -0.205449 0.099023
vertex -0.497915 -0.207365 0.099398
endloop
endfacet
facet normal 0.052433 -0.989491 0.134752
outer loop
vertex -0.500994 -0.208106 0.085491
vertex -0.489864 -0.209864 0.068251
vertex -0.486079 -0.207571 0.083616
endloop
endfacet
facet normal -0.314845 -0.940614 0.126958
outer loop
vertex -0.500994 -0.208106 0.085491
vertex -0.514510 -0.203220 0.088172
vertex -0.517511 -0.203999 0.074958
endloop
endfacet
facet normal -0.316334 -0.941006 0.120171
outer loop
vertex -0.514510 -0.203220 0.088172
vertex -0.500994 -0.208106 0.085491
vertex -0.497915 -0.207365 0.099398
endloop
endfacet
facet normal 0.051748 -0.190181 0.980384
outer loop
vertex -0.483769 -0.205449 0.099023
vertex -0.511265 -0.202399 0.101066
vertex -0.497915 -0.207365 0.099398
endloop
endfacet
facet normal -0.329423 -0.933392 0.142336
outer loop
vertex -0.514510 -0.203220 0.088172
vertex -0.497915 -0.207365 0.099398
vertex -0.511265 -0.202399 0.101066
endloop
endfacet
facet normal 0.241320 -0.965605 0.096811
outer loop
vertex -0.470305 -0.203856 0.081350
vertex -0.483769 -0.205449 0.099023
vertex -0.486079 -0.207571 0.083616
endloop
endfacet
facet normal 0.096853 -0.987604 0.123526
outer loop
vertex -0.476743 -0.208795 0.066510
vertex -0.486079 -0.207571 0.083616
vertex -0.489864 -0.209864 0.068251
endloop
endfacet
facet normal 0.252206 -0.945642 0.205312
outer loop
vertex -0.476743 -0.208795 0.066510
vertex -0.470305 -0.203856 0.081350
vertex -0.486079 -0.207571 0.083616
endloop
endfacet
facet normal 0.379821 -0.901345 0.208118
outer loop
vertex -0.470305 -0.203856 0.081350
vertex -0.471124 -0.200114 0.099051
vertex -0.483769 -0.205449 0.099023
endloop
endfacet
facet normal 0.493534 -0.846019 0.201682
outer loop
vertex -0.471124 -0.200114 0.099051
vertex -0.470305 -0.203856 0.081350
vertex -0.455427 -0.194747 0.083153
endloop
endfacet
facet normal 0.243300 -0.947026 0.209636
outer loop
vertex -0.476743 -0.208795 0.066510
vertex -0.463949 -0.205590 0.066140
vertex -0.470305 -0.203856 0.081350
endloop
endfacet
facet normal 0.434189 -0.856501 0.279081
outer loop
vertex -0.470305 -0.203856 0.081350
vertex -0.463949 -0.205590 0.066140
vertex -0.452004 -0.199260 0.066983
endloop
endfacet
facet normal 0.464067 -0.822874 0.327902
outer loop
vertex -0.470305 -0.203856 0.081350
vertex -0.452004 -0.199260 0.066983
vertex -0.455427 -0.194747 0.083153
endloop
endfacet
facet normal 0.435094 -0.857574 0.274336
outer loop
vertex -0.450021 -0.203203 0.051512
vertex -0.452004 -0.199260 0.066983
vertex -0.463949 -0.205590 0.066140
endloop
endfacet
facet normal 0.734058 -0.629576 0.254544
outer loop
vertex -0.452004 -0.199260 0.066983
vertex -0.450021 -0.203203 0.051512
vertex -0.440642 -0.192559 0.050791
endloop
endfacet
facet normal 0.703575 -0.567598 0.427567
outer loop
vertex -0.446150 -0.184320 0.077183
vertex -0.452004 -0.199260 0.066983
vertex -0.442867 -0.189003 0.065564
endloop
endfacet
facet normal 0.791465 -0.524443 0.313915
outer loop
vertex -0.446150 -0.184320 0.077183
vertex -0.455427 -0.194747 0.083153
vertex -0.452004 -0.199260 0.066983
endloop
endfacet
facet normal 0.738481 -0.621759 0.260886
outer loop
vertex -0.452004 -0.199260 0.066983
vertex -0.440642 -0.192559 0.050791
vertex -0.442867 -0.189003 0.065564
endloop
endfacet
facet normal 0.940193 -0.224115 0.256533
outer loop
vertex -0.436052 -0.179270 0.049090
vertex -0.439096 -0.176649 0.062536
vertex -0.442867 -0.189003 0.065564
endloop
endfacet
facet normal 0.919649 -0.197520 0.339459
outer loop
vertex -0.439096 -0.176649 0.062536
vertex -0.446150 -0.184320 0.077183
vertex -0.442867 -0.189003 0.065564
endloop
endfacet
facet normal 0.931892 -0.294822 0.211323
outer loop
vertex -0.436052 -0.179270 0.049090
vertex -0.442867 -0.189003 0.065564
vertex -0.440642 -0.192559 0.050791
endloop
endfacet
facet normal 0.946019 0.282357 0.159128
outer loop
vertex -0.439096 -0.176649 0.062536
vertex -0.436052 -0.179270 0.049090
vertex -0.439627 -0.166303 0.047335
endloop
endfacet
facet normal 0.931732 -0.294643 0.212274
outer loop
vertex -0.433277 -0.181318 0.034067
vertex -0.436052 -0.179270 0.049090
vertex -0.440642 -0.192559 0.050791
endloop
endfacet
facet normal 0.949342 0.280820 0.141028
outer loop
vertex -0.436052 -0.179270 0.049090
vertex -0.436867 -0.168442 0.033015
vertex -0.439627 -0.166303 0.047335
endloop
endfacet
facet normal 0.951072 0.276441 0.137991
outer loop
vertex -0.436052 -0.179270 0.049090
vertex -0.433277 -0.181318 0.034067
vertex -0.436867 -0.168442 0.033015
endloop
endfacet
facet normal 0.962809 0.269725 0.015702
outer loop
vertex -0.436537 -0.168720 0.017556
vertex -0.436867 -0.168442 0.033015
vertex -0.433277 -0.181318 0.034067
endloop
endfacet
facet normal 0.922524 -0.343935 0.175092
outer loop
vertex -0.433277 -0.181318 0.034067
vertex -0.440642 -0.192559 0.050791
vertex -0.438895 -0.195960 0.034906
endloop
endfacet
facet normal 0.933324 -0.358819 -0.012469
outer loop
vertex -0.438895 -0.195960 0.034906
vertex -0.434094 -0.182904 0.018554
vertex -0.433277 -0.181318 0.034067
endloop
endfacet
facet normal 0.983962 0.164637 -0.068654
outer loop
vertex -0.436537 -0.168720 0.017556
vertex -0.433277 -0.181318 0.034067
vertex -0.434094 -0.182904 0.018554
endloop
endfacet
facet normal 0.984234 0.172325 0.039853
outer loop
vertex -0.435758 -0.169583 0.002049
vertex -0.436537 -0.168720 0.017556
vertex -0.434094 -0.182904 0.018554
endloop
endfacet
facet normal 0.987508 0.155428 0.025891
outer loop
vertex -0.435758 -0.169583 0.002049
vertex -0.434094 -0.182904 0.018554
vertex -0.433497 -0.184114 0.003048
endloop
endfacet
facet normal 0.969380 -0.239100 0.055980
outer loop
vertex -0.437707 -0.197282 0.019708
vertex -0.433497 -0.184114 0.003048
vertex -0.434094 -0.182904 0.018554
endloop
endfacet
facet normal 0.967157 -0.235324 0.096071
outer loop
vertex -0.438895 -0.195960 0.034906
vertex -0.437707 -0.197282 0.019708
vertex -0.434094 -0.182904 0.018554
endloop
endfacet
facet normal 0.975825 -0.199734 0.088719
outer loop
vertex -0.437707 -0.197282 0.019708
vertex -0.436546 -0.198487 0.004225
vertex -0.433497 -0.184114 0.003048
endloop
endfacet
facet normal 0.826631 -0.552859 0.105011
outer loop
vertex -0.436546 -0.198487 0.004225
vertex -0.437707 -0.197282 0.019708
vertex -0.445894 -0.209371 0.020509
endloop
endfacet
facet normal 0.818000 -0.541036 0.195333
outer loop
vertex -0.437707 -0.197282 0.019708
vertex -0.448059 -0.207254 0.035439
vertex -0.445894 -0.209371 0.020509
endloop
endfacet
facet normal 0.774052 -0.622652 0.114670
outer loop
vertex -0.437707 -0.197282 0.019708
vertex -0.438895 -0.195960 0.034906
vertex -0.448059 -0.207254 0.035439
endloop
endfacet
facet normal 0.400032 -0.879956 0.256224
outer loop
vertex -0.448059 -0.207254 0.035439
vertex -0.462877 -0.209404 0.051190
vertex -0.461584 -0.213579 0.034833
endloop
endfacet
facet normal 0.412864 -0.869957 0.269661
outer loop
vertex -0.448059 -0.207254 0.035439
vertex -0.450021 -0.203203 0.051512
vertex -0.462877 -0.209404 0.051190
endloop
endfacet
facet normal 0.113432 -0.981287 0.155591
outer loop
vertex -0.460231 -0.210998 0.020700
vertex -0.445894 -0.209371 0.020509
vertex -0.448059 -0.207254 0.035439
endloop
endfacet
facet normal 0.424917 -0.896823 -0.123104
outer loop
vertex -0.460231 -0.210998 0.020700
vertex -0.448059 -0.207254 0.035439
vertex -0.461584 -0.213579 0.034833
endloop
endfacet
facet normal 0.758525 -0.603915 0.244801
outer loop
vertex -0.450021 -0.203203 0.051512
vertex -0.448059 -0.207254 0.035439
vertex -0.438895 -0.195960 0.034906
endloop
endfacet
facet normal 0.198044 -0.945879 0.257083
outer loop
vertex -0.462877 -0.209404 0.051190
vertex -0.476233 -0.216579 0.035080
vertex -0.461584 -0.213579 0.034833
endloop
endfacet
facet normal 0.062103 -0.982866 -0.173547
outer loop
vertex -0.474891 -0.212008 0.021174
vertex -0.460231 -0.210998 0.020700
vertex -0.461584 -0.213579 0.034833
endloop
endfacet
facet normal 0.187281 -0.938404 -0.290385
outer loop
vertex -0.474891 -0.212008 0.021174
vertex -0.461584 -0.213579 0.034833
vertex -0.476233 -0.216579 0.035080
endloop
endfacet
facet normal 0.053865 -0.966515 0.250894
outer loop
vertex -0.476233 -0.216579 0.035080
vertex -0.476949 -0.212398 0.051340
vertex -0.491957 -0.213081 0.051931
endloop
endfacet
facet normal 0.066497 -0.962798 0.261913
outer loop
vertex -0.476233 -0.216579 0.035080
vertex -0.491957 -0.213081 0.051931
vertex -0.491160 -0.217552 0.035293
endloop
endfacet
facet normal 0.203948 -0.945936 0.252212
outer loop
vertex -0.462877 -0.209404 0.051190
vertex -0.476949 -0.212398 0.051340
vertex -0.476233 -0.216579 0.035080
endloop
endfacet
facet normal 0.056498 -0.940250 -0.335764
outer loop
vertex -0.489826 -0.212721 0.021989
vertex -0.476233 -0.216579 0.035080
vertex -0.491160 -0.217552 0.035293
endloop
endfacet
facet normal 0.028475 -0.950421 -0.309660
outer loop
vertex -0.489826 -0.212721 0.021989
vertex -0.474891 -0.212008 0.021174
vertex -0.476233 -0.216579 0.035080
endloop
endfacet
facet normal -0.010725 -0.965812 0.259021
outer loop
vertex -0.491957 -0.213081 0.051931
vertex -0.506132 -0.217408 0.035210
vertex -0.491160 -0.217552 0.035293
endloop
endfacet
facet normal -0.007143 -0.939695 -0.341939
outer loop
vertex -0.489826 -0.212721 0.021989
vertex -0.491160 -0.217552 0.035293
vertex -0.506132 -0.217408 0.035210
endloop
endfacet
facet normal 0.043432 -0.997423 -0.057099
outer loop
vertex -0.506121 -0.213528 0.023691
vertex -0.487294 -0.211751 0.006971
vertex -0.489826 -0.212721 0.021989
endloop
endfacet
facet normal 0.013592 -0.947599 -0.319172
outer loop
vertex -0.489826 -0.212721 0.021989
vertex -0.506132 -0.217408 0.035210
vertex -0.506121 -0.213528 0.023691
endloop
endfacet
facet normal 0.044510 -0.997386 -0.056919
outer loop
vertex -0.474891 -0.212008 0.021174
vertex -0.489826 -0.212721 0.021989
vertex -0.487294 -0.211751 0.006971
endloop
endfacet
facet normal -0.035800 -0.070386 -0.996877
outer loop
vertex -0.500754 -0.198475 0.006517
vertex -0.485740 -0.198775 0.005999
vertex -0.487294 -0.211751 0.006971
endloop
endfacet
facet normal -0.035460 -0.070427 -0.996886
outer loop
vertex -0.485740 -0.198775 0.005999
vertex -0.473032 -0.211444 0.006442
vertex -0.487294 -0.211751 0.006971
endloop
endfacet
facet normal -0.035608 -0.070192 -0.996898
outer loop
vertex -0.500754 -0.198475 0.006517
vertex -0.487294 -0.211751 0.006971
vertex -0.501557 -0.212057 0.007502
endloop
endfacet
facet normal 0.018193 -0.996182 -0.085388
outer loop
vertex -0.506121 -0.213528 0.023691
vertex -0.501557 -0.212057 0.007502
vertex -0.487294 -0.211751 0.006971
endloop
endfacet
facet normal 0.020183 -0.999159 -0.035704
outer loop
vertex -0.474891 -0.212008 0.021174
vertex -0.487294 -0.211751 0.006971
vertex -0.473032 -0.211444 0.006442
endloop
endfacet
facet normal 0.021732 -0.999695 0.011762
outer loop
vertex -0.460231 -0.210998 0.020700
vertex -0.473032 -0.211444 0.006442
vertex -0.458772 -0.211140 0.005932
endloop
endfacet
facet normal -0.034175 -0.069503 -0.996996
outer loop
vertex -0.472672 -0.198266 0.005511
vertex -0.458772 -0.211140 0.005932
vertex -0.473032 -0.211444 0.006442
endloop
endfacet
facet normal -0.034524 -0.069492 -0.996985
outer loop
vertex -0.485740 -0.198775 0.005999
vertex -0.472672 -0.198266 0.005511
vertex -0.473032 -0.211444 0.006442
endloop
endfacet
facet normal 0.067748 -0.997262 -0.029631
outer loop
vertex -0.460231 -0.210998 0.020700
vertex -0.474891 -0.212008 0.021174
vertex -0.473032 -0.211444 0.006442
endloop
endfacet
facet normal -0.034961 -0.070347 -0.996910
outer loop
vertex -0.472672 -0.198266 0.005511
vertex -0.458646 -0.197995 0.005000
vertex -0.458772 -0.211140 0.005932
endloop
endfacet
facet normal -0.034934 -0.071570 -0.996824
outer loop
vertex -0.458646 -0.197995 0.005000
vertex -0.472672 -0.198266 0.005511
vertex -0.472024 -0.185086 0.004542
endloop
endfacet
facet normal -0.035663 -0.071531 -0.996801
outer loop
vertex -0.472672 -0.198266 0.005511
vertex -0.485802 -0.185881 0.005092
vertex -0.472024 -0.185086 0.004542
endloop
endfacet
facet normal -0.034491 -0.070293 -0.996930
outer loop
vertex -0.472672 -0.198266 0.005511
vertex -0.485740 -0.198775 0.005999
vertex -0.485802 -0.185881 0.005092
endloop
endfacet
facet normal -0.036667 -0.070327 -0.996850
outer loop
vertex -0.446798 -0.197737 0.004546
vertex -0.458772 -0.211140 0.005932
vertex -0.458646 -0.197995 0.005000
endloop
endfacet
facet normal -0.036590 -0.073426 -0.996629
outer loop
vertex -0.445679 -0.184097 0.003500
vertex -0.446798 -0.197737 0.004546
vertex -0.458646 -0.197995 0.005000
endloop
endfacet
facet normal -0.036919 -0.073121 -0.996640
outer loop
vertex -0.445679 -0.184097 0.003500
vertex -0.458646 -0.197995 0.005000
vertex -0.458875 -0.184372 0.004009
endloop
endfacet
facet normal -0.036430 -0.073113 -0.996658
outer loop
vertex -0.458646 -0.197995 0.005000
vertex -0.472024 -0.185086 0.004542
vertex -0.458875 -0.184372 0.004009
endloop
endfacet
facet normal -0.036887 -0.074452 -0.996542
outer loop
vertex -0.446920 -0.170927 0.002562
vertex -0.445679 -0.184097 0.003500
vertex -0.458875 -0.184372 0.004009
endloop
endfacet
facet normal -0.037350 -0.074042 -0.996556
outer loop
vertex -0.446920 -0.170927 0.002562
vertex -0.458875 -0.184372 0.004009
vertex -0.460028 -0.170533 0.003024
endloop
endfacet
facet normal -0.036392 -0.073965 -0.996597
outer loop
vertex -0.474542 -0.170843 0.003577
vertex -0.460028 -0.170533 0.003024
vertex -0.458875 -0.184372 0.004009
endloop
endfacet
facet normal -0.036382 -0.073955 -0.996598
outer loop
vertex -0.474542 -0.170843 0.003577
vertex -0.458875 -0.184372 0.004009
vertex -0.472024 -0.185086 0.004542
endloop
endfacet
facet normal -0.036392 -0.073942 -0.996598
outer loop
vertex -0.460028 -0.170533 0.003024
vertex -0.474542 -0.170843 0.003577
vertex -0.476654 -0.155773 0.002536
endloop
endfacet
facet normal -0.035570 -0.073830 -0.996636
outer loop
vertex -0.491704 -0.171835 0.004263
vertex -0.476654 -0.155773 0.002536
vertex -0.474542 -0.170843 0.003577
endloop
endfacet
facet normal -0.035574 -0.073770 -0.996641
outer loop
vertex -0.485802 -0.185881 0.005092
vertex -0.491704 -0.171835 0.004263
vertex -0.474542 -0.170843 0.003577
endloop
endfacet
facet normal -0.035526 -0.073806 -0.996640
outer loop
vertex -0.485802 -0.185881 0.005092
vertex -0.474542 -0.170843 0.003577
vertex -0.472024 -0.185086 0.004542
endloop
endfacet
facet normal -0.034895 -0.073487 -0.996686
outer loop
vertex -0.491704 -0.171835 0.004263
vertex -0.485802 -0.185881 0.005092
vertex -0.498772 -0.185500 0.005518
endloop
endfacet
facet normal -0.036223 -0.074836 -0.996538
outer loop
vertex -0.493458 -0.155273 0.003083
vertex -0.491704 -0.171835 0.004263
vertex -0.511655 -0.169209 0.004791
endloop
endfacet
facet normal -0.036317 -0.075557 -0.996480
outer loop
vertex -0.491704 -0.171835 0.004263
vertex -0.513047 -0.183588 0.005932
vertex -0.511655 -0.169209 0.004791
endloop
endfacet
facet normal -0.034663 -0.074677 -0.996605
outer loop
vertex -0.491704 -0.171835 0.004263
vertex -0.493458 -0.155273 0.003083
vertex -0.476654 -0.155773 0.002536
endloop
endfacet
facet normal -0.038499 -0.071624 -0.996688
outer loop
vertex -0.491704 -0.171835 0.004263
vertex -0.498772 -0.185500 0.005518
vertex -0.513047 -0.183588 0.005932
endloop
endfacet
facet normal -0.034809 -0.070293 -0.996919
outer loop
vertex -0.485740 -0.198775 0.005999
vertex -0.498772 -0.185500 0.005518
vertex -0.485802 -0.185881 0.005092
endloop
endfacet
facet normal -0.035815 -0.071278 -0.996813
outer loop
vertex -0.485740 -0.198775 0.005999
vertex -0.500754 -0.198475 0.006517
vertex -0.498772 -0.185500 0.005518
endloop
endfacet
facet normal -0.038401 -0.070878 -0.996746
outer loop
vertex -0.500754 -0.198475 0.006517
vertex -0.513047 -0.183588 0.005932
vertex -0.498772 -0.185500 0.005518
endloop
endfacet
facet normal -0.035725 -0.068679 -0.996999
outer loop
vertex -0.500754 -0.198475 0.006517
vertex -0.514439 -0.197976 0.006973
vertex -0.513047 -0.183588 0.005932
endloop
endfacet
facet normal -0.989144 0.087131 -0.118332
outer loop
vertex -0.514439 -0.197976 0.006973
vertex -0.514359 -0.182324 0.017830
vertex -0.513047 -0.183588 0.005932
endloop
endfacet
facet normal -0.990886 0.087813 -0.102142
outer loop
vertex -0.512750 -0.168035 0.016423
vertex -0.511655 -0.169209 0.004791
vertex -0.513047 -0.183588 0.005932
endloop
endfacet
facet normal -0.987838 0.099476 -0.119498
outer loop
vertex -0.512750 -0.168035 0.016423
vertex -0.513047 -0.183588 0.005932
vertex -0.514359 -0.182324 0.017830
endloop
endfacet
facet normal -0.989020 0.087607 -0.119016
outer loop
vertex -0.514439 -0.197976 0.006973
vertex -0.515664 -0.196776 0.018036
vertex -0.514359 -0.182324 0.017830
endloop
endfacet
facet normal -0.021452 -0.112441 -0.993427
outer loop
vertex -0.528399 -0.168142 0.016528
vertex -0.514359 -0.182324 0.017830
vertex -0.529532 -0.182707 0.018201
endloop
endfacet
facet normal -0.006012 -0.097321 -0.995235
outer loop
vertex -0.528399 -0.168142 0.016528
vertex -0.512750 -0.168035 0.016423
vertex -0.514359 -0.182324 0.017830
endloop
endfacet
facet normal -0.024138 -0.012069 -0.999636
outer loop
vertex -0.515664 -0.196776 0.018036
vertex -0.529532 -0.182707 0.018201
vertex -0.514359 -0.182324 0.017830
endloop
endfacet
facet normal -0.989160 0.086204 -0.118879
outer loop
vertex -0.515664 -0.196776 0.018036
vertex -0.514439 -0.197976 0.006973
vertex -0.515820 -0.212362 0.008032
endloop
endfacet
facet normal -0.979227 0.116382 -0.166042
outer loop
vertex -0.515664 -0.196776 0.018036
vertex -0.515820 -0.212362 0.008032
vertex -0.517448 -0.211446 0.018275
endloop
endfacet
facet normal -0.031006 -0.012512 -0.999441
outer loop
vertex -0.531180 -0.196907 0.018519
vertex -0.515664 -0.196776 0.018036
vertex -0.517448 -0.211446 0.018275
endloop
endfacet
facet normal -0.030950 -0.018788 -0.999344
outer loop
vertex -0.515664 -0.196776 0.018036
vertex -0.531180 -0.196907 0.018519
vertex -0.529532 -0.182707 0.018201
endloop
endfacet
facet normal -0.047340 -0.027955 -0.998488
outer loop
vertex -0.531180 -0.196907 0.018519
vertex -0.517448 -0.211446 0.018275
vertex -0.532778 -0.210988 0.018989
endloop
endfacet
facet normal -0.059012 -0.015504 -0.998137
outer loop
vertex -0.546872 -0.197181 0.019451
vertex -0.529532 -0.182707 0.018201
vertex -0.531180 -0.196907 0.018519
endloop
endfacet
facet normal -0.059048 -0.013558 -0.998163
outer loop
vertex -0.548485 -0.211212 0.019737
vertex -0.546872 -0.197181 0.019451
vertex -0.531180 -0.196907 0.018519
endloop
endfacet
facet normal -0.047151 -0.027977 -0.998496
outer loop
vertex -0.548485 -0.211212 0.019737
vertex -0.531180 -0.196907 0.018519
vertex -0.532778 -0.210988 0.018989
endloop
endfacet
facet normal -0.043791 -0.940519 -0.336906
outer loop
vertex -0.534756 -0.214405 0.028785
vertex -0.532778 -0.210988 0.018989
vertex -0.517448 -0.211446 0.018275
endloop
endfacet
facet normal -0.002240 -0.944062 -0.329761
outer loop
vertex -0.534756 -0.214405 0.028785
vertex -0.548485 -0.211212 0.019737
vertex -0.532778 -0.210988 0.018989
endloop
endfacet
facet normal -0.027654 -0.949404 -0.312836
outer loop
vertex -0.534756 -0.214405 0.028785
vertex -0.517448 -0.211446 0.018275
vertex -0.521255 -0.216342 0.033470
endloop
endfacet
facet normal -0.013948 -0.994674 -0.102123
outer loop
vertex -0.550692 -0.215004 0.036796
vertex -0.534756 -0.214405 0.028785
vertex -0.535840 -0.215187 0.036550
endloop
endfacet
facet normal -0.077023 -0.971117 -0.225832
outer loop
vertex -0.550692 -0.215004 0.036796
vertex -0.548485 -0.211212 0.019737
vertex -0.534756 -0.214405 0.028785
endloop
endfacet
facet normal -0.102291 -0.988223 -0.113802
outer loop
vertex -0.521255 -0.216342 0.033470
vertex -0.535840 -0.215187 0.036550
vertex -0.534756 -0.214405 0.028785
endloop
endfacet
facet normal -0.025224 -0.949646 -0.312307
outer loop
vertex -0.506121 -0.213528 0.023691
vertex -0.521255 -0.216342 0.033470
vertex -0.517448 -0.211446 0.018275
endloop
endfacet
facet normal -0.083227 -0.996320 -0.020487
outer loop
vertex -0.521255 -0.216342 0.033470
vertex -0.521061 -0.216401 0.035550
vertex -0.535840 -0.215187 0.036550
endloop
endfacet
facet normal 0.155997 -0.986841 -0.042537
outer loop
vertex -0.506121 -0.213528 0.023691
vertex -0.521061 -0.216401 0.035550
vertex -0.521255 -0.216342 0.033470
endloop
endfacet
facet normal -0.002906 -0.878361 0.477990
outer loop
vertex -0.542128 -0.209203 0.047508
vertex -0.550692 -0.215004 0.036796
vertex -0.535840 -0.215187 0.036550
endloop
endfacet
facet normal -0.181135 -0.796872 0.576355
outer loop
vertex -0.542128 -0.209203 0.047508
vertex -0.560601 -0.202406 0.051100
vertex -0.550692 -0.215004 0.036796
endloop
endfacet
facet normal 0.050087 -0.976302 -0.210538
outer loop
vertex -0.548485 -0.211212 0.019737
vertex -0.550692 -0.215004 0.036796
vertex -0.565513 -0.215572 0.035904
endloop
endfacet
facet normal -0.010628 -0.754040 0.656742
outer loop
vertex -0.560601 -0.202406 0.051100
vertex -0.565513 -0.215572 0.035904
vertex -0.550692 -0.215004 0.036796
endloop
endfacet
facet normal -0.137755 -0.728834 0.670690
outer loop
vertex -0.542128 -0.209203 0.047508
vertex -0.549354 -0.199154 0.056944
vertex -0.560601 -0.202406 0.051100
endloop
endfacet
facet normal -0.112875 -0.732607 0.671227
outer loop
vertex -0.560601 -0.202406 0.051100
vertex -0.573248 -0.204082 0.047144
vertex -0.565513 -0.215572 0.035904
endloop
endfacet
facet normal -0.240631 -0.334718 0.911077
outer loop
vertex -0.560601 -0.202406 0.051100
vertex -0.578339 -0.189839 0.051032
vertex -0.573248 -0.204082 0.047144
endloop
endfacet
facet normal -0.306598 -0.428153 0.850107
outer loop
vertex -0.560601 -0.202406 0.051100
vertex -0.566224 -0.188849 0.055900
vertex -0.578339 -0.189839 0.051032
endloop
endfacet
facet normal -0.268714 -0.523569 0.808498
outer loop
vertex -0.556066 -0.187080 0.062532
vertex -0.560601 -0.202406 0.051100
vertex -0.549354 -0.199154 0.056944
endloop
endfacet
facet normal -0.430092 -0.454549 0.780004
outer loop
vertex -0.556066 -0.187080 0.062532
vertex -0.566224 -0.188849 0.055900
vertex -0.560601 -0.202406 0.051100
endloop
endfacet
facet normal -0.273624 -0.755599 0.595147
outer loop
vertex -0.542128 -0.209203 0.047508
vertex -0.539431 -0.196714 0.064604
vertex -0.549354 -0.199154 0.056944
endloop
endfacet
facet normal -0.364881 -0.639740 0.676458
outer loop
vertex -0.547602 -0.185448 0.070851
vertex -0.549354 -0.199154 0.056944
vertex -0.539431 -0.196714 0.064604
endloop
endfacet
facet normal -0.512288 -0.578533 0.634714
outer loop
vertex -0.547602 -0.185448 0.070851
vertex -0.556066 -0.187080 0.062532
vertex -0.549354 -0.199154 0.056944
endloop
endfacet
facet normal -0.609051 -0.673762 0.418453
outer loop
vertex -0.540881 -0.184847 0.081601
vertex -0.547602 -0.185448 0.070851
vertex -0.539431 -0.196714 0.064604
endloop
endfacet
facet normal -0.835379 -0.144416 0.530363
outer loop
vertex -0.547602 -0.185448 0.070851
vertex -0.540881 -0.184847 0.081601
vertex -0.543290 -0.171342 0.081484
endloop
endfacet
facet normal -0.669249 -0.190324 0.718249
outer loop
vertex -0.556066 -0.187080 0.062532
vertex -0.547602 -0.185448 0.070851
vertex -0.550755 -0.172697 0.071292
endloop
endfacet
facet normal -0.774721 -0.212170 0.595643
outer loop
vertex -0.547602 -0.185448 0.070851
vertex -0.543290 -0.171342 0.081484
vertex -0.550755 -0.172697 0.071292
endloop
endfacet
facet normal -0.879626 -0.153004 0.450387
outer loop
vertex -0.535054 -0.183656 0.093386
vertex -0.543290 -0.171342 0.081484
vertex -0.540881 -0.184847 0.081601
endloop
endfacet
facet normal -0.824973 -0.005531 0.565146
outer loop
vertex -0.535054 -0.183656 0.093386
vertex -0.535506 -0.169566 0.092864
vertex -0.543290 -0.171342 0.081484
endloop
endfacet
facet normal -0.651902 0.677740 0.340134
outer loop
vertex -0.535506 -0.169566 0.092864
vertex -0.537027 -0.161452 0.073781
vertex -0.543290 -0.171342 0.081484
endloop
endfacet
facet normal -0.628092 0.685109 0.368952
outer loop
vertex -0.537027 -0.161452 0.073781
vertex -0.550755 -0.172697 0.071292
vertex -0.543290 -0.171342 0.081484
endloop
endfacet
facet normal -0.568447 0.739834 0.359879
outer loop
vertex -0.535506 -0.169566 0.092864
vertex -0.524765 -0.157967 0.085985
vertex -0.537027 -0.161452 0.073781
endloop
endfacet
facet normal -0.412869 0.896853 0.158724
outer loop
vertex -0.524765 -0.157967 0.085985
vertex -0.530213 -0.156230 0.061999
vertex -0.537027 -0.161452 0.073781
endloop
endfacet
facet normal -0.301809 0.923960 0.234967
outer loop
vertex -0.546846 -0.162497 0.065278
vertex -0.537027 -0.161452 0.073781
vertex -0.530213 -0.156230 0.061999
endloop
endfacet
facet normal -0.572489 0.568016 0.591282
outer loop
vertex -0.537027 -0.161452 0.073781
vertex -0.546846 -0.162497 0.065278
vertex -0.550755 -0.172697 0.071292
endloop
endfacet
facet normal -0.400403 0.902905 0.156331
outer loop
vertex -0.524765 -0.157967 0.085985
vertex -0.519103 -0.152730 0.070240
vertex -0.530213 -0.156230 0.061999
endloop
endfacet
facet normal -0.400082 0.903140 0.155793
outer loop
vertex -0.519103 -0.152730 0.070240
vertex -0.524303 -0.151628 0.050498
vertex -0.530213 -0.156230 0.061999
endloop
endfacet
facet normal -0.231094 0.855646 0.463104
outer loop
vertex -0.546846 -0.162497 0.065278
vertex -0.530213 -0.156230 0.061999
vertex -0.541659 -0.155615 0.055151
endloop
endfacet
facet normal -0.133756 0.941888 0.308151
outer loop
vertex -0.524303 -0.151628 0.050498
vertex -0.541659 -0.155615 0.055151
vertex -0.530213 -0.156230 0.061999
endloop
endfacet
facet normal -0.250209 0.960785 0.119534
outer loop
vertex -0.519103 -0.152730 0.070240
vertex -0.512086 -0.149280 0.057198
vertex -0.524303 -0.151628 0.050498
endloop
endfacet
facet normal -0.223528 0.972405 0.066812
outer loop
vertex -0.512086 -0.149280 0.057198
vertex -0.519932 -0.149875 0.039608
vertex -0.524303 -0.151628 0.050498
endloop
endfacet
facet normal -0.074079 0.988816 0.129444
outer loop
vertex -0.535947 -0.151634 0.043880
vertex -0.524303 -0.151628 0.050498
vertex -0.519932 -0.149875 0.039608
endloop
endfacet
facet normal -0.149019 0.953678 0.261325
outer loop
vertex -0.524303 -0.151628 0.050498
vertex -0.535947 -0.151634 0.043880
vertex -0.541659 -0.155615 0.055151
endloop
endfacet
facet normal -0.108584 0.994085 0.002247
outer loop
vertex -0.535947 -0.151634 0.043880
vertex -0.519932 -0.149875 0.039608
vertex -0.530850 -0.151044 0.029182
endloop
endfacet
facet normal -0.037841 0.948104 0.315701
outer loop
vertex -0.548143 -0.150642 0.039439
vertex -0.541659 -0.155615 0.055151
vertex -0.535947 -0.151634 0.043880
endloop
endfacet
facet normal 0.059029 0.996423 0.060467
outer loop
vertex -0.548143 -0.150642 0.039439
vertex -0.535947 -0.151634 0.043880
vertex -0.530850 -0.151044 0.029182
endloop
endfacet
facet normal -0.137798 0.989900 0.033312
outer loop
vertex -0.530850 -0.151044 0.029182
vertex -0.519932 -0.149875 0.039608
vertex -0.516445 -0.149033 0.029011
endloop
endfacet
facet normal -0.034575 0.994657 -0.097272
outer loop
vertex -0.548143 -0.150642 0.039439
vertex -0.530850 -0.151044 0.029182
vertex -0.545361 -0.151571 0.028951
endloop
endfacet
facet normal -0.031402 0.970104 -0.240651
outer loop
vertex -0.543522 -0.154809 0.015658
vertex -0.545361 -0.151571 0.028951
vertex -0.530850 -0.151044 0.029182
endloop
endfacet
facet normal -0.027925 0.969443 -0.243722
outer loop
vertex -0.543522 -0.154809 0.015658
vertex -0.530850 -0.151044 0.029182
vertex -0.527816 -0.154655 0.014471
endloop
endfacet
facet normal -0.136468 0.955202 -0.262613
outer loop
vertex -0.516445 -0.149033 0.029011
vertex -0.527816 -0.154655 0.014471
vertex -0.530850 -0.151044 0.029182
endloop
endfacet
facet normal 0.157702 0.964228 -0.213059
outer loop
vertex -0.545361 -0.151571 0.028951
vertex -0.543522 -0.154809 0.015658
vertex -0.559188 -0.152519 0.014426
endloop
endfacet
facet normal 0.054327 -0.158717 -0.985828
outer loop
vertex -0.544275 -0.168011 0.017742
vertex -0.559188 -0.152519 0.014426
vertex -0.543522 -0.154809 0.015658
endloop
endfacet
facet normal -0.076609 -0.151200 -0.985530
outer loop
vertex -0.528399 -0.168142 0.016528
vertex -0.544275 -0.168011 0.017742
vertex -0.543522 -0.154809 0.015658
endloop
endfacet
facet normal -0.073104 -0.147280 -0.986390
outer loop
vertex -0.528399 -0.168142 0.016528
vertex -0.543522 -0.154809 0.015658
vertex -0.527816 -0.154655 0.014471
endloop
endfacet
facet normal 0.063895 -0.149686 -0.986667
outer loop
vertex -0.544275 -0.168011 0.017742
vertex -0.559989 -0.167290 0.016615
vertex -0.559188 -0.152519 0.014426
endloop
endfacet
facet normal 0.065895 -0.113432 -0.991358
outer loop
vertex -0.559989 -0.167290 0.016615
vertex -0.544275 -0.168011 0.017742
vertex -0.545416 -0.182832 0.019362
endloop
endfacet
facet normal -0.071705 -0.102920 -0.992102
outer loop
vertex -0.544275 -0.168011 0.017742
vertex -0.529532 -0.182707 0.018201
vertex -0.545416 -0.182832 0.019362
endloop
endfacet
facet normal -0.076685 -0.107889 -0.991201
outer loop
vertex -0.544275 -0.168011 0.017742
vertex -0.528399 -0.168142 0.016528
vertex -0.529532 -0.182707 0.018201
endloop
endfacet
facet normal 0.071388 -0.108317 -0.991550
outer loop
vertex -0.559989 -0.167290 0.016615
vertex -0.545416 -0.182832 0.019362
vertex -0.561135 -0.182866 0.018234
endloop
endfacet
facet normal 0.071583 -0.003223 -0.997429
outer loop
vertex -0.545416 -0.182832 0.019362
vertex -0.562507 -0.197868 0.018184
vertex -0.561135 -0.182866 0.018234
endloop
endfacet
facet normal -0.072907 0.001211 -0.997338
outer loop
vertex -0.546872 -0.197181 0.019451
vertex -0.545416 -0.182832 0.019362
vertex -0.529532 -0.182707 0.018201
endloop
endfacet
facet normal 0.081393 -0.014440 -0.996578
outer loop
vertex -0.545416 -0.182832 0.019362
vertex -0.546872 -0.197181 0.019451
vertex -0.562507 -0.197868 0.018184
endloop
endfacet
facet normal 0.081463 -0.016091 -0.996546
outer loop
vertex -0.546872 -0.197181 0.019451
vertex -0.564213 -0.212698 0.018284
vertex -0.562507 -0.197868 0.018184
endloop
endfacet
facet normal 0.156813 -0.024696 -0.987320
outer loop
vertex -0.579708 -0.214578 0.015870
vertex -0.562507 -0.197868 0.018184
vertex -0.564213 -0.212698 0.018284
endloop
endfacet
facet normal 0.151684 -0.019289 -0.988241
outer loop
vertex -0.579708 -0.214578 0.015870
vertex -0.578358 -0.198890 0.015771
vertex -0.562507 -0.197868 0.018184
endloop
endfacet
facet normal 0.151151 -0.010529 -0.988455
outer loop
vertex -0.578358 -0.198890 0.015771
vertex -0.561135 -0.182866 0.018234
vertex -0.562507 -0.197868 0.018184
endloop
endfacet
facet normal 0.133537 -0.987092 -0.088413
outer loop
vertex -0.580283 -0.216320 0.034450
vertex -0.579708 -0.214578 0.015870
vertex -0.564213 -0.212698 0.018284
endloop
endfacet
facet normal 0.156122 -0.019666 -0.987542
outer loop
vertex -0.578358 -0.198890 0.015771
vertex -0.579708 -0.214578 0.015870
vertex -0.595237 -0.216235 0.013448
endloop
endfacet
facet normal 0.110612 -0.993424 -0.029565
outer loop
vertex -0.579708 -0.214578 0.015870
vertex -0.595062 -0.216795 0.032920
vertex -0.595237 -0.216235 0.013448
endloop
endfacet
facet normal 0.041499 -0.994894 -0.091994
outer loop
vertex -0.579708 -0.214578 0.015870
vertex -0.580283 -0.216320 0.034450
vertex -0.595062 -0.216795 0.032920
endloop
endfacet
facet normal 0.065267 -0.985606 -0.155949
outer loop
vertex -0.580283 -0.216320 0.034450
vertex -0.564213 -0.212698 0.018284
vertex -0.565513 -0.215572 0.035904
endloop
endfacet
facet normal -0.033252 -0.710248 0.703166
outer loop
vertex -0.573248 -0.204082 0.047144
vertex -0.580283 -0.216320 0.034450
vertex -0.565513 -0.215572 0.035904
endloop
endfacet
facet normal -0.121658 -0.680026 0.723024
outer loop
vertex -0.573248 -0.204082 0.047144
vertex -0.586896 -0.204863 0.044113
vertex -0.580283 -0.216320 0.034450
endloop
endfacet
facet normal -0.056048 -0.662416 0.747036
outer loop
vertex -0.586896 -0.204863 0.044113
vertex -0.595062 -0.216795 0.032920
vertex -0.580283 -0.216320 0.034450
endloop
endfacet
facet normal -0.187840 -0.320577 0.928411
outer loop
vertex -0.586896 -0.204863 0.044113
vertex -0.573248 -0.204082 0.047144
vertex -0.578339 -0.189839 0.051032
endloop
endfacet
facet normal -0.278185 -0.266536 0.922806
outer loop
vertex -0.586896 -0.204863 0.044113
vertex -0.578339 -0.189839 0.051032
vertex -0.591413 -0.190323 0.046951
endloop
endfacet
facet normal -0.123381 -0.632707 0.764500
outer loop
vertex -0.586896 -0.204863 0.044113
vertex -0.601171 -0.205181 0.041546
vertex -0.595062 -0.216795 0.032920
endloop
endfacet
facet normal -0.166727 -0.238532 0.956715
outer loop
vertex -0.601171 -0.205181 0.041546
vertex -0.586896 -0.204863 0.044113
vertex -0.591413 -0.190323 0.046951
endloop
endfacet
facet normal -0.296839 -0.029572 0.954470
outer loop
vertex -0.591413 -0.190323 0.046951
vertex -0.578339 -0.189839 0.051032
vertex -0.580824 -0.175513 0.050703
endloop
endfacet
facet normal -0.238839 -0.022550 0.970797
outer loop
vertex -0.605329 -0.190294 0.043528
vertex -0.591413 -0.190323 0.046951
vertex -0.593821 -0.175710 0.046698
endloop
endfacet
facet normal -0.293892 -0.031889 0.955307
outer loop
vertex -0.591413 -0.190323 0.046951
vertex -0.580824 -0.175513 0.050703
vertex -0.593821 -0.175710 0.046698
endloop
endfacet
facet normal -0.234770 -0.192427 0.952814
outer loop
vertex -0.601171 -0.205181 0.041546
vertex -0.591413 -0.190323 0.046951
vertex -0.605329 -0.190294 0.043528
endloop
endfacet
facet normal -0.387190 -0.046014 0.920851
outer loop
vertex -0.578339 -0.189839 0.051032
vertex -0.568986 -0.175083 0.055702
vertex -0.580824 -0.175513 0.050703
endloop
endfacet
facet normal -0.386418 0.217254 0.896372
outer loop
vertex -0.568230 -0.161971 0.052850
vertex -0.580824 -0.175513 0.050703
vertex -0.568986 -0.175083 0.055702
endloop
endfacet
facet normal -0.335207 0.164669 0.927642
outer loop
vertex -0.568230 -0.161971 0.052850
vertex -0.580777 -0.161610 0.048252
vertex -0.580824 -0.175513 0.050703
endloop
endfacet
facet normal -0.292659 0.166974 0.941526
outer loop
vertex -0.580777 -0.161610 0.048252
vertex -0.593821 -0.175710 0.046698
vertex -0.580824 -0.175513 0.050703
endloop
endfacet
facet normal -0.242334 0.658015 0.712944
outer loop
vertex -0.580777 -0.161610 0.048252
vertex -0.568230 -0.161971 0.052850
vertex -0.564442 -0.151659 0.044620
endloop
endfacet
facet normal -0.143943 0.539160 0.829812
outer loop
vertex -0.580777 -0.161610 0.048252
vertex -0.564442 -0.151659 0.044620
vertex -0.577710 -0.149699 0.041045
endloop
endfacet
facet normal -0.214785 0.545493 0.810127
outer loop
vertex -0.577710 -0.149699 0.041045
vertex -0.594201 -0.161515 0.044629
vertex -0.580777 -0.161610 0.048252
endloop
endfacet
facet normal -0.257391 0.132620 0.957163
outer loop
vertex -0.580777 -0.161610 0.048252
vertex -0.594201 -0.161515 0.044629
vertex -0.593821 -0.175710 0.046698
endloop
endfacet
facet normal 0.085590 0.972714 0.215642
outer loop
vertex -0.564442 -0.151659 0.044620
vertex -0.573970 -0.146875 0.026822
vertex -0.577710 -0.149699 0.041045
endloop
endfacet
facet normal 0.027663 0.979063 0.201667
outer loop
vertex -0.592077 -0.148822 0.038758
vertex -0.577710 -0.149699 0.041045
vertex -0.573970 -0.146875 0.026822
endloop
endfacet
facet normal -0.115881 0.432885 0.893970
outer loop
vertex -0.577710 -0.149699 0.041045
vertex -0.592077 -0.148822 0.038758
vertex -0.594201 -0.161515 0.044629
endloop
endfacet
facet normal -0.194890 0.438435 0.877378
outer loop
vertex -0.592077 -0.148822 0.038758
vertex -0.608542 -0.161424 0.041398
vertex -0.594201 -0.161515 0.044629
endloop
endfacet
facet normal -0.155927 0.393521 0.905996
outer loop
vertex -0.592077 -0.148822 0.038758
vertex -0.606679 -0.148539 0.036122
vertex -0.608542 -0.161424 0.041398
endloop
endfacet
facet normal -0.042715 0.940332 0.337567
outer loop
vertex -0.606679 -0.148539 0.036122
vertex -0.592077 -0.148822 0.038758
vertex -0.588175 -0.143956 0.025697
endloop
endfacet
facet normal 0.156334 0.909369 0.385498
outer loop
vertex -0.592077 -0.148822 0.038758
vertex -0.573970 -0.146875 0.026822
vertex -0.588175 -0.143956 0.025697
endloop
endfacet
facet normal 0.111177 0.821911 0.558660
outer loop
vertex -0.606679 -0.148539 0.036122
vertex -0.588175 -0.143956 0.025697
vertex -0.602458 -0.141347 0.024701
endloop
endfacet
facet normal 0.213360 0.949276 -0.230983
outer loop
vertex -0.573970 -0.146875 0.026822
vertex -0.590168 -0.147144 0.010754
vertex -0.588175 -0.143956 0.025697
endloop
endfacet
facet normal 0.192741 0.954092 -0.229257
outer loop
vertex -0.605666 -0.144456 0.008911
vertex -0.588175 -0.143956 0.025697
vertex -0.590168 -0.147144 0.010754
endloop
endfacet
facet normal 0.190292 0.955187 -0.226733
outer loop
vertex -0.605666 -0.144456 0.008911
vertex -0.602458 -0.141347 0.024701
vertex -0.588175 -0.143956 0.025697
endloop
endfacet
facet normal -0.098479 0.858093 0.503963
outer loop
vertex -0.622151 -0.148494 0.033022
vertex -0.606679 -0.148539 0.036122
vertex -0.602458 -0.141347 0.024701
endloop
endfacet
facet normal 0.144391 0.981022 -0.129408
outer loop
vertex -0.602458 -0.141347 0.024701
vertex -0.618796 -0.139998 0.016698
vertex -0.616849 -0.139324 0.023980
endloop
endfacet
facet normal 0.059577 0.683196 0.727801
outer loop
vertex -0.622151 -0.148494 0.033022
vertex -0.602458 -0.141347 0.024701
vertex -0.616849 -0.139324 0.023980
endloop
endfacet
facet normal 0.189909 0.955277 -0.226673
outer loop
vertex -0.602458 -0.141347 0.024701
vertex -0.605666 -0.144456 0.008911
vertex -0.618796 -0.139998 0.016698
endloop
endfacet
facet normal -0.180638 0.380239 0.907077
outer loop
vertex -0.606679 -0.148539 0.036122
vertex -0.622151 -0.148494 0.033022
vertex -0.623107 -0.161353 0.038222
endloop
endfacet
facet normal -0.182158 0.741762 0.645452
outer loop
vertex -0.641418 -0.148484 0.027573
vertex -0.622151 -0.148494 0.033022
vertex -0.616849 -0.139324 0.023980
endloop
endfacet
facet normal -0.228688 0.379524 0.896473
outer loop
vertex -0.622151 -0.148494 0.033022
vertex -0.637596 -0.161495 0.034586
vertex -0.623107 -0.161353 0.038222
endloop
endfacet
facet normal -0.249010 0.401830 0.881207
outer loop
vertex -0.622151 -0.148494 0.033022
vertex -0.641418 -0.148484 0.027573
vertex -0.637596 -0.161495 0.034586
endloop
endfacet
facet normal -0.193828 0.395617 0.897729
outer loop
vertex -0.606679 -0.148539 0.036122
vertex -0.623107 -0.161353 0.038222
vertex -0.608542 -0.161424 0.041398
endloop
endfacet
facet normal -0.210294 0.140188 0.967535
outer loop
vertex -0.608542 -0.161424 0.041398
vertex -0.623107 -0.161353 0.038222
vertex -0.622545 -0.175390 0.040378
endloop
endfacet
facet normal -0.242349 0.137803 0.960353
outer loop
vertex -0.637596 -0.161495 0.034586
vertex -0.622545 -0.175390 0.040378
vertex -0.623107 -0.161353 0.038222
endloop
endfacet
facet normal -0.189678 0.118999 0.974608
outer loop
vertex -0.608542 -0.161424 0.041398
vertex -0.622545 -0.175390 0.040378
vertex -0.607813 -0.175651 0.043277
endloop
endfacet
facet normal -0.193457 -0.025964 0.980765
outer loop
vertex -0.620055 -0.189939 0.040484
vertex -0.607813 -0.175651 0.043277
vertex -0.622545 -0.175390 0.040378
endloop
endfacet
facet normal -0.220632 0.161938 0.961820
outer loop
vertex -0.637596 -0.161495 0.034586
vertex -0.638074 -0.174821 0.036720
vertex -0.622545 -0.175390 0.040378
endloop
endfacet
facet normal -0.230286 -0.032327 0.972586
outer loop
vertex -0.638074 -0.174821 0.036720
vertex -0.620055 -0.189939 0.040484
vertex -0.622545 -0.175390 0.040378
endloop
endfacet
facet normal -0.202806 -0.017621 0.979060
outer loop
vertex -0.620055 -0.189939 0.040484
vertex -0.605329 -0.190294 0.043528
vertex -0.607813 -0.175651 0.043277
endloop
endfacet
facet normal -0.242015 -0.182174 0.953017
outer loop
vertex -0.631054 -0.203231 0.035150
vertex -0.615867 -0.204511 0.038762
vertex -0.620055 -0.189939 0.040484
endloop
endfacet
facet normal -0.203384 -0.172348 0.963811
outer loop
vertex -0.605329 -0.190294 0.043528
vertex -0.620055 -0.189939 0.040484
vertex -0.615867 -0.204511 0.038762
endloop
endfacet
facet normal -0.236124 -0.039703 0.970911
outer loop
vertex -0.638074 -0.174821 0.036720
vertex -0.635785 -0.189168 0.036690
vertex -0.620055 -0.189939 0.040484
endloop
endfacet
facet normal -0.238983 -0.184790 0.953278
outer loop
vertex -0.631054 -0.203231 0.035150
vertex -0.620055 -0.189939 0.040484
vertex -0.635785 -0.189168 0.036690
endloop
endfacet
facet normal -0.242341 -0.450215 0.859405
outer loop
vertex -0.615867 -0.204511 0.038762
vertex -0.631054 -0.203231 0.035150
vertex -0.624641 -0.216216 0.030156
endloop
endfacet
facet normal -0.094961 -0.397855 0.912521
outer loop
vertex -0.631054 -0.203231 0.035150
vertex -0.639393 -0.214711 0.029277
vertex -0.624641 -0.216216 0.030156
endloop
endfacet
facet normal -0.289903 -0.175819 0.940768
outer loop
vertex -0.631054 -0.203231 0.035150
vertex -0.652608 -0.187853 0.031382
vertex -0.646686 -0.201636 0.030631
endloop
endfacet
facet normal -0.309050 -0.205652 0.928545
outer loop
vertex -0.631054 -0.203231 0.035150
vertex -0.635785 -0.189168 0.036690
vertex -0.652608 -0.187853 0.031382
endloop
endfacet
facet normal -0.292526 -0.258505 0.920654
outer loop
vertex -0.631054 -0.203231 0.035150
vertex -0.646686 -0.201636 0.030631
vertex -0.639393 -0.214711 0.029277
endloop
endfacet
facet normal -0.105325 -0.992033 0.069115
outer loop
vertex -0.626634 -0.217371 0.010541
vertex -0.624641 -0.216216 0.030156
vertex -0.639393 -0.214711 0.029277
endloop
endfacet
facet normal -0.095322 -0.992541 0.076002
outer loop
vertex -0.626634 -0.217371 0.010541
vertex -0.639393 -0.214711 0.029277
vertex -0.642323 -0.215807 0.011289
endloop
endfacet
facet normal -0.853207 -0.493421 0.169038
outer loop
vertex -0.646686 -0.201636 0.030631
vertex -0.642323 -0.215807 0.011289
vertex -0.639393 -0.214711 0.029277
endloop
endfacet
facet normal -0.048557 -0.009417 -0.998776
outer loop
vertex -0.642323 -0.215807 0.011289
vertex -0.625402 -0.201662 0.010333
vertex -0.626634 -0.217371 0.010541
endloop
endfacet
facet normal -0.034554 -0.026186 -0.999060
outer loop
vertex -0.642323 -0.215807 0.011289
vertex -0.639932 -0.201603 0.010834
vertex -0.625402 -0.201662 0.010333
endloop
endfacet
facet normal -0.677048 -0.658088 0.329433
outer loop
vertex -0.646686 -0.201636 0.030631
vertex -0.653060 -0.204127 0.012555
vertex -0.642323 -0.215807 0.011289
endloop
endfacet
facet normal -0.128044 -0.010212 -0.991716
outer loop
vertex -0.639932 -0.201603 0.010834
vertex -0.642323 -0.215807 0.011289
vertex -0.653060 -0.204127 0.012555
endloop
endfacet
facet normal -0.034460 -0.000102 -0.999406
outer loop
vertex -0.639932 -0.201603 0.010834
vertex -0.625652 -0.185716 0.010340
vertex -0.625402 -0.201662 0.010333
endloop
endfacet
facet normal -0.049015 0.013002 -0.998713
outer loop
vertex -0.639932 -0.201603 0.010834
vertex -0.642271 -0.186609 0.011144
vertex -0.625652 -0.185716 0.010340
endloop
endfacet
facet normal -0.130023 0.000215 -0.991511
outer loop
vertex -0.642271 -0.186609 0.011144
vertex -0.639932 -0.201603 0.010834
vertex -0.653060 -0.204127 0.012555
endloop
endfacet
facet normal -0.044234 -0.073800 -0.996292
outer loop
vertex -0.642271 -0.186609 0.011144
vertex -0.625988 -0.170327 0.009215
vertex -0.625652 -0.185716 0.010340
endloop
endfacet
facet normal -0.061265 -0.056791 -0.996505
outer loop
vertex -0.642271 -0.186609 0.011144
vertex -0.643711 -0.169088 0.010234
vertex -0.625988 -0.170327 0.009215
endloop
endfacet
facet normal -0.149727 -0.063551 -0.986683
outer loop
vertex -0.643711 -0.169088 0.010234
vertex -0.642271 -0.186609 0.011144
vertex -0.659370 -0.189594 0.013931
endloop
endfacet
facet normal -0.164557 0.021919 -0.986124
outer loop
vertex -0.642271 -0.186609 0.011144
vertex -0.653060 -0.204127 0.012555
vertex -0.659370 -0.189594 0.013931
endloop
endfacet
facet normal -0.840627 -0.399607 0.365596
outer loop
vertex -0.653060 -0.204127 0.012555
vertex -0.652608 -0.187853 0.031382
vertex -0.659370 -0.189594 0.013931
endloop
endfacet
facet normal -0.909903 -0.185424 0.371071
outer loop
vertex -0.659370 -0.189594 0.013931
vertex -0.652608 -0.187853 0.031382
vertex -0.655763 -0.173172 0.030982
endloop
endfacet
facet normal -0.955237 -0.084555 0.283499
outer loop
vertex -0.659370 -0.189594 0.013931
vertex -0.655763 -0.173172 0.030982
vertex -0.660805 -0.173756 0.013819
endloop
endfacet
facet normal -0.198668 -0.024930 -0.979750
outer loop
vertex -0.643711 -0.169088 0.010234
vertex -0.659370 -0.189594 0.013931
vertex -0.660805 -0.173756 0.013819
endloop
endfacet
facet normal -0.885359 0.394064 0.246685
outer loop
vertex -0.650134 -0.159821 0.029857
vertex -0.660805 -0.173756 0.013819
vertex -0.655763 -0.173172 0.030982
endloop
endfacet
facet normal -0.892390 0.254419 0.372707
outer loop
vertex -0.650134 -0.159821 0.029857
vertex -0.657496 -0.158639 0.011423
vertex -0.660805 -0.173756 0.013819
endloop
endfacet
facet normal -0.173113 -0.117102 -0.977916
outer loop
vertex -0.657496 -0.158639 0.011423
vertex -0.643711 -0.169088 0.010234
vertex -0.660805 -0.173756 0.013819
endloop
endfacet
facet normal -0.734563 0.592145 0.331332
outer loop
vertex -0.644526 -0.146894 0.019187
vertex -0.657496 -0.158639 0.011423
vertex -0.650134 -0.159821 0.029857
endloop
endfacet
facet normal -0.735211 0.549925 0.396291
outer loop
vertex -0.657496 -0.158639 0.011423
vertex -0.644526 -0.146894 0.019187
vertex -0.649610 -0.145576 0.007926
endloop
endfacet
facet normal -0.154691 -0.167275 -0.973699
outer loop
vertex -0.657496 -0.158639 0.011423
vertex -0.649610 -0.145576 0.007926
vertex -0.637794 -0.153255 0.007368
endloop
endfacet
facet normal -0.170444 -0.113484 -0.978811
outer loop
vertex -0.657496 -0.158639 0.011423
vertex -0.637794 -0.153255 0.007368
vertex -0.643711 -0.169088 0.010234
endloop
endfacet
facet normal -0.135367 -0.136990 -0.981280
outer loop
vertex -0.636654 -0.139081 0.005232
vertex -0.637794 -0.153255 0.007368
vertex -0.649610 -0.145576 0.007926
endloop
endfacet
facet normal 0.089954 -0.155482 -0.983734
outer loop
vertex -0.637794 -0.153255 0.007368
vertex -0.636654 -0.139081 0.005232
vertex -0.621156 -0.141769 0.007074
endloop
endfacet
facet normal -0.015634 -0.002947 -0.999873
outer loop
vertex -0.637794 -0.153255 0.007368
vertex -0.621156 -0.141769 0.007074
vertex -0.624032 -0.156032 0.007161
endloop
endfacet
facet normal -0.047273 -0.160787 -0.985856
outer loop
vertex -0.643711 -0.169088 0.010234
vertex -0.637794 -0.153255 0.007368
vertex -0.624032 -0.156032 0.007161
endloop
endfacet
facet normal 0.112790 -0.028802 -0.993201
outer loop
vertex -0.605666 -0.144456 0.008911
vertex -0.624032 -0.156032 0.007161
vertex -0.621156 -0.141769 0.007074
endloop
endfacet
facet normal 0.119060 -0.038912 -0.992124
outer loop
vertex -0.605666 -0.144456 0.008911
vertex -0.609860 -0.164300 0.009186
vertex -0.624032 -0.156032 0.007161
endloop
endfacet
facet normal -0.066159 -0.133037 -0.988900
outer loop
vertex -0.643711 -0.169088 0.010234
vertex -0.624032 -0.156032 0.007161
vertex -0.625988 -0.170327 0.009215
endloop
endfacet
facet normal 0.054000 -0.149255 -0.987323
outer loop
vertex -0.609860 -0.164300 0.009186
vertex -0.625988 -0.170327 0.009215
vertex -0.624032 -0.156032 0.007161
endloop
endfacet
facet normal 0.124170 -0.051959 -0.990900
outer loop
vertex -0.609860 -0.164300 0.009186
vertex -0.590168 -0.147144 0.010754
vertex -0.592302 -0.165250 0.011436
endloop
endfacet
facet normal 0.111614 -0.037352 -0.993049
outer loop
vertex -0.609860 -0.164300 0.009186
vertex -0.605666 -0.144456 0.008911
vertex -0.590168 -0.147144 0.010754
endloop
endfacet
facet normal 0.120972 -0.102611 -0.987338
outer loop
vertex -0.609720 -0.183841 0.011234
vertex -0.609860 -0.164300 0.009186
vertex -0.592302 -0.165250 0.011436
endloop
endfacet
facet normal 0.037040 -0.103900 -0.993898
outer loop
vertex -0.609720 -0.183841 0.011234
vertex -0.625988 -0.170327 0.009215
vertex -0.609860 -0.164300 0.009186
endloop
endfacet
facet normal 0.126070 -0.107401 -0.986190
outer loop
vertex -0.609720 -0.183841 0.011234
vertex -0.592302 -0.165250 0.011436
vertex -0.593353 -0.183462 0.013285
endloop
endfacet
facet normal 0.124479 -0.006204 -0.992203
outer loop
vertex -0.610021 -0.200917 0.011303
vertex -0.609720 -0.183841 0.011234
vertex -0.593353 -0.183462 0.013285
endloop
endfacet
facet normal 0.056615 -0.005032 -0.998383
outer loop
vertex -0.625652 -0.185716 0.010340
vertex -0.609720 -0.183841 0.011234
vertex -0.610021 -0.200917 0.011303
endloop
endfacet
facet normal 0.064253 -0.071364 -0.995379
outer loop
vertex -0.609720 -0.183841 0.011234
vertex -0.625652 -0.185716 0.010340
vertex -0.625988 -0.170327 0.009215
endloop
endfacet
facet normal 0.125016 -0.006725 -0.992132
outer loop
vertex -0.610021 -0.200917 0.011303
vertex -0.593353 -0.183462 0.013285
vertex -0.594184 -0.199945 0.013292
endloop
endfacet
facet normal 0.125586 -0.016384 -0.991947
outer loop
vertex -0.610868 -0.217338 0.011467
vertex -0.610021 -0.200917 0.011303
vertex -0.594184 -0.199945 0.013292
endloop
endfacet
facet normal 0.063808 -0.018216 -0.997796
outer loop
vertex -0.610021 -0.200917 0.011303
vertex -0.626634 -0.217371 0.010541
vertex -0.625402 -0.201662 0.010333
endloop
endfacet
facet normal 0.058655 -0.012994 -0.998194
outer loop
vertex -0.610021 -0.200917 0.011303
vertex -0.610868 -0.217338 0.011467
vertex -0.626634 -0.217371 0.010541
endloop
endfacet
facet normal 0.062871 0.001423 -0.998021
outer loop
vertex -0.625652 -0.185716 0.010340
vertex -0.610021 -0.200917 0.011303
vertex -0.625402 -0.201662 0.010333
endloop
endfacet
facet normal 0.126939 -0.017704 -0.991753
outer loop
vertex -0.610868 -0.217338 0.011467
vertex -0.594184 -0.199945 0.013292
vertex -0.595237 -0.216235 0.013448
endloop
endfacet
facet normal 0.067704 -0.997481 0.021169
outer loop
vertex -0.609845 -0.216845 0.031424
vertex -0.610868 -0.217338 0.011467
vertex -0.595237 -0.216235 0.013448
endloop
endfacet
facet normal -0.001371 -0.998262 0.058921
outer loop
vertex -0.624641 -0.216216 0.030156
vertex -0.626634 -0.217371 0.010541
vertex -0.610868 -0.217338 0.011467
endloop
endfacet
facet normal -0.044765 -0.998634 0.026964
outer loop
vertex -0.624641 -0.216216 0.030156
vertex -0.610868 -0.217338 0.011467
vertex -0.609845 -0.216845 0.031424
endloop
endfacet
facet normal 0.006296 -0.999565 -0.028805
outer loop
vertex -0.609845 -0.216845 0.031424
vertex -0.595237 -0.216235 0.013448
vertex -0.595062 -0.216795 0.032920
endloop
endfacet
facet normal -0.076899 -0.620243 0.780632
outer loop
vertex -0.601171 -0.205181 0.041546
vertex -0.609845 -0.216845 0.031424
vertex -0.595062 -0.216795 0.032920
endloop
endfacet
facet normal -0.178289 -0.565940 0.804938
outer loop
vertex -0.601171 -0.205181 0.041546
vertex -0.615867 -0.204511 0.038762
vertex -0.609845 -0.216845 0.031424
endloop
endfacet
facet normal -0.094595 -0.542706 0.834579
outer loop
vertex -0.615867 -0.204511 0.038762
vertex -0.624641 -0.216216 0.030156
vertex -0.609845 -0.216845 0.031424
endloop
endfacet
facet normal 0.154900 -0.008229 -0.987896
outer loop
vertex -0.577198 -0.183094 0.015815
vertex -0.594184 -0.199945 0.013292
vertex -0.593353 -0.183462 0.013285
endloop
endfacet
facet normal 0.155311 -0.008654 -0.987828
outer loop
vertex -0.577198 -0.183094 0.015815
vertex -0.578358 -0.198890 0.015771
vertex -0.594184 -0.199945 0.013292
endloop
endfacet
facet normal 0.155996 -0.019541 -0.987564
outer loop
vertex -0.578358 -0.198890 0.015771
vertex -0.595237 -0.216235 0.013448
vertex -0.594184 -0.199945 0.013292
endloop
endfacet
facet normal 0.156236 -0.111557 -0.981400
outer loop
vertex -0.575956 -0.166056 0.014076
vertex -0.577198 -0.183094 0.015815
vertex -0.593353 -0.183462 0.013285
endloop
endfacet
facet normal 0.149025 -0.008190 -0.988800
outer loop
vertex -0.578358 -0.198890 0.015771
vertex -0.577198 -0.183094 0.015815
vertex -0.561135 -0.182866 0.018234
endloop
endfacet
facet normal 0.149529 -0.113100 -0.982267
outer loop
vertex -0.577198 -0.183094 0.015815
vertex -0.559989 -0.167290 0.016615
vertex -0.561135 -0.182866 0.018234
endloop
endfacet
facet normal 0.147693 -0.111074 -0.982776
outer loop
vertex -0.577198 -0.183094 0.015815
vertex -0.575956 -0.166056 0.014076
vertex -0.559989 -0.167290 0.016615
endloop
endfacet
facet normal 0.143680 -0.152693 -0.977773
outer loop
vertex -0.575956 -0.166056 0.014076
vertex -0.559188 -0.152519 0.014426
vertex -0.559989 -0.167290 0.016615
endloop
endfacet
facet normal 0.100246 -0.098574 -0.990068
outer loop
vertex -0.575956 -0.166056 0.014076
vertex -0.574678 -0.149831 0.012590
vertex -0.559188 -0.152519 0.014426
endloop
endfacet
facet normal 0.153280 -0.108565 -0.982201
outer loop
vertex -0.575956 -0.166056 0.014076
vertex -0.593353 -0.183462 0.013285
vertex -0.592302 -0.165250 0.011436
endloop
endfacet
facet normal 0.153698 -0.102121 -0.982827
outer loop
vertex -0.574678 -0.149831 0.012590
vertex -0.575956 -0.166056 0.014076
vertex -0.592302 -0.165250 0.011436
endloop
endfacet
facet normal 0.189461 0.963856 -0.187313
outer loop
vertex -0.574678 -0.149831 0.012590
vertex -0.559762 -0.149763 0.028027
vertex -0.559188 -0.152519 0.014426
endloop
endfacet
facet normal 0.108957 -0.050236 -0.992776
outer loop
vertex -0.574678 -0.149831 0.012590
vertex -0.592302 -0.165250 0.011436
vertex -0.590168 -0.147144 0.010754
endloop
endfacet
facet normal 0.191113 0.959122 -0.208714
outer loop
vertex -0.573970 -0.146875 0.026822
vertex -0.574678 -0.149831 0.012590
vertex -0.590168 -0.147144 0.010754
endloop
endfacet
facet normal 0.211780 0.954743 -0.208840
outer loop
vertex -0.574678 -0.149831 0.012590
vertex -0.573970 -0.146875 0.026822
vertex -0.559762 -0.149763 0.028027
endloop
endfacet
facet normal 0.127789 0.990340 -0.053827
outer loop
vertex -0.548143 -0.150642 0.039439
vertex -0.545361 -0.151571 0.028951
vertex -0.559762 -0.149763 0.028027
endloop
endfacet
facet normal -0.028470 0.994006 0.105551
outer loop
vertex -0.564442 -0.151659 0.044620
vertex -0.548143 -0.150642 0.039439
vertex -0.559762 -0.149763 0.028027
endloop
endfacet
facet normal 0.134344 0.972285 -0.191346
outer loop
vertex -0.545361 -0.151571 0.028951
vertex -0.559188 -0.152519 0.014426
vertex -0.559762 -0.149763 0.028027
endloop
endfacet
facet normal 0.183294 0.969537 0.162482
outer loop
vertex -0.564442 -0.151659 0.044620
vertex -0.559762 -0.149763 0.028027
vertex -0.573970 -0.146875 0.026822
endloop
endfacet
facet normal 0.185706 0.971989 -0.144049
outer loop
vertex -0.630239 -0.137785 0.022247
vertex -0.621156 -0.141769 0.007074
vertex -0.636654 -0.139081 0.005232
endloop
endfacet
facet normal 0.090782 0.975226 -0.201724
outer loop
vertex -0.630239 -0.137785 0.022247
vertex -0.618796 -0.139998 0.016698
vertex -0.621156 -0.141769 0.007074
endloop
endfacet
facet normal 0.192226 0.955678 -0.223001
outer loop
vertex -0.618796 -0.139998 0.016698
vertex -0.605666 -0.144456 0.008911
vertex -0.621156 -0.141769 0.007074
endloop
endfacet
facet normal -0.583778 0.756594 0.294565
outer loop
vertex -0.630239 -0.137785 0.022247
vertex -0.641418 -0.148484 0.027573
vertex -0.629976 -0.138152 0.023711
endloop
endfacet
facet normal -0.555801 0.754490 0.349043
outer loop
vertex -0.630239 -0.137785 0.022247
vertex -0.644526 -0.146894 0.019187
vertex -0.641418 -0.148484 0.027573
endloop
endfacet
facet normal 0.273329 0.943490 0.187397
outer loop
vertex -0.618796 -0.139998 0.016698
vertex -0.630239 -0.137785 0.022247
vertex -0.629976 -0.138152 0.023711
endloop
endfacet
facet normal -0.553910 0.819603 0.146408
outer loop
vertex -0.644526 -0.146894 0.019187
vertex -0.630239 -0.137785 0.022247
vertex -0.636654 -0.139081 0.005232
endloop
endfacet
facet normal 0.011025 0.339373 0.940587
outer loop
vertex -0.641418 -0.148484 0.027573
vertex -0.616849 -0.139324 0.023980
vertex -0.629976 -0.138152 0.023711
endloop
endfacet
facet normal 0.090683 0.989124 -0.115800
outer loop
vertex -0.618796 -0.139998 0.016698
vertex -0.629976 -0.138152 0.023711
vertex -0.616849 -0.139324 0.023980
endloop
endfacet
facet normal -0.384110 0.880908 0.276515
outer loop
vertex -0.644526 -0.146894 0.019187
vertex -0.636654 -0.139081 0.005232
vertex -0.649610 -0.145576 0.007926
endloop
endfacet
facet normal -0.697182 0.611412 0.374316
outer loop
vertex -0.644526 -0.146894 0.019187
vertex -0.650134 -0.159821 0.029857
vertex -0.641418 -0.148484 0.027573
endloop
endfacet
facet normal -0.285497 0.199358 0.937415
outer loop
vertex -0.638074 -0.174821 0.036720
vertex -0.650134 -0.159821 0.029857
vertex -0.655763 -0.173172 0.030982
endloop
endfacet
facet normal -0.278662 0.390962 0.877209
outer loop
vertex -0.641418 -0.148484 0.027573
vertex -0.650134 -0.159821 0.029857
vertex -0.637596 -0.161495 0.034586
endloop
endfacet
facet normal -0.329446 0.160808 0.930380
outer loop
vertex -0.638074 -0.174821 0.036720
vertex -0.637596 -0.161495 0.034586
vertex -0.650134 -0.159821 0.029857
endloop
endfacet
facet normal -0.303457 -0.039276 0.952035
outer loop
vertex -0.635785 -0.189168 0.036690
vertex -0.655763 -0.173172 0.030982
vertex -0.652608 -0.187853 0.031382
endloop
endfacet
facet normal -0.312510 -0.051841 0.948499
outer loop
vertex -0.635785 -0.189168 0.036690
vertex -0.638074 -0.174821 0.036720
vertex -0.655763 -0.173172 0.030982
endloop
endfacet
facet normal -0.852267 -0.385455 0.353646
outer loop
vertex -0.653060 -0.204127 0.012555
vertex -0.646686 -0.201636 0.030631
vertex -0.652608 -0.187853 0.031382
endloop
endfacet
facet normal -0.191022 -0.181778 0.964607
outer loop
vertex -0.605329 -0.190294 0.043528
vertex -0.615867 -0.204511 0.038762
vertex -0.601171 -0.205181 0.041546
endloop
endfacet
facet normal -0.234823 0.134040 0.962752
outer loop
vertex -0.594201 -0.161515 0.044629
vertex -0.607813 -0.175651 0.043277
vertex -0.593821 -0.175710 0.046698
endloop
endfacet
facet normal -0.237528 -0.023648 0.971093
outer loop
vertex -0.605329 -0.190294 0.043528
vertex -0.593821 -0.175710 0.046698
vertex -0.607813 -0.175651 0.043277
endloop
endfacet
facet normal -0.217579 0.116833 0.969025
outer loop
vertex -0.594201 -0.161515 0.044629
vertex -0.608542 -0.161424 0.041398
vertex -0.607813 -0.175651 0.043277
endloop
endfacet
facet normal 0.045424 0.943546 0.328112
outer loop
vertex -0.564442 -0.151659 0.044620
vertex -0.552611 -0.154049 0.049855
vertex -0.548143 -0.150642 0.039439
endloop
endfacet
facet normal -0.320976 0.660004 0.679242
outer loop
vertex -0.556939 -0.162520 0.058719
vertex -0.564442 -0.151659 0.044620
vertex -0.568230 -0.161971 0.052850
endloop
endfacet
facet normal -0.135948 0.748556 0.648985
outer loop
vertex -0.556939 -0.162520 0.058719
vertex -0.552611 -0.154049 0.049855
vertex -0.564442 -0.151659 0.044620
endloop
endfacet
facet normal -0.011969 0.951886 0.306218
outer loop
vertex -0.548143 -0.150642 0.039439
vertex -0.552611 -0.154049 0.049855
vertex -0.541659 -0.155615 0.055151
endloop
endfacet
facet normal -0.194893 0.754873 0.626246
outer loop
vertex -0.556939 -0.162520 0.058719
vertex -0.541659 -0.155615 0.055151
vertex -0.552611 -0.154049 0.049855
endloop
endfacet
facet normal -0.411244 0.383296 0.827020
outer loop
vertex -0.559299 -0.174168 0.062944
vertex -0.556939 -0.162520 0.058719
vertex -0.568230 -0.161971 0.052850
endloop
endfacet
facet normal -0.284543 0.854361 0.434859
outer loop
vertex -0.556939 -0.162520 0.058719
vertex -0.546846 -0.162497 0.065278
vertex -0.541659 -0.155615 0.055151
endloop
endfacet
facet normal -0.503983 0.382923 0.774191
outer loop
vertex -0.546846 -0.162497 0.065278
vertex -0.556939 -0.162520 0.058719
vertex -0.559299 -0.174168 0.062944
endloop
endfacet
facet normal -0.598524 0.203071 0.774939
outer loop
vertex -0.559299 -0.174168 0.062944
vertex -0.568230 -0.161971 0.052850
vertex -0.568986 -0.175083 0.055702
endloop
endfacet
facet normal -0.579612 -0.170552 0.796845
outer loop
vertex -0.556066 -0.187080 0.062532
vertex -0.559299 -0.174168 0.062944
vertex -0.568986 -0.175083 0.055702
endloop
endfacet
facet normal -0.626366 0.559863 0.542421
outer loop
vertex -0.546846 -0.162497 0.065278
vertex -0.559299 -0.174168 0.062944
vertex -0.550755 -0.172697 0.071292
endloop
endfacet
facet normal -0.669090 -0.190459 0.718362
outer loop
vertex -0.556066 -0.187080 0.062532
vertex -0.550755 -0.172697 0.071292
vertex -0.559299 -0.174168 0.062944
endloop
endfacet
facet normal -0.367903 -0.060472 0.927896
outer loop
vertex -0.578339 -0.189839 0.051032
vertex -0.566224 -0.188849 0.055900
vertex -0.568986 -0.175083 0.055702
endloop
endfacet
facet normal -0.532601 -0.094767 0.841044
outer loop
vertex -0.556066 -0.187080 0.062532
vertex -0.568986 -0.175083 0.055702
vertex -0.566224 -0.188849 0.055900
endloop
endfacet
facet normal 0.094868 -0.031188 -0.995001
outer loop
vertex -0.546872 -0.197181 0.019451
vertex -0.548485 -0.211212 0.019737
vertex -0.564213 -0.212698 0.018284
endloop
endfacet
facet normal 0.106907 -0.982524 -0.152374
outer loop
vertex -0.548485 -0.211212 0.019737
vertex -0.565513 -0.215572 0.035904
vertex -0.564213 -0.212698 0.018284
endloop
endfacet
facet normal -0.005604 -0.150535 -0.988589
outer loop
vertex -0.512750 -0.168035 0.016423
vertex -0.528399 -0.168142 0.016528
vertex -0.527816 -0.154655 0.014471
endloop
endfacet
facet normal 0.011112 -0.132089 -0.991176
outer loop
vertex -0.512750 -0.168035 0.016423
vertex -0.527816 -0.154655 0.014471
vertex -0.512201 -0.153709 0.014520
endloop
endfacet
facet normal -0.056256 0.945241 -0.321489
outer loop
vertex -0.516445 -0.149033 0.029011
vertex -0.512201 -0.153709 0.014520
vertex -0.527816 -0.154655 0.014471
endloop
endfacet
facet normal -0.995036 0.025357 -0.096228
outer loop
vertex -0.511655 -0.169209 0.004791
vertex -0.512750 -0.168035 0.016423
vertex -0.512201 -0.153709 0.014520
endloop
endfacet
facet normal -0.979654 0.080801 -0.183709
outer loop
vertex -0.511655 -0.169209 0.004791
vertex -0.512201 -0.153709 0.014520
vertex -0.510252 -0.154832 0.003633
endloop
endfacet
facet normal 0.020199 0.943490 -0.330786
outer loop
vertex -0.501926 -0.148616 0.029674
vertex -0.500029 -0.153213 0.016678
vertex -0.512201 -0.153709 0.014520
endloop
endfacet
facet normal -0.013117 0.950469 -0.310541
outer loop
vertex -0.501926 -0.148616 0.029674
vertex -0.512201 -0.153709 0.014520
vertex -0.516445 -0.149033 0.029011
endloop
endfacet
facet normal -0.021642 0.994086 -0.106416
outer loop
vertex -0.500029 -0.153213 0.016678
vertex -0.510252 -0.154832 0.003633
vertex -0.512201 -0.153709 0.014520
endloop
endfacet
facet normal -0.034652 -0.076878 -0.996438
outer loop
vertex -0.493458 -0.155273 0.003083
vertex -0.511655 -0.169209 0.004791
vertex -0.510252 -0.154832 0.003633
endloop
endfacet
facet normal 0.021422 0.989969 -0.139650
outer loop
vertex -0.500029 -0.153213 0.016678
vertex -0.493458 -0.155273 0.003083
vertex -0.510252 -0.154832 0.003633
endloop
endfacet
facet normal 0.015212 0.989663 -0.142607
outer loop
vertex -0.493458 -0.155273 0.003083
vertex -0.500029 -0.153213 0.016678
vertex -0.487334 -0.153310 0.017359
endloop
endfacet
facet normal 0.024022 0.949603 -0.312533
outer loop
vertex -0.500029 -0.153213 0.016678
vertex -0.487394 -0.149078 0.030213
vertex -0.487334 -0.153310 0.017359
endloop
endfacet
facet normal 0.042161 0.943840 -0.327703
outer loop
vertex -0.500029 -0.153213 0.016678
vertex -0.501926 -0.148616 0.029674
vertex -0.487394 -0.149078 0.030213
endloop
endfacet
facet normal 0.024654 0.988896 -0.146553
outer loop
vertex -0.487334 -0.153310 0.017359
vertex -0.476654 -0.155773 0.002536
vertex -0.493458 -0.155273 0.003083
endloop
endfacet
facet normal 0.033469 0.989542 -0.140307
outer loop
vertex -0.487334 -0.153310 0.017359
vertex -0.473953 -0.153821 0.016947
vertex -0.476654 -0.155773 0.002536
endloop
endfacet
facet normal 0.026640 0.949543 -0.312503
outer loop
vertex -0.473953 -0.153821 0.016947
vertex -0.487334 -0.153310 0.017359
vertex -0.487394 -0.149078 0.030213
endloop
endfacet
facet normal 0.050179 0.955476 -0.290770
outer loop
vertex -0.473953 -0.153821 0.016947
vertex -0.487394 -0.149078 0.030213
vertex -0.472863 -0.149671 0.030772
endloop
endfacet
facet normal 0.043964 0.955893 -0.290405
outer loop
vertex -0.459020 -0.154578 0.016716
vertex -0.473953 -0.153821 0.016947
vertex -0.472863 -0.149671 0.030772
endloop
endfacet
facet normal 0.048479 0.991975 -0.116772
outer loop
vertex -0.473953 -0.153821 0.016947
vertex -0.459020 -0.154578 0.016716
vertex -0.459845 -0.156276 0.001949
endloop
endfacet
facet normal 0.024781 0.990018 -0.138745
outer loop
vertex -0.473953 -0.153821 0.016947
vertex -0.459845 -0.156276 0.001949
vertex -0.476654 -0.155773 0.002536
endloop
endfacet
facet normal -0.037333 -0.074660 -0.996510
outer loop
vertex -0.443033 -0.156781 0.001357
vertex -0.460028 -0.170533 0.003024
vertex -0.459845 -0.156276 0.001949
endloop
endfacet
facet normal -0.037035 -0.074664 -0.996521
outer loop
vertex -0.460028 -0.170533 0.003024
vertex -0.476654 -0.155773 0.002536
vertex -0.459845 -0.156276 0.001949
endloop
endfacet
facet normal 0.025756 0.992960 -0.115617
outer loop
vertex -0.459020 -0.154578 0.016716
vertex -0.443033 -0.156781 0.001357
vertex -0.459845 -0.156276 0.001949
endloop
endfacet
facet normal -0.037366 -0.074618 -0.996512
outer loop
vertex -0.443033 -0.156781 0.001357
vertex -0.446920 -0.170927 0.002562
vertex -0.460028 -0.170533 0.003024
endloop
endfacet
facet normal -0.036796 -0.074776 -0.996521
outer loop
vertex -0.446920 -0.170927 0.002562
vertex -0.443033 -0.156781 0.001357
vertex -0.435758 -0.169583 0.002049
endloop
endfacet
facet normal 0.093929 0.994567 -0.044885
outer loop
vertex -0.459020 -0.154578 0.016716
vertex -0.444016 -0.156004 0.016517
vertex -0.443033 -0.156781 0.001357
endloop
endfacet
facet normal 0.860520 0.508548 0.029733
outer loop
vertex -0.436537 -0.168720 0.017556
vertex -0.443033 -0.156781 0.001357
vertex -0.444016 -0.156004 0.016517
endloop
endfacet
facet normal 0.868934 0.494666 0.016121
outer loop
vertex -0.436537 -0.168720 0.017556
vertex -0.435758 -0.169583 0.002049
vertex -0.443033 -0.156781 0.001357
endloop
endfacet
facet normal 0.089732 0.973500 -0.210347
outer loop
vertex -0.444016 -0.156004 0.016517
vertex -0.459020 -0.154578 0.016716
vertex -0.458450 -0.151478 0.031306
endloop
endfacet
facet normal 0.834233 0.548922 0.052347
outer loop
vertex -0.436867 -0.168442 0.033015
vertex -0.444016 -0.156004 0.016517
vertex -0.444774 -0.156302 0.031722
endloop
endfacet
facet normal 0.861593 0.507514 0.009266
outer loop
vertex -0.436867 -0.168442 0.033015
vertex -0.436537 -0.168720 0.017556
vertex -0.444016 -0.156004 0.016517
endloop
endfacet
facet normal 0.331496 0.942807 0.035003
outer loop
vertex -0.444016 -0.156004 0.016517
vertex -0.458450 -0.151478 0.031306
vertex -0.444774 -0.156302 0.031722
endloop
endfacet
facet normal 0.331647 0.942893 0.031041
outer loop
vertex -0.448463 -0.155476 0.046045
vertex -0.444774 -0.156302 0.031722
vertex -0.458450 -0.151478 0.031306
endloop
endfacet
facet normal 0.755711 0.635563 0.157986
outer loop
vertex -0.444774 -0.156302 0.031722
vertex -0.448463 -0.155476 0.046045
vertex -0.439627 -0.166303 0.047335
endloop
endfacet
facet normal 0.831549 0.549930 0.078128
outer loop
vertex -0.444774 -0.156302 0.031722
vertex -0.439627 -0.166303 0.047335
vertex -0.436867 -0.168442 0.033015
endloop
endfacet
facet normal 0.129291 0.968915 -0.210921
outer loop
vertex -0.459020 -0.154578 0.016716
vertex -0.472863 -0.149671 0.030772
vertex -0.458450 -0.151478 0.031306
endloop
endfacet
facet normal 0.024739 -0.995364 0.092944
outer loop
vertex -0.501557 -0.212057 0.007502
vertex -0.517448 -0.211446 0.018275
vertex -0.515820 -0.212362 0.008032
endloop
endfacet
facet normal -0.121810 -0.984799 -0.123824
outer loop
vertex -0.501557 -0.212057 0.007502
vertex -0.506121 -0.213528 0.023691
vertex -0.517448 -0.211446 0.018275
endloop
endfacet
facet normal -0.035548 -0.069973 -0.996915
outer loop
vertex -0.514439 -0.197976 0.006973
vertex -0.501557 -0.212057 0.007502
vertex -0.515820 -0.212362 0.008032
endloop
endfacet
facet normal -0.035777 -0.070182 -0.996892
outer loop
vertex -0.514439 -0.197976 0.006973
vertex -0.500754 -0.198475 0.006517
vertex -0.501557 -0.212057 0.007502
endloop
endfacet
facet normal -0.036837 -0.074447 -0.996544
outer loop
vertex -0.445679 -0.184097 0.003500
vertex -0.446920 -0.170927 0.002562
vertex -0.435758 -0.169583 0.002049
endloop
endfacet
facet normal -0.037081 -0.073385 -0.996614
outer loop
vertex -0.446798 -0.197737 0.004546
vertex -0.445679 -0.184097 0.003500
vertex -0.433497 -0.184114 0.003048
endloop
endfacet
facet normal -0.037080 -0.074283 -0.996548
outer loop
vertex -0.445679 -0.184097 0.003500
vertex -0.435758 -0.169583 0.002049
vertex -0.433497 -0.184114 0.003048
endloop
endfacet
facet normal -0.034096 -0.072615 -0.996777
outer loop
vertex -0.446798 -0.197737 0.004546
vertex -0.444512 -0.210835 0.005422
vertex -0.458772 -0.211140 0.005932
endloop
endfacet
facet normal -0.036607 -0.073845 -0.996598
outer loop
vertex -0.446798 -0.197737 0.004546
vertex -0.433497 -0.184114 0.003048
vertex -0.436546 -0.198487 0.004225
endloop
endfacet
facet normal -0.036549 -0.073036 -0.996659
outer loop
vertex -0.444512 -0.210835 0.005422
vertex -0.446798 -0.197737 0.004546
vertex -0.436546 -0.198487 0.004225
endloop
endfacet
facet normal 0.024812 -0.994798 0.098801
outer loop
vertex -0.445894 -0.209371 0.020509
vertex -0.458772 -0.211140 0.005932
vertex -0.444512 -0.210835 0.005422
endloop
endfacet
facet normal 0.838992 -0.528833 0.128170
outer loop
vertex -0.436546 -0.198487 0.004225
vertex -0.445894 -0.209371 0.020509
vertex -0.444512 -0.210835 0.005422
endloop
endfacet
facet normal 0.113007 -0.993378 0.020717
outer loop
vertex -0.445894 -0.209371 0.020509
vertex -0.460231 -0.210998 0.020700
vertex -0.458772 -0.211140 0.005932
endloop
endfacet
facet normal -0.071015 -0.945268 -0.318475
outer loop
vertex -0.506121 -0.213528 0.023691
vertex -0.506132 -0.217408 0.035210
vertex -0.521061 -0.216401 0.035550
endloop
endfacet
facet normal 0.053282 -0.971715 0.230068
outer loop
vertex -0.476743 -0.208795 0.066510
vertex -0.491957 -0.213081 0.051931
vertex -0.476949 -0.212398 0.051340
endloop
endfacet
facet normal 0.205118 -0.952870 0.223531
outer loop
vertex -0.476743 -0.208795 0.066510
vertex -0.476949 -0.212398 0.051340
vertex -0.462877 -0.209404 0.051190
endloop
endfacet
facet normal 0.415200 -0.873922 0.252724
outer loop
vertex -0.450021 -0.203203 0.051512
vertex -0.463949 -0.205590 0.066140
vertex -0.462877 -0.209404 0.051190
endloop
endfacet
facet normal 0.241858 -0.935902 0.256108
outer loop
vertex -0.476743 -0.208795 0.066510
vertex -0.462877 -0.209404 0.051190
vertex -0.463949 -0.205590 0.066140
endloop
endfacet
facet normal 0.739558 -0.636916 0.217700
outer loop
vertex -0.450021 -0.203203 0.051512
vertex -0.438895 -0.195960 0.034906
vertex -0.440642 -0.192559 0.050791
endloop
endfacet
facet normal 0.769930 0.635385 0.059114
outer loop
vertex -0.448463 -0.155476 0.046045
vertex -0.442059 -0.164612 0.060835
vertex -0.439627 -0.166303 0.047335
endloop
endfacet
facet normal 0.956618 0.255312 0.140352
outer loop
vertex -0.439096 -0.176649 0.062536
vertex -0.439627 -0.166303 0.047335
vertex -0.442059 -0.164612 0.060835
endloop
endfacet
facet normal 0.103530 -0.978284 0.179561
outer loop
vertex -0.476743 -0.208795 0.066510
vertex -0.489864 -0.209864 0.068251
vertex -0.491957 -0.213081 0.051931
endloop
endfacet
facet normal -0.003272 0.002509 0.999991
outer loop
vertex -0.471124 -0.200114 0.099051
vertex -0.476287 -0.151440 0.098912
vertex -0.483769 -0.205449 0.099023
endloop
endfacet
facet normal 0.044301 -0.004084 0.999010
outer loop
vertex -0.491229 -0.146698 0.099594
vertex -0.483769 -0.205449 0.099023
vertex -0.476287 -0.151440 0.098912
endloop
endfacet
facet normal 0.074251 0.001393 0.997239
outer loop
vertex -0.506547 -0.149607 0.100641
vertex -0.511265 -0.202399 0.101066
vertex -0.483769 -0.205449 0.099023
endloop
endfacet
facet normal 0.068383 -0.001013 0.997659
outer loop
vertex -0.506547 -0.149607 0.100641
vertex -0.483769 -0.205449 0.099023
vertex -0.491229 -0.146698 0.099594
endloop
endfacet
facet normal -0.583266 -0.788039 0.196966
outer loop
vertex -0.514510 -0.203220 0.088172
vertex -0.511265 -0.202399 0.101066
vertex -0.522392 -0.193584 0.103384
endloop
endfacet
facet normal -0.883374 -0.010985 0.468541
outer loop
vertex -0.529272 -0.168222 0.104649
vertex -0.535506 -0.169566 0.092864
vertex -0.535054 -0.183656 0.093386
endloop
endfacet
facet normal 0.301480 0.953206 -0.022556
outer loop
vertex -0.474205 -0.152431 0.084862
vertex -0.491229 -0.146698 0.099594
vertex -0.476287 -0.151440 0.098912
endloop
endfacet
facet normal 0.323251 0.946298 0.005285
outer loop
vertex -0.474205 -0.152431 0.084862
vertex -0.489182 -0.147309 0.083800
vertex -0.491229 -0.146698 0.099594
endloop
endfacet
facet normal 0.309234 0.937413 0.160099
outer loop
vertex -0.489182 -0.147309 0.083800
vertex -0.474205 -0.152431 0.084862
vertex -0.470128 -0.151452 0.071255
endloop
endfacet
facet normal 0.433383 0.901210 0.000654
outer loop
vertex -0.461239 -0.158667 0.085951
vertex -0.474205 -0.152431 0.084862
vertex -0.476287 -0.151440 0.098912
endloop
endfacet
facet normal 0.357262 0.917827 0.173082
outer loop
vertex -0.474205 -0.152431 0.084862
vertex -0.456404 -0.157151 0.073148
vertex -0.470128 -0.151452 0.071255
endloop
endfacet
facet normal 0.401483 0.879433 0.255751
outer loop
vertex -0.474205 -0.152431 0.084862
vertex -0.461239 -0.158667 0.085951
vertex -0.456404 -0.157151 0.073148
endloop
endfacet
facet normal 0.253152 0.965190 0.065744
outer loop
vertex -0.489182 -0.147309 0.083800
vertex -0.470128 -0.151452 0.071255
vertex -0.484656 -0.147483 0.068927
endloop
endfacet
facet normal 0.226215 0.951182 0.209950
outer loop
vertex -0.484656 -0.147483 0.068927
vertex -0.470128 -0.151452 0.071255
vertex -0.465477 -0.149622 0.057953
endloop
endfacet
facet normal 0.342876 0.906960 0.244661
outer loop
vertex -0.456404 -0.157151 0.073148
vertex -0.465477 -0.149622 0.057953
vertex -0.470128 -0.151452 0.071255
endloop
endfacet
facet normal 0.163738 0.981942 0.094764
outer loop
vertex -0.484656 -0.147483 0.068927
vertex -0.465477 -0.149622 0.057953
vertex -0.479765 -0.147016 0.055637
endloop
endfacet
facet normal 0.788020 -0.481361 0.383818
outer loop
vertex -0.449708 -0.181400 0.088150
vertex -0.455427 -0.194747 0.083153
vertex -0.446150 -0.184320 0.077183
endloop
endfacet
facet normal 0.964023 0.173064 0.201761
outer loop
vertex -0.449708 -0.181400 0.088150
vertex -0.454357 -0.167607 0.098532
vertex -0.452228 -0.180076 0.099055
endloop
endfacet
endsolid Exported from Blender-4.0.2
