solid Exported from Blender-4.0.2
facet normal -0.153834 -0.027277 0.987720
outer loop
vertex 0.063984 -0.064205 1.097893
vertex 0.066327 -0.048485 1.098692
vertex 0.059098 -0.050190 1.097519
endloop
endfacet
facet normal -0.153847 -0.027277 0.987718
outer loop
vertex 0.063984 -0.064205 1.097893
vertex 0.059098 -0.050190 1.097519
vertex 0.051869 -0.051895 1.096346
endloop
endfacet
facet normal 0.146289 -0.026581 0.988885
outer loop
vertex 0.078782 -0.062193 1.096481
vertex 0.080733 -0.044386 1.096671
vertex 0.073530 -0.046436 1.097682
endloop
endfacet
facet normal 0.146303 -0.026581 0.988883
outer loop
vertex 0.078782 -0.062193 1.096481
vertex 0.073530 -0.046436 1.097682
vertex 0.066327 -0.048485 1.098692
endloop
endfacet
facet normal 0.103672 -0.065896 0.992426
outer loop
vertex 0.078782 -0.062193 1.096481
vertex 0.066327 -0.048485 1.098692
vertex 0.063984 -0.064205 1.097893
endloop
endfacet
facet normal 0.118596 -0.187944 0.974993
outer loop
vertex 0.061549 -0.079437 1.095253
vertex 0.078782 -0.062193 1.096481
vertex 0.063984 -0.064205 1.097893
endloop
endfacet
facet normal 0.366290 -0.050047 0.929154
outer loop
vertex 0.078782 -0.062193 1.096481
vertex 0.094078 -0.039431 1.091676
vertex 0.087406 -0.041909 1.094173
endloop
endfacet
facet normal 0.366388 -0.050054 0.929115
outer loop
vertex 0.078782 -0.062193 1.096481
vertex 0.087406 -0.041909 1.094173
vertex 0.080733 -0.044386 1.096671
endloop
endfacet
facet normal 0.340628 -0.181217 0.922569
outer loop
vertex 0.076540 -0.078437 1.094118
vertex 0.093009 -0.060758 1.091510
vertex 0.078782 -0.062193 1.096481
endloop
endfacet
facet normal 0.331916 -0.023974 0.943004
outer loop
vertex 0.078782 -0.062193 1.096481
vertex 0.093009 -0.060758 1.091510
vertex 0.094078 -0.039431 1.091676
endloop
endfacet
facet normal 0.084848 -0.154892 0.984281
outer loop
vertex 0.061549 -0.079437 1.095253
vertex 0.076540 -0.078437 1.094118
vertex 0.078782 -0.062193 1.096481
endloop
endfacet
facet normal 0.435437 -0.028827 0.899758
outer loop
vertex 0.106432 -0.046778 1.085462
vertex 0.094078 -0.039431 1.091676
vertex 0.093009 -0.060758 1.091510
endloop
endfacet
facet normal 0.461215 0.025400 0.886925
outer loop
vertex 0.094078 -0.039431 1.091676
vertex 0.106432 -0.046778 1.085462
vertex 0.099728 -0.035480 1.088625
endloop
endfacet
facet normal 0.461229 0.025391 0.886918
outer loop
vertex 0.106432 -0.046778 1.085462
vertex 0.105377 -0.031529 1.085574
vertex 0.099728 -0.035480 1.088625
endloop
endfacet
facet normal 0.620899 -0.040465 0.782845
outer loop
vertex 0.122549 -0.025215 1.072281
vertex 0.112683 -0.021344 1.080306
vertex 0.109030 -0.026437 1.082940
endloop
endfacet
facet normal 0.620898 -0.040485 0.782845
outer loop
vertex 0.122549 -0.025215 1.072281
vertex 0.109030 -0.026437 1.082940
vertex 0.105377 -0.031529 1.085574
endloop
endfacet
facet normal 0.596278 0.063197 0.800286
outer loop
vertex 0.122549 -0.025215 1.072281
vertex 0.105377 -0.031529 1.085574
vertex 0.119107 -0.041037 1.076095
endloop
endfacet
facet normal 0.583851 0.034432 0.811130
outer loop
vertex 0.119107 -0.041037 1.076095
vertex 0.105377 -0.031529 1.085574
vertex 0.106432 -0.046778 1.085462
endloop
endfacet
facet normal 0.611591 -0.063561 0.788617
outer loop
vertex 0.119060 -0.060125 1.074593
vertex 0.119107 -0.041037 1.076095
vertex 0.106432 -0.046778 1.085462
endloop
endfacet
facet normal 0.742101 0.000133 0.670288
outer loop
vertex 0.132444 -0.027195 1.061326
vertex 0.122549 -0.025215 1.072281
vertex 0.119107 -0.041037 1.076095
endloop
endfacet
facet normal 0.739724 0.005222 0.672891
outer loop
vertex 0.132444 -0.027195 1.061326
vertex 0.119107 -0.041037 1.076095
vertex 0.131254 -0.043021 1.062757
endloop
endfacet
facet normal 0.730791 -0.081738 0.677690
outer loop
vertex 0.119107 -0.041037 1.076095
vertex 0.129977 -0.059869 1.062102
vertex 0.131254 -0.043021 1.062757
endloop
endfacet
facet normal 0.752416 -0.053513 0.656511
outer loop
vertex 0.119107 -0.041037 1.076095
vertex 0.119060 -0.060125 1.074593
vertex 0.129977 -0.059869 1.062102
endloop
endfacet
facet normal 0.610415 -0.065287 0.789387
outer loop
vertex 0.119060 -0.060125 1.074593
vertex 0.106432 -0.046778 1.085462
vertex 0.106309 -0.062015 1.084297
endloop
endfacet
facet normal 0.742893 -0.176687 0.645672
outer loop
vertex 0.119060 -0.060125 1.074593
vertex 0.127833 -0.076101 1.060127
vertex 0.129977 -0.059869 1.062102
endloop
endfacet
facet normal 0.612325 -0.186681 0.768250
outer loop
vertex 0.117171 -0.076535 1.072111
vertex 0.119060 -0.060125 1.074593
vertex 0.106309 -0.062015 1.084297
endloop
endfacet
facet normal 0.737763 -0.183192 0.649728
outer loop
vertex 0.119060 -0.060125 1.074593
vertex 0.117171 -0.076535 1.072111
vertex 0.127833 -0.076101 1.060127
endloop
endfacet
facet normal 0.706537 -0.273727 0.652593
outer loop
vertex 0.117171 -0.076535 1.072111
vertex 0.114258 -0.091886 1.068826
vertex 0.124948 -0.091643 1.057354
endloop
endfacet
facet normal 0.728030 -0.249096 0.638689
outer loop
vertex 0.117171 -0.076535 1.072111
vertex 0.124948 -0.091643 1.057354
vertex 0.127833 -0.076101 1.060127
endloop
endfacet
facet normal 0.592215 -0.274498 0.757584
outer loop
vertex 0.114258 -0.091886 1.068826
vertex 0.117171 -0.076535 1.072111
vertex 0.104629 -0.076994 1.081749
endloop
endfacet
facet normal 0.601708 -0.199060 0.773513
outer loop
vertex 0.117171 -0.076535 1.072111
vertex 0.106309 -0.062015 1.084297
vertex 0.104629 -0.076994 1.081749
endloop
endfacet
facet normal 0.458653 -0.295444 0.838063
outer loop
vertex 0.088262 -0.092600 1.085205
vertex 0.104629 -0.076994 1.081749
vertex 0.091008 -0.077416 1.089055
endloop
endfacet
facet normal 0.469044 -0.183663 0.863867
outer loop
vertex 0.093009 -0.060758 1.091510
vertex 0.091008 -0.077416 1.089055
vertex 0.104629 -0.076994 1.081749
endloop
endfacet
facet normal 0.452663 -0.198635 0.869276
outer loop
vertex 0.093009 -0.060758 1.091510
vertex 0.104629 -0.076994 1.081749
vertex 0.106309 -0.062015 1.084297
endloop
endfacet
facet normal 0.457955 -0.294520 0.838770
outer loop
vertex 0.088262 -0.092600 1.085205
vertex 0.101777 -0.091587 1.078182
vertex 0.104629 -0.076994 1.081749
endloop
endfacet
facet normal 0.567876 -0.298484 0.767088
outer loop
vertex 0.114258 -0.091886 1.068826
vertex 0.104629 -0.076994 1.081749
vertex 0.101777 -0.091587 1.078182
endloop
endfacet
facet normal 0.453109 -0.344339 0.822267
outer loop
vertex 0.101777 -0.091587 1.078182
vertex 0.088262 -0.092600 1.085205
vertex 0.085141 -0.107080 1.080861
endloop
endfacet
facet normal 0.454007 -0.345501 0.821284
outer loop
vertex 0.101777 -0.091587 1.078182
vertex 0.085141 -0.107080 1.080861
vertex 0.098307 -0.105907 1.074076
endloop
endfacet
facet normal 0.556297 -0.350794 0.753311
outer loop
vertex 0.098307 -0.105907 1.074076
vertex 0.114258 -0.091886 1.068826
vertex 0.101777 -0.091587 1.078182
endloop
endfacet
facet normal 0.453074 -0.354750 0.817849
outer loop
vertex 0.081882 -0.121257 1.076517
vertex 0.098307 -0.105907 1.074076
vertex 0.085141 -0.107080 1.080861
endloop
endfacet
facet normal 0.548616 -0.337768 0.764809
outer loop
vertex 0.098307 -0.105907 1.074076
vertex 0.110643 -0.106593 1.064924
vertex 0.114258 -0.091886 1.068826
endloop
endfacet
facet normal 0.540273 -0.369659 0.755948
outer loop
vertex 0.094603 -0.120106 1.069780
vertex 0.110643 -0.106593 1.064924
vertex 0.098307 -0.105907 1.074076
endloop
endfacet
facet normal 0.461301 -0.365013 0.808682
outer loop
vertex 0.081882 -0.121257 1.076517
vertex 0.094603 -0.120106 1.069780
vertex 0.098307 -0.105907 1.074076
endloop
endfacet
facet normal 0.539026 -0.367464 0.757906
outer loop
vertex 0.094603 -0.120106 1.069780
vertex 0.106749 -0.120945 1.060735
vertex 0.110643 -0.106593 1.064924
endloop
endfacet
facet normal 0.540111 -0.363549 0.759020
outer loop
vertex 0.106749 -0.120945 1.060735
vertex 0.094603 -0.120106 1.069780
vertex 0.090976 -0.134347 1.065540
endloop
endfacet
facet normal 0.484386 -0.360673 0.797048
outer loop
vertex 0.094603 -0.120106 1.069780
vertex 0.078734 -0.135378 1.072513
vertex 0.090976 -0.134347 1.065540
endloop
endfacet
facet normal 0.464370 -0.335885 0.819476
outer loop
vertex 0.094603 -0.120106 1.069780
vertex 0.081882 -0.121257 1.076517
vertex 0.078734 -0.135378 1.072513
endloop
endfacet
facet normal 0.342739 -0.326206 0.880976
outer loop
vertex 0.081882 -0.121257 1.076517
vertex 0.065496 -0.136202 1.077358
vertex 0.078734 -0.135378 1.072513
endloop
endfacet
facet normal 0.344933 -0.287364 0.893556
outer loop
vertex 0.065496 -0.136202 1.077358
vertex 0.075851 -0.149927 1.068947
vertex 0.078734 -0.135378 1.072513
endloop
endfacet
facet normal 0.487561 -0.334344 0.806535
outer loop
vertex 0.078734 -0.135378 1.072513
vertex 0.083671 -0.149287 1.063763
vertex 0.090976 -0.134347 1.065540
endloop
endfacet
facet normal 0.544055 -0.299881 0.783630
outer loop
vertex 0.078734 -0.135378 1.072513
vertex 0.075851 -0.149927 1.068947
vertex 0.083671 -0.149287 1.063763
endloop
endfacet
facet normal 0.516458 -0.460065 0.722227
outer loop
vertex 0.075851 -0.149927 1.068947
vertex 0.079398 -0.157600 1.061523
vertex 0.083671 -0.149287 1.063763
endloop
endfacet
facet normal 0.367134 -0.553568 0.747513
outer loop
vertex 0.075851 -0.149927 1.068947
vertex 0.060020 -0.162833 1.067165
vertex 0.079398 -0.157600 1.061523
endloop
endfacet
facet normal 0.337435 -0.522077 0.783309
outer loop
vertex 0.062979 -0.150629 1.074024
vertex 0.060020 -0.162833 1.067165
vertex 0.075851 -0.149927 1.068947
endloop
endfacet
facet normal 0.366003 -0.269690 0.890679
outer loop
vertex 0.065496 -0.136202 1.077358
vertex 0.062979 -0.150629 1.074024
vertex 0.075851 -0.149927 1.068947
endloop
endfacet
facet normal -0.159483 0.033495 0.986632
outer loop
vertex 0.039914 -0.165561 1.070803
vertex 0.062979 -0.150629 1.074024
vertex 0.044250 -0.150077 1.070978
endloop
endfacet
facet normal -0.163041 -0.195060 0.967145
outer loop
vertex 0.044250 -0.150077 1.070978
vertex 0.062979 -0.150629 1.074024
vertex 0.065496 -0.136202 1.077358
endloop
endfacet
facet normal 0.219837 -0.517943 0.826684
outer loop
vertex 0.062979 -0.150629 1.074024
vertex 0.039914 -0.165561 1.070803
vertex 0.060020 -0.162833 1.067165
endloop
endfacet
facet normal -0.249571 0.058952 0.966560
outer loop
vertex 0.039914 -0.165561 1.070803
vertex 0.044250 -0.150077 1.070978
vertex 0.021268 -0.165821 1.066004
endloop
endfacet
facet normal -0.237537 -0.256636 0.936864
outer loop
vertex 0.035024 -0.180024 1.065601
vertex 0.039914 -0.165561 1.070803
vertex 0.021268 -0.165821 1.066004
endloop
endfacet
facet normal 0.202040 -0.215052 0.955475
outer loop
vertex 0.051212 -0.178815 1.065430
vertex 0.060020 -0.162833 1.067165
vertex 0.039914 -0.165561 1.070803
endloop
endfacet
facet normal 0.035945 -0.348943 0.936454
outer loop
vertex 0.051212 -0.178815 1.065430
vertex 0.039914 -0.165561 1.070803
vertex 0.035024 -0.180024 1.065601
endloop
endfacet
facet normal 0.426004 -0.375241 0.823234
outer loop
vertex 0.051212 -0.178815 1.065430
vertex 0.061617 -0.192289 1.053904
vertex 0.064981 -0.177834 1.058752
endloop
endfacet
facet normal 0.431006 -0.328736 0.840337
outer loop
vertex 0.060020 -0.162833 1.067165
vertex 0.051212 -0.178815 1.065430
vertex 0.064981 -0.177834 1.058752
endloop
endfacet
facet normal 0.418087 -0.382145 0.824117
outer loop
vertex 0.051212 -0.178815 1.065430
vertex 0.048410 -0.193563 1.060013
vertex 0.061617 -0.192289 1.053904
endloop
endfacet
facet normal 0.036050 -0.350595 0.935833
outer loop
vertex 0.048410 -0.193563 1.060013
vertex 0.051212 -0.178815 1.065430
vertex 0.035024 -0.180024 1.065601
endloop
endfacet
facet normal 0.413636 -0.423644 0.805873
outer loop
vertex 0.048410 -0.193563 1.060013
vertex 0.057789 -0.206489 1.048404
vertex 0.061617 -0.192289 1.053904
endloop
endfacet
facet normal 0.146192 -0.337912 0.929755
outer loop
vertex 0.045509 -0.207398 1.055441
vertex 0.048410 -0.193563 1.060013
vertex 0.033171 -0.193955 1.062267
endloop
endfacet
facet normal 0.147964 -0.248764 0.957196
outer loop
vertex 0.048410 -0.193563 1.060013
vertex 0.035024 -0.180024 1.065601
vertex 0.033171 -0.193955 1.062267
endloop
endfacet
facet normal 0.483182 -0.364394 0.796086
outer loop
vertex 0.048410 -0.193563 1.060013
vertex 0.045509 -0.207398 1.055441
vertex 0.057789 -0.206489 1.048404
endloop
endfacet
facet normal 0.449465 -0.535194 0.715226
outer loop
vertex 0.045509 -0.207398 1.055441
vertex 0.052853 -0.219937 1.041443
vertex 0.057789 -0.206489 1.048404
endloop
endfacet
facet normal 0.165201 -0.454077 0.875513
outer loop
vertex 0.041341 -0.220730 1.049313
vertex 0.045509 -0.207398 1.055441
vertex 0.030695 -0.206899 1.058495
endloop
endfacet
facet normal 0.182219 -0.307050 0.934086
outer loop
vertex 0.045509 -0.207398 1.055441
vertex 0.033171 -0.193955 1.062267
vertex 0.030695 -0.206899 1.058495
endloop
endfacet
facet normal 0.515888 -0.485654 0.705691
outer loop
vertex 0.045509 -0.207398 1.055441
vertex 0.041341 -0.220730 1.049313
vertex 0.052853 -0.219937 1.041443
endloop
endfacet
facet normal 0.429044 -0.712018 0.555834
outer loop
vertex 0.034937 -0.231442 1.040534
vertex 0.052853 -0.219937 1.041443
vertex 0.041341 -0.220730 1.049313
endloop
endfacet
facet normal 0.127162 -0.681283 0.720891
outer loop
vertex 0.021495 -0.228784 1.045202
vertex 0.041341 -0.220730 1.049313
vertex 0.027259 -0.219442 1.053014
endloop
endfacet
facet normal 0.191137 -0.436530 0.879152
outer loop
vertex 0.041341 -0.220730 1.049313
vertex 0.030695 -0.206899 1.058495
vertex 0.027259 -0.219442 1.053014
endloop
endfacet
facet normal 0.121078 -0.671506 0.731041
outer loop
vertex 0.021495 -0.228784 1.045202
vertex 0.034937 -0.231442 1.040534
vertex 0.041341 -0.220730 1.049313
endloop
endfacet
facet normal -0.014459 -0.886239 0.463003
outer loop
vertex 0.034937 -0.231442 1.040534
vertex 0.021495 -0.228784 1.045202
vertex 0.014057 -0.234142 1.034714
endloop
endfacet
facet normal -0.264203 -0.517546 0.813845
outer loop
vertex 0.009861 -0.218876 1.047726
vertex 0.021495 -0.228784 1.045202
vertex 0.027259 -0.219442 1.053014
endloop
endfacet
facet normal -0.396763 -0.634787 0.663042
outer loop
vertex 0.001061 -0.226546 1.035117
vertex 0.021495 -0.228784 1.045202
vertex 0.009861 -0.218876 1.047726
endloop
endfacet
facet normal -0.381294 -0.685274 0.620495
outer loop
vertex 0.001061 -0.226546 1.035117
vertex 0.014057 -0.234142 1.034714
vertex 0.021495 -0.228784 1.045202
endloop
endfacet
facet normal -0.020962 -0.876101 0.481671
outer loop
vertex 0.034937 -0.231442 1.040534
vertex 0.014057 -0.234142 1.034714
vertex 0.027195 -0.237372 1.029411
endloop
endfacet
facet normal 0.278804 -0.914419 0.293439
outer loop
vertex 0.045735 -0.231048 1.031502
vertex 0.034937 -0.231442 1.040534
vertex 0.027195 -0.237372 1.029411
endloop
endfacet
facet normal 0.282020 -0.918467 0.277277
outer loop
vertex 0.045735 -0.231048 1.031502
vertex 0.027195 -0.237372 1.029411
vertex 0.038242 -0.236582 1.020792
endloop
endfacet
facet normal -0.577999 -0.474171 0.664138
outer loop
vertex 0.009861 -0.218876 1.047726
vertex -0.004552 -0.209561 1.041833
vertex -0.009967 -0.216485 1.032177
endloop
endfacet
facet normal -0.757000 -0.249925 0.603729
outer loop
vertex -0.017982 -0.205093 1.026843
vertex -0.009967 -0.216485 1.032177
vertex -0.004552 -0.209561 1.041833
endloop
endfacet
facet normal -0.585562 -0.443573 0.678499
outer loop
vertex 0.009861 -0.218876 1.047726
vertex -0.009967 -0.216485 1.032177
vertex 0.001061 -0.226546 1.035117
endloop
endfacet
facet normal -0.752373 -0.060909 0.655915
outer loop
vertex 0.001263 -0.196135 1.049750
vertex -0.017982 -0.205093 1.026843
vertex -0.004552 -0.209561 1.041833
endloop
endfacet
facet normal -0.657127 -0.326091 0.679594
outer loop
vertex 0.001263 -0.196135 1.049750
vertex -0.013457 -0.193798 1.036638
vertex -0.017982 -0.205093 1.026843
endloop
endfacet
facet normal -0.909973 0.004985 0.414638
outer loop
vertex -0.013457 -0.193798 1.036638
vertex -0.021520 -0.193583 1.018940
vertex -0.017982 -0.205093 1.026843
endloop
endfacet
facet normal -0.648892 -0.121514 0.751115
outer loop
vertex 0.002356 -0.180545 1.052443
vertex -0.012114 -0.180028 1.040026
vertex -0.013457 -0.193798 1.036638
endloop
endfacet
facet normal -0.670077 -0.080492 0.737914
outer loop
vertex 0.002356 -0.180545 1.052443
vertex -0.013457 -0.193798 1.036638
vertex 0.001263 -0.196135 1.049750
endloop
endfacet
facet normal -0.931832 0.001599 0.362888
outer loop
vertex -0.013457 -0.193798 1.036638
vertex -0.012114 -0.180028 1.040026
vertex -0.019040 -0.179307 1.022238
endloop
endfacet
facet normal -0.907977 0.061992 0.414410
outer loop
vertex -0.013457 -0.193798 1.036638
vertex -0.019040 -0.179307 1.022238
vertex -0.021520 -0.193583 1.018940
endloop
endfacet
facet normal -0.971579 0.013032 0.236358
outer loop
vertex -0.021252 -0.162150 1.012200
vertex -0.019040 -0.179307 1.022238
vertex -0.017754 -0.166287 1.026805
endloop
endfacet
facet normal -0.931767 -0.034752 0.361390
outer loop
vertex -0.012114 -0.180028 1.040026
vertex -0.017754 -0.166287 1.026805
vertex -0.019040 -0.179307 1.022238
endloop
endfacet
facet normal -0.939982 0.194665 0.280249
outer loop
vertex -0.012326 -0.152835 1.035667
vertex -0.021252 -0.162150 1.012200
vertex -0.017754 -0.166287 1.026805
endloop
endfacet
facet normal -0.936974 0.225555 0.266842
outer loop
vertex -0.012326 -0.152835 1.035667
vertex -0.012657 -0.143433 1.026560
vertex -0.021252 -0.162150 1.012200
endloop
endfacet
facet normal -0.937133 0.227003 0.265049
outer loop
vertex -0.021252 -0.162150 1.012200
vertex -0.012657 -0.143433 1.026560
vertex -0.014663 -0.140096 1.016609
endloop
endfacet
facet normal -0.854749 0.217539 0.471255
outer loop
vertex -0.014663 -0.140096 1.016609
vertex 0.001969 -0.130285 1.042245
vertex -0.003829 -0.126004 1.029754
endloop
endfacet
facet normal -0.801624 0.499144 0.329019
outer loop
vertex -0.014663 -0.140096 1.016609
vertex -0.012657 -0.143433 1.026560
vertex 0.001969 -0.130285 1.042245
endloop
endfacet
facet normal -0.876212 0.009905 0.481823
outer loop
vertex 0.001969 -0.130285 1.042245
vertex 0.004759 -0.116517 1.047037
vertex -0.002527 -0.111745 1.033689
endloop
endfacet
facet normal -0.910603 -0.030590 0.412149
outer loop
vertex 0.001969 -0.130285 1.042245
vertex -0.002527 -0.111745 1.033689
vertex -0.003829 -0.126004 1.029754
endloop
endfacet
facet normal -0.865809 0.001344 0.500374
outer loop
vertex 0.004759 -0.116517 1.047037
vertex 0.001969 -0.130285 1.042245
vertex 0.009767 -0.135275 1.055753
endloop
endfacet
facet normal -0.801422 0.235611 0.549737
outer loop
vertex -0.012657 -0.143433 1.026560
vertex 0.009767 -0.135275 1.055753
vertex 0.001969 -0.130285 1.042245
endloop
endfacet
facet normal -0.655023 0.292085 0.696873
outer loop
vertex 0.005309 -0.147306 1.056605
vertex 0.021989 -0.136086 1.067581
vertex 0.009767 -0.135275 1.055753
endloop
endfacet
facet normal -0.696252 -0.057477 0.715492
outer loop
vertex 0.021989 -0.136086 1.067581
vertex 0.012596 -0.121207 1.059636
vertex 0.009767 -0.135275 1.055753
endloop
endfacet
facet normal -0.764198 0.322731 0.558433
outer loop
vertex 0.005309 -0.147306 1.056605
vertex 0.009767 -0.135275 1.055753
vertex -0.012326 -0.152835 1.035667
endloop
endfacet
facet normal -0.770137 0.429639 0.471486
outer loop
vertex -0.012657 -0.143433 1.026560
vertex -0.012326 -0.152835 1.035667
vertex 0.009767 -0.135275 1.055753
endloop
endfacet
facet normal -0.845130 0.022535 0.534086
outer loop
vertex 0.004759 -0.116517 1.047037
vertex 0.009767 -0.135275 1.055753
vertex 0.012596 -0.121207 1.059636
endloop
endfacet
facet normal -0.836631 0.063555 0.544068
outer loop
vertex 0.016444 -0.107517 1.063954
vertex 0.004759 -0.116517 1.047037
vertex 0.012596 -0.121207 1.059636
endloop
endfacet
facet normal -0.697311 -0.029880 0.716146
outer loop
vertex 0.024440 -0.122035 1.071134
vertex 0.016444 -0.107517 1.063954
vertex 0.012596 -0.121207 1.059636
endloop
endfacet
facet normal -0.697451 -0.058931 0.714206
outer loop
vertex 0.021989 -0.136086 1.067581
vertex 0.024440 -0.122035 1.071134
vertex 0.012596 -0.121207 1.059636
endloop
endfacet
facet normal -0.475358 -0.144510 0.867843
outer loop
vertex 0.041438 -0.108496 1.082699
vertex 0.027487 -0.108078 1.075127
vertex 0.024440 -0.122035 1.071134
endloop
endfacet
facet normal -0.711638 -0.045218 0.701089
outer loop
vertex 0.024440 -0.122035 1.071134
vertex 0.027487 -0.108078 1.075127
vertex 0.016444 -0.107517 1.063954
endloop
endfacet
facet normal -0.436024 -0.148383 0.887618
outer loop
vertex 0.021989 -0.136086 1.067581
vertex 0.038865 -0.122370 1.078164
vertex 0.024440 -0.122035 1.071134
endloop
endfacet
facet normal -0.432511 -0.206656 0.877626
outer loop
vertex 0.041438 -0.108496 1.082699
vertex 0.024440 -0.122035 1.071134
vertex 0.038865 -0.122370 1.078164
endloop
endfacet
facet normal -0.407716 -0.187817 0.893584
outer loop
vertex 0.021989 -0.136086 1.067581
vertex 0.036717 -0.136200 1.074277
vertex 0.038865 -0.122370 1.078164
endloop
endfacet
facet normal -0.226265 -0.230822 0.946322
outer loop
vertex 0.036717 -0.136200 1.074277
vertex 0.053695 -0.122480 1.081683
vertex 0.038865 -0.122370 1.078164
endloop
endfacet
facet normal -0.229963 -0.263572 0.936828
outer loop
vertex 0.056346 -0.108568 1.086338
vertex 0.041438 -0.108496 1.082699
vertex 0.038865 -0.122370 1.078164
endloop
endfacet
facet normal -0.224175 -0.270553 0.936241
outer loop
vertex 0.056346 -0.108568 1.086338
vertex 0.038865 -0.122370 1.078164
vertex 0.053695 -0.122480 1.081683
endloop
endfacet
facet normal -0.215796 -0.243405 0.945614
outer loop
vertex 0.036717 -0.136200 1.074277
vertex 0.051417 -0.136288 1.077609
vertex 0.053695 -0.122480 1.081683
endloop
endfacet
facet normal 0.030198 -0.287442 0.957322
outer loop
vertex 0.051417 -0.136288 1.077609
vertex 0.068252 -0.122190 1.081311
vertex 0.053695 -0.122480 1.081683
endloop
endfacet
facet normal 0.051094 -0.325636 0.944113
outer loop
vertex 0.053695 -0.122480 1.081683
vertex 0.071142 -0.108019 1.085727
vertex 0.056346 -0.108568 1.086338
endloop
endfacet
facet normal 0.030371 -0.303015 0.952502
outer loop
vertex 0.053695 -0.122480 1.081683
vertex 0.068252 -0.122190 1.081311
vertex 0.071142 -0.108019 1.085727
endloop
endfacet
facet normal 0.328948 -0.341453 0.880456
outer loop
vertex 0.068252 -0.122190 1.081311
vertex 0.085141 -0.107080 1.080861
vertex 0.071142 -0.108019 1.085727
endloop
endfacet
facet normal 0.332335 -0.345325 0.877670
outer loop
vertex 0.068252 -0.122190 1.081311
vertex 0.081882 -0.121257 1.076517
vertex 0.085141 -0.107080 1.080861
endloop
endfacet
facet normal 0.018802 -0.274894 0.961291
outer loop
vertex 0.051417 -0.136288 1.077609
vertex 0.065496 -0.136202 1.077358
vertex 0.068252 -0.122190 1.081311
endloop
endfacet
facet normal 0.333968 -0.316195 0.887967
outer loop
vertex 0.081882 -0.121257 1.076517
vertex 0.068252 -0.122190 1.081311
vertex 0.065496 -0.136202 1.077358
endloop
endfacet
facet normal 0.329280 -0.335732 0.882530
outer loop
vertex 0.088262 -0.092600 1.085205
vertex 0.071142 -0.108019 1.085727
vertex 0.085141 -0.107080 1.080861
endloop
endfacet
facet normal 0.050571 -0.303414 0.951516
outer loop
vertex 0.056346 -0.108568 1.086338
vertex 0.071142 -0.108019 1.085727
vertex 0.073965 -0.093565 1.090186
endloop
endfacet
facet normal 0.329983 -0.336533 0.881962
outer loop
vertex 0.088262 -0.092600 1.085205
vertex 0.073965 -0.093565 1.090186
vertex 0.071142 -0.108019 1.085727
endloop
endfacet
facet normal 0.332350 -0.287837 0.898161
outer loop
vertex 0.073965 -0.093565 1.090186
vertex 0.088262 -0.092600 1.085205
vertex 0.091008 -0.077416 1.089055
endloop
endfacet
facet normal 0.334287 -0.289978 0.896752
outer loop
vertex 0.073965 -0.093565 1.090186
vertex 0.091008 -0.077416 1.089055
vertex 0.076540 -0.078437 1.094118
endloop
endfacet
facet normal 0.071374 -0.325632 0.942799
outer loop
vertex 0.056346 -0.108568 1.086338
vertex 0.073965 -0.093565 1.090186
vertex 0.059006 -0.094166 1.091111
endloop
endfacet
facet normal 0.070020 -0.262091 0.962500
outer loop
vertex 0.059006 -0.094166 1.091111
vertex 0.073965 -0.093565 1.090186
vertex 0.076540 -0.078437 1.094118
endloop
endfacet
facet normal 0.091226 -0.284150 0.954430
outer loop
vertex 0.059006 -0.094166 1.091111
vertex 0.076540 -0.078437 1.094118
vertex 0.061549 -0.079437 1.095253
endloop
endfacet
facet normal -0.235046 -0.225311 0.945510
outer loop
vertex 0.044249 -0.094457 1.087373
vertex 0.059006 -0.094166 1.091111
vertex 0.061549 -0.079437 1.095253
endloop
endfacet
facet normal -0.231835 -0.265179 0.935913
outer loop
vertex 0.059006 -0.094166 1.091111
vertex 0.044249 -0.094457 1.087373
vertex 0.041438 -0.108496 1.082699
endloop
endfacet
facet normal -0.229703 -0.267678 0.935727
outer loop
vertex 0.059006 -0.094166 1.091111
vertex 0.041438 -0.108496 1.082699
vertex 0.056346 -0.108568 1.086338
endloop
endfacet
facet normal -0.523894 -0.114164 0.844098
outer loop
vertex 0.027487 -0.108078 1.075127
vertex 0.044249 -0.094457 1.087373
vertex 0.030748 -0.094111 1.079040
endloop
endfacet
facet normal -0.524707 -0.091847 0.846313
outer loop
vertex 0.033802 -0.080156 1.082448
vertex 0.030748 -0.094111 1.079040
vertex 0.044249 -0.094457 1.087373
endloop
endfacet
facet normal -0.472615 -0.191750 0.860155
outer loop
vertex 0.027487 -0.108078 1.075127
vertex 0.041438 -0.108496 1.082699
vertex 0.044249 -0.094457 1.087373
endloop
endfacet
facet normal -0.226864 -0.234620 0.945244
outer loop
vertex 0.044249 -0.094457 1.087373
vertex 0.061549 -0.079437 1.095253
vertex 0.046866 -0.080135 1.091556
endloop
endfacet
facet normal -0.566610 -0.133921 0.813030
outer loop
vertex 0.033802 -0.080156 1.082448
vertex 0.044249 -0.094457 1.087373
vertex 0.046866 -0.080135 1.091556
endloop
endfacet
facet normal -0.571003 -0.054598 0.819131
outer loop
vertex 0.046866 -0.080135 1.091556
vertex 0.036212 -0.066412 1.085044
vertex 0.033802 -0.080156 1.082448
endloop
endfacet
facet normal -0.751313 0.007096 0.659907
outer loop
vertex 0.033802 -0.080156 1.082448
vertex 0.036212 -0.066412 1.085044
vertex 0.026389 -0.065355 1.073849
endloop
endfacet
facet normal -0.742503 0.017152 0.669623
outer loop
vertex 0.033802 -0.080156 1.082448
vertex 0.026389 -0.065355 1.073849
vertex 0.024054 -0.079843 1.071631
endloop
endfacet
facet normal -0.742875 -0.000905 0.669429
outer loop
vertex 0.030748 -0.094111 1.079040
vertex 0.033802 -0.080156 1.082448
vertex 0.024054 -0.079843 1.071631
endloop
endfacet
facet normal -0.791819 0.034254 0.609794
outer loop
vertex 0.017633 -0.057902 1.062061
vertex 0.024054 -0.079843 1.071631
vertex 0.026389 -0.065355 1.073849
endloop
endfacet
facet normal -0.808379 0.020035 0.588322
outer loop
vertex 0.017633 -0.057902 1.062061
vertex 0.014822 -0.073069 1.058715
vertex 0.024054 -0.079843 1.071631
endloop
endfacet
facet normal -0.798776 0.053894 0.599210
outer loop
vertex 0.014822 -0.073069 1.058715
vertex 0.020477 -0.093834 1.068121
vertex 0.024054 -0.079843 1.071631
endloop
endfacet
facet normal -0.728137 0.014241 0.685284
outer loop
vertex 0.030748 -0.094111 1.079040
vertex 0.024054 -0.079843 1.071631
vertex 0.020477 -0.093834 1.068121
endloop
endfacet
facet normal -0.728495 -0.021743 0.684706
outer loop
vertex 0.027487 -0.108078 1.075127
vertex 0.030748 -0.094111 1.079040
vertex 0.020477 -0.093834 1.068121
endloop
endfacet
facet normal -0.711344 -0.004378 0.702831
outer loop
vertex 0.027487 -0.108078 1.075127
vertex 0.020477 -0.093834 1.068121
vertex 0.016444 -0.107517 1.063954
endloop
endfacet
facet normal -0.808889 0.060306 0.584860
outer loop
vertex 0.011508 -0.087721 1.055086
vertex 0.016444 -0.107517 1.063954
vertex 0.020477 -0.093834 1.068121
endloop
endfacet
facet normal -0.814129 0.040671 0.579258
outer loop
vertex 0.014822 -0.073069 1.058715
vertex 0.011508 -0.087721 1.055086
vertex 0.020477 -0.093834 1.068121
endloop
endfacet
facet normal -0.848600 0.061804 0.525412
outer loop
vertex 0.003849 -0.082180 1.042064
vertex 0.011508 -0.087721 1.055086
vertex 0.014822 -0.073069 1.058715
endloop
endfacet
facet normal -0.825289 0.046341 0.562805
outer loop
vertex 0.011508 -0.087721 1.055086
vertex 0.007965 -0.102177 1.051081
vertex 0.016444 -0.107517 1.063954
endloop
endfacet
facet normal -0.850574 0.053671 0.523110
outer loop
vertex 0.011508 -0.087721 1.055086
vertex 0.003849 -0.082180 1.042064
vertex 0.000358 -0.096989 1.037907
endloop
endfacet
facet normal -0.852765 0.065441 0.518179
outer loop
vertex 0.011508 -0.087721 1.055086
vertex 0.000358 -0.096989 1.037907
vertex 0.007965 -0.102177 1.051081
endloop
endfacet
facet normal -0.861703 0.023592 0.506865
outer loop
vertex 0.007965 -0.102177 1.051081
vertex 0.000358 -0.096989 1.037907
vertex -0.002527 -0.111745 1.033689
endloop
endfacet
facet normal 0.461971 -0.873329 0.154527
outer loop
vertex 0.046481 -0.235097 1.008716
vertex 0.054470 -0.233021 0.996565
vertex 0.069140 -0.222112 1.014361
endloop
endfacet
facet normal 0.565025 -0.731694 0.381274
outer loop
vertex 0.069140 -0.222112 1.014361
vertex 0.074513 -0.213588 1.022757
vertex 0.064198 -0.216642 1.032182
endloop
endfacet
facet normal 0.464220 -0.873586 0.146105
outer loop
vertex 0.046481 -0.235097 1.008716
vertex 0.069140 -0.222112 1.014361
vertex 0.057560 -0.226810 1.023064
endloop
endfacet
facet normal 0.579116 -0.720363 0.381709
outer loop
vertex 0.069140 -0.222112 1.014361
vertex 0.064198 -0.216642 1.032182
vertex 0.057560 -0.226810 1.023064
endloop
endfacet
facet normal 0.552066 -0.726814 0.408612
outer loop
vertex 0.064198 -0.216642 1.032182
vertex 0.045735 -0.231048 1.031502
vertex 0.057560 -0.226810 1.023064
endloop
endfacet
facet normal 0.610205 -0.577911 0.541911
outer loop
vertex 0.052853 -0.219937 1.041443
vertex 0.064198 -0.216642 1.032182
vertex 0.069392 -0.204425 1.039362
endloop
endfacet
facet normal 0.549874 -0.724349 0.415880
outer loop
vertex 0.064198 -0.216642 1.032182
vertex 0.052853 -0.219937 1.041443
vertex 0.045735 -0.231048 1.031502
endloop
endfacet
facet normal 0.600701 -0.579233 0.551042
outer loop
vertex 0.080036 -0.202546 1.029734
vertex 0.069392 -0.204425 1.039362
vertex 0.064198 -0.216642 1.032182
endloop
endfacet
facet normal 0.622878 -0.616151 0.482058
outer loop
vertex 0.080036 -0.202546 1.029734
vertex 0.064198 -0.216642 1.032182
vertex 0.074513 -0.213588 1.022757
endloop
endfacet
facet normal 0.577232 -0.532367 0.619184
outer loop
vertex 0.052853 -0.219937 1.041443
vertex 0.069392 -0.204425 1.039362
vertex 0.057789 -0.206489 1.048404
endloop
endfacet
facet normal 0.602366 -0.424269 0.676130
outer loop
vertex 0.069392 -0.204425 1.039362
vertex 0.061617 -0.192289 1.053904
vertex 0.057789 -0.206489 1.048404
endloop
endfacet
facet normal 0.630836 -0.489718 0.601850
outer loop
vertex 0.073870 -0.191118 1.045496
vertex 0.069392 -0.204425 1.039362
vertex 0.080036 -0.202546 1.029734
endloop
endfacet
facet normal 0.523127 -0.495632 0.693316
outer loop
vertex 0.069392 -0.204425 1.039362
vertex 0.073870 -0.191118 1.045496
vertex 0.061617 -0.192289 1.053904
endloop
endfacet
facet normal 0.547665 -0.448389 0.706407
outer loop
vertex 0.089960 -0.176609 1.042231
vertex 0.078033 -0.177343 1.051012
vertex 0.073870 -0.191118 1.045496
endloop
endfacet
facet normal 0.580454 -0.498860 0.643592
outer loop
vertex 0.089960 -0.176609 1.042231
vertex 0.073870 -0.191118 1.045496
vertex 0.085142 -0.189855 1.036309
endloop
endfacet
facet normal 0.564776 -0.547241 0.617702
outer loop
vertex 0.073870 -0.191118 1.045496
vertex 0.080036 -0.202546 1.029734
vertex 0.085142 -0.189855 1.036309
endloop
endfacet
facet normal 0.534471 -0.448410 0.716428
outer loop
vertex 0.078033 -0.177343 1.051012
vertex 0.061617 -0.192289 1.053904
vertex 0.073870 -0.191118 1.045496
endloop
endfacet
facet normal 0.482823 -0.377387 0.790228
outer loop
vertex 0.078033 -0.177343 1.051012
vertex 0.064981 -0.177834 1.058752
vertex 0.061617 -0.192289 1.053904
endloop
endfacet
facet normal 0.473995 -0.422587 0.772496
outer loop
vertex 0.064981 -0.177834 1.058752
vertex 0.078033 -0.177343 1.051012
vertex 0.082102 -0.163352 1.056169
endloop
endfacet
facet normal 0.541862 -0.470126 0.696683
outer loop
vertex 0.078033 -0.177343 1.051012
vertex 0.089960 -0.176609 1.042231
vertex 0.094672 -0.163078 1.047697
endloop
endfacet
facet normal 0.512451 -0.424230 0.746608
outer loop
vertex 0.078033 -0.177343 1.051012
vertex 0.094672 -0.163078 1.047697
vertex 0.082102 -0.163352 1.056169
endloop
endfacet
facet normal 0.496325 -0.454890 0.739416
outer loop
vertex 0.064981 -0.177834 1.058752
vertex 0.082102 -0.163352 1.056169
vertex 0.079398 -0.157600 1.061523
endloop
endfacet
facet normal 0.510558 -0.431810 0.743553
outer loop
vertex 0.100242 -0.151553 1.050565
vertex 0.082102 -0.163352 1.056169
vertex 0.094672 -0.163078 1.047697
endloop
endfacet
facet normal 0.503942 -0.449554 0.737526
outer loop
vertex 0.092658 -0.149327 1.057505
vertex 0.079398 -0.157600 1.061523
vertex 0.082102 -0.163352 1.056169
endloop
endfacet
facet normal 0.521626 -0.460988 0.717911
outer loop
vertex 0.100242 -0.151553 1.050565
vertex 0.092658 -0.149327 1.057505
vertex 0.082102 -0.163352 1.056169
endloop
endfacet
facet normal 0.603321 -0.276550 0.748013
outer loop
vertex 0.092658 -0.149327 1.057505
vertex 0.100242 -0.151553 1.050565
vertex 0.110485 -0.134038 1.048779
endloop
endfacet
facet normal 0.665461 -0.426152 0.612827
outer loop
vertex 0.092658 -0.149327 1.057505
vertex 0.110485 -0.134038 1.048779
vertex 0.102765 -0.135098 1.056425
endloop
endfacet
facet normal 0.663450 -0.433586 0.609785
outer loop
vertex 0.117603 -0.121127 1.050215
vertex 0.102765 -0.135098 1.056425
vertex 0.110485 -0.134038 1.048779
endloop
endfacet
facet normal 0.668505 -0.346077 0.658279
outer loop
vertex 0.117603 -0.121127 1.050215
vertex 0.121435 -0.106592 1.053965
vertex 0.110643 -0.106593 1.064924
endloop
endfacet
facet normal 0.639579 -0.383011 0.666514
outer loop
vertex 0.117603 -0.121127 1.050215
vertex 0.106749 -0.120945 1.060735
vertex 0.102765 -0.135098 1.056425
endloop
endfacet
facet normal 0.643329 -0.370154 0.670159
outer loop
vertex 0.117603 -0.121127 1.050215
vertex 0.110643 -0.106593 1.064924
vertex 0.106749 -0.120945 1.060735
endloop
endfacet
facet normal 0.698744 -0.310330 0.644556
outer loop
vertex 0.121435 -0.106592 1.053965
vertex 0.124948 -0.091643 1.057354
vertex 0.114258 -0.091886 1.068826
endloop
endfacet
facet normal 0.670139 -0.339797 0.659888
outer loop
vertex 0.121435 -0.106592 1.053965
vertex 0.114258 -0.091886 1.068826
vertex 0.110643 -0.106593 1.064924
endloop
endfacet
facet normal -0.833139 -0.020114 0.552698
outer loop
vertex 0.010290 -0.051474 1.050474
vertex 0.014759 -0.046745 1.057383
vertex 0.011207 -0.042540 1.052181
endloop
endfacet
facet normal -0.842380 0.008935 0.538810
outer loop
vertex 0.010290 -0.051474 1.050474
vertex 0.017633 -0.057902 1.062061
vertex 0.014759 -0.046745 1.057383
endloop
endfacet
facet normal -0.842375 0.008941 0.538818
outer loop
vertex 0.017633 -0.057902 1.062061
vertex 0.019228 -0.042016 1.064291
vertex 0.014759 -0.046745 1.057383
endloop
endfacet
facet normal -1.000000 0.000000 0.000000
outer loop
vertex 0.010290 -0.051474 1.050474
vertex 0.008773 -0.059253 1.048246
vertex 0.007256 -0.067032 1.046018
endloop
endfacet
facet normal -0.855048 0.018318 0.518225
outer loop
vertex 0.010290 -0.051474 1.050474
vertex 0.007256 -0.067032 1.046018
vertex 0.014822 -0.073069 1.058715
endloop
endfacet
facet normal -0.835573 0.033896 0.548333
outer loop
vertex 0.010290 -0.051474 1.050474
vertex 0.014822 -0.073069 1.058715
vertex 0.017633 -0.057902 1.062061
endloop
endfacet
facet normal -0.846755 0.052254 0.529411
outer loop
vertex 0.003849 -0.082180 1.042064
vertex 0.014822 -0.073069 1.058715
vertex 0.007256 -0.067032 1.046018
endloop
endfacet
facet normal 0.000000 0.989950 0.141421
outer loop
vertex 0.003849 -0.082180 1.042064
vertex 0.007256 -0.067032 1.046018
vertex 0.005553 -0.074606 1.044041
endloop
endfacet
facet normal -0.790615 0.008159 0.612259
outer loop
vertex 0.019228 -0.042016 1.064291
vertex 0.026389 -0.065355 1.073849
vertex 0.026896 -0.050525 1.074306
endloop
endfacet
facet normal 0.913913 0.314158 0.257038
outer loop
vertex 0.019228 -0.042016 1.064291
vertex 0.026896 -0.050525 1.074306
vertex 0.023062 -0.046271 1.069299
endloop
endfacet
facet normal -0.803633 -0.002854 0.595118
outer loop
vertex 0.019228 -0.042016 1.064291
vertex 0.017633 -0.057902 1.062061
vertex 0.026389 -0.065355 1.073849
endloop
endfacet
facet normal -0.561559 -0.001684 0.827435
outer loop
vertex 0.037869 -0.054026 1.086840
vertex 0.049434 -0.065826 1.094665
vertex 0.051869 -0.051895 1.096346
endloop
endfacet
facet normal 0.664364 -0.747409 0.000000
outer loop
vertex 0.037869 -0.054026 1.086840
vertex 0.051869 -0.051895 1.096346
vertex 0.044869 -0.052961 1.091593
endloop
endfacet
facet normal -0.586807 -0.038774 0.808798
outer loop
vertex 0.037869 -0.054026 1.086840
vertex 0.036212 -0.066412 1.085044
vertex 0.049434 -0.065826 1.094665
endloop
endfacet
facet normal -0.751722 0.004938 0.659462
outer loop
vertex 0.036212 -0.066412 1.085044
vertex 0.037869 -0.054026 1.086840
vertex 0.032383 -0.052276 1.080573
endloop
endfacet
facet normal -0.751714 0.004937 0.659471
outer loop
vertex 0.036212 -0.066412 1.085044
vertex 0.032383 -0.052276 1.080573
vertex 0.026896 -0.050525 1.074306
endloop
endfacet
facet normal -0.233313 -0.166298 0.958076
outer loop
vertex 0.061549 -0.079437 1.095253
vertex 0.049434 -0.065826 1.094665
vertex 0.046866 -0.080135 1.091556
endloop
endfacet
facet normal -0.584865 -0.070613 0.808051
outer loop
vertex 0.046866 -0.080135 1.091556
vertex 0.049434 -0.065826 1.094665
vertex 0.036212 -0.066412 1.085044
endloop
endfacet
facet normal -0.200080 -0.136181 0.970270
outer loop
vertex 0.061549 -0.079437 1.095253
vertex 0.063984 -0.064205 1.097893
vertex 0.049434 -0.065826 1.094665
endloop
endfacet
facet normal -0.207227 -0.081416 0.974899
outer loop
vertex 0.063984 -0.064205 1.097893
vertex 0.051869 -0.051895 1.096346
vertex 0.049434 -0.065826 1.094665
endloop
endfacet
facet normal -0.751397 0.005353 0.659829
outer loop
vertex 0.036212 -0.066412 1.085044
vertex 0.026896 -0.050525 1.074306
vertex 0.026389 -0.065355 1.073849
endloop
endfacet
facet normal 0.763049 0.013003 0.646210
outer loop
vertex 0.122549 -0.025215 1.072281
vertex 0.132879 -0.012578 1.059829
vertex 0.124260 -0.011666 1.069988
endloop
endfacet
facet normal 0.763079 0.012913 0.646177
outer loop
vertex 0.132879 -0.012578 1.059829
vertex 0.133030 0.000000 1.059399
vertex 0.132041 0.000000 1.060567
endloop
endfacet
facet normal 0.745432 0.045923 0.664998
outer loop
vertex 0.122549 -0.025215 1.072281
vertex 0.132444 -0.027195 1.061326
vertex 0.132879 -0.012578 1.059829
endloop
endfacet
facet normal 0.769820 0.001980 0.638258
outer loop
vertex 0.124785 0.000000 1.069319
vertex 0.124260 -0.011666 1.069988
vertex 0.132041 0.000000 1.060567
endloop
endfacet
facet normal 0.680621 0.011399 0.732547
outer loop
vertex 0.124785 0.000000 1.069319
vertex 0.117511 0.000000 1.076077
vertex 0.124260 -0.011666 1.069988
endloop
endfacet
facet normal 0.670218 0.000269 0.742164
outer loop
vertex 0.117511 0.000000 1.076077
vertex 0.116604 0.000000 1.076896
vertex 0.116119 -0.005201 1.077336
endloop
endfacet
facet normal 0.670028 0.000264 0.742336
outer loop
vertex 0.117511 0.000000 1.076077
vertex 0.116119 -0.005201 1.077336
vertex 0.115634 -0.010403 1.077776
endloop
endfacet
facet normal 0.669404 -0.008766 0.742847
outer loop
vertex 0.112683 -0.021344 1.080306
vertex 0.124260 -0.011666 1.069988
vertex 0.114159 -0.015874 1.079041
endloop
endfacet
facet normal 0.669396 -0.008769 0.742854
outer loop
vertex 0.124260 -0.011666 1.069988
vertex 0.115634 -0.010403 1.077776
vertex 0.114159 -0.015874 1.079041
endloop
endfacet
facet normal 0.641646 0.048513 0.765465
outer loop
vertex 0.112683 -0.021344 1.080306
vertex 0.122549 -0.025215 1.072281
vertex 0.124260 -0.011666 1.069988
endloop
endfacet
facet normal 0.550196 -0.381132 0.742983
outer loop
vertex 0.106749 -0.120945 1.060735
vertex 0.090976 -0.134347 1.065540
vertex 0.102765 -0.135098 1.056425
endloop
endfacet
facet normal 0.555948 -0.360912 0.748775
outer loop
vertex 0.083671 -0.149287 1.063763
vertex 0.102765 -0.135098 1.056425
vertex 0.090976 -0.134347 1.065540
endloop
endfacet
facet normal 0.539549 -0.324269 0.777005
outer loop
vertex 0.083671 -0.149287 1.063763
vertex 0.092658 -0.149327 1.057505
vertex 0.102765 -0.135098 1.056425
endloop
endfacet
facet normal 0.506776 -0.457375 0.730744
outer loop
vertex 0.092658 -0.149327 1.057505
vertex 0.083671 -0.149287 1.063763
vertex 0.079398 -0.157600 1.061523
endloop
endfacet
facet normal 0.438353 -0.882358 0.171144
outer loop
vertex 0.046481 -0.235097 1.008716
vertex 0.057560 -0.226810 1.023064
vertex 0.045735 -0.231048 1.031502
endloop
endfacet
facet normal 0.413790 -0.893901 0.172390
outer loop
vertex 0.046481 -0.235097 1.008716
vertex 0.045735 -0.231048 1.031502
vertex 0.038242 -0.236582 1.020792
endloop
endfacet
facet normal -0.829404 0.028087 0.557943
outer loop
vertex 0.016444 -0.107517 1.063954
vertex 0.007965 -0.102177 1.051081
vertex 0.004759 -0.116517 1.047037
endloop
endfacet
facet normal -0.868034 0.054914 0.493458
outer loop
vertex 0.007965 -0.102177 1.051081
vertex -0.002527 -0.111745 1.033689
vertex 0.004759 -0.116517 1.047037
endloop
endfacet
facet normal -0.213770 -0.280646 0.935703
outer loop
vertex 0.051417 -0.136288 1.077609
vertex 0.036717 -0.136200 1.074277
vertex 0.031676 -0.148021 1.069580
endloop
endfacet
facet normal -0.160867 -0.358585 0.919532
outer loop
vertex 0.051417 -0.136288 1.077609
vertex 0.031676 -0.148021 1.069580
vertex 0.044250 -0.150077 1.070978
endloop
endfacet
facet normal 0.018684 -0.441184 0.897222
outer loop
vertex 0.044250 -0.150077 1.070978
vertex 0.065496 -0.136202 1.077358
vertex 0.051417 -0.136288 1.077609
endloop
endfacet
facet normal -0.438851 0.071241 0.895731
outer loop
vertex 0.005309 -0.147306 1.056605
vertex 0.005773 -0.165314 1.058265
vertex 0.031676 -0.148021 1.069580
endloop
endfacet
facet normal -0.161029 -0.360050 0.918931
outer loop
vertex 0.005773 -0.165314 1.058265
vertex 0.044250 -0.150077 1.070978
vertex 0.031676 -0.148021 1.069580
endloop
endfacet
facet normal -0.439132 -0.163736 0.883376
outer loop
vertex 0.036717 -0.136200 1.074277
vertex 0.005309 -0.147306 1.056605
vertex 0.031676 -0.148021 1.069580
endloop
endfacet
facet normal -0.412366 0.334213 0.847500
outer loop
vertex 0.005773 -0.165314 1.058265
vertex 0.021268 -0.165821 1.066004
vertex 0.044250 -0.150077 1.070978
endloop
endfacet
facet normal -0.442098 -0.213472 0.871194
outer loop
vertex 0.005773 -0.165314 1.058265
vertex 0.018656 -0.179972 1.061211
vertex 0.021268 -0.165821 1.066004
endloop
endfacet
facet normal -0.659636 -0.134660 0.739423
outer loop
vertex 0.002356 -0.180545 1.052443
vertex 0.005773 -0.165314 1.058265
vertex -0.005637 -0.166500 1.047871
endloop
endfacet
facet normal -0.455162 -0.226992 0.860989
outer loop
vertex 0.005773 -0.165314 1.058265
vertex 0.002356 -0.180545 1.052443
vertex 0.018656 -0.179972 1.061211
endloop
endfacet
facet normal -0.675437 0.050405 0.735693
outer loop
vertex 0.005309 -0.147306 1.056605
vertex -0.005637 -0.166500 1.047871
vertex 0.005773 -0.165314 1.058265
endloop
endfacet
facet normal -0.775415 0.164803 0.609567
outer loop
vertex -0.005637 -0.166500 1.047871
vertex 0.005309 -0.147306 1.056605
vertex -0.012326 -0.152835 1.035667
endloop
endfacet
facet normal -0.866538 0.021140 0.498662
outer loop
vertex -0.005637 -0.166500 1.047871
vertex -0.012326 -0.152835 1.035667
vertex -0.017754 -0.166287 1.026805
endloop
endfacet
facet normal -0.648696 -0.124751 0.750753
outer loop
vertex 0.002356 -0.180545 1.052443
vertex -0.005637 -0.166500 1.047871
vertex -0.012114 -0.180028 1.040026
endloop
endfacet
facet normal -0.859577 0.124115 0.495705
outer loop
vertex -0.012114 -0.180028 1.040026
vertex -0.005637 -0.166500 1.047871
vertex -0.017754 -0.166287 1.026805
endloop
endfacet
facet normal -0.254757 -0.192891 0.947572
outer loop
vertex 0.033171 -0.193955 1.062267
vertex 0.035024 -0.180024 1.065601
vertex 0.018656 -0.179972 1.061211
endloop
endfacet
facet normal -0.250306 -0.268819 0.930099
outer loop
vertex 0.035024 -0.180024 1.065601
vertex 0.021268 -0.165821 1.066004
vertex 0.018656 -0.179972 1.061211
endloop
endfacet
facet normal -0.226063 -0.162133 0.960525
outer loop
vertex 0.033171 -0.193955 1.062267
vertex 0.018656 -0.179972 1.061211
vertex 0.017745 -0.193080 1.058784
endloop
endfacet
facet normal -0.457720 -0.131010 0.879391
outer loop
vertex 0.018656 -0.179972 1.061211
vertex 0.001263 -0.196135 1.049750
vertex 0.017745 -0.193080 1.058784
endloop
endfacet
facet normal -0.467154 -0.118605 0.876185
outer loop
vertex 0.018656 -0.179972 1.061211
vertex 0.002356 -0.180545 1.052443
vertex 0.001263 -0.196135 1.049750
endloop
endfacet
facet normal -0.452039 -0.157541 0.877976
outer loop
vertex 0.001263 -0.196135 1.049750
vertex 0.015208 -0.204916 1.055354
vertex 0.017745 -0.193080 1.058784
endloop
endfacet
facet normal -0.226719 -0.225951 0.947388
outer loop
vertex 0.033171 -0.193955 1.062267
vertex 0.017745 -0.193080 1.058784
vertex 0.015208 -0.204916 1.055354
endloop
endfacet
facet normal -0.500088 -0.268817 0.823194
outer loop
vertex 0.015208 -0.204916 1.055354
vertex 0.001263 -0.196135 1.049750
vertex -0.004552 -0.209561 1.041833
endloop
endfacet
facet normal -0.503661 -0.257654 0.824585
outer loop
vertex 0.015208 -0.204916 1.055354
vertex -0.004552 -0.209561 1.041833
vertex 0.009861 -0.218876 1.047726
endloop
endfacet
facet normal -0.221889 -0.233429 0.946719
outer loop
vertex 0.033171 -0.193955 1.062267
vertex 0.015208 -0.204916 1.055354
vertex 0.030695 -0.206899 1.058495
endloop
endfacet
facet normal -0.230994 -0.396915 0.888313
outer loop
vertex 0.030695 -0.206899 1.058495
vertex 0.015208 -0.204916 1.055354
vertex 0.009861 -0.218876 1.047726
endloop
endfacet
facet normal -0.401064 -0.262336 0.877683
outer loop
vertex 0.036717 -0.136200 1.074277
vertex 0.021989 -0.136086 1.067581
vertex 0.005309 -0.147306 1.056605
endloop
endfacet
facet normal 0.448457 -0.738187 0.503951
outer loop
vertex 0.034937 -0.231442 1.040534
vertex 0.045735 -0.231048 1.031502
vertex 0.052853 -0.219937 1.041443
endloop
endfacet
facet normal -0.285229 -0.317106 0.904482
outer loop
vertex 0.030695 -0.206899 1.058495
vertex 0.009861 -0.218876 1.047726
vertex 0.027259 -0.219442 1.053014
endloop
endfacet
facet normal 0.350104 -0.367438 0.861636
outer loop
vertex 0.060020 -0.162833 1.067165
vertex 0.064981 -0.177834 1.058752
vertex 0.079398 -0.157600 1.061523
endloop
endfacet
facet normal 0.336185 -0.176724 0.925067
outer loop
vertex 0.076540 -0.078437 1.094118
vertex 0.091008 -0.077416 1.089055
vertex 0.093009 -0.060758 1.091510
endloop
endfacet
facet normal 0.470343 -0.071054 0.879619
outer loop
vertex 0.106432 -0.046778 1.085462
vertex 0.093009 -0.060758 1.091510
vertex 0.106309 -0.062015 1.084297
endloop
endfacet
facet normal 0.763047 0.012911 0.646214
outer loop
vertex 0.132879 -0.012578 1.059829
vertex 0.132041 0.000000 1.060567
vertex 0.124260 -0.011666 1.069988
endloop
endfacet
facet normal 0.670166 0.000280 0.742211
outer loop
vertex 0.117511 0.000000 1.076077
vertex 0.115634 -0.010403 1.077776
vertex 0.124260 -0.011666 1.069988
endloop
endfacet
facet normal -0.523351 0.733351 -0.433936
outer loop
vertex 0.132041 0.000000 1.060567
vertex 0.124558 -0.006982 1.057793
vertex 0.124785 0.000000 1.069319
endloop
endfacet
facet normal -0.740987 0.671519 0.000000
outer loop
vertex 0.053179 -0.046226 1.057303
vertex 0.056703 -0.043657 1.058392
vertex 0.060227 -0.041089 1.059480
endloop
endfacet
facet normal -0.202969 0.604851 -0.770038
outer loop
vertex 0.053179 -0.046226 1.057303
vertex 0.060227 -0.041089 1.059480
vertex 0.065251 -0.055872 1.046544
endloop
endfacet
facet normal 0.998053 0.000000 0.062378
outer loop
vertex 0.024991 -0.066771 1.048595
vertex 0.028514 -0.064203 1.049683
vertex 0.032038 -0.061635 1.050772
endloop
endfacet
facet normal -0.038103 0.433750 -0.900227
outer loop
vertex 0.024991 -0.066771 1.048595
vertex 0.032038 -0.061635 1.050772
vertex 0.031362 -0.083808 1.040117
endloop
endfacet
facet normal 0.926467 0.144760 -0.347425
outer loop
vertex 0.081368 -0.025680 1.066011
vertex 0.084892 -0.023112 1.067100
vertex 0.088415 -0.020544 1.068188
endloop
endfacet
facet normal -0.344856 0.725561 -0.595513
outer loop
vertex 0.081368 -0.025680 1.066011
vertex 0.088415 -0.020544 1.068188
vertex 0.099141 -0.027935 1.052972
endloop
endfacet
facet normal -0.278465 0.672635 -0.685580
outer loop
vertex 0.067274 -0.035953 1.061657
vertex 0.070797 -0.033385 1.062746
vertex 0.082196 -0.041903 1.049758
endloop
endfacet
facet normal -0.278485 0.672629 -0.685578
outer loop
vertex 0.070797 -0.033385 1.062746
vertex 0.074321 -0.030816 1.063834
vertex 0.082196 -0.041903 1.049758
endloop
endfacet
facet normal -0.992248 -0.007752 0.124031
outer loop
vertex 0.010896 -0.077044 1.044241
vertex 0.014420 -0.074476 1.045329
vertex 0.017943 -0.071907 1.046418
endloop
endfacet
facet normal 0.042590 0.339769 -0.939544
outer loop
vertex 0.010896 -0.077044 1.044241
vertex 0.017943 -0.071907 1.046418
vertex 0.014418 -0.097777 1.036903
endloop
endfacet
facet normal 0.945997 0.133031 -0.295624
outer loop
vertex 0.039085 -0.056498 1.052949
vertex 0.042609 -0.053930 1.054037
vertex 0.046132 -0.051362 1.055126
endloop
endfacet
facet normal -0.121396 0.523897 -0.843086
outer loop
vertex 0.039085 -0.056498 1.052949
vertex 0.046132 -0.051362 1.055126
vertex 0.048307 -0.069840 1.043330
endloop
endfacet
facet normal -0.374180 0.746547 -0.550143
outer loop
vertex 0.107613 -0.020951 1.054579
vertex 0.095463 -0.015407 1.070365
vertex 0.098986 -0.012839 1.071454
endloop
endfacet
facet normal -0.374166 0.746552 -0.550145
outer loop
vertex 0.107613 -0.020951 1.054579
vertex 0.098986 -0.012839 1.071454
vertex 0.102510 -0.010271 1.072542
endloop
endfacet
facet normal -0.344855 0.725562 -0.595512
outer loop
vertex 0.099141 -0.027935 1.052972
vertex 0.088415 -0.020544 1.068188
vertex 0.091939 -0.017976 1.069277
endloop
endfacet
facet normal -0.344863 0.725559 -0.595511
outer loop
vertex 0.099141 -0.027935 1.052972
vertex 0.091939 -0.017976 1.069277
vertex 0.095463 -0.015407 1.070365
endloop
endfacet
facet normal -0.079672 0.479657 -0.873832
outer loop
vertex 0.032038 -0.061635 1.050772
vertex 0.035561 -0.059066 1.051860
vertex 0.039835 -0.076824 1.041723
endloop
endfacet
facet normal -0.079672 0.479656 -0.873832
outer loop
vertex 0.035561 -0.059066 1.051860
vertex 0.039085 -0.056498 1.052949
vertex 0.039835 -0.076824 1.041723
endloop
endfacet
facet normal -0.121342 0.294656 -0.947868
outer loop
vertex -0.002527 -0.111745 1.033689
vertex 0.000358 -0.096989 1.037907
vertex 0.003849 -0.082180 1.042064
endloop
endfacet
facet normal 0.080758 0.293035 -0.952685
outer loop
vertex 0.007373 -0.079612 1.043152
vertex 0.010896 -0.077044 1.044241
vertex 0.005945 -0.104761 1.035296
endloop
endfacet
facet normal 0.116907 0.247255 -0.961872
outer loop
vertex -0.002527 -0.111745 1.033689
vertex 0.003849 -0.082180 1.042064
vertex 0.007373 -0.079612 1.043152
endloop
endfacet
facet normal -0.067726 0.301001 -0.951216
outer loop
vertex 0.007373 -0.079612 1.043152
vertex 0.005945 -0.104761 1.035296
vertex -0.002527 -0.111745 1.033689
endloop
endfacet
facet normal -0.241684 0.640551 -0.728892
outer loop
vertex 0.060227 -0.041089 1.059480
vertex 0.063750 -0.038521 1.060569
vertex 0.073724 -0.048888 1.048151
endloop
endfacet
facet normal -0.241703 0.640555 -0.728882
outer loop
vertex 0.063750 -0.038521 1.060569
vertex 0.067274 -0.035953 1.061657
vertex 0.073724 -0.048888 1.048151
endloop
endfacet
facet normal -0.999025 0.031220 -0.031220
outer loop
vertex 0.074321 -0.030816 1.063834
vertex 0.077845 -0.028248 1.064923
vertex 0.081368 -0.025680 1.066011
endloop
endfacet
facet normal -0.312915 0.700967 -0.640882
outer loop
vertex 0.074321 -0.030816 1.063834
vertex 0.081368 -0.025680 1.066011
vertex 0.090668 -0.034919 1.051365
endloop
endfacet
facet normal -0.998022 0.007797 -0.062376
outer loop
vertex 0.017943 -0.071907 1.046418
vertex 0.021467 -0.069339 1.047506
vertex 0.024991 -0.066771 1.048595
endloop
endfacet
facet normal 0.002883 0.386888 -0.922122
outer loop
vertex 0.017943 -0.071907 1.046418
vertex 0.024991 -0.066771 1.048595
vertex 0.022890 -0.090793 1.038510
endloop
endfacet
facet normal -0.162692 0.565818 -0.808320
outer loop
vertex 0.046132 -0.051362 1.055126
vertex 0.049656 -0.048794 1.056214
vertex 0.056779 -0.062856 1.044937
endloop
endfacet
facet normal -0.162673 0.565819 -0.808323
outer loop
vertex 0.049656 -0.048794 1.056214
vertex 0.053179 -0.046226 1.057303
vertex 0.056779 -0.062856 1.044937
endloop
endfacet
facet normal -0.400844 0.764162 -0.505353
outer loop
vertex 0.116085 -0.013967 1.056186
vertex 0.102510 -0.010271 1.072542
vertex 0.106033 -0.007703 1.073631
endloop
endfacet
facet normal -0.400856 0.764158 -0.505349
outer loop
vertex 0.116085 -0.013967 1.056186
vertex 0.106033 -0.007703 1.073631
vertex 0.109557 -0.005135 1.074719
endloop
endfacet
facet normal -0.421881 0.777032 -0.467159
outer loop
vertex 0.116604 0.000000 1.076896
vertex 0.117511 0.000000 1.076077
vertex 0.109557 -0.005135 1.074719
endloop
endfacet
facet normal 0.289474 0.000000 -0.957186
outer loop
vertex 0.116604 0.000000 1.076896
vertex 0.109557 -0.005135 1.074719
vertex 0.113081 -0.002566 1.075808
endloop
endfacet
facet normal -0.426189 0.777434 -0.462558
outer loop
vertex 0.109557 -0.005135 1.074719
vertex 0.124785 0.000000 1.069319
vertex 0.124558 -0.006982 1.057793
endloop
endfacet
facet normal -0.425579 0.780436 -0.458043
outer loop
vertex 0.117511 0.000000 1.076077
vertex 0.124785 0.000000 1.069319
vertex 0.109557 -0.005135 1.074719
endloop
endfacet
facet normal -0.519848 0.732090 -0.440230
outer loop
vertex 0.124558 -0.006982 1.057793
vertex 0.132041 0.000000 1.060567
vertex 0.133030 0.000000 1.059399
endloop
endfacet
facet normal -0.286457 0.530981 -0.797497
outer loop
vertex 0.053179 -0.046226 1.057303
vertex 0.065251 -0.055872 1.046544
vertex 0.056779 -0.062856 1.044937
endloop
endfacet
facet normal -0.152794 0.393889 -0.906370
outer loop
vertex 0.024991 -0.066771 1.048595
vertex 0.031362 -0.083808 1.040117
vertex 0.022890 -0.090793 1.038510
endloop
endfacet
facet normal -0.401267 0.637979 -0.657243
outer loop
vertex 0.081368 -0.025680 1.066011
vertex 0.099141 -0.027935 1.052972
vertex 0.090668 -0.034919 1.051365
endloop
endfacet
facet normal -0.347097 0.588968 -0.729822
outer loop
vertex 0.067274 -0.035953 1.061657
vertex 0.082196 -0.041903 1.049758
vertex 0.073724 -0.048888 1.048151
endloop
endfacet
facet normal -0.084510 0.319669 -0.943753
outer loop
vertex 0.010896 -0.077044 1.044241
vertex 0.014418 -0.097777 1.036903
vertex 0.005945 -0.104761 1.035296
endloop
endfacet
facet normal -0.220947 0.465241 -0.857166
outer loop
vertex 0.039085 -0.056498 1.052949
vertex 0.048307 -0.069840 1.043330
vertex 0.039835 -0.076824 1.041723
endloop
endfacet
facet normal -0.468824 0.694335 -0.545988
outer loop
vertex 0.107613 -0.020951 1.054579
vertex 0.102510 -0.010271 1.072542
vertex 0.116085 -0.013967 1.056186
endloop
endfacet
facet normal -0.448157 0.677758 -0.582924
outer loop
vertex 0.099141 -0.027935 1.052972
vertex 0.095463 -0.015407 1.070365
vertex 0.107613 -0.020951 1.054579
endloop
endfacet
facet normal -0.187035 0.430104 -0.883192
outer loop
vertex 0.032038 -0.061635 1.050772
vertex 0.039835 -0.076824 1.041723
vertex 0.031362 -0.083808 1.040117
endloop
endfacet
facet normal -0.317500 0.561047 -0.764474
outer loop
vertex 0.060227 -0.041089 1.059480
vertex 0.073724 -0.048888 1.048151
vertex 0.065251 -0.055872 1.046544
endloop
endfacet
facet normal -0.375058 0.614633 -0.693943
outer loop
vertex 0.074321 -0.030816 1.063834
vertex 0.090668 -0.034919 1.051365
vertex 0.082196 -0.041903 1.049758
endloop
endfacet
facet normal -0.118506 0.356957 -0.926573
outer loop
vertex 0.017943 -0.071907 1.046418
vertex 0.022890 -0.090793 1.038510
vertex 0.014418 -0.097777 1.036903
endloop
endfacet
facet normal -0.254186 0.498965 -0.828507
outer loop
vertex 0.046132 -0.051362 1.055126
vertex 0.056779 -0.062856 1.044937
vertex 0.048307 -0.069840 1.043330
endloop
endfacet
facet normal -0.487695 0.708855 -0.509586
outer loop
vertex 0.116085 -0.013967 1.056186
vertex 0.109557 -0.005135 1.074719
vertex 0.124558 -0.006982 1.057793
endloop
endfacet
facet normal 0.140427 0.057065 -0.988445
outer loop
vertex 0.065251 -0.055872 1.046544
vertex 0.082955 -0.095484 1.046773
vertex 0.056779 -0.062856 1.044937
endloop
endfacet
facet normal 0.127845 0.039718 -0.990999
outer loop
vertex 0.110485 -0.134038 1.048779
vertex 0.082955 -0.095484 1.046773
vertex 0.117603 -0.121127 1.050215
endloop
endfacet
facet normal 0.140433 0.057069 -0.988444
outer loop
vertex 0.022890 -0.090793 1.038510
vertex 0.082955 -0.095484 1.046773
vertex 0.014418 -0.097777 1.036903
endloop
endfacet
facet normal 0.231949 0.185215 -0.954932
outer loop
vertex 0.117603 -0.121127 1.050215
vertex 0.082955 -0.095484 1.046773
vertex 0.121435 -0.106592 1.053965
endloop
endfacet
facet normal 0.226867 0.164316 -0.959964
outer loop
vertex 0.121435 -0.106592 1.053965
vertex 0.082955 -0.095484 1.046773
vertex 0.124948 -0.091643 1.057354
endloop
endfacet
facet normal 0.231174 0.129143 -0.964303
outer loop
vertex 0.124948 -0.091643 1.057354
vertex 0.082955 -0.095484 1.046773
vertex 0.127833 -0.076101 1.060127
endloop
endfacet
facet normal 0.277370 0.079854 -0.957439
outer loop
vertex 0.127833 -0.076101 1.060127
vertex 0.082196 -0.041903 1.049758
vertex 0.129977 -0.059869 1.062102
endloop
endfacet
facet normal 0.261889 0.057387 -0.963390
outer loop
vertex 0.082955 -0.095484 1.046773
vertex 0.082196 -0.041903 1.049758
vertex 0.127833 -0.076101 1.060127
endloop
endfacet
facet normal 0.297698 0.014550 -0.954549
outer loop
vertex 0.129977 -0.059869 1.062102
vertex 0.099141 -0.027935 1.052972
vertex 0.131254 -0.043021 1.062757
endloop
endfacet
facet normal 0.236063 -0.105100 -0.966037
outer loop
vertex 0.131254 -0.043021 1.062757
vertex 0.107613 -0.020951 1.054579
vertex 0.132444 -0.027195 1.061326
endloop
endfacet
facet normal 0.230104 -0.055586 -0.971577
outer loop
vertex 0.129977 -0.059869 1.062102
vertex 0.090668 -0.034919 1.051365
vertex 0.099141 -0.027935 1.052972
endloop
endfacet
facet normal 0.219166 -0.105860 -0.969928
outer loop
vertex 0.132444 -0.027195 1.061326
vertex 0.116085 -0.013967 1.056186
vertex 0.132879 -0.012578 1.059829
endloop
endfacet
facet normal 0.214670 -0.035904 -0.976027
outer loop
vertex 0.132879 -0.012578 1.059829
vertex 0.124558 -0.006982 1.057793
vertex 0.133030 0.000000 1.059399
endloop
endfacet
facet normal 0.214707 -0.035890 -0.976019
outer loop
vertex 0.116085 -0.013967 1.056186
vertex 0.124558 -0.006982 1.057793
vertex 0.132879 -0.012578 1.059829
endloop
endfacet
facet normal 0.244193 -0.073749 -0.966918
outer loop
vertex 0.116085 -0.013967 1.056186
vertex 0.132444 -0.027195 1.061326
vertex 0.107613 -0.020951 1.054579
endloop
endfacet
facet normal 0.253371 -0.085652 -0.963570
outer loop
vertex 0.107613 -0.020951 1.054579
vertex 0.131254 -0.043021 1.062757
vertex 0.099141 -0.027935 1.052972
endloop
endfacet
facet normal 0.230092 -0.055596 -0.971579
outer loop
vertex 0.090668 -0.034919 1.051365
vertex 0.129977 -0.059869 1.062102
vertex 0.082196 -0.041903 1.049758
endloop
endfacet
facet normal 0.140442 0.057062 -0.988443
outer loop
vertex 0.082196 -0.041903 1.049758
vertex 0.082955 -0.095484 1.046773
vertex 0.073724 -0.048888 1.048151
endloop
endfacet
facet normal 0.140427 0.057065 -0.988445
outer loop
vertex 0.073724 -0.048888 1.048151
vertex 0.082955 -0.095484 1.046773
vertex 0.065251 -0.055872 1.046544
endloop
endfacet
facet normal 0.140443 0.057065 -0.988443
outer loop
vertex 0.048307 -0.069840 1.043330
vertex 0.056779 -0.062856 1.044937
vertex 0.082955 -0.095484 1.046773
endloop
endfacet
facet normal 0.460979 0.067810 -0.884816
outer loop
vertex 0.082955 -0.095484 1.046773
vertex 0.094672 -0.163078 1.047697
vertex 0.016609 -0.197585 1.004382
endloop
endfacet
facet normal 0.407686 0.589435 -0.697395
outer loop
vertex 0.016609 -0.197585 1.004382
vertex 0.069140 -0.222112 1.014361
vertex 0.054470 -0.233021 0.996565
endloop
endfacet
facet normal 0.385187 0.512874 -0.767197
outer loop
vertex 0.074513 -0.213588 1.022757
vertex 0.069140 -0.222112 1.014361
vertex 0.016609 -0.197585 1.004382
endloop
endfacet
facet normal 0.370674 0.356491 -0.857622
outer loop
vertex 0.074513 -0.213588 1.022757
vertex 0.016609 -0.197585 1.004382
vertex 0.080036 -0.202546 1.029734
endloop
endfacet
facet normal 0.374014 0.303542 -0.876342
outer loop
vertex 0.080036 -0.202546 1.029734
vertex 0.016609 -0.197585 1.004382
vertex 0.085142 -0.189855 1.036309
endloop
endfacet
facet normal 0.384182 0.256744 -0.886841
outer loop
vertex 0.085142 -0.189855 1.036309
vertex 0.016609 -0.197585 1.004382
vertex 0.089960 -0.176609 1.042231
endloop
endfacet
facet normal 0.396251 0.221909 -0.890922
outer loop
vertex 0.089960 -0.176609 1.042231
vertex 0.016609 -0.197585 1.004382
vertex 0.094672 -0.163078 1.047697
endloop
endfacet
facet normal 0.370728 0.051581 -0.927308
outer loop
vertex 0.094672 -0.163078 1.047697
vertex 0.082955 -0.095484 1.046773
vertex 0.100242 -0.151553 1.050565
endloop
endfacet
facet normal -0.038272 -0.079171 -0.996126
outer loop
vertex 0.100242 -0.151553 1.050565
vertex 0.082955 -0.095484 1.046773
vertex 0.110485 -0.134038 1.048779
endloop
endfacet
facet normal -0.014803 0.200291 -0.979625
outer loop
vertex -0.014663 -0.140096 1.016609
vertex 0.016609 -0.197585 1.004382
vertex -0.021252 -0.162150 1.012200
endloop
endfacet
facet normal 0.060725 0.348823 -0.935219
outer loop
vertex 0.016609 -0.197585 1.004382
vertex -0.003829 -0.126004 1.029754
vertex 0.082955 -0.095484 1.046773
endloop
endfacet
facet normal 0.140433 0.057065 -0.988444
outer loop
vertex 0.082955 -0.095484 1.046773
vertex 0.039835 -0.076824 1.041723
vertex 0.048307 -0.069840 1.043330
endloop
endfacet
facet normal 0.140440 0.057054 -0.988444
outer loop
vertex 0.082955 -0.095484 1.046773
vertex 0.031362 -0.083808 1.040117
vertex 0.039835 -0.076824 1.041723
endloop
endfacet
facet normal 0.135446 0.160073 -0.977768
outer loop
vertex -0.003829 -0.126004 1.029754
vertex 0.014418 -0.097777 1.036903
vertex 0.082955 -0.095484 1.046773
endloop
endfacet
facet normal 0.438899 0.408910 -0.800100
outer loop
vertex -0.003829 -0.126004 1.029754
vertex 0.016609 -0.197585 1.004382
vertex -0.014663 -0.140096 1.016609
endloop
endfacet
facet normal -0.039358 0.269153 -0.962293
outer loop
vertex 0.005945 -0.104761 1.035296
vertex -0.003829 -0.126004 1.029754
vertex -0.002527 -0.111745 1.033689
endloop
endfacet
facet normal -0.039310 0.269153 -0.962295
outer loop
vertex 0.014418 -0.097777 1.036903
vertex -0.003829 -0.126004 1.029754
vertex 0.005945 -0.104761 1.035296
endloop
endfacet
facet normal 0.140427 0.057053 -0.988446
outer loop
vertex 0.082955 -0.095484 1.046773
vertex 0.022890 -0.090793 1.038510
vertex 0.031362 -0.083808 1.040117
endloop
endfacet
facet normal -0.111464 0.513518 -0.850808
outer loop
vertex 0.028514 -0.064203 1.049683
vertex 0.019228 -0.042016 1.064291
vertex 0.032038 -0.061635 1.050772
endloop
endfacet
facet normal -0.833117 -0.020118 0.552731
outer loop
vertex 0.014759 -0.046745 1.057383
vertex 0.019228 -0.042016 1.064291
vertex 0.015676 -0.037811 1.059090
endloop
endfacet
facet normal -0.833147 -0.020113 0.552685
outer loop
vertex 0.014759 -0.046745 1.057383
vertex 0.015676 -0.037811 1.059090
vertex 0.011207 -0.042540 1.052181
endloop
endfacet
facet normal -0.833128 -0.020129 0.552714
outer loop
vertex 0.011207 -0.042540 1.052181
vertex 0.015676 -0.037811 1.059090
vertex 0.012124 -0.033605 1.053889
endloop
endfacet
facet normal -0.220225 0.925676 0.307612
outer loop
vertex 0.073530 -0.046436 1.097682
vertex 0.067274 -0.035953 1.061657
vertex 0.066327 -0.048485 1.098692
endloop
endfacet
facet normal -0.265067 0.915390 0.302985
outer loop
vertex 0.066327 -0.048485 1.098692
vertex 0.067274 -0.035953 1.061657
vertex 0.059098 -0.050190 1.097519
endloop
endfacet
facet normal -0.250496 0.955679 0.154691
outer loop
vertex 0.059098 -0.050190 1.097519
vertex 0.044869 -0.052961 1.091593
vertex 0.051869 -0.051895 1.096346
endloop
endfacet
facet normal -0.236087 0.962741 0.131879
outer loop
vertex 0.044869 -0.052961 1.091593
vertex 0.053179 -0.046226 1.057303
vertex 0.037869 -0.054026 1.086840
endloop
endfacet
facet normal 0.084031 0.976359 0.199152
outer loop
vertex 0.037869 -0.054026 1.086840
vertex 0.049656 -0.048794 1.056214
vertex 0.032383 -0.052276 1.080573
endloop
endfacet
facet normal 0.261336 0.964394 0.040581
outer loop
vertex 0.032383 -0.052276 1.080573
vertex 0.042609 -0.053930 1.054037
vertex 0.026896 -0.050525 1.074306
endloop
endfacet
facet normal 0.637861 0.754814 0.152936
outer loop
vertex 0.026896 -0.050525 1.074306
vertex 0.039085 -0.056498 1.052949
vertex 0.023062 -0.046271 1.069299
endloop
endfacet
facet normal -0.518408 0.817544 -0.250748
outer loop
vertex 0.032383 -0.052276 1.080573
vertex 0.046132 -0.051362 1.055126
vertex 0.042609 -0.053930 1.054037
endloop
endfacet
facet normal 0.729843 0.683269 0.021741
outer loop
vertex 0.023062 -0.046271 1.069299
vertex 0.035561 -0.059066 1.051860
vertex 0.019228 -0.042016 1.064291
endloop
endfacet
facet normal 0.853880 0.483772 -0.191970
outer loop
vertex 0.019228 -0.042016 1.064291
vertex 0.028514 -0.064203 1.049683
vertex 0.015676 -0.037811 1.059090
endloop
endfacet
facet normal -0.111464 0.513518 -0.850808
outer loop
vertex 0.035561 -0.059066 1.051860
vertex 0.032038 -0.061635 1.050772
vertex 0.019228 -0.042016 1.064291
endloop
endfacet
facet normal 0.876831 0.385927 -0.286755
outer loop
vertex 0.015676 -0.037811 1.059090
vertex 0.024991 -0.066771 1.048595
vertex 0.012124 -0.033605 1.053889
endloop
endfacet
facet normal -0.425440 0.778963 -0.460671
outer loop
vertex 0.042609 -0.053930 1.054037
vertex 0.039085 -0.056498 1.052949
vertex 0.026896 -0.050525 1.074306
endloop
endfacet
facet normal -0.570846 0.817142 -0.080089
outer loop
vertex 0.037869 -0.054026 1.086840
vertex 0.053179 -0.046226 1.057303
vertex 0.049656 -0.048794 1.056214
endloop
endfacet
facet normal -0.272594 0.937519 0.216217
outer loop
vertex 0.059098 -0.050190 1.097519
vertex 0.060227 -0.041089 1.059480
vertex 0.044869 -0.052961 1.091593
endloop
endfacet
facet normal -0.591927 0.805856 0.014823
outer loop
vertex 0.056703 -0.043657 1.058392
vertex 0.053179 -0.046226 1.057303
vertex 0.044869 -0.052961 1.091593
endloop
endfacet
facet normal -0.153232 0.875217 0.458820
outer loop
vertex 0.087406 -0.041909 1.094173
vertex 0.077845 -0.028248 1.064923
vertex 0.080733 -0.044386 1.096671
endloop
endfacet
facet normal -0.196706 0.891987 0.407020
outer loop
vertex 0.080733 -0.044386 1.096671
vertex 0.074321 -0.030816 1.063834
vertex 0.073530 -0.046436 1.097682
endloop
endfacet
facet normal -0.175003 0.746233 0.642269
outer loop
vertex 0.099728 -0.035480 1.088625
vertex 0.088415 -0.020544 1.068188
vertex 0.094078 -0.039431 1.091676
endloop
endfacet
facet normal -0.087728 0.814433 0.573588
outer loop
vertex 0.094078 -0.039431 1.091676
vertex 0.084892 -0.023112 1.067100
vertex 0.087406 -0.041909 1.094173
endloop
endfacet
facet normal -0.617291 0.677225 0.400398
outer loop
vertex 0.077845 -0.028248 1.064923
vertex 0.074321 -0.030816 1.063834
vertex 0.080733 -0.044386 1.096671
endloop
endfacet
facet normal -0.182998 0.552027 0.813498
outer loop
vertex 0.109030 -0.026437 1.082940
vertex 0.098986 -0.012839 1.071454
vertex 0.105377 -0.031529 1.085574
endloop
endfacet
facet normal -0.062333 0.664321 0.744844
outer loop
vertex 0.105377 -0.031529 1.085574
vertex 0.095463 -0.015407 1.070365
vertex 0.099728 -0.035480 1.088625
endloop
endfacet
facet normal -0.562031 0.488052 0.667778
outer loop
vertex 0.095463 -0.015407 1.070365
vertex 0.091939 -0.017976 1.069277
vertex 0.099728 -0.035480 1.088625
endloop
endfacet
facet normal -0.228726 0.277489 0.933105
outer loop
vertex 0.114159 -0.015874 1.079041
vertex 0.109557 -0.005135 1.074719
vertex 0.112683 -0.021344 1.080306
endloop
endfacet
facet normal 0.020732 0.447571 0.894008
outer loop
vertex 0.112683 -0.021344 1.080306
vertex 0.106033 -0.007703 1.073631
vertex 0.109030 -0.026437 1.082940
endloop
endfacet
facet normal -0.487213 0.324881 0.810602
outer loop
vertex 0.102510 -0.010271 1.072542
vertex 0.098986 -0.012839 1.071454
vertex 0.109030 -0.026437 1.082940
endloop
endfacet
facet normal -0.032471 0.233495 0.971816
outer loop
vertex 0.115634 -0.010403 1.077776
vertex 0.113081 -0.002566 1.075808
vertex 0.114159 -0.015874 1.079041
endloop
endfacet
facet normal -0.487221 0.324880 0.810598
outer loop
vertex 0.109030 -0.026437 1.082940
vertex 0.106033 -0.007703 1.073631
vertex 0.102510 -0.010271 1.072542
endloop
endfacet
facet normal -0.521036 0.393912 0.757202
outer loop
vertex 0.098986 -0.012839 1.071454
vertex 0.095463 -0.015407 1.070365
vertex 0.105377 -0.031529 1.085574
endloop
endfacet
facet normal -0.591922 0.805859 0.014823
outer loop
vertex 0.044869 -0.052961 1.091593
vertex 0.060227 -0.041089 1.059480
vertex 0.056703 -0.043657 1.058392
endloop
endfacet
facet normal -0.613850 0.771683 0.166414
outer loop
vertex 0.067274 -0.035953 1.061657
vertex 0.063750 -0.038521 1.060569
vertex 0.059098 -0.050190 1.097519
endloop
endfacet
facet normal -0.518399 0.817549 -0.250751
outer loop
vertex 0.049656 -0.048794 1.056214
vertex 0.046132 -0.051362 1.055126
vertex 0.032383 -0.052276 1.080573
endloop
endfacet
facet normal -0.015156 0.189194 -0.981823
outer loop
vertex 0.011207 -0.042540 1.052181
vertex 0.017943 -0.071907 1.046418
vertex 0.010290 -0.051474 1.050474
endloop
endfacet
facet normal 0.160341 0.242768 -0.956742
outer loop
vertex 0.010290 -0.051474 1.050474
vertex 0.014420 -0.074476 1.045329
vertex 0.008773 -0.059253 1.048246
endloop
endfacet
facet normal -0.275532 0.670125 -0.689213
outer loop
vertex 0.023062 -0.046271 1.069299
vertex 0.039085 -0.056498 1.052949
vertex 0.035561 -0.059066 1.051860
endloop
endfacet
facet normal 0.033747 0.184273 -0.982296
outer loop
vertex 0.012124 -0.033605 1.053889
vertex 0.021467 -0.069339 1.047506
vertex 0.011207 -0.042540 1.052181
endloop
endfacet
facet normal 0.124235 0.237780 -0.963341
outer loop
vertex 0.010290 -0.051474 1.050474
vertex 0.017943 -0.071907 1.046418
vertex 0.014420 -0.074476 1.045329
endloop
endfacet
facet normal 0.185849 0.236867 -0.953601
outer loop
vertex 0.008773 -0.059253 1.048246
vertex 0.010896 -0.077044 1.044241
vertex 0.007256 -0.067032 1.046018
endloop
endfacet
facet normal 0.128452 0.232374 -0.964107
outer loop
vertex 0.014420 -0.074476 1.045329
vertex 0.010896 -0.077044 1.044241
vertex 0.008773 -0.059253 1.048246
endloop
endfacet
facet normal -0.620631 0.717373 0.316535
outer loop
vertex 0.073530 -0.046436 1.097682
vertex 0.070797 -0.033385 1.062746
vertex 0.067274 -0.035953 1.061657
endloop
endfacet
facet normal -0.620640 0.717366 0.316532
outer loop
vertex 0.074321 -0.030816 1.063834
vertex 0.070797 -0.033385 1.062746
vertex 0.073530 -0.046436 1.097682
endloop
endfacet
facet normal 0.137023 0.221214 -0.965551
outer loop
vertex 0.007256 -0.067032 1.046018
vertex 0.007373 -0.079612 1.043152
vertex 0.005553 -0.074606 1.044041
endloop
endfacet
facet normal 0.137082 0.221202 -0.965546
outer loop
vertex 0.005553 -0.074606 1.044041
vertex 0.007373 -0.079612 1.043152
vertex 0.003849 -0.082180 1.042064
endloop
endfacet
facet normal 0.137064 0.221212 -0.965546
outer loop
vertex 0.007373 -0.079612 1.043152
vertex 0.007256 -0.067032 1.046018
vertex 0.010896 -0.077044 1.044241
endloop
endfacet
facet normal 0.137264 0.220974 -0.965572
outer loop
vertex 0.017943 -0.071907 1.046418
vertex 0.011207 -0.042540 1.052181
vertex 0.021467 -0.069339 1.047506
endloop
endfacet
facet normal 0.145106 0.210619 -0.966739
outer loop
vertex 0.021467 -0.069339 1.047506
vertex 0.012124 -0.033605 1.053889
vertex 0.024991 -0.066771 1.048595
endloop
endfacet
facet normal -0.367211 0.112297 0.923334
outer loop
vertex 0.116119 -0.005201 1.077336
vertex 0.113081 -0.002566 1.075808
vertex 0.115634 -0.010403 1.077776
endloop
endfacet
facet normal -0.586985 0.555923 0.588556
outer loop
vertex 0.094078 -0.039431 1.091676
vertex 0.088415 -0.020544 1.068188
vertex 0.084892 -0.023112 1.067100
endloop
endfacet
facet normal -0.367047 0.112338 0.923394
outer loop
vertex 0.113081 -0.002566 1.075808
vertex 0.116119 -0.005201 1.077336
vertex 0.116604 0.000000 1.076896
endloop
endfacet
facet normal -0.430126 0.218918 0.875824
outer loop
vertex 0.106033 -0.007703 1.073631
vertex 0.112683 -0.021344 1.080306
vertex 0.109557 -0.005135 1.074719
endloop
endfacet
facet normal -0.409967 0.183857 0.893378
outer loop
vertex 0.109557 -0.005135 1.074719
vertex 0.114159 -0.015874 1.079041
vertex 0.113081 -0.002566 1.075808
endloop
endfacet
facet normal 0.033912 0.350152 -0.936079
outer loop
vertex 0.024991 -0.066771 1.048595
vertex 0.015676 -0.037811 1.059090
vertex 0.028514 -0.064203 1.049683
endloop
endfacet
facet normal -0.562025 0.488056 0.667779
outer loop
vertex 0.088415 -0.020544 1.068188
vertex 0.099728 -0.035480 1.088625
vertex 0.091939 -0.017976 1.069277
endloop
endfacet
facet normal -0.607151 0.625182 0.490425
outer loop
vertex 0.077845 -0.028248 1.064923
vertex 0.087406 -0.041909 1.094173
vertex 0.081368 -0.025680 1.066011
endloop
endfacet
facet normal -0.607152 0.625179 0.490426
outer loop
vertex 0.081368 -0.025680 1.066011
vertex 0.087406 -0.041909 1.094173
vertex 0.084892 -0.023112 1.067100
endloop
endfacet
facet normal -0.613859 0.771676 0.166414
outer loop
vertex 0.060227 -0.041089 1.059480
vertex 0.059098 -0.050190 1.097519
vertex 0.063750 -0.038521 1.060569
endloop
endfacet
facet normal -0.361752 -0.580206 -0.729724
outer loop
vertex 0.001061 -0.226546 1.035117
vertex 0.016609 -0.197585 1.004382
vertex 0.014057 -0.234142 1.034714
endloop
endfacet
facet normal -0.424768 -0.560323 -0.711062
outer loop
vertex 0.014057 -0.234142 1.034714
vertex 0.016609 -0.197585 1.004382
vertex 0.027195 -0.237372 1.029411
endloop
endfacet
facet normal -0.487030 -0.554213 -0.675018
outer loop
vertex 0.027195 -0.237372 1.029411
vertex 0.016609 -0.197585 1.004382
vertex 0.038242 -0.236582 1.020792
endloop
endfacet
facet normal -0.643564 -0.571325 -0.509326
outer loop
vertex 0.038242 -0.236582 1.020792
vertex 0.016609 -0.197585 1.004382
vertex 0.046481 -0.235097 1.008716
endloop
endfacet
facet normal -0.639238 -0.568846 -0.517484
outer loop
vertex 0.046481 -0.235097 1.008716
vertex 0.016609 -0.197585 1.004382
vertex 0.054470 -0.233021 0.996565
endloop
endfacet
facet normal -0.575636 -0.466941 -0.671274
outer loop
vertex 0.016609 -0.197585 1.004382
vertex -0.019040 -0.179307 1.022238
vertex -0.021252 -0.162150 1.012200
endloop
endfacet
facet normal -0.319416 0.265628 -0.909624
outer loop
vertex -0.021520 -0.193583 1.018940
vertex -0.019040 -0.179307 1.022238
vertex 0.016609 -0.197585 1.004382
endloop
endfacet
facet normal -0.339346 -0.601105 -0.723544
outer loop
vertex -0.021520 -0.193583 1.018940
vertex 0.016609 -0.197585 1.004382
vertex -0.017982 -0.205093 1.026843
endloop
endfacet
facet normal -0.347475 -0.586891 -0.731314
outer loop
vertex -0.017982 -0.205093 1.026843
vertex 0.016609 -0.197585 1.004382
vertex -0.009967 -0.216485 1.032177
endloop
endfacet
facet normal -0.343895 -0.590337 -0.730232
outer loop
vertex -0.009967 -0.216485 1.032177
vertex 0.016609 -0.197585 1.004382
vertex 0.001061 -0.226546 1.035117
endloop
endfacet
endsolid Exported from Blender-4.0.2
