solid Exported from Blender-4.0.2
facet normal -0.153834 -0.027279 0.987720
outer loop
vertex 0.837642 -0.064205 1.097893
vertex 0.839985 -0.048485 1.098692
vertex 0.832756 -0.050190 1.097519
endloop
endfacet
facet normal -0.153847 -0.027278 0.987718
outer loop
vertex 0.837642 -0.064205 1.097893
vertex 0.832756 -0.050190 1.097519
vertex 0.825527 -0.051895 1.096346
endloop
endfacet
facet normal 0.146289 -0.026582 0.988885
outer loop
vertex 0.852440 -0.062193 1.096481
vertex 0.854391 -0.044386 1.096671
vertex 0.847188 -0.046436 1.097682
endloop
endfacet
facet normal 0.146303 -0.026581 0.988883
outer loop
vertex 0.852440 -0.062193 1.096481
vertex 0.847188 -0.046436 1.097682
vertex 0.839985 -0.048485 1.098692
endloop
endfacet
facet normal 0.103672 -0.065895 0.992426
outer loop
vertex 0.852440 -0.062193 1.096481
vertex 0.839985 -0.048485 1.098692
vertex 0.837642 -0.064205 1.097893
endloop
endfacet
facet normal 0.118596 -0.187943 0.974993
outer loop
vertex 0.835207 -0.079437 1.095253
vertex 0.852440 -0.062193 1.096481
vertex 0.837642 -0.064205 1.097893
endloop
endfacet
facet normal 0.366290 -0.050045 0.929154
outer loop
vertex 0.852440 -0.062193 1.096481
vertex 0.867736 -0.039431 1.091676
vertex 0.861063 -0.041909 1.094173
endloop
endfacet
facet normal 0.366388 -0.050058 0.929115
outer loop
vertex 0.852440 -0.062193 1.096481
vertex 0.861063 -0.041909 1.094173
vertex 0.854391 -0.044386 1.096671
endloop
endfacet
facet normal 0.340628 -0.181215 0.922569
outer loop
vertex 0.850198 -0.078437 1.094118
vertex 0.866667 -0.060758 1.091510
vertex 0.852440 -0.062193 1.096481
endloop
endfacet
facet normal 0.331916 -0.023975 0.943004
outer loop
vertex 0.852440 -0.062193 1.096481
vertex 0.866667 -0.060758 1.091510
vertex 0.867736 -0.039431 1.091676
endloop
endfacet
facet normal 0.084848 -0.154891 0.984281
outer loop
vertex 0.835207 -0.079437 1.095253
vertex 0.850198 -0.078437 1.094118
vertex 0.852440 -0.062193 1.096481
endloop
endfacet
facet normal 0.435437 -0.028824 0.899758
outer loop
vertex 0.880090 -0.046778 1.085462
vertex 0.867736 -0.039431 1.091676
vertex 0.866667 -0.060758 1.091510
endloop
endfacet
facet normal 0.461215 0.025393 0.886925
outer loop
vertex 0.867736 -0.039431 1.091676
vertex 0.880090 -0.046778 1.085462
vertex 0.873385 -0.035480 1.088625
endloop
endfacet
facet normal 0.461229 0.025393 0.886918
outer loop
vertex 0.880090 -0.046778 1.085462
vertex 0.879035 -0.031529 1.085574
vertex 0.873385 -0.035480 1.088625
endloop
endfacet
facet normal 0.620899 -0.040461 0.782846
outer loop
vertex 0.896207 -0.025215 1.072281
vertex 0.886341 -0.021344 1.080306
vertex 0.882688 -0.026437 1.082940
endloop
endfacet
facet normal 0.620899 -0.040478 0.782845
outer loop
vertex 0.896207 -0.025215 1.072281
vertex 0.882688 -0.026437 1.082940
vertex 0.879035 -0.031529 1.085574
endloop
endfacet
facet normal 0.596278 0.063195 0.800287
outer loop
vertex 0.896207 -0.025215 1.072281
vertex 0.879035 -0.031529 1.085574
vertex 0.892765 -0.041037 1.076095
endloop
endfacet
facet normal 0.583851 0.034433 0.811130
outer loop
vertex 0.892765 -0.041037 1.076095
vertex 0.879035 -0.031529 1.085574
vertex 0.880090 -0.046778 1.085462
endloop
endfacet
facet normal 0.611591 -0.063559 0.788617
outer loop
vertex 0.892718 -0.060125 1.074593
vertex 0.892765 -0.041037 1.076095
vertex 0.880090 -0.046778 1.085462
endloop
endfacet
facet normal 0.742101 0.000134 0.670288
outer loop
vertex 0.906102 -0.027195 1.061326
vertex 0.896207 -0.025215 1.072281
vertex 0.892765 -0.041037 1.076095
endloop
endfacet
facet normal 0.739724 0.005217 0.672891
outer loop
vertex 0.906102 -0.027195 1.061326
vertex 0.892765 -0.041037 1.076095
vertex 0.904912 -0.043021 1.062757
endloop
endfacet
facet normal 0.730791 -0.081737 0.677690
outer loop
vertex 0.892765 -0.041037 1.076095
vertex 0.903635 -0.059869 1.062102
vertex 0.904912 -0.043021 1.062757
endloop
endfacet
facet normal 0.752416 -0.053510 0.656511
outer loop
vertex 0.892765 -0.041037 1.076095
vertex 0.892718 -0.060125 1.074593
vertex 0.903635 -0.059869 1.062102
endloop
endfacet
facet normal 0.610415 -0.065288 0.789387
outer loop
vertex 0.892718 -0.060125 1.074593
vertex 0.880090 -0.046778 1.085462
vertex 0.879967 -0.062015 1.084297
endloop
endfacet
facet normal 0.742893 -0.176688 0.645672
outer loop
vertex 0.892718 -0.060125 1.074593
vertex 0.901491 -0.076101 1.060127
vertex 0.903635 -0.059869 1.062102
endloop
endfacet
facet normal 0.612325 -0.186683 0.768250
outer loop
vertex 0.890829 -0.076535 1.072111
vertex 0.892718 -0.060125 1.074593
vertex 0.879967 -0.062015 1.084297
endloop
endfacet
facet normal 0.737763 -0.183190 0.649728
outer loop
vertex 0.892718 -0.060125 1.074593
vertex 0.890829 -0.076535 1.072111
vertex 0.901491 -0.076101 1.060127
endloop
endfacet
facet normal 0.706536 -0.273732 0.652593
outer loop
vertex 0.890829 -0.076535 1.072111
vertex 0.887916 -0.091886 1.068826
vertex 0.898606 -0.091643 1.057354
endloop
endfacet
facet normal 0.728030 -0.249096 0.638689
outer loop
vertex 0.890829 -0.076535 1.072111
vertex 0.898606 -0.091643 1.057354
vertex 0.901491 -0.076101 1.060127
endloop
endfacet
facet normal 0.592214 -0.274501 0.757583
outer loop
vertex 0.887916 -0.091886 1.068826
vertex 0.890829 -0.076535 1.072111
vertex 0.878287 -0.076994 1.081749
endloop
endfacet
facet normal 0.601708 -0.199057 0.773514
outer loop
vertex 0.890829 -0.076535 1.072111
vertex 0.879967 -0.062015 1.084297
vertex 0.878287 -0.076994 1.081749
endloop
endfacet
facet normal 0.458652 -0.295450 0.838062
outer loop
vertex 0.861920 -0.092600 1.085205
vertex 0.878287 -0.076994 1.081749
vertex 0.864666 -0.077416 1.089055
endloop
endfacet
facet normal 0.469044 -0.183661 0.863867
outer loop
vertex 0.866667 -0.060758 1.091510
vertex 0.864666 -0.077416 1.089055
vertex 0.878287 -0.076994 1.081749
endloop
endfacet
facet normal 0.452663 -0.198634 0.869276
outer loop
vertex 0.866667 -0.060758 1.091510
vertex 0.878287 -0.076994 1.081749
vertex 0.879967 -0.062015 1.084297
endloop
endfacet
facet normal 0.457955 -0.294517 0.838771
outer loop
vertex 0.861920 -0.092600 1.085205
vertex 0.875435 -0.091587 1.078182
vertex 0.878287 -0.076994 1.081749
endloop
endfacet
facet normal 0.567877 -0.298481 0.767089
outer loop
vertex 0.887916 -0.091886 1.068826
vertex 0.878287 -0.076994 1.081749
vertex 0.875435 -0.091587 1.078182
endloop
endfacet
facet normal 0.453108 -0.344340 0.822267
outer loop
vertex 0.875435 -0.091587 1.078182
vertex 0.861920 -0.092600 1.085205
vertex 0.858799 -0.107080 1.080861
endloop
endfacet
facet normal 0.454006 -0.345505 0.821283
outer loop
vertex 0.875435 -0.091587 1.078182
vertex 0.858799 -0.107080 1.080861
vertex 0.871965 -0.105907 1.074076
endloop
endfacet
facet normal 0.556298 -0.350791 0.753311
outer loop
vertex 0.871965 -0.105907 1.074076
vertex 0.887916 -0.091886 1.068826
vertex 0.875435 -0.091587 1.078182
endloop
endfacet
facet normal 0.453075 -0.354746 0.817850
outer loop
vertex 0.855540 -0.121257 1.076517
vertex 0.871965 -0.105907 1.074076
vertex 0.858799 -0.107080 1.080861
endloop
endfacet
facet normal 0.548616 -0.337767 0.764809
outer loop
vertex 0.871965 -0.105907 1.074076
vertex 0.884301 -0.106593 1.064924
vertex 0.887916 -0.091886 1.068826
endloop
endfacet
facet normal 0.540272 -0.369661 0.755947
outer loop
vertex 0.868261 -0.120106 1.069780
vertex 0.884301 -0.106593 1.064924
vertex 0.871965 -0.105907 1.074076
endloop
endfacet
facet normal 0.461301 -0.365015 0.808681
outer loop
vertex 0.855540 -0.121257 1.076517
vertex 0.868261 -0.120106 1.069780
vertex 0.871965 -0.105907 1.074076
endloop
endfacet
facet normal 0.539026 -0.367464 0.757906
outer loop
vertex 0.868261 -0.120106 1.069780
vertex 0.880407 -0.120945 1.060735
vertex 0.884301 -0.106593 1.064924
endloop
endfacet
facet normal 0.540111 -0.363552 0.759019
outer loop
vertex 0.880407 -0.120945 1.060735
vertex 0.868261 -0.120106 1.069780
vertex 0.864634 -0.134347 1.065540
endloop
endfacet
facet normal 0.484386 -0.360672 0.797048
outer loop
vertex 0.868261 -0.120106 1.069780
vertex 0.852392 -0.135378 1.072513
vertex 0.864634 -0.134347 1.065540
endloop
endfacet
facet normal 0.464370 -0.335883 0.819477
outer loop
vertex 0.868261 -0.120106 1.069780
vertex 0.855540 -0.121257 1.076517
vertex 0.852392 -0.135378 1.072513
endloop
endfacet
facet normal 0.342739 -0.326208 0.880976
outer loop
vertex 0.855540 -0.121257 1.076517
vertex 0.839154 -0.136202 1.077358
vertex 0.852392 -0.135378 1.072513
endloop
endfacet
facet normal 0.344934 -0.287362 0.893557
outer loop
vertex 0.839154 -0.136202 1.077358
vertex 0.849509 -0.149927 1.068947
vertex 0.852392 -0.135378 1.072513
endloop
endfacet
facet normal 0.487562 -0.334342 0.806535
outer loop
vertex 0.852392 -0.135378 1.072513
vertex 0.857329 -0.149287 1.063763
vertex 0.864634 -0.134347 1.065540
endloop
endfacet
facet normal 0.544054 -0.299887 0.783628
outer loop
vertex 0.852392 -0.135378 1.072513
vertex 0.849509 -0.149927 1.068947
vertex 0.857329 -0.149287 1.063763
endloop
endfacet
facet normal 0.516460 -0.460060 0.722229
outer loop
vertex 0.849509 -0.149927 1.068947
vertex 0.853056 -0.157600 1.061523
vertex 0.857329 -0.149287 1.063763
endloop
endfacet
facet normal 0.367133 -0.553570 0.747512
outer loop
vertex 0.849509 -0.149927 1.068947
vertex 0.833678 -0.162833 1.067165
vertex 0.853056 -0.157600 1.061523
endloop
endfacet
facet normal 0.337435 -0.522079 0.783308
outer loop
vertex 0.836637 -0.150629 1.074024
vertex 0.833678 -0.162833 1.067165
vertex 0.849509 -0.149927 1.068947
endloop
endfacet
facet normal 0.366004 -0.269688 0.890679
outer loop
vertex 0.839154 -0.136202 1.077358
vertex 0.836637 -0.150629 1.074024
vertex 0.849509 -0.149927 1.068947
endloop
endfacet
facet normal -0.159483 0.033497 0.986632
outer loop
vertex 0.813572 -0.165561 1.070803
vertex 0.836637 -0.150629 1.074024
vertex 0.817908 -0.150077 1.070978
endloop
endfacet
facet normal -0.163041 -0.195061 0.967144
outer loop
vertex 0.817908 -0.150077 1.070978
vertex 0.836637 -0.150629 1.074024
vertex 0.839154 -0.136202 1.077358
endloop
endfacet
facet normal 0.219837 -0.517940 0.826686
outer loop
vertex 0.836637 -0.150629 1.074024
vertex 0.813572 -0.165561 1.070803
vertex 0.833678 -0.162833 1.067165
endloop
endfacet
facet normal -0.249571 0.058953 0.966560
outer loop
vertex 0.813572 -0.165561 1.070803
vertex 0.817908 -0.150077 1.070978
vertex 0.794926 -0.165821 1.066004
endloop
endfacet
facet normal -0.237537 -0.256636 0.936864
outer loop
vertex 0.808682 -0.180024 1.065601
vertex 0.813572 -0.165561 1.070803
vertex 0.794926 -0.165821 1.066004
endloop
endfacet
facet normal 0.202040 -0.215055 0.955474
outer loop
vertex 0.824870 -0.178815 1.065430
vertex 0.833678 -0.162833 1.067165
vertex 0.813572 -0.165561 1.070803
endloop
endfacet
facet normal 0.035945 -0.348940 0.936455
outer loop
vertex 0.824870 -0.178815 1.065430
vertex 0.813572 -0.165561 1.070803
vertex 0.808682 -0.180024 1.065601
endloop
endfacet
facet normal 0.426004 -0.375242 0.823234
outer loop
vertex 0.824870 -0.178815 1.065430
vertex 0.835275 -0.192289 1.053904
vertex 0.838639 -0.177834 1.058752
endloop
endfacet
facet normal 0.431006 -0.328732 0.840339
outer loop
vertex 0.833678 -0.162833 1.067165
vertex 0.824870 -0.178815 1.065430
vertex 0.838639 -0.177834 1.058752
endloop
endfacet
facet normal 0.418086 -0.382146 0.824117
outer loop
vertex 0.824870 -0.178815 1.065430
vertex 0.822068 -0.193563 1.060013
vertex 0.835275 -0.192289 1.053904
endloop
endfacet
facet normal 0.036050 -0.350595 0.935833
outer loop
vertex 0.822068 -0.193563 1.060013
vertex 0.824870 -0.178815 1.065430
vertex 0.808682 -0.180024 1.065601
endloop
endfacet
facet normal 0.413636 -0.423641 0.805874
outer loop
vertex 0.822068 -0.193563 1.060013
vertex 0.831447 -0.206489 1.048404
vertex 0.835275 -0.192289 1.053904
endloop
endfacet
facet normal 0.146192 -0.337911 0.929755
outer loop
vertex 0.819167 -0.207398 1.055441
vertex 0.822068 -0.193563 1.060013
vertex 0.806829 -0.193955 1.062267
endloop
endfacet
facet normal 0.147964 -0.248765 0.957195
outer loop
vertex 0.822068 -0.193563 1.060013
vertex 0.808682 -0.180024 1.065601
vertex 0.806829 -0.193955 1.062267
endloop
endfacet
facet normal 0.483181 -0.364397 0.796085
outer loop
vertex 0.822068 -0.193563 1.060013
vertex 0.819167 -0.207398 1.055441
vertex 0.831447 -0.206489 1.048404
endloop
endfacet
facet normal 0.449465 -0.535196 0.715225
outer loop
vertex 0.819167 -0.207398 1.055441
vertex 0.826511 -0.219937 1.041443
vertex 0.831447 -0.206489 1.048404
endloop
endfacet
facet normal 0.165201 -0.454078 0.875512
outer loop
vertex 0.814999 -0.220730 1.049313
vertex 0.819167 -0.207398 1.055441
vertex 0.804353 -0.206899 1.058495
endloop
endfacet
facet normal 0.182219 -0.307049 0.934086
outer loop
vertex 0.819167 -0.207398 1.055441
vertex 0.806829 -0.193955 1.062267
vertex 0.804353 -0.206899 1.058495
endloop
endfacet
facet normal 0.515889 -0.485651 0.705692
outer loop
vertex 0.819167 -0.207398 1.055441
vertex 0.814999 -0.220730 1.049313
vertex 0.826511 -0.219937 1.041443
endloop
endfacet
facet normal 0.429045 -0.712017 0.555834
outer loop
vertex 0.808595 -0.231442 1.040534
vertex 0.826511 -0.219937 1.041443
vertex 0.814999 -0.220730 1.049313
endloop
endfacet
facet normal 0.127162 -0.681283 0.720891
outer loop
vertex 0.795153 -0.228784 1.045202
vertex 0.814999 -0.220730 1.049313
vertex 0.800917 -0.219442 1.053014
endloop
endfacet
facet normal 0.191137 -0.436531 0.879151
outer loop
vertex 0.814999 -0.220730 1.049313
vertex 0.804353 -0.206899 1.058495
vertex 0.800917 -0.219442 1.053014
endloop
endfacet
facet normal 0.121077 -0.671507 0.731039
outer loop
vertex 0.795153 -0.228784 1.045202
vertex 0.808595 -0.231442 1.040534
vertex 0.814999 -0.220730 1.049313
endloop
endfacet
facet normal -0.014459 -0.886238 0.463005
outer loop
vertex 0.808595 -0.231442 1.040534
vertex 0.795153 -0.228784 1.045202
vertex 0.787715 -0.234142 1.034714
endloop
endfacet
facet normal -0.264203 -0.517548 0.813843
outer loop
vertex 0.783519 -0.218876 1.047726
vertex 0.795153 -0.228784 1.045202
vertex 0.800917 -0.219442 1.053014
endloop
endfacet
facet normal -0.396762 -0.634788 0.663041
outer loop
vertex 0.774719 -0.226546 1.035117
vertex 0.795153 -0.228784 1.045202
vertex 0.783519 -0.218876 1.047726
endloop
endfacet
facet normal -0.381295 -0.685272 0.620497
outer loop
vertex 0.774719 -0.226546 1.035117
vertex 0.787715 -0.234142 1.034714
vertex 0.795153 -0.228784 1.045202
endloop
endfacet
facet normal -0.020962 -0.876102 0.481670
outer loop
vertex 0.808595 -0.231442 1.040534
vertex 0.787715 -0.234142 1.034714
vertex 0.800853 -0.237372 1.029411
endloop
endfacet
facet normal 0.278804 -0.914419 0.293439
outer loop
vertex 0.819393 -0.231048 1.031502
vertex 0.808595 -0.231442 1.040534
vertex 0.800853 -0.237372 1.029411
endloop
endfacet
facet normal 0.282020 -0.918467 0.277277
outer loop
vertex 0.819393 -0.231048 1.031502
vertex 0.800853 -0.237372 1.029411
vertex 0.811900 -0.236582 1.020792
endloop
endfacet
facet normal -0.578000 -0.474168 0.664139
outer loop
vertex 0.783519 -0.218876 1.047726
vertex 0.769106 -0.209561 1.041833
vertex 0.763691 -0.216485 1.032177
endloop
endfacet
facet normal -0.757000 -0.249923 0.603729
outer loop
vertex 0.755676 -0.205093 1.026843
vertex 0.763691 -0.216485 1.032177
vertex 0.769106 -0.209561 1.041833
endloop
endfacet
facet normal -0.585560 -0.443577 0.678497
outer loop
vertex 0.783519 -0.218876 1.047726
vertex 0.763691 -0.216485 1.032177
vertex 0.774719 -0.226546 1.035117
endloop
endfacet
facet normal -0.752373 -0.060917 0.655915
outer loop
vertex 0.774921 -0.196135 1.049750
vertex 0.755676 -0.205093 1.026843
vertex 0.769106 -0.209561 1.041833
endloop
endfacet
facet normal -0.657128 -0.326087 0.679595
outer loop
vertex 0.774921 -0.196135 1.049750
vertex 0.760201 -0.193798 1.036638
vertex 0.755676 -0.205093 1.026843
endloop
endfacet
facet normal -0.909973 0.004988 0.414638
outer loop
vertex 0.760201 -0.193798 1.036638
vertex 0.752138 -0.193583 1.018940
vertex 0.755676 -0.205093 1.026843
endloop
endfacet
facet normal -0.648892 -0.121517 0.751114
outer loop
vertex 0.776014 -0.180545 1.052443
vertex 0.761544 -0.180028 1.040026
vertex 0.760201 -0.193798 1.036638
endloop
endfacet
facet normal -0.670078 -0.080488 0.737914
outer loop
vertex 0.776014 -0.180545 1.052443
vertex 0.760201 -0.193798 1.036638
vertex 0.774921 -0.196135 1.049750
endloop
endfacet
facet normal -0.931832 0.001593 0.362888
outer loop
vertex 0.760201 -0.193798 1.036638
vertex 0.761544 -0.180028 1.040026
vertex 0.754618 -0.179307 1.022238
endloop
endfacet
facet normal -0.907977 0.061988 0.414410
outer loop
vertex 0.760201 -0.193798 1.036638
vertex 0.754618 -0.179307 1.022238
vertex 0.752138 -0.193583 1.018940
endloop
endfacet
facet normal -0.971579 0.013029 0.236358
outer loop
vertex 0.752406 -0.162150 1.012200
vertex 0.754618 -0.179307 1.022238
vertex 0.755904 -0.166287 1.026805
endloop
endfacet
facet normal -0.931767 -0.034749 0.361390
outer loop
vertex 0.761544 -0.180028 1.040026
vertex 0.755904 -0.166287 1.026805
vertex 0.754618 -0.179307 1.022238
endloop
endfacet
facet normal -0.939979 0.194678 0.280249
outer loop
vertex 0.761332 -0.152835 1.035667
vertex 0.752406 -0.162150 1.012200
vertex 0.755904 -0.166287 1.026805
endloop
endfacet
facet normal -0.936973 0.225559 0.266841
outer loop
vertex 0.761332 -0.152835 1.035667
vertex 0.761001 -0.143433 1.026560
vertex 0.752406 -0.162150 1.012200
endloop
endfacet
facet normal -0.937135 0.226996 0.265050
outer loop
vertex 0.752406 -0.162150 1.012200
vertex 0.761001 -0.143433 1.026560
vertex 0.758995 -0.140096 1.016609
endloop
endfacet
facet normal -0.854752 0.217524 0.471256
outer loop
vertex 0.758995 -0.140096 1.016609
vertex 0.775626 -0.130285 1.042245
vertex 0.769829 -0.126004 1.029754
endloop
endfacet
facet normal -0.801615 0.499161 0.329015
outer loop
vertex 0.758995 -0.140096 1.016609
vertex 0.761001 -0.143433 1.026560
vertex 0.775626 -0.130285 1.042245
endloop
endfacet
facet normal -0.876213 0.009897 0.481823
outer loop
vertex 0.775626 -0.130285 1.042245
vertex 0.778417 -0.116517 1.047037
vertex 0.771131 -0.111745 1.033689
endloop
endfacet
facet normal -0.910603 -0.030589 0.412149
outer loop
vertex 0.775626 -0.130285 1.042245
vertex 0.771131 -0.111745 1.033689
vertex 0.769829 -0.126004 1.029754
endloop
endfacet
facet normal -0.865809 0.001345 0.500374
outer loop
vertex 0.778417 -0.116517 1.047037
vertex 0.775626 -0.130285 1.042245
vertex 0.783425 -0.135275 1.055753
endloop
endfacet
facet normal -0.801422 0.235610 0.549737
outer loop
vertex 0.761001 -0.143433 1.026560
vertex 0.783425 -0.135275 1.055753
vertex 0.775626 -0.130285 1.042245
endloop
endfacet
facet normal -0.655022 0.292089 0.696872
outer loop
vertex 0.778967 -0.147306 1.056605
vertex 0.795647 -0.136086 1.067581
vertex 0.783425 -0.135275 1.055753
endloop
endfacet
facet normal -0.696252 -0.057478 0.715492
outer loop
vertex 0.795647 -0.136086 1.067581
vertex 0.786254 -0.121207 1.059636
vertex 0.783425 -0.135275 1.055753
endloop
endfacet
facet normal -0.764196 0.322737 0.558431
outer loop
vertex 0.778967 -0.147306 1.056605
vertex 0.783425 -0.135275 1.055753
vertex 0.761332 -0.152835 1.035667
endloop
endfacet
facet normal -0.770139 0.429635 0.471487
outer loop
vertex 0.761001 -0.143433 1.026560
vertex 0.761332 -0.152835 1.035667
vertex 0.783425 -0.135275 1.055753
endloop
endfacet
facet normal -0.845130 0.022535 0.534086
outer loop
vertex 0.778417 -0.116517 1.047037
vertex 0.783425 -0.135275 1.055753
vertex 0.786254 -0.121207 1.059636
endloop
endfacet
facet normal -0.836631 0.063552 0.544068
outer loop
vertex 0.790102 -0.107517 1.063954
vertex 0.778417 -0.116517 1.047037
vertex 0.786254 -0.121207 1.059636
endloop
endfacet
facet normal -0.697311 -0.029881 0.716146
outer loop
vertex 0.798098 -0.122035 1.071134
vertex 0.790102 -0.107517 1.063954
vertex 0.786254 -0.121207 1.059636
endloop
endfacet
facet normal -0.697451 -0.058930 0.714206
outer loop
vertex 0.795647 -0.136086 1.067581
vertex 0.798098 -0.122035 1.071134
vertex 0.786254 -0.121207 1.059636
endloop
endfacet
facet normal -0.475358 -0.144513 0.867843
outer loop
vertex 0.815096 -0.108496 1.082699
vertex 0.801145 -0.108078 1.075127
vertex 0.798098 -0.122035 1.071134
endloop
endfacet
facet normal -0.711638 -0.045217 0.701089
outer loop
vertex 0.798098 -0.122035 1.071134
vertex 0.801145 -0.108078 1.075127
vertex 0.790102 -0.107517 1.063954
endloop
endfacet
facet normal -0.436023 -0.148388 0.887617
outer loop
vertex 0.795647 -0.136086 1.067581
vertex 0.812523 -0.122370 1.078164
vertex 0.798098 -0.122035 1.071134
endloop
endfacet
facet normal -0.432511 -0.206654 0.877626
outer loop
vertex 0.815096 -0.108496 1.082699
vertex 0.798098 -0.122035 1.071134
vertex 0.812523 -0.122370 1.078164
endloop
endfacet
facet normal -0.407716 -0.187816 0.893584
outer loop
vertex 0.795647 -0.136086 1.067581
vertex 0.810375 -0.136200 1.074277
vertex 0.812523 -0.122370 1.078164
endloop
endfacet
facet normal -0.226265 -0.230820 0.946322
outer loop
vertex 0.810375 -0.136200 1.074277
vertex 0.827353 -0.122480 1.081683
vertex 0.812523 -0.122370 1.078164
endloop
endfacet
facet normal -0.229963 -0.263570 0.936828
outer loop
vertex 0.830004 -0.108568 1.086338
vertex 0.815096 -0.108496 1.082699
vertex 0.812523 -0.122370 1.078164
endloop
endfacet
facet normal -0.224174 -0.270555 0.936240
outer loop
vertex 0.830004 -0.108568 1.086338
vertex 0.812523 -0.122370 1.078164
vertex 0.827353 -0.122480 1.081683
endloop
endfacet
facet normal -0.215796 -0.243405 0.945614
outer loop
vertex 0.810375 -0.136200 1.074277
vertex 0.825075 -0.136288 1.077609
vertex 0.827353 -0.122480 1.081683
endloop
endfacet
facet normal 0.030198 -0.287444 0.957321
outer loop
vertex 0.825075 -0.136288 1.077609
vertex 0.841910 -0.122190 1.081311
vertex 0.827353 -0.122480 1.081683
endloop
endfacet
facet normal 0.051094 -0.325636 0.944114
outer loop
vertex 0.827353 -0.122480 1.081683
vertex 0.844800 -0.108019 1.085727
vertex 0.830004 -0.108568 1.086338
endloop
endfacet
facet normal 0.030371 -0.303015 0.952502
outer loop
vertex 0.827353 -0.122480 1.081683
vertex 0.841910 -0.122190 1.081311
vertex 0.844800 -0.108019 1.085727
endloop
endfacet
facet normal 0.328949 -0.341451 0.880457
outer loop
vertex 0.841910 -0.122190 1.081311
vertex 0.858799 -0.107080 1.080861
vertex 0.844800 -0.108019 1.085727
endloop
endfacet
facet normal 0.332335 -0.345329 0.877668
outer loop
vertex 0.841910 -0.122190 1.081311
vertex 0.855540 -0.121257 1.076517
vertex 0.858799 -0.107080 1.080861
endloop
endfacet
facet normal 0.018802 -0.274893 0.961291
outer loop
vertex 0.825075 -0.136288 1.077609
vertex 0.839154 -0.136202 1.077358
vertex 0.841910 -0.122190 1.081311
endloop
endfacet
facet normal 0.333968 -0.316192 0.887968
outer loop
vertex 0.855540 -0.121257 1.076517
vertex 0.841910 -0.122190 1.081311
vertex 0.839154 -0.136202 1.077358
endloop
endfacet
facet normal 0.329280 -0.335734 0.882529
outer loop
vertex 0.861920 -0.092600 1.085205
vertex 0.844800 -0.108019 1.085727
vertex 0.858799 -0.107080 1.080861
endloop
endfacet
facet normal 0.050571 -0.303415 0.951515
outer loop
vertex 0.830004 -0.108568 1.086338
vertex 0.844800 -0.108019 1.085727
vertex 0.847623 -0.093565 1.090186
endloop
endfacet
facet normal 0.329982 -0.336534 0.881962
outer loop
vertex 0.861920 -0.092600 1.085205
vertex 0.847623 -0.093565 1.090186
vertex 0.844800 -0.108019 1.085727
endloop
endfacet
facet normal 0.332351 -0.287836 0.898161
outer loop
vertex 0.847623 -0.093565 1.090186
vertex 0.861920 -0.092600 1.085205
vertex 0.864666 -0.077416 1.089055
endloop
endfacet
facet normal 0.334286 -0.289979 0.896752
outer loop
vertex 0.847623 -0.093565 1.090186
vertex 0.864666 -0.077416 1.089055
vertex 0.850198 -0.078437 1.094118
endloop
endfacet
facet normal 0.071374 -0.325633 0.942798
outer loop
vertex 0.830004 -0.108568 1.086338
vertex 0.847623 -0.093565 1.090186
vertex 0.832664 -0.094166 1.091111
endloop
endfacet
facet normal 0.070020 -0.262089 0.962500
outer loop
vertex 0.832664 -0.094166 1.091111
vertex 0.847623 -0.093565 1.090186
vertex 0.850198 -0.078437 1.094118
endloop
endfacet
facet normal 0.091226 -0.284151 0.954430
outer loop
vertex 0.832664 -0.094166 1.091111
vertex 0.850198 -0.078437 1.094118
vertex 0.835207 -0.079437 1.095253
endloop
endfacet
facet normal -0.235046 -0.225312 0.945509
outer loop
vertex 0.817907 -0.094457 1.087373
vertex 0.832664 -0.094166 1.091111
vertex 0.835207 -0.079437 1.095253
endloop
endfacet
facet normal -0.231835 -0.265179 0.935912
outer loop
vertex 0.832664 -0.094166 1.091111
vertex 0.817907 -0.094457 1.087373
vertex 0.815096 -0.108496 1.082699
endloop
endfacet
facet normal -0.229703 -0.267677 0.935727
outer loop
vertex 0.832664 -0.094166 1.091111
vertex 0.815096 -0.108496 1.082699
vertex 0.830004 -0.108568 1.086338
endloop
endfacet
facet normal -0.523895 -0.114158 0.844099
outer loop
vertex 0.801145 -0.108078 1.075127
vertex 0.817907 -0.094457 1.087373
vertex 0.804406 -0.094111 1.079040
endloop
endfacet
facet normal -0.524707 -0.091852 0.846313
outer loop
vertex 0.807460 -0.080156 1.082448
vertex 0.804406 -0.094111 1.079040
vertex 0.817907 -0.094457 1.087373
endloop
endfacet
facet normal -0.472615 -0.191751 0.860155
outer loop
vertex 0.801145 -0.108078 1.075127
vertex 0.815096 -0.108496 1.082699
vertex 0.817907 -0.094457 1.087373
endloop
endfacet
facet normal -0.226864 -0.234622 0.945243
outer loop
vertex 0.817907 -0.094457 1.087373
vertex 0.835207 -0.079437 1.095253
vertex 0.820524 -0.080135 1.091556
endloop
endfacet
facet normal -0.566611 -0.133915 0.813031
outer loop
vertex 0.807460 -0.080156 1.082448
vertex 0.817907 -0.094457 1.087373
vertex 0.820524 -0.080135 1.091556
endloop
endfacet
facet normal -0.571002 -0.054602 0.819131
outer loop
vertex 0.820524 -0.080135 1.091556
vertex 0.809870 -0.066412 1.085044
vertex 0.807460 -0.080156 1.082448
endloop
endfacet
facet normal -0.751313 0.007095 0.659907
outer loop
vertex 0.807460 -0.080156 1.082448
vertex 0.809870 -0.066412 1.085044
vertex 0.800047 -0.065355 1.073849
endloop
endfacet
facet normal -0.742504 0.017149 0.669623
outer loop
vertex 0.807460 -0.080156 1.082448
vertex 0.800047 -0.065355 1.073849
vertex 0.797712 -0.079843 1.071631
endloop
endfacet
facet normal -0.742875 -0.000901 0.669429
outer loop
vertex 0.804406 -0.094111 1.079040
vertex 0.807460 -0.080156 1.082448
vertex 0.797712 -0.079843 1.071631
endloop
endfacet
facet normal -0.791819 0.034251 0.609794
outer loop
vertex 0.791291 -0.057902 1.062061
vertex 0.797712 -0.079843 1.071631
vertex 0.800047 -0.065355 1.073849
endloop
endfacet
facet normal -0.808379 0.020041 0.588322
outer loop
vertex 0.791291 -0.057902 1.062061
vertex 0.788480 -0.073069 1.058715
vertex 0.797712 -0.079843 1.071631
endloop
endfacet
facet normal -0.798776 0.053895 0.599210
outer loop
vertex 0.788480 -0.073069 1.058715
vertex 0.794135 -0.093834 1.068121
vertex 0.797712 -0.079843 1.071631
endloop
endfacet
facet normal -0.728137 0.014232 0.685284
outer loop
vertex 0.804406 -0.094111 1.079040
vertex 0.797712 -0.079843 1.071631
vertex 0.794135 -0.093834 1.068121
endloop
endfacet
facet normal -0.728495 -0.021733 0.684706
outer loop
vertex 0.801145 -0.108078 1.075127
vertex 0.804406 -0.094111 1.079040
vertex 0.794135 -0.093834 1.068121
endloop
endfacet
facet normal -0.711344 -0.004381 0.702831
outer loop
vertex 0.801145 -0.108078 1.075127
vertex 0.794135 -0.093834 1.068121
vertex 0.790102 -0.107517 1.063954
endloop
endfacet
facet normal -0.808889 0.060309 0.584860
outer loop
vertex 0.785166 -0.087721 1.055086
vertex 0.790102 -0.107517 1.063954
vertex 0.794135 -0.093834 1.068121
endloop
endfacet
facet normal -0.814129 0.040669 0.579258
outer loop
vertex 0.788480 -0.073069 1.058715
vertex 0.785166 -0.087721 1.055086
vertex 0.794135 -0.093834 1.068121
endloop
endfacet
facet normal -0.848600 0.061802 0.525413
outer loop
vertex 0.777507 -0.082180 1.042064
vertex 0.785166 -0.087721 1.055086
vertex 0.788480 -0.073069 1.058715
endloop
endfacet
facet normal -0.825290 0.046336 0.562806
outer loop
vertex 0.785166 -0.087721 1.055086
vertex 0.781623 -0.102177 1.051081
vertex 0.790102 -0.107517 1.063954
endloop
endfacet
facet normal -0.850574 0.053670 0.523110
outer loop
vertex 0.785166 -0.087721 1.055086
vertex 0.777507 -0.082180 1.042064
vertex 0.774016 -0.096989 1.037907
endloop
endfacet
facet normal -0.852764 0.065447 0.518179
outer loop
vertex 0.785166 -0.087721 1.055086
vertex 0.774016 -0.096989 1.037907
vertex 0.781623 -0.102177 1.051081
endloop
endfacet
facet normal -0.861703 0.023590 0.506865
outer loop
vertex 0.781623 -0.102177 1.051081
vertex 0.774016 -0.096989 1.037907
vertex 0.771131 -0.111745 1.033689
endloop
endfacet
facet normal 0.461972 -0.873329 0.154527
outer loop
vertex 0.820139 -0.235097 1.008716
vertex 0.828128 -0.233021 0.996565
vertex 0.842798 -0.222112 1.014361
endloop
endfacet
facet normal 0.565025 -0.731695 0.381274
outer loop
vertex 0.842798 -0.222112 1.014361
vertex 0.848171 -0.213588 1.022757
vertex 0.837856 -0.216642 1.032182
endloop
endfacet
facet normal 0.464220 -0.873586 0.146105
outer loop
vertex 0.820139 -0.235097 1.008716
vertex 0.842798 -0.222112 1.014361
vertex 0.831218 -0.226810 1.023064
endloop
endfacet
facet normal 0.579115 -0.720364 0.381708
outer loop
vertex 0.842798 -0.222112 1.014361
vertex 0.837856 -0.216642 1.032182
vertex 0.831218 -0.226810 1.023064
endloop
endfacet
facet normal 0.552064 -0.726817 0.408611
outer loop
vertex 0.837856 -0.216642 1.032182
vertex 0.819393 -0.231048 1.031502
vertex 0.831218 -0.226810 1.023064
endloop
endfacet
facet normal 0.610206 -0.577911 0.541912
outer loop
vertex 0.826511 -0.219937 1.041443
vertex 0.837856 -0.216642 1.032182
vertex 0.843050 -0.204425 1.039362
endloop
endfacet
facet normal 0.549874 -0.724349 0.415880
outer loop
vertex 0.837856 -0.216642 1.032182
vertex 0.826511 -0.219937 1.041443
vertex 0.819393 -0.231048 1.031502
endloop
endfacet
facet normal 0.600702 -0.579231 0.551043
outer loop
vertex 0.853694 -0.202546 1.029734
vertex 0.843050 -0.204425 1.039362
vertex 0.837856 -0.216642 1.032182
endloop
endfacet
facet normal 0.622880 -0.616148 0.482060
outer loop
vertex 0.853694 -0.202546 1.029734
vertex 0.837856 -0.216642 1.032182
vertex 0.848171 -0.213588 1.022757
endloop
endfacet
facet normal 0.577232 -0.532368 0.619183
outer loop
vertex 0.826511 -0.219937 1.041443
vertex 0.843050 -0.204425 1.039362
vertex 0.831447 -0.206489 1.048404
endloop
endfacet
facet normal 0.602368 -0.424263 0.676132
outer loop
vertex 0.843050 -0.204425 1.039362
vertex 0.835275 -0.192289 1.053904
vertex 0.831447 -0.206489 1.048404
endloop
endfacet
facet normal 0.630839 -0.489710 0.601853
outer loop
vertex 0.847528 -0.191118 1.045496
vertex 0.843050 -0.204425 1.039362
vertex 0.853694 -0.202546 1.029734
endloop
endfacet
facet normal 0.523126 -0.495634 0.693315
outer loop
vertex 0.843050 -0.204425 1.039362
vertex 0.847528 -0.191118 1.045496
vertex 0.835275 -0.192289 1.053904
endloop
endfacet
facet normal 0.547665 -0.448389 0.706407
outer loop
vertex 0.863618 -0.176609 1.042231
vertex 0.851691 -0.177343 1.051012
vertex 0.847528 -0.191118 1.045496
endloop
endfacet
facet normal 0.580452 -0.498867 0.643590
outer loop
vertex 0.863618 -0.176609 1.042231
vertex 0.847528 -0.191118 1.045496
vertex 0.858800 -0.189855 1.036309
endloop
endfacet
facet normal 0.564776 -0.547240 0.617702
outer loop
vertex 0.847528 -0.191118 1.045496
vertex 0.853694 -0.202546 1.029734
vertex 0.858800 -0.189855 1.036309
endloop
endfacet
facet normal 0.534471 -0.448409 0.716428
outer loop
vertex 0.851691 -0.177343 1.051012
vertex 0.835275 -0.192289 1.053904
vertex 0.847528 -0.191118 1.045496
endloop
endfacet
facet normal 0.482823 -0.377388 0.790228
outer loop
vertex 0.851691 -0.177343 1.051012
vertex 0.838639 -0.177834 1.058752
vertex 0.835275 -0.192289 1.053904
endloop
endfacet
facet normal 0.473995 -0.422586 0.772496
outer loop
vertex 0.838639 -0.177834 1.058752
vertex 0.851691 -0.177343 1.051012
vertex 0.855760 -0.163352 1.056169
endloop
endfacet
facet normal 0.541861 -0.470127 0.696683
outer loop
vertex 0.851691 -0.177343 1.051012
vertex 0.863618 -0.176609 1.042231
vertex 0.868330 -0.163078 1.047697
endloop
endfacet
facet normal 0.512450 -0.424232 0.746607
outer loop
vertex 0.851691 -0.177343 1.051012
vertex 0.868330 -0.163078 1.047697
vertex 0.855760 -0.163352 1.056169
endloop
endfacet
facet normal 0.496325 -0.454888 0.739417
outer loop
vertex 0.838639 -0.177834 1.058752
vertex 0.855760 -0.163352 1.056169
vertex 0.853056 -0.157600 1.061523
endloop
endfacet
facet normal 0.510558 -0.431808 0.743554
outer loop
vertex 0.873900 -0.151553 1.050565
vertex 0.855760 -0.163352 1.056169
vertex 0.868330 -0.163078 1.047697
endloop
endfacet
facet normal 0.503940 -0.449558 0.737524
outer loop
vertex 0.866316 -0.149327 1.057505
vertex 0.853056 -0.157600 1.061523
vertex 0.855760 -0.163352 1.056169
endloop
endfacet
facet normal 0.521625 -0.460991 0.717910
outer loop
vertex 0.873900 -0.151553 1.050565
vertex 0.866316 -0.149327 1.057505
vertex 0.855760 -0.163352 1.056169
endloop
endfacet
facet normal 0.603322 -0.276547 0.748014
outer loop
vertex 0.866316 -0.149327 1.057505
vertex 0.873900 -0.151553 1.050565
vertex 0.884143 -0.134038 1.048779
endloop
endfacet
facet normal 0.665461 -0.426150 0.612827
outer loop
vertex 0.866316 -0.149327 1.057505
vertex 0.884143 -0.134038 1.048779
vertex 0.876423 -0.135098 1.056425
endloop
endfacet
facet normal 0.663450 -0.433584 0.609786
outer loop
vertex 0.891261 -0.121127 1.050215
vertex 0.876423 -0.135098 1.056425
vertex 0.884143 -0.134038 1.048779
endloop
endfacet
facet normal 0.668505 -0.346077 0.658280
outer loop
vertex 0.891261 -0.121127 1.050215
vertex 0.895093 -0.106592 1.053965
vertex 0.884301 -0.106593 1.064924
endloop
endfacet
facet normal 0.639579 -0.383013 0.666514
outer loop
vertex 0.891261 -0.121127 1.050215
vertex 0.880407 -0.120945 1.060735
vertex 0.876423 -0.135098 1.056425
endloop
endfacet
facet normal 0.643329 -0.370154 0.670159
outer loop
vertex 0.891261 -0.121127 1.050215
vertex 0.884301 -0.106593 1.064924
vertex 0.880407 -0.120945 1.060735
endloop
endfacet
facet normal 0.698745 -0.310328 0.644556
outer loop
vertex 0.895093 -0.106592 1.053965
vertex 0.898606 -0.091643 1.057354
vertex 0.887916 -0.091886 1.068826
endloop
endfacet
facet normal 0.670139 -0.339796 0.659888
outer loop
vertex 0.895093 -0.106592 1.053965
vertex 0.887916 -0.091886 1.068826
vertex 0.884301 -0.106593 1.064924
endloop
endfacet
facet normal -0.833139 -0.020117 0.552698
outer loop
vertex 0.783948 -0.051474 1.050474
vertex 0.788417 -0.046745 1.057383
vertex 0.784865 -0.042540 1.052181
endloop
endfacet
facet normal -0.842380 0.008944 0.538810
outer loop
vertex 0.783948 -0.051474 1.050474
vertex 0.791291 -0.057902 1.062061
vertex 0.788417 -0.046745 1.057383
endloop
endfacet
facet normal -0.842375 0.008937 0.538818
outer loop
vertex 0.791291 -0.057902 1.062061
vertex 0.792886 -0.042016 1.064291
vertex 0.788417 -0.046745 1.057383
endloop
endfacet
facet normal -1.000000 0.000000 0.000000
outer loop
vertex 0.783948 -0.051474 1.050474
vertex 0.782431 -0.059253 1.048246
vertex 0.780914 -0.067032 1.046018
endloop
endfacet
facet normal -0.855048 0.018315 0.518225
outer loop
vertex 0.783948 -0.051474 1.050474
vertex 0.780914 -0.067032 1.046018
vertex 0.788480 -0.073069 1.058715
endloop
endfacet
facet normal -0.835573 0.033896 0.548333
outer loop
vertex 0.783948 -0.051474 1.050474
vertex 0.788480 -0.073069 1.058715
vertex 0.791291 -0.057902 1.062061
endloop
endfacet
facet normal -0.846755 0.052253 0.529411
outer loop
vertex 0.777507 -0.082180 1.042064
vertex 0.788480 -0.073069 1.058715
vertex 0.780914 -0.067032 1.046018
endloop
endfacet
facet normal 0.000000 0.998053 0.062378
outer loop
vertex 0.777507 -0.082180 1.042064
vertex 0.780914 -0.067032 1.046018
vertex 0.779211 -0.074606 1.044041
endloop
endfacet
facet normal -0.790615 0.008169 0.612259
outer loop
vertex 0.792886 -0.042016 1.064291
vertex 0.800047 -0.065355 1.073849
vertex 0.800554 -0.050525 1.074306
endloop
endfacet
facet normal 0.693525 -0.693525 0.195054
outer loop
vertex 0.792886 -0.042016 1.064291
vertex 0.800554 -0.050525 1.074306
vertex 0.796720 -0.046271 1.069299
endloop
endfacet
facet normal -0.803633 -0.002856 0.595118
outer loop
vertex 0.792886 -0.042016 1.064291
vertex 0.791291 -0.057902 1.062061
vertex 0.800047 -0.065355 1.073849
endloop
endfacet
facet normal -0.561559 -0.001683 0.827435
outer loop
vertex 0.811527 -0.054026 1.086840
vertex 0.823092 -0.065826 1.094665
vertex 0.825527 -0.051895 1.096346
endloop
endfacet
facet normal 1.000000 0.000000 0.000000
outer loop
vertex 0.811527 -0.054026 1.086840
vertex 0.825527 -0.051895 1.096346
vertex 0.818527 -0.052961 1.091593
endloop
endfacet
facet normal -0.586807 -0.038783 0.808797
outer loop
vertex 0.811527 -0.054026 1.086840
vertex 0.809870 -0.066412 1.085044
vertex 0.823092 -0.065826 1.094665
endloop
endfacet
facet normal -0.751722 0.004941 0.659462
outer loop
vertex 0.809870 -0.066412 1.085044
vertex 0.811527 -0.054026 1.086840
vertex 0.806041 -0.052276 1.080573
endloop
endfacet
facet normal -0.751714 0.004923 0.659471
outer loop
vertex 0.809870 -0.066412 1.085044
vertex 0.806041 -0.052276 1.080573
vertex 0.800554 -0.050525 1.074306
endloop
endfacet
facet normal -0.233313 -0.166298 0.958076
outer loop
vertex 0.835207 -0.079437 1.095253
vertex 0.823092 -0.065826 1.094665
vertex 0.820524 -0.080135 1.091556
endloop
endfacet
facet normal -0.584866 -0.070609 0.808051
outer loop
vertex 0.820524 -0.080135 1.091556
vertex 0.823092 -0.065826 1.094665
vertex 0.809870 -0.066412 1.085044
endloop
endfacet
facet normal -0.200080 -0.136181 0.970270
outer loop
vertex 0.835207 -0.079437 1.095253
vertex 0.837642 -0.064205 1.097893
vertex 0.823092 -0.065826 1.094665
endloop
endfacet
facet normal -0.207227 -0.081416 0.974899
outer loop
vertex 0.837642 -0.064205 1.097893
vertex 0.825527 -0.051895 1.096346
vertex 0.823092 -0.065826 1.094665
endloop
endfacet
facet normal -0.751397 0.005363 0.659829
outer loop
vertex 0.809870 -0.066412 1.085044
vertex 0.800554 -0.050525 1.074306
vertex 0.800047 -0.065355 1.073849
endloop
endfacet
facet normal 0.763049 0.012999 0.646210
outer loop
vertex 0.896207 -0.025215 1.072281
vertex 0.906537 -0.012578 1.059829
vertex 0.897918 -0.011666 1.069988
endloop
endfacet
facet normal 0.763079 0.012918 0.646177
outer loop
vertex 0.906537 -0.012578 1.059829
vertex 0.906688 0.000000 1.059399
vertex 0.905699 0.000000 1.060567
endloop
endfacet
facet normal 0.745431 0.045936 0.664998
outer loop
vertex 0.896207 -0.025215 1.072281
vertex 0.906102 -0.027195 1.061326
vertex 0.906537 -0.012578 1.059829
endloop
endfacet
facet normal 0.769820 0.001980 0.638258
outer loop
vertex 0.898443 0.000000 1.069319
vertex 0.897918 -0.011666 1.069988
vertex 0.905699 0.000000 1.060567
endloop
endfacet
facet normal 0.680621 0.011409 0.732547
outer loop
vertex 0.898443 0.000000 1.069319
vertex 0.891169 0.000000 1.076077
vertex 0.897918 -0.011666 1.069988
endloop
endfacet
facet normal 0.670218 0.000275 0.742164
outer loop
vertex 0.891169 0.000000 1.076077
vertex 0.890262 0.000000 1.076896
vertex 0.889777 -0.005201 1.077336
endloop
endfacet
facet normal 0.670028 0.000275 0.742336
outer loop
vertex 0.891169 0.000000 1.076077
vertex 0.889777 -0.005201 1.077336
vertex 0.889292 -0.010403 1.077776
endloop
endfacet
facet normal 0.669404 -0.008773 0.742847
outer loop
vertex 0.886341 -0.021344 1.080306
vertex 0.897918 -0.011666 1.069988
vertex 0.887816 -0.015874 1.079041
endloop
endfacet
facet normal 0.669396 -0.008762 0.742854
outer loop
vertex 0.897918 -0.011666 1.069988
vertex 0.889292 -0.010403 1.077776
vertex 0.887816 -0.015874 1.079041
endloop
endfacet
facet normal 0.641646 0.048511 0.765465
outer loop
vertex 0.886341 -0.021344 1.080306
vertex 0.896207 -0.025215 1.072281
vertex 0.897918 -0.011666 1.069988
endloop
endfacet
facet normal 0.550194 -0.381140 0.742980
outer loop
vertex 0.880407 -0.120945 1.060735
vertex 0.864634 -0.134347 1.065540
vertex 0.876423 -0.135098 1.056425
endloop
endfacet
facet normal 0.555950 -0.360902 0.748778
outer loop
vertex 0.857329 -0.149287 1.063763
vertex 0.876423 -0.135098 1.056425
vertex 0.864634 -0.134347 1.065540
endloop
endfacet
facet normal 0.539549 -0.324272 0.777004
outer loop
vertex 0.857329 -0.149287 1.063763
vertex 0.866316 -0.149327 1.057505
vertex 0.876423 -0.135098 1.056425
endloop
endfacet
facet normal 0.506775 -0.457376 0.730743
outer loop
vertex 0.866316 -0.149327 1.057505
vertex 0.857329 -0.149287 1.063763
vertex 0.853056 -0.157600 1.061523
endloop
endfacet
facet normal 0.438354 -0.882358 0.171144
outer loop
vertex 0.820139 -0.235097 1.008716
vertex 0.831218 -0.226810 1.023064
vertex 0.819393 -0.231048 1.031502
endloop
endfacet
facet normal 0.413790 -0.893901 0.172390
outer loop
vertex 0.820139 -0.235097 1.008716
vertex 0.819393 -0.231048 1.031502
vertex 0.811900 -0.236582 1.020792
endloop
endfacet
facet normal -0.829404 0.028090 0.557943
outer loop
vertex 0.790102 -0.107517 1.063954
vertex 0.781623 -0.102177 1.051081
vertex 0.778417 -0.116517 1.047037
endloop
endfacet
facet normal -0.868034 0.054919 0.493458
outer loop
vertex 0.781623 -0.102177 1.051081
vertex 0.771131 -0.111745 1.033689
vertex 0.778417 -0.116517 1.047037
endloop
endfacet
facet normal -0.213770 -0.280644 0.935703
outer loop
vertex 0.825075 -0.136288 1.077609
vertex 0.810375 -0.136200 1.074277
vertex 0.805334 -0.148021 1.069580
endloop
endfacet
facet normal -0.160867 -0.358587 0.919531
outer loop
vertex 0.825075 -0.136288 1.077609
vertex 0.805334 -0.148021 1.069580
vertex 0.817908 -0.150077 1.070978
endloop
endfacet
facet normal 0.018684 -0.441185 0.897222
outer loop
vertex 0.817908 -0.150077 1.070978
vertex 0.839154 -0.136202 1.077358
vertex 0.825075 -0.136288 1.077609
endloop
endfacet
facet normal -0.438851 0.071238 0.895731
outer loop
vertex 0.778967 -0.147306 1.056605
vertex 0.779431 -0.165314 1.058265
vertex 0.805334 -0.148021 1.069580
endloop
endfacet
facet normal -0.161029 -0.360047 0.918932
outer loop
vertex 0.779431 -0.165314 1.058265
vertex 0.817908 -0.150077 1.070978
vertex 0.805334 -0.148021 1.069580
endloop
endfacet
facet normal -0.439132 -0.163732 0.883377
outer loop
vertex 0.810375 -0.136200 1.074277
vertex 0.778967 -0.147306 1.056605
vertex 0.805334 -0.148021 1.069580
endloop
endfacet
facet normal -0.412366 0.334211 0.847501
outer loop
vertex 0.779431 -0.165314 1.058265
vertex 0.794926 -0.165821 1.066004
vertex 0.817908 -0.150077 1.070978
endloop
endfacet
facet normal -0.442098 -0.213471 0.871194
outer loop
vertex 0.779431 -0.165314 1.058265
vertex 0.792314 -0.179972 1.061211
vertex 0.794926 -0.165821 1.066004
endloop
endfacet
facet normal -0.659636 -0.134658 0.739424
outer loop
vertex 0.776014 -0.180545 1.052443
vertex 0.779431 -0.165314 1.058265
vertex 0.768021 -0.166500 1.047871
endloop
endfacet
facet normal -0.455162 -0.226989 0.860990
outer loop
vertex 0.779431 -0.165314 1.058265
vertex 0.776014 -0.180545 1.052443
vertex 0.792314 -0.179972 1.061211
endloop
endfacet
facet normal -0.675437 0.050402 0.735693
outer loop
vertex 0.778967 -0.147306 1.056605
vertex 0.768021 -0.166500 1.047871
vertex 0.779431 -0.165314 1.058265
endloop
endfacet
facet normal -0.775414 0.164808 0.609567
outer loop
vertex 0.768021 -0.166500 1.047871
vertex 0.778967 -0.147306 1.056605
vertex 0.761332 -0.152835 1.035667
endloop
endfacet
facet normal -0.866538 0.021138 0.498662
outer loop
vertex 0.768021 -0.166500 1.047871
vertex 0.761332 -0.152835 1.035667
vertex 0.755904 -0.166287 1.026805
endloop
endfacet
facet normal -0.648696 -0.124751 0.750754
outer loop
vertex 0.776014 -0.180545 1.052443
vertex 0.768021 -0.166500 1.047871
vertex 0.761544 -0.180028 1.040026
endloop
endfacet
facet normal -0.859577 0.124116 0.495705
outer loop
vertex 0.761544 -0.180028 1.040026
vertex 0.768021 -0.166500 1.047871
vertex 0.755904 -0.166287 1.026805
endloop
endfacet
facet normal -0.254757 -0.192890 0.947572
outer loop
vertex 0.806829 -0.193955 1.062267
vertex 0.808682 -0.180024 1.065601
vertex 0.792314 -0.179972 1.061211
endloop
endfacet
facet normal -0.250306 -0.268821 0.930098
outer loop
vertex 0.808682 -0.180024 1.065601
vertex 0.794926 -0.165821 1.066004
vertex 0.792314 -0.179972 1.061211
endloop
endfacet
facet normal -0.226063 -0.162134 0.960525
outer loop
vertex 0.806829 -0.193955 1.062267
vertex 0.792314 -0.179972 1.061211
vertex 0.791403 -0.193080 1.058784
endloop
endfacet
facet normal -0.457720 -0.131008 0.879391
outer loop
vertex 0.792314 -0.179972 1.061211
vertex 0.774921 -0.196135 1.049750
vertex 0.791403 -0.193080 1.058784
endloop
endfacet
facet normal -0.467154 -0.118607 0.876185
outer loop
vertex 0.792314 -0.179972 1.061211
vertex 0.776014 -0.180545 1.052443
vertex 0.774921 -0.196135 1.049750
endloop
endfacet
facet normal -0.452039 -0.157538 0.877976
outer loop
vertex 0.774921 -0.196135 1.049750
vertex 0.788866 -0.204916 1.055354
vertex 0.791403 -0.193080 1.058784
endloop
endfacet
facet normal -0.226719 -0.225950 0.947389
outer loop
vertex 0.806829 -0.193955 1.062267
vertex 0.791403 -0.193080 1.058784
vertex 0.788866 -0.204916 1.055354
endloop
endfacet
facet normal -0.500088 -0.268818 0.823194
outer loop
vertex 0.788866 -0.204916 1.055354
vertex 0.774921 -0.196135 1.049750
vertex 0.769106 -0.209561 1.041833
endloop
endfacet
facet normal -0.503661 -0.257653 0.824585
outer loop
vertex 0.788866 -0.204916 1.055354
vertex 0.769106 -0.209561 1.041833
vertex 0.783519 -0.218876 1.047726
endloop
endfacet
facet normal -0.221889 -0.233431 0.946718
outer loop
vertex 0.806829 -0.193955 1.062267
vertex 0.788866 -0.204916 1.055354
vertex 0.804353 -0.206899 1.058495
endloop
endfacet
facet normal -0.230995 -0.396911 0.888315
outer loop
vertex 0.804353 -0.206899 1.058495
vertex 0.788866 -0.204916 1.055354
vertex 0.783519 -0.218876 1.047726
endloop
endfacet
facet normal -0.401064 -0.262336 0.877683
outer loop
vertex 0.810375 -0.136200 1.074277
vertex 0.795647 -0.136086 1.067581
vertex 0.778967 -0.147306 1.056605
endloop
endfacet
facet normal 0.448459 -0.738184 0.503953
outer loop
vertex 0.808595 -0.231442 1.040534
vertex 0.819393 -0.231048 1.031502
vertex 0.826511 -0.219937 1.041443
endloop
endfacet
facet normal -0.285229 -0.317106 0.904482
outer loop
vertex 0.804353 -0.206899 1.058495
vertex 0.783519 -0.218876 1.047726
vertex 0.800917 -0.219442 1.053014
endloop
endfacet
facet normal 0.350104 -0.367439 0.861636
outer loop
vertex 0.833678 -0.162833 1.067165
vertex 0.838639 -0.177834 1.058752
vertex 0.853056 -0.157600 1.061523
endloop
endfacet
facet normal 0.336185 -0.176725 0.925067
outer loop
vertex 0.850198 -0.078437 1.094118
vertex 0.864666 -0.077416 1.089055
vertex 0.866667 -0.060758 1.091510
endloop
endfacet
facet normal 0.470343 -0.071056 0.879619
outer loop
vertex 0.880090 -0.046778 1.085462
vertex 0.866667 -0.060758 1.091510
vertex 0.879967 -0.062015 1.084297
endloop
endfacet
facet normal 0.763047 0.012915 0.646214
outer loop
vertex 0.906537 -0.012578 1.059829
vertex 0.905699 0.000000 1.060567
vertex 0.897918 -0.011666 1.069988
endloop
endfacet
facet normal 0.670166 0.000278 0.742211
outer loop
vertex 0.891169 0.000000 1.076077
vertex 0.889292 -0.010403 1.077776
vertex 0.897918 -0.011666 1.069988
endloop
endfacet
facet normal -0.523349 0.733353 -0.433935
outer loop
vertex 0.905699 0.000000 1.060567
vertex 0.898216 -0.006982 1.057793
vertex 0.898443 0.000000 1.069319
endloop
endfacet
facet normal -0.800000 0.600000 0.000000
outer loop
vertex 0.826837 -0.046226 1.057303
vertex 0.830361 -0.043657 1.058392
vertex 0.833885 -0.041089 1.059480
endloop
endfacet
facet normal -0.202969 0.604847 -0.770041
outer loop
vertex 0.826837 -0.046226 1.057303
vertex 0.833885 -0.041089 1.059480
vertex 0.838909 -0.055872 1.046544
endloop
endfacet
facet normal 0.998053 0.000000 0.062378
outer loop
vertex 0.798649 -0.066771 1.048595
vertex 0.802172 -0.064203 1.049683
vertex 0.805696 -0.061635 1.050772
endloop
endfacet
facet normal -0.038103 0.433751 -0.900227
outer loop
vertex 0.798649 -0.066771 1.048595
vertex 0.805696 -0.061635 1.050772
vertex 0.805020 -0.083808 1.040117
endloop
endfacet
facet normal 0.936329 0.000000 -0.351123
outer loop
vertex 0.855026 -0.025680 1.066011
vertex 0.858550 -0.023112 1.067100
vertex 0.862073 -0.020544 1.068188
endloop
endfacet
facet normal -0.344856 0.725562 -0.595512
outer loop
vertex 0.855026 -0.025680 1.066011
vertex 0.862073 -0.020544 1.068188
vertex 0.872799 -0.027935 1.052972
endloop
endfacet
facet normal -0.278461 0.672645 -0.685571
outer loop
vertex 0.840932 -0.035953 1.061657
vertex 0.844455 -0.033385 1.062746
vertex 0.855854 -0.041903 1.049758
endloop
endfacet
facet normal -0.278489 0.672617 -0.685588
outer loop
vertex 0.844455 -0.033385 1.062746
vertex 0.847979 -0.030816 1.063834
vertex 0.855854 -0.041903 1.049758
endloop
endfacet
facet normal -0.992278 0.000000 0.124035
outer loop
vertex 0.784554 -0.077044 1.044241
vertex 0.788078 -0.074476 1.045329
vertex 0.791601 -0.071907 1.046418
endloop
endfacet
facet normal 0.042590 0.339773 -0.939543
outer loop
vertex 0.784554 -0.077044 1.044241
vertex 0.791601 -0.071907 1.046418
vertex 0.788076 -0.097777 1.036903
endloop
endfacet
facet normal 0.954480 0.000000 -0.298275
outer loop
vertex 0.812743 -0.056498 1.052949
vertex 0.816267 -0.053930 1.054037
vertex 0.819790 -0.051362 1.055126
endloop
endfacet
facet normal -0.121396 0.523902 -0.843084
outer loop
vertex 0.812743 -0.056498 1.052949
vertex 0.819790 -0.051362 1.055126
vertex 0.821965 -0.069840 1.043330
endloop
endfacet
facet normal -0.374181 0.746545 -0.550145
outer loop
vertex 0.881271 -0.020951 1.054579
vertex 0.869121 -0.015407 1.070365
vertex 0.872644 -0.012839 1.071454
endloop
endfacet
facet normal -0.374170 0.746547 -0.550150
outer loop
vertex 0.881271 -0.020951 1.054579
vertex 0.872644 -0.012839 1.071454
vertex 0.876168 -0.010271 1.072542
endloop
endfacet
facet normal -0.344850 0.725572 -0.595503
outer loop
vertex 0.872799 -0.027935 1.052972
vertex 0.862073 -0.020544 1.068188
vertex 0.865597 -0.017976 1.069277
endloop
endfacet
facet normal -0.344867 0.725551 -0.595518
outer loop
vertex 0.872799 -0.027935 1.052972
vertex 0.865597 -0.017976 1.069277
vertex 0.869121 -0.015407 1.070365
endloop
endfacet
facet normal -0.079672 0.479667 -0.873826
outer loop
vertex 0.805696 -0.061635 1.050772
vertex 0.809219 -0.059066 1.051860
vertex 0.813493 -0.076824 1.041723
endloop
endfacet
facet normal -0.079672 0.479649 -0.873836
outer loop
vertex 0.809219 -0.059066 1.051860
vertex 0.812743 -0.056498 1.052949
vertex 0.813493 -0.076824 1.041723
endloop
endfacet
facet normal -0.121338 0.294758 -0.947837
outer loop
vertex 0.771131 -0.111745 1.033689
vertex 0.774016 -0.096989 1.037907
vertex 0.777507 -0.082180 1.042064
endloop
endfacet
facet normal 0.080758 0.293034 -0.952685
outer loop
vertex 0.781031 -0.079612 1.043152
vertex 0.784554 -0.077044 1.044241
vertex 0.779603 -0.104761 1.035296
endloop
endfacet
facet normal 0.116907 0.247261 -0.961871
outer loop
vertex 0.771131 -0.111745 1.033689
vertex 0.777507 -0.082180 1.042064
vertex 0.781031 -0.079612 1.043152
endloop
endfacet
facet normal -0.067726 0.300998 -0.951217
outer loop
vertex 0.781031 -0.079612 1.043152
vertex 0.779603 -0.104761 1.035296
vertex 0.771131 -0.111745 1.033689
endloop
endfacet
facet normal -0.241685 0.640546 -0.728896
outer loop
vertex 0.833885 -0.041089 1.059480
vertex 0.837408 -0.038521 1.060569
vertex 0.847382 -0.048888 1.048151
endloop
endfacet
facet normal -0.241699 0.640569 -0.728871
outer loop
vertex 0.837408 -0.038521 1.060569
vertex 0.840932 -0.035953 1.061657
vertex 0.847382 -0.048888 1.048151
endloop
endfacet
facet normal -0.999512 0.000000 -0.031235
outer loop
vertex 0.847979 -0.030816 1.063834
vertex 0.851503 -0.028248 1.064923
vertex 0.855026 -0.025680 1.066011
endloop
endfacet
facet normal -0.312917 0.700962 -0.640886
outer loop
vertex 0.847979 -0.030816 1.063834
vertex 0.855026 -0.025680 1.066011
vertex 0.864326 -0.034919 1.051365
endloop
endfacet
facet normal -0.998053 0.000000 -0.062378
outer loop
vertex 0.791601 -0.071907 1.046418
vertex 0.795125 -0.069339 1.047506
vertex 0.798649 -0.066771 1.048595
endloop
endfacet
facet normal 0.002883 0.386888 -0.922122
outer loop
vertex 0.791601 -0.071907 1.046418
vertex 0.798649 -0.066771 1.048595
vertex 0.796548 -0.090793 1.038510
endloop
endfacet
facet normal -0.162692 0.565817 -0.808321
outer loop
vertex 0.819790 -0.051362 1.055126
vertex 0.823314 -0.048794 1.056214
vertex 0.830437 -0.062856 1.044937
endloop
endfacet
facet normal -0.162674 0.565809 -0.808330
outer loop
vertex 0.823314 -0.048794 1.056214
vertex 0.826837 -0.046226 1.057303
vertex 0.830437 -0.062856 1.044937
endloop
endfacet
facet normal -0.400844 0.764162 -0.505352
outer loop
vertex 0.889743 -0.013967 1.056186
vertex 0.876168 -0.010271 1.072542
vertex 0.879691 -0.007703 1.073631
endloop
endfacet
facet normal -0.400851 0.764164 -0.505343
outer loop
vertex 0.889743 -0.013967 1.056186
vertex 0.879691 -0.007703 1.073631
vertex 0.883215 -0.005135 1.074719
endloop
endfacet
facet normal -0.421877 0.777038 -0.467153
outer loop
vertex 0.890262 0.000000 1.076896
vertex 0.891169 0.000000 1.076077
vertex 0.883215 -0.005135 1.074719
endloop
endfacet
facet normal 0.289474 0.000000 -0.957186
outer loop
vertex 0.890262 0.000000 1.076896
vertex 0.883215 -0.005135 1.074719
vertex 0.886739 -0.002566 1.075808
endloop
endfacet
facet normal -0.426188 0.777435 -0.462557
outer loop
vertex 0.883215 -0.005135 1.074719
vertex 0.898443 0.000000 1.069319
vertex 0.898216 -0.006982 1.057793
endloop
endfacet
facet normal -0.425579 0.780435 -0.458044
outer loop
vertex 0.891169 0.000000 1.076077
vertex 0.898443 0.000000 1.069319
vertex 0.883215 -0.005135 1.074719
endloop
endfacet
facet normal -0.519847 0.732091 -0.440229
outer loop
vertex 0.898216 -0.006982 1.057793
vertex 0.905699 0.000000 1.060567
vertex 0.906688 0.000000 1.059399
endloop
endfacet
facet normal -0.286456 0.530986 -0.797494
outer loop
vertex 0.826837 -0.046226 1.057303
vertex 0.838909 -0.055872 1.046544
vertex 0.830437 -0.062856 1.044937
endloop
endfacet
facet normal -0.152794 0.393889 -0.906369
outer loop
vertex 0.798649 -0.066771 1.048595
vertex 0.805020 -0.083808 1.040117
vertex 0.796548 -0.090793 1.038510
endloop
endfacet
facet normal -0.401267 0.637979 -0.657242
outer loop
vertex 0.855026 -0.025680 1.066011
vertex 0.872799 -0.027935 1.052972
vertex 0.864326 -0.034919 1.051365
endloop
endfacet
facet normal -0.347099 0.588963 -0.729825
outer loop
vertex 0.840932 -0.035953 1.061657
vertex 0.855854 -0.041903 1.049758
vertex 0.847382 -0.048888 1.048151
endloop
endfacet
facet normal -0.084510 0.319665 -0.943754
outer loop
vertex 0.784554 -0.077044 1.044241
vertex 0.788076 -0.097777 1.036903
vertex 0.779603 -0.104761 1.035296
endloop
endfacet
facet normal -0.220947 0.465240 -0.857166
outer loop
vertex 0.812743 -0.056498 1.052949
vertex 0.821965 -0.069840 1.043330
vertex 0.813493 -0.076824 1.041723
endloop
endfacet
facet normal -0.468824 0.694336 -0.545988
outer loop
vertex 0.881271 -0.020951 1.054579
vertex 0.876168 -0.010271 1.072542
vertex 0.889743 -0.013967 1.056186
endloop
endfacet
facet normal -0.448157 0.677758 -0.582924
outer loop
vertex 0.872799 -0.027935 1.052972
vertex 0.869121 -0.015407 1.070365
vertex 0.881271 -0.020951 1.054579
endloop
endfacet
facet normal -0.187035 0.430104 -0.883192
outer loop
vertex 0.805696 -0.061635 1.050772
vertex 0.813493 -0.076824 1.041723
vertex 0.805020 -0.083808 1.040117
endloop
endfacet
facet normal -0.317500 0.561047 -0.764473
outer loop
vertex 0.833885 -0.041089 1.059480
vertex 0.847382 -0.048888 1.048151
vertex 0.838909 -0.055872 1.046544
endloop
endfacet
facet normal -0.375057 0.614636 -0.693941
outer loop
vertex 0.847979 -0.030816 1.063834
vertex 0.864326 -0.034919 1.051365
vertex 0.855854 -0.041903 1.049758
endloop
endfacet
facet normal -0.118506 0.356958 -0.926573
outer loop
vertex 0.791601 -0.071907 1.046418
vertex 0.796548 -0.090793 1.038510
vertex 0.788076 -0.097777 1.036903
endloop
endfacet
facet normal -0.254186 0.498965 -0.828507
outer loop
vertex 0.819790 -0.051362 1.055126
vertex 0.830437 -0.062856 1.044937
vertex 0.821965 -0.069840 1.043330
endloop
endfacet
facet normal -0.487696 0.708854 -0.509587
outer loop
vertex 0.889743 -0.013967 1.056186
vertex 0.883215 -0.005135 1.074719
vertex 0.898216 -0.006982 1.057793
endloop
endfacet
facet normal 0.140427 0.057065 -0.988445
outer loop
vertex 0.838909 -0.055872 1.046544
vertex 0.856613 -0.095484 1.046773
vertex 0.830437 -0.062856 1.044937
endloop
endfacet
facet normal 0.127845 0.039718 -0.990999
outer loop
vertex 0.884143 -0.134038 1.048779
vertex 0.856613 -0.095484 1.046773
vertex 0.891261 -0.121127 1.050215
endloop
endfacet
facet normal 0.140433 0.057072 -0.988444
outer loop
vertex 0.796548 -0.090793 1.038510
vertex 0.856613 -0.095484 1.046773
vertex 0.788076 -0.097777 1.036903
endloop
endfacet
facet normal 0.231949 0.185216 -0.954932
outer loop
vertex 0.891261 -0.121127 1.050215
vertex 0.856613 -0.095484 1.046773
vertex 0.895093 -0.106592 1.053965
endloop
endfacet
facet normal 0.226867 0.164316 -0.959964
outer loop
vertex 0.895093 -0.106592 1.053965
vertex 0.856613 -0.095484 1.046773
vertex 0.898606 -0.091643 1.057354
endloop
endfacet
facet normal 0.231174 0.129145 -0.964303
outer loop
vertex 0.898606 -0.091643 1.057354
vertex 0.856613 -0.095484 1.046773
vertex 0.901491 -0.076101 1.060127
endloop
endfacet
facet normal 0.277370 0.079852 -0.957439
outer loop
vertex 0.901491 -0.076101 1.060127
vertex 0.855854 -0.041903 1.049758
vertex 0.903635 -0.059869 1.062102
endloop
endfacet
facet normal 0.261889 0.057387 -0.963390
outer loop
vertex 0.856613 -0.095484 1.046773
vertex 0.855854 -0.041903 1.049758
vertex 0.901491 -0.076101 1.060127
endloop
endfacet
facet normal 0.297698 0.014549 -0.954549
outer loop
vertex 0.903635 -0.059869 1.062102
vertex 0.872799 -0.027935 1.052972
vertex 0.904912 -0.043021 1.062757
endloop
endfacet
facet normal 0.236063 -0.105101 -0.966037
outer loop
vertex 0.904912 -0.043021 1.062757
vertex 0.881271 -0.020951 1.054579
vertex 0.906102 -0.027195 1.061326
endloop
endfacet
facet normal 0.230104 -0.055586 -0.971577
outer loop
vertex 0.903635 -0.059869 1.062102
vertex 0.864326 -0.034919 1.051365
vertex 0.872799 -0.027935 1.052972
endloop
endfacet
facet normal 0.219166 -0.105856 -0.969928
outer loop
vertex 0.906102 -0.027195 1.061326
vertex 0.889743 -0.013967 1.056186
vertex 0.906537 -0.012578 1.059829
endloop
endfacet
facet normal 0.214670 -0.035903 -0.976027
outer loop
vertex 0.906537 -0.012578 1.059829
vertex 0.898216 -0.006982 1.057793
vertex 0.906688 0.000000 1.059399
endloop
endfacet
facet normal 0.214707 -0.035891 -0.976019
outer loop
vertex 0.889743 -0.013967 1.056186
vertex 0.898216 -0.006982 1.057793
vertex 0.906537 -0.012578 1.059829
endloop
endfacet
facet normal 0.244193 -0.073755 -0.966918
outer loop
vertex 0.889743 -0.013967 1.056186
vertex 0.906102 -0.027195 1.061326
vertex 0.881271 -0.020951 1.054579
endloop
endfacet
facet normal 0.253371 -0.085646 -0.963570
outer loop
vertex 0.881271 -0.020951 1.054579
vertex 0.904912 -0.043021 1.062757
vertex 0.872799 -0.027935 1.052972
endloop
endfacet
facet normal 0.230092 -0.055596 -0.971579
outer loop
vertex 0.864326 -0.034919 1.051365
vertex 0.903635 -0.059869 1.062102
vertex 0.855854 -0.041903 1.049758
endloop
endfacet
facet normal 0.140442 0.057062 -0.988443
outer loop
vertex 0.855854 -0.041903 1.049758
vertex 0.856613 -0.095484 1.046773
vertex 0.847382 -0.048888 1.048151
endloop
endfacet
facet normal 0.140427 0.057065 -0.988445
outer loop
vertex 0.847382 -0.048888 1.048151
vertex 0.856613 -0.095484 1.046773
vertex 0.838909 -0.055872 1.046544
endloop
endfacet
facet normal 0.140443 0.057064 -0.988443
outer loop
vertex 0.821965 -0.069840 1.043330
vertex 0.830437 -0.062856 1.044937
vertex 0.856613 -0.095484 1.046773
endloop
endfacet
facet normal 0.460980 0.067809 -0.884816
outer loop
vertex 0.856613 -0.095484 1.046773
vertex 0.868330 -0.163078 1.047697
vertex 0.790267 -0.197585 1.004382
endloop
endfacet
facet normal 0.407686 0.589435 -0.697395
outer loop
vertex 0.790267 -0.197585 1.004382
vertex 0.842798 -0.222112 1.014361
vertex 0.828128 -0.233021 0.996565
endloop
endfacet
facet normal 0.385187 0.512876 -0.767196
outer loop
vertex 0.848171 -0.213588 1.022757
vertex 0.842798 -0.222112 1.014361
vertex 0.790267 -0.197585 1.004382
endloop
endfacet
facet normal 0.370674 0.356490 -0.857622
outer loop
vertex 0.848171 -0.213588 1.022757
vertex 0.790267 -0.197585 1.004382
vertex 0.853694 -0.202546 1.029734
endloop
endfacet
facet normal 0.374015 0.303540 -0.876343
outer loop
vertex 0.853694 -0.202546 1.029734
vertex 0.790267 -0.197585 1.004382
vertex 0.858800 -0.189855 1.036309
endloop
endfacet
facet normal 0.384182 0.256741 -0.886842
outer loop
vertex 0.858800 -0.189855 1.036309
vertex 0.790267 -0.197585 1.004382
vertex 0.863618 -0.176609 1.042231
endloop
endfacet
facet normal 0.396250 0.221916 -0.890920
outer loop
vertex 0.863618 -0.176609 1.042231
vertex 0.790267 -0.197585 1.004382
vertex 0.868330 -0.163078 1.047697
endloop
endfacet
facet normal 0.370728 0.051581 -0.927308
outer loop
vertex 0.868330 -0.163078 1.047697
vertex 0.856613 -0.095484 1.046773
vertex 0.873900 -0.151553 1.050565
endloop
endfacet
facet normal -0.038272 -0.079171 -0.996126
outer loop
vertex 0.873900 -0.151553 1.050565
vertex 0.856613 -0.095484 1.046773
vertex 0.884143 -0.134038 1.048779
endloop
endfacet
facet normal -0.014803 0.200292 -0.979624
outer loop
vertex 0.758995 -0.140096 1.016609
vertex 0.790267 -0.197585 1.004382
vertex 0.752406 -0.162150 1.012200
endloop
endfacet
facet normal 0.060725 0.348823 -0.935219
outer loop
vertex 0.790267 -0.197585 1.004382
vertex 0.769829 -0.126004 1.029754
vertex 0.856613 -0.095484 1.046773
endloop
endfacet
facet normal 0.140433 0.057065 -0.988444
outer loop
vertex 0.856613 -0.095484 1.046773
vertex 0.813493 -0.076824 1.041723
vertex 0.821965 -0.069840 1.043330
endloop
endfacet
facet normal 0.140440 0.057055 -0.988444
outer loop
vertex 0.856613 -0.095484 1.046773
vertex 0.805020 -0.083808 1.040117
vertex 0.813493 -0.076824 1.041723
endloop
endfacet
facet normal 0.135446 0.160073 -0.977768
outer loop
vertex 0.769829 -0.126004 1.029754
vertex 0.788076 -0.097777 1.036903
vertex 0.856613 -0.095484 1.046773
endloop
endfacet
facet normal 0.438899 0.408909 -0.800100
outer loop
vertex 0.769829 -0.126004 1.029754
vertex 0.790267 -0.197585 1.004382
vertex 0.758995 -0.140096 1.016609
endloop
endfacet
facet normal -0.039358 0.269152 -0.962293
outer loop
vertex 0.779603 -0.104761 1.035296
vertex 0.769829 -0.126004 1.029754
vertex 0.771131 -0.111745 1.033689
endloop
endfacet
facet normal -0.039310 0.269150 -0.962296
outer loop
vertex 0.788076 -0.097777 1.036903
vertex 0.769829 -0.126004 1.029754
vertex 0.779603 -0.104761 1.035296
endloop
endfacet
facet normal 0.140427 0.057052 -0.988446
outer loop
vertex 0.856613 -0.095484 1.046773
vertex 0.796548 -0.090793 1.038510
vertex 0.805020 -0.083808 1.040117
endloop
endfacet
facet normal -0.111464 0.513518 -0.850808
outer loop
vertex 0.802172 -0.064203 1.049683
vertex 0.792886 -0.042016 1.064291
vertex 0.805696 -0.061635 1.050772
endloop
endfacet
facet normal -0.833117 -0.020118 0.552731
outer loop
vertex 0.788417 -0.046745 1.057383
vertex 0.792886 -0.042016 1.064291
vertex 0.789334 -0.037811 1.059090
endloop
endfacet
facet normal -0.833147 -0.020117 0.552685
outer loop
vertex 0.788417 -0.046745 1.057383
vertex 0.789334 -0.037811 1.059090
vertex 0.784865 -0.042540 1.052181
endloop
endfacet
facet normal -0.833127 -0.020132 0.552714
outer loop
vertex 0.784865 -0.042540 1.052181
vertex 0.789334 -0.037811 1.059090
vertex 0.785782 -0.033605 1.053889
endloop
endfacet
facet normal -0.220226 0.925675 0.307613
outer loop
vertex 0.847188 -0.046436 1.097682
vertex 0.840932 -0.035953 1.061657
vertex 0.839985 -0.048485 1.098692
endloop
endfacet
facet normal -0.265069 0.915389 0.302987
outer loop
vertex 0.839985 -0.048485 1.098692
vertex 0.840932 -0.035953 1.061657
vertex 0.832756 -0.050190 1.097519
endloop
endfacet
facet normal -0.250501 0.955677 0.154694
outer loop
vertex 0.832756 -0.050190 1.097519
vertex 0.818527 -0.052961 1.091593
vertex 0.825527 -0.051895 1.096346
endloop
endfacet
facet normal -0.236086 0.962742 0.131878
outer loop
vertex 0.818527 -0.052961 1.091593
vertex 0.826837 -0.046226 1.057303
vertex 0.811527 -0.054026 1.086840
endloop
endfacet
facet normal 0.084030 0.976360 0.199150
outer loop
vertex 0.811527 -0.054026 1.086840
vertex 0.823314 -0.048794 1.056214
vertex 0.806041 -0.052276 1.080573
endloop
endfacet
facet normal 0.261334 0.964395 0.040581
outer loop
vertex 0.806041 -0.052276 1.080573
vertex 0.816267 -0.053930 1.054037
vertex 0.800554 -0.050525 1.074306
endloop
endfacet
facet normal 0.637854 0.754820 0.152934
outer loop
vertex 0.800554 -0.050525 1.074306
vertex 0.812743 -0.056498 1.052949
vertex 0.796720 -0.046271 1.069299
endloop
endfacet
facet normal -0.518416 0.817538 -0.250752
outer loop
vertex 0.806041 -0.052276 1.080573
vertex 0.819790 -0.051362 1.055126
vertex 0.816267 -0.053930 1.054037
endloop
endfacet
facet normal 0.729837 0.683275 0.021741
outer loop
vertex 0.796720 -0.046271 1.069299
vertex 0.809219 -0.059066 1.051860
vertex 0.792886 -0.042016 1.064291
endloop
endfacet
facet normal 0.853884 0.483765 -0.191971
outer loop
vertex 0.792886 -0.042016 1.064291
vertex 0.802172 -0.064203 1.049683
vertex 0.789334 -0.037811 1.059090
endloop
endfacet
facet normal -0.111464 0.513519 -0.850808
outer loop
vertex 0.809219 -0.059066 1.051860
vertex 0.805696 -0.061635 1.050772
vertex 0.792886 -0.042016 1.064291
endloop
endfacet
facet normal 0.876830 0.385930 -0.286754
outer loop
vertex 0.789334 -0.037811 1.059090
vertex 0.798649 -0.066771 1.048595
vertex 0.785782 -0.033605 1.053889
endloop
endfacet
facet normal -0.425442 0.778961 -0.460673
outer loop
vertex 0.816267 -0.053930 1.054037
vertex 0.812743 -0.056498 1.052949
vertex 0.800554 -0.050525 1.074306
endloop
endfacet
facet normal -0.570851 0.817138 -0.080089
outer loop
vertex 0.811527 -0.054026 1.086840
vertex 0.826837 -0.046226 1.057303
vertex 0.823314 -0.048794 1.056214
endloop
endfacet
facet normal -0.272596 0.937518 0.216219
outer loop
vertex 0.832756 -0.050190 1.097519
vertex 0.833885 -0.041089 1.059480
vertex 0.818527 -0.052961 1.091593
endloop
endfacet
facet normal -0.591938 0.805847 0.014823
outer loop
vertex 0.830361 -0.043657 1.058392
vertex 0.826837 -0.046226 1.057303
vertex 0.818527 -0.052961 1.091593
endloop
endfacet
facet normal -0.153230 0.875220 0.458813
outer loop
vertex 0.861063 -0.041909 1.094173
vertex 0.851503 -0.028248 1.064923
vertex 0.854391 -0.044386 1.096671
endloop
endfacet
facet normal -0.196707 0.891986 0.407022
outer loop
vertex 0.854391 -0.044386 1.096671
vertex 0.847979 -0.030816 1.063834
vertex 0.847188 -0.046436 1.097682
endloop
endfacet
facet normal -0.175002 0.746236 0.642266
outer loop
vertex 0.873385 -0.035480 1.088625
vertex 0.862073 -0.020544 1.068188
vertex 0.867736 -0.039431 1.091676
endloop
endfacet
facet normal -0.087728 0.814433 0.573588
outer loop
vertex 0.867736 -0.039431 1.091676
vertex 0.858550 -0.023112 1.067100
vertex 0.861063 -0.041909 1.094173
endloop
endfacet
facet normal -0.617295 0.677220 0.400400
outer loop
vertex 0.851503 -0.028248 1.064923
vertex 0.847979 -0.030816 1.063834
vertex 0.854391 -0.044386 1.096671
endloop
endfacet
facet normal -0.182999 0.552019 0.813503
outer loop
vertex 0.882688 -0.026437 1.082940
vertex 0.872644 -0.012839 1.071454
vertex 0.879035 -0.031529 1.085574
endloop
endfacet
facet normal -0.062333 0.664317 0.744847
outer loop
vertex 0.879035 -0.031529 1.085574
vertex 0.869121 -0.015407 1.070365
vertex 0.873385 -0.035480 1.088625
endloop
endfacet
facet normal -0.562022 0.488076 0.667767
outer loop
vertex 0.869121 -0.015407 1.070365
vertex 0.865597 -0.017976 1.069277
vertex 0.873385 -0.035480 1.088625
endloop
endfacet
facet normal -0.228727 0.277477 0.933108
outer loop
vertex 0.887816 -0.015874 1.079041
vertex 0.883215 -0.005135 1.074719
vertex 0.886341 -0.021344 1.080306
endloop
endfacet
facet normal 0.020732 0.447553 0.894017
outer loop
vertex 0.886341 -0.021344 1.080306
vertex 0.879691 -0.007703 1.073631
vertex 0.882688 -0.026437 1.082940
endloop
endfacet
facet normal -0.487212 0.324890 0.810600
outer loop
vertex 0.876168 -0.010271 1.072542
vertex 0.872644 -0.012839 1.071454
vertex 0.882688 -0.026437 1.082940
endloop
endfacet
facet normal -0.032471 0.233501 0.971814
outer loop
vertex 0.889292 -0.010403 1.077776
vertex 0.886739 -0.002566 1.075808
vertex 0.887816 -0.015874 1.079041
endloop
endfacet
facet normal -0.487219 0.324888 0.810596
outer loop
vertex 0.882688 -0.026437 1.082940
vertex 0.879691 -0.007703 1.073631
vertex 0.876168 -0.010271 1.072542
endloop
endfacet
facet normal -0.521032 0.393928 0.757196
outer loop
vertex 0.872644 -0.012839 1.071454
vertex 0.869121 -0.015407 1.070365
vertex 0.879035 -0.031529 1.085574
endloop
endfacet
facet normal -0.591914 0.805864 0.014823
outer loop
vertex 0.818527 -0.052961 1.091593
vertex 0.833885 -0.041089 1.059480
vertex 0.830361 -0.043657 1.058392
endloop
endfacet
facet normal -0.613854 0.771680 0.166415
outer loop
vertex 0.840932 -0.035953 1.061657
vertex 0.837408 -0.038521 1.060569
vertex 0.832756 -0.050190 1.097519
endloop
endfacet
facet normal -0.518390 0.817556 -0.250746
outer loop
vertex 0.823314 -0.048794 1.056214
vertex 0.819790 -0.051362 1.055126
vertex 0.806041 -0.052276 1.080573
endloop
endfacet
facet normal -0.015156 0.189198 -0.981822
outer loop
vertex 0.784865 -0.042540 1.052181
vertex 0.791601 -0.071907 1.046418
vertex 0.783948 -0.051474 1.050474
endloop
endfacet
facet normal 0.160341 0.242759 -0.956744
outer loop
vertex 0.783948 -0.051474 1.050474
vertex 0.788078 -0.074476 1.045329
vertex 0.782431 -0.059253 1.048246
endloop
endfacet
facet normal -0.275533 0.670121 -0.689216
outer loop
vertex 0.796720 -0.046271 1.069299
vertex 0.812743 -0.056498 1.052949
vertex 0.809219 -0.059066 1.051860
endloop
endfacet
facet normal 0.033747 0.184278 -0.982295
outer loop
vertex 0.785782 -0.033605 1.053889
vertex 0.795125 -0.069339 1.047506
vertex 0.784865 -0.042540 1.052181
endloop
endfacet
facet normal 0.124235 0.237780 -0.963341
outer loop
vertex 0.783948 -0.051474 1.050474
vertex 0.791601 -0.071907 1.046418
vertex 0.788078 -0.074476 1.045329
endloop
endfacet
facet normal 0.185849 0.236868 -0.953600
outer loop
vertex 0.782431 -0.059253 1.048246
vertex 0.784554 -0.077044 1.044241
vertex 0.780914 -0.067032 1.046018
endloop
endfacet
facet normal 0.128452 0.232374 -0.964107
outer loop
vertex 0.788078 -0.074476 1.045329
vertex 0.784554 -0.077044 1.044241
vertex 0.782431 -0.059253 1.048246
endloop
endfacet
facet normal -0.620632 0.717371 0.316536
outer loop
vertex 0.847188 -0.046436 1.097682
vertex 0.844455 -0.033385 1.062746
vertex 0.840932 -0.035953 1.061657
endloop
endfacet
facet normal -0.620629 0.717378 0.316526
outer loop
vertex 0.847979 -0.030816 1.063834
vertex 0.844455 -0.033385 1.062746
vertex 0.847188 -0.046436 1.097682
endloop
endfacet
facet normal 0.137023 0.221216 -0.965551
outer loop
vertex 0.780914 -0.067032 1.046018
vertex 0.781031 -0.079612 1.043152
vertex 0.779211 -0.074606 1.044041
endloop
endfacet
facet normal 0.137082 0.221204 -0.965545
outer loop
vertex 0.779211 -0.074606 1.044041
vertex 0.781031 -0.079612 1.043152
vertex 0.777507 -0.082180 1.042064
endloop
endfacet
facet normal 0.137064 0.221208 -0.965547
outer loop
vertex 0.781031 -0.079612 1.043152
vertex 0.780914 -0.067032 1.046018
vertex 0.784554 -0.077044 1.044241
endloop
endfacet
facet normal 0.137264 0.220973 -0.965572
outer loop
vertex 0.791601 -0.071907 1.046418
vertex 0.784865 -0.042540 1.052181
vertex 0.795125 -0.069339 1.047506
endloop
endfacet
facet normal 0.145106 0.210620 -0.966739
outer loop
vertex 0.795125 -0.069339 1.047506
vertex 0.785782 -0.033605 1.053889
vertex 0.798649 -0.066771 1.048595
endloop
endfacet
facet normal -0.367211 0.112300 0.923334
outer loop
vertex 0.889777 -0.005201 1.077336
vertex 0.886739 -0.002566 1.075808
vertex 0.889292 -0.010403 1.077776
endloop
endfacet
facet normal -0.586990 0.555912 0.588561
outer loop
vertex 0.867736 -0.039431 1.091676
vertex 0.862073 -0.020544 1.068188
vertex 0.858550 -0.023112 1.067100
endloop
endfacet
facet normal -0.367047 0.112336 0.923394
outer loop
vertex 0.886739 -0.002566 1.075808
vertex 0.889777 -0.005201 1.077336
vertex 0.890262 0.000000 1.076896
endloop
endfacet
facet normal -0.430127 0.218907 0.875826
outer loop
vertex 0.879691 -0.007703 1.073631
vertex 0.886341 -0.021344 1.080306
vertex 0.883215 -0.005135 1.074719
endloop
endfacet
facet normal -0.409967 0.183855 0.893378
outer loop
vertex 0.883215 -0.005135 1.074719
vertex 0.887816 -0.015874 1.079041
vertex 0.886739 -0.002566 1.075808
endloop
endfacet
facet normal 0.033912 0.350153 -0.936079
outer loop
vertex 0.798649 -0.066771 1.048595
vertex 0.789334 -0.037811 1.059090
vertex 0.802172 -0.064203 1.049683
endloop
endfacet
facet normal -0.562036 0.488027 0.667791
outer loop
vertex 0.862073 -0.020544 1.068188
vertex 0.873385 -0.035480 1.088625
vertex 0.865597 -0.017976 1.069277
endloop
endfacet
facet normal -0.607154 0.625176 0.490427
outer loop
vertex 0.851503 -0.028248 1.064923
vertex 0.861063 -0.041909 1.094173
vertex 0.855026 -0.025680 1.066011
endloop
endfacet
facet normal -0.607154 0.625176 0.490428
outer loop
vertex 0.855026 -0.025680 1.066011
vertex 0.861063 -0.041909 1.094173
vertex 0.858550 -0.023112 1.067100
endloop
endfacet
facet normal -0.613850 0.771683 0.166412
outer loop
vertex 0.833885 -0.041089 1.059480
vertex 0.832756 -0.050190 1.097519
vertex 0.837408 -0.038521 1.060569
endloop
endfacet
facet normal -0.361751 -0.580208 -0.729723
outer loop
vertex 0.774719 -0.226546 1.035117
vertex 0.790267 -0.197585 1.004382
vertex 0.787715 -0.234142 1.034714
endloop
endfacet
facet normal -0.424769 -0.560320 -0.711064
outer loop
vertex 0.787715 -0.234142 1.034714
vertex 0.790267 -0.197585 1.004382
vertex 0.800853 -0.237372 1.029411
endloop
endfacet
facet normal -0.487029 -0.554216 -0.675016
outer loop
vertex 0.800853 -0.237372 1.029411
vertex 0.790267 -0.197585 1.004382
vertex 0.811900 -0.236582 1.020792
endloop
endfacet
facet normal -0.643565 -0.571323 -0.509327
outer loop
vertex 0.811900 -0.236582 1.020792
vertex 0.790267 -0.197585 1.004382
vertex 0.820139 -0.235097 1.008716
endloop
endfacet
facet normal -0.639238 -0.568846 -0.517484
outer loop
vertex 0.820139 -0.235097 1.008716
vertex 0.790267 -0.197585 1.004382
vertex 0.828128 -0.233021 0.996565
endloop
endfacet
facet normal -0.575635 -0.466942 -0.671274
outer loop
vertex 0.790267 -0.197585 1.004382
vertex 0.754618 -0.179307 1.022238
vertex 0.752406 -0.162150 1.012200
endloop
endfacet
facet normal -0.319416 0.265627 -0.909624
outer loop
vertex 0.752138 -0.193583 1.018940
vertex 0.754618 -0.179307 1.022238
vertex 0.790267 -0.197585 1.004382
endloop
endfacet
facet normal -0.339346 -0.601106 -0.723544
outer loop
vertex 0.752138 -0.193583 1.018940
vertex 0.790267 -0.197585 1.004382
vertex 0.755676 -0.205093 1.026843
endloop
endfacet
facet normal -0.347474 -0.586894 -0.731312
outer loop
vertex 0.755676 -0.205093 1.026843
vertex 0.790267 -0.197585 1.004382
vertex 0.763691 -0.216485 1.032177
endloop
endfacet
facet normal -0.343895 -0.590334 -0.730234
outer loop
vertex 0.763691 -0.216485 1.032177
vertex 0.790267 -0.197585 1.004382
vertex 0.774719 -0.226546 1.035117
endloop
endfacet
endsolid Exported from Blender-4.0.2
