solid Exported from Blender-4.0.2
facet normal 0.953600 -0.067381 0.293440
outer loop
vertex 0.436687 -0.176634 0.613413
vertex 0.437786 -0.201774 0.604069
vertex 0.439113 -0.186486 0.603267
endloop
endfacet
facet normal 0.482645 0.683195 -0.547996
outer loop
vertex 0.436687 -0.176634 0.613413
vertex 0.439113 -0.186486 0.603267
vertex 0.427984 -0.182811 0.598047
endloop
endfacet
facet normal 0.553008 0.832407 -0.035794
outer loop
vertex 0.427083 -0.170536 0.606846
vertex 0.431884 -0.172918 0.625625
vertex 0.436687 -0.176634 0.613413
endloop
endfacet
facet normal 0.681316 0.458833 -0.570334
outer loop
vertex 0.436687 -0.176634 0.613413
vertex 0.427984 -0.182811 0.598047
vertex 0.427083 -0.170536 0.606846
endloop
endfacet
facet normal 0.921267 -0.067821 0.382971
outer loop
vertex 0.431884 -0.172918 0.625625
vertex 0.430017 -0.217517 0.622218
vertex 0.436687 -0.176634 0.613413
endloop
endfacet
facet normal 0.939979 -0.082017 0.331229
outer loop
vertex 0.437786 -0.201774 0.604069
vertex 0.436687 -0.176634 0.613413
vertex 0.430017 -0.217517 0.622218
endloop
endfacet
facet normal 0.947607 -0.132603 0.290615
outer loop
vertex 0.437786 -0.201774 0.604069
vertex 0.430017 -0.217517 0.622218
vertex 0.434453 -0.214998 0.608903
endloop
endfacet
facet normal 0.190521 -0.974218 -0.120834
outer loop
vertex 0.418823 -0.217688 0.605947
vertex 0.434453 -0.214998 0.608903
vertex 0.430017 -0.217517 0.622218
endloop
endfacet
facet normal -0.021300 -0.999457 0.025155
outer loop
vertex 0.418823 -0.217688 0.605947
vertex 0.430017 -0.217517 0.622218
vertex 0.414537 -0.217275 0.618726
endloop
endfacet
facet normal -0.059948 -0.978380 0.197935
outer loop
vertex 0.414537 -0.217275 0.618726
vertex 0.430017 -0.217517 0.622218
vertex 0.424956 -0.214372 0.636231
endloop
endfacet
facet normal 0.933666 -0.065978 0.352014
outer loop
vertex 0.430017 -0.217517 0.622218
vertex 0.431884 -0.172918 0.625625
vertex 0.424956 -0.214372 0.636231
endloop
endfacet
facet normal 0.241445 -0.801141 -0.547610
outer loop
vertex 0.434453 -0.214998 0.608903
vertex 0.418823 -0.217688 0.605947
vertex 0.423725 -0.210080 0.596978
endloop
endfacet
facet normal -0.028503 -0.999335 0.022739
outer loop
vertex 0.414537 -0.217275 0.618726
vertex 0.405143 -0.217469 0.598423
vertex 0.418823 -0.217688 0.605947
endloop
endfacet
facet normal 0.277865 -0.802137 -0.528552
outer loop
vertex 0.423725 -0.210080 0.596978
vertex 0.418823 -0.217688 0.605947
vertex 0.405143 -0.217469 0.598423
endloop
endfacet
facet normal 0.501213 -0.116482 -0.857448
outer loop
vertex 0.437786 -0.201774 0.604069
vertex 0.423725 -0.210080 0.596978
vertex 0.425482 -0.198331 0.596409
endloop
endfacet
facet normal 0.590863 -0.404160 -0.698237
outer loop
vertex 0.437786 -0.201774 0.604069
vertex 0.434453 -0.214998 0.608903
vertex 0.423725 -0.210080 0.596978
endloop
endfacet
facet normal 0.300931 -0.843718 -0.444500
outer loop
vertex 0.423725 -0.210080 0.596978
vertex 0.405143 -0.217469 0.598423
vertex 0.411990 -0.209189 0.587342
endloop
endfacet
facet normal 0.623228 -0.130544 -0.771068
outer loop
vertex 0.411990 -0.209189 0.587342
vertex 0.425482 -0.198331 0.596409
vertex 0.423725 -0.210080 0.596978
endloop
endfacet
facet normal 0.529347 0.004203 -0.848395
outer loop
vertex 0.427984 -0.182811 0.598047
vertex 0.437786 -0.201774 0.604069
vertex 0.425482 -0.198331 0.596409
endloop
endfacet
facet normal 0.531133 0.074046 -0.844047
outer loop
vertex 0.416148 -0.179152 0.592218
vertex 0.425482 -0.198331 0.596409
vertex 0.413163 -0.194422 0.589000
endloop
endfacet
facet normal 0.447238 0.022269 -0.894138
outer loop
vertex 0.416148 -0.179152 0.592218
vertex 0.427984 -0.182811 0.598047
vertex 0.425482 -0.198331 0.596409
endloop
endfacet
facet normal 0.527047 0.053362 -0.848159
outer loop
vertex 0.411990 -0.209189 0.587342
vertex 0.413163 -0.194422 0.589000
vertex 0.425482 -0.198331 0.596409
endloop
endfacet
facet normal 0.512245 0.080066 -0.855099
outer loop
vertex 0.416148 -0.179152 0.592218
vertex 0.413163 -0.194422 0.589000
vertex 0.400774 -0.190015 0.581991
endloop
endfacet
facet normal 0.537420 0.051812 -0.841721
outer loop
vertex 0.398442 -0.205776 0.578902
vertex 0.413163 -0.194422 0.589000
vertex 0.411990 -0.209189 0.587342
endloop
endfacet
facet normal 0.514675 0.090940 -0.852549
outer loop
vertex 0.398442 -0.205776 0.578902
vertex 0.400774 -0.190015 0.581991
vertex 0.413163 -0.194422 0.589000
endloop
endfacet
facet normal 0.478394 0.139217 -0.867040
outer loop
vertex 0.416148 -0.179152 0.592218
vertex 0.400774 -0.190015 0.581991
vertex 0.404084 -0.174989 0.586230
endloop
endfacet
facet normal 0.439824 0.109623 -0.891369
outer loop
vertex 0.384809 -0.200370 0.572840
vertex 0.400774 -0.190015 0.581991
vertex 0.398442 -0.205776 0.578902
endloop
endfacet
facet normal 0.477176 0.040128 -0.877891
outer loop
vertex 0.384809 -0.200370 0.572840
vertex 0.388464 -0.184698 0.575543
vertex 0.400774 -0.190015 0.581991
endloop
endfacet
facet normal 0.509892 0.154150 -0.846314
outer loop
vertex 0.391994 -0.170746 0.580211
vertex 0.400774 -0.190015 0.581991
vertex 0.388464 -0.184698 0.575543
endloop
endfacet
facet normal 0.479934 0.138661 -0.866278
outer loop
vertex 0.391994 -0.170746 0.580211
vertex 0.404084 -0.174989 0.586230
vertex 0.400774 -0.190015 0.581991
endloop
endfacet
facet normal 0.513207 0.381113 -0.769007
outer loop
vertex 0.404084 -0.174989 0.586230
vertex 0.416682 -0.166374 0.598907
vertex 0.416148 -0.179152 0.592218
endloop
endfacet
facet normal 0.542599 0.338068 -0.768958
outer loop
vertex 0.404084 -0.174989 0.586230
vertex 0.405181 -0.161608 0.592887
vertex 0.416682 -0.166374 0.598907
endloop
endfacet
facet normal 0.514807 0.369492 -0.773595
outer loop
vertex 0.393016 -0.157801 0.587074
vertex 0.404084 -0.174989 0.586230
vertex 0.391994 -0.170746 0.580211
endloop
endfacet
facet normal 0.491218 0.355363 -0.795249
outer loop
vertex 0.393016 -0.157801 0.587074
vertex 0.405181 -0.161608 0.592887
vertex 0.404084 -0.174989 0.586230
endloop
endfacet
facet normal 0.529060 0.729830 -0.432947
outer loop
vertex 0.413824 -0.158809 0.608167
vertex 0.416682 -0.166374 0.598907
vertex 0.405181 -0.161608 0.592887
endloop
endfacet
facet normal 0.478060 0.681445 -0.554158
outer loop
vertex 0.403275 -0.152116 0.602915
vertex 0.405181 -0.161608 0.592887
vertex 0.393016 -0.157801 0.587074
endloop
endfacet
facet normal 0.627700 0.621403 -0.468882
outer loop
vertex 0.413824 -0.158809 0.608167
vertex 0.405181 -0.161608 0.592887
vertex 0.403275 -0.152116 0.602915
endloop
endfacet
facet normal 0.540330 0.755848 -0.369780
outer loop
vertex 0.403275 -0.152116 0.602915
vertex 0.387246 -0.137272 0.609835
vertex 0.400576 -0.144718 0.614093
endloop
endfacet
facet normal 0.616767 0.716724 -0.325430
outer loop
vertex 0.400576 -0.144718 0.614093
vertex 0.413824 -0.158809 0.608167
vertex 0.403275 -0.152116 0.602915
endloop
endfacet
facet normal 0.507654 0.652284 -0.562861
outer loop
vertex 0.403275 -0.152116 0.602915
vertex 0.393016 -0.157801 0.587074
vertex 0.390901 -0.147103 0.597564
endloop
endfacet
facet normal 0.495342 0.743969 -0.448493
outer loop
vertex 0.403275 -0.152116 0.602915
vertex 0.390901 -0.147103 0.597564
vertex 0.387246 -0.137272 0.609835
endloop
endfacet
facet normal 0.576160 0.784312 -0.229986
outer loop
vertex 0.398421 -0.140359 0.627303
vertex 0.387246 -0.137272 0.609835
vertex 0.385740 -0.132083 0.623758
endloop
endfacet
facet normal 0.524135 0.830502 -0.188543
outer loop
vertex 0.398421 -0.140359 0.627303
vertex 0.400576 -0.144718 0.614093
vertex 0.387246 -0.137272 0.609835
endloop
endfacet
facet normal 0.527861 0.812959 -0.245885
outer loop
vertex 0.385740 -0.132083 0.623758
vertex 0.387246 -0.137272 0.609835
vertex 0.374698 -0.130330 0.605849
endloop
endfacet
facet normal 0.537823 0.728838 -0.423724
outer loop
vertex 0.374698 -0.130330 0.605849
vertex 0.387246 -0.137272 0.609835
vertex 0.390901 -0.147103 0.597564
endloop
endfacet
facet normal 0.548619 0.836003 -0.010792
outer loop
vertex 0.395869 -0.138511 0.640726
vertex 0.398421 -0.140359 0.627303
vertex 0.385740 -0.132083 0.623758
endloop
endfacet
facet normal 0.525419 0.848446 -0.063829
outer loop
vertex 0.372078 -0.122733 0.635581
vertex 0.384060 -0.129955 0.638215
vertex 0.385740 -0.132083 0.623758
endloop
endfacet
facet normal 0.592873 0.803779 -0.049416
outer loop
vertex 0.395869 -0.138511 0.640726
vertex 0.385740 -0.132083 0.623758
vertex 0.384060 -0.129955 0.638215
endloop
endfacet
facet normal 0.529388 0.846419 -0.057650
outer loop
vertex 0.372078 -0.122733 0.635581
vertex 0.385740 -0.132083 0.623758
vertex 0.371110 -0.123180 0.620129
endloop
endfacet
facet normal 0.548227 0.794817 -0.260217
outer loop
vertex 0.385740 -0.132083 0.623758
vertex 0.374698 -0.130330 0.605849
vertex 0.371110 -0.123180 0.620129
endloop
endfacet
facet normal 0.649693 0.716445 0.254176
outer loop
vertex 0.395869 -0.138511 0.640726
vertex 0.402420 -0.149344 0.654516
vertex 0.405807 -0.148283 0.642868
endloop
endfacet
facet normal 0.696998 0.716271 0.033901
outer loop
vertex 0.398421 -0.140359 0.627303
vertex 0.395869 -0.138511 0.640726
vertex 0.405807 -0.148283 0.642868
endloop
endfacet
facet normal 0.524921 0.805335 0.275489
outer loop
vertex 0.384060 -0.129955 0.638215
vertex 0.391620 -0.140205 0.653774
vertex 0.395869 -0.138511 0.640726
endloop
endfacet
facet normal 0.605739 0.739641 0.293279
outer loop
vertex 0.395869 -0.138511 0.640726
vertex 0.391620 -0.140205 0.653774
vertex 0.402420 -0.149344 0.654516
endloop
endfacet
facet normal 0.636429 0.743337 0.205931
outer loop
vertex 0.414579 -0.157225 0.645387
vertex 0.402420 -0.149344 0.654516
vertex 0.411679 -0.157520 0.655414
endloop
endfacet
facet normal 0.436162 0.570385 0.696006
outer loop
vertex 0.411679 -0.157520 0.655414
vertex 0.402420 -0.149344 0.654516
vertex 0.397382 -0.155916 0.663059
endloop
endfacet
facet normal 0.653400 0.712798 0.254926
outer loop
vertex 0.414579 -0.157225 0.645387
vertex 0.405807 -0.148283 0.642868
vertex 0.402420 -0.149344 0.654516
endloop
endfacet
facet normal 0.435363 0.570997 0.696003
outer loop
vertex 0.397382 -0.155916 0.663059
vertex 0.402420 -0.149344 0.654516
vertex 0.391620 -0.140205 0.653774
endloop
endfacet
facet normal 0.407129 0.669961 0.620805
outer loop
vertex 0.411679 -0.157520 0.655414
vertex 0.397382 -0.155916 0.663059
vertex 0.408461 -0.162517 0.662917
endloop
endfacet
facet normal 0.063135 0.174749 0.982587
outer loop
vertex 0.391678 -0.166439 0.665297
vertex 0.397382 -0.155916 0.663059
vertex 0.384848 -0.148368 0.662522
endloop
endfacet
facet normal 0.307570 0.565187 0.765483
outer loop
vertex 0.397382 -0.155916 0.663059
vertex 0.391620 -0.140205 0.653774
vertex 0.384848 -0.148368 0.662522
endloop
endfacet
facet normal 0.103657 0.152832 0.982801
outer loop
vertex 0.408461 -0.162517 0.662917
vertex 0.397382 -0.155916 0.663059
vertex 0.391678 -0.166439 0.665297
endloop
endfacet
facet normal 0.423880 0.659364 0.620939
outer loop
vertex 0.417818 -0.167551 0.661875
vertex 0.411679 -0.157520 0.655414
vertex 0.408461 -0.162517 0.662917
endloop
endfacet
facet normal 0.211740 0.195350 0.957604
outer loop
vertex 0.404525 -0.172393 0.665802
vertex 0.417818 -0.167551 0.661875
vertex 0.408461 -0.162517 0.662917
endloop
endfacet
facet normal 0.078252 0.250681 0.964902
outer loop
vertex 0.408461 -0.162517 0.662917
vertex 0.391678 -0.166439 0.665297
vertex 0.404525 -0.172393 0.665802
endloop
endfacet
facet normal 0.163596 0.310345 0.936441
outer loop
vertex 0.404525 -0.172393 0.665802
vertex 0.416522 -0.176955 0.665218
vertex 0.417818 -0.167551 0.661875
endloop
endfacet
facet normal 0.029668 -0.049758 0.998321
outer loop
vertex 0.400612 -0.183996 0.665340
vertex 0.416522 -0.176955 0.665218
vertex 0.404525 -0.172393 0.665802
endloop
endfacet
facet normal -0.043959 -0.010114 0.998982
outer loop
vertex 0.404525 -0.172393 0.665802
vertex 0.391678 -0.166439 0.665297
vertex 0.386249 -0.177707 0.664944
endloop
endfacet
facet normal -0.039169 -0.026562 0.998879
outer loop
vertex 0.404525 -0.172393 0.665802
vertex 0.386249 -0.177707 0.664944
vertex 0.400612 -0.183996 0.665340
endloop
endfacet
facet normal 0.015815 -0.018404 0.999706
outer loop
vertex 0.400612 -0.183996 0.665340
vertex 0.414573 -0.191124 0.664988
vertex 0.416522 -0.176955 0.665218
endloop
endfacet
facet normal -0.060937 -0.167931 0.983914
outer loop
vertex 0.400527 -0.204507 0.661834
vertex 0.414573 -0.191124 0.664988
vertex 0.400612 -0.183996 0.665340
endloop
endfacet
facet normal 0.024441 0.118316 0.992675
outer loop
vertex 0.400612 -0.183996 0.665340
vertex 0.386249 -0.177707 0.664944
vertex 0.385031 -0.190099 0.666451
endloop
endfacet
facet normal 0.135236 -0.167486 0.976555
outer loop
vertex 0.400527 -0.204507 0.661834
vertex 0.400612 -0.183996 0.665340
vertex 0.385031 -0.190099 0.666451
endloop
endfacet
facet normal -0.106436 -0.120882 0.986944
outer loop
vertex 0.400527 -0.204507 0.661834
vertex 0.415595 -0.205773 0.663304
vertex 0.414573 -0.191124 0.664988
endloop
endfacet
facet normal -0.137231 -0.433053 0.890861
outer loop
vertex 0.400527 -0.204507 0.661834
vertex 0.385031 -0.190099 0.666451
vertex 0.385178 -0.203515 0.659952
endloop
endfacet
facet normal -0.104649 -0.924674 0.366095
outer loop
vertex 0.404898 -0.210617 0.647651
vertex 0.400527 -0.204507 0.661834
vertex 0.385178 -0.203515 0.659952
endloop
endfacet
facet normal -0.129602 -0.924546 0.358355
outer loop
vertex 0.420591 -0.211701 0.650530
vertex 0.400527 -0.204507 0.661834
vertex 0.404898 -0.210617 0.647651
endloop
endfacet
facet normal -0.114262 -0.917458 0.381071
outer loop
vertex 0.420591 -0.211701 0.650530
vertex 0.415595 -0.205773 0.663304
vertex 0.400527 -0.204507 0.661834
endloop
endfacet
facet normal 0.934831 0.024491 0.354248
outer loop
vertex 0.420591 -0.211701 0.650530
vertex 0.414573 -0.191124 0.664988
vertex 0.415595 -0.205773 0.663304
endloop
endfacet
facet normal -0.096233 -0.983325 0.154306
outer loop
vertex 0.404898 -0.210617 0.647651
vertex 0.424956 -0.214372 0.636231
vertex 0.420591 -0.211701 0.650530
endloop
endfacet
facet normal 0.952165 -0.054063 0.300764
outer loop
vertex 0.424956 -0.214372 0.636231
vertex 0.426434 -0.168779 0.639747
vertex 0.420591 -0.211701 0.650530
endloop
endfacet
facet normal 0.911945 -0.021199 0.409764
outer loop
vertex 0.420591 -0.211701 0.650530
vertex 0.426434 -0.168779 0.639747
vertex 0.414573 -0.191124 0.664988
endloop
endfacet
facet normal 0.711083 0.699680 0.069351
outer loop
vertex 0.418008 -0.159662 0.634160
vertex 0.426434 -0.168779 0.639747
vertex 0.431884 -0.172918 0.625625
endloop
endfacet
facet normal 0.701960 0.706052 0.093506
outer loop
vertex 0.420873 -0.165130 0.653941
vertex 0.426434 -0.168779 0.639747
vertex 0.418008 -0.159662 0.634160
endloop
endfacet
facet normal 0.931452 0.004250 0.363839
outer loop
vertex 0.420873 -0.165130 0.653941
vertex 0.416522 -0.176955 0.665218
vertex 0.426434 -0.168779 0.639747
endloop
endfacet
facet normal 0.925402 -0.058871 0.374386
outer loop
vertex 0.424956 -0.214372 0.636231
vertex 0.431884 -0.172918 0.625625
vertex 0.426434 -0.168779 0.639747
endloop
endfacet
facet normal 0.937295 -0.134151 0.321685
outer loop
vertex 0.414573 -0.191124 0.664988
vertex 0.426434 -0.168779 0.639747
vertex 0.416522 -0.176955 0.665218
endloop
endfacet
facet normal 0.933307 -0.000993 0.359077
outer loop
vertex 0.416522 -0.176955 0.665218
vertex 0.420873 -0.165130 0.653941
vertex 0.417818 -0.167551 0.661875
endloop
endfacet
facet normal 0.614034 0.657266 0.436993
outer loop
vertex 0.417818 -0.167551 0.661875
vertex 0.420873 -0.165130 0.653941
vertex 0.411679 -0.157520 0.655414
endloop
endfacet
facet normal 0.643255 0.736937 0.207721
outer loop
vertex 0.414579 -0.157225 0.645387
vertex 0.411679 -0.157520 0.655414
vertex 0.420873 -0.165130 0.653941
endloop
endfacet
facet normal 0.736410 0.671899 0.079071
outer loop
vertex 0.420873 -0.165130 0.653941
vertex 0.418008 -0.159662 0.634160
vertex 0.414579 -0.157225 0.645387
endloop
endfacet
facet normal 0.694477 0.717301 0.056408
outer loop
vertex 0.408571 -0.150227 0.630366
vertex 0.414579 -0.157225 0.645387
vertex 0.418008 -0.159662 0.634160
endloop
endfacet
facet normal 0.713154 0.700255 -0.032467
outer loop
vertex 0.421212 -0.163526 0.621198
vertex 0.408571 -0.150227 0.630366
vertex 0.418008 -0.159662 0.634160
endloop
endfacet
facet normal 0.672206 0.738395 -0.053957
outer loop
vertex 0.418008 -0.159662 0.634160
vertex 0.431884 -0.172918 0.625625
vertex 0.421212 -0.163526 0.621198
endloop
endfacet
facet normal 0.706525 0.706165 0.046397
outer loop
vertex 0.408571 -0.150227 0.630366
vertex 0.405807 -0.148283 0.642868
vertex 0.414579 -0.157225 0.645387
endloop
endfacet
facet normal 0.690235 0.722464 0.040264
outer loop
vertex 0.398421 -0.140359 0.627303
vertex 0.405807 -0.148283 0.642868
vertex 0.408571 -0.150227 0.630366
endloop
endfacet
facet normal 0.709970 0.695022 -0.113521
outer loop
vertex 0.408571 -0.150227 0.630366
vertex 0.400576 -0.144718 0.614093
vertex 0.398421 -0.140359 0.627303
endloop
endfacet
facet normal 0.687483 0.720093 -0.093985
outer loop
vertex 0.408571 -0.150227 0.630366
vertex 0.410585 -0.153855 0.617301
vertex 0.400576 -0.144718 0.614093
endloop
endfacet
facet normal 0.688649 0.719039 -0.093515
outer loop
vertex 0.421212 -0.163526 0.621198
vertex 0.410585 -0.153855 0.617301
vertex 0.408571 -0.150227 0.630366
endloop
endfacet
facet normal 0.691597 0.708751 -0.139159
outer loop
vertex 0.400576 -0.144718 0.614093
vertex 0.410585 -0.153855 0.617301
vertex 0.413824 -0.158809 0.608167
endloop
endfacet
facet normal 0.693764 0.706970 -0.137423
outer loop
vertex 0.413824 -0.158809 0.608167
vertex 0.410585 -0.153855 0.617301
vertex 0.421212 -0.163526 0.621198
endloop
endfacet
facet normal 0.677089 0.731505 -0.080316
outer loop
vertex 0.427083 -0.170536 0.606846
vertex 0.421212 -0.163526 0.621198
vertex 0.431884 -0.172918 0.625625
endloop
endfacet
facet normal 0.653694 0.750251 -0.099039
outer loop
vertex 0.413824 -0.158809 0.608167
vertex 0.421212 -0.163526 0.621198
vertex 0.427083 -0.170536 0.606846
endloop
endfacet
facet normal -0.119847 -0.930816 0.345280
outer loop
vertex 0.404898 -0.210617 0.647651
vertex 0.385178 -0.203515 0.659952
vertex 0.389016 -0.209685 0.644651
endloop
endfacet
facet normal -0.093388 -0.977173 0.190819
outer loop
vertex 0.389016 -0.209685 0.644651
vertex 0.409708 -0.213965 0.632860
vertex 0.404898 -0.210617 0.647651
endloop
endfacet
facet normal -0.069982 -0.977594 0.198524
outer loop
vertex 0.404898 -0.210617 0.647651
vertex 0.409708 -0.213965 0.632860
vertex 0.424956 -0.214372 0.636231
endloop
endfacet
facet normal -0.069403 -0.970590 0.230517
outer loop
vertex 0.389016 -0.209685 0.644651
vertex 0.394301 -0.213810 0.628874
vertex 0.409708 -0.213965 0.632860
endloop
endfacet
facet normal -0.058692 -0.980270 0.188748
outer loop
vertex 0.409708 -0.213965 0.632860
vertex 0.394301 -0.213810 0.628874
vertex 0.399628 -0.217068 0.613610
endloop
endfacet
facet normal -0.082349 -0.976229 0.200487
outer loop
vertex 0.409708 -0.213965 0.632860
vertex 0.399628 -0.217068 0.613610
vertex 0.414537 -0.217275 0.618726
endloop
endfacet
facet normal -0.071227 -0.976313 0.204303
outer loop
vertex 0.414537 -0.217275 0.618726
vertex 0.424956 -0.214372 0.636231
vertex 0.409708 -0.213965 0.632860
endloop
endfacet
facet normal -0.081650 -0.988977 0.123520
outer loop
vertex 0.399628 -0.217068 0.613610
vertex 0.378708 -0.213986 0.624458
vertex 0.384297 -0.216423 0.608640
endloop
endfacet
facet normal -0.043847 -0.980045 0.193881
outer loop
vertex 0.399628 -0.217068 0.613610
vertex 0.394301 -0.213810 0.628874
vertex 0.378708 -0.213986 0.624458
endloop
endfacet
facet normal -0.020394 -0.999612 0.018987
outer loop
vertex 0.414537 -0.217275 0.618726
vertex 0.399628 -0.217068 0.613610
vertex 0.405143 -0.217469 0.598423
endloop
endfacet
facet normal -0.045250 -0.998926 0.009944
outer loop
vertex 0.384297 -0.216423 0.608640
vertex 0.405143 -0.217469 0.598423
vertex 0.399628 -0.217068 0.613610
endloop
endfacet
facet normal -0.044572 -0.989607 0.136719
outer loop
vertex 0.384297 -0.216423 0.608640
vertex 0.378708 -0.213986 0.624458
vertex 0.364318 -0.214102 0.618927
endloop
endfacet
facet normal -0.083902 -0.994053 -0.069420
outer loop
vertex 0.384297 -0.216423 0.608640
vertex 0.389491 -0.215638 0.591121
vertex 0.405143 -0.217469 0.598423
endloop
endfacet
facet normal -0.090972 -0.993285 -0.071477
outer loop
vertex 0.369536 -0.214809 0.604998
vertex 0.389491 -0.215638 0.591121
vertex 0.384297 -0.216423 0.608640
endloop
endfacet
facet normal -0.110862 -0.993796 0.008912
outer loop
vertex 0.384297 -0.216423 0.608640
vertex 0.364318 -0.214102 0.618927
vertex 0.369536 -0.214809 0.604998
endloop
endfacet
facet normal 0.140972 -0.818322 -0.557204
outer loop
vertex 0.411990 -0.209189 0.587342
vertex 0.389491 -0.215638 0.591121
vertex 0.398442 -0.205776 0.578902
endloop
endfacet
facet normal 0.122350 -0.814214 -0.567527
outer loop
vertex 0.398442 -0.205776 0.578902
vertex 0.389491 -0.215638 0.591121
vertex 0.378447 -0.210006 0.580660
endloop
endfacet
facet normal 0.149983 -0.834204 -0.530668
outer loop
vertex 0.411990 -0.209189 0.587342
vertex 0.405143 -0.217469 0.598423
vertex 0.389491 -0.215638 0.591121
endloop
endfacet
facet normal -0.110991 -0.988723 -0.100541
outer loop
vertex 0.369536 -0.214809 0.604998
vertex 0.373493 -0.213931 0.591995
vertex 0.389491 -0.215638 0.591121
endloop
endfacet
facet normal -0.118538 -0.921129 -0.370770
outer loop
vertex 0.378447 -0.210006 0.580660
vertex 0.389491 -0.215638 0.591121
vertex 0.373493 -0.213931 0.591995
endloop
endfacet
facet normal 0.073047 -0.657095 -0.750260
outer loop
vertex 0.398442 -0.205776 0.578902
vertex 0.378447 -0.210006 0.580660
vertex 0.384809 -0.200370 0.572840
endloop
endfacet
facet normal 0.111496 -0.669562 -0.734340
outer loop
vertex 0.366036 -0.206589 0.575660
vertex 0.384809 -0.200370 0.572840
vertex 0.378447 -0.210006 0.580660
endloop
endfacet
facet normal -0.120141 -0.920699 -0.371322
outer loop
vertex 0.378447 -0.210006 0.580660
vertex 0.373493 -0.213931 0.591995
vertex 0.361060 -0.210689 0.587979
endloop
endfacet
facet normal -0.112757 -0.928242 -0.354476
outer loop
vertex 0.378447 -0.210006 0.580660
vertex 0.361060 -0.210689 0.587979
vertex 0.366036 -0.206589 0.575660
endloop
endfacet
facet normal 0.084171 -0.611008 -0.787137
outer loop
vertex 0.366036 -0.206589 0.575660
vertex 0.371764 -0.195463 0.567636
vertex 0.384809 -0.200370 0.572840
endloop
endfacet
facet normal 0.154163 -0.628931 -0.762023
outer loop
vertex 0.371764 -0.195463 0.567636
vertex 0.366036 -0.206589 0.575660
vertex 0.352517 -0.204396 0.571115
endloop
endfacet
facet normal -0.041776 -0.942823 -0.330665
outer loop
vertex 0.352517 -0.204396 0.571115
vertex 0.366036 -0.206589 0.575660
vertex 0.361060 -0.210689 0.587979
endloop
endfacet
facet normal 0.121446 -0.576389 -0.808101
outer loop
vertex 0.371764 -0.195463 0.567636
vertex 0.352517 -0.204396 0.571115
vertex 0.357836 -0.191818 0.562943
endloop
endfacet
facet normal 0.090703 -0.569260 -0.817139
outer loop
vertex 0.337287 -0.201922 0.567701
vertex 0.357836 -0.191818 0.562943
vertex 0.352517 -0.204396 0.571115
endloop
endfacet
facet normal -0.120892 -0.978090 -0.169486
outer loop
vertex 0.352517 -0.204396 0.571115
vertex 0.337632 -0.204423 0.581888
vertex 0.337287 -0.201922 0.567701
endloop
endfacet
facet normal -0.135772 -0.948782 -0.285269
outer loop
vertex 0.352517 -0.204396 0.571115
vertex 0.361060 -0.210689 0.587979
vertex 0.348770 -0.207791 0.584190
endloop
endfacet
facet normal -0.217831 -0.927663 -0.303301
outer loop
vertex 0.352517 -0.204396 0.571115
vertex 0.348770 -0.207791 0.584190
vertex 0.337632 -0.204423 0.581888
endloop
endfacet
facet normal -0.601418 -0.789175 -0.124496
outer loop
vertex 0.337632 -0.204423 0.581888
vertex 0.325885 -0.194428 0.575278
vertex 0.337287 -0.201922 0.567701
endloop
endfacet
facet normal -0.437346 -0.793667 -0.422872
outer loop
vertex 0.337632 -0.204423 0.581888
vertex 0.328141 -0.200971 0.585225
vertex 0.325885 -0.194428 0.575278
endloop
endfacet
facet normal -0.255665 -0.942110 -0.216942
outer loop
vertex 0.337632 -0.204423 0.581888
vertex 0.344313 -0.209510 0.596106
vertex 0.334344 -0.205850 0.591960
endloop
endfacet
facet normal -0.238957 -0.944454 -0.225622
outer loop
vertex 0.337632 -0.204423 0.581888
vertex 0.348770 -0.207791 0.584190
vertex 0.344313 -0.209510 0.596106
endloop
endfacet
facet normal -0.408962 -0.875455 -0.257544
outer loop
vertex 0.334344 -0.205850 0.591960
vertex 0.328141 -0.200971 0.585225
vertex 0.337632 -0.204423 0.581888
endloop
endfacet
facet normal -0.627708 -0.708089 -0.323406
outer loop
vertex 0.328141 -0.200971 0.585225
vertex 0.314829 -0.189652 0.586280
vertex 0.325885 -0.194428 0.575278
endloop
endfacet
facet normal -0.621348 -0.697476 -0.357007
outer loop
vertex 0.328141 -0.200971 0.585225
vertex 0.319579 -0.197917 0.594160
vertex 0.314829 -0.189652 0.586280
endloop
endfacet
facet normal -0.495009 -0.849162 -0.184093
outer loop
vertex 0.327595 -0.204268 0.601901
vertex 0.319579 -0.197917 0.594160
vertex 0.328141 -0.200971 0.585225
endloop
endfacet
facet normal -0.475030 -0.860171 -0.185616
outer loop
vertex 0.327595 -0.204268 0.601901
vertex 0.328141 -0.200971 0.585225
vertex 0.334344 -0.205850 0.591960
endloop
endfacet
facet normal -0.735246 -0.262123 -0.625064
outer loop
vertex 0.314829 -0.189652 0.586280
vertex 0.330332 -0.181372 0.564572
vertex 0.325885 -0.194428 0.575278
endloop
endfacet
facet normal -0.720637 -0.295295 -0.627282
outer loop
vertex 0.314829 -0.189652 0.586280
vertex 0.319475 -0.175552 0.574305
vertex 0.330332 -0.181372 0.564572
endloop
endfacet
facet normal -0.774631 -0.241244 -0.584593
outer loop
vertex 0.314829 -0.189652 0.586280
vertex 0.308476 -0.169420 0.586349
vertex 0.319475 -0.175552 0.574305
endloop
endfacet
facet normal -0.746221 -0.232192 -0.623892
outer loop
vertex 0.314829 -0.189652 0.586280
vertex 0.305467 -0.182793 0.594925
vertex 0.308476 -0.169420 0.586349
endloop
endfacet
facet normal -0.713433 -0.652813 -0.254654
outer loop
vertex 0.319579 -0.197917 0.594160
vertex 0.305467 -0.182793 0.594925
vertex 0.314829 -0.189652 0.586280
endloop
endfacet
facet normal -0.725477 0.047309 -0.686619
outer loop
vertex 0.316945 -0.157094 0.578250
vertex 0.319475 -0.175552 0.574305
vertex 0.308476 -0.169420 0.586349
endloop
endfacet
facet normal -0.781890 0.137718 -0.608014
outer loop
vertex 0.309295 -0.151861 0.589273
vertex 0.316945 -0.157094 0.578250
vertex 0.308476 -0.169420 0.586349
endloop
endfacet
facet normal -0.842884 -0.143013 -0.518743
outer loop
vertex 0.301041 -0.162591 0.596547
vertex 0.308476 -0.169420 0.586349
vertex 0.305467 -0.182793 0.594925
endloop
endfacet
facet normal -0.752066 0.142247 -0.643555
outer loop
vertex 0.309295 -0.151861 0.589273
vertex 0.308476 -0.169420 0.586349
vertex 0.301041 -0.162591 0.596547
endloop
endfacet
facet normal -0.698870 0.322801 -0.638263
outer loop
vertex 0.309295 -0.151861 0.589273
vertex 0.323071 -0.143578 0.578378
vertex 0.316945 -0.157094 0.578250
endloop
endfacet
facet normal -0.704459 0.405021 -0.582834
outer loop
vertex 0.309295 -0.151861 0.589273
vertex 0.315883 -0.139002 0.590246
vertex 0.323071 -0.143578 0.578378
endloop
endfacet
facet normal -0.768524 0.173736 -0.615782
outer loop
vertex 0.301629 -0.146702 0.600296
vertex 0.309295 -0.151861 0.589273
vertex 0.301041 -0.162591 0.596547
endloop
endfacet
facet normal -0.611221 0.463111 -0.641823
outer loop
vertex 0.308594 -0.135076 0.602052
vertex 0.309295 -0.151861 0.589273
vertex 0.301629 -0.146702 0.600296
endloop
endfacet
facet normal -0.710329 0.407354 -0.574017
outer loop
vertex 0.308594 -0.135076 0.602052
vertex 0.315883 -0.139002 0.590246
vertex 0.309295 -0.151861 0.589273
endloop
endfacet
facet normal -0.650989 0.487181 -0.582123
outer loop
vertex 0.315883 -0.139002 0.590246
vertex 0.331241 -0.131245 0.579563
vertex 0.323071 -0.143578 0.578378
endloop
endfacet
facet normal -0.648149 0.529417 -0.547375
outer loop
vertex 0.315883 -0.139002 0.590246
vertex 0.324138 -0.126924 0.592153
vertex 0.331241 -0.131245 0.579563
endloop
endfacet
facet normal -0.635758 0.524006 -0.566771
outer loop
vertex 0.308594 -0.135076 0.602052
vertex 0.324138 -0.126924 0.592153
vertex 0.315883 -0.139002 0.590246
endloop
endfacet
facet normal -0.514249 0.679467 -0.523329
outer loop
vertex 0.324138 -0.126924 0.592153
vertex 0.341695 -0.121218 0.582309
vertex 0.331241 -0.131245 0.579563
endloop
endfacet
facet normal -0.529242 0.608713 -0.591077
outer loop
vertex 0.324138 -0.126924 0.592153
vertex 0.334240 -0.115356 0.595021
vertex 0.341695 -0.121218 0.582309
endloop
endfacet
facet normal -0.587948 0.637033 -0.498505
outer loop
vertex 0.316978 -0.123562 0.604894
vertex 0.334240 -0.115356 0.595021
vertex 0.324138 -0.126924 0.592153
endloop
endfacet
facet normal -0.631130 0.585228 -0.509101
outer loop
vertex 0.308594 -0.135076 0.602052
vertex 0.316978 -0.123562 0.604894
vertex 0.324138 -0.126924 0.592153
endloop
endfacet
facet normal -0.788971 0.603268 -0.116591
outer loop
vertex 0.306187 -0.135568 0.615794
vertex 0.316978 -0.123562 0.604894
vertex 0.308594 -0.135076 0.602052
endloop
endfacet
facet normal -0.809830 0.554839 -0.190599
outer loop
vertex 0.306187 -0.135568 0.615794
vertex 0.312901 -0.124800 0.618613
vertex 0.316978 -0.123562 0.604894
endloop
endfacet
facet normal -0.724731 0.671421 -0.154786
outer loop
vertex 0.312901 -0.124800 0.618613
vertex 0.326620 -0.112231 0.608900
vertex 0.316978 -0.123562 0.604894
endloop
endfacet
facet normal -0.583538 0.662566 -0.469563
outer loop
vertex 0.316978 -0.123562 0.604894
vertex 0.326620 -0.112231 0.608900
vertex 0.334240 -0.115356 0.595021
endloop
endfacet
facet normal -0.738323 0.638890 -0.216098
outer loop
vertex 0.312901 -0.124800 0.618613
vertex 0.320780 -0.114202 0.623026
vertex 0.326620 -0.112231 0.608900
endloop
endfacet
facet normal -0.524818 0.845437 -0.099008
outer loop
vertex 0.320780 -0.114202 0.623026
vertex 0.338752 -0.103848 0.616174
vertex 0.326620 -0.112231 0.608900
endloop
endfacet
facet normal -0.245937 0.813376 -0.527196
outer loop
vertex 0.326620 -0.112231 0.608900
vertex 0.338752 -0.103848 0.616174
vertex 0.347253 -0.110659 0.601700
endloop
endfacet
facet normal -0.178849 0.934244 -0.308547
outer loop
vertex 0.326620 -0.112231 0.608900
vertex 0.347253 -0.110659 0.601700
vertex 0.334240 -0.115356 0.595021
endloop
endfacet
facet normal 0.279284 0.807405 -0.519709
outer loop
vertex 0.347253 -0.110659 0.601700
vertex 0.353795 -0.120265 0.590292
vertex 0.341695 -0.121218 0.582309
endloop
endfacet
facet normal 0.646482 0.724437 -0.239273
outer loop
vertex 0.357891 -0.116790 0.611880
vertex 0.353795 -0.120265 0.590292
vertex 0.347253 -0.110659 0.601700
endloop
endfacet
facet normal -0.084534 0.885070 -0.457718
outer loop
vertex 0.347253 -0.110659 0.601700
vertex 0.341695 -0.121218 0.582309
vertex 0.334240 -0.115356 0.595021
endloop
endfacet
facet normal 0.569692 0.815206 -0.104359
outer loop
vertex 0.347253 -0.110659 0.601700
vertex 0.350689 -0.110091 0.624894
vertex 0.357891 -0.116790 0.611880
endloop
endfacet
facet normal 0.516127 0.850967 -0.097300
outer loop
vertex 0.347253 -0.110659 0.601700
vertex 0.338752 -0.103848 0.616174
vertex 0.350689 -0.110091 0.624894
endloop
endfacet
facet normal 0.564591 0.818180 -0.108717
outer loop
vertex 0.361105 -0.116440 0.631205
vertex 0.357891 -0.116790 0.611880
vertex 0.350689 -0.110091 0.624894
endloop
endfacet
facet normal 0.345603 0.882915 0.317835
outer loop
vertex 0.350689 -0.110091 0.624894
vertex 0.353428 -0.118208 0.644464
vertex 0.361105 -0.116440 0.631205
endloop
endfacet
facet normal 0.395187 0.866770 0.304199
outer loop
vertex 0.350689 -0.110091 0.624894
vertex 0.341686 -0.111039 0.639291
vertex 0.353428 -0.118208 0.644464
endloop
endfacet
facet normal 0.298105 0.921987 0.247128
outer loop
vertex 0.329707 -0.105121 0.631662
vertex 0.341686 -0.111039 0.639291
vertex 0.350689 -0.110091 0.624894
endloop
endfacet
facet normal 0.298847 0.920913 0.250219
outer loop
vertex 0.329707 -0.105121 0.631662
vertex 0.350689 -0.110091 0.624894
vertex 0.338752 -0.103848 0.616174
endloop
endfacet
facet normal 0.358960 0.882404 0.304155
outer loop
vertex 0.372078 -0.122733 0.635581
vertex 0.353428 -0.118208 0.644464
vertex 0.366072 -0.124769 0.648576
endloop
endfacet
facet normal 0.367694 0.869847 0.328887
outer loop
vertex 0.372078 -0.122733 0.635581
vertex 0.361105 -0.116440 0.631205
vertex 0.353428 -0.118208 0.644464
endloop
endfacet
facet normal 0.022211 0.608671 0.793112
outer loop
vertex 0.341686 -0.111039 0.639291
vertex 0.344639 -0.128606 0.652690
vertex 0.353428 -0.118208 0.644464
endloop
endfacet
facet normal 0.047584 0.594684 0.802550
outer loop
vertex 0.366072 -0.124769 0.648576
vertex 0.353428 -0.118208 0.644464
vertex 0.344639 -0.128606 0.652690
endloop
endfacet
facet normal 0.432578 0.838519 0.331304
outer loop
vertex 0.366072 -0.124769 0.648576
vertex 0.384060 -0.129955 0.638215
vertex 0.372078 -0.122733 0.635581
endloop
endfacet
facet normal 0.395090 0.886078 0.242424
outer loop
vertex 0.366072 -0.124769 0.648576
vertex 0.379421 -0.131667 0.652033
vertex 0.384060 -0.129955 0.638215
endloop
endfacet
facet normal 0.087196 0.576056 0.812746
outer loop
vertex 0.357925 -0.134954 0.656669
vertex 0.379421 -0.131667 0.652033
vertex 0.366072 -0.124769 0.648576
endloop
endfacet
facet normal 0.046390 0.598436 0.799826
outer loop
vertex 0.366072 -0.124769 0.648576
vertex 0.344639 -0.128606 0.652690
vertex 0.357925 -0.134954 0.656669
endloop
endfacet
facet normal -0.151522 0.244040 0.957855
outer loop
vertex 0.371395 -0.141207 0.660393
vertex 0.357925 -0.134954 0.656669
vertex 0.349934 -0.148578 0.658876
endloop
endfacet
facet normal 0.073087 0.621817 0.779745
outer loop
vertex 0.357925 -0.134954 0.656669
vertex 0.371395 -0.141207 0.660393
vertex 0.379421 -0.131667 0.652033
endloop
endfacet
facet normal -0.165433 0.251508 0.953612
outer loop
vertex 0.349934 -0.148578 0.658876
vertex 0.357925 -0.134954 0.656669
vertex 0.344639 -0.128606 0.652690
endloop
endfacet
facet normal -0.193107 0.135642 0.971757
outer loop
vertex 0.336149 -0.142791 0.655329
vertex 0.342038 -0.162885 0.659304
vertex 0.349934 -0.148578 0.658876
endloop
endfacet
facet normal -0.136913 0.259783 0.955912
outer loop
vertex 0.349934 -0.148578 0.658876
vertex 0.344639 -0.128606 0.652690
vertex 0.336149 -0.142791 0.655329
endloop
endfacet
facet normal -0.134960 0.192906 0.971891
outer loop
vertex 0.371395 -0.141207 0.660393
vertex 0.349934 -0.148578 0.658876
vertex 0.363988 -0.154193 0.661942
endloop
endfacet
facet normal -0.165371 0.120554 0.978836
outer loop
vertex 0.363988 -0.154193 0.661942
vertex 0.349934 -0.148578 0.658876
vertex 0.342038 -0.162885 0.659304
endloop
endfacet
facet normal -0.081822 0.286003 0.954729
outer loop
vertex 0.336460 -0.181886 0.664518
vertex 0.356868 -0.167288 0.661894
vertex 0.342038 -0.162885 0.659304
endloop
endfacet
facet normal -0.225555 0.318827 0.920584
outer loop
vertex 0.319903 -0.178192 0.659182
vertex 0.336460 -0.181886 0.664518
vertex 0.342038 -0.162885 0.659304
endloop
endfacet
facet normal -0.149162 0.077487 0.985772
outer loop
vertex 0.363988 -0.154193 0.661942
vertex 0.342038 -0.162885 0.659304
vertex 0.356868 -0.167288 0.661894
endloop
endfacet
facet normal -0.150995 0.210659 0.965828
outer loop
vertex 0.319903 -0.178192 0.659182
vertex 0.342038 -0.162885 0.659304
vertex 0.327462 -0.158148 0.655992
endloop
endfacet
facet normal -0.175457 0.141315 0.974292
outer loop
vertex 0.336149 -0.142791 0.655329
vertex 0.327462 -0.158148 0.655992
vertex 0.342038 -0.162885 0.659304
endloop
endfacet
facet normal -0.351824 0.275077 0.894736
outer loop
vertex 0.305900 -0.171235 0.651537
vertex 0.319903 -0.178192 0.659182
vertex 0.327462 -0.158148 0.655992
endloop
endfacet
facet normal -0.270652 0.120807 0.955067
outer loop
vertex 0.305900 -0.171235 0.651537
vertex 0.327462 -0.158148 0.655992
vertex 0.313617 -0.152460 0.651349
endloop
endfacet
facet normal -0.245489 0.179991 0.952543
outer loop
vertex 0.313617 -0.152460 0.651349
vertex 0.327462 -0.158148 0.655992
vertex 0.336149 -0.142791 0.655329
endloop
endfacet
facet normal -0.611530 -0.007441 0.791187
outer loop
vertex 0.297654 -0.163710 0.638905
vertex 0.313617 -0.152460 0.651349
vertex 0.302514 -0.145354 0.642834
endloop
endfacet
facet normal -0.456663 0.293027 0.839997
outer loop
vertex 0.322965 -0.136765 0.650956
vertex 0.302514 -0.145354 0.642834
vertex 0.313617 -0.152460 0.651349
endloop
endfacet
facet normal -0.240670 0.167284 0.956083
outer loop
vertex 0.313617 -0.152460 0.651349
vertex 0.336149 -0.142791 0.655329
vertex 0.322965 -0.136765 0.650956
endloop
endfacet
facet normal -0.708542 0.297635 0.639829
outer loop
vertex 0.297654 -0.163710 0.638905
vertex 0.305900 -0.171235 0.651537
vertex 0.313617 -0.152460 0.651349
endloop
endfacet
facet normal -0.871161 -0.292013 0.394725
outer loop
vertex 0.297654 -0.163710 0.638905
vertex 0.306460 -0.187184 0.640974
vertex 0.305900 -0.171235 0.651537
endloop
endfacet
facet normal -0.878491 -0.296538 0.374592
outer loop
vertex 0.297654 -0.163710 0.638905
vertex 0.298500 -0.177877 0.629674
vertex 0.306460 -0.187184 0.640974
endloop
endfacet
facet normal -0.995598 -0.085075 0.039326
outer loop
vertex 0.296865 -0.162778 0.620946
vertex 0.298500 -0.177877 0.629674
vertex 0.297654 -0.163710 0.638905
endloop
endfacet
facet normal -0.968078 0.244489 0.055220
outer loop
vertex 0.296865 -0.162778 0.620946
vertex 0.297654 -0.163710 0.638905
vertex 0.302514 -0.145354 0.642834
endloop
endfacet
facet normal -0.956243 0.277116 0.093837
outer loop
vertex 0.296865 -0.162778 0.620946
vertex 0.301141 -0.145753 0.614243
vertex 0.297914 -0.154599 0.607482
endloop
endfacet
facet normal -0.993852 0.110223 -0.010476
outer loop
vertex 0.297914 -0.154599 0.607482
vertex 0.295679 -0.174867 0.606267
vertex 0.296865 -0.162778 0.620946
endloop
endfacet
facet normal -0.966168 0.255761 0.033261
outer loop
vertex 0.296865 -0.162778 0.620946
vertex 0.301710 -0.145474 0.628626
vertex 0.301141 -0.145753 0.614243
endloop
endfacet
facet normal -0.985793 -0.150203 -0.075172
outer loop
vertex 0.296865 -0.162778 0.620946
vertex 0.300937 -0.187261 0.616466
vertex 0.298500 -0.177877 0.629674
endloop
endfacet
facet normal -0.967453 0.247511 0.052655
outer loop
vertex 0.296865 -0.162778 0.620946
vertex 0.302514 -0.145354 0.642834
vertex 0.301710 -0.145474 0.628626
endloop
endfacet
facet normal -0.948638 -0.202288 0.243239
outer loop
vertex 0.296865 -0.162778 0.620946
vertex 0.295679 -0.174867 0.606267
vertex 0.300937 -0.187261 0.616466
endloop
endfacet
facet normal -0.897360 0.440475 0.026956
outer loop
vertex 0.306187 -0.135568 0.615794
vertex 0.301141 -0.145753 0.614243
vertex 0.301710 -0.145474 0.628626
endloop
endfacet
facet normal -0.833045 0.551571 0.042481
outer loop
vertex 0.301710 -0.145474 0.628626
vertex 0.302514 -0.145354 0.642834
vertex 0.312025 -0.131101 0.644284
endloop
endfacet
facet normal -0.891027 0.452331 0.038314
outer loop
vertex 0.306187 -0.135568 0.615794
vertex 0.301710 -0.145474 0.628626
vertex 0.310376 -0.128633 0.631339
endloop
endfacet
facet normal -0.884709 0.424063 0.193548
outer loop
vertex 0.301710 -0.145474 0.628626
vertex 0.312025 -0.131101 0.644284
vertex 0.310376 -0.128633 0.631339
endloop
endfacet
facet normal -0.815289 0.540805 0.206963
outer loop
vertex 0.319880 -0.117294 0.639149
vertex 0.310376 -0.128633 0.631339
vertex 0.312025 -0.131101 0.644284
endloop
endfacet
facet normal -0.432888 0.199433 0.879110
outer loop
vertex 0.322965 -0.136765 0.650956
vertex 0.312025 -0.131101 0.644284
vertex 0.302514 -0.145354 0.642834
endloop
endfacet
facet normal -0.271270 0.467278 0.841465
outer loop
vertex 0.322965 -0.136765 0.650956
vertex 0.319880 -0.117294 0.639149
vertex 0.312025 -0.131101 0.644284
endloop
endfacet
facet normal -0.788554 0.610607 0.073081
outer loop
vertex 0.320780 -0.114202 0.623026
vertex 0.310376 -0.128633 0.631339
vertex 0.319880 -0.117294 0.639149
endloop
endfacet
facet normal -0.749428 0.656722 0.084110
outer loop
vertex 0.320780 -0.114202 0.623026
vertex 0.319880 -0.117294 0.639149
vertex 0.329707 -0.105121 0.631662
endloop
endfacet
facet normal -0.423876 0.419571 0.802676
outer loop
vertex 0.322965 -0.136765 0.650956
vertex 0.331762 -0.122043 0.647906
vertex 0.319880 -0.117294 0.639149
endloop
endfacet
facet normal -0.182140 0.617615 0.765099
outer loop
vertex 0.319880 -0.117294 0.639149
vertex 0.341686 -0.111039 0.639291
vertex 0.329707 -0.105121 0.631662
endloop
endfacet
facet normal -0.208777 0.712634 0.669750
outer loop
vertex 0.319880 -0.117294 0.639149
vertex 0.331762 -0.122043 0.647906
vertex 0.341686 -0.111039 0.639291
endloop
endfacet
facet normal -0.174660 0.298735 0.938217
outer loop
vertex 0.336149 -0.142791 0.655329
vertex 0.331762 -0.122043 0.647906
vertex 0.322965 -0.136765 0.650956
endloop
endfacet
facet normal -0.198319 0.292724 0.935405
outer loop
vertex 0.336149 -0.142791 0.655329
vertex 0.344639 -0.128606 0.652690
vertex 0.331762 -0.122043 0.647906
endloop
endfacet
facet normal 0.014955 0.607982 0.793810
outer loop
vertex 0.341686 -0.111039 0.639291
vertex 0.331762 -0.122043 0.647906
vertex 0.344639 -0.128606 0.652690
endloop
endfacet
facet normal -0.847558 0.530638 -0.008339
outer loop
vertex 0.306187 -0.135568 0.615794
vertex 0.310376 -0.128633 0.631339
vertex 0.312901 -0.124800 0.618613
endloop
endfacet
facet normal -0.806007 0.591624 0.018270
outer loop
vertex 0.320780 -0.114202 0.623026
vertex 0.312901 -0.124800 0.618613
vertex 0.310376 -0.128633 0.631339
endloop
endfacet
facet normal -0.778951 -0.561014 -0.280175
outer loop
vertex 0.305467 -0.182793 0.594925
vertex 0.300937 -0.187261 0.616466
vertex 0.295679 -0.174867 0.606267
endloop
endfacet
facet normal -0.926593 0.123477 -0.355217
outer loop
vertex 0.297914 -0.154599 0.607482
vertex 0.301041 -0.162591 0.596547
vertex 0.295679 -0.174867 0.606267
endloop
endfacet
facet normal -0.792847 -0.125826 -0.596290
outer loop
vertex 0.301041 -0.162591 0.596547
vertex 0.305467 -0.182793 0.594925
vertex 0.295679 -0.174867 0.606267
endloop
endfacet
facet normal -0.803092 -0.526933 -0.278182
outer loop
vertex 0.305467 -0.182793 0.594925
vertex 0.309694 -0.194277 0.604475
vertex 0.300937 -0.187261 0.616466
endloop
endfacet
facet normal -0.694037 -0.641153 0.327467
outer loop
vertex 0.298500 -0.177877 0.629674
vertex 0.300937 -0.187261 0.616466
vertex 0.312541 -0.194710 0.626475
endloop
endfacet
facet normal -0.608718 -0.783902 0.122316
outer loop
vertex 0.300937 -0.187261 0.616466
vertex 0.319174 -0.201890 0.613469
vertex 0.312541 -0.194710 0.626475
endloop
endfacet
facet normal -0.625781 -0.779999 -0.000630
outer loop
vertex 0.300937 -0.187261 0.616466
vertex 0.309694 -0.194277 0.604475
vertex 0.319174 -0.201890 0.613469
endloop
endfacet
facet normal -0.670931 -0.604310 -0.429722
outer loop
vertex 0.319579 -0.197917 0.594160
vertex 0.309694 -0.194277 0.604475
vertex 0.305467 -0.182793 0.594925
endloop
endfacet
facet normal -0.498986 -0.847930 -0.178964
outer loop
vertex 0.327595 -0.204268 0.601901
vertex 0.309694 -0.194277 0.604475
vertex 0.319579 -0.197917 0.594160
endloop
endfacet
facet normal -0.499162 -0.845521 -0.189558
outer loop
vertex 0.327595 -0.204268 0.601901
vertex 0.319174 -0.201890 0.613469
vertex 0.309694 -0.194277 0.604475
endloop
endfacet
facet normal -0.370245 -0.925546 -0.079263
outer loop
vertex 0.327595 -0.204268 0.601901
vertex 0.331298 -0.207389 0.621048
vertex 0.319174 -0.201890 0.613469
endloop
endfacet
facet normal -0.508793 -0.835445 0.207751
outer loop
vertex 0.319174 -0.201890 0.613469
vertex 0.331298 -0.207389 0.621048
vertex 0.325764 -0.200648 0.634603
endloop
endfacet
facet normal -0.503575 -0.838952 0.206327
outer loop
vertex 0.319174 -0.201890 0.613469
vertex 0.325764 -0.200648 0.634603
vertex 0.312541 -0.194710 0.626475
endloop
endfacet
facet normal -0.296535 -0.897860 0.325445
outer loop
vertex 0.331298 -0.207389 0.621048
vertex 0.340566 -0.203464 0.640321
vertex 0.325764 -0.200648 0.634603
endloop
endfacet
facet normal -0.308756 -0.877421 0.367154
outer loop
vertex 0.340566 -0.203464 0.640321
vertex 0.320585 -0.192764 0.649089
vertex 0.325764 -0.200648 0.634603
endloop
endfacet
facet normal -0.486488 -0.828601 0.277038
outer loop
vertex 0.306460 -0.187184 0.640974
vertex 0.325764 -0.200648 0.634603
vertex 0.320585 -0.192764 0.649089
endloop
endfacet
facet normal -0.508548 -0.832729 0.218957
outer loop
vertex 0.306460 -0.187184 0.640974
vertex 0.312541 -0.194710 0.626475
vertex 0.325764 -0.200648 0.634603
endloop
endfacet
facet normal -0.334311 -0.886485 0.319970
outer loop
vertex 0.340566 -0.203464 0.640321
vertex 0.336428 -0.196642 0.654898
vertex 0.320585 -0.192764 0.649089
endloop
endfacet
facet normal -0.403201 -0.533733 0.743343
outer loop
vertex 0.319903 -0.178192 0.659182
vertex 0.320585 -0.192764 0.649089
vertex 0.336428 -0.196642 0.654898
endloop
endfacet
facet normal -0.591797 -0.477515 0.649427
outer loop
vertex 0.305900 -0.171235 0.651537
vertex 0.320585 -0.192764 0.649089
vertex 0.319903 -0.178192 0.659182
endloop
endfacet
facet normal -0.571935 -0.466814 0.674519
outer loop
vertex 0.305900 -0.171235 0.651537
vertex 0.306460 -0.187184 0.640974
vertex 0.320585 -0.192764 0.649089
endloop
endfacet
facet normal -0.248263 -0.902515 0.351899
outer loop
vertex 0.352838 -0.199906 0.658104
vertex 0.336428 -0.196642 0.654898
vertex 0.340566 -0.203464 0.640321
endloop
endfacet
facet normal -0.262698 -0.526549 0.808539
outer loop
vertex 0.336460 -0.181886 0.664518
vertex 0.336428 -0.196642 0.654898
vertex 0.352838 -0.199906 0.658104
endloop
endfacet
facet normal -0.364812 -0.507935 0.780329
outer loop
vertex 0.319903 -0.178192 0.659182
vertex 0.336428 -0.196642 0.654898
vertex 0.336460 -0.181886 0.664518
endloop
endfacet
facet normal -0.244697 -0.904304 0.349796
outer loop
vertex 0.352838 -0.199906 0.658104
vertex 0.340566 -0.203464 0.640321
vertex 0.355036 -0.205855 0.644262
endloop
endfacet
facet normal -0.138974 -0.917643 0.372314
outer loop
vertex 0.355036 -0.205855 0.644262
vertex 0.369332 -0.202223 0.658550
vertex 0.352838 -0.199906 0.658104
endloop
endfacet
facet normal -0.092985 -0.495744 0.863477
outer loop
vertex 0.352838 -0.199906 0.658104
vertex 0.369332 -0.202223 0.658550
vertex 0.369696 -0.187946 0.666786
endloop
endfacet
facet normal -0.092318 -0.496446 0.863145
outer loop
vertex 0.352838 -0.199906 0.658104
vertex 0.369696 -0.187946 0.666786
vertex 0.353307 -0.185439 0.666475
endloop
endfacet
facet normal -0.201241 -0.485687 0.850653
outer loop
vertex 0.336460 -0.181886 0.664518
vertex 0.352838 -0.199906 0.658104
vertex 0.353307 -0.185439 0.666475
endloop
endfacet
facet normal -0.227875 -0.935814 0.268932
outer loop
vertex 0.358833 -0.210473 0.631410
vertex 0.355036 -0.205855 0.644262
vertex 0.340566 -0.203464 0.640321
endloop
endfacet
facet normal -0.119066 -0.945071 0.304407
outer loop
vertex 0.371630 -0.208899 0.641302
vertex 0.355036 -0.205855 0.644262
vertex 0.358833 -0.210473 0.631410
endloop
endfacet
facet normal -0.109190 -0.931815 0.346119
outer loop
vertex 0.355036 -0.205855 0.644262
vertex 0.371630 -0.208899 0.641302
vertex 0.369332 -0.202223 0.658550
endloop
endfacet
facet normal -0.080290 -0.963041 0.257110
outer loop
vertex 0.378708 -0.213986 0.624458
vertex 0.371630 -0.208899 0.641302
vertex 0.358833 -0.210473 0.631410
endloop
endfacet
facet normal -0.063856 -0.962453 0.263831
outer loop
vertex 0.371630 -0.208899 0.641302
vertex 0.378708 -0.213986 0.624458
vertex 0.394301 -0.213810 0.628874
endloop
endfacet
facet normal -0.087136 -0.970554 0.224570
outer loop
vertex 0.371630 -0.208899 0.641302
vertex 0.394301 -0.213810 0.628874
vertex 0.389016 -0.209685 0.644651
endloop
endfacet
facet normal -0.109139 -0.931090 0.348081
outer loop
vertex 0.385178 -0.203515 0.659952
vertex 0.371630 -0.208899 0.641302
vertex 0.389016 -0.209685 0.644651
endloop
endfacet
facet normal -0.106647 -0.931963 0.346514
outer loop
vertex 0.385178 -0.203515 0.659952
vertex 0.369332 -0.202223 0.658550
vertex 0.371630 -0.208899 0.641302
endloop
endfacet
facet normal -0.202523 -0.927456 0.314341
outer loop
vertex 0.358833 -0.210473 0.631410
vertex 0.340566 -0.203464 0.640321
vertex 0.345327 -0.209090 0.626789
endloop
endfacet
facet normal -0.085697 -0.966178 0.243221
outer loop
vertex 0.378708 -0.213986 0.624458
vertex 0.358833 -0.210473 0.631410
vertex 0.364318 -0.214102 0.618927
endloop
endfacet
facet normal -0.169142 -0.963848 0.205884
outer loop
vertex 0.345327 -0.209090 0.626789
vertex 0.364318 -0.214102 0.618927
vertex 0.358833 -0.210473 0.631410
endloop
endfacet
facet normal -0.235357 -0.924009 0.301355
outer loop
vertex 0.331298 -0.207389 0.621048
vertex 0.345327 -0.209090 0.626789
vertex 0.340566 -0.203464 0.640321
endloop
endfacet
facet normal -0.151815 -0.985242 0.079066
outer loop
vertex 0.338243 -0.209495 0.608140
vertex 0.345327 -0.209090 0.626789
vertex 0.331298 -0.207389 0.621048
endloop
endfacet
facet normal -0.199557 -0.970326 0.136542
outer loop
vertex 0.345327 -0.209090 0.626789
vertex 0.350951 -0.212099 0.613625
vertex 0.364318 -0.214102 0.618927
endloop
endfacet
facet normal -0.246644 -0.962308 0.114590
outer loop
vertex 0.338243 -0.209495 0.608140
vertex 0.350951 -0.212099 0.613625
vertex 0.345327 -0.209090 0.626789
endloop
endfacet
facet normal -0.406259 -0.911077 -0.069937
outer loop
vertex 0.327595 -0.204268 0.601901
vertex 0.338243 -0.209495 0.608140
vertex 0.331298 -0.207389 0.621048
endloop
endfacet
facet normal -0.383065 -0.916636 -0.114189
outer loop
vertex 0.334344 -0.205850 0.591960
vertex 0.338243 -0.209495 0.608140
vertex 0.327595 -0.204268 0.601901
endloop
endfacet
facet normal -0.165801 -0.982710 -0.082405
outer loop
vertex 0.344313 -0.209510 0.596106
vertex 0.350951 -0.212099 0.613625
vertex 0.338243 -0.209495 0.608140
endloop
endfacet
facet normal -0.287742 -0.946826 -0.143959
outer loop
vertex 0.334344 -0.205850 0.591960
vertex 0.344313 -0.209510 0.596106
vertex 0.338243 -0.209495 0.608140
endloop
endfacet
facet normal -0.146394 -0.989215 -0.004633
outer loop
vertex 0.369536 -0.214809 0.604998
vertex 0.364318 -0.214102 0.618927
vertex 0.350951 -0.212099 0.613625
endloop
endfacet
facet normal -0.179601 -0.980572 -0.078885
outer loop
vertex 0.369536 -0.214809 0.604998
vertex 0.350951 -0.212099 0.613625
vertex 0.356414 -0.212054 0.600628
endloop
endfacet
facet normal -0.177160 -0.981097 -0.077863
outer loop
vertex 0.344313 -0.209510 0.596106
vertex 0.356414 -0.212054 0.600628
vertex 0.350951 -0.212099 0.613625
endloop
endfacet
facet normal -0.166653 -0.979071 -0.116823
outer loop
vertex 0.356414 -0.212054 0.600628
vertex 0.373493 -0.213931 0.591995
vertex 0.369536 -0.214809 0.604998
endloop
endfacet
facet normal -0.145879 -0.976449 -0.158955
outer loop
vertex 0.344313 -0.209510 0.596106
vertex 0.361060 -0.210689 0.587979
vertex 0.356414 -0.212054 0.600628
endloop
endfacet
facet normal -0.194865 -0.964964 -0.175707
outer loop
vertex 0.356414 -0.212054 0.600628
vertex 0.361060 -0.210689 0.587979
vertex 0.373493 -0.213931 0.591995
endloop
endfacet
facet normal 0.009523 0.184183 0.982846
outer loop
vertex 0.353307 -0.185439 0.666475
vertex 0.369696 -0.187946 0.666786
vertex 0.371709 -0.171961 0.663771
endloop
endfacet
facet normal -0.042794 0.252368 0.966684
outer loop
vertex 0.353307 -0.185439 0.666475
vertex 0.371709 -0.171961 0.663771
vertex 0.356868 -0.167288 0.661894
endloop
endfacet
facet normal -0.058335 0.255034 0.965171
outer loop
vertex 0.336460 -0.181886 0.664518
vertex 0.353307 -0.185439 0.666475
vertex 0.356868 -0.167288 0.661894
endloop
endfacet
facet normal -0.005746 0.186043 0.982525
outer loop
vertex 0.369696 -0.187946 0.666786
vertex 0.386249 -0.177707 0.664944
vertex 0.371709 -0.171961 0.663771
endloop
endfacet
facet normal -0.077124 0.008373 0.996986
outer loop
vertex 0.378032 -0.160165 0.664161
vertex 0.371709 -0.171961 0.663771
vertex 0.386249 -0.177707 0.664944
endloop
endfacet
facet normal -0.116269 0.029496 0.992780
outer loop
vertex 0.356868 -0.167288 0.661894
vertex 0.371709 -0.171961 0.663771
vertex 0.378032 -0.160165 0.664161
endloop
endfacet
facet normal -0.079679 0.007166 0.996795
outer loop
vertex 0.378032 -0.160165 0.664161
vertex 0.386249 -0.177707 0.664944
vertex 0.391678 -0.166439 0.665297
endloop
endfacet
facet normal -0.015147 0.146170 0.989143
outer loop
vertex 0.391678 -0.166439 0.665297
vertex 0.384848 -0.148368 0.662522
vertex 0.378032 -0.160165 0.664161
endloop
endfacet
facet normal -0.063373 0.173165 0.982852
outer loop
vertex 0.378032 -0.160165 0.664161
vertex 0.384848 -0.148368 0.662522
vertex 0.371395 -0.141207 0.660393
endloop
endfacet
facet normal -0.084831 0.165586 0.982540
outer loop
vertex 0.378032 -0.160165 0.664161
vertex 0.371395 -0.141207 0.660393
vertex 0.363988 -0.154193 0.661942
endloop
endfacet
facet normal -0.128237 0.066103 0.989538
outer loop
vertex 0.356868 -0.167288 0.661894
vertex 0.378032 -0.160165 0.664161
vertex 0.363988 -0.154193 0.661942
endloop
endfacet
facet normal -0.116515 -0.494055 0.861588
outer loop
vertex 0.369696 -0.187946 0.666786
vertex 0.369332 -0.202223 0.658550
vertex 0.385178 -0.203515 0.659952
endloop
endfacet
facet normal -0.041558 -0.435954 0.899009
outer loop
vertex 0.369696 -0.187946 0.666786
vertex 0.385178 -0.203515 0.659952
vertex 0.385031 -0.190099 0.666451
endloop
endfacet
facet normal 0.038102 0.116942 0.992408
outer loop
vertex 0.369696 -0.187946 0.666786
vertex 0.385031 -0.190099 0.666451
vertex 0.386249 -0.177707 0.664944
endloop
endfacet
facet normal -0.766783 -0.641802 0.011540
outer loop
vertex 0.298500 -0.177877 0.629674
vertex 0.312541 -0.194710 0.626475
vertex 0.306460 -0.187184 0.640974
endloop
endfacet
facet normal -0.851644 0.520051 -0.065186
outer loop
vertex 0.308594 -0.135076 0.602052
vertex 0.301629 -0.146702 0.600296
vertex 0.301141 -0.145753 0.614243
endloop
endfacet
facet normal -0.922703 0.381091 -0.058217
outer loop
vertex 0.297914 -0.154599 0.607482
vertex 0.301141 -0.145753 0.614243
vertex 0.301629 -0.146702 0.600296
endloop
endfacet
facet normal -0.879031 0.456469 -0.137625
outer loop
vertex 0.308594 -0.135076 0.602052
vertex 0.301141 -0.145753 0.614243
vertex 0.306187 -0.135568 0.615794
endloop
endfacet
facet normal -0.928878 0.117265 -0.351332
outer loop
vertex 0.301629 -0.146702 0.600296
vertex 0.301041 -0.162591 0.596547
vertex 0.297914 -0.154599 0.607482
endloop
endfacet
facet normal 0.214425 0.625792 0.749938
outer loop
vertex 0.371395 -0.141207 0.660393
vertex 0.384848 -0.148368 0.662522
vertex 0.391620 -0.140205 0.653774
endloop
endfacet
facet normal 0.243393 0.515317 0.821710
outer loop
vertex 0.371395 -0.141207 0.660393
vertex 0.391620 -0.140205 0.653774
vertex 0.379421 -0.131667 0.652033
endloop
endfacet
facet normal 0.524414 0.805537 0.275863
outer loop
vertex 0.384060 -0.129955 0.638215
vertex 0.379421 -0.131667 0.652033
vertex 0.391620 -0.140205 0.653774
endloop
endfacet
facet normal -0.554373 0.791028 -0.258737
outer loop
vertex 0.320780 -0.114202 0.623026
vertex 0.329707 -0.105121 0.631662
vertex 0.338752 -0.103848 0.616174
endloop
endfacet
facet normal 0.513680 0.856090 -0.056945
outer loop
vertex 0.372078 -0.122733 0.635581
vertex 0.371110 -0.123180 0.620129
vertex 0.361105 -0.116440 0.631205
endloop
endfacet
facet normal 0.481029 0.871456 -0.095785
outer loop
vertex 0.361105 -0.116440 0.631205
vertex 0.371110 -0.123180 0.620129
vertex 0.357891 -0.116790 0.611880
endloop
endfacet
facet normal 0.547188 0.795358 -0.260750
outer loop
vertex 0.357891 -0.116790 0.611880
vertex 0.371110 -0.123180 0.620129
vertex 0.374698 -0.130330 0.605849
endloop
endfacet
facet normal 0.519636 0.789976 -0.325447
outer loop
vertex 0.357891 -0.116790 0.611880
vertex 0.374698 -0.130330 0.605849
vertex 0.362246 -0.124415 0.600325
endloop
endfacet
facet normal 0.641679 0.728766 -0.239057
outer loop
vertex 0.357891 -0.116790 0.611880
vertex 0.362246 -0.124415 0.600325
vertex 0.353795 -0.120265 0.590292
endloop
endfacet
facet normal 0.543303 0.664223 -0.513449
outer loop
vertex 0.374698 -0.130330 0.605849
vertex 0.366744 -0.140279 0.584562
vertex 0.362246 -0.124415 0.600325
endloop
endfacet
facet normal 0.714035 0.584850 -0.384843
outer loop
vertex 0.362246 -0.124415 0.600325
vertex 0.366744 -0.140279 0.584562
vertex 0.357369 -0.135541 0.574368
endloop
endfacet
facet normal 0.730279 0.567422 -0.380428
outer loop
vertex 0.362246 -0.124415 0.600325
vertex 0.357369 -0.135541 0.574368
vertex 0.353795 -0.120265 0.590292
endloop
endfacet
facet normal 0.456024 0.728673 -0.510958
outer loop
vertex 0.374698 -0.130330 0.605849
vertex 0.378781 -0.142757 0.591771
vertex 0.366744 -0.140279 0.584562
endloop
endfacet
facet normal 0.490147 0.630759 -0.601581
outer loop
vertex 0.366744 -0.140279 0.584562
vertex 0.378781 -0.142757 0.591771
vertex 0.381259 -0.154549 0.581426
endloop
endfacet
facet normal 0.407400 0.571029 -0.712707
outer loop
vertex 0.366744 -0.140279 0.584562
vertex 0.381259 -0.154549 0.581426
vertex 0.368570 -0.157343 0.571934
endloop
endfacet
facet normal 0.753265 0.441429 -0.487578
outer loop
vertex 0.357369 -0.135541 0.574368
vertex 0.366744 -0.140279 0.584562
vertex 0.368570 -0.157343 0.571934
endloop
endfacet
facet normal 0.492441 0.718401 -0.491326
outer loop
vertex 0.374698 -0.130330 0.605849
vertex 0.390901 -0.147103 0.597564
vertex 0.378781 -0.142757 0.591771
endloop
endfacet
facet normal 0.507475 0.626046 -0.592060
outer loop
vertex 0.390901 -0.147103 0.597564
vertex 0.381259 -0.154549 0.581426
vertex 0.378781 -0.142757 0.591771
endloop
endfacet
facet normal 0.491800 0.397776 -0.774537
outer loop
vertex 0.368570 -0.157343 0.571934
vertex 0.381259 -0.154549 0.581426
vertex 0.380461 -0.166476 0.574794
endloop
endfacet
facet normal 0.416608 0.270639 -0.867867
outer loop
vertex 0.380461 -0.166476 0.574794
vertex 0.362823 -0.175818 0.563414
vertex 0.368570 -0.157343 0.571934
endloop
endfacet
facet normal 0.620242 0.161089 -0.767691
outer loop
vertex 0.356309 -0.152877 0.562965
vertex 0.368570 -0.157343 0.571934
vertex 0.362823 -0.175818 0.563414
endloop
endfacet
facet normal 0.631612 0.398726 -0.664894
outer loop
vertex 0.357369 -0.135541 0.574368
vertex 0.368570 -0.157343 0.571934
vertex 0.356309 -0.152877 0.562965
endloop
endfacet
facet normal 0.433517 -0.108788 -0.894555
outer loop
vertex 0.357836 -0.191818 0.562943
vertex 0.350296 -0.171343 0.556799
vertex 0.362823 -0.175818 0.563414
endloop
endfacet
facet normal 0.391819 -0.095188 -0.915105
outer loop
vertex 0.357836 -0.191818 0.562943
vertex 0.362823 -0.175818 0.563414
vertex 0.375935 -0.179518 0.569413
endloop
endfacet
facet normal 0.453852 0.200700 -0.868181
outer loop
vertex 0.380461 -0.166476 0.574794
vertex 0.375935 -0.179518 0.569413
vertex 0.362823 -0.175818 0.563414
endloop
endfacet
facet normal 0.497740 0.124534 -0.858339
outer loop
vertex 0.356309 -0.152877 0.562965
vertex 0.362823 -0.175818 0.563414
vertex 0.350296 -0.171343 0.556799
endloop
endfacet
facet normal 0.324082 0.020630 -0.945804
outer loop
vertex 0.357836 -0.191818 0.562943
vertex 0.375935 -0.179518 0.569413
vertex 0.371764 -0.195463 0.567636
endloop
endfacet
facet normal 0.434953 -0.013437 -0.900353
outer loop
vertex 0.371764 -0.195463 0.567636
vertex 0.375935 -0.179518 0.569413
vertex 0.388464 -0.184698 0.575543
endloop
endfacet
facet normal 0.491559 0.180878 -0.851853
outer loop
vertex 0.388464 -0.184698 0.575543
vertex 0.375935 -0.179518 0.569413
vertex 0.380461 -0.166476 0.574794
endloop
endfacet
facet normal 0.277811 -0.180806 -0.943467
outer loop
vertex 0.357836 -0.191818 0.562943
vertex 0.343223 -0.188034 0.557915
vertex 0.350296 -0.171343 0.556799
endloop
endfacet
facet normal 0.017366 0.311581 -0.950061
outer loop
vertex 0.341901 -0.151638 0.563108
vertex 0.356309 -0.152877 0.562965
vertex 0.350296 -0.171343 0.556799
endloop
endfacet
facet normal -0.105900 0.262004 -0.959239
outer loop
vertex 0.341901 -0.151638 0.563108
vertex 0.350296 -0.171343 0.556799
vertex 0.338709 -0.166610 0.559371
endloop
endfacet
facet normal -0.207815 0.022677 -0.977905
outer loop
vertex 0.343223 -0.188034 0.557915
vertex 0.338709 -0.166610 0.559371
vertex 0.350296 -0.171343 0.556799
endloop
endfacet
facet normal 0.114703 -0.604497 -0.788306
outer loop
vertex 0.337287 -0.201922 0.567701
vertex 0.343223 -0.188034 0.557915
vertex 0.357836 -0.191818 0.562943
endloop
endfacet
facet normal -0.641577 -0.239301 -0.728776
outer loop
vertex 0.325885 -0.194428 0.575278
vertex 0.343223 -0.188034 0.557915
vertex 0.337287 -0.201922 0.567701
endloop
endfacet
facet normal -0.574105 -0.393321 -0.718124
outer loop
vertex 0.325885 -0.194428 0.575278
vertex 0.330332 -0.181372 0.564572
vertex 0.343223 -0.188034 0.557915
endloop
endfacet
facet normal -0.474829 -0.040295 -0.879155
outer loop
vertex 0.343223 -0.188034 0.557915
vertex 0.330332 -0.181372 0.564572
vertex 0.338709 -0.166610 0.559371
endloop
endfacet
facet normal -0.630851 0.086316 -0.771088
outer loop
vertex 0.330332 -0.181372 0.564572
vertex 0.327622 -0.161809 0.568979
vertex 0.338709 -0.166610 0.559371
endloop
endfacet
facet normal -0.542188 0.310479 -0.780791
outer loop
vertex 0.341901 -0.151638 0.563108
vertex 0.338709 -0.166610 0.559371
vertex 0.327622 -0.161809 0.568979
endloop
endfacet
facet normal -0.640027 0.083407 -0.763812
outer loop
vertex 0.330332 -0.181372 0.564572
vertex 0.319475 -0.175552 0.574305
vertex 0.327622 -0.161809 0.568979
endloop
endfacet
facet normal -0.633912 0.077577 -0.769505
outer loop
vertex 0.316945 -0.157094 0.578250
vertex 0.327622 -0.161809 0.568979
vertex 0.319475 -0.175552 0.574305
endloop
endfacet
facet normal -0.544306 0.304457 -0.781689
outer loop
vertex 0.332058 -0.141991 0.573609
vertex 0.327622 -0.161809 0.568979
vertex 0.316945 -0.157094 0.578250
endloop
endfacet
facet normal -0.539488 0.304183 -0.785128
outer loop
vertex 0.341901 -0.151638 0.563108
vertex 0.327622 -0.161809 0.568979
vertex 0.332058 -0.141991 0.573609
endloop
endfacet
facet normal -0.487534 0.228952 -0.842551
outer loop
vertex 0.332058 -0.141991 0.573609
vertex 0.316945 -0.157094 0.578250
vertex 0.323071 -0.143578 0.578378
endloop
endfacet
facet normal -0.484042 0.395646 -0.780492
outer loop
vertex 0.331241 -0.131245 0.579563
vertex 0.332058 -0.141991 0.573609
vertex 0.323071 -0.143578 0.578378
endloop
endfacet
facet normal -0.380597 0.425868 -0.820843
outer loop
vertex 0.331241 -0.131245 0.579563
vertex 0.343898 -0.136236 0.571105
vertex 0.332058 -0.141991 0.573609
endloop
endfacet
facet normal -0.393177 0.463333 -0.794188
outer loop
vertex 0.341901 -0.151638 0.563108
vertex 0.332058 -0.141991 0.573609
vertex 0.343898 -0.136236 0.571105
endloop
endfacet
facet normal -0.310910 0.538609 -0.783093
outer loop
vertex 0.331241 -0.131245 0.579563
vertex 0.341695 -0.121218 0.582309
vertex 0.343898 -0.136236 0.571105
endloop
endfacet
facet normal 0.125140 0.729845 -0.672061
outer loop
vertex 0.353795 -0.120265 0.590292
vertex 0.357369 -0.135541 0.574368
vertex 0.343898 -0.136236 0.571105
endloop
endfacet
facet normal 0.172948 0.533857 -0.827699
outer loop
vertex 0.343898 -0.136236 0.571105
vertex 0.357369 -0.135541 0.574368
vertex 0.356309 -0.152877 0.562965
endloop
endfacet
facet normal 0.030514 0.457473 -0.888700
outer loop
vertex 0.343898 -0.136236 0.571105
vertex 0.356309 -0.152877 0.562965
vertex 0.341901 -0.151638 0.563108
endloop
endfacet
facet normal 0.415234 0.582329 -0.698909
outer loop
vertex 0.353795 -0.120265 0.590292
vertex 0.343898 -0.136236 0.571105
vertex 0.341695 -0.121218 0.582309
endloop
endfacet
facet normal 0.506115 0.393025 -0.767710
outer loop
vertex 0.391994 -0.170746 0.580211
vertex 0.380461 -0.166476 0.574794
vertex 0.381259 -0.154549 0.581426
endloop
endfacet
facet normal 0.469993 0.170824 -0.865982
outer loop
vertex 0.388464 -0.184698 0.575543
vertex 0.380461 -0.166476 0.574794
vertex 0.391994 -0.170746 0.580211
endloop
endfacet
facet normal 0.464767 0.665060 -0.584540
outer loop
vertex 0.390901 -0.147103 0.597564
vertex 0.393016 -0.157801 0.587074
vertex 0.381259 -0.154549 0.581426
endloop
endfacet
facet normal 0.483815 0.379815 -0.788457
outer loop
vertex 0.391994 -0.170746 0.580211
vertex 0.381259 -0.154549 0.581426
vertex 0.393016 -0.157801 0.587074
endloop
endfacet
facet normal -0.165617 -0.965444 -0.201220
outer loop
vertex 0.344313 -0.209510 0.596106
vertex 0.348770 -0.207791 0.584190
vertex 0.361060 -0.210689 0.587979
endloop
endfacet
facet normal 0.391345 0.067026 -0.917800
outer loop
vertex 0.371764 -0.195463 0.567636
vertex 0.388464 -0.184698 0.575543
vertex 0.384809 -0.200370 0.572840
endloop
endfacet
facet normal 0.585654 0.706850 -0.396702
outer loop
vertex 0.413824 -0.158809 0.608167
vertex 0.427083 -0.170536 0.606846
vertex 0.416682 -0.166374 0.598907
endloop
endfacet
facet normal 0.646043 0.475457 -0.597135
outer loop
vertex 0.416682 -0.166374 0.598907
vertex 0.427083 -0.170536 0.606846
vertex 0.427984 -0.182811 0.598047
endloop
endfacet
facet normal 0.500803 0.384910 -0.775268
outer loop
vertex 0.416682 -0.166374 0.598907
vertex 0.427984 -0.182811 0.598047
vertex 0.416148 -0.179152 0.592218
endloop
endfacet
facet normal 0.400693 -0.082648 -0.912477
outer loop
vertex 0.427984 -0.182811 0.598047
vertex 0.439113 -0.186486 0.603267
vertex 0.437786 -0.201774 0.604069
endloop
endfacet
endsolid Exported from Blender-4.0.2
