solid Exported from Blender-4.0.2
facet normal 0.969085 0.245874 -0.020503
outer loop
vertex 0.074241 0.012096 1.171244
vertex 0.070224 0.028874 1.182581
vertex 0.073994 0.014444 1.187727
endloop
endfacet
facet normal 0.843649 0.531688 -0.074600
outer loop
vertex 0.071827 0.024344 1.168422
vertex 0.062429 0.040420 1.176720
vertex 0.070224 0.028874 1.182581
endloop
endfacet
facet normal 0.978052 0.203292 0.045682
outer loop
vertex 0.074241 0.012096 1.171244
vertex 0.071827 0.024344 1.168422
vertex 0.070224 0.028874 1.182581
endloop
endfacet
facet normal 0.943491 0.238884 0.229692
outer loop
vertex 0.075294 0.022184 1.156427
vertex 0.071827 0.024344 1.168422
vertex 0.074241 0.012096 1.171244
endloop
endfacet
facet normal 0.739026 0.667162 0.093464
outer loop
vertex 0.075294 0.022184 1.156427
vertex 0.064819 0.033444 1.158876
vertex 0.071827 0.024344 1.168422
endloop
endfacet
facet normal 0.835923 0.539830 -0.099076
outer loop
vertex 0.071827 0.024344 1.168422
vertex 0.064819 0.033444 1.158876
vertex 0.062429 0.040420 1.176720
endloop
endfacet
facet normal 0.729172 0.611567 0.307073
outer loop
vertex 0.064819 0.033444 1.158876
vertex 0.075294 0.022184 1.156427
vertex 0.080442 0.021900 1.144768
endloop
endfacet
facet normal 0.689951 0.700724 -0.181531
outer loop
vertex 0.062429 0.040420 1.176720
vertex 0.064819 0.033444 1.158876
vertex 0.054498 0.042362 1.154073
endloop
endfacet
facet normal 0.730214 0.608466 0.310736
outer loop
vertex 0.064819 0.033444 1.158876
vertex 0.080442 0.021900 1.144768
vertex 0.072064 0.033210 1.142309
endloop
endfacet
facet normal 0.569300 0.786971 0.237851
outer loop
vertex 0.054498 0.042362 1.154073
vertex 0.064819 0.033444 1.158876
vertex 0.072064 0.033210 1.142309
endloop
endfacet
facet normal 0.550776 0.812703 0.190156
outer loop
vertex 0.054498 0.042362 1.154073
vertex 0.072064 0.033210 1.142309
vertex 0.061433 0.041330 1.138397
endloop
endfacet
facet normal 0.451896 0.880707 0.141936
outer loop
vertex 0.043189 0.049145 1.147990
vertex 0.054498 0.042362 1.154073
vertex 0.061433 0.041330 1.138397
endloop
endfacet
facet normal 0.554157 0.825086 -0.110199
outer loop
vertex 0.038029 0.054781 1.164240
vertex 0.054498 0.042362 1.154073
vertex 0.043189 0.049145 1.147990
endloop
endfacet
facet normal 0.477984 0.841101 -0.253141
outer loop
vertex 0.038029 0.054781 1.164240
vertex 0.051236 0.049197 1.170624
vertex 0.054498 0.042362 1.154073
endloop
endfacet
facet normal 0.663742 0.728390 -0.169984
outer loop
vertex 0.062429 0.040420 1.176720
vertex 0.054498 0.042362 1.154073
vertex 0.051236 0.049197 1.170624
endloop
endfacet
facet normal -0.259035 0.888390 -0.379030
outer loop
vertex 0.006607 0.049972 1.127036
vertex -0.011789 0.047828 1.134583
vertex -0.000796 0.053173 1.139598
endloop
endfacet
facet normal -0.066664 0.956775 -0.283085
outer loop
vertex -0.000796 0.053173 1.139598
vertex 0.018606 0.052575 1.133008
vertex 0.006607 0.049972 1.127036
endloop
endfacet
facet normal -0.065336 0.957984 -0.279282
outer loop
vertex -0.000796 0.053173 1.139598
vertex 0.010777 0.055661 1.145425
vertex 0.018606 0.052575 1.133008
endloop
endfacet
facet normal 0.054710 0.981840 -0.181649
outer loop
vertex 0.018606 0.052575 1.133008
vertex 0.025729 0.056249 1.155012
vertex 0.031687 0.053192 1.140283
endloop
endfacet
facet normal 0.021983 0.992080 -0.123672
outer loop
vertex 0.031687 0.053192 1.140283
vertex 0.025236 0.050712 1.119242
vertex 0.018606 0.052575 1.133008
endloop
endfacet
facet normal -0.117637 0.974982 -0.188603
outer loop
vertex 0.006607 0.049972 1.127036
vertex 0.018606 0.052575 1.133008
vertex 0.025236 0.050712 1.119242
endloop
endfacet
facet normal 0.083611 0.978143 -0.190385
outer loop
vertex 0.018606 0.052575 1.133008
vertex 0.010777 0.055661 1.145425
vertex 0.025729 0.056249 1.155012
endloop
endfacet
facet normal -0.117951 0.974795 -0.189374
outer loop
vertex 0.006607 0.049972 1.127036
vertex 0.025236 0.050712 1.119242
vertex 0.013178 0.048187 1.113755
endloop
endfacet
facet normal -0.175688 0.982236 -0.065928
outer loop
vertex 0.013178 0.048187 1.113755
vertex 0.025236 0.050712 1.119242
vertex 0.031462 0.050837 1.104513
endloop
endfacet
facet normal 0.036158 0.999064 0.023762
outer loop
vertex 0.037822 0.050107 1.125527
vertex 0.031462 0.050837 1.104513
vertex 0.025236 0.050712 1.119242
endloop
endfacet
facet normal 0.123779 0.980365 -0.153500
outer loop
vertex 0.031687 0.053192 1.140283
vertex 0.037822 0.050107 1.125527
vertex 0.025236 0.050712 1.119242
endloop
endfacet
facet normal 0.297958 0.951622 -0.075074
outer loop
vertex 0.050019 0.046813 1.132181
vertex 0.037822 0.050107 1.125527
vertex 0.031687 0.053192 1.140283
endloop
endfacet
facet normal 0.220078 0.972363 0.077944
outer loop
vertex 0.057345 0.046416 1.116448
vertex 0.037822 0.050107 1.125527
vertex 0.050019 0.046813 1.132181
endloop
endfacet
facet normal 0.216718 0.973710 0.070161
outer loop
vertex 0.057345 0.046416 1.116448
vertex 0.044607 0.049662 1.110745
vertex 0.037822 0.050107 1.125527
endloop
endfacet
facet normal 0.084824 0.996356 0.008940
outer loop
vertex 0.037822 0.050107 1.125527
vertex 0.044607 0.049662 1.110745
vertex 0.031462 0.050837 1.104513
endloop
endfacet
facet normal 0.012640 0.987124 0.159458
outer loop
vertex 0.031462 0.050837 1.104513
vertex 0.044607 0.049662 1.110745
vertex 0.051869 0.051895 1.096346
endloop
endfacet
facet normal 0.185513 0.952558 0.241285
outer loop
vertex 0.066327 0.048485 1.098692
vertex 0.051869 0.051895 1.096346
vertex 0.044607 0.049662 1.110745
endloop
endfacet
facet normal 0.159938 0.967937 0.193694
outer loop
vertex 0.066327 0.048485 1.098692
vertex 0.044607 0.049662 1.110745
vertex 0.057345 0.046416 1.116448
endloop
endfacet
facet normal 0.275519 0.928860 0.247605
outer loop
vertex 0.066327 0.048485 1.098692
vertex 0.057345 0.046416 1.116448
vertex 0.068608 0.041314 1.123055
endloop
endfacet
facet normal 0.351283 0.906569 0.233950
outer loop
vertex 0.066327 0.048485 1.098692
vertex 0.068608 0.041314 1.123055
vertex 0.075717 0.042262 1.108707
endloop
endfacet
facet normal 0.299112 0.910555 0.285343
outer loop
vertex 0.075717 0.042262 1.108707
vertex 0.080733 0.044386 1.096671
vertex 0.066327 0.048485 1.098692
endloop
endfacet
facet normal 0.718053 0.561912 0.410675
outer loop
vertex 0.094439 0.023852 1.112361
vertex 0.094078 0.039431 1.091676
vertex 0.086482 0.035283 1.110633
endloop
endfacet
facet normal 0.710854 0.567725 0.415180
outer loop
vertex 0.094439 0.023852 1.112361
vertex 0.101233 0.026268 1.097425
vertex 0.094078 0.039431 1.091676
endloop
endfacet
facet normal 0.661749 0.571595 0.485146
outer loop
vertex 0.101233 0.026268 1.097425
vertex 0.105377 0.031529 1.085574
vertex 0.094078 0.039431 1.091676
endloop
endfacet
facet normal 0.439558 0.824428 0.356521
outer loop
vertex 0.086482 0.035283 1.110633
vertex 0.094078 0.039431 1.091676
vertex 0.080733 0.044386 1.096671
endloop
endfacet
facet normal 0.820446 0.357952 0.445800
outer loop
vertex 0.101233 0.026268 1.097425
vertex 0.112683 0.021344 1.080306
vertex 0.105377 0.031529 1.085574
endloop
endfacet
facet normal -0.660439 0.736801 -0.144726
outer loop
vertex 0.008815 0.032869 1.065242
vertex 0.019228 0.042016 1.064291
vertex 0.012124 0.033605 1.053889
endloop
endfacet
facet normal -0.655987 0.724917 -0.210183
outer loop
vertex 0.004920 0.033153 1.078378
vertex 0.019228 0.042016 1.064291
vertex 0.008815 0.032869 1.065242
endloop
endfacet
facet normal -0.630519 0.758874 -0.162958
outer loop
vertex 0.004920 0.033153 1.078378
vertex 0.013956 0.041330 1.081495
vertex 0.019228 0.042016 1.064291
endloop
endfacet
facet normal -0.568965 0.809999 -0.142055
outer loop
vertex 0.023209 0.048718 1.086561
vertex 0.019228 0.042016 1.064291
vertex 0.013956 0.041330 1.081495
endloop
endfacet
facet normal -0.679689 0.727020 -0.097289
outer loop
vertex 0.023209 0.048718 1.086561
vertex 0.026896 0.050525 1.074306
vertex 0.019228 0.042016 1.064291
endloop
endfacet
facet normal -0.825481 0.503213 -0.255651
outer loop
vertex 0.008815 0.032869 1.065242
vertex -0.000629 0.022764 1.075846
vertex 0.004920 0.033153 1.078378
endloop
endfacet
facet normal -0.832287 0.470891 -0.292506
outer loop
vertex 0.008815 0.032869 1.065242
vertex 0.003990 0.022227 1.061839
vertex -0.000629 0.022764 1.075846
endloop
endfacet
facet normal -0.859813 0.460425 -0.220751
outer loop
vertex 0.003990 0.022227 1.061839
vertex 0.008815 0.032869 1.065242
vertex 0.012124 0.033605 1.053889
endloop
endfacet
facet normal -0.922299 0.226925 -0.312842
outer loop
vertex -0.002998 0.011339 1.074543
vertex -0.000629 0.022764 1.075846
vertex 0.003990 0.022227 1.061839
endloop
endfacet
facet normal -0.922298 0.226809 -0.312927
outer loop
vertex -0.002998 0.011339 1.074543
vertex 0.003990 0.022227 1.061839
vertex 0.001879 0.011001 1.059924
endloop
endfacet
facet normal -0.950866 0.216546 -0.221274
outer loop
vertex 0.007431 0.021400 1.046243
vertex 0.001879 0.011001 1.059924
vertex 0.003990 0.022227 1.061839
endloop
endfacet
facet normal -0.859227 0.464587 -0.214214
outer loop
vertex 0.003990 0.022227 1.061839
vertex 0.012124 0.033605 1.053889
vertex 0.007431 0.021400 1.046243
endloop
endfacet
facet normal -0.946000 0.067367 -0.317091
outer loop
vertex 0.001136 0.000000 1.059805
vertex 0.001879 0.011001 1.059924
vertex 0.001288 0.000000 1.059352
endloop
endfacet
facet normal -0.975247 0.063452 -0.211819
outer loop
vertex 0.001879 0.011001 1.059924
vertex 0.001407 0.000000 1.058801
vertex 0.001288 0.000000 1.059352
endloop
endfacet
facet normal -0.949955 0.232069 -0.209117
outer loop
vertex 0.007431 0.021400 1.046243
vertex 0.005517 0.010723 1.043089
vertex 0.001879 0.011001 1.059924
endloop
endfacet
facet normal -0.976364 0.080037 -0.200769
outer loop
vertex 0.001407 0.000000 1.058801
vertex 0.005517 0.010723 1.043089
vertex 0.004844 0.000000 1.042088
endloop
endfacet
facet normal -0.953036 0.042346 -0.299882
outer loop
vertex -0.003422 0.000000 1.074288
vertex -0.002998 0.011339 1.074543
vertex 0.001136 0.000000 1.059805
endloop
endfacet
facet normal -0.911122 0.043255 -0.409860
outer loop
vertex -0.003578 0.000000 1.074636
vertex -0.002998 0.011339 1.074543
vertex -0.003422 0.000000 1.074288
endloop
endfacet
facet normal -0.915571 0.030897 -0.400967
outer loop
vertex -0.009488 0.000000 1.088129
vertex -0.009123 0.011732 1.088201
vertex -0.003578 0.000000 1.074636
endloop
endfacet
facet normal -0.865968 0.029974 -0.499201
outer loop
vertex -0.009632 0.000000 1.088380
vertex -0.009123 0.011732 1.088201
vertex -0.009488 0.000000 1.088129
endloop
endfacet
facet normal -0.836152 0.243711 -0.491381
outer loop
vertex -0.006429 0.023342 1.089375
vertex -0.009123 0.011732 1.088201
vertex -0.016657 0.012312 1.101309
endloop
endfacet
facet normal -0.887160 0.245377 -0.390816
outer loop
vertex -0.009123 0.011732 1.088201
vertex -0.006429 0.023342 1.089375
vertex -0.000629 0.022764 1.075846
endloop
endfacet
facet normal -0.885573 0.229674 -0.403746
outer loop
vertex -0.009123 0.011732 1.088201
vertex -0.000629 0.022764 1.075846
vertex -0.002998 0.011339 1.074543
endloop
endfacet
facet normal -0.760820 0.305614 -0.572497
outer loop
vertex -0.022870 0.025118 1.116402
vertex -0.016657 0.012312 1.101309
vertex -0.025767 0.013427 1.114011
endloop
endfacet
facet normal -0.811370 0.037399 -0.583335
outer loop
vertex -0.025767 0.013427 1.114011
vertex -0.026270 0.000000 1.113848
vertex -0.026320 0.000000 1.113917
endloop
endfacet
facet normal -0.804117 0.022855 -0.594032
outer loop
vertex -0.026270 0.000000 1.113848
vertex -0.016657 0.012312 1.101309
vertex -0.017011 0.000000 1.101315
endloop
endfacet
facet normal -0.868320 0.024751 -0.495386
outer loop
vertex -0.017011 0.000000 1.101315
vertex -0.016657 0.012312 1.101309
vertex -0.009632 0.000000 1.088380
endloop
endfacet
facet normal -0.786759 0.271594 -0.554299
outer loop
vertex -0.022870 0.025118 1.116402
vertex -0.013553 0.024112 1.102685
vertex -0.016657 0.012312 1.101309
endloop
endfacet
facet normal -0.840807 0.275518 -0.465976
outer loop
vertex -0.006429 0.023342 1.089375
vertex -0.016657 0.012312 1.101309
vertex -0.013553 0.024112 1.102685
endloop
endfacet
facet normal -0.645493 0.592553 -0.481892
outer loop
vertex -0.014108 0.036325 1.118446
vertex -0.013553 0.024112 1.102685
vertex -0.022870 0.025118 1.116402
endloop
endfacet
facet normal -0.589750 0.299515 -0.749990
outer loop
vertex -0.025767 0.013427 1.114011
vertex -0.035251 0.021862 1.124837
vertex -0.022870 0.025118 1.116402
endloop
endfacet
facet normal -0.518324 0.527944 -0.672766
outer loop
vertex -0.014108 0.036325 1.118446
vertex -0.022870 0.025118 1.116402
vertex -0.030895 0.030329 1.126674
endloop
endfacet
facet normal -0.581018 0.446546 -0.680452
outer loop
vertex -0.022870 0.025118 1.116402
vertex -0.035251 0.021862 1.124837
vertex -0.030895 0.030329 1.126674
endloop
endfacet
facet normal -0.507109 0.661348 -0.552683
outer loop
vertex -0.014108 0.036325 1.118446
vertex -0.030895 0.030329 1.126674
vertex -0.021811 0.040344 1.130323
endloop
endfacet
facet normal -0.395842 0.793338 -0.462518
outer loop
vertex -0.004278 0.044358 1.122203
vertex -0.021811 0.040344 1.130323
vertex -0.011789 0.047828 1.134583
endloop
endfacet
facet normal -0.412223 0.747831 -0.520405
outer loop
vertex -0.004278 0.044358 1.122203
vertex -0.014108 0.036325 1.118446
vertex -0.021811 0.040344 1.130323
endloop
endfacet
facet normal -0.576170 0.131550 -0.806674
outer loop
vertex -0.037744 0.012260 1.124074
vertex -0.033620 0.000000 1.119129
vertex -0.039608 0.000000 1.123406
endloop
endfacet
facet normal -0.644769 0.031883 -0.763712
outer loop
vertex -0.025767 0.013427 1.114011
vertex -0.026386 0.000000 1.113973
vertex -0.037744 0.012260 1.124074
endloop
endfacet
facet normal -0.639574 0.224489 -0.735221
outer loop
vertex -0.025767 0.013427 1.114011
vertex -0.037744 0.012260 1.124074
vertex -0.035251 0.021862 1.124837
endloop
endfacet
facet normal -0.335550 0.897357 -0.286629
outer loop
vertex 0.013178 0.048187 1.113755
vertex -0.004278 0.044358 1.122203
vertex 0.006607 0.049972 1.127036
endloop
endfacet
facet normal -0.343407 0.887482 -0.307323
outer loop
vertex 0.013178 0.048187 1.113755
vertex 0.002554 0.042460 1.109088
vertex -0.004278 0.044358 1.122203
endloop
endfacet
facet normal -0.268979 0.872570 -0.407765
outer loop
vertex 0.006607 0.049972 1.127036
vertex -0.004278 0.044358 1.122203
vertex -0.011789 0.047828 1.134583
endloop
endfacet
facet normal -0.497670 0.783258 -0.372600
outer loop
vertex -0.014108 0.036325 1.118446
vertex -0.004278 0.044358 1.122203
vertex 0.002554 0.042460 1.109088
endloop
endfacet
facet normal -0.430815 0.866439 -0.252355
outer loop
vertex 0.018889 0.047931 1.099986
vertex 0.008642 0.041549 1.095567
vertex 0.002554 0.042460 1.109088
endloop
endfacet
facet normal -0.550404 0.779017 -0.300313
outer loop
vertex -0.006693 0.034473 1.105317
vertex 0.002554 0.042460 1.109088
vertex 0.008642 0.041549 1.095567
endloop
endfacet
facet normal -0.503962 0.769077 -0.393119
outer loop
vertex -0.014108 0.036325 1.118446
vertex 0.002554 0.042460 1.109088
vertex -0.006693 0.034473 1.105317
endloop
endfacet
facet normal -0.402683 0.896718 -0.183695
outer loop
vertex 0.018889 0.047931 1.099986
vertex 0.002554 0.042460 1.109088
vertex 0.013178 0.048187 1.113755
endloop
endfacet
facet normal -0.679768 0.567961 -0.464044
outer loop
vertex -0.014108 0.036325 1.118446
vertex -0.006693 0.034473 1.105317
vertex -0.013553 0.024112 1.102685
endloop
endfacet
facet normal -0.724424 0.575887 -0.378899
outer loop
vertex -0.000359 0.033623 1.091915
vertex -0.013553 0.024112 1.102685
vertex -0.006693 0.034473 1.105317
endloop
endfacet
facet normal -0.553986 0.772333 -0.310807
outer loop
vertex -0.006693 0.034473 1.105317
vertex 0.008642 0.041549 1.095567
vertex -0.000359 0.033623 1.091915
endloop
endfacet
facet normal -0.597325 0.758928 -0.259291
outer loop
vertex 0.013956 0.041330 1.081495
vertex 0.004920 0.033153 1.078378
vertex -0.000359 0.033623 1.091915
endloop
endfacet
facet normal -0.778214 0.539053 -0.322188
outer loop
vertex 0.004920 0.033153 1.078378
vertex -0.006429 0.023342 1.089375
vertex -0.000359 0.033623 1.091915
endloop
endfacet
facet normal -0.731047 0.535947 -0.422292
outer loop
vertex -0.000359 0.033623 1.091915
vertex -0.006429 0.023342 1.089375
vertex -0.013553 0.024112 1.102685
endloop
endfacet
facet normal -0.587369 0.774792 -0.233867
outer loop
vertex 0.013956 0.041330 1.081495
vertex -0.000359 0.033623 1.091915
vertex 0.008642 0.041549 1.095567
endloop
endfacet
facet normal -0.459899 0.868019 -0.187179
outer loop
vertex 0.013956 0.041330 1.081495
vertex 0.008642 0.041549 1.095567
vertex 0.018889 0.047931 1.099986
endloop
endfacet
facet normal -0.339041 0.939218 -0.054040
outer loop
vertex 0.037869 0.054026 1.086840
vertex 0.023209 0.048718 1.086561
vertex 0.018889 0.047931 1.099986
endloop
endfacet
facet normal -0.571419 0.809237 -0.136441
outer loop
vertex 0.013956 0.041330 1.081495
vertex 0.018889 0.047931 1.099986
vertex 0.023209 0.048718 1.086561
endloop
endfacet
facet normal -0.252506 0.964078 0.082422
outer loop
vertex 0.037869 0.054026 1.086840
vertex 0.018889 0.047931 1.099986
vertex 0.031462 0.050837 1.104513
endloop
endfacet
facet normal -0.190742 0.976809 -0.097276
outer loop
vertex 0.013178 0.048187 1.113755
vertex 0.031462 0.050837 1.104513
vertex 0.018889 0.047931 1.099986
endloop
endfacet
facet normal 0.023406 0.982320 0.185740
outer loop
vertex 0.031462 0.050837 1.104513
vertex 0.051869 0.051895 1.096346
vertex 0.037869 0.054026 1.086840
endloop
endfacet
facet normal -0.340823 0.939439 0.035981
outer loop
vertex 0.023209 0.048718 1.086561
vertex 0.037869 0.054026 1.086840
vertex 0.026896 0.050525 1.074306
endloop
endfacet
facet normal -0.784552 0.506292 -0.357976
outer loop
vertex 0.004920 0.033153 1.078378
vertex -0.000629 0.022764 1.075846
vertex -0.006429 0.023342 1.089375
endloop
endfacet
facet normal 0.890089 0.044645 0.453595
outer loop
vertex 0.110498 0.000000 1.088877
vertex 0.116604 0.000000 1.076896
vertex 0.115634 0.010403 1.077776
endloop
endfacet
facet normal 0.889067 0.047020 0.455356
outer loop
vertex 0.109287 0.013235 1.089876
vertex 0.110498 0.000000 1.088877
vertex 0.115634 0.010403 1.077776
endloop
endfacet
facet normal 0.898224 0.046920 0.437026
outer loop
vertex 0.104103 0.000000 1.101952
vertex 0.109817 0.000000 1.090208
vertex 0.109287 0.013235 1.089876
endloop
endfacet
facet normal 0.895367 0.052754 0.442193
outer loop
vertex 0.103009 0.011709 1.102770
vertex 0.104103 0.000000 1.101952
vertex 0.109287 0.013235 1.089876
endloop
endfacet
facet normal 0.906089 0.052772 0.419784
outer loop
vertex 0.098147 0.000000 1.114737
vertex 0.103571 0.000000 1.103029
vertex 0.103009 0.011709 1.102770
endloop
endfacet
facet normal 0.898166 0.070556 0.433959
outer loop
vertex 0.096972 0.011461 1.115305
vertex 0.098147 0.000000 1.114737
vertex 0.103009 0.011709 1.102770
endloop
endfacet
facet normal 0.910988 0.069953 0.406456
outer loop
vertex 0.096972 0.011461 1.115305
vertex 0.097003 0.000000 1.117208
vertex 0.097607 0.000000 1.115853
endloop
endfacet
facet normal 0.914210 0.082947 0.396662
outer loop
vertex 0.091505 0.000000 1.129880
vertex 0.097003 0.000000 1.117208
vertex 0.090588 0.011005 1.129692
endloop
endfacet
facet normal 0.868676 0.299042 0.394938
outer loop
vertex 0.096972 0.011461 1.115305
vertex 0.087238 0.022510 1.128349
vertex 0.090588 0.011005 1.129692
endloop
endfacet
facet normal 0.929312 0.083572 0.359714
outer loop
vertex 0.090588 0.011005 1.129692
vertex 0.090983 0.000000 1.131228
vertex 0.091505 0.000000 1.129880
endloop
endfacet
facet normal 0.877655 0.299259 0.374388
outer loop
vertex 0.090588 0.011005 1.129692
vertex 0.087238 0.022510 1.128349
vertex 0.080442 0.021900 1.144768
endloop
endfacet
facet normal 0.875210 0.342945 0.341170
outer loop
vertex 0.090588 0.011005 1.129692
vertex 0.080442 0.021900 1.144768
vertex 0.084819 0.010868 1.144629
endloop
endfacet
facet normal 0.872603 0.341813 0.348897
outer loop
vertex 0.080442 0.021900 1.144768
vertex 0.079423 0.011131 1.157867
vertex 0.084819 0.010868 1.144629
endloop
endfacet
facet normal 0.921562 0.105942 0.373497
outer loop
vertex 0.084819 0.010868 1.144629
vertex 0.085670 0.000000 1.145613
vertex 0.086119 0.000000 1.144504
endloop
endfacet
facet normal 0.933497 0.107739 0.342017
outer loop
vertex 0.086119 0.000000 1.144504
vertex 0.090983 0.000000 1.131228
vertex 0.084819 0.010868 1.144629
endloop
endfacet
facet normal 0.924970 0.123356 0.359462
outer loop
vertex 0.080788 0.000000 1.158175
vertex 0.085670 0.000000 1.145613
vertex 0.079423 0.011131 1.157867
endloop
endfacet
facet normal 0.928851 0.123550 0.349243
outer loop
vertex 0.075975 0.000000 1.170976
vertex 0.080788 0.000000 1.158175
vertex 0.079423 0.011131 1.157867
endloop
endfacet
facet normal 0.928147 0.125257 0.350506
outer loop
vertex 0.074241 0.012096 1.171244
vertex 0.075975 0.000000 1.170976
vertex 0.079423 0.011131 1.157867
endloop
endfacet
facet normal 0.993798 0.111199 -0.000973
outer loop
vertex 0.074241 0.012096 1.171244
vertex 0.075596 0.000000 1.172954
vertex 0.075595 0.000000 1.171980
endloop
endfacet
facet normal 0.997005 0.052908 0.056407
outer loop
vertex 0.074622 0.000000 1.190174
vertex 0.075596 0.000000 1.172954
vertex 0.073994 0.014444 1.187727
endloop
endfacet
facet normal 0.875722 0.367874 0.312697
outer loop
vertex 0.075294 0.022184 1.156427
vertex 0.074241 0.012096 1.171244
vertex 0.079423 0.011131 1.157867
endloop
endfacet
facet normal 0.854203 0.367073 0.368231
outer loop
vertex 0.080442 0.021900 1.144768
vertex 0.075294 0.022184 1.156427
vertex 0.079423 0.011131 1.157867
endloop
endfacet
facet normal 0.867573 0.275692 0.413898
outer loop
vertex 0.096972 0.011461 1.115305
vertex 0.094439 0.023852 1.112361
vertex 0.087238 0.022510 1.128349
endloop
endfacet
facet normal 0.732317 0.566807 0.377413
outer loop
vertex 0.087238 0.022510 1.128349
vertex 0.094439 0.023852 1.112361
vertex 0.086482 0.035283 1.110633
endloop
endfacet
facet normal 0.718245 0.578572 0.386495
outer loop
vertex 0.087238 0.022510 1.128349
vertex 0.086482 0.035283 1.110633
vertex 0.079250 0.033719 1.126414
endloop
endfacet
facet normal 0.741411 0.585085 0.328613
outer loop
vertex 0.080442 0.021900 1.144768
vertex 0.087238 0.022510 1.128349
vertex 0.079250 0.033719 1.126414
endloop
endfacet
facet normal 0.512960 0.824460 0.239035
outer loop
vertex 0.061433 0.041330 1.138397
vertex 0.079250 0.033719 1.126414
vertex 0.068608 0.041314 1.123055
endloop
endfacet
facet normal 0.522901 0.811009 0.262371
outer loop
vertex 0.061433 0.041330 1.138397
vertex 0.072064 0.033210 1.142309
vertex 0.079250 0.033719 1.126414
endloop
endfacet
facet normal 0.717309 0.606085 0.343700
outer loop
vertex 0.080442 0.021900 1.144768
vertex 0.079250 0.033719 1.126414
vertex 0.072064 0.033210 1.142309
endloop
endfacet
facet normal 0.480067 0.823741 0.301641
outer loop
vertex 0.075717 0.042262 1.108707
vertex 0.079250 0.033719 1.126414
vertex 0.086482 0.035283 1.110633
endloop
endfacet
facet normal 0.490717 0.819047 0.297251
outer loop
vertex 0.075717 0.042262 1.108707
vertex 0.068608 0.041314 1.123055
vertex 0.079250 0.033719 1.126414
endloop
endfacet
facet normal 0.856510 0.278358 0.434634
outer loop
vertex 0.101233 0.026268 1.097425
vertex 0.094439 0.023852 1.112361
vertex 0.096972 0.011461 1.115305
endloop
endfacet
facet normal 0.867662 0.261154 0.423039
outer loop
vertex 0.101233 0.026268 1.097425
vertex 0.096972 0.011461 1.115305
vertex 0.103009 0.011709 1.102770
endloop
endfacet
facet normal 0.853254 0.268269 0.447202
outer loop
vertex 0.109287 0.013235 1.089876
vertex 0.101233 0.026268 1.097425
vertex 0.103009 0.011709 1.102770
endloop
endfacet
facet normal 0.889958 0.139647 0.434135
outer loop
vertex 0.109287 0.013235 1.089876
vertex 0.115634 0.010403 1.077776
vertex 0.112683 0.021344 1.080306
endloop
endfacet
facet normal 0.838066 0.231854 0.493850
outer loop
vertex 0.101233 0.026268 1.097425
vertex 0.109287 0.013235 1.089876
vertex 0.112683 0.021344 1.080306
endloop
endfacet
facet normal 0.468274 0.815907 0.339138
outer loop
vertex 0.086482 0.035283 1.110633
vertex 0.080733 0.044386 1.096671
vertex 0.075717 0.042262 1.108707
endloop
endfacet
facet normal 0.341699 0.929969 0.135642
outer loop
vertex 0.068608 0.041314 1.123055
vertex 0.057345 0.046416 1.116448
vertex 0.050019 0.046813 1.132181
endloop
endfacet
facet normal 0.353063 0.921085 0.164159
outer loop
vertex 0.068608 0.041314 1.123055
vertex 0.050019 0.046813 1.132181
vertex 0.061433 0.041330 1.138397
endloop
endfacet
facet normal 0.329936 0.943997 0.003294
outer loop
vertex 0.050019 0.046813 1.132181
vertex 0.031687 0.053192 1.140283
vertex 0.043189 0.049145 1.147990
endloop
endfacet
facet normal 0.412921 0.909693 0.044205
outer loop
vertex 0.043189 0.049145 1.147990
vertex 0.061433 0.041330 1.138397
vertex 0.050019 0.046813 1.132181
endloop
endfacet
facet normal 0.285078 0.929997 -0.232028
outer loop
vertex 0.043189 0.049145 1.147990
vertex 0.025729 0.056249 1.155012
vertex 0.038029 0.054781 1.164240
endloop
endfacet
facet normal 0.359882 0.931772 -0.047813
outer loop
vertex 0.043189 0.049145 1.147990
vertex 0.031687 0.053192 1.140283
vertex 0.025729 0.056249 1.155012
endloop
endfacet
facet normal -0.446884 0.051215 0.893125
outer loop
vertex 0.010777 0.055661 1.145425
vertex -0.011789 0.047828 1.134583
vertex -0.039608 0.000000 1.123406
endloop
endfacet
facet normal -0.332812 0.238401 0.912360
outer loop
vertex 0.073994 0.014444 1.187727
vertex 0.070224 0.028874 1.182581
vertex 0.062429 0.040420 1.176720
endloop
endfacet
facet normal -0.299843 0.255929 0.919019
outer loop
vertex 0.062429 0.040420 1.176720
vertex 0.051236 0.049197 1.170624
vertex 0.073994 0.014444 1.187727
endloop
endfacet
facet normal -0.360332 0.191511 0.912954
outer loop
vertex 0.051236 0.049197 1.170624
vertex 0.038029 0.054781 1.164240
vertex 0.074622 0.000000 1.190174
endloop
endfacet
facet normal -0.601799 -0.024058 0.798285
outer loop
vertex 0.038029 0.054781 1.164240
vertex 0.025729 0.056249 1.155012
vertex 0.074622 0.000000 1.190174
endloop
endfacet
facet normal -0.537345 0.158736 0.828290
outer loop
vertex 0.025729 0.056249 1.155012
vertex 0.010777 0.055661 1.145425
vertex -0.039608 0.000000 1.123406
endloop
endfacet
facet normal -0.502068 0.100542 0.858964
outer loop
vertex 0.074622 0.000000 1.190174
vertex 0.025729 0.056249 1.155012
vertex -0.039608 0.000000 1.123406
endloop
endfacet
facet normal -0.470313 0.151598 0.869381
outer loop
vertex 0.010777 0.055661 1.145425
vertex -0.000796 0.053173 1.139598
vertex -0.011789 0.047828 1.134583
endloop
endfacet
facet normal -0.409614 0.029486 0.911782
outer loop
vertex -0.011789 0.047828 1.134583
vertex -0.021811 0.040344 1.130323
vertex -0.037744 0.012260 1.124074
endloop
endfacet
facet normal -0.385202 0.013257 0.922737
outer loop
vertex -0.021811 0.040344 1.130323
vertex -0.030895 0.030329 1.126674
vertex -0.037744 0.012260 1.124074
endloop
endfacet
facet normal -0.474338 0.053267 0.878730
outer loop
vertex -0.030895 0.030329 1.126674
vertex -0.035251 0.021862 1.124837
vertex -0.037744 0.012260 1.124074
endloop
endfacet
facet normal -0.384975 0.008253 0.922890
outer loop
vertex -0.037744 0.012260 1.124074
vertex -0.039608 0.000000 1.123406
vertex -0.011789 0.047828 1.134583
endloop
endfacet
facet normal -0.462917 0.128475 0.877042
outer loop
vertex 0.074622 0.000000 1.190174
vertex 0.073994 0.014444 1.187727
vertex 0.051236 0.049197 1.170624
endloop
endfacet
facet normal 0.286199 0.533184 -0.796119
outer loop
vertex 0.007431 0.021400 1.046243
vertex 0.019228 0.042016 1.064291
vertex 0.115634 0.010403 1.077776
endloop
endfacet
facet normal 0.275167 0.803535 -0.527840
outer loop
vertex 0.051869 0.051895 1.096346
vertex 0.066327 0.048485 1.098692
vertex 0.019228 0.042016 1.064291
endloop
endfacet
facet normal 0.191288 0.883306 -0.427995
outer loop
vertex 0.066327 0.048485 1.098692
vertex 0.080733 0.044386 1.096671
vertex 0.019228 0.042016 1.064291
endloop
endfacet
facet normal -0.207468 0.358713 -0.910100
outer loop
vertex 0.080733 0.044386 1.096671
vertex 0.094078 0.039431 1.091676
vertex 0.112683 0.021344 1.080306
endloop
endfacet
facet normal -0.327205 0.238251 -0.914425
outer loop
vertex 0.094078 0.039431 1.091676
vertex 0.105377 0.031529 1.085574
vertex 0.112683 0.021344 1.080306
endloop
endfacet
facet normal 0.221329 0.275993 -0.935330
outer loop
vertex 0.112683 0.021344 1.080306
vertex 0.115634 0.010403 1.077776
vertex 0.019228 0.042016 1.064291
endloop
endfacet
facet normal 0.269368 0.777299 -0.568549
outer loop
vertex 0.080733 0.044386 1.096671
vertex 0.112683 0.021344 1.080306
vertex 0.019228 0.042016 1.064291
endloop
endfacet
facet normal 0.295628 0.107839 -0.949197
outer loop
vertex 0.115634 0.010403 1.077776
vertex 0.116604 0.000000 1.076896
vertex 0.004844 0.000000 1.042088
endloop
endfacet
facet normal 0.299896 0.069963 -0.951403
outer loop
vertex 0.004844 0.000000 1.042088
vertex 0.005517 0.010723 1.043089
vertex 0.115634 0.010403 1.077776
endloop
endfacet
facet normal 0.293534 0.222038 -0.929805
outer loop
vertex 0.005517 0.010723 1.043089
vertex 0.007431 0.021400 1.046243
vertex 0.115634 0.010403 1.077776
endloop
endfacet
facet normal 0.796519 0.069957 -0.600553
outer loop
vertex 0.007431 0.021400 1.046243
vertex 0.012124 0.033605 1.053889
vertex 0.019228 0.042016 1.064291
endloop
endfacet
facet normal 0.624007 0.291162 -0.725149
outer loop
vertex 0.019228 0.042016 1.064291
vertex 0.026896 0.050525 1.074306
vertex 0.051869 0.051895 1.096346
endloop
endfacet
facet normal 0.508737 0.603523 -0.613960
outer loop
vertex 0.026896 0.050525 1.074306
vertex 0.037869 0.054026 1.086840
vertex 0.051869 0.051895 1.096346
endloop
endfacet
facet normal -0.945982 0.067355 -0.317144
outer loop
vertex 0.001136 0.000000 1.059805
vertex -0.002998 0.011339 1.074543
vertex 0.001879 0.011001 1.059924
endloop
endfacet
facet normal -0.975252 0.063452 -0.211796
outer loop
vertex 0.001879 0.011001 1.059924
vertex 0.005517 0.010723 1.043089
vertex 0.001407 0.000000 1.058801
endloop
endfacet
facet normal -0.911129 0.043255 -0.409844
outer loop
vertex -0.003578 0.000000 1.074636
vertex -0.009123 0.011732 1.088201
vertex -0.002998 0.011339 1.074543
endloop
endfacet
facet normal -0.866032 0.029953 -0.499090
outer loop
vertex -0.009632 0.000000 1.088380
vertex -0.016657 0.012312 1.101309
vertex -0.009123 0.011732 1.088201
endloop
endfacet
facet normal -0.810477 0.037467 -0.584571
outer loop
vertex -0.025767 0.013427 1.114011
vertex -0.016657 0.012312 1.101309
vertex -0.026270 0.000000 1.113848
endloop
endfacet
facet normal -0.575317 0.132057 -0.807200
outer loop
vertex -0.037744 0.012260 1.124074
vertex -0.026386 0.000000 1.113973
vertex -0.033620 0.000000 1.119129
endloop
endfacet
facet normal -0.643979 0.031946 -0.764376
outer loop
vertex -0.025767 0.013427 1.114011
vertex -0.026320 0.000000 1.113917
vertex -0.026386 0.000000 1.113973
endloop
endfacet
facet normal 0.889048 0.047014 0.455393
outer loop
vertex 0.109287 0.013235 1.089876
vertex 0.109817 0.000000 1.090208
vertex 0.110498 0.000000 1.088877
endloop
endfacet
facet normal 0.895385 0.052750 0.442157
outer loop
vertex 0.103009 0.011709 1.102770
vertex 0.103571 0.000000 1.103029
vertex 0.104103 0.000000 1.101952
endloop
endfacet
facet normal 0.898144 0.070561 0.434004
outer loop
vertex 0.096972 0.011461 1.115305
vertex 0.097607 0.000000 1.115853
vertex 0.098147 0.000000 1.114737
endloop
endfacet
facet normal 0.910990 0.069952 0.406453
outer loop
vertex 0.096972 0.011461 1.115305
vertex 0.090588 0.011005 1.129692
vertex 0.097003 0.000000 1.117208
endloop
endfacet
facet normal 0.929323 0.083569 0.359688
outer loop
vertex 0.090588 0.011005 1.129692
vertex 0.084819 0.010868 1.144629
vertex 0.090983 0.000000 1.131228
endloop
endfacet
facet normal 0.921546 0.105948 0.373535
outer loop
vertex 0.084819 0.010868 1.144629
vertex 0.079423 0.011131 1.157867
vertex 0.085670 0.000000 1.145613
endloop
endfacet
facet normal 0.928130 0.125252 0.350551
outer loop
vertex 0.074241 0.012096 1.171244
vertex 0.075595 0.000000 1.171980
vertex 0.075975 0.000000 1.170976
endloop
endfacet
facet normal 0.993796 0.111214 -0.000950
outer loop
vertex 0.074241 0.012096 1.171244
vertex 0.073994 0.014444 1.187727
vertex 0.075596 0.000000 1.172954
endloop
endfacet
facet normal 0.969085 -0.245874 -0.020503
outer loop
vertex 0.074241 -0.012096 1.171244
vertex 0.073994 -0.014444 1.187727
vertex 0.070224 -0.028874 1.182581
endloop
endfacet
facet normal 0.843649 -0.531688 -0.074600
outer loop
vertex 0.071827 -0.024344 1.168422
vertex 0.070224 -0.028874 1.182581
vertex 0.062429 -0.040420 1.176720
endloop
endfacet
facet normal 0.978052 -0.203292 0.045682
outer loop
vertex 0.074241 -0.012096 1.171244
vertex 0.070224 -0.028874 1.182581
vertex 0.071827 -0.024344 1.168422
endloop
endfacet
facet normal 0.943491 -0.238884 0.229692
outer loop
vertex 0.075294 -0.022184 1.156427
vertex 0.074241 -0.012096 1.171244
vertex 0.071827 -0.024344 1.168422
endloop
endfacet
facet normal 0.739026 -0.667162 0.093464
outer loop
vertex 0.075294 -0.022184 1.156427
vertex 0.071827 -0.024344 1.168422
vertex 0.064819 -0.033444 1.158876
endloop
endfacet
facet normal 0.835923 -0.539830 -0.099076
outer loop
vertex 0.071827 -0.024344 1.168422
vertex 0.062429 -0.040420 1.176720
vertex 0.064819 -0.033444 1.158876
endloop
endfacet
facet normal 0.729172 -0.611567 0.307073
outer loop
vertex 0.064819 -0.033444 1.158876
vertex 0.080442 -0.021900 1.144768
vertex 0.075294 -0.022184 1.156427
endloop
endfacet
facet normal 0.689951 -0.700724 -0.181531
outer loop
vertex 0.062429 -0.040420 1.176720
vertex 0.054498 -0.042362 1.154073
vertex 0.064819 -0.033444 1.158876
endloop
endfacet
facet normal 0.730214 -0.608466 0.310736
outer loop
vertex 0.064819 -0.033444 1.158876
vertex 0.072064 -0.033210 1.142309
vertex 0.080442 -0.021900 1.144768
endloop
endfacet
facet normal 0.569300 -0.786971 0.237851
outer loop
vertex 0.054498 -0.042362 1.154073
vertex 0.072064 -0.033210 1.142309
vertex 0.064819 -0.033444 1.158876
endloop
endfacet
facet normal 0.550776 -0.812703 0.190156
outer loop
vertex 0.054498 -0.042362 1.154073
vertex 0.061433 -0.041330 1.138397
vertex 0.072064 -0.033210 1.142309
endloop
endfacet
facet normal 0.451896 -0.880707 0.141936
outer loop
vertex 0.043189 -0.049145 1.147990
vertex 0.061433 -0.041330 1.138397
vertex 0.054498 -0.042362 1.154073
endloop
endfacet
facet normal 0.554157 -0.825086 -0.110199
outer loop
vertex 0.038029 -0.054781 1.164240
vertex 0.043189 -0.049145 1.147990
vertex 0.054498 -0.042362 1.154073
endloop
endfacet
facet normal 0.477984 -0.841101 -0.253141
outer loop
vertex 0.038029 -0.054781 1.164240
vertex 0.054498 -0.042362 1.154073
vertex 0.051236 -0.049197 1.170624
endloop
endfacet
facet normal 0.663742 -0.728390 -0.169984
outer loop
vertex 0.062429 -0.040420 1.176720
vertex 0.051236 -0.049197 1.170624
vertex 0.054498 -0.042362 1.154073
endloop
endfacet
facet normal -0.259035 -0.888390 -0.379030
outer loop
vertex 0.006607 -0.049972 1.127036
vertex -0.000796 -0.053173 1.139598
vertex -0.011789 -0.047828 1.134583
endloop
endfacet
facet normal -0.066664 -0.956775 -0.283085
outer loop
vertex -0.000796 -0.053173 1.139598
vertex 0.006607 -0.049972 1.127036
vertex 0.018606 -0.052575 1.133008
endloop
endfacet
facet normal -0.065336 -0.957984 -0.279282
outer loop
vertex -0.000796 -0.053173 1.139598
vertex 0.018606 -0.052575 1.133008
vertex 0.010777 -0.055661 1.145425
endloop
endfacet
facet normal 0.054710 -0.981840 -0.181649
outer loop
vertex 0.018606 -0.052575 1.133008
vertex 0.031687 -0.053192 1.140283
vertex 0.025729 -0.056249 1.155012
endloop
endfacet
facet normal 0.021983 -0.992080 -0.123672
outer loop
vertex 0.031687 -0.053192 1.140283
vertex 0.018606 -0.052575 1.133008
vertex 0.025236 -0.050712 1.119242
endloop
endfacet
facet normal -0.117637 -0.974982 -0.188603
outer loop
vertex 0.006607 -0.049972 1.127036
vertex 0.025236 -0.050712 1.119242
vertex 0.018606 -0.052575 1.133008
endloop
endfacet
facet normal 0.083611 -0.978143 -0.190385
outer loop
vertex 0.018606 -0.052575 1.133008
vertex 0.025729 -0.056249 1.155012
vertex 0.010777 -0.055661 1.145425
endloop
endfacet
facet normal -0.117951 -0.974795 -0.189374
outer loop
vertex 0.006607 -0.049972 1.127036
vertex 0.013178 -0.048187 1.113755
vertex 0.025236 -0.050712 1.119242
endloop
endfacet
facet normal -0.175688 -0.982236 -0.065928
outer loop
vertex 0.013178 -0.048187 1.113755
vertex 0.031462 -0.050837 1.104513
vertex 0.025236 -0.050712 1.119242
endloop
endfacet
facet normal 0.036158 -0.999064 0.023762
outer loop
vertex 0.037822 -0.050107 1.125527
vertex 0.025236 -0.050712 1.119242
vertex 0.031462 -0.050837 1.104513
endloop
endfacet
facet normal 0.123779 -0.980365 -0.153500
outer loop
vertex 0.031687 -0.053192 1.140283
vertex 0.025236 -0.050712 1.119242
vertex 0.037822 -0.050107 1.125527
endloop
endfacet
facet normal 0.297958 -0.951622 -0.075074
outer loop
vertex 0.050019 -0.046813 1.132181
vertex 0.031687 -0.053192 1.140283
vertex 0.037822 -0.050107 1.125527
endloop
endfacet
facet normal 0.220078 -0.972363 0.077944
outer loop
vertex 0.057345 -0.046416 1.116448
vertex 0.050019 -0.046813 1.132181
vertex 0.037822 -0.050107 1.125527
endloop
endfacet
facet normal 0.216718 -0.973710 0.070161
outer loop
vertex 0.057345 -0.046416 1.116448
vertex 0.037822 -0.050107 1.125527
vertex 0.044607 -0.049662 1.110745
endloop
endfacet
facet normal 0.084824 -0.996356 0.008940
outer loop
vertex 0.037822 -0.050107 1.125527
vertex 0.031462 -0.050837 1.104513
vertex 0.044607 -0.049662 1.110745
endloop
endfacet
facet normal 0.012640 -0.987124 0.159458
outer loop
vertex 0.031462 -0.050837 1.104513
vertex 0.051869 -0.051895 1.096346
vertex 0.044607 -0.049662 1.110745
endloop
endfacet
facet normal 0.185513 -0.952558 0.241285
outer loop
vertex 0.066327 -0.048485 1.098692
vertex 0.044607 -0.049662 1.110745
vertex 0.051869 -0.051895 1.096346
endloop
endfacet
facet normal 0.159938 -0.967937 0.193694
outer loop
vertex 0.066327 -0.048485 1.098692
vertex 0.057345 -0.046416 1.116448
vertex 0.044607 -0.049662 1.110745
endloop
endfacet
facet normal 0.275519 -0.928860 0.247605
outer loop
vertex 0.066327 -0.048485 1.098692
vertex 0.068608 -0.041314 1.123055
vertex 0.057345 -0.046416 1.116448
endloop
endfacet
facet normal 0.351283 -0.906569 0.233950
outer loop
vertex 0.066327 -0.048485 1.098692
vertex 0.075717 -0.042262 1.108707
vertex 0.068608 -0.041314 1.123055
endloop
endfacet
facet normal 0.299112 -0.910555 0.285343
outer loop
vertex 0.075717 -0.042262 1.108707
vertex 0.066327 -0.048485 1.098692
vertex 0.080733 -0.044386 1.096671
endloop
endfacet
facet normal 0.718053 -0.561912 0.410675
outer loop
vertex 0.094439 -0.023852 1.112361
vertex 0.086482 -0.035283 1.110633
vertex 0.094078 -0.039431 1.091676
endloop
endfacet
facet normal 0.710854 -0.567725 0.415180
outer loop
vertex 0.094439 -0.023852 1.112361
vertex 0.094078 -0.039431 1.091676
vertex 0.101233 -0.026268 1.097425
endloop
endfacet
facet normal 0.661749 -0.571595 0.485146
outer loop
vertex 0.101233 -0.026268 1.097425
vertex 0.094078 -0.039431 1.091676
vertex 0.105377 -0.031529 1.085574
endloop
endfacet
facet normal 0.439558 -0.824428 0.356521
outer loop
vertex 0.086482 -0.035283 1.110633
vertex 0.080733 -0.044386 1.096671
vertex 0.094078 -0.039431 1.091676
endloop
endfacet
facet normal 0.820446 -0.357952 0.445800
outer loop
vertex 0.101233 -0.026268 1.097425
vertex 0.105377 -0.031529 1.085574
vertex 0.112683 -0.021344 1.080306
endloop
endfacet
facet normal -0.660439 -0.736801 -0.144726
outer loop
vertex 0.008815 -0.032869 1.065242
vertex 0.012124 -0.033605 1.053889
vertex 0.019228 -0.042016 1.064291
endloop
endfacet
facet normal -0.655987 -0.724917 -0.210183
outer loop
vertex 0.004920 -0.033153 1.078378
vertex 0.008815 -0.032869 1.065242
vertex 0.019228 -0.042016 1.064291
endloop
endfacet
facet normal -0.630519 -0.758874 -0.162958
outer loop
vertex 0.004920 -0.033153 1.078378
vertex 0.019228 -0.042016 1.064291
vertex 0.013956 -0.041330 1.081495
endloop
endfacet
facet normal -0.568965 -0.809999 -0.142055
outer loop
vertex 0.023209 -0.048718 1.086561
vertex 0.013956 -0.041330 1.081495
vertex 0.019228 -0.042016 1.064291
endloop
endfacet
facet normal -0.679689 -0.727020 -0.097289
outer loop
vertex 0.023209 -0.048718 1.086561
vertex 0.019228 -0.042016 1.064291
vertex 0.026896 -0.050525 1.074306
endloop
endfacet
facet normal -0.825481 -0.503213 -0.255651
outer loop
vertex 0.008815 -0.032869 1.065242
vertex 0.004920 -0.033153 1.078378
vertex -0.000629 -0.022764 1.075846
endloop
endfacet
facet normal -0.832287 -0.470891 -0.292506
outer loop
vertex 0.008815 -0.032869 1.065242
vertex -0.000629 -0.022764 1.075846
vertex 0.003990 -0.022227 1.061839
endloop
endfacet
facet normal -0.859813 -0.460425 -0.220751
outer loop
vertex 0.003990 -0.022227 1.061839
vertex 0.012124 -0.033605 1.053889
vertex 0.008815 -0.032869 1.065242
endloop
endfacet
facet normal -0.922299 -0.226925 -0.312842
outer loop
vertex -0.002998 -0.011339 1.074543
vertex 0.003990 -0.022227 1.061839
vertex -0.000629 -0.022764 1.075846
endloop
endfacet
facet normal -0.922298 -0.226809 -0.312927
outer loop
vertex -0.002998 -0.011339 1.074543
vertex 0.001879 -0.011001 1.059924
vertex 0.003990 -0.022227 1.061839
endloop
endfacet
facet normal -0.950866 -0.216546 -0.221274
outer loop
vertex 0.007431 -0.021400 1.046243
vertex 0.003990 -0.022227 1.061839
vertex 0.001879 -0.011001 1.059924
endloop
endfacet
facet normal -0.859227 -0.464587 -0.214214
outer loop
vertex 0.003990 -0.022227 1.061839
vertex 0.007431 -0.021400 1.046243
vertex 0.012124 -0.033605 1.053889
endloop
endfacet
facet normal -0.946000 -0.067367 -0.317091
outer loop
vertex 0.001136 0.000000 1.059805
vertex 0.001288 0.000000 1.059352
vertex 0.001879 -0.011001 1.059924
endloop
endfacet
facet normal -0.975247 -0.063452 -0.211819
outer loop
vertex 0.001879 -0.011001 1.059924
vertex 0.001288 0.000000 1.059352
vertex 0.001407 0.000000 1.058801
endloop
endfacet
facet normal -0.949955 -0.232069 -0.209117
outer loop
vertex 0.007431 -0.021400 1.046243
vertex 0.001879 -0.011001 1.059924
vertex 0.005517 -0.010723 1.043089
endloop
endfacet
facet normal -0.976364 -0.080037 -0.200769
outer loop
vertex 0.001407 0.000000 1.058801
vertex 0.004844 0.000000 1.042088
vertex 0.005517 -0.010723 1.043089
endloop
endfacet
facet normal -0.953036 -0.042346 -0.299882
outer loop
vertex -0.003422 0.000000 1.074288
vertex 0.001136 0.000000 1.059805
vertex -0.002998 -0.011339 1.074543
endloop
endfacet
facet normal -0.911122 -0.043255 -0.409860
outer loop
vertex -0.003578 0.000000 1.074636
vertex -0.003422 0.000000 1.074288
vertex -0.002998 -0.011339 1.074543
endloop
endfacet
facet normal -0.915571 -0.030897 -0.400967
outer loop
vertex -0.009488 0.000000 1.088129
vertex -0.003578 0.000000 1.074636
vertex -0.009123 -0.011732 1.088201
endloop
endfacet
facet normal -0.865968 -0.029974 -0.499201
outer loop
vertex -0.009632 0.000000 1.088380
vertex -0.009488 0.000000 1.088129
vertex -0.009123 -0.011732 1.088201
endloop
endfacet
facet normal -0.836152 -0.243711 -0.491381
outer loop
vertex -0.006429 -0.023342 1.089375
vertex -0.016657 -0.012312 1.101309
vertex -0.009123 -0.011732 1.088201
endloop
endfacet
facet normal -0.887160 -0.245377 -0.390816
outer loop
vertex -0.009123 -0.011732 1.088201
vertex -0.000629 -0.022764 1.075846
vertex -0.006429 -0.023342 1.089375
endloop
endfacet
facet normal -0.885573 -0.229674 -0.403746
outer loop
vertex -0.009123 -0.011732 1.088201
vertex -0.002998 -0.011339 1.074543
vertex -0.000629 -0.022764 1.075846
endloop
endfacet
facet normal -0.760820 -0.305614 -0.572497
outer loop
vertex -0.022870 -0.025118 1.116402
vertex -0.025767 -0.013427 1.114011
vertex -0.016657 -0.012312 1.101309
endloop
endfacet
facet normal -0.811370 -0.037399 -0.583335
outer loop
vertex -0.025767 -0.013427 1.114011
vertex -0.026320 0.000000 1.113917
vertex -0.026270 0.000000 1.113848
endloop
endfacet
facet normal -0.804117 -0.022855 -0.594032
outer loop
vertex -0.026270 0.000000 1.113848
vertex -0.017011 0.000000 1.101315
vertex -0.016657 -0.012312 1.101309
endloop
endfacet
facet normal -0.868320 -0.024751 -0.495386
outer loop
vertex -0.017011 0.000000 1.101315
vertex -0.009632 0.000000 1.088380
vertex -0.016657 -0.012312 1.101309
endloop
endfacet
facet normal -0.786759 -0.271594 -0.554299
outer loop
vertex -0.022870 -0.025118 1.116402
vertex -0.016657 -0.012312 1.101309
vertex -0.013553 -0.024112 1.102685
endloop
endfacet
facet normal -0.840807 -0.275518 -0.465976
outer loop
vertex -0.006429 -0.023342 1.089375
vertex -0.013553 -0.024112 1.102685
vertex -0.016657 -0.012312 1.101309
endloop
endfacet
facet normal -0.645493 -0.592553 -0.481892
outer loop
vertex -0.014108 -0.036325 1.118446
vertex -0.022870 -0.025118 1.116402
vertex -0.013553 -0.024112 1.102685
endloop
endfacet
facet normal -0.589750 -0.299515 -0.749990
outer loop
vertex -0.025767 -0.013427 1.114011
vertex -0.022870 -0.025118 1.116402
vertex -0.035251 -0.021862 1.124837
endloop
endfacet
facet normal -0.518324 -0.527944 -0.672766
outer loop
vertex -0.014108 -0.036325 1.118446
vertex -0.030895 -0.030329 1.126674
vertex -0.022870 -0.025118 1.116402
endloop
endfacet
facet normal -0.581018 -0.446546 -0.680452
outer loop
vertex -0.022870 -0.025118 1.116402
vertex -0.030895 -0.030329 1.126674
vertex -0.035251 -0.021862 1.124837
endloop
endfacet
facet normal -0.507109 -0.661348 -0.552683
outer loop
vertex -0.014108 -0.036325 1.118446
vertex -0.021811 -0.040344 1.130323
vertex -0.030895 -0.030329 1.126674
endloop
endfacet
facet normal -0.395842 -0.793338 -0.462518
outer loop
vertex -0.004278 -0.044358 1.122203
vertex -0.011789 -0.047828 1.134583
vertex -0.021811 -0.040344 1.130323
endloop
endfacet
facet normal -0.412223 -0.747831 -0.520405
outer loop
vertex -0.004278 -0.044358 1.122203
vertex -0.021811 -0.040344 1.130323
vertex -0.014108 -0.036325 1.118446
endloop
endfacet
facet normal -0.576170 -0.131550 -0.806674
outer loop
vertex -0.037744 -0.012260 1.124074
vertex -0.039608 0.000000 1.123406
vertex -0.033620 0.000000 1.119129
endloop
endfacet
facet normal -0.644769 -0.031883 -0.763712
outer loop
vertex -0.025767 -0.013427 1.114011
vertex -0.037744 -0.012260 1.124074
vertex -0.026386 0.000000 1.113973
endloop
endfacet
facet normal -0.639574 -0.224489 -0.735221
outer loop
vertex -0.025767 -0.013427 1.114011
vertex -0.035251 -0.021862 1.124837
vertex -0.037744 -0.012260 1.124074
endloop
endfacet
facet normal -0.335550 -0.897357 -0.286629
outer loop
vertex 0.013178 -0.048187 1.113755
vertex 0.006607 -0.049972 1.127036
vertex -0.004278 -0.044358 1.122203
endloop
endfacet
facet normal -0.343407 -0.887482 -0.307323
outer loop
vertex 0.013178 -0.048187 1.113755
vertex -0.004278 -0.044358 1.122203
vertex 0.002554 -0.042460 1.109088
endloop
endfacet
facet normal -0.268979 -0.872570 -0.407765
outer loop
vertex 0.006607 -0.049972 1.127036
vertex -0.011789 -0.047828 1.134583
vertex -0.004278 -0.044358 1.122203
endloop
endfacet
facet normal -0.497670 -0.783258 -0.372600
outer loop
vertex -0.014108 -0.036325 1.118446
vertex 0.002554 -0.042460 1.109088
vertex -0.004278 -0.044358 1.122203
endloop
endfacet
facet normal -0.430815 -0.866439 -0.252355
outer loop
vertex 0.018889 -0.047931 1.099986
vertex 0.002554 -0.042460 1.109088
vertex 0.008642 -0.041549 1.095567
endloop
endfacet
facet normal -0.550404 -0.779017 -0.300313
outer loop
vertex -0.006693 -0.034473 1.105317
vertex 0.008642 -0.041549 1.095567
vertex 0.002554 -0.042460 1.109088
endloop
endfacet
facet normal -0.503962 -0.769077 -0.393119
outer loop
vertex -0.014108 -0.036325 1.118446
vertex -0.006693 -0.034473 1.105317
vertex 0.002554 -0.042460 1.109088
endloop
endfacet
facet normal -0.402683 -0.896718 -0.183695
outer loop
vertex 0.018889 -0.047931 1.099986
vertex 0.013178 -0.048187 1.113755
vertex 0.002554 -0.042460 1.109088
endloop
endfacet
facet normal -0.679768 -0.567961 -0.464044
outer loop
vertex -0.014108 -0.036325 1.118446
vertex -0.013553 -0.024112 1.102685
vertex -0.006693 -0.034473 1.105317
endloop
endfacet
facet normal -0.724424 -0.575887 -0.378899
outer loop
vertex -0.000359 -0.033623 1.091915
vertex -0.006693 -0.034473 1.105317
vertex -0.013553 -0.024112 1.102685
endloop
endfacet
facet normal -0.553986 -0.772333 -0.310807
outer loop
vertex -0.006693 -0.034473 1.105317
vertex -0.000359 -0.033623 1.091915
vertex 0.008642 -0.041549 1.095567
endloop
endfacet
facet normal -0.597325 -0.758928 -0.259291
outer loop
vertex 0.013956 -0.041330 1.081495
vertex -0.000359 -0.033623 1.091915
vertex 0.004920 -0.033153 1.078378
endloop
endfacet
facet normal -0.778214 -0.539053 -0.322188
outer loop
vertex 0.004920 -0.033153 1.078378
vertex -0.000359 -0.033623 1.091915
vertex -0.006429 -0.023342 1.089375
endloop
endfacet
facet normal -0.731047 -0.535947 -0.422292
outer loop
vertex -0.000359 -0.033623 1.091915
vertex -0.013553 -0.024112 1.102685
vertex -0.006429 -0.023342 1.089375
endloop
endfacet
facet normal -0.587369 -0.774792 -0.233867
outer loop
vertex 0.013956 -0.041330 1.081495
vertex 0.008642 -0.041549 1.095567
vertex -0.000359 -0.033623 1.091915
endloop
endfacet
facet normal -0.459899 -0.868019 -0.187179
outer loop
vertex 0.013956 -0.041330 1.081495
vertex 0.018889 -0.047931 1.099986
vertex 0.008642 -0.041549 1.095567
endloop
endfacet
facet normal -0.339041 -0.939218 -0.054040
outer loop
vertex 0.037869 -0.054026 1.086840
vertex 0.018889 -0.047931 1.099986
vertex 0.023209 -0.048718 1.086561
endloop
endfacet
facet normal -0.571419 -0.809237 -0.136441
outer loop
vertex 0.013956 -0.041330 1.081495
vertex 0.023209 -0.048718 1.086561
vertex 0.018889 -0.047931 1.099986
endloop
endfacet
facet normal -0.252506 -0.964078 0.082422
outer loop
vertex 0.037869 -0.054026 1.086840
vertex 0.031462 -0.050837 1.104513
vertex 0.018889 -0.047931 1.099986
endloop
endfacet
facet normal -0.190742 -0.976809 -0.097276
outer loop
vertex 0.013178 -0.048187 1.113755
vertex 0.018889 -0.047931 1.099986
vertex 0.031462 -0.050837 1.104513
endloop
endfacet
facet normal 0.023406 -0.982320 0.185740
outer loop
vertex 0.031462 -0.050837 1.104513
vertex 0.037869 -0.054026 1.086840
vertex 0.051869 -0.051895 1.096346
endloop
endfacet
facet normal -0.340823 -0.939439 0.035981
outer loop
vertex 0.023209 -0.048718 1.086561
vertex 0.026896 -0.050525 1.074306
vertex 0.037869 -0.054026 1.086840
endloop
endfacet
facet normal -0.784552 -0.506292 -0.357976
outer loop
vertex 0.004920 -0.033153 1.078378
vertex -0.006429 -0.023342 1.089375
vertex -0.000629 -0.022764 1.075846
endloop
endfacet
facet normal 0.890089 -0.044645 0.453595
outer loop
vertex 0.110498 0.000000 1.088877
vertex 0.115634 -0.010403 1.077776
vertex 0.116604 0.000000 1.076896
endloop
endfacet
facet normal 0.889067 -0.047020 0.455356
outer loop
vertex 0.109287 -0.013235 1.089876
vertex 0.115634 -0.010403 1.077776
vertex 0.110498 0.000000 1.088877
endloop
endfacet
facet normal 0.898224 -0.046920 0.437026
outer loop
vertex 0.104103 0.000000 1.101952
vertex 0.109287 -0.013235 1.089876
vertex 0.109817 0.000000 1.090208
endloop
endfacet
facet normal 0.895367 -0.052754 0.442193
outer loop
vertex 0.103009 -0.011709 1.102770
vertex 0.109287 -0.013235 1.089876
vertex 0.104103 0.000000 1.101952
endloop
endfacet
facet normal 0.906089 -0.052772 0.419784
outer loop
vertex 0.098147 0.000000 1.114737
vertex 0.103009 -0.011709 1.102770
vertex 0.103571 0.000000 1.103029
endloop
endfacet
facet normal 0.898166 -0.070556 0.433959
outer loop
vertex 0.096972 -0.011461 1.115305
vertex 0.103009 -0.011709 1.102770
vertex 0.098147 0.000000 1.114737
endloop
endfacet
facet normal 0.910988 -0.069953 0.406456
outer loop
vertex 0.096972 -0.011461 1.115305
vertex 0.097607 0.000000 1.115853
vertex 0.097003 0.000000 1.117208
endloop
endfacet
facet normal 0.914210 -0.082947 0.396662
outer loop
vertex 0.091505 0.000000 1.129880
vertex 0.090588 -0.011005 1.129692
vertex 0.097003 0.000000 1.117208
endloop
endfacet
facet normal 0.868676 -0.299042 0.394938
outer loop
vertex 0.096972 -0.011461 1.115305
vertex 0.090588 -0.011005 1.129692
vertex 0.087238 -0.022510 1.128349
endloop
endfacet
facet normal 0.929312 -0.083572 0.359714
outer loop
vertex 0.090588 -0.011005 1.129692
vertex 0.091505 0.000000 1.129880
vertex 0.090983 0.000000 1.131228
endloop
endfacet
facet normal 0.877655 -0.299259 0.374388
outer loop
vertex 0.090588 -0.011005 1.129692
vertex 0.080442 -0.021900 1.144768
vertex 0.087238 -0.022510 1.128349
endloop
endfacet
facet normal 0.875210 -0.342945 0.341170
outer loop
vertex 0.090588 -0.011005 1.129692
vertex 0.084819 -0.010868 1.144629
vertex 0.080442 -0.021900 1.144768
endloop
endfacet
facet normal 0.872603 -0.341813 0.348897
outer loop
vertex 0.080442 -0.021900 1.144768
vertex 0.084819 -0.010868 1.144629
vertex 0.079423 -0.011131 1.157867
endloop
endfacet
facet normal 0.921562 -0.105942 0.373497
outer loop
vertex 0.084819 -0.010868 1.144629
vertex 0.086119 0.000000 1.144504
vertex 0.085670 0.000000 1.145613
endloop
endfacet
facet normal 0.933497 -0.107739 0.342017
outer loop
vertex 0.086119 0.000000 1.144504
vertex 0.084819 -0.010868 1.144629
vertex 0.090983 0.000000 1.131228
endloop
endfacet
facet normal 0.924970 -0.123356 0.359462
outer loop
vertex 0.080788 0.000000 1.158175
vertex 0.079423 -0.011131 1.157867
vertex 0.085670 0.000000 1.145613
endloop
endfacet
facet normal 0.928851 -0.123550 0.349243
outer loop
vertex 0.075975 0.000000 1.170976
vertex 0.079423 -0.011131 1.157867
vertex 0.080788 0.000000 1.158175
endloop
endfacet
facet normal 0.928147 -0.125257 0.350506
outer loop
vertex 0.074241 -0.012096 1.171244
vertex 0.079423 -0.011131 1.157867
vertex 0.075975 0.000000 1.170976
endloop
endfacet
facet normal 0.993798 -0.111199 -0.000973
outer loop
vertex 0.074241 -0.012096 1.171244
vertex 0.075595 0.000000 1.171980
vertex 0.075596 0.000000 1.172954
endloop
endfacet
facet normal 0.997005 -0.052908 0.056407
outer loop
vertex 0.074622 0.000000 1.190174
vertex 0.073994 -0.014444 1.187727
vertex 0.075596 0.000000 1.172954
endloop
endfacet
facet normal 0.875722 -0.367874 0.312697
outer loop
vertex 0.075294 -0.022184 1.156427
vertex 0.079423 -0.011131 1.157867
vertex 0.074241 -0.012096 1.171244
endloop
endfacet
facet normal 0.854203 -0.367073 0.368231
outer loop
vertex 0.080442 -0.021900 1.144768
vertex 0.079423 -0.011131 1.157867
vertex 0.075294 -0.022184 1.156427
endloop
endfacet
facet normal 0.867573 -0.275692 0.413898
outer loop
vertex 0.096972 -0.011461 1.115305
vertex 0.087238 -0.022510 1.128349
vertex 0.094439 -0.023852 1.112361
endloop
endfacet
facet normal 0.732317 -0.566807 0.377413
outer loop
vertex 0.087238 -0.022510 1.128349
vertex 0.086482 -0.035283 1.110633
vertex 0.094439 -0.023852 1.112361
endloop
endfacet
facet normal 0.718245 -0.578572 0.386495
outer loop
vertex 0.087238 -0.022510 1.128349
vertex 0.079250 -0.033719 1.126414
vertex 0.086482 -0.035283 1.110633
endloop
endfacet
facet normal 0.741411 -0.585085 0.328613
outer loop
vertex 0.080442 -0.021900 1.144768
vertex 0.079250 -0.033719 1.126414
vertex 0.087238 -0.022510 1.128349
endloop
endfacet
facet normal 0.512960 -0.824460 0.239035
outer loop
vertex 0.061433 -0.041330 1.138397
vertex 0.068608 -0.041314 1.123055
vertex 0.079250 -0.033719 1.126414
endloop
endfacet
facet normal 0.522901 -0.811009 0.262371
outer loop
vertex 0.061433 -0.041330 1.138397
vertex 0.079250 -0.033719 1.126414
vertex 0.072064 -0.033210 1.142309
endloop
endfacet
facet normal 0.717309 -0.606085 0.343700
outer loop
vertex 0.080442 -0.021900 1.144768
vertex 0.072064 -0.033210 1.142309
vertex 0.079250 -0.033719 1.126414
endloop
endfacet
facet normal 0.480067 -0.823741 0.301641
outer loop
vertex 0.075717 -0.042262 1.108707
vertex 0.086482 -0.035283 1.110633
vertex 0.079250 -0.033719 1.126414
endloop
endfacet
facet normal 0.490717 -0.819047 0.297251
outer loop
vertex 0.075717 -0.042262 1.108707
vertex 0.079250 -0.033719 1.126414
vertex 0.068608 -0.041314 1.123055
endloop
endfacet
facet normal 0.856510 -0.278358 0.434634
outer loop
vertex 0.101233 -0.026268 1.097425
vertex 0.096972 -0.011461 1.115305
vertex 0.094439 -0.023852 1.112361
endloop
endfacet
facet normal 0.867662 -0.261154 0.423039
outer loop
vertex 0.101233 -0.026268 1.097425
vertex 0.103009 -0.011709 1.102770
vertex 0.096972 -0.011461 1.115305
endloop
endfacet
facet normal 0.853254 -0.268269 0.447202
outer loop
vertex 0.109287 -0.013235 1.089876
vertex 0.103009 -0.011709 1.102770
vertex 0.101233 -0.026268 1.097425
endloop
endfacet
facet normal 0.889958 -0.139647 0.434135
outer loop
vertex 0.109287 -0.013235 1.089876
vertex 0.112683 -0.021344 1.080306
vertex 0.115634 -0.010403 1.077776
endloop
endfacet
facet normal 0.838066 -0.231854 0.493850
outer loop
vertex 0.101233 -0.026268 1.097425
vertex 0.112683 -0.021344 1.080306
vertex 0.109287 -0.013235 1.089876
endloop
endfacet
facet normal 0.468274 -0.815907 0.339138
outer loop
vertex 0.086482 -0.035283 1.110633
vertex 0.075717 -0.042262 1.108707
vertex 0.080733 -0.044386 1.096671
endloop
endfacet
facet normal 0.341699 -0.929969 0.135642
outer loop
vertex 0.068608 -0.041314 1.123055
vertex 0.050019 -0.046813 1.132181
vertex 0.057345 -0.046416 1.116448
endloop
endfacet
facet normal 0.353063 -0.921085 0.164159
outer loop
vertex 0.068608 -0.041314 1.123055
vertex 0.061433 -0.041330 1.138397
vertex 0.050019 -0.046813 1.132181
endloop
endfacet
facet normal 0.329936 -0.943997 0.003294
outer loop
vertex 0.050019 -0.046813 1.132181
vertex 0.043189 -0.049145 1.147990
vertex 0.031687 -0.053192 1.140283
endloop
endfacet
facet normal 0.412921 -0.909693 0.044205
outer loop
vertex 0.043189 -0.049145 1.147990
vertex 0.050019 -0.046813 1.132181
vertex 0.061433 -0.041330 1.138397
endloop
endfacet
facet normal 0.285078 -0.929997 -0.232028
outer loop
vertex 0.043189 -0.049145 1.147990
vertex 0.038029 -0.054781 1.164240
vertex 0.025729 -0.056249 1.155012
endloop
endfacet
facet normal 0.359882 -0.931772 -0.047813
outer loop
vertex 0.043189 -0.049145 1.147990
vertex 0.025729 -0.056249 1.155012
vertex 0.031687 -0.053192 1.140283
endloop
endfacet
facet normal -0.446884 -0.051215 0.893125
outer loop
vertex 0.010777 -0.055661 1.145425
vertex -0.039608 0.000000 1.123406
vertex -0.011789 -0.047828 1.134583
endloop
endfacet
facet normal -0.332812 -0.238401 0.912360
outer loop
vertex 0.073994 -0.014444 1.187727
vertex 0.062429 -0.040420 1.176720
vertex 0.070224 -0.028874 1.182581
endloop
endfacet
facet normal -0.299843 -0.255929 0.919019
outer loop
vertex 0.062429 -0.040420 1.176720
vertex 0.073994 -0.014444 1.187727
vertex 0.051236 -0.049197 1.170624
endloop
endfacet
facet normal -0.360332 -0.191511 0.912954
outer loop
vertex 0.051236 -0.049197 1.170624
vertex 0.074622 0.000000 1.190174
vertex 0.038029 -0.054781 1.164240
endloop
endfacet
facet normal -0.601799 0.024058 0.798285
outer loop
vertex 0.038029 -0.054781 1.164240
vertex 0.074622 0.000000 1.190174
vertex 0.025729 -0.056249 1.155012
endloop
endfacet
facet normal -0.537345 -0.158736 0.828290
outer loop
vertex 0.025729 -0.056249 1.155012
vertex -0.039608 0.000000 1.123406
vertex 0.010777 -0.055661 1.145425
endloop
endfacet
facet normal -0.502068 -0.100542 0.858964
outer loop
vertex 0.074622 0.000000 1.190174
vertex -0.039608 0.000000 1.123406
vertex 0.025729 -0.056249 1.155012
endloop
endfacet
facet normal -0.470313 -0.151598 0.869381
outer loop
vertex 0.010777 -0.055661 1.145425
vertex -0.011789 -0.047828 1.134583
vertex -0.000796 -0.053173 1.139598
endloop
endfacet
facet normal -0.409614 -0.029486 0.911782
outer loop
vertex -0.011789 -0.047828 1.134583
vertex -0.037744 -0.012260 1.124074
vertex -0.021811 -0.040344 1.130323
endloop
endfacet
facet normal -0.385202 -0.013257 0.922737
outer loop
vertex -0.021811 -0.040344 1.130323
vertex -0.037744 -0.012260 1.124074
vertex -0.030895 -0.030329 1.126674
endloop
endfacet
facet normal -0.474338 -0.053267 0.878730
outer loop
vertex -0.030895 -0.030329 1.126674
vertex -0.037744 -0.012260 1.124074
vertex -0.035251 -0.021862 1.124837
endloop
endfacet
facet normal -0.384975 -0.008253 0.922890
outer loop
vertex -0.037744 -0.012260 1.124074
vertex -0.011789 -0.047828 1.134583
vertex -0.039608 0.000000 1.123406
endloop
endfacet
facet normal -0.462917 -0.128475 0.877042
outer loop
vertex 0.074622 0.000000 1.190174
vertex 0.051236 -0.049197 1.170624
vertex 0.073994 -0.014444 1.187727
endloop
endfacet
facet normal 0.286199 -0.533184 -0.796119
outer loop
vertex 0.007431 -0.021400 1.046243
vertex 0.115634 -0.010403 1.077776
vertex 0.019228 -0.042016 1.064291
endloop
endfacet
facet normal 0.275167 -0.803535 -0.527840
outer loop
vertex 0.051869 -0.051895 1.096346
vertex 0.019228 -0.042016 1.064291
vertex 0.066327 -0.048485 1.098692
endloop
endfacet
facet normal 0.191288 -0.883306 -0.427995
outer loop
vertex 0.066327 -0.048485 1.098692
vertex 0.019228 -0.042016 1.064291
vertex 0.080733 -0.044386 1.096671
endloop
endfacet
facet normal -0.207468 -0.358713 -0.910100
outer loop
vertex 0.080733 -0.044386 1.096671
vertex 0.112683 -0.021344 1.080306
vertex 0.094078 -0.039431 1.091676
endloop
endfacet
facet normal -0.327205 -0.238251 -0.914425
outer loop
vertex 0.094078 -0.039431 1.091676
vertex 0.112683 -0.021344 1.080306
vertex 0.105377 -0.031529 1.085574
endloop
endfacet
facet normal 0.221329 -0.275993 -0.935330
outer loop
vertex 0.112683 -0.021344 1.080306
vertex 0.019228 -0.042016 1.064291
vertex 0.115634 -0.010403 1.077776
endloop
endfacet
facet normal 0.269368 -0.777299 -0.568549
outer loop
vertex 0.080733 -0.044386 1.096671
vertex 0.019228 -0.042016 1.064291
vertex 0.112683 -0.021344 1.080306
endloop
endfacet
facet normal 0.295628 -0.107839 -0.949197
outer loop
vertex 0.115634 -0.010403 1.077776
vertex 0.004844 0.000000 1.042088
vertex 0.116604 0.000000 1.076896
endloop
endfacet
facet normal 0.299896 -0.069963 -0.951403
outer loop
vertex 0.004844 0.000000 1.042088
vertex 0.115634 -0.010403 1.077776
vertex 0.005517 -0.010723 1.043089
endloop
endfacet
facet normal 0.293534 -0.222038 -0.929805
outer loop
vertex 0.005517 -0.010723 1.043089
vertex 0.115634 -0.010403 1.077776
vertex 0.007431 -0.021400 1.046243
endloop
endfacet
facet normal 0.796519 -0.069957 -0.600553
outer loop
vertex 0.007431 -0.021400 1.046243
vertex 0.019228 -0.042016 1.064291
vertex 0.012124 -0.033605 1.053889
endloop
endfacet
facet normal 0.624007 -0.291162 -0.725149
outer loop
vertex 0.019228 -0.042016 1.064291
vertex 0.051869 -0.051895 1.096346
vertex 0.026896 -0.050525 1.074306
endloop
endfacet
facet normal 0.508737 -0.603523 -0.613960
outer loop
vertex 0.026896 -0.050525 1.074306
vertex 0.051869 -0.051895 1.096346
vertex 0.037869 -0.054026 1.086840
endloop
endfacet
facet normal -0.945982 -0.067355 -0.317144
outer loop
vertex 0.001136 0.000000 1.059805
vertex 0.001879 -0.011001 1.059924
vertex -0.002998 -0.011339 1.074543
endloop
endfacet
facet normal -0.975252 -0.063452 -0.211796
outer loop
vertex 0.001879 -0.011001 1.059924
vertex 0.001407 0.000000 1.058801
vertex 0.005517 -0.010723 1.043089
endloop
endfacet
facet normal -0.911129 -0.043255 -0.409844
outer loop
vertex -0.003578 0.000000 1.074636
vertex -0.002998 -0.011339 1.074543
vertex -0.009123 -0.011732 1.088201
endloop
endfacet
facet normal -0.866032 -0.029953 -0.499090
outer loop
vertex -0.009632 0.000000 1.088380
vertex -0.009123 -0.011732 1.088201
vertex -0.016657 -0.012312 1.101309
endloop
endfacet
facet normal -0.810477 -0.037467 -0.584571
outer loop
vertex -0.025767 -0.013427 1.114011
vertex -0.026270 0.000000 1.113848
vertex -0.016657 -0.012312 1.101309
endloop
endfacet
facet normal -0.575317 -0.132057 -0.807200
outer loop
vertex -0.037744 -0.012260 1.124074
vertex -0.033620 0.000000 1.119129
vertex -0.026386 0.000000 1.113973
endloop
endfacet
facet normal -0.643979 -0.031946 -0.764376
outer loop
vertex -0.025767 -0.013427 1.114011
vertex -0.026386 0.000000 1.113973
vertex -0.026320 0.000000 1.113917
endloop
endfacet
facet normal 0.889048 -0.047014 0.455393
outer loop
vertex 0.109287 -0.013235 1.089876
vertex 0.110498 0.000000 1.088877
vertex 0.109817 0.000000 1.090208
endloop
endfacet
facet normal 0.895385 -0.052750 0.442157
outer loop
vertex 0.103009 -0.011709 1.102770
vertex 0.104103 0.000000 1.101952
vertex 0.103571 0.000000 1.103029
endloop
endfacet
facet normal 0.898144 -0.070561 0.434004
outer loop
vertex 0.096972 -0.011461 1.115305
vertex 0.098147 0.000000 1.114737
vertex 0.097607 0.000000 1.115853
endloop
endfacet
facet normal 0.910990 -0.069952 0.406453
outer loop
vertex 0.096972 -0.011461 1.115305
vertex 0.097003 0.000000 1.117208
vertex 0.090588 -0.011005 1.129692
endloop
endfacet
facet normal 0.929323 -0.083569 0.359688
outer loop
vertex 0.090588 -0.011005 1.129692
vertex 0.090983 0.000000 1.131228
vertex 0.084819 -0.010868 1.144629
endloop
endfacet
facet normal 0.921546 -0.105948 0.373535
outer loop
vertex 0.084819 -0.010868 1.144629
vertex 0.085670 0.000000 1.145613
vertex 0.079423 -0.011131 1.157867
endloop
endfacet
facet normal 0.928130 -0.125252 0.350551
outer loop
vertex 0.074241 -0.012096 1.171244
vertex 0.075975 0.000000 1.170976
vertex 0.075595 0.000000 1.171980
endloop
endfacet
facet normal 0.993796 -0.111214 -0.000950
outer loop
vertex 0.074241 -0.012096 1.171244
vertex 0.075596 0.000000 1.172954
vertex 0.073994 -0.014444 1.187727
endloop
endfacet
endsolid Exported from Blender-4.0.2
