solid Exported from Blender-4.0.2
facet normal 0.550199 0.787629 0.277349
outer loop
vertex 0.302534 0.200114 0.099051
vertex 0.313794 0.192268 0.098995
vertex 0.318231 0.194747 0.083153
endloop
endfacet
facet normal 0.493534 0.846019 0.201682
outer loop
vertex 0.302534 0.200114 0.099051
vertex 0.318231 0.194747 0.083153
vertex 0.303353 0.203856 0.081350
endloop
endfacet
facet normal 0.379822 0.901345 0.208119
outer loop
vertex 0.303353 0.203856 0.081350
vertex 0.289889 0.205449 0.099023
vertex 0.302534 0.200114 0.099051
endloop
endfacet
facet normal 0.134781 0.990610 0.022943
outer loop
vertex 0.272664 0.208106 0.085491
vertex 0.275743 0.207365 0.099398
vertex 0.289889 0.205449 0.099023
endloop
endfacet
facet normal 0.051696 0.990342 0.128647
outer loop
vertex 0.272664 0.208106 0.085491
vertex 0.289889 0.205449 0.099023
vertex 0.287579 0.207571 0.083616
endloop
endfacet
facet normal 0.241320 0.965605 0.096811
outer loop
vertex 0.303353 0.203856 0.081350
vertex 0.287579 0.207571 0.083616
vertex 0.289889 0.205449 0.099023
endloop
endfacet
facet normal 0.252206 0.945642 0.205312
outer loop
vertex 0.296915 0.208795 0.066510
vertex 0.287579 0.207571 0.083616
vertex 0.303353 0.203856 0.081350
endloop
endfacet
facet normal 0.096853 0.987604 0.123526
outer loop
vertex 0.296915 0.208795 0.066510
vertex 0.283794 0.209864 0.068251
vertex 0.287579 0.207571 0.083616
endloop
endfacet
facet normal 0.052433 0.989491 0.134752
outer loop
vertex 0.272664 0.208106 0.085491
vertex 0.287579 0.207571 0.083616
vertex 0.283794 0.209864 0.068251
endloop
endfacet
facet normal -0.099575 0.973744 0.204715
outer loop
vertex 0.264056 0.211112 0.052714
vertex 0.283794 0.209864 0.068251
vertex 0.281701 0.213081 0.051931
endloop
endfacet
facet normal -0.056689 0.986864 0.151283
outer loop
vertex 0.264056 0.211112 0.052714
vertex 0.269176 0.208670 0.070562
vertex 0.283794 0.209864 0.068251
endloop
endfacet
facet normal -0.072708 0.995857 0.054613
outer loop
vertex 0.272664 0.208106 0.085491
vertex 0.283794 0.209864 0.068251
vertex 0.269176 0.208670 0.070562
endloop
endfacet
facet normal 0.103530 0.978284 0.179561
outer loop
vertex 0.296915 0.208795 0.066510
vertex 0.281701 0.213081 0.051931
vertex 0.283794 0.209864 0.068251
endloop
endfacet
facet normal -0.090947 0.942687 0.321045
outer loop
vertex 0.281701 0.213081 0.051931
vertex 0.267526 0.217408 0.035210
vertex 0.264056 0.211112 0.052714
endloop
endfacet
facet normal 0.066496 0.962798 0.261911
outer loop
vertex 0.297425 0.216579 0.035080
vertex 0.282498 0.217552 0.035293
vertex 0.281701 0.213081 0.051931
endloop
endfacet
facet normal -0.010725 0.965812 0.259023
outer loop
vertex 0.281701 0.213081 0.051931
vertex 0.282498 0.217552 0.035293
vertex 0.267526 0.217408 0.035210
endloop
endfacet
facet normal 0.053865 0.966514 0.250895
outer loop
vertex 0.297425 0.216579 0.035080
vertex 0.281701 0.213081 0.051931
vertex 0.296709 0.212398 0.051340
endloop
endfacet
facet normal 0.053282 0.971715 0.230068
outer loop
vertex 0.296915 0.208795 0.066510
vertex 0.296709 0.212398 0.051340
vertex 0.281701 0.213081 0.051931
endloop
endfacet
facet normal 0.203948 0.945936 0.252212
outer loop
vertex 0.310781 0.209404 0.051190
vertex 0.297425 0.216579 0.035080
vertex 0.296709 0.212398 0.051340
endloop
endfacet
facet normal 0.205119 0.952869 0.223532
outer loop
vertex 0.296915 0.208795 0.066510
vertex 0.310781 0.209404 0.051190
vertex 0.296709 0.212398 0.051340
endloop
endfacet
facet normal 0.412863 0.869958 0.269661
outer loop
vertex 0.325599 0.207254 0.035439
vertex 0.310781 0.209404 0.051190
vertex 0.323637 0.203203 0.051512
endloop
endfacet
facet normal 0.400034 0.879956 0.256225
outer loop
vertex 0.325599 0.207254 0.035439
vertex 0.312074 0.213579 0.034833
vertex 0.310781 0.209404 0.051190
endloop
endfacet
facet normal 0.198044 0.945879 0.257083
outer loop
vertex 0.310781 0.209404 0.051190
vertex 0.312074 0.213579 0.034833
vertex 0.297425 0.216579 0.035080
endloop
endfacet
facet normal 0.415200 0.873922 0.252724
outer loop
vertex 0.323637 0.203203 0.051512
vertex 0.310781 0.209404 0.051190
vertex 0.309709 0.205590 0.066140
endloop
endfacet
facet normal 0.241857 0.935903 0.256107
outer loop
vertex 0.296915 0.208795 0.066510
vertex 0.309709 0.205590 0.066140
vertex 0.310781 0.209404 0.051190
endloop
endfacet
facet normal 0.435095 0.857573 0.274337
outer loop
vertex 0.323637 0.203203 0.051512
vertex 0.309709 0.205590 0.066140
vertex 0.321654 0.199260 0.066983
endloop
endfacet
facet normal 0.434189 0.856500 0.279082
outer loop
vertex 0.303353 0.203856 0.081350
vertex 0.321654 0.199260 0.066983
vertex 0.309709 0.205590 0.066140
endloop
endfacet
facet normal 0.243300 0.947026 0.209636
outer loop
vertex 0.296915 0.208795 0.066510
vertex 0.303353 0.203856 0.081350
vertex 0.309709 0.205590 0.066140
endloop
endfacet
facet normal 0.734057 0.629578 0.254544
outer loop
vertex 0.321654 0.199260 0.066983
vertex 0.333016 0.192559 0.050791
vertex 0.323637 0.203203 0.051512
endloop
endfacet
facet normal 0.791465 0.524443 0.313915
outer loop
vertex 0.327508 0.184320 0.077183
vertex 0.321654 0.199260 0.066983
vertex 0.318231 0.194747 0.083153
endloop
endfacet
facet normal 0.703575 0.567598 0.427567
outer loop
vertex 0.327508 0.184320 0.077183
vertex 0.330791 0.189003 0.065564
vertex 0.321654 0.199260 0.066983
endloop
endfacet
facet normal 0.464067 0.822874 0.327902
outer loop
vertex 0.303353 0.203856 0.081350
vertex 0.318231 0.194747 0.083153
vertex 0.321654 0.199260 0.066983
endloop
endfacet
facet normal 0.738483 0.621756 0.260887
outer loop
vertex 0.321654 0.199260 0.066983
vertex 0.330791 0.189003 0.065564
vertex 0.333016 0.192559 0.050791
endloop
endfacet
facet normal 0.919648 0.197523 0.339459
outer loop
vertex 0.334562 0.176649 0.062536
vertex 0.330791 0.189003 0.065564
vertex 0.327508 0.184320 0.077183
endloop
endfacet
facet normal 0.940193 0.224114 0.256533
outer loop
vertex 0.337606 0.179270 0.049090
vertex 0.330791 0.189003 0.065564
vertex 0.334562 0.176649 0.062536
endloop
endfacet
facet normal 0.931893 0.294818 0.211324
outer loop
vertex 0.337606 0.179270 0.049090
vertex 0.333016 0.192559 0.050791
vertex 0.330791 0.189003 0.065564
endloop
endfacet
facet normal 0.946020 -0.282354 0.159128
outer loop
vertex 0.334562 0.176649 0.062536
vertex 0.334031 0.166303 0.047335
vertex 0.337606 0.179270 0.049090
endloop
endfacet
facet normal 0.931731 0.294649 0.212274
outer loop
vertex 0.340381 0.181318 0.034067
vertex 0.333016 0.192559 0.050791
vertex 0.337606 0.179270 0.049090
endloop
endfacet
facet normal 0.951071 -0.276446 0.137991
outer loop
vertex 0.337606 0.179270 0.049090
vertex 0.336791 0.168442 0.033015
vertex 0.340381 0.181318 0.034067
endloop
endfacet
facet normal 0.949342 -0.280820 0.141028
outer loop
vertex 0.337606 0.179270 0.049090
vertex 0.334031 0.166303 0.047335
vertex 0.336791 0.168442 0.033015
endloop
endfacet
facet normal 0.962809 -0.269725 0.015702
outer loop
vertex 0.337121 0.168720 0.017556
vertex 0.340381 0.181318 0.034067
vertex 0.336791 0.168442 0.033015
endloop
endfacet
facet normal 0.922526 0.343932 0.175093
outer loop
vertex 0.340381 0.181318 0.034067
vertex 0.334763 0.195960 0.034906
vertex 0.333016 0.192559 0.050791
endloop
endfacet
facet normal 0.933323 0.358822 -0.012469
outer loop
vertex 0.334763 0.195960 0.034906
vertex 0.340381 0.181318 0.034067
vertex 0.339564 0.182904 0.018554
endloop
endfacet
facet normal 0.983961 -0.164641 -0.068654
outer loop
vertex 0.337121 0.168720 0.017556
vertex 0.339564 0.182904 0.018554
vertex 0.340381 0.181318 0.034067
endloop
endfacet
facet normal 0.984235 -0.172319 0.039853
outer loop
vertex 0.337900 0.169583 0.002049
vertex 0.339564 0.182904 0.018554
vertex 0.337121 0.168720 0.017556
endloop
endfacet
facet normal 0.987507 -0.155436 0.025891
outer loop
vertex 0.337900 0.169583 0.002049
vertex 0.340161 0.184114 0.003048
vertex 0.339564 0.182904 0.018554
endloop
endfacet
facet normal 0.969381 0.239097 0.055980
outer loop
vertex 0.335951 0.197282 0.019708
vertex 0.339564 0.182904 0.018554
vertex 0.340161 0.184114 0.003048
endloop
endfacet
facet normal 0.967158 0.235320 0.096071
outer loop
vertex 0.334763 0.195960 0.034906
vertex 0.339564 0.182904 0.018554
vertex 0.335951 0.197282 0.019708
endloop
endfacet
facet normal 0.975824 0.199739 0.088719
outer loop
vertex 0.335951 0.197282 0.019708
vertex 0.340161 0.184114 0.003048
vertex 0.337112 0.198487 0.004225
endloop
endfacet
facet normal 0.826630 0.552862 0.105011
outer loop
vertex 0.337112 0.198487 0.004225
vertex 0.327764 0.209371 0.020509
vertex 0.335951 0.197282 0.019708
endloop
endfacet
facet normal 0.818002 0.541033 0.195333
outer loop
vertex 0.335951 0.197282 0.019708
vertex 0.327764 0.209371 0.020509
vertex 0.325599 0.207254 0.035439
endloop
endfacet
facet normal 0.774049 0.622654 0.114669
outer loop
vertex 0.335951 0.197282 0.019708
vertex 0.325599 0.207254 0.035439
vertex 0.334763 0.195960 0.034906
endloop
endfacet
facet normal 0.838994 0.528830 0.128171
outer loop
vertex 0.337112 0.198487 0.004225
vertex 0.329146 0.210835 0.005422
vertex 0.327764 0.209371 0.020509
endloop
endfacet
facet normal 0.113432 0.981287 0.155591
outer loop
vertex 0.313427 0.210998 0.020700
vertex 0.325599 0.207254 0.035439
vertex 0.327764 0.209371 0.020509
endloop
endfacet
facet normal 0.024812 0.994798 0.098802
outer loop
vertex 0.327764 0.209371 0.020509
vertex 0.329146 0.210835 0.005422
vertex 0.314886 0.211140 0.005932
endloop
endfacet
facet normal 0.113007 0.993378 0.020717
outer loop
vertex 0.327764 0.209371 0.020509
vertex 0.314886 0.211140 0.005932
vertex 0.313427 0.210998 0.020700
endloop
endfacet
facet normal -0.034175 0.069503 -0.996996
outer loop
vertex 0.300986 0.198266 0.005511
vertex 0.300626 0.211444 0.006442
vertex 0.314886 0.211140 0.005932
endloop
endfacet
facet normal 0.021732 0.999695 0.011762
outer loop
vertex 0.313427 0.210998 0.020700
vertex 0.314886 0.211140 0.005932
vertex 0.300626 0.211444 0.006442
endloop
endfacet
facet normal -0.034961 0.070347 -0.996910
outer loop
vertex 0.300986 0.198266 0.005511
vertex 0.314886 0.211140 0.005932
vertex 0.315012 0.197995 0.005000
endloop
endfacet
facet normal -0.036667 0.070327 -0.996850
outer loop
vertex 0.326860 0.197737 0.004546
vertex 0.315012 0.197995 0.005000
vertex 0.314886 0.211140 0.005932
endloop
endfacet
facet normal -0.034096 0.072615 -0.996777
outer loop
vertex 0.326860 0.197737 0.004546
vertex 0.314886 0.211140 0.005932
vertex 0.329146 0.210835 0.005422
endloop
endfacet
facet normal -0.036590 0.073426 -0.996629
outer loop
vertex 0.327979 0.184097 0.003500
vertex 0.315012 0.197995 0.005000
vertex 0.326860 0.197737 0.004546
endloop
endfacet
facet normal -0.037081 0.073385 -0.996614
outer loop
vertex 0.326860 0.197737 0.004546
vertex 0.340161 0.184114 0.003048
vertex 0.327979 0.184097 0.003500
endloop
endfacet
facet normal -0.036607 0.073845 -0.996598
outer loop
vertex 0.326860 0.197737 0.004546
vertex 0.337112 0.198487 0.004225
vertex 0.340161 0.184114 0.003048
endloop
endfacet
facet normal -0.036549 0.073036 -0.996659
outer loop
vertex 0.329146 0.210835 0.005422
vertex 0.337112 0.198487 0.004225
vertex 0.326860 0.197737 0.004546
endloop
endfacet
facet normal -0.036837 0.074447 -0.996544
outer loop
vertex 0.327979 0.184097 0.003500
vertex 0.337900 0.169583 0.002049
vertex 0.326738 0.170927 0.002562
endloop
endfacet
facet normal -0.037080 0.074282 -0.996548
outer loop
vertex 0.327979 0.184097 0.003500
vertex 0.340161 0.184114 0.003048
vertex 0.337900 0.169583 0.002049
endloop
endfacet
facet normal -0.036919 0.073121 -0.996640
outer loop
vertex 0.327979 0.184097 0.003500
vertex 0.314783 0.184372 0.004009
vertex 0.315012 0.197995 0.005000
endloop
endfacet
facet normal -0.036887 0.074452 -0.996542
outer loop
vertex 0.326738 0.170927 0.002562
vertex 0.314783 0.184372 0.004009
vertex 0.327979 0.184097 0.003500
endloop
endfacet
facet normal -0.036796 0.074776 -0.996521
outer loop
vertex 0.326738 0.170927 0.002562
vertex 0.337900 0.169583 0.002049
vertex 0.330625 0.156781 0.001357
endloop
endfacet
facet normal -0.037366 0.074618 -0.996512
outer loop
vertex 0.330625 0.156781 0.001357
vertex 0.313630 0.170533 0.003024
vertex 0.326738 0.170927 0.002562
endloop
endfacet
facet normal -0.037350 0.074042 -0.996555
outer loop
vertex 0.326738 0.170927 0.002562
vertex 0.313630 0.170533 0.003024
vertex 0.314783 0.184372 0.004009
endloop
endfacet
facet normal -0.036392 0.073943 -0.996598
outer loop
vertex 0.313630 0.170533 0.003024
vertex 0.297004 0.155773 0.002536
vertex 0.299116 0.170843 0.003577
endloop
endfacet
facet normal -0.037035 0.074664 -0.996521
outer loop
vertex 0.313630 0.170533 0.003024
vertex 0.313813 0.156276 0.001949
vertex 0.297004 0.155773 0.002536
endloop
endfacet
facet normal -0.037333 0.074660 -0.996510
outer loop
vertex 0.330625 0.156781 0.001357
vertex 0.313813 0.156276 0.001949
vertex 0.313630 0.170533 0.003024
endloop
endfacet
facet normal -0.036392 0.073965 -0.996597
outer loop
vertex 0.299116 0.170843 0.003577
vertex 0.314783 0.184372 0.004009
vertex 0.313630 0.170533 0.003024
endloop
endfacet
facet normal -0.035570 0.073830 -0.996636
outer loop
vertex 0.281954 0.171835 0.004263
vertex 0.299116 0.170843 0.003577
vertex 0.297004 0.155773 0.002536
endloop
endfacet
facet normal -0.035574 0.073770 -0.996641
outer loop
vertex 0.287856 0.185881 0.005092
vertex 0.299116 0.170843 0.003577
vertex 0.281954 0.171835 0.004263
endloop
endfacet
facet normal -0.035526 0.073806 -0.996640
outer loop
vertex 0.287856 0.185881 0.005092
vertex 0.301634 0.185086 0.004542
vertex 0.299116 0.170843 0.003577
endloop
endfacet
facet normal -0.036382 0.073955 -0.996598
outer loop
vertex 0.299116 0.170843 0.003577
vertex 0.301634 0.185086 0.004542
vertex 0.314783 0.184372 0.004009
endloop
endfacet
facet normal -0.035663 0.071531 -0.996801
outer loop
vertex 0.300986 0.198266 0.005511
vertex 0.301634 0.185086 0.004542
vertex 0.287856 0.185881 0.005092
endloop
endfacet
facet normal -0.036430 0.073113 -0.996658
outer loop
vertex 0.315012 0.197995 0.005000
vertex 0.314783 0.184372 0.004009
vertex 0.301634 0.185086 0.004542
endloop
endfacet
facet normal -0.034934 0.071570 -0.996824
outer loop
vertex 0.315012 0.197995 0.005000
vertex 0.301634 0.185086 0.004542
vertex 0.300986 0.198266 0.005511
endloop
endfacet
facet normal -0.034809 0.070294 -0.996919
outer loop
vertex 0.287918 0.198775 0.005999
vertex 0.287856 0.185881 0.005092
vertex 0.274886 0.185500 0.005518
endloop
endfacet
facet normal -0.034895 0.073488 -0.996685
outer loop
vertex 0.281954 0.171835 0.004263
vertex 0.274886 0.185500 0.005518
vertex 0.287856 0.185881 0.005092
endloop
endfacet
facet normal -0.034491 0.070293 -0.996930
outer loop
vertex 0.300986 0.198266 0.005511
vertex 0.287856 0.185881 0.005092
vertex 0.287918 0.198775 0.005999
endloop
endfacet
facet normal -0.034524 0.069492 -0.996985
outer loop
vertex 0.287918 0.198775 0.005999
vertex 0.300626 0.211444 0.006442
vertex 0.300986 0.198266 0.005511
endloop
endfacet
facet normal -0.035460 0.070428 -0.996886
outer loop
vertex 0.287918 0.198775 0.005999
vertex 0.286364 0.211751 0.006971
vertex 0.300626 0.211444 0.006442
endloop
endfacet
facet normal -0.035815 0.071278 -0.996813
outer loop
vertex 0.287918 0.198775 0.005999
vertex 0.274886 0.185500 0.005518
vertex 0.272904 0.198475 0.006517
endloop
endfacet
facet normal -0.035800 0.070386 -0.996877
outer loop
vertex 0.272904 0.198475 0.006517
vertex 0.286364 0.211751 0.006971
vertex 0.287918 0.198775 0.005999
endloop
endfacet
facet normal -0.035725 0.068678 -0.996999
outer loop
vertex 0.272904 0.198475 0.006517
vertex 0.260611 0.183588 0.005932
vertex 0.259219 0.197976 0.006973
endloop
endfacet
facet normal -0.038401 0.070878 -0.996745
outer loop
vertex 0.272904 0.198475 0.006517
vertex 0.274886 0.185500 0.005518
vertex 0.260611 0.183588 0.005932
endloop
endfacet
facet normal -0.035608 0.070192 -0.996898
outer loop
vertex 0.272904 0.198475 0.006517
vertex 0.272101 0.212057 0.007502
vertex 0.286364 0.211751 0.006971
endloop
endfacet
facet normal -0.035776 0.070182 -0.996892
outer loop
vertex 0.259219 0.197976 0.006973
vertex 0.272101 0.212057 0.007502
vertex 0.272904 0.198475 0.006517
endloop
endfacet
facet normal -0.989144 -0.087139 -0.118329
outer loop
vertex 0.259219 0.197976 0.006973
vertex 0.260611 0.183588 0.005932
vertex 0.259299 0.182324 0.017830
endloop
endfacet
facet normal -0.989160 -0.086200 -0.118879
outer loop
vertex 0.257994 0.196776 0.018036
vertex 0.257838 0.212362 0.008032
vertex 0.259219 0.197976 0.006973
endloop
endfacet
facet normal -0.989019 -0.087612 -0.119016
outer loop
vertex 0.259219 0.197976 0.006973
vertex 0.259299 0.182324 0.017830
vertex 0.257994 0.196776 0.018036
endloop
endfacet
facet normal -0.035548 0.069974 -0.996915
outer loop
vertex 0.259219 0.197976 0.006973
vertex 0.257838 0.212362 0.008032
vertex 0.272101 0.212057 0.007502
endloop
endfacet
facet normal 0.024739 0.995364 0.092944
outer loop
vertex 0.272101 0.212057 0.007502
vertex 0.257838 0.212362 0.008032
vertex 0.256210 0.211446 0.018275
endloop
endfacet
facet normal -0.979227 -0.116379 -0.166045
outer loop
vertex 0.257994 0.196776 0.018036
vertex 0.256210 0.211446 0.018275
vertex 0.257838 0.212362 0.008032
endloop
endfacet
facet normal -0.121808 0.984800 -0.123822
outer loop
vertex 0.272101 0.212057 0.007502
vertex 0.256210 0.211446 0.018275
vertex 0.267537 0.213528 0.023691
endloop
endfacet
facet normal -0.025224 0.949646 -0.312309
outer loop
vertex 0.267537 0.213528 0.023691
vertex 0.256210 0.211446 0.018275
vertex 0.252403 0.216342 0.033470
endloop
endfacet
facet normal -0.047340 0.027955 -0.998488
outer loop
vertex 0.242478 0.196907 0.018519
vertex 0.240880 0.210988 0.018989
vertex 0.256210 0.211446 0.018275
endloop
endfacet
facet normal -0.043791 0.940517 -0.336911
outer loop
vertex 0.238902 0.214405 0.028785
vertex 0.256210 0.211446 0.018275
vertex 0.240880 0.210988 0.018989
endloop
endfacet
facet normal -0.027654 0.949404 -0.312836
outer loop
vertex 0.238902 0.214405 0.028785
vertex 0.252403 0.216342 0.033470
vertex 0.256210 0.211446 0.018275
endloop
endfacet
facet normal -0.031006 0.012512 -0.999441
outer loop
vertex 0.242478 0.196907 0.018519
vertex 0.256210 0.211446 0.018275
vertex 0.257994 0.196776 0.018036
endloop
endfacet
facet normal -0.077024 0.971117 -0.225830
outer loop
vertex 0.222966 0.215004 0.036796
vertex 0.238902 0.214405 0.028785
vertex 0.225173 0.211212 0.019737
endloop
endfacet
facet normal -0.013947 0.994674 -0.102120
outer loop
vertex 0.222966 0.215004 0.036796
vertex 0.237818 0.215187 0.036550
vertex 0.238902 0.214405 0.028785
endloop
endfacet
facet normal -0.002240 0.944063 -0.329758
outer loop
vertex 0.238902 0.214405 0.028785
vertex 0.240880 0.210988 0.018989
vertex 0.225173 0.211212 0.019737
endloop
endfacet
facet normal -0.102291 0.988223 -0.113804
outer loop
vertex 0.252403 0.216342 0.033470
vertex 0.238902 0.214405 0.028785
vertex 0.237818 0.215187 0.036550
endloop
endfacet
facet normal -0.039990 0.886435 0.461122
outer loop
vertex 0.241492 0.206538 0.053495
vertex 0.237818 0.215187 0.036550
vertex 0.231530 0.209203 0.047508
endloop
endfacet
facet normal -0.041581 0.886236 0.461363
outer loop
vertex 0.241492 0.206538 0.053495
vertex 0.252597 0.216401 0.035550
vertex 0.237818 0.215187 0.036550
endloop
endfacet
facet normal -0.002906 0.878360 0.477991
outer loop
vertex 0.231530 0.209203 0.047508
vertex 0.237818 0.215187 0.036550
vertex 0.222966 0.215004 0.036796
endloop
endfacet
facet normal -0.083228 0.996320 -0.020487
outer loop
vertex 0.252403 0.216342 0.033470
vertex 0.237818 0.215187 0.036550
vertex 0.252597 0.216401 0.035550
endloop
endfacet
facet normal -0.169726 0.904200 0.391937
outer loop
vertex 0.241492 0.206538 0.053495
vertex 0.264056 0.211112 0.052714
vertex 0.252597 0.216401 0.035550
endloop
endfacet
facet normal -0.056136 0.942990 0.328053
outer loop
vertex 0.252597 0.216401 0.035550
vertex 0.264056 0.211112 0.052714
vertex 0.267526 0.217408 0.035210
endloop
endfacet
facet normal -0.071014 0.945270 -0.318467
outer loop
vertex 0.267537 0.213528 0.023691
vertex 0.252597 0.216401 0.035550
vertex 0.267526 0.217408 0.035210
endloop
endfacet
facet normal 0.156005 0.986840 -0.042533
outer loop
vertex 0.267537 0.213528 0.023691
vertex 0.252403 0.216342 0.033470
vertex 0.252597 0.216401 0.035550
endloop
endfacet
facet normal -0.149140 0.787101 0.598523
outer loop
vertex 0.231530 0.209203 0.047508
vertex 0.234227 0.196714 0.064604
vertex 0.241492 0.206538 0.053495
endloop
endfacet
facet normal -0.137755 0.728832 0.670691
outer loop
vertex 0.231530 0.209203 0.047508
vertex 0.213057 0.202406 0.051100
vertex 0.224304 0.199154 0.056944
endloop
endfacet
facet normal -0.181134 0.796875 0.576351
outer loop
vertex 0.231530 0.209203 0.047508
vertex 0.222966 0.215004 0.036796
vertex 0.213057 0.202406 0.051100
endloop
endfacet
facet normal -0.273624 0.755599 0.595147
outer loop
vertex 0.231530 0.209203 0.047508
vertex 0.224304 0.199154 0.056944
vertex 0.234227 0.196714 0.064604
endloop
endfacet
facet normal -0.471823 0.790500 0.390503
outer loop
vertex 0.241492 0.206538 0.053495
vertex 0.234227 0.196714 0.064604
vertex 0.242851 0.196505 0.075447
endloop
endfacet
facet normal -0.364881 0.639737 0.676460
outer loop
vertex 0.226056 0.185448 0.070851
vertex 0.234227 0.196714 0.064604
vertex 0.224304 0.199154 0.056944
endloop
endfacet
facet normal -0.609050 0.673763 0.418451
outer loop
vertex 0.232777 0.184847 0.081601
vertex 0.234227 0.196714 0.064604
vertex 0.226056 0.185448 0.070851
endloop
endfacet
facet normal -0.545897 0.708127 0.447831
outer loop
vertex 0.232777 0.184847 0.081601
vertex 0.242851 0.196505 0.075447
vertex 0.234227 0.196714 0.064604
endloop
endfacet
facet normal -0.879626 0.153006 0.450386
outer loop
vertex 0.238604 0.183656 0.093386
vertex 0.232777 0.184847 0.081601
vertex 0.230368 0.171342 0.081484
endloop
endfacet
facet normal -0.835380 0.144419 0.530362
outer loop
vertex 0.226056 0.185448 0.070851
vertex 0.230368 0.171342 0.081484
vertex 0.232777 0.184847 0.081601
endloop
endfacet
facet normal -0.676437 0.620251 0.397142
outer loop
vertex 0.247338 0.194974 0.090586
vertex 0.232777 0.184847 0.081601
vertex 0.238604 0.183656 0.093386
endloop
endfacet
facet normal -0.655579 0.706807 0.265782
outer loop
vertex 0.247338 0.194974 0.090586
vertex 0.242851 0.196505 0.075447
vertex 0.232777 0.184847 0.081601
endloop
endfacet
facet normal -0.824972 0.005526 0.565147
outer loop
vertex 0.238604 0.183656 0.093386
vertex 0.230368 0.171342 0.081484
vertex 0.238152 0.169566 0.092864
endloop
endfacet
facet normal -0.682696 0.621781 0.383815
outer loop
vertex 0.247338 0.194974 0.090586
vertex 0.238604 0.183656 0.093386
vertex 0.243388 0.181855 0.104813
endloop
endfacet
facet normal -0.924020 -0.072156 0.375475
outer loop
vertex 0.244386 0.168222 0.104649
vertex 0.243388 0.181855 0.104813
vertex 0.238604 0.183656 0.093386
endloop
endfacet
facet normal -0.883375 0.010979 0.468538
outer loop
vertex 0.244386 0.168222 0.104649
vertex 0.238604 0.183656 0.093386
vertex 0.238152 0.169566 0.092864
endloop
endfacet
facet normal -0.678460 -0.678562 0.281508
outer loop
vertex 0.238152 0.169566 0.092864
vertex 0.253889 0.157887 0.102640
vertex 0.244386 0.168222 0.104649
endloop
endfacet
facet normal -0.659584 -0.726065 0.194366
outer loop
vertex 0.238152 0.169566 0.092864
vertex 0.248893 0.157967 0.085985
vertex 0.253889 0.157887 0.102640
endloop
endfacet
facet normal -0.651899 -0.677743 0.340135
outer loop
vertex 0.238152 0.169566 0.092864
vertex 0.230368 0.171342 0.081484
vertex 0.236631 0.161452 0.073781
endloop
endfacet
facet normal -0.568447 -0.739834 0.359880
outer loop
vertex 0.238152 0.169566 0.092864
vertex 0.236631 0.161452 0.073781
vertex 0.248893 0.157967 0.085985
endloop
endfacet
facet normal -0.412868 -0.896854 0.158724
outer loop
vertex 0.248893 0.157967 0.085985
vertex 0.236631 0.161452 0.073781
vertex 0.243445 0.156230 0.061999
endloop
endfacet
facet normal -0.423970 -0.894010 0.144898
outer loop
vertex 0.248893 0.157967 0.085985
vertex 0.254555 0.152730 0.070240
vertex 0.266476 0.149006 0.082144
endloop
endfacet
facet normal -0.428851 -0.894776 0.124344
outer loop
vertex 0.253889 0.157887 0.102640
vertex 0.248893 0.157967 0.085985
vertex 0.266476 0.149006 0.082144
endloop
endfacet
facet normal -0.400404 -0.902905 0.156332
outer loop
vertex 0.248893 0.157967 0.085985
vertex 0.243445 0.156230 0.061999
vertex 0.254555 0.152730 0.070240
endloop
endfacet
facet normal -0.350555 -0.934704 0.058647
outer loop
vertex 0.266476 0.149006 0.082144
vertex 0.254555 0.152730 0.070240
vertex 0.261572 0.149280 0.057198
endloop
endfacet
facet normal -0.250211 -0.960784 0.119535
outer loop
vertex 0.254555 0.152730 0.070240
vertex 0.249355 0.151628 0.050498
vertex 0.261572 0.149280 0.057198
endloop
endfacet
facet normal -0.400079 -0.903142 0.155792
outer loop
vertex 0.254555 0.152730 0.070240
vertex 0.243445 0.156230 0.061999
vertex 0.249355 0.151628 0.050498
endloop
endfacet
facet normal -0.186682 -0.982079 0.025911
outer loop
vertex 0.266476 0.149006 0.082144
vertex 0.261572 0.149280 0.057198
vertex 0.274172 0.147090 0.064972
endloop
endfacet
facet normal -0.223530 -0.972405 0.066812
outer loop
vertex 0.261572 0.149280 0.057198
vertex 0.249355 0.151628 0.050498
vertex 0.253726 0.149875 0.039608
endloop
endfacet
facet normal -0.169541 -0.985519 -0.002836
outer loop
vertex 0.274172 0.147090 0.064972
vertex 0.261572 0.149280 0.057198
vertex 0.268981 0.148045 0.043443
endloop
endfacet
facet normal -0.124526 -0.991973 0.021990
outer loop
vertex 0.261572 0.149280 0.057198
vertex 0.253726 0.149875 0.039608
vertex 0.268981 0.148045 0.043443
endloop
endfacet
facet normal -0.108585 -0.994085 0.002248
outer loop
vertex 0.237711 0.151634 0.043880
vertex 0.242808 0.151044 0.029182
vertex 0.253726 0.149875 0.039608
endloop
endfacet
facet normal -0.137799 -0.989900 0.033311
outer loop
vertex 0.242808 0.151044 0.029182
vertex 0.257213 0.149033 0.029011
vertex 0.253726 0.149875 0.039608
endloop
endfacet
facet normal -0.128093 -0.991087 0.036601
outer loop
vertex 0.268981 0.148045 0.043443
vertex 0.253726 0.149875 0.039608
vertex 0.257213 0.149033 0.029011
endloop
endfacet
facet normal -0.074078 -0.988816 0.129443
outer loop
vertex 0.237711 0.151634 0.043880
vertex 0.253726 0.149875 0.039608
vertex 0.249355 0.151628 0.050498
endloop
endfacet
facet normal -0.149019 -0.953679 0.261325
outer loop
vertex 0.249355 0.151628 0.050498
vertex 0.231999 0.155615 0.055151
vertex 0.237711 0.151634 0.043880
endloop
endfacet
facet normal -0.037841 -0.948104 0.315699
outer loop
vertex 0.225515 0.150642 0.039439
vertex 0.237711 0.151634 0.043880
vertex 0.231999 0.155615 0.055151
endloop
endfacet
facet normal 0.059028 -0.996423 0.060468
outer loop
vertex 0.225515 0.150642 0.039439
vertex 0.242808 0.151044 0.029182
vertex 0.237711 0.151634 0.043880
endloop
endfacet
facet normal 0.045424 -0.943546 0.328111
outer loop
vertex 0.209216 0.151659 0.044620
vertex 0.225515 0.150642 0.039439
vertex 0.221047 0.154049 0.049855
endloop
endfacet
facet normal -0.028470 -0.994006 0.105551
outer loop
vertex 0.209216 0.151659 0.044620
vertex 0.213896 0.149763 0.028027
vertex 0.225515 0.150642 0.039439
endloop
endfacet
facet normal 0.127787 -0.990340 -0.053826
outer loop
vertex 0.225515 0.150642 0.039439
vertex 0.213896 0.149763 0.028027
vertex 0.228297 0.151571 0.028951
endloop
endfacet
facet normal -0.011969 -0.951886 0.306220
outer loop
vertex 0.225515 0.150642 0.039439
vertex 0.231999 0.155615 0.055151
vertex 0.221047 0.154049 0.049855
endloop
endfacet
facet normal -0.034575 -0.994657 -0.097275
outer loop
vertex 0.225515 0.150642 0.039439
vertex 0.228297 0.151571 0.028951
vertex 0.242808 0.151044 0.029182
endloop
endfacet
facet normal 0.134345 -0.972285 -0.191347
outer loop
vertex 0.228297 0.151571 0.028951
vertex 0.213896 0.149763 0.028027
vertex 0.214470 0.152519 0.014426
endloop
endfacet
facet normal -0.031401 -0.970105 -0.240646
outer loop
vertex 0.230136 0.154809 0.015658
vertex 0.242808 0.151044 0.029182
vertex 0.228297 0.151571 0.028951
endloop
endfacet
facet normal 0.157702 -0.964229 -0.213057
outer loop
vertex 0.228297 0.151571 0.028951
vertex 0.214470 0.152519 0.014426
vertex 0.230136 0.154809 0.015658
endloop
endfacet
facet normal 0.100246 0.098573 -0.990068
outer loop
vertex 0.197702 0.166056 0.014076
vertex 0.214470 0.152519 0.014426
vertex 0.198980 0.149831 0.012590
endloop
endfacet
facet normal 0.189461 -0.963856 -0.187313
outer loop
vertex 0.198980 0.149831 0.012590
vertex 0.214470 0.152519 0.014426
vertex 0.213896 0.149763 0.028027
endloop
endfacet
facet normal 0.054327 0.158717 -0.985828
outer loop
vertex 0.229383 0.168011 0.017742
vertex 0.230136 0.154809 0.015658
vertex 0.214470 0.152519 0.014426
endloop
endfacet
facet normal 0.143680 0.152693 -0.977773
outer loop
vertex 0.197702 0.166056 0.014076
vertex 0.213669 0.167290 0.016615
vertex 0.214470 0.152519 0.014426
endloop
endfacet
facet normal 0.063895 0.149685 -0.986667
outer loop
vertex 0.229383 0.168011 0.017742
vertex 0.214470 0.152519 0.014426
vertex 0.213669 0.167290 0.016615
endloop
endfacet
facet normal 0.065895 0.113433 -0.991358
outer loop
vertex 0.213669 0.167290 0.016615
vertex 0.228242 0.182832 0.019362
vertex 0.229383 0.168011 0.017742
endloop
endfacet
facet normal -0.076685 0.107888 -0.991201
outer loop
vertex 0.229383 0.168011 0.017742
vertex 0.244126 0.182707 0.018201
vertex 0.245259 0.168142 0.016528
endloop
endfacet
facet normal -0.071705 0.102921 -0.992102
outer loop
vertex 0.229383 0.168011 0.017742
vertex 0.228242 0.182832 0.019362
vertex 0.244126 0.182707 0.018201
endloop
endfacet
facet normal -0.076609 0.151201 -0.985530
outer loop
vertex 0.245259 0.168142 0.016528
vertex 0.230136 0.154809 0.015658
vertex 0.229383 0.168011 0.017742
endloop
endfacet
facet normal 0.071388 0.108316 -0.991550
outer loop
vertex 0.213669 0.167290 0.016615
vertex 0.212523 0.182866 0.018234
vertex 0.228242 0.182832 0.019362
endloop
endfacet
facet normal 0.071583 0.003222 -0.997429
outer loop
vertex 0.228242 0.182832 0.019362
vertex 0.212523 0.182866 0.018234
vertex 0.211151 0.197868 0.018184
endloop
endfacet
facet normal -0.072907 -0.001212 -0.997338
outer loop
vertex 0.226786 0.197181 0.019451
vertex 0.244126 0.182707 0.018201
vertex 0.228242 0.182832 0.019362
endloop
endfacet
facet normal 0.081394 0.014440 -0.996577
outer loop
vertex 0.228242 0.182832 0.019362
vertex 0.211151 0.197868 0.018184
vertex 0.226786 0.197181 0.019451
endloop
endfacet
facet normal -0.059048 0.013558 -0.998163
outer loop
vertex 0.225173 0.211212 0.019737
vertex 0.242478 0.196907 0.018519
vertex 0.226786 0.197181 0.019451
endloop
endfacet
facet normal -0.059012 0.015504 -0.998137
outer loop
vertex 0.226786 0.197181 0.019451
vertex 0.242478 0.196907 0.018519
vertex 0.244126 0.182707 0.018201
endloop
endfacet
facet normal 0.094868 0.031188 -0.995001
outer loop
vertex 0.226786 0.197181 0.019451
vertex 0.209445 0.212698 0.018284
vertex 0.225173 0.211212 0.019737
endloop
endfacet
facet normal 0.081463 0.016091 -0.996546
outer loop
vertex 0.226786 0.197181 0.019451
vertex 0.211151 0.197868 0.018184
vertex 0.209445 0.212698 0.018284
endloop
endfacet
facet normal 0.106907 0.982524 -0.152373
outer loop
vertex 0.225173 0.211212 0.019737
vertex 0.209445 0.212698 0.018284
vertex 0.208145 0.215572 0.035904
endloop
endfacet
facet normal 0.156813 0.024697 -0.987320
outer loop
vertex 0.193950 0.214578 0.015870
vertex 0.209445 0.212698 0.018284
vertex 0.211151 0.197868 0.018184
endloop
endfacet
facet normal 0.133538 0.987092 -0.088415
outer loop
vertex 0.193375 0.216320 0.034450
vertex 0.209445 0.212698 0.018284
vertex 0.193950 0.214578 0.015870
endloop
endfacet
facet normal 0.065267 0.985607 -0.155947
outer loop
vertex 0.193375 0.216320 0.034450
vertex 0.208145 0.215572 0.035904
vertex 0.209445 0.212698 0.018284
endloop
endfacet
facet normal -0.033252 0.710249 0.703164
outer loop
vertex 0.200410 0.204082 0.047144
vertex 0.208145 0.215572 0.035904
vertex 0.193375 0.216320 0.034450
endloop
endfacet
facet normal -0.112875 0.732609 0.671225
outer loop
vertex 0.213057 0.202406 0.051100
vertex 0.208145 0.215572 0.035904
vertex 0.200410 0.204082 0.047144
endloop
endfacet
facet normal -0.010628 0.754039 0.656744
outer loop
vertex 0.213057 0.202406 0.051100
vertex 0.222966 0.215004 0.036796
vertex 0.208145 0.215572 0.035904
endloop
endfacet
facet normal 0.050087 0.976302 -0.210539
outer loop
vertex 0.225173 0.211212 0.019737
vertex 0.208145 0.215572 0.035904
vertex 0.222966 0.215004 0.036796
endloop
endfacet
facet normal -0.121658 0.680027 0.723024
outer loop
vertex 0.200410 0.204082 0.047144
vertex 0.193375 0.216320 0.034450
vertex 0.186762 0.204863 0.044113
endloop
endfacet
facet normal -0.187840 0.320576 0.928411
outer loop
vertex 0.186762 0.204863 0.044113
vertex 0.195319 0.189839 0.051032
vertex 0.200410 0.204082 0.047144
endloop
endfacet
facet normal -0.240631 0.334714 0.911078
outer loop
vertex 0.213057 0.202406 0.051100
vertex 0.200410 0.204082 0.047144
vertex 0.195319 0.189839 0.051032
endloop
endfacet
facet normal -0.387190 0.046014 0.920851
outer loop
vertex 0.195319 0.189839 0.051032
vertex 0.192834 0.175513 0.050703
vertex 0.204672 0.175083 0.055702
endloop
endfacet
facet normal -0.296839 0.029571 0.954470
outer loop
vertex 0.182245 0.190323 0.046951
vertex 0.192834 0.175513 0.050703
vertex 0.195319 0.189839 0.051032
endloop
endfacet
facet normal -0.278184 0.266539 0.922806
outer loop
vertex 0.186762 0.204863 0.044113
vertex 0.182245 0.190323 0.046951
vertex 0.195319 0.189839 0.051032
endloop
endfacet
facet normal -0.306598 0.428155 0.850107
outer loop
vertex 0.213057 0.202406 0.051100
vertex 0.195319 0.189839 0.051032
vertex 0.207434 0.188849 0.055900
endloop
endfacet
facet normal -0.367903 0.060470 0.927896
outer loop
vertex 0.195319 0.189839 0.051032
vertex 0.204672 0.175083 0.055702
vertex 0.207434 0.188849 0.055900
endloop
endfacet
facet normal -0.386417 -0.217250 0.896373
outer loop
vertex 0.205428 0.161971 0.052850
vertex 0.204672 0.175083 0.055702
vertex 0.192834 0.175513 0.050703
endloop
endfacet
facet normal -0.579611 0.170553 0.796846
outer loop
vertex 0.217592 0.187080 0.062532
vertex 0.204672 0.175083 0.055702
vertex 0.214359 0.174168 0.062944
endloop
endfacet
facet normal -0.598525 -0.203066 0.774940
outer loop
vertex 0.214359 0.174168 0.062944
vertex 0.204672 0.175083 0.055702
vertex 0.205428 0.161971 0.052850
endloop
endfacet
facet normal -0.532602 0.094765 0.841044
outer loop
vertex 0.217592 0.187080 0.062532
vertex 0.207434 0.188849 0.055900
vertex 0.204672 0.175083 0.055702
endloop
endfacet
facet normal -0.320974 -0.660007 0.679239
outer loop
vertex 0.216719 0.162520 0.058719
vertex 0.205428 0.161971 0.052850
vertex 0.209216 0.151659 0.044620
endloop
endfacet
facet normal -0.242334 -0.658017 0.712943
outer loop
vertex 0.192881 0.161610 0.048252
vertex 0.209216 0.151659 0.044620
vertex 0.205428 0.161971 0.052850
endloop
endfacet
facet normal -0.335207 -0.164669 0.927643
outer loop
vertex 0.205428 0.161971 0.052850
vertex 0.192834 0.175513 0.050703
vertex 0.192881 0.161610 0.048252
endloop
endfacet
facet normal -0.411243 -0.383302 0.827018
outer loop
vertex 0.214359 0.174168 0.062944
vertex 0.205428 0.161971 0.052850
vertex 0.216719 0.162520 0.058719
endloop
endfacet
facet normal -0.135949 -0.748554 0.648987
outer loop
vertex 0.216719 0.162520 0.058719
vertex 0.209216 0.151659 0.044620
vertex 0.221047 0.154049 0.049855
endloop
endfacet
facet normal -0.284543 -0.854361 0.434859
outer loop
vertex 0.216719 0.162520 0.058719
vertex 0.231999 0.155615 0.055151
vertex 0.226812 0.162497 0.065278
endloop
endfacet
facet normal -0.194893 -0.754873 0.626246
outer loop
vertex 0.216719 0.162520 0.058719
vertex 0.221047 0.154049 0.049855
vertex 0.231999 0.155615 0.055151
endloop
endfacet
facet normal -0.503983 -0.382929 0.774188
outer loop
vertex 0.226812 0.162497 0.065278
vertex 0.214359 0.174168 0.062944
vertex 0.216719 0.162520 0.058719
endloop
endfacet
facet normal -0.231095 -0.855646 0.463104
outer loop
vertex 0.226812 0.162497 0.065278
vertex 0.231999 0.155615 0.055151
vertex 0.243445 0.156230 0.061999
endloop
endfacet
facet normal -0.572485 -0.568021 0.591280
outer loop
vertex 0.236631 0.161452 0.073781
vertex 0.222903 0.172697 0.071292
vertex 0.226812 0.162497 0.065278
endloop
endfacet
facet normal -0.301810 -0.923959 0.234968
outer loop
vertex 0.226812 0.162497 0.065278
vertex 0.243445 0.156230 0.061999
vertex 0.236631 0.161452 0.073781
endloop
endfacet
facet normal -0.626367 -0.559859 0.542422
outer loop
vertex 0.226812 0.162497 0.065278
vertex 0.222903 0.172697 0.071292
vertex 0.214359 0.174168 0.062944
endloop
endfacet
facet normal -0.628090 -0.685112 0.368951
outer loop
vertex 0.236631 0.161452 0.073781
vertex 0.230368 0.171342 0.081484
vertex 0.222903 0.172697 0.071292
endloop
endfacet
facet normal -0.774721 0.212170 0.595643
outer loop
vertex 0.226056 0.185448 0.070851
vertex 0.222903 0.172697 0.071292
vertex 0.230368 0.171342 0.081484
endloop
endfacet
facet normal -0.669248 0.190327 0.718250
outer loop
vertex 0.217592 0.187080 0.062532
vertex 0.222903 0.172697 0.071292
vertex 0.226056 0.185448 0.070851
endloop
endfacet
facet normal -0.669092 0.190454 0.718361
outer loop
vertex 0.217592 0.187080 0.062532
vertex 0.214359 0.174168 0.062944
vertex 0.222903 0.172697 0.071292
endloop
endfacet
facet normal -0.143943 -0.539160 0.829811
outer loop
vertex 0.192881 0.161610 0.048252
vertex 0.195948 0.149699 0.041045
vertex 0.209216 0.151659 0.044620
endloop
endfacet
facet normal -0.257391 -0.132622 0.957163
outer loop
vertex 0.192881 0.161610 0.048252
vertex 0.179837 0.175710 0.046698
vertex 0.179457 0.161515 0.044629
endloop
endfacet
facet normal -0.214785 -0.545490 0.810129
outer loop
vertex 0.195948 0.149699 0.041045
vertex 0.192881 0.161610 0.048252
vertex 0.179457 0.161515 0.044629
endloop
endfacet
facet normal -0.292660 -0.166973 0.941525
outer loop
vertex 0.192881 0.161610 0.048252
vertex 0.192834 0.175513 0.050703
vertex 0.179837 0.175710 0.046698
endloop
endfacet
facet normal -0.293893 0.031890 0.955306
outer loop
vertex 0.182245 0.190323 0.046951
vertex 0.179837 0.175710 0.046698
vertex 0.192834 0.175513 0.050703
endloop
endfacet
facet normal -0.238840 0.022550 0.970797
outer loop
vertex 0.168329 0.190294 0.043528
vertex 0.179837 0.175710 0.046698
vertex 0.182245 0.190323 0.046951
endloop
endfacet
facet normal -0.237528 0.023647 0.971093
outer loop
vertex 0.168329 0.190294 0.043528
vertex 0.165845 0.175651 0.043277
vertex 0.179837 0.175710 0.046698
endloop
endfacet
facet normal -0.234824 -0.134039 0.962752
outer loop
vertex 0.179457 0.161515 0.044629
vertex 0.179837 0.175710 0.046698
vertex 0.165845 0.175651 0.043277
endloop
endfacet
facet normal -0.202806 0.017621 0.979060
outer loop
vertex 0.153603 0.189939 0.040484
vertex 0.165845 0.175651 0.043277
vertex 0.168329 0.190294 0.043528
endloop
endfacet
facet normal -0.193457 0.025964 0.980765
outer loop
vertex 0.153603 0.189939 0.040484
vertex 0.151113 0.175390 0.040378
vertex 0.165845 0.175651 0.043277
endloop
endfacet
facet normal -0.189678 -0.118999 0.974608
outer loop
vertex 0.165116 0.161424 0.041398
vertex 0.165845 0.175651 0.043277
vertex 0.151113 0.175390 0.040378
endloop
endfacet
facet normal -0.217579 -0.116833 0.969025
outer loop
vertex 0.179457 0.161515 0.044629
vertex 0.165845 0.175651 0.043277
vertex 0.165116 0.161424 0.041398
endloop
endfacet
facet normal -0.155927 -0.393521 0.905995
outer loop
vertex 0.181581 0.148822 0.038758
vertex 0.165116 0.161424 0.041398
vertex 0.166979 0.148539 0.036122
endloop
endfacet
facet normal -0.194890 -0.438434 0.877379
outer loop
vertex 0.181581 0.148822 0.038758
vertex 0.179457 0.161515 0.044629
vertex 0.165116 0.161424 0.041398
endloop
endfacet
facet normal -0.210294 -0.140188 0.967535
outer loop
vertex 0.165116 0.161424 0.041398
vertex 0.151113 0.175390 0.040378
vertex 0.150551 0.161353 0.038222
endloop
endfacet
facet normal -0.193828 -0.395618 0.897729
outer loop
vertex 0.166979 0.148539 0.036122
vertex 0.165116 0.161424 0.041398
vertex 0.150551 0.161353 0.038222
endloop
endfacet
facet normal -0.180638 -0.380239 0.907077
outer loop
vertex 0.166979 0.148539 0.036122
vertex 0.150551 0.161353 0.038222
vertex 0.151507 0.148494 0.033022
endloop
endfacet
facet normal -0.098479 -0.858094 0.503960
outer loop
vertex 0.151507 0.148494 0.033022
vertex 0.171200 0.141347 0.024701
vertex 0.166979 0.148539 0.036122
endloop
endfacet
facet normal 0.111177 -0.821913 0.558659
outer loop
vertex 0.166979 0.148539 0.036122
vertex 0.171200 0.141347 0.024701
vertex 0.185483 0.143956 0.025697
endloop
endfacet
facet normal -0.042715 -0.940332 0.337566
outer loop
vertex 0.166979 0.148539 0.036122
vertex 0.185483 0.143956 0.025697
vertex 0.181581 0.148822 0.038758
endloop
endfacet
facet normal 0.156336 -0.909367 0.385500
outer loop
vertex 0.181581 0.148822 0.038758
vertex 0.185483 0.143956 0.025697
vertex 0.199688 0.146875 0.026822
endloop
endfacet
facet normal 0.213360 -0.949277 -0.230980
outer loop
vertex 0.199688 0.146875 0.026822
vertex 0.185483 0.143956 0.025697
vertex 0.183490 0.147144 0.010754
endloop
endfacet
facet normal 0.190290 -0.955187 -0.226733
outer loop
vertex 0.167992 0.144456 0.008911
vertex 0.185483 0.143956 0.025697
vertex 0.171200 0.141347 0.024701
endloop
endfacet
facet normal 0.192743 -0.954092 -0.229257
outer loop
vertex 0.167992 0.144456 0.008911
vertex 0.183490 0.147144 0.010754
vertex 0.185483 0.143956 0.025697
endloop
endfacet
facet normal 0.191114 -0.959121 -0.208715
outer loop
vertex 0.199688 0.146875 0.026822
vertex 0.183490 0.147144 0.010754
vertex 0.198980 0.149831 0.012590
endloop
endfacet
facet normal 0.111614 0.037351 -0.993049
outer loop
vertex 0.163798 0.164300 0.009186
vertex 0.183490 0.147144 0.010754
vertex 0.167992 0.144456 0.008911
endloop
endfacet
facet normal 0.108957 0.050237 -0.992776
outer loop
vertex 0.198980 0.149831 0.012590
vertex 0.183490 0.147144 0.010754
vertex 0.181356 0.165250 0.011436
endloop
endfacet
facet normal 0.124170 0.051959 -0.990900
outer loop
vertex 0.163798 0.164300 0.009186
vertex 0.181356 0.165250 0.011436
vertex 0.183490 0.147144 0.010754
endloop
endfacet
facet normal 0.153698 0.102120 -0.982827
outer loop
vertex 0.198980 0.149831 0.012590
vertex 0.181356 0.165250 0.011436
vertex 0.197702 0.166056 0.014076
endloop
endfacet
facet normal 0.120972 0.102611 -0.987338
outer loop
vertex 0.163938 0.183841 0.011234
vertex 0.181356 0.165250 0.011436
vertex 0.163798 0.164300 0.009186
endloop
endfacet
facet normal 0.153280 0.108565 -0.982201
outer loop
vertex 0.197702 0.166056 0.014076
vertex 0.181356 0.165250 0.011436
vertex 0.180305 0.183462 0.013285
endloop
endfacet
facet normal 0.126070 0.107400 -0.986190
outer loop
vertex 0.163938 0.183841 0.011234
vertex 0.180305 0.183462 0.013285
vertex 0.181356 0.165250 0.011436
endloop
endfacet
facet normal 0.154900 0.008229 -0.987896
outer loop
vertex 0.196460 0.183094 0.015815
vertex 0.180305 0.183462 0.013285
vertex 0.179474 0.199945 0.013292
endloop
endfacet
facet normal 0.156236 0.111557 -0.981400
outer loop
vertex 0.197702 0.166056 0.014076
vertex 0.180305 0.183462 0.013285
vertex 0.196460 0.183094 0.015815
endloop
endfacet
facet normal 0.124480 0.006204 -0.992203
outer loop
vertex 0.163637 0.200917 0.011303
vertex 0.180305 0.183462 0.013285
vertex 0.163938 0.183841 0.011234
endloop
endfacet
facet normal 0.125016 0.006724 -0.992132
outer loop
vertex 0.163637 0.200917 0.011303
vertex 0.179474 0.199945 0.013292
vertex 0.180305 0.183462 0.013285
endloop
endfacet
facet normal 0.125586 0.016384 -0.991947
outer loop
vertex 0.162790 0.217338 0.011467
vertex 0.179474 0.199945 0.013292
vertex 0.163637 0.200917 0.011303
endloop
endfacet
facet normal 0.126940 0.017703 -0.991752
outer loop
vertex 0.162790 0.217338 0.011467
vertex 0.178421 0.216235 0.013448
vertex 0.179474 0.199945 0.013292
endloop
endfacet
facet normal 0.155996 0.019541 -0.987564
outer loop
vertex 0.195300 0.198890 0.015771
vertex 0.179474 0.199945 0.013292
vertex 0.178421 0.216235 0.013448
endloop
endfacet
facet normal 0.155312 0.008654 -0.987828
outer loop
vertex 0.196460 0.183094 0.015815
vertex 0.179474 0.199945 0.013292
vertex 0.195300 0.198890 0.015771
endloop
endfacet
facet normal 0.067704 0.997481 0.021168
outer loop
vertex 0.163813 0.216845 0.031424
vertex 0.178421 0.216235 0.013448
vertex 0.162790 0.217338 0.011467
endloop
endfacet
facet normal 0.006296 0.999565 -0.028803
outer loop
vertex 0.163813 0.216845 0.031424
vertex 0.178596 0.216795 0.032920
vertex 0.178421 0.216235 0.013448
endloop
endfacet
facet normal 0.110612 0.993424 -0.029565
outer loop
vertex 0.193950 0.214578 0.015870
vertex 0.178421 0.216235 0.013448
vertex 0.178596 0.216795 0.032920
endloop
endfacet
facet normal 0.156121 0.019666 -0.987542
outer loop
vertex 0.195300 0.198890 0.015771
vertex 0.178421 0.216235 0.013448
vertex 0.193950 0.214578 0.015870
endloop
endfacet
facet normal -0.076899 0.620243 0.780631
outer loop
vertex 0.172487 0.205181 0.041546
vertex 0.178596 0.216795 0.032920
vertex 0.163813 0.216845 0.031424
endloop
endfacet
facet normal -0.123381 0.632708 0.764498
outer loop
vertex 0.186762 0.204863 0.044113
vertex 0.178596 0.216795 0.032920
vertex 0.172487 0.205181 0.041546
endloop
endfacet
facet normal -0.056048 0.662416 0.747037
outer loop
vertex 0.186762 0.204863 0.044113
vertex 0.193375 0.216320 0.034450
vertex 0.178596 0.216795 0.032920
endloop
endfacet
facet normal 0.041499 0.994895 -0.091993
outer loop
vertex 0.193950 0.214578 0.015870
vertex 0.178596 0.216795 0.032920
vertex 0.193375 0.216320 0.034450
endloop
endfacet
facet normal -0.234770 0.192426 0.952814
outer loop
vertex 0.172487 0.205181 0.041546
vertex 0.168329 0.190294 0.043528
vertex 0.182245 0.190323 0.046951
endloop
endfacet
facet normal -0.191021 0.181777 0.964608
outer loop
vertex 0.168329 0.190294 0.043528
vertex 0.172487 0.205181 0.041546
vertex 0.157791 0.204511 0.038762
endloop
endfacet
facet normal -0.166728 0.238533 0.956715
outer loop
vertex 0.172487 0.205181 0.041546
vertex 0.182245 0.190323 0.046951
vertex 0.186762 0.204863 0.044113
endloop
endfacet
facet normal -0.178289 0.565940 0.804938
outer loop
vertex 0.172487 0.205181 0.041546
vertex 0.163813 0.216845 0.031424
vertex 0.157791 0.204511 0.038762
endloop
endfacet
facet normal -0.203384 0.172349 0.963811
outer loop
vertex 0.168329 0.190294 0.043528
vertex 0.157791 0.204511 0.038762
vertex 0.153603 0.189939 0.040484
endloop
endfacet
facet normal -0.242341 0.450213 0.859406
outer loop
vertex 0.157791 0.204511 0.038762
vertex 0.149017 0.216216 0.030156
vertex 0.142604 0.203231 0.035150
endloop
endfacet
facet normal -0.242015 0.182175 0.953017
outer loop
vertex 0.142604 0.203231 0.035150
vertex 0.153603 0.189939 0.040484
vertex 0.157791 0.204511 0.038762
endloop
endfacet
facet normal -0.094594 0.542708 0.834578
outer loop
vertex 0.157791 0.204511 0.038762
vertex 0.163813 0.216845 0.031424
vertex 0.149017 0.216216 0.030156
endloop
endfacet
facet normal -0.044765 0.998634 0.026964
outer loop
vertex 0.149017 0.216216 0.030156
vertex 0.163813 0.216845 0.031424
vertex 0.162790 0.217338 0.011467
endloop
endfacet
facet normal -0.105326 0.992033 0.069116
outer loop
vertex 0.147024 0.217371 0.010541
vertex 0.134265 0.214711 0.029277
vertex 0.149017 0.216216 0.030156
endloop
endfacet
facet normal -0.094962 0.397853 0.912521
outer loop
vertex 0.142604 0.203231 0.035150
vertex 0.149017 0.216216 0.030156
vertex 0.134265 0.214711 0.029277
endloop
endfacet
facet normal -0.001371 0.998262 0.058919
outer loop
vertex 0.149017 0.216216 0.030156
vertex 0.162790 0.217338 0.011467
vertex 0.147024 0.217371 0.010541
endloop
endfacet
facet normal 0.058655 0.012995 -0.998194
outer loop
vertex 0.163637 0.200917 0.011303
vertex 0.147024 0.217371 0.010541
vertex 0.162790 0.217338 0.011467
endloop
endfacet
facet normal -0.048557 0.009416 -0.998776
outer loop
vertex 0.131335 0.215807 0.011289
vertex 0.147024 0.217371 0.010541
vertex 0.148256 0.201662 0.010333
endloop
endfacet
facet normal -0.095320 0.992541 0.076003
outer loop
vertex 0.147024 0.217371 0.010541
vertex 0.131335 0.215807 0.011289
vertex 0.134265 0.214711 0.029277
endloop
endfacet
facet normal 0.063808 0.018216 -0.997796
outer loop
vertex 0.163637 0.200917 0.011303
vertex 0.148256 0.201662 0.010333
vertex 0.147024 0.217371 0.010541
endloop
endfacet
facet normal -0.034554 0.026186 -0.999060
outer loop
vertex 0.131335 0.215807 0.011289
vertex 0.148256 0.201662 0.010333
vertex 0.133726 0.201603 0.010834
endloop
endfacet
facet normal -0.034460 0.000102 -0.999406
outer loop
vertex 0.133726 0.201603 0.010834
vertex 0.148256 0.201662 0.010333
vertex 0.148006 0.185716 0.010340
endloop
endfacet
facet normal 0.062871 -0.001424 -0.998021
outer loop
vertex 0.148006 0.185716 0.010340
vertex 0.148256 0.201662 0.010333
vertex 0.163637 0.200917 0.011303
endloop
endfacet
facet normal 0.064253 0.071364 -0.995379
outer loop
vertex 0.163938 0.183841 0.011234
vertex 0.147670 0.170327 0.009215
vertex 0.148006 0.185716 0.010340
endloop
endfacet
facet normal -0.044234 0.073799 -0.996292
outer loop
vertex 0.131387 0.186609 0.011144
vertex 0.148006 0.185716 0.010340
vertex 0.147670 0.170327 0.009215
endloop
endfacet
facet normal -0.049015 -0.013002 -0.998713
outer loop
vertex 0.133726 0.201603 0.010834
vertex 0.148006 0.185716 0.010340
vertex 0.131387 0.186609 0.011144
endloop
endfacet
facet normal 0.056615 0.005032 -0.998383
outer loop
vertex 0.148006 0.185716 0.010340
vertex 0.163637 0.200917 0.011303
vertex 0.163938 0.183841 0.011234
endloop
endfacet
facet normal -0.149727 0.063551 -0.986683
outer loop
vertex 0.129947 0.169088 0.010234
vertex 0.114288 0.189594 0.013931
vertex 0.131387 0.186609 0.011144
endloop
endfacet
facet normal -0.061265 0.056791 -0.996505
outer loop
vertex 0.131387 0.186609 0.011144
vertex 0.147670 0.170327 0.009215
vertex 0.129947 0.169088 0.010234
endloop
endfacet
facet normal -0.164557 -0.021919 -0.986124
outer loop
vertex 0.131387 0.186609 0.011144
vertex 0.114288 0.189594 0.013931
vertex 0.120598 0.204127 0.012555
endloop
endfacet
facet normal -0.130023 -0.000216 -0.991511
outer loop
vertex 0.131387 0.186609 0.011144
vertex 0.120598 0.204127 0.012555
vertex 0.133726 0.201603 0.010834
endloop
endfacet
facet normal -0.128044 0.010214 -0.991716
outer loop
vertex 0.133726 0.201603 0.010834
vertex 0.120598 0.204127 0.012555
vertex 0.131335 0.215807 0.011289
endloop
endfacet
facet normal -0.677045 0.658091 0.329432
outer loop
vertex 0.126972 0.201636 0.030631
vertex 0.131335 0.215807 0.011289
vertex 0.120598 0.204127 0.012555
endloop
endfacet
facet normal -0.852267 0.385453 0.353646
outer loop
vertex 0.120598 0.204127 0.012555
vertex 0.121050 0.187853 0.031382
vertex 0.126972 0.201636 0.030631
endloop
endfacet
facet normal -0.840628 0.399603 0.365598
outer loop
vertex 0.120598 0.204127 0.012555
vertex 0.114288 0.189594 0.013931
vertex 0.121050 0.187853 0.031382
endloop
endfacet
facet normal -0.309050 0.205651 0.928545
outer loop
vertex 0.142604 0.203231 0.035150
vertex 0.121050 0.187853 0.031382
vertex 0.137873 0.189168 0.036690
endloop
endfacet
facet normal -0.303457 0.039275 0.952035
outer loop
vertex 0.137873 0.189168 0.036690
vertex 0.121050 0.187853 0.031382
vertex 0.117895 0.173172 0.030982
endloop
endfacet
facet normal -0.289903 0.175820 0.940768
outer loop
vertex 0.142604 0.203231 0.035150
vertex 0.126972 0.201636 0.030631
vertex 0.121050 0.187853 0.031382
endloop
endfacet
facet normal -0.909901 0.185432 0.371072
outer loop
vertex 0.114288 0.189594 0.013931
vertex 0.117895 0.173172 0.030982
vertex 0.121050 0.187853 0.031382
endloop
endfacet
facet normal -0.312509 0.051843 0.948499
outer loop
vertex 0.137873 0.189168 0.036690
vertex 0.117895 0.173172 0.030982
vertex 0.135584 0.174821 0.036720
endloop
endfacet
facet normal -0.285497 -0.199360 0.937415
outer loop
vertex 0.135584 0.174821 0.036720
vertex 0.117895 0.173172 0.030982
vertex 0.123524 0.159821 0.029857
endloop
endfacet
facet normal -0.955239 0.084544 0.283499
outer loop
vertex 0.114288 0.189594 0.013931
vertex 0.112853 0.173756 0.013819
vertex 0.117895 0.173172 0.030982
endloop
endfacet
facet normal -0.885358 -0.394067 0.246683
outer loop
vertex 0.123524 0.159821 0.029857
vertex 0.117895 0.173172 0.030982
vertex 0.112853 0.173756 0.013819
endloop
endfacet
facet normal -0.697184 -0.611412 0.374313
outer loop
vertex 0.129132 0.146894 0.019187
vertex 0.132240 0.148484 0.027573
vertex 0.123524 0.159821 0.029857
endloop
endfacet
facet normal -0.278661 -0.390963 0.877209
outer loop
vertex 0.132240 0.148484 0.027573
vertex 0.136062 0.161495 0.034586
vertex 0.123524 0.159821 0.029857
endloop
endfacet
facet normal -0.329445 -0.160806 0.930380
outer loop
vertex 0.135584 0.174821 0.036720
vertex 0.123524 0.159821 0.029857
vertex 0.136062 0.161495 0.034586
endloop
endfacet
facet normal -0.734560 -0.592150 0.331331
outer loop
vertex 0.129132 0.146894 0.019187
vertex 0.123524 0.159821 0.029857
vertex 0.116162 0.158639 0.011423
endloop
endfacet
facet normal -0.892392 -0.254411 0.372708
outer loop
vertex 0.123524 0.159821 0.029857
vertex 0.112853 0.173756 0.013819
vertex 0.116162 0.158639 0.011423
endloop
endfacet
facet normal -0.735210 -0.549927 0.396291
outer loop
vertex 0.116162 0.158639 0.011423
vertex 0.124048 0.145576 0.007926
vertex 0.129132 0.146894 0.019187
endloop
endfacet
facet normal -0.154692 0.167277 -0.973699
outer loop
vertex 0.116162 0.158639 0.011423
vertex 0.135864 0.153255 0.007368
vertex 0.124048 0.145576 0.007926
endloop
endfacet
facet normal -0.173113 0.117104 -0.977916
outer loop
vertex 0.116162 0.158639 0.011423
vertex 0.112853 0.173756 0.013819
vertex 0.129947 0.169088 0.010234
endloop
endfacet
facet normal -0.170444 0.113481 -0.978811
outer loop
vertex 0.116162 0.158639 0.011423
vertex 0.129947 0.169088 0.010234
vertex 0.135864 0.153255 0.007368
endloop
endfacet
facet normal 0.089954 0.155483 -0.983734
outer loop
vertex 0.135864 0.153255 0.007368
vertex 0.152502 0.141769 0.007074
vertex 0.137004 0.139081 0.005232
endloop
endfacet
facet normal -0.135367 0.136990 -0.981280
outer loop
vertex 0.137004 0.139081 0.005232
vertex 0.124048 0.145576 0.007926
vertex 0.135864 0.153255 0.007368
endloop
endfacet
facet normal -0.015634 0.002946 -0.999873
outer loop
vertex 0.135864 0.153255 0.007368
vertex 0.149626 0.156032 0.007161
vertex 0.152502 0.141769 0.007074
endloop
endfacet
facet normal -0.047273 0.160787 -0.985856
outer loop
vertex 0.129947 0.169088 0.010234
vertex 0.149626 0.156032 0.007161
vertex 0.135864 0.153255 0.007368
endloop
endfacet
facet normal 0.112790 0.028801 -0.993201
outer loop
vertex 0.167992 0.144456 0.008911
vertex 0.152502 0.141769 0.007074
vertex 0.149626 0.156032 0.007161
endloop
endfacet
facet normal 0.119060 0.038912 -0.992124
outer loop
vertex 0.167992 0.144456 0.008911
vertex 0.149626 0.156032 0.007161
vertex 0.163798 0.164300 0.009186
endloop
endfacet
facet normal -0.066159 0.133039 -0.988900
outer loop
vertex 0.129947 0.169088 0.010234
vertex 0.147670 0.170327 0.009215
vertex 0.149626 0.156032 0.007161
endloop
endfacet
facet normal 0.054001 0.149254 -0.987323
outer loop
vertex 0.163798 0.164300 0.009186
vertex 0.149626 0.156032 0.007161
vertex 0.147670 0.170327 0.009215
endloop
endfacet
facet normal 0.185705 -0.971989 -0.144050
outer loop
vertex 0.143419 0.137785 0.022247
vertex 0.137004 0.139081 0.005232
vertex 0.152502 0.141769 0.007074
endloop
endfacet
facet normal 0.192224 -0.955678 -0.222999
outer loop
vertex 0.154862 0.139998 0.016698
vertex 0.152502 0.141769 0.007074
vertex 0.167992 0.144456 0.008911
endloop
endfacet
facet normal 0.090782 -0.975227 -0.201722
outer loop
vertex 0.143419 0.137785 0.022247
vertex 0.152502 0.141769 0.007074
vertex 0.154862 0.139998 0.016698
endloop
endfacet
facet normal -0.555801 -0.754490 0.349042
outer loop
vertex 0.143419 0.137785 0.022247
vertex 0.132240 0.148484 0.027573
vertex 0.129132 0.146894 0.019187
endloop
endfacet
facet normal -0.583781 -0.756599 0.294547
outer loop
vertex 0.143419 0.137785 0.022247
vertex 0.143682 0.138152 0.023711
vertex 0.132240 0.148484 0.027573
endloop
endfacet
facet normal 0.273347 -0.943483 0.187406
outer loop
vertex 0.154862 0.139998 0.016698
vertex 0.143682 0.138152 0.023711
vertex 0.143419 0.137785 0.022247
endloop
endfacet
facet normal -0.553913 -0.819600 0.146409
outer loop
vertex 0.129132 0.146894 0.019187
vertex 0.137004 0.139081 0.005232
vertex 0.143419 0.137785 0.022247
endloop
endfacet
facet normal 0.011025 -0.339374 0.940587
outer loop
vertex 0.132240 0.148484 0.027573
vertex 0.143682 0.138152 0.023711
vertex 0.156809 0.139324 0.023980
endloop
endfacet
facet normal 0.090683 -0.989124 -0.115799
outer loop
vertex 0.154862 0.139998 0.016698
vertex 0.156809 0.139324 0.023980
vertex 0.143682 0.138152 0.023711
endloop
endfacet
facet normal -0.182158 -0.741762 0.645451
outer loop
vertex 0.132240 0.148484 0.027573
vertex 0.156809 0.139324 0.023980
vertex 0.151507 0.148494 0.033022
endloop
endfacet
facet normal 0.059576 -0.683195 0.727802
outer loop
vertex 0.151507 0.148494 0.033022
vertex 0.156809 0.139324 0.023980
vertex 0.171200 0.141347 0.024701
endloop
endfacet
facet normal 0.144390 -0.981023 -0.129406
outer loop
vertex 0.171200 0.141347 0.024701
vertex 0.156809 0.139324 0.023980
vertex 0.154862 0.139998 0.016698
endloop
endfacet
facet normal 0.189909 -0.955277 -0.226674
outer loop
vertex 0.171200 0.141347 0.024701
vertex 0.154862 0.139998 0.016698
vertex 0.167992 0.144456 0.008911
endloop
endfacet
facet normal -0.384112 -0.880906 0.276517
outer loop
vertex 0.129132 0.146894 0.019187
vertex 0.124048 0.145576 0.007926
vertex 0.137004 0.139081 0.005232
endloop
endfacet
facet normal -0.249010 -0.401830 0.881208
outer loop
vertex 0.151507 0.148494 0.033022
vertex 0.136062 0.161495 0.034586
vertex 0.132240 0.148484 0.027573
endloop
endfacet
facet normal -0.228689 -0.379523 0.896473
outer loop
vertex 0.151507 0.148494 0.033022
vertex 0.150551 0.161353 0.038222
vertex 0.136062 0.161495 0.034586
endloop
endfacet
facet normal -0.242350 -0.137801 0.960353
outer loop
vertex 0.136062 0.161495 0.034586
vertex 0.150551 0.161353 0.038222
vertex 0.151113 0.175390 0.040378
endloop
endfacet
facet normal -0.220632 -0.161938 0.961820
outer loop
vertex 0.136062 0.161495 0.034586
vertex 0.151113 0.175390 0.040378
vertex 0.135584 0.174821 0.036720
endloop
endfacet
facet normal -0.198668 0.024929 -0.979750
outer loop
vertex 0.129947 0.169088 0.010234
vertex 0.112853 0.173756 0.013819
vertex 0.114288 0.189594 0.013931
endloop
endfacet
facet normal -0.230285 0.032327 0.972586
outer loop
vertex 0.135584 0.174821 0.036720
vertex 0.151113 0.175390 0.040378
vertex 0.153603 0.189939 0.040484
endloop
endfacet
facet normal -0.236125 0.039703 0.970911
outer loop
vertex 0.135584 0.174821 0.036720
vertex 0.153603 0.189939 0.040484
vertex 0.137873 0.189168 0.036690
endloop
endfacet
facet normal -0.238983 0.184789 0.953279
outer loop
vertex 0.142604 0.203231 0.035150
vertex 0.137873 0.189168 0.036690
vertex 0.153603 0.189939 0.040484
endloop
endfacet
facet normal -0.292526 0.258504 0.920654
outer loop
vertex 0.142604 0.203231 0.035150
vertex 0.134265 0.214711 0.029277
vertex 0.126972 0.201636 0.030631
endloop
endfacet
facet normal -0.853212 0.493411 0.169040
outer loop
vertex 0.126972 0.201636 0.030631
vertex 0.134265 0.214711 0.029277
vertex 0.131335 0.215807 0.011289
endloop
endfacet
facet normal 0.037040 0.103900 -0.993898
outer loop
vertex 0.163938 0.183841 0.011234
vertex 0.163798 0.164300 0.009186
vertex 0.147670 0.170327 0.009215
endloop
endfacet
facet normal 0.149024 0.008189 -0.988800
outer loop
vertex 0.195300 0.198890 0.015771
vertex 0.212523 0.182866 0.018234
vertex 0.196460 0.183094 0.015815
endloop
endfacet
facet normal 0.151151 0.010529 -0.988455
outer loop
vertex 0.195300 0.198890 0.015771
vertex 0.211151 0.197868 0.018184
vertex 0.212523 0.182866 0.018234
endloop
endfacet
facet normal 0.151684 0.019289 -0.988241
outer loop
vertex 0.193950 0.214578 0.015870
vertex 0.211151 0.197868 0.018184
vertex 0.195300 0.198890 0.015771
endloop
endfacet
facet normal 0.147693 0.111074 -0.982776
outer loop
vertex 0.196460 0.183094 0.015815
vertex 0.213669 0.167290 0.016615
vertex 0.197702 0.166056 0.014076
endloop
endfacet
facet normal 0.149529 0.113101 -0.982267
outer loop
vertex 0.196460 0.183094 0.015815
vertex 0.212523 0.182866 0.018234
vertex 0.213669 0.167290 0.016615
endloop
endfacet
facet normal 0.027663 -0.979063 0.201667
outer loop
vertex 0.181581 0.148822 0.038758
vertex 0.199688 0.146875 0.026822
vertex 0.195948 0.149699 0.041045
endloop
endfacet
facet normal 0.211779 -0.954744 -0.208839
outer loop
vertex 0.198980 0.149831 0.012590
vertex 0.213896 0.149763 0.028027
vertex 0.199688 0.146875 0.026822
endloop
endfacet
facet normal 0.085590 -0.972715 0.215641
outer loop
vertex 0.209216 0.151659 0.044620
vertex 0.195948 0.149699 0.041045
vertex 0.199688 0.146875 0.026822
endloop
endfacet
facet normal 0.183294 -0.969537 0.162484
outer loop
vertex 0.209216 0.151659 0.044620
vertex 0.199688 0.146875 0.026822
vertex 0.213896 0.149763 0.028027
endloop
endfacet
facet normal -0.115881 -0.432887 0.893969
outer loop
vertex 0.195948 0.149699 0.041045
vertex 0.179457 0.161515 0.044629
vertex 0.181581 0.148822 0.038758
endloop
endfacet
facet normal -0.430091 0.454554 0.780002
outer loop
vertex 0.217592 0.187080 0.062532
vertex 0.213057 0.202406 0.051100
vertex 0.207434 0.188849 0.055900
endloop
endfacet
facet normal -0.268715 0.523567 0.808499
outer loop
vertex 0.217592 0.187080 0.062532
vertex 0.224304 0.199154 0.056944
vertex 0.213057 0.202406 0.051100
endloop
endfacet
facet normal -0.512287 0.578536 0.634711
outer loop
vertex 0.226056 0.185448 0.070851
vertex 0.224304 0.199154 0.056944
vertex 0.217592 0.187080 0.062532
endloop
endfacet
facet normal -0.005604 0.150534 -0.988589
outer loop
vertex 0.260908 0.168035 0.016423
vertex 0.245842 0.154655 0.014471
vertex 0.245259 0.168142 0.016528
endloop
endfacet
facet normal -0.073104 0.147282 -0.986389
outer loop
vertex 0.245259 0.168142 0.016528
vertex 0.245842 0.154655 0.014471
vertex 0.230136 0.154809 0.015658
endloop
endfacet
facet normal -0.006012 0.097321 -0.995235
outer loop
vertex 0.245259 0.168142 0.016528
vertex 0.259299 0.182324 0.017830
vertex 0.260908 0.168035 0.016423
endloop
endfacet
facet normal -0.021452 0.112441 -0.993427
outer loop
vertex 0.245259 0.168142 0.016528
vertex 0.244126 0.182707 0.018201
vertex 0.259299 0.182324 0.017830
endloop
endfacet
facet normal 0.011113 0.132089 -0.991176
outer loop
vertex 0.260908 0.168035 0.016423
vertex 0.261457 0.153709 0.014520
vertex 0.245842 0.154655 0.014471
endloop
endfacet
facet normal -0.995036 -0.025350 -0.096228
outer loop
vertex 0.262003 0.169209 0.004791
vertex 0.261457 0.153709 0.014520
vertex 0.260908 0.168035 0.016423
endloop
endfacet
facet normal -0.987839 -0.099471 -0.119496
outer loop
vertex 0.260908 0.168035 0.016423
vertex 0.259299 0.182324 0.017830
vertex 0.260611 0.183588 0.005932
endloop
endfacet
facet normal -0.990886 -0.087819 -0.102142
outer loop
vertex 0.260908 0.168035 0.016423
vertex 0.260611 0.183588 0.005932
vertex 0.262003 0.169209 0.004791
endloop
endfacet
facet normal -0.036317 0.075557 -0.996480
outer loop
vertex 0.281954 0.171835 0.004263
vertex 0.262003 0.169209 0.004791
vertex 0.260611 0.183588 0.005932
endloop
endfacet
facet normal -0.036223 0.074837 -0.996538
outer loop
vertex 0.280200 0.155273 0.003083
vertex 0.262003 0.169209 0.004791
vertex 0.281954 0.171835 0.004263
endloop
endfacet
facet normal -0.979653 -0.080801 -0.183715
outer loop
vertex 0.262003 0.169209 0.004791
vertex 0.263406 0.154832 0.003633
vertex 0.261457 0.153709 0.014520
endloop
endfacet
facet normal -0.034652 0.076877 -0.996438
outer loop
vertex 0.280200 0.155273 0.003083
vertex 0.263406 0.154832 0.003633
vertex 0.262003 0.169209 0.004791
endloop
endfacet
facet normal 0.015212 -0.989662 -0.142607
outer loop
vertex 0.280200 0.155273 0.003083
vertex 0.286324 0.153310 0.017359
vertex 0.273629 0.153213 0.016678
endloop
endfacet
facet normal 0.021422 -0.989969 -0.139651
outer loop
vertex 0.273629 0.153213 0.016678
vertex 0.263406 0.154832 0.003633
vertex 0.280200 0.155273 0.003083
endloop
endfacet
facet normal 0.024654 -0.988896 -0.146552
outer loop
vertex 0.286324 0.153310 0.017359
vertex 0.280200 0.155273 0.003083
vertex 0.297004 0.155773 0.002536
endloop
endfacet
facet normal -0.034663 0.074677 -0.996605
outer loop
vertex 0.281954 0.171835 0.004263
vertex 0.297004 0.155773 0.002536
vertex 0.280200 0.155273 0.003083
endloop
endfacet
facet normal 0.033469 -0.989542 -0.140306
outer loop
vertex 0.286324 0.153310 0.017359
vertex 0.297004 0.155773 0.002536
vertex 0.299705 0.153821 0.016947
endloop
endfacet
facet normal 0.026640 -0.949543 -0.312503
outer loop
vertex 0.299705 0.153821 0.016947
vertex 0.286264 0.149078 0.030213
vertex 0.286324 0.153310 0.017359
endloop
endfacet
facet normal 0.024022 -0.949603 -0.312532
outer loop
vertex 0.273629 0.153213 0.016678
vertex 0.286324 0.153310 0.017359
vertex 0.286264 0.149078 0.030213
endloop
endfacet
facet normal 0.050124 -0.994205 -0.095102
outer loop
vertex 0.297660 0.148431 0.042983
vertex 0.284120 0.147937 0.041011
vertex 0.286264 0.149078 0.030213
endloop
endfacet
facet normal 0.035257 -0.994553 -0.098093
outer loop
vertex 0.284120 0.147937 0.041011
vertex 0.271732 0.148616 0.029674
vertex 0.286264 0.149078 0.030213
endloop
endfacet
facet normal 0.044057 -0.994991 -0.089731
outer loop
vertex 0.297660 0.148431 0.042983
vertex 0.286264 0.149078 0.030213
vertex 0.300795 0.149671 0.030772
endloop
endfacet
facet normal 0.050179 -0.955476 -0.290769
outer loop
vertex 0.299705 0.153821 0.016947
vertex 0.300795 0.149671 0.030772
vertex 0.286264 0.149078 0.030213
endloop
endfacet
facet normal 0.042161 -0.943838 -0.327706
outer loop
vertex 0.273629 0.153213 0.016678
vertex 0.286264 0.149078 0.030213
vertex 0.271732 0.148616 0.029674
endloop
endfacet
facet normal -0.014238 -0.998918 -0.044268
outer loop
vertex 0.284120 0.147937 0.041011
vertex 0.268981 0.148045 0.043443
vertex 0.271732 0.148616 0.029674
endloop
endfacet
facet normal -0.026546 -0.998556 -0.046714
outer loop
vertex 0.268981 0.148045 0.043443
vertex 0.257213 0.149033 0.029011
vertex 0.271732 0.148616 0.029674
endloop
endfacet
facet normal -0.013117 -0.950470 -0.310540
outer loop
vertex 0.271732 0.148616 0.029674
vertex 0.257213 0.149033 0.029011
vertex 0.261457 0.153709 0.014520
endloop
endfacet
facet normal 0.020199 -0.943490 -0.330786
outer loop
vertex 0.271732 0.148616 0.029674
vertex 0.261457 0.153709 0.014520
vertex 0.273629 0.153213 0.016678
endloop
endfacet
facet normal 0.126591 -0.989622 -0.067992
outer loop
vertex 0.297660 0.148431 0.042983
vertex 0.300795 0.149671 0.030772
vertex 0.315208 0.151478 0.031306
endloop
endfacet
facet normal 0.129291 -0.968915 -0.210920
outer loop
vertex 0.314638 0.154578 0.016716
vertex 0.315208 0.151478 0.031306
vertex 0.300795 0.149671 0.030772
endloop
endfacet
facet normal 0.043964 -0.955893 -0.290405
outer loop
vertex 0.314638 0.154578 0.016716
vertex 0.300795 0.149671 0.030772
vertex 0.299705 0.153821 0.016947
endloop
endfacet
facet normal 0.048480 -0.991975 -0.116772
outer loop
vertex 0.299705 0.153821 0.016947
vertex 0.313813 0.156276 0.001949
vertex 0.314638 0.154578 0.016716
endloop
endfacet
facet normal 0.089732 -0.973500 -0.210348
outer loop
vertex 0.329642 0.156004 0.016517
vertex 0.315208 0.151478 0.031306
vertex 0.314638 0.154578 0.016716
endloop
endfacet
facet normal 0.025755 -0.992960 -0.115617
outer loop
vertex 0.314638 0.154578 0.016716
vertex 0.313813 0.156276 0.001949
vertex 0.330625 0.156781 0.001357
endloop
endfacet
facet normal 0.093929 -0.994567 -0.044885
outer loop
vertex 0.314638 0.154578 0.016716
vertex 0.330625 0.156781 0.001357
vertex 0.329642 0.156004 0.016517
endloop
endfacet
facet normal 0.861594 -0.507513 0.009266
outer loop
vertex 0.336791 0.168442 0.033015
vertex 0.329642 0.156004 0.016517
vertex 0.337121 0.168720 0.017556
endloop
endfacet
facet normal 0.834233 -0.548922 0.052347
outer loop
vertex 0.336791 0.168442 0.033015
vertex 0.328884 0.156302 0.031722
vertex 0.329642 0.156004 0.016517
endloop
endfacet
facet normal 0.331495 -0.942807 0.035003
outer loop
vertex 0.329642 0.156004 0.016517
vertex 0.328884 0.156302 0.031722
vertex 0.315208 0.151478 0.031306
endloop
endfacet
facet normal 0.860518 -0.508551 0.029733
outer loop
vertex 0.337121 0.168720 0.017556
vertex 0.329642 0.156004 0.016517
vertex 0.330625 0.156781 0.001357
endloop
endfacet
facet normal 0.755713 -0.635562 0.157986
outer loop
vertex 0.328884 0.156302 0.031722
vertex 0.334031 0.166303 0.047335
vertex 0.325195 0.155476 0.046045
endloop
endfacet
facet normal 0.331646 -0.942893 0.031041
outer loop
vertex 0.325195 0.155476 0.046045
vertex 0.315208 0.151478 0.031306
vertex 0.328884 0.156302 0.031722
endloop
endfacet
facet normal 0.831549 -0.549930 0.078128
outer loop
vertex 0.328884 0.156302 0.031722
vertex 0.336791 0.168442 0.033015
vertex 0.334031 0.166303 0.047335
endloop
endfacet
facet normal 0.769927 -0.635388 0.059113
outer loop
vertex 0.325195 0.155476 0.046045
vertex 0.334031 0.166303 0.047335
vertex 0.331599 0.164612 0.060835
endloop
endfacet
facet normal 0.674617 -0.721956 0.153855
outer loop
vertex 0.325195 0.155476 0.046045
vertex 0.331599 0.164612 0.060835
vertex 0.321709 0.155155 0.059824
endloop
endfacet
facet normal 0.344838 -0.936379 0.065428
outer loop
vertex 0.321709 0.155155 0.059824
vertex 0.311785 0.150434 0.044563
vertex 0.325195 0.155476 0.046045
endloop
endfacet
facet normal 0.350268 -0.936501 0.016691
outer loop
vertex 0.325195 0.155476 0.046045
vertex 0.311785 0.150434 0.044563
vertex 0.315208 0.151478 0.031306
endloop
endfacet
facet normal 0.613198 -0.683590 0.395845
outer loop
vertex 0.321709 0.155155 0.059824
vertex 0.331599 0.164612 0.060835
vertex 0.328377 0.169373 0.074048
endloop
endfacet
facet normal 0.909017 -0.268774 0.318510
outer loop
vertex 0.328377 0.169373 0.074048
vertex 0.331599 0.164612 0.060835
vertex 0.334562 0.176649 0.062536
endloop
endfacet
facet normal 0.956616 -0.255317 0.140352
outer loop
vertex 0.334562 0.176649 0.062536
vertex 0.331599 0.164612 0.060835
vertex 0.334031 0.166303 0.047335
endloop
endfacet
facet normal 0.891157 -0.042922 0.451660
outer loop
vertex 0.334562 0.176649 0.062536
vertex 0.327508 0.184320 0.077183
vertex 0.328377 0.169373 0.074048
endloop
endfacet
facet normal 0.652908 -0.723325 0.224750
outer loop
vertex 0.312419 0.158667 0.085951
vertex 0.328377 0.169373 0.074048
vertex 0.323029 0.168548 0.086929
endloop
endfacet
facet normal 0.684391 -0.647531 0.335131
outer loop
vertex 0.312419 0.158667 0.085951
vertex 0.317254 0.157151 0.073148
vertex 0.328377 0.169373 0.074048
endloop
endfacet
facet normal 0.686835 -0.649152 0.326894
outer loop
vertex 0.321709 0.155155 0.059824
vertex 0.328377 0.169373 0.074048
vertex 0.317254 0.157151 0.073148
endloop
endfacet
facet normal 0.921062 -0.101714 0.375898
outer loop
vertex 0.323950 0.181400 0.088150
vertex 0.323029 0.168548 0.086929
vertex 0.328377 0.169373 0.074048
endloop
endfacet
facet normal 0.951852 -0.008933 0.306429
outer loop
vertex 0.323950 0.181400 0.088150
vertex 0.328377 0.169373 0.074048
vertex 0.327508 0.184320 0.077183
endloop
endfacet
facet normal 0.949887 -0.096321 0.297382
outer loop
vertex 0.323950 0.181400 0.088150
vertex 0.319301 0.167607 0.098532
vertex 0.323029 0.168548 0.086929
endloop
endfacet
facet normal 0.819613 0.514579 0.251877
outer loop
vertex 0.323950 0.181400 0.088150
vertex 0.313794 0.192268 0.098995
vertex 0.321430 0.180076 0.099055
endloop
endfacet
facet normal 0.964023 -0.173067 0.201761
outer loop
vertex 0.323950 0.181400 0.088150
vertex 0.321430 0.180076 0.099055
vertex 0.319301 0.167607 0.098532
endloop
endfacet
facet normal 0.788022 0.481357 0.383819
outer loop
vertex 0.323950 0.181400 0.088150
vertex 0.327508 0.184320 0.077183
vertex 0.318231 0.194747 0.083153
endloop
endfacet
facet normal 0.828480 0.469359 0.305487
outer loop
vertex 0.323950 0.181400 0.088150
vertex 0.318231 0.194747 0.083153
vertex 0.313794 0.192268 0.098995
endloop
endfacet
facet normal 0.630743 -0.763117 0.140766
outer loop
vertex 0.323029 0.168548 0.086929
vertex 0.319301 0.167607 0.098532
vertex 0.308793 0.158897 0.098398
endloop
endfacet
facet normal -0.583266 0.788039 0.196966
outer loop
vertex 0.259148 0.203220 0.088172
vertex 0.251266 0.193584 0.103384
vertex 0.262393 0.202399 0.101066
endloop
endfacet
facet normal -0.329424 0.933392 0.142337
outer loop
vertex 0.259148 0.203220 0.088172
vertex 0.262393 0.202399 0.101066
vertex 0.275743 0.207365 0.099398
endloop
endfacet
facet normal -0.316334 0.941006 0.120171
outer loop
vertex 0.259148 0.203220 0.088172
vertex 0.275743 0.207365 0.099398
vertex 0.272664 0.208106 0.085491
endloop
endfacet
facet normal -0.519911 0.817324 0.248343
outer loop
vertex 0.259148 0.203220 0.088172
vertex 0.247338 0.194974 0.090586
vertex 0.251266 0.193584 0.103384
endloop
endfacet
facet normal -0.540248 0.823893 0.171267
outer loop
vertex 0.256147 0.203999 0.074958
vertex 0.247338 0.194974 0.090586
vertex 0.259148 0.203220 0.088172
endloop
endfacet
facet normal -0.314847 0.940613 0.126957
outer loop
vertex 0.272664 0.208106 0.085491
vertex 0.256147 0.203999 0.074958
vertex 0.259148 0.203220 0.088172
endloop
endfacet
facet normal -0.476028 0.857356 0.195799
outer loop
vertex 0.256147 0.203999 0.074958
vertex 0.250959 0.203980 0.062428
vertex 0.242851 0.196505 0.075447
endloop
endfacet
facet normal -0.298212 0.946666 0.122038
outer loop
vertex 0.269176 0.208670 0.070562
vertex 0.250959 0.203980 0.062428
vertex 0.256147 0.203999 0.074958
endloop
endfacet
facet normal -0.303463 0.946853 0.106673
outer loop
vertex 0.272664 0.208106 0.085491
vertex 0.269176 0.208670 0.070562
vertex 0.256147 0.203999 0.074958
endloop
endfacet
facet normal -0.471977 0.852135 0.226063
outer loop
vertex 0.256147 0.203999 0.074958
vertex 0.242851 0.196505 0.075447
vertex 0.247338 0.194974 0.090586
endloop
endfacet
facet normal -0.153120 0.895165 0.418608
outer loop
vertex 0.241492 0.206538 0.053495
vertex 0.242851 0.196505 0.075447
vertex 0.250959 0.203980 0.062428
endloop
endfacet
facet normal -0.165139 0.887947 0.429277
outer loop
vertex 0.241492 0.206538 0.053495
vertex 0.250959 0.203980 0.062428
vertex 0.264056 0.211112 0.052714
endloop
endfacet
facet normal -0.334646 0.915984 0.221326
outer loop
vertex 0.269176 0.208670 0.070562
vertex 0.264056 0.211112 0.052714
vertex 0.250959 0.203980 0.062428
endloop
endfacet
facet normal -0.775090 0.556959 0.298383
outer loop
vertex 0.247338 0.194974 0.090586
vertex 0.243388 0.181855 0.104813
vertex 0.251266 0.193584 0.103384
endloop
endfacet
facet normal 0.301480 -0.953206 -0.022556
outer loop
vertex 0.299453 0.152431 0.084862
vertex 0.297371 0.151440 0.098912
vertex 0.282429 0.146698 0.099594
endloop
endfacet
facet normal -0.183914 -0.982199 0.038229
outer loop
vertex 0.266476 0.149006 0.082144
vertex 0.282429 0.146698 0.099594
vertex 0.267111 0.149607 0.100641
endloop
endfacet
facet normal -0.089179 -0.994758 -0.050042
outer loop
vertex 0.266476 0.149006 0.082144
vertex 0.284476 0.147309 0.083800
vertex 0.282429 0.146698 0.099594
endloop
endfacet
facet normal 0.323250 -0.946299 0.005285
outer loop
vertex 0.299453 0.152431 0.084862
vertex 0.282429 0.146698 0.099594
vertex 0.284476 0.147309 0.083800
endloop
endfacet
facet normal 0.309234 -0.937413 0.160099
outer loop
vertex 0.284476 0.147309 0.083800
vertex 0.303530 0.151452 0.071255
vertex 0.299453 0.152431 0.084862
endloop
endfacet
facet normal 0.433383 -0.901210 0.000654
outer loop
vertex 0.312419 0.158667 0.085951
vertex 0.297371 0.151440 0.098912
vertex 0.299453 0.152431 0.084862
endloop
endfacet
facet normal 0.357262 -0.917827 0.173082
outer loop
vertex 0.299453 0.152431 0.084862
vertex 0.303530 0.151452 0.071255
vertex 0.317254 0.157151 0.073148
endloop
endfacet
facet normal 0.401483 -0.879433 0.255751
outer loop
vertex 0.299453 0.152431 0.084862
vertex 0.317254 0.157151 0.073148
vertex 0.312419 0.158667 0.085951
endloop
endfacet
facet normal 0.253151 -0.965190 0.065744
outer loop
vertex 0.284476 0.147309 0.083800
vertex 0.289002 0.147483 0.068927
vertex 0.303530 0.151452 0.071255
endloop
endfacet
facet normal 0.226215 -0.951182 0.209950
outer loop
vertex 0.289002 0.147483 0.068927
vertex 0.308181 0.149622 0.057953
vertex 0.303530 0.151452 0.071255
endloop
endfacet
facet normal 0.342877 -0.906960 0.244662
outer loop
vertex 0.317254 0.157151 0.073148
vertex 0.303530 0.151452 0.071255
vertex 0.308181 0.149622 0.057953
endloop
endfacet
facet normal 0.163737 -0.981942 0.094764
outer loop
vertex 0.289002 0.147483 0.068927
vertex 0.293893 0.147016 0.055637
vertex 0.308181 0.149622 0.057953
endloop
endfacet
facet normal 0.337002 -0.908059 0.248713
outer loop
vertex 0.317254 0.157151 0.073148
vertex 0.308181 0.149622 0.057953
vertex 0.321709 0.155155 0.059824
endloop
endfacet
facet normal 0.372953 -0.926798 0.044179
outer loop
vertex 0.321709 0.155155 0.059824
vertex 0.308181 0.149622 0.057953
vertex 0.311785 0.150434 0.044563
endloop
endfacet
facet normal 0.181128 -0.983399 -0.010883
outer loop
vertex 0.293893 0.147016 0.055637
vertex 0.311785 0.150434 0.044563
vertex 0.308181 0.149622 0.057953
endloop
endfacet
facet normal 0.050279 -0.994092 -0.096193
outer loop
vertex 0.293893 0.147016 0.055637
vertex 0.284120 0.147937 0.041011
vertex 0.297660 0.148431 0.042983
endloop
endfacet
facet normal 0.034635 -0.995706 -0.085845
outer loop
vertex 0.293893 0.147016 0.055637
vertex 0.280283 0.146817 0.052454
vertex 0.284120 0.147937 0.041011
endloop
endfacet
facet normal 0.147375 -0.986844 -0.066478
outer loop
vertex 0.293893 0.147016 0.055637
vertex 0.297660 0.148431 0.042983
vertex 0.311785 0.150434 0.044563
endloop
endfacet
facet normal 0.008543 -0.999626 0.025972
outer loop
vertex 0.293893 0.147016 0.055637
vertex 0.274172 0.147090 0.064972
vertex 0.280283 0.146817 0.052454
endloop
endfacet
facet normal 0.015583 -0.999044 0.040842
outer loop
vertex 0.293893 0.147016 0.055637
vertex 0.289002 0.147483 0.068927
vertex 0.274172 0.147090 0.064972
endloop
endfacet
facet normal -0.024017 -0.994144 -0.105357
outer loop
vertex 0.284120 0.147937 0.041011
vertex 0.280283 0.146817 0.052454
vertex 0.268981 0.148045 0.043443
endloop
endfacet
facet normal -0.090335 -0.995660 -0.022385
outer loop
vertex 0.274172 0.147090 0.064972
vertex 0.268981 0.148045 0.043443
vertex 0.280283 0.146817 0.052454
endloop
endfacet
facet normal 0.027387 -0.999619 -0.003362
outer loop
vertex 0.274172 0.147090 0.064972
vertex 0.289002 0.147483 0.068927
vertex 0.284476 0.147309 0.083800
endloop
endfacet
facet normal -0.099682 -0.992821 0.066100
outer loop
vertex 0.274172 0.147090 0.064972
vertex 0.284476 0.147309 0.083800
vertex 0.266476 0.149006 0.082144
endloop
endfacet
facet normal 0.543838 -0.821039 0.173597
outer loop
vertex 0.312419 0.158667 0.085951
vertex 0.308793 0.158897 0.098398
vertex 0.297371 0.151440 0.098912
endloop
endfacet
facet normal -0.525229 -0.849736 0.045641
outer loop
vertex 0.253889 0.157887 0.102640
vertex 0.266476 0.149006 0.082144
vertex 0.267111 0.149607 0.100641
endloop
endfacet
facet normal 0.656902 -0.725635 0.204776
outer loop
vertex 0.323029 0.168548 0.086929
vertex 0.308793 0.158897 0.098398
vertex 0.312419 0.158667 0.085951
endloop
endfacet
facet normal 0.144724 -0.988643 -0.040490
outer loop
vertex 0.297660 0.148431 0.042983
vertex 0.315208 0.151478 0.031306
vertex 0.311785 0.150434 0.044563
endloop
endfacet
facet normal 0.024781 -0.990018 -0.138745
outer loop
vertex 0.299705 0.153821 0.016947
vertex 0.297004 0.155773 0.002536
vertex 0.313813 0.156276 0.001949
endloop
endfacet
facet normal -0.021642 -0.994086 -0.106415
outer loop
vertex 0.273629 0.153213 0.016678
vertex 0.261457 0.153709 0.014520
vertex 0.263406 0.154832 0.003633
endloop
endfacet
facet normal -0.056256 -0.945240 -0.321491
outer loop
vertex 0.257213 0.149033 0.029011
vertex 0.245842 0.154655 0.014471
vertex 0.261457 0.153709 0.014520
endloop
endfacet
facet normal -0.136468 -0.955203 -0.262611
outer loop
vertex 0.257213 0.149033 0.029011
vertex 0.242808 0.151044 0.029182
vertex 0.245842 0.154655 0.014471
endloop
endfacet
facet normal -0.027925 -0.969443 -0.243723
outer loop
vertex 0.230136 0.154809 0.015658
vertex 0.245842 0.154655 0.014471
vertex 0.242808 0.151044 0.029182
endloop
endfacet
facet normal -0.024138 0.012069 -0.999636
outer loop
vertex 0.257994 0.196776 0.018036
vertex 0.259299 0.182324 0.017830
vertex 0.244126 0.182707 0.018201
endloop
endfacet
facet normal -0.030950 0.018788 -0.999344
outer loop
vertex 0.257994 0.196776 0.018036
vertex 0.244126 0.182707 0.018201
vertex 0.242478 0.196907 0.018519
endloop
endfacet
facet normal -0.133756 -0.941888 0.308151
outer loop
vertex 0.249355 0.151628 0.050498
vertex 0.243445 0.156230 0.061999
vertex 0.231999 0.155615 0.055151
endloop
endfacet
facet normal -0.047151 0.027977 -0.998496
outer loop
vertex 0.225173 0.211212 0.019737
vertex 0.240880 0.210988 0.018989
vertex 0.242478 0.196907 0.018519
endloop
endfacet
facet normal 0.013592 0.947598 -0.319175
outer loop
vertex 0.283832 0.212721 0.021989
vertex 0.267537 0.213528 0.023691
vertex 0.267526 0.217408 0.035210
endloop
endfacet
facet normal 0.043433 0.997423 -0.057099
outer loop
vertex 0.267537 0.213528 0.023691
vertex 0.283832 0.212721 0.021989
vertex 0.286364 0.211751 0.006971
endloop
endfacet
facet normal 0.018193 0.996182 -0.085389
outer loop
vertex 0.267537 0.213528 0.023691
vertex 0.286364 0.211751 0.006971
vertex 0.272101 0.212057 0.007502
endloop
endfacet
facet normal 0.044510 0.997386 -0.056919
outer loop
vertex 0.298767 0.212008 0.021174
vertex 0.286364 0.211751 0.006971
vertex 0.283832 0.212721 0.021989
endloop
endfacet
facet normal 0.028475 0.950421 -0.309660
outer loop
vertex 0.283832 0.212721 0.021989
vertex 0.297425 0.216579 0.035080
vertex 0.298767 0.212008 0.021174
endloop
endfacet
facet normal 0.056498 0.940250 -0.335764
outer loop
vertex 0.283832 0.212721 0.021989
vertex 0.282498 0.217552 0.035293
vertex 0.297425 0.216579 0.035080
endloop
endfacet
facet normal -0.007143 0.939695 -0.341938
outer loop
vertex 0.283832 0.212721 0.021989
vertex 0.267526 0.217408 0.035210
vertex 0.282498 0.217552 0.035293
endloop
endfacet
facet normal 0.187281 0.938404 -0.290385
outer loop
vertex 0.298767 0.212008 0.021174
vertex 0.297425 0.216579 0.035080
vertex 0.312074 0.213579 0.034833
endloop
endfacet
facet normal 0.020183 0.999159 -0.035704
outer loop
vertex 0.298767 0.212008 0.021174
vertex 0.300626 0.211444 0.006442
vertex 0.286364 0.211751 0.006971
endloop
endfacet
facet normal 0.062103 0.982865 -0.173548
outer loop
vertex 0.298767 0.212008 0.021174
vertex 0.312074 0.213579 0.034833
vertex 0.313427 0.210998 0.020700
endloop
endfacet
facet normal 0.067748 0.997262 -0.029631
outer loop
vertex 0.313427 0.210998 0.020700
vertex 0.300626 0.211444 0.006442
vertex 0.298767 0.212008 0.021174
endloop
endfacet
facet normal -0.038499 0.071624 -0.996688
outer loop
vertex 0.281954 0.171835 0.004263
vertex 0.260611 0.183588 0.005932
vertex 0.274886 0.185500 0.005518
endloop
endfacet
facet normal 0.868935 -0.494663 0.016121
outer loop
vertex 0.337121 0.168720 0.017556
vertex 0.330625 0.156781 0.001357
vertex 0.337900 0.169583 0.002049
endloop
endfacet
facet normal 0.424915 0.896824 -0.123103
outer loop
vertex 0.313427 0.210998 0.020700
vertex 0.312074 0.213579 0.034833
vertex 0.325599 0.207254 0.035439
endloop
endfacet
facet normal 0.758525 0.603915 0.244801
outer loop
vertex 0.323637 0.203203 0.051512
vertex 0.334763 0.195960 0.034906
vertex 0.325599 0.207254 0.035439
endloop
endfacet
facet normal 0.739558 0.636916 0.217700
outer loop
vertex 0.323637 0.203203 0.051512
vertex 0.333016 0.192559 0.050791
vertex 0.334763 0.195960 0.034906
endloop
endfacet
facet normal 0.050286 -0.008186 0.998701
outer loop
vertex 0.297371 0.151440 0.098912
vertex 0.308793 0.158897 0.098398
vertex 0.302534 0.200114 0.099051
endloop
endfacet
facet normal -0.029373 -0.013479 0.999478
outer loop
vertex 0.321430 0.180076 0.099055
vertex 0.313794 0.192268 0.098995
vertex 0.308793 0.158897 0.098398
endloop
endfacet
facet normal -0.006783 -0.016870 0.999835
outer loop
vertex 0.313794 0.192268 0.098995
vertex 0.302534 0.200114 0.099051
vertex 0.308793 0.158897 0.098398
endloop
endfacet
facet normal 0.025609 -0.046257 0.998601
outer loop
vertex 0.321430 0.180076 0.099055
vertex 0.308793 0.158897 0.098398
vertex 0.319301 0.167607 0.098532
endloop
endfacet
facet normal -0.003272 -0.002509 0.999991
outer loop
vertex 0.302534 0.200114 0.099051
vertex 0.289889 0.205449 0.099023
vertex 0.297371 0.151440 0.098912
endloop
endfacet
facet normal 0.051748 0.190180 0.980384
outer loop
vertex 0.289889 0.205449 0.099023
vertex 0.275743 0.207365 0.099398
vertex 0.262393 0.202399 0.101066
endloop
endfacet
facet normal 0.074251 -0.001392 0.997239
outer loop
vertex 0.267111 0.149607 0.100641
vertex 0.289889 0.205449 0.099023
vertex 0.262393 0.202399 0.101066
endloop
endfacet
facet normal 0.207825 -0.005116 0.978153
outer loop
vertex 0.262393 0.202399 0.101066
vertex 0.251266 0.193584 0.103384
vertex 0.253889 0.157887 0.102640
endloop
endfacet
facet normal 0.152984 0.005717 0.988212
outer loop
vertex 0.267111 0.149607 0.100641
vertex 0.262393 0.202399 0.101066
vertex 0.253889 0.157887 0.102640
endloop
endfacet
facet normal 0.188054 -0.006652 0.982136
outer loop
vertex 0.251266 0.193584 0.103384
vertex 0.243388 0.181855 0.104813
vertex 0.253889 0.157887 0.102640
endloop
endfacet
facet normal 0.210642 0.003659 0.977556
outer loop
vertex 0.243388 0.181855 0.104813
vertex 0.244386 0.168222 0.104649
vertex 0.253889 0.157887 0.102640
endloop
endfacet
facet normal 0.068383 0.001013 0.997659
outer loop
vertex 0.267111 0.149607 0.100641
vertex 0.282429 0.146698 0.099594
vertex 0.289889 0.205449 0.099023
endloop
endfacet
facet normal 0.044301 0.004084 0.999010
outer loop
vertex 0.282429 0.146698 0.099594
vertex 0.297371 0.151440 0.098912
vertex 0.289889 0.205449 0.099023
endloop
endfacet
endsolid Exported from Blender-4.0.2
