solid Exported from Blender-4.0.2
facet normal 0.000000 0.000000 -1.000000
outer loop
vertex 0.152018 -0.151926 0.000000
vertex 0.202018 -0.201926 0.000000
vertex 0.152018 -0.201926 0.000000
endloop
endfacet
facet normal 0.000000 0.000000 -1.000000
outer loop
vertex 0.202018 -0.201926 0.000000
vertex 0.152018 -0.151926 0.000000
vertex 0.202018 -0.151926 0.000000
endloop
endfacet
facet normal 1.000000 0.000001 0.000000
outer loop
vertex 0.202018 -0.151926 0.400000
vertex 0.202018 -0.201926 0.000000
vertex 0.202018 -0.151926 0.000000
endloop
endfacet
facet normal 1.000000 0.000000 0.000000
outer loop
vertex 0.202018 -0.201926 0.000000
vertex 0.202018 -0.151926 0.400000
vertex 0.202018 -0.201926 0.900000
endloop
endfacet
facet normal 1.000000 0.000001 0.000000
outer loop
vertex 0.202018 -0.201926 0.900000
vertex 0.202018 -0.151926 0.400000
vertex 0.202018 -0.151926 0.500000
endloop
endfacet
facet normal 1.000000 0.000000 0.000000
outer loop
vertex 0.202018 -0.201926 0.900000
vertex 0.202018 -0.151926 0.500000
vertex 0.202018 -0.151926 0.679423
endloop
endfacet
facet normal 1.000000 0.000000 0.000000
outer loop
vertex 0.202018 -0.201926 0.900000
vertex 0.202018 -0.151926 0.679423
vertex 0.202018 -0.151926 0.728632
endloop
endfacet
facet normal 1.000000 0.000001 0.000000
outer loop
vertex 0.202018 -0.201926 0.900000
vertex 0.202018 -0.151926 0.728632
vertex 0.202018 -0.151926 0.853800
endloop
endfacet
facet normal 1.000000 0.000001 0.000000
outer loop
vertex 0.202018 -0.201926 0.900000
vertex 0.202018 -0.151926 0.853800
vertex 0.202018 -0.151926 0.900000
endloop
endfacet
facet normal 0.000000 1.000000 0.000000
outer loop
vertex 0.152018 -0.151926 0.000000
vertex 0.202018 -0.151926 0.400000
vertex 0.202018 -0.151926 0.000000
endloop
endfacet
facet normal 0.000000 1.000000 0.000000
outer loop
vertex 0.202018 -0.151926 0.400000
vertex 0.152018 -0.151926 0.000000
vertex 0.152018 -0.151926 0.400000
endloop
endfacet
facet normal -1.000000 0.000000 0.000000
outer loop
vertex 0.152018 -0.201926 0.400000
vertex 0.152018 -0.151926 0.000000
vertex 0.152018 -0.201926 0.000000
endloop
endfacet
facet normal -1.000000 0.000000 0.000000
outer loop
vertex 0.152018 -0.151926 0.000000
vertex 0.152018 -0.201926 0.400000
vertex 0.152018 -0.151926 0.400000
endloop
endfacet
facet normal -0.000001 -1.000000 0.000000
outer loop
vertex 0.152018 -0.201926 0.900000
vertex 0.202018 -0.201926 0.000000
vertex 0.202018 -0.201926 0.900000
endloop
endfacet
facet normal -0.000001 -1.000000 0.000000
outer loop
vertex 0.202018 -0.201926 0.000000
vertex 0.152018 -0.201926 0.900000
vertex 0.152018 -0.201926 0.000000
endloop
endfacet
facet normal 0.000000 -1.000000 0.000000
outer loop
vertex 0.152018 -0.201926 0.000000
vertex 0.152018 -0.201926 0.900000
vertex 0.152018 -0.201926 0.500000
endloop
endfacet
facet normal 0.000000 1.000000 0.000000
outer loop
vertex 0.152018 -0.201926 0.000000
vertex 0.152018 -0.201926 0.500000
vertex 0.152018 -0.201926 0.400000
endloop
endfacet
facet normal -0.000000 0.000000 -1.000000
outer loop
vertex -0.147982 -0.151926 0.400000
vertex 0.152018 -0.201926 0.400000
vertex -0.147982 -0.201926 0.400000
endloop
endfacet
facet normal -0.000000 0.000000 -1.000000
outer loop
vertex 0.152018 -0.201926 0.400000
vertex -0.147982 -0.151926 0.400000
vertex 0.152018 -0.151926 0.400000
endloop
endfacet
facet normal 0.000000 0.000000 -1.000000
outer loop
vertex -0.197982 0.148074 0.400000
vertex -0.147982 -0.151926 0.400000
vertex -0.197982 -0.151926 0.400000
endloop
endfacet
facet normal 0.000000 0.000000 -1.000000
outer loop
vertex -0.147982 -0.151926 0.400000
vertex -0.197982 0.148074 0.400000
vertex 0.152018 -0.151926 0.400000
endloop
endfacet
facet normal 0.000000 0.000000 -1.000000
outer loop
vertex 0.152018 -0.151926 0.400000
vertex -0.197982 0.148074 0.400000
vertex 0.202018 -0.151926 0.400000
endloop
endfacet
facet normal -0.000000 0.000000 -1.000000
outer loop
vertex 0.202018 -0.151926 0.400000
vertex -0.197982 0.148074 0.400000
vertex 0.152018 0.148074 0.400000
endloop
endfacet
facet normal 0.000000 0.000000 -1.000000
outer loop
vertex 0.152018 0.148074 0.400000
vertex -0.197982 0.148074 0.400000
vertex -0.147982 0.148074 0.400000
endloop
endfacet
facet normal 0.000000 0.000000 -1.000000
outer loop
vertex 0.152018 0.148074 0.400000
vertex -0.147982 0.148074 0.400000
vertex 0.152018 0.198074 0.400000
endloop
endfacet
facet normal 0.000000 0.000000 -1.000000
outer loop
vertex 0.152018 0.198074 0.400000
vertex -0.147982 0.148074 0.400000
vertex -0.147982 0.198074 0.400000
endloop
endfacet
facet normal 0.000000 0.000000 -1.000000
outer loop
vertex 0.202018 0.148074 0.400000
vertex 0.202018 -0.151926 0.400000
vertex 0.152018 0.148074 0.400000
endloop
endfacet
facet normal 1.000000 0.000000 0.000000
outer loop
vertex 0.202018 0.148074 0.900000
vertex 0.202018 -0.151926 0.853800
vertex 0.202018 0.148074 0.853800
endloop
endfacet
facet normal 1.000000 0.000000 0.000000
outer loop
vertex 0.202018 -0.151926 0.853800
vertex 0.202018 0.148074 0.900000
vertex 0.202018 -0.151926 0.900000
endloop
endfacet
facet normal 0.000000 1.000000 0.000000
outer loop
vertex -0.147982 0.198074 0.400000
vertex 0.152018 0.198074 0.500000
vertex 0.152018 0.198074 0.400000
endloop
endfacet
facet normal 0.000000 1.000000 0.000000
outer loop
vertex 0.152018 0.198074 0.500000
vertex -0.147982 0.198074 0.400000
vertex -0.147982 0.198074 0.500000
endloop
endfacet
facet normal -1.000000 -0.000000 0.000000
outer loop
vertex -0.197982 -0.151926 0.500000
vertex -0.197982 0.148074 0.400000
vertex -0.197982 -0.151926 0.400000
endloop
endfacet
facet normal -1.000000 -0.000000 0.000000
outer loop
vertex -0.197982 0.148074 0.400000
vertex -0.197982 -0.151926 0.500000
vertex -0.197982 0.148074 0.500000
endloop
endfacet
facet normal 0.000000 -1.000000 0.000000
outer loop
vertex -0.147982 -0.201926 0.500000
vertex 0.152018 -0.201926 0.400000
vertex 0.152018 -0.201926 0.500000
endloop
endfacet
facet normal 0.000000 -1.000000 0.000000
outer loop
vertex 0.152018 -0.201926 0.400000
vertex -0.147982 -0.201926 0.500000
vertex -0.147982 -0.201926 0.400000
endloop
endfacet
facet normal -1.000000 0.000000 0.000000
outer loop
vertex 0.152018 -0.201926 0.500000
vertex 0.152018 -0.151926 0.400000
vertex 0.152018 -0.201926 0.400000
endloop
endfacet
facet normal -1.000000 0.000000 0.000000
outer loop
vertex 0.152018 -0.151926 0.400000
vertex 0.152018 -0.201926 0.500000
vertex 0.152018 -0.151926 0.500000
endloop
endfacet
facet normal 0.000000 1.000000 0.000000
outer loop
vertex 0.152018 -0.151926 0.400000
vertex 0.202018 -0.151926 0.500000
vertex 0.202018 -0.151926 0.400000
endloop
endfacet
facet normal 0.000000 1.000000 0.000000
outer loop
vertex 0.202018 -0.151926 0.500000
vertex 0.152018 -0.151926 0.400000
vertex 0.152018 -0.151926 0.500000
endloop
endfacet
facet normal -1.000000 0.000000 0.000000
outer loop
vertex 0.152018 0.148074 0.500000
vertex 0.152018 0.198074 0.400000
vertex 0.152018 0.148074 0.400000
endloop
endfacet
facet normal -1.000000 0.000000 0.000000
outer loop
vertex 0.152018 0.198074 0.400000
vertex 0.152018 0.148074 0.500000
vertex 0.152018 0.198074 0.500000
endloop
endfacet
facet normal 0.000000 -1.000000 0.000000
outer loop
vertex 0.152018 0.148074 0.900000
vertex 0.202018 0.148074 0.853800
vertex 0.202018 0.148074 0.900000
endloop
endfacet
facet normal 0.000000 -1.000000 0.000000
outer loop
vertex 0.202018 0.148074 0.853800
vertex 0.152018 0.148074 0.900000
vertex 0.152018 0.148074 0.853800
endloop
endfacet
facet normal 0.000001 -1.000000 0.000000
outer loop
vertex -0.197982 0.148074 0.500000
vertex -0.147982 0.148074 0.400000
vertex -0.147982 0.148074 0.500000
endloop
endfacet
facet normal 0.000001 -1.000000 0.000000
outer loop
vertex -0.147982 0.148074 0.400000
vertex -0.197982 0.148074 0.500000
vertex -0.197982 0.148074 0.400000
endloop
endfacet
facet normal 1.000000 0.000000 0.000000
outer loop
vertex -0.147982 0.198074 0.500000
vertex -0.147982 0.148074 0.400000
vertex -0.147982 0.198074 0.400000
endloop
endfacet
facet normal 1.000000 0.000001 0.000000
outer loop
vertex -0.147982 0.148074 0.400000
vertex -0.147982 0.198074 0.500000
vertex -0.147982 0.148074 0.500000
endloop
endfacet
facet normal 1.000000 -0.000001 0.000000
outer loop
vertex -0.147982 -0.151926 0.500000
vertex -0.147982 -0.201926 0.400000
vertex -0.147982 -0.151926 0.400000
endloop
endfacet
facet normal 1.000000 -0.000000 0.000000
outer loop
vertex -0.147982 -0.201926 0.400000
vertex -0.147982 -0.151926 0.500000
vertex -0.147982 -0.201926 0.500000
endloop
endfacet
facet normal 0.000000 1.000000 0.000000
outer loop
vertex -0.197982 -0.151926 0.400000
vertex -0.147982 -0.151926 0.500000
vertex -0.147982 -0.151926 0.400000
endloop
endfacet
facet normal 0.000000 1.000000 0.000000
outer loop
vertex -0.147982 -0.151926 0.500000
vertex -0.197982 -0.151926 0.400000
vertex -0.197982 -0.151926 0.500000
endloop
endfacet
facet normal 0.000000 0.000000 1.000000
outer loop
vertex -0.147982 -0.151926 0.500000
vertex -0.197982 -0.201926 0.500000
vertex -0.147982 -0.201926 0.500000
endloop
endfacet
facet normal 0.000000 0.000000 1.000000
outer loop
vertex -0.197982 -0.201926 0.500000
vertex -0.147982 -0.151926 0.500000
vertex -0.197982 -0.151926 0.500000
endloop
endfacet
facet normal 0.000000 0.000000 1.000000
outer loop
vertex -0.147982 0.198074 0.500000
vertex -0.197982 0.148074 0.500000
vertex -0.147982 0.148074 0.500000
endloop
endfacet
facet normal 0.000000 0.000000 1.000000
outer loop
vertex -0.197982 0.148074 0.500000
vertex -0.147982 0.198074 0.500000
vertex -0.197982 0.198074 0.500000
endloop
endfacet
facet normal 0.000000 0.000000 -1.000000
outer loop
vertex 0.152018 0.198074 0.000000
vertex 0.202018 0.148074 0.000000
vertex 0.152018 0.148074 0.000000
endloop
endfacet
facet normal 0.000000 0.000000 -1.000000
outer loop
vertex 0.202018 0.148074 0.000000
vertex 0.152018 0.198074 0.000000
vertex 0.202018 0.198074 0.000000
endloop
endfacet
facet normal -1.000000 0.000000 0.000000
outer loop
vertex 0.152018 0.148074 0.400000
vertex 0.152018 0.198074 0.000000
vertex 0.152018 0.148074 0.000000
endloop
endfacet
facet normal -1.000000 0.000000 0.000000
outer loop
vertex 0.152018 0.198074 0.000000
vertex 0.152018 0.148074 0.400000
vertex 0.152018 0.198074 0.400000
endloop
endfacet
facet normal 0.000000 -1.000000 0.000000
outer loop
vertex 0.152018 0.148074 0.400000
vertex 0.202018 0.148074 0.000000
vertex 0.202018 0.148074 0.400000
endloop
endfacet
facet normal 0.000000 -1.000000 0.000000
outer loop
vertex 0.202018 0.148074 0.000000
vertex 0.152018 0.148074 0.400000
vertex 0.152018 0.148074 0.000000
endloop
endfacet
facet normal 1.000000 0.000000 0.000000
outer loop
vertex 0.202018 0.198074 0.900000
vertex 0.202018 0.148074 0.000000
vertex 0.202018 0.198074 0.000000
endloop
endfacet
facet normal 1.000000 -0.000001 0.000000
outer loop
vertex 0.202018 0.148074 0.000000
vertex 0.202018 0.198074 0.900000
vertex 0.202018 0.148074 0.400000
endloop
endfacet
facet normal 1.000000 0.000000 0.000000
outer loop
vertex 0.202018 0.148074 0.400000
vertex 0.202018 0.198074 0.900000
vertex 0.202018 0.148074 0.500000
endloop
endfacet
facet normal 1.000000 0.000001 0.000000
outer loop
vertex 0.202018 0.148074 0.500000
vertex 0.202018 0.198074 0.900000
vertex 0.202018 0.148074 0.679423
endloop
endfacet
facet normal 1.000000 0.000000 0.000000
outer loop
vertex 0.202018 0.148074 0.679423
vertex 0.202018 0.198074 0.900000
vertex 0.202018 0.148074 0.728632
endloop
endfacet
facet normal 1.000000 -0.000000 0.000000
outer loop
vertex 0.202018 0.148074 0.728632
vertex 0.202018 0.198074 0.900000
vertex 0.202018 0.148074 0.853800
endloop
endfacet
facet normal 1.000000 0.000000 0.000000
outer loop
vertex 0.202018 0.148074 0.853800
vertex 0.202018 0.198074 0.900000
vertex 0.202018 0.148074 0.900000
endloop
endfacet
facet normal 0.000000 1.000000 0.000000
outer loop
vertex 0.152018 0.198074 0.000000
vertex 0.202018 0.198074 0.900000
vertex 0.202018 0.198074 0.000000
endloop
endfacet
facet normal 0.000000 1.000000 0.000000
outer loop
vertex 0.202018 0.198074 0.900000
vertex 0.152018 0.198074 0.000000
vertex 0.152018 0.198074 0.900000
endloop
endfacet
facet normal 0.000000 1.000000 0.000000
outer loop
vertex 0.152018 0.198074 0.900000
vertex 0.152018 0.198074 0.000000
vertex 0.152018 0.198074 0.400000
endloop
endfacet
facet normal 0.000000 -1.000000 0.000000
outer loop
vertex 0.152018 0.198074 0.900000
vertex 0.152018 0.198074 0.400000
vertex 0.152018 0.198074 0.500000
endloop
endfacet
facet normal 0.000000 0.000000 -1.000000
outer loop
vertex -0.197982 -0.151926 0.000000
vertex -0.147982 -0.201926 0.000000
vertex -0.197982 -0.201926 0.000000
endloop
endfacet
facet normal 0.000000 0.000000 -1.000000
outer loop
vertex -0.147982 -0.201926 0.000000
vertex -0.197982 -0.151926 0.000000
vertex -0.147982 -0.151926 0.000000
endloop
endfacet
facet normal 1.000000 -0.000001 0.000000
outer loop
vertex -0.147982 -0.151926 0.400000
vertex -0.147982 -0.201926 0.000000
vertex -0.147982 -0.151926 0.000000
endloop
endfacet
facet normal 1.000000 -0.000000 0.000000
outer loop
vertex -0.147982 -0.201926 0.000000
vertex -0.147982 -0.151926 0.400000
vertex -0.147982 -0.201926 0.400000
endloop
endfacet
facet normal 0.000000 1.000000 0.000000
outer loop
vertex -0.197982 -0.151926 0.000000
vertex -0.147982 -0.151926 0.400000
vertex -0.147982 -0.151926 0.000000
endloop
endfacet
facet normal 0.000000 1.000000 0.000000
outer loop
vertex -0.147982 -0.151926 0.400000
vertex -0.197982 -0.151926 0.000000
vertex -0.197982 -0.151926 0.400000
endloop
endfacet
facet normal -1.000000 0.000000 0.000000
outer loop
vertex -0.197982 -0.201926 0.500000
vertex -0.197982 -0.151926 0.000000
vertex -0.197982 -0.201926 0.000000
endloop
endfacet
facet normal -1.000000 -0.000000 0.000000
outer loop
vertex -0.197982 -0.151926 0.000000
vertex -0.197982 -0.201926 0.500000
vertex -0.197982 -0.151926 0.400000
endloop
endfacet
facet normal -1.000000 0.000000 0.000000
outer loop
vertex -0.197982 -0.151926 0.400000
vertex -0.197982 -0.201926 0.500000
vertex -0.197982 -0.151926 0.500000
endloop
endfacet
facet normal 0.000000 -1.000000 0.000000
outer loop
vertex -0.197982 -0.201926 0.500000
vertex -0.147982 -0.201926 0.400000
vertex -0.147982 -0.201926 0.500000
endloop
endfacet
facet normal 0.000000 -1.000000 0.000000
outer loop
vertex -0.147982 -0.201926 0.400000
vertex -0.197982 -0.201926 0.500000
vertex -0.147982 -0.201926 0.000000
endloop
endfacet
facet normal 0.000000 -1.000000 0.000000
outer loop
vertex -0.147982 -0.201926 0.000000
vertex -0.197982 -0.201926 0.500000
vertex -0.197982 -0.201926 0.000000
endloop
endfacet
facet normal 0.000000 0.000000 -1.000000
outer loop
vertex -0.197982 0.198074 0.000000
vertex -0.147982 0.148074 0.000000
vertex -0.197982 0.148074 0.000000
endloop
endfacet
facet normal 0.000000 0.000000 -1.000000
outer loop
vertex -0.147982 0.148074 0.000000
vertex -0.197982 0.198074 0.000000
vertex -0.147982 0.198074 0.000000
endloop
endfacet
facet normal 0.000001 -1.000000 0.000000
outer loop
vertex -0.197982 0.148074 0.400000
vertex -0.147982 0.148074 0.000000
vertex -0.147982 0.148074 0.400000
endloop
endfacet
facet normal 0.000001 -1.000000 0.000000
outer loop
vertex -0.147982 0.148074 0.000000
vertex -0.197982 0.148074 0.400000
vertex -0.197982 0.148074 0.000000
endloop
endfacet
facet normal 1.000000 0.000000 0.000000
outer loop
vertex -0.147982 0.198074 0.400000
vertex -0.147982 0.148074 0.000000
vertex -0.147982 0.198074 0.000000
endloop
endfacet
facet normal 1.000000 0.000001 0.000000
outer loop
vertex -0.147982 0.148074 0.000000
vertex -0.147982 0.198074 0.400000
vertex -0.147982 0.148074 0.400000
endloop
endfacet
facet normal -0.000001 1.000000 0.000000
outer loop
vertex -0.197982 0.198074 0.000000
vertex -0.147982 0.198074 0.400000
vertex -0.147982 0.198074 0.000000
endloop
endfacet
facet normal -0.000001 1.000000 0.000000
outer loop
vertex -0.147982 0.198074 0.400000
vertex -0.197982 0.198074 0.000000
vertex -0.147982 0.198074 0.500000
endloop
endfacet
facet normal -0.000001 1.000000 0.000000
outer loop
vertex -0.147982 0.198074 0.500000
vertex -0.197982 0.198074 0.000000
vertex -0.197982 0.198074 0.500000
endloop
endfacet
facet normal -1.000000 0.000001 0.000000
outer loop
vertex -0.197982 0.148074 0.400000
vertex -0.197982 0.198074 0.000000
vertex -0.197982 0.148074 0.000000
endloop
endfacet
facet normal -1.000000 0.000001 0.000000
outer loop
vertex -0.197982 0.198074 0.000000
vertex -0.197982 0.148074 0.400000
vertex -0.197982 0.198074 0.500000
endloop
endfacet
facet normal -1.000000 0.000001 0.000000
outer loop
vertex -0.197982 0.198074 0.500000
vertex -0.197982 0.148074 0.400000
vertex -0.197982 0.148074 0.500000
endloop
endfacet
facet normal 0.000000 0.000000 1.000000
outer loop
vertex 0.152018 0.198074 0.500000
vertex -0.147982 0.148074 0.500000
vertex 0.152018 0.148074 0.500000
endloop
endfacet
facet normal 0.000000 0.000000 1.000000
outer loop
vertex -0.147982 0.148074 0.500000
vertex 0.152018 0.198074 0.500000
vertex -0.147982 0.198074 0.500000
endloop
endfacet
facet normal 0.000000 0.000000 1.000000
outer loop
vertex 0.202018 0.148074 0.500000
vertex 0.152018 -0.151926 0.500000
vertex 0.202018 -0.151926 0.500000
endloop
endfacet
facet normal 0.000000 0.000000 1.000000
outer loop
vertex 0.152018 -0.151926 0.500000
vertex 0.202018 0.148074 0.500000
vertex -0.147982 -0.151926 0.500000
endloop
endfacet
facet normal 0.000000 0.000000 1.000000
outer loop
vertex -0.147982 -0.151926 0.500000
vertex 0.202018 0.148074 0.500000
vertex -0.197982 -0.151926 0.500000
endloop
endfacet
facet normal 0.000000 0.000000 1.000000
outer loop
vertex -0.197982 -0.151926 0.500000
vertex 0.202018 0.148074 0.500000
vertex 0.152018 0.148074 0.500000
endloop
endfacet
facet normal 0.000000 0.000000 1.000000
outer loop
vertex -0.197982 -0.151926 0.500000
vertex 0.152018 0.148074 0.500000
vertex -0.197982 0.148074 0.500000
endloop
endfacet
facet normal 0.000000 0.000000 0.000000
outer loop
vertex -0.197982 0.148074 0.500000
vertex 0.152018 0.148074 0.500000
vertex -0.147982 0.148074 0.500000
endloop
endfacet
facet normal 0.000000 0.000000 1.000000
outer loop
vertex 0.152018 -0.151926 0.500000
vertex -0.147982 -0.201926 0.500000
vertex 0.152018 -0.201926 0.500000
endloop
endfacet
facet normal 0.000000 0.000000 1.000000
outer loop
vertex -0.147982 -0.201926 0.500000
vertex 0.152018 -0.151926 0.500000
vertex -0.147982 -0.151926 0.500000
endloop
endfacet
facet normal 0.000000 0.000000 1.000000
outer loop
vertex 0.202018 0.148074 0.900000
vertex 0.152018 -0.151926 0.900000
vertex 0.202018 -0.151926 0.900000
endloop
endfacet
facet normal 0.000000 0.000000 1.000000
outer loop
vertex 0.152018 -0.151926 0.900000
vertex 0.202018 0.148074 0.900000
vertex 0.152018 0.148074 0.900000
endloop
endfacet
facet normal -1.000000 -0.000000 0.000000
outer loop
vertex 0.152018 -0.151926 0.900000
vertex 0.152018 0.148074 0.853800
vertex 0.152018 -0.151926 0.853800
endloop
endfacet
facet normal -1.000000 -0.000000 0.000000
outer loop
vertex 0.152018 0.148074 0.853800
vertex 0.152018 -0.151926 0.900000
vertex 0.152018 0.148074 0.900000
endloop
endfacet
facet normal 0.000000 0.000000 1.000000
outer loop
vertex 0.202018 0.198074 0.900000
vertex 0.152018 0.148074 0.900000
vertex 0.202018 0.148074 0.900000
endloop
endfacet
facet normal 0.000000 0.000000 1.000000
outer loop
vertex 0.152018 0.148074 0.900000
vertex 0.202018 0.198074 0.900000
vertex 0.152018 0.198074 0.900000
endloop
endfacet
facet normal -1.000000 0.000000 0.000000
outer loop
vertex 0.152018 0.148074 0.679423
vertex 0.152018 0.198074 0.500000
vertex 0.152018 0.148074 0.500000
endloop
endfacet
facet normal -1.000000 0.000000 0.000000
outer loop
vertex 0.152018 0.198074 0.500000
vertex 0.152018 0.148074 0.679423
vertex 0.152018 0.198074 0.900000
endloop
endfacet
facet normal -1.000000 0.000001 0.000000
outer loop
vertex 0.152018 0.198074 0.900000
vertex 0.152018 0.148074 0.679423
vertex 0.152018 0.148074 0.728632
endloop
endfacet
facet normal -1.000000 0.000000 0.000000
outer loop
vertex 0.152018 0.198074 0.900000
vertex 0.152018 0.148074 0.728632
vertex 0.152018 0.148074 0.853800
endloop
endfacet
facet normal -1.000000 0.000000 0.000000
outer loop
vertex 0.152018 0.198074 0.900000
vertex 0.152018 0.148074 0.853800
vertex 0.152018 0.148074 0.900000
endloop
endfacet
facet normal -0.000001 0.000000 1.000000
outer loop
vertex 0.202018 -0.151926 0.900000
vertex 0.152018 -0.201926 0.900000
vertex 0.202018 -0.201926 0.900000
endloop
endfacet
facet normal 0.000000 0.000000 1.000000
outer loop
vertex 0.152018 -0.201926 0.900000
vertex 0.202018 -0.151926 0.900000
vertex 0.152018 -0.151926 0.900000
endloop
endfacet
facet normal -1.000000 0.000000 0.000000
outer loop
vertex 0.152018 -0.201926 0.900000
vertex 0.152018 -0.151926 0.500000
vertex 0.152018 -0.201926 0.500000
endloop
endfacet
facet normal -1.000000 0.000001 0.000000
outer loop
vertex 0.152018 -0.151926 0.500000
vertex 0.152018 -0.201926 0.900000
vertex 0.152018 -0.151926 0.679423
endloop
endfacet
facet normal -1.000000 -0.000002 0.000000
outer loop
vertex 0.152018 -0.151926 0.679423
vertex 0.152018 -0.201926 0.900000
vertex 0.152018 -0.151926 0.728632
endloop
endfacet
facet normal -1.000000 -0.000000 0.000000
outer loop
vertex 0.152018 -0.151926 0.728632
vertex 0.152018 -0.201926 0.900000
vertex 0.152018 -0.151926 0.853800
endloop
endfacet
facet normal -1.000000 0.000000 0.000000
outer loop
vertex 0.152018 -0.151926 0.853800
vertex 0.152018 -0.201926 0.900000
vertex 0.152018 -0.151926 0.900000
endloop
endfacet
facet normal -1.000000 -0.000000 0.000000
outer loop
vertex 0.152018 -0.151926 0.728632
vertex 0.152018 0.148074 0.679423
vertex 0.152018 -0.151926 0.679423
endloop
endfacet
facet normal -1.000000 -0.000000 0.000000
outer loop
vertex 0.152018 0.148074 0.679423
vertex 0.152018 -0.151926 0.728632
vertex 0.152018 0.148074 0.728632
endloop
endfacet
facet normal 0.000000 0.000000 1.000000
outer loop
vertex 0.202018 0.148074 0.728632
vertex 0.152018 -0.151926 0.728632
vertex 0.202018 -0.151926 0.728632
endloop
endfacet
facet normal 0.000000 0.000000 1.000000
outer loop
vertex 0.152018 -0.151926 0.728632
vertex 0.202018 0.148074 0.728632
vertex 0.152018 0.148074 0.728632
endloop
endfacet
facet normal 0.000000 0.000000 -1.000000
outer loop
vertex 0.152018 0.148074 0.853800
vertex 0.202018 -0.151926 0.853800
vertex 0.152018 -0.151926 0.853800
endloop
endfacet
facet normal 0.000000 0.000000 -1.000000
outer loop
vertex 0.202018 -0.151926 0.853800
vertex 0.152018 0.148074 0.853800
vertex 0.202018 0.148074 0.853800
endloop
endfacet
facet normal 1.000000 0.000000 0.000000
outer loop
vertex 0.202018 0.148074 0.500000
vertex 0.202018 -0.151926 0.400000
vertex 0.202018 0.148074 0.400000
endloop
endfacet
facet normal 1.000000 0.000000 0.000000
outer loop
vertex 0.202018 -0.151926 0.400000
vertex 0.202018 0.148074 0.500000
vertex 0.202018 -0.151926 0.500000
endloop
endfacet
facet normal 0.000000 1.000000 0.000000
outer loop
vertex 0.152018 -0.151926 0.728632
vertex 0.202018 -0.151926 0.853800
vertex 0.202018 -0.151926 0.728632
endloop
endfacet
facet normal 0.000000 1.000000 0.000000
outer loop
vertex 0.202018 -0.151926 0.853800
vertex 0.152018 -0.151926 0.728632
vertex 0.152018 -0.151926 0.853800
endloop
endfacet
facet normal 0.000000 -1.000000 0.000000
outer loop
vertex 0.152018 0.148074 0.728632
vertex 0.202018 0.148074 0.679423
vertex 0.202018 0.148074 0.728632
endloop
endfacet
facet normal 0.000000 -1.000000 0.000000
outer loop
vertex 0.202018 0.148074 0.679423
vertex 0.152018 0.148074 0.728632
vertex 0.152018 0.148074 0.679423
endloop
endfacet
facet normal 0.000000 -1.000000 0.000000
outer loop
vertex 0.152018 0.148074 0.853800
vertex 0.202018 0.148074 0.728632
vertex 0.202018 0.148074 0.853800
endloop
endfacet
facet normal 0.000000 -1.000000 0.000000
outer loop
vertex 0.202018 0.148074 0.728632
vertex 0.152018 0.148074 0.853800
vertex 0.152018 0.148074 0.728632
endloop
endfacet
facet normal 0.000000 1.000000 0.000000
outer loop
vertex 0.202018 -0.151926 0.853800
vertex 0.152018 -0.151926 0.900000
vertex 0.202018 -0.151926 0.900000
endloop
endfacet
facet normal 0.000000 1.000000 0.000000
outer loop
vertex 0.152018 -0.151926 0.900000
vertex 0.202018 -0.151926 0.853800
vertex 0.152018 -0.151926 0.853800
endloop
endfacet
facet normal 0.000000 0.000000 -1.000000
outer loop
vertex 0.152018 0.148074 0.679423
vertex 0.202018 -0.151926 0.679423
vertex 0.152018 -0.151926 0.679423
endloop
endfacet
facet normal 0.000000 0.000000 -1.000000
outer loop
vertex 0.202018 -0.151926 0.679423
vertex 0.152018 0.148074 0.679423
vertex 0.202018 0.148074 0.679423
endloop
endfacet
facet normal 0.000000 1.000000 0.000000
outer loop
vertex 0.152018 -0.151926 0.500000
vertex 0.202018 -0.151926 0.679423
vertex 0.202018 -0.151926 0.500000
endloop
endfacet
facet normal 0.000000 1.000000 0.000000
outer loop
vertex 0.202018 -0.151926 0.679423
vertex 0.152018 -0.151926 0.500000
vertex 0.152018 -0.151926 0.679423
endloop
endfacet
facet normal 0.000000 -1.000000 0.000000
outer loop
vertex 0.202018 0.148074 0.500000
vertex 0.152018 0.148074 0.400000
vertex 0.202018 0.148074 0.400000
endloop
endfacet
facet normal 0.000000 -1.000000 0.000000
outer loop
vertex 0.152018 0.148074 0.400000
vertex 0.202018 0.148074 0.500000
vertex 0.152018 0.148074 0.500000
endloop
endfacet
facet normal 1.000000 0.000000 0.000000
outer loop
vertex 0.202018 0.148074 0.728632
vertex 0.202018 -0.151926 0.679423
vertex 0.202018 0.148074 0.679423
endloop
endfacet
facet normal 1.000000 0.000000 0.000000
outer loop
vertex 0.202018 -0.151926 0.679423
vertex 0.202018 0.148074 0.728632
vertex 0.202018 -0.151926 0.728632
endloop
endfacet
facet normal 0.000000 -1.000000 0.000000
outer loop
vertex 0.152018 0.148074 0.679423
vertex 0.202018 0.148074 0.500000
vertex 0.202018 0.148074 0.679423
endloop
endfacet
facet normal 0.000000 -1.000000 0.000000
outer loop
vertex 0.202018 0.148074 0.500000
vertex 0.152018 0.148074 0.679423
vertex 0.152018 0.148074 0.500000
endloop
endfacet
facet normal 0.000000 1.000000 0.000000
outer loop
vertex 0.152018 -0.151926 0.679423
vertex 0.202018 -0.151926 0.728632
vertex 0.202018 -0.151926 0.679423
endloop
endfacet
facet normal 0.000000 1.000000 0.000000
outer loop
vertex 0.202018 -0.151926 0.728632
vertex 0.152018 -0.151926 0.679423
vertex 0.152018 -0.151926 0.728632
endloop
endfacet
endsolid Exported from Blender-4.0.2
