solid MensDesk
  facet normal -1.000000e+00 -0.000000e+00  0.000000e+00
    outer loop
      vertex   4.000000e-01  4.500000e-01  7.300000e-01
      vertex   4.000000e-01  4.000000e-01  7.000000e-01
      vertex   4.000000e-01  4.000000e-01  7.300000e-01
    endloop
  endfacet
  facet normal -1.000000e+00  0.000000e+00  0.000000e+00
    outer loop
      vertex   4.000000e-01  4.000000e-01  7.000000e-01
      vertex   4.000000e-01  4.500000e-01  7.300000e-01
      vertex   4.000000e-01  4.500000e-01  7.000000e-01
    endloop
  endfacet
  facet normal  0.000000e+00 -1.000000e+00 -0.000000e+00
    outer loop
      vertex   4.500000e-01  4.000000e-01  7.300000e-01
      vertex   4.000000e-01  4.000000e-01  7.000000e-01
      vertex   4.500000e-01  4.000000e-01  7.000000e-01
    endloop
  endfacet
  facet normal  0.000000e+00 -1.000000e+00  0.000000e+00
    outer loop
      vertex   4.000000e-01  4.000000e-01  7.000000e-01
      vertex   4.500000e-01  4.000000e-01  7.300000e-01
      vertex   4.000000e-01  4.000000e-01  7.300000e-01
    endloop
  endfacet
  facet normal  0.000000e+00 -1.000000e+00 -0.000000e+00
    outer loop
      vertex   4.500000e-01  4.500000e-01  7.300000e-01
      vertex   4.000000e-01  4.500000e-01  7.000000e-01
      vertex   4.500000e-01  4.500000e-01  7.000000e-01
    endloop
  endfacet
  facet normal  0.000000e+00 -1.000000e+00  0.000000e+00
    outer loop
      vertex   4.000000e-01  4.500000e-01  7.000000e-01
      vertex   4.500000e-01  4.500000e-01  7.300000e-01
      vertex   4.000000e-01  4.500000e-01  7.300000e-01
    endloop
  endfacet
  facet normal -1.000000e+00 -0.000000e+00  0.000000e+00
    outer loop
      vertex   4.500000e-01  4.500000e-01  7.300000e-01
      vertex   4.500000e-01  4.000000e-01  7.000000e-01
      vertex   4.500000e-01  4.000000e-01  7.300000e-01
    endloop
  endfacet
  facet normal -1.000000e+00  0.000000e+00  0.000000e+00
    outer loop
      vertex   4.500000e-01  4.000000e-01  7.000000e-01
      vertex   4.500000e-01  4.500000e-01  7.300000e-01
      vertex   4.500000e-01  4.500000e-01  7.000000e-01
    endloop
  endfacet
  facet normal  0.000000e+00 -1.000000e+00 -0.000000e+00
    outer loop
      vertex   1.350000e+00  4.000000e-01  7.300000e-01
      vertex   4.500000e-01  4.000000e-01  7.000000e-01
      vertex   1.350000e+00  4.000000e-01  7.000000e-01
    endloop
  endfacet
  facet normal  0.000000e+00 -1.000000e+00  0.000000e+00
    outer loop
      vertex   4.500000e-01  4.000000e-01  7.000000e-01
      vertex   1.350000e+00  4.000000e-01  7.300000e-01
      vertex   4.500000e-01  4.000000e-01  7.300000e-01
    endloop
  endfacet
  facet normal  0.000000e+00  0.000000e+00  1.000000e+00
    outer loop
      vertex   4.500000e-01  4.000000e-01  7.300000e-01
      vertex   4.000000e-01  4.500000e-01  7.300000e-01
      vertex   4.000000e-01  4.000000e-01  7.300000e-01
    endloop
  endfacet
  facet normal -0.000000e+00  0.000000e+00  1.000000e+00
    outer loop
      vertex   4.000000e-01  4.500000e-01  7.300000e-01
      vertex   4.500000e-01  4.000000e-01  7.300000e-01
      vertex   4.500000e-01  4.500000e-01  7.300000e-01
    endloop
  endfacet
  facet normal  1.000000e+00  0.000000e+00  0.000000e+00
    outer loop
      vertex   1.400000e+00  9.500000e-01  7.000000e-01
      vertex   1.400000e+00  4.500000e-01  7.300000e-01
      vertex   1.400000e+00  4.500000e-01  7.000000e-01
    endloop
  endfacet
  facet normal  1.000000e+00 -0.000000e+00  0.000000e+00
    outer loop
      vertex   1.400000e+00  4.500000e-01  7.300000e-01
      vertex   1.400000e+00  9.500000e-01  7.000000e-01
      vertex   1.400000e+00  9.500000e-01  7.300000e-01
    endloop
  endfacet
  facet normal  0.000000e+00  1.000000e+00  0.000000e+00
    outer loop
      vertex   1.350000e+00  4.500000e-01  7.300000e-01
      vertex   1.400000e+00  4.500000e-01  7.000000e-01
      vertex   1.350000e+00  4.500000e-01  7.000000e-01
    endloop
  endfacet
  facet normal  0.000000e+00  1.000000e+00 -0.000000e+00
    outer loop
      vertex   1.400000e+00  4.500000e-01  7.000000e-01
      vertex   1.350000e+00  4.500000e-01  7.300000e-01
      vertex   1.400000e+00  4.500000e-01  7.300000e-01
    endloop
  endfacet
  facet normal -1.000000e+00 -0.000000e+00  0.000000e+00
    outer loop
      vertex   1.350000e+00  4.500000e-01  7.300000e-01
      vertex   1.350000e+00  4.000000e-01  7.000000e-01
      vertex   1.350000e+00  4.000000e-01  7.300000e-01
    endloop
  endfacet
  facet normal -1.000000e+00  0.000000e+00  0.000000e+00
    outer loop
      vertex   1.350000e+00  4.000000e-01  7.000000e-01
      vertex   1.350000e+00  4.500000e-01  7.300000e-01
      vertex   1.350000e+00  4.500000e-01  7.000000e-01
    endloop
  endfacet
  facet normal  0.000000e+00  0.000000e+00  1.000000e+00
    outer loop
      vertex   1.400000e+00  4.000000e-01  7.300000e-01
      vertex   1.350000e+00  4.500000e-01  7.300000e-01
      vertex   1.350000e+00  4.000000e-01  7.300000e-01
    endloop
  endfacet
  facet normal -0.000000e+00  0.000000e+00  1.000000e+00
    outer loop
      vertex   1.350000e+00  4.500000e-01  7.300000e-01
      vertex   1.400000e+00  4.000000e-01  7.300000e-01
      vertex   1.400000e+00  4.500000e-01  7.300000e-01
    endloop
  endfacet
  facet normal -0.000000e+00  0.000000e+00 -1.000000e+00
    outer loop
      vertex   1.400000e+00  4.500000e-01  2.775558e-16
      vertex   1.350000e+00  4.000000e-01  2.775558e-16
      vertex   1.350000e+00  4.500000e-01  2.775558e-16
    endloop
  endfacet
  facet normal  0.000000e+00  0.000000e+00 -1.000000e+00
    outer loop
      vertex   1.350000e+00  4.000000e-01  2.775558e-16
      vertex   1.400000e+00  4.500000e-01  2.775558e-16
      vertex   1.400000e+00  4.000000e-01  2.775558e-16
    endloop
  endfacet
  facet normal  1.000000e+00  0.000000e+00  0.000000e+00
    outer loop
      vertex   1.400000e+00  4.500000e-01  2.775558e-16
      vertex   1.400000e+00  4.000000e-01  7.300000e-01
      vertex   1.400000e+00  4.000000e-01  2.775558e-16
    endloop
  endfacet
  facet normal  1.000000e+00 -0.000000e+00  0.000000e+00
    outer loop
      vertex   1.400000e+00  4.000000e-01  7.300000e-01
      vertex   1.400000e+00  4.500000e-01  2.775558e-16
      vertex   1.400000e+00  4.500000e-01  7.300000e-01
    endloop
  endfacet
  facet normal  0.000000e+00  0.000000e+00  0.000000e+00
    outer loop
      vertex   1.400000e+00  4.500000e-01  7.300000e-01
      vertex   1.400000e+00  4.500000e-01  2.775558e-16
      vertex   1.400000e+00  4.500000e-01  7.000000e-01
    endloop
  endfacet
  facet normal  0.000000e+00  1.000000e+00  0.000000e+00
    outer loop
      vertex   1.350000e+00  4.500000e-01  7.000000e-01
      vertex   1.400000e+00  4.500000e-01  2.775558e-16
      vertex   1.350000e+00  4.500000e-01  2.775558e-16
    endloop
  endfacet
  facet normal  0.000000e+00  1.000000e+00 -0.000000e+00
    outer loop
      vertex   1.400000e+00  4.500000e-01  2.775558e-16
      vertex   1.350000e+00  4.500000e-01  7.000000e-01
      vertex   1.400000e+00  4.500000e-01  7.000000e-01
    endloop
  endfacet
  facet normal -1.000000e+00 -0.000000e+00  0.000000e+00
    outer loop
      vertex   1.350000e+00  4.500000e-01  7.000000e-01
      vertex   1.350000e+00  4.000000e-01  2.775558e-16
      vertex   1.350000e+00  4.000000e-01  7.000000e-01
    endloop
  endfacet
  facet normal -1.000000e+00  0.000000e+00  0.000000e+00
    outer loop
      vertex   1.350000e+00  4.000000e-01  2.775558e-16
      vertex   1.350000e+00  4.500000e-01  7.000000e-01
      vertex   1.350000e+00  4.500000e-01  2.775558e-16
    endloop
  endfacet
  facet normal  0.000000e+00 -1.000000e+00 -0.000000e+00
    outer loop
      vertex   1.400000e+00  4.000000e-01  7.300000e-01
      vertex   1.350000e+00  4.000000e-01  2.775558e-16
      vertex   1.400000e+00  4.000000e-01  2.775558e-16
    endloop
  endfacet
  facet normal  0.000000e+00 -1.000000e+00  0.000000e+00
    outer loop
      vertex   1.350000e+00  4.000000e-01  2.775558e-16
      vertex   1.400000e+00  4.000000e-01  7.300000e-01
      vertex   1.350000e+00  4.000000e-01  7.000000e-01
    endloop
  endfacet
  facet normal  0.000000e+00 -1.000000e+00  0.000000e+00
    outer loop
      vertex   1.350000e+00  4.000000e-01  7.000000e-01
      vertex   1.400000e+00  4.000000e-01  7.300000e-01
      vertex   1.350000e+00  4.000000e-01  7.300000e-01
    endloop
  endfacet
  facet normal -1.000000e+00 -0.000000e+00  0.000000e+00
    outer loop
      vertex   1.350000e+00  1.000000e+00  7.300000e-01
      vertex   1.350000e+00  9.500000e-01  7.000000e-01
      vertex   1.350000e+00  9.500000e-01  7.300000e-01
    endloop
  endfacet
  facet normal -1.000000e+00  0.000000e+00  0.000000e+00
    outer loop
      vertex   1.350000e+00  9.500000e-01  7.000000e-01
      vertex   1.350000e+00  1.000000e+00  7.300000e-01
      vertex   1.350000e+00  1.000000e+00  7.000000e-01
    endloop
  endfacet
  facet normal  0.000000e+00 -1.000000e+00 -0.000000e+00
    outer loop
      vertex   1.400000e+00  9.500000e-01  7.300000e-01
      vertex   1.350000e+00  9.500000e-01  7.000000e-01
      vertex   1.400000e+00  9.500000e-01  7.000000e-01
    endloop
  endfacet
  facet normal  0.000000e+00 -1.000000e+00  0.000000e+00
    outer loop
      vertex   1.350000e+00  9.500000e-01  7.000000e-01
      vertex   1.400000e+00  9.500000e-01  7.300000e-01
      vertex   1.350000e+00  9.500000e-01  7.300000e-01
    endloop
  endfacet
  facet normal  0.000000e+00  0.000000e+00  1.000000e+00
    outer loop
      vertex   1.400000e+00  9.500000e-01  7.300000e-01
      vertex   1.350000e+00  1.000000e+00  7.300000e-01
      vertex   1.350000e+00  9.500000e-01  7.300000e-01
    endloop
  endfacet
  facet normal -0.000000e+00  0.000000e+00  1.000000e+00
    outer loop
      vertex   1.350000e+00  1.000000e+00  7.300000e-01
      vertex   1.400000e+00  9.500000e-01  7.300000e-01
      vertex   1.400000e+00  1.000000e+00  7.300000e-01
    endloop
  endfacet
  facet normal -0.000000e+00  0.000000e+00 -1.000000e+00
    outer loop
      vertex   1.400000e+00  1.000000e+00  9.714451e-17
      vertex   1.350000e+00  9.500000e-01  9.714451e-17
      vertex   1.350000e+00  1.000000e+00  9.714451e-17
    endloop
  endfacet
  facet normal  0.000000e+00  0.000000e+00 -1.000000e+00
    outer loop
      vertex   1.350000e+00  9.500000e-01  9.714451e-17
      vertex   1.400000e+00  1.000000e+00  9.714451e-17
      vertex   1.400000e+00  9.500000e-01  9.714451e-17
    endloop
  endfacet
  facet normal  1.000000e+00  0.000000e+00  0.000000e+00
    outer loop
      vertex   1.400000e+00  1.000000e+00  9.714451e-17
      vertex   1.400000e+00  9.500000e-01  7.000000e-01
      vertex   1.400000e+00  9.500000e-01  9.714451e-17
    endloop
  endfacet
  facet normal  1.000000e+00 -0.000000e+00  0.000000e+00
    outer loop
      vertex   1.400000e+00  9.500000e-01  7.000000e-01
      vertex   1.400000e+00  1.000000e+00  9.714451e-17
      vertex   1.400000e+00  9.500000e-01  7.300000e-01
    endloop
  endfacet
  facet normal  1.000000e+00 -0.000000e+00  0.000000e+00
    outer loop
      vertex   1.400000e+00  9.500000e-01  7.300000e-01
      vertex   1.400000e+00  1.000000e+00  9.714451e-17
      vertex   1.400000e+00  1.000000e+00  7.300000e-01
    endloop
  endfacet
  facet normal  0.000000e+00  1.000000e+00  0.000000e+00
    outer loop
      vertex   1.350000e+00  1.000000e+00  7.000000e-01
      vertex   1.400000e+00  1.000000e+00  9.714451e-17
      vertex   1.350000e+00  1.000000e+00  9.714451e-17
    endloop
  endfacet
  facet normal  0.000000e+00  1.000000e+00 -0.000000e+00
    outer loop
      vertex   1.400000e+00  1.000000e+00  9.714451e-17
      vertex   1.350000e+00  1.000000e+00  7.000000e-01
      vertex   1.400000e+00  1.000000e+00  7.300000e-01
    endloop
  endfacet
  facet normal  0.000000e+00  1.000000e+00  0.000000e+00
    outer loop
      vertex   1.400000e+00  1.000000e+00  7.300000e-01
      vertex   1.350000e+00  1.000000e+00  7.000000e-01
      vertex   1.350000e+00  1.000000e+00  7.300000e-01
    endloop
  endfacet
  facet normal -1.000000e+00 -0.000000e+00  0.000000e+00
    outer loop
      vertex   1.350000e+00  1.000000e+00  7.000000e-01
      vertex   1.350000e+00  9.500000e-01  9.714451e-17
      vertex   1.350000e+00  9.500000e-01  7.000000e-01
    endloop
  endfacet
  facet normal -1.000000e+00  0.000000e+00  0.000000e+00
    outer loop
      vertex   1.350000e+00  9.500000e-01  9.714451e-17
      vertex   1.350000e+00  1.000000e+00  7.000000e-01
      vertex   1.350000e+00  1.000000e+00  9.714451e-17
    endloop
  endfacet
  facet normal  0.000000e+00 -1.000000e+00 -0.000000e+00
    outer loop
      vertex   1.400000e+00  9.500000e-01  7.000000e-01
      vertex   1.350000e+00  9.500000e-01  9.714451e-17
      vertex   1.400000e+00  9.500000e-01  9.714451e-17
    endloop
  endfacet
  facet normal  0.000000e+00 -1.000000e+00  0.000000e+00
    outer loop
      vertex   1.350000e+00  9.500000e-01  9.714451e-17
      vertex   1.400000e+00  9.500000e-01  7.000000e-01
      vertex   1.350000e+00  9.500000e-01  7.000000e-01
    endloop
  endfacet
  facet normal  0.000000e+00 -1.000000e+00  0.000000e+00
    outer loop
      vertex   4.000000e-01  4.000000e-01  2.775558e-16
      vertex   0.000000e+00  4.000000e-01  7.300000e-01
      vertex   0.000000e+00  4.000000e-01  2.775558e-16
    endloop
  endfacet
  facet normal  0.000000e+00 -1.000000e+00  0.000000e+00
    outer loop
      vertex   0.000000e+00  4.000000e-01  7.300000e-01
      vertex   4.000000e-01  4.000000e-01  2.775558e-16
      vertex   4.000000e-01  4.000000e-01  7.000000e-01
    endloop
  endfacet
  facet normal  0.000000e+00 -1.000000e+00  0.000000e+00
    outer loop
      vertex   0.000000e+00  4.000000e-01  7.300000e-01
      vertex   4.000000e-01  4.000000e-01  7.000000e-01
      vertex   4.000000e-01  4.000000e-01  7.300000e-01
    endloop
  endfacet
  facet normal -1.000000e+00 -0.000000e+00  0.000000e+00
    outer loop
      vertex   0.000000e+00  1.000000e+00  7.300000e-01
      vertex   0.000000e+00  4.000000e-01  2.775558e-16
      vertex   0.000000e+00  4.000000e-01  7.300000e-01
    endloop
  endfacet
  facet normal -1.000000e+00  0.000000e+00  0.000000e+00
    outer loop
      vertex   0.000000e+00  4.000000e-01  2.775558e-16
      vertex   0.000000e+00  1.000000e+00  7.300000e-01
      vertex   0.000000e+00  1.000000e+00  2.775558e-16
    endloop
  endfacet
  facet normal -0.000000e+00  0.000000e+00 -1.000000e+00
    outer loop
      vertex   1.400000e+00  9.500000e-01  7.000000e-01
      vertex   1.350000e+00  4.500000e-01  7.000000e-01
      vertex   1.350000e+00  9.500000e-01  7.000000e-01
    endloop
  endfacet
  facet normal  0.000000e+00  0.000000e+00 -1.000000e+00
    outer loop
      vertex   1.350000e+00  4.500000e-01  7.000000e-01
      vertex   1.400000e+00  9.500000e-01  7.000000e-01
      vertex   1.400000e+00  4.500000e-01  7.000000e-01
    endloop
  endfacet
  facet normal -0.000000e+00  0.000000e+00 -1.000000e+00
    outer loop
      vertex   1.350000e+00  1.000000e+00  7.000000e-01
      vertex   4.500000e-01  9.500000e-01  7.000000e-01
      vertex   4.500000e-01  1.000000e+00  7.000000e-01
    endloop
  endfacet
  facet normal  0.000000e+00  0.000000e+00 -1.000000e+00
    outer loop
      vertex   4.500000e-01  9.500000e-01  7.000000e-01
      vertex   1.350000e+00  1.000000e+00  7.000000e-01
      vertex   4.500000e-01  4.500000e-01  7.000000e-01
    endloop
  endfacet
  facet normal  0.000000e+00  0.000000e+00 -1.000000e+00
    outer loop
      vertex   4.500000e-01  4.500000e-01  7.000000e-01
      vertex   1.350000e+00  1.000000e+00  7.000000e-01
      vertex   4.500000e-01  4.000000e-01  7.000000e-01
    endloop
  endfacet
  facet normal  0.000000e+00  0.000000e+00 -1.000000e+00
    outer loop
      vertex   4.500000e-01  4.000000e-01  7.000000e-01
      vertex   1.350000e+00  1.000000e+00  7.000000e-01
      vertex   1.350000e+00  4.000000e-01  7.000000e-01
    endloop
  endfacet
  facet normal  0.000000e+00  0.000000e+00  0.000000e+00
    outer loop
      vertex   1.350000e+00  4.000000e-01  7.000000e-01
      vertex   1.350000e+00  1.000000e+00  7.000000e-01
      vertex   1.350000e+00  9.500000e-01  7.000000e-01
    endloop
  endfacet
  facet normal  0.000000e+00  0.000000e+00  0.000000e+00
    outer loop
      vertex   1.350000e+00  4.000000e-01  7.000000e-01
      vertex   1.350000e+00  9.500000e-01  7.000000e-01
      vertex   1.350000e+00  4.500000e-01  7.000000e-01
    endloop
  endfacet
  facet normal -0.000000e+00  0.000000e+00 -1.000000e+00
    outer loop
      vertex   4.500000e-01  9.500000e-01  7.000000e-01
      vertex   4.000000e-01  4.500000e-01  7.000000e-01
      vertex   4.000000e-01  9.500000e-01  7.000000e-01
    endloop
  endfacet
  facet normal  0.000000e+00  0.000000e+00 -1.000000e+00
    outer loop
      vertex   4.000000e-01  4.500000e-01  7.000000e-01
      vertex   4.500000e-01  9.500000e-01  7.000000e-01
      vertex   4.500000e-01  4.500000e-01  7.000000e-01
    endloop
  endfacet
  facet normal  0.000000e+00 -1.000000e+00 -0.000000e+00
    outer loop
      vertex   4.500000e-01  9.500000e-01  7.300000e-01
      vertex   4.000000e-01  9.500000e-01  7.000000e-01
      vertex   4.500000e-01  9.500000e-01  7.000000e-01
    endloop
  endfacet
  facet normal  0.000000e+00 -1.000000e+00  0.000000e+00
    outer loop
      vertex   4.000000e-01  9.500000e-01  7.000000e-01
      vertex   4.500000e-01  9.500000e-01  7.300000e-01
      vertex   4.000000e-01  9.500000e-01  7.300000e-01
    endloop
  endfacet
  facet normal  1.000000e+00  0.000000e+00  0.000000e+00
    outer loop
      vertex   4.500000e-01  1.000000e+00  7.000000e-01
      vertex   4.500000e-01  9.500000e-01  7.300000e-01
      vertex   4.500000e-01  9.500000e-01  7.000000e-01
    endloop
  endfacet
  facet normal  1.000000e+00 -0.000000e+00  0.000000e+00
    outer loop
      vertex   4.500000e-01  9.500000e-01  7.300000e-01
      vertex   4.500000e-01  1.000000e+00  7.000000e-01
      vertex   4.500000e-01  1.000000e+00  7.300000e-01
    endloop
  endfacet
  facet normal  0.000000e+00  0.000000e+00  1.000000e+00
    outer loop
      vertex   4.500000e-01  9.500000e-01  7.300000e-01
      vertex   4.000000e-01  1.000000e+00  7.300000e-01
      vertex   4.000000e-01  9.500000e-01  7.300000e-01
    endloop
  endfacet
  facet normal -0.000000e+00  0.000000e+00  1.000000e+00
    outer loop
      vertex   4.000000e-01  1.000000e+00  7.300000e-01
      vertex   4.500000e-01  9.500000e-01  7.300000e-01
      vertex   4.500000e-01  1.000000e+00  7.300000e-01
    endloop
  endfacet
  facet normal  0.000000e+00  0.000000e+00  1.000000e+00
    outer loop
      vertex   1.400000e+00  4.500000e-01  7.300000e-01
      vertex   1.350000e+00  9.500000e-01  7.300000e-01
      vertex   1.350000e+00  4.500000e-01  7.300000e-01
    endloop
  endfacet
  facet normal -0.000000e+00  0.000000e+00  1.000000e+00
    outer loop
      vertex   1.350000e+00  9.500000e-01  7.300000e-01
      vertex   1.400000e+00  4.500000e-01  7.300000e-01
      vertex   1.400000e+00  9.500000e-01  7.300000e-01
    endloop
  endfacet
  facet normal  0.000000e+00  0.000000e+00  1.000000e+00
    outer loop
      vertex   1.350000e+00  4.000000e-01  7.300000e-01
      vertex   4.500000e-01  4.500000e-01  7.300000e-01
      vertex   4.500000e-01  4.000000e-01  7.300000e-01
    endloop
  endfacet
  facet normal -0.000000e+00  0.000000e+00  1.000000e+00
    outer loop
      vertex   4.500000e-01  4.500000e-01  7.300000e-01
      vertex   1.350000e+00  4.000000e-01  7.300000e-01
      vertex   4.500000e-01  9.500000e-01  7.300000e-01
    endloop
  endfacet
  facet normal -0.000000e+00  0.000000e+00  1.000000e+00
    outer loop
      vertex   4.500000e-01  9.500000e-01  7.300000e-01
      vertex   1.350000e+00  4.000000e-01  7.300000e-01
      vertex   4.500000e-01  1.000000e+00  7.300000e-01
    endloop
  endfacet
  facet normal -0.000000e+00  0.000000e+00  1.000000e+00
    outer loop
      vertex   4.500000e-01  1.000000e+00  7.300000e-01
      vertex   1.350000e+00  4.000000e-01  7.300000e-01
      vertex   1.350000e+00  1.000000e+00  7.300000e-01
    endloop
  endfacet
  facet normal  0.000000e+00  0.000000e+00  0.000000e+00
    outer loop
      vertex   1.350000e+00  1.000000e+00  7.300000e-01
      vertex   1.350000e+00  4.000000e-01  7.300000e-01
      vertex   1.350000e+00  4.500000e-01  7.300000e-01
    endloop
  endfacet
  facet normal  0.000000e+00  0.000000e+00  0.000000e+00
    outer loop
      vertex   1.350000e+00  1.000000e+00  7.300000e-01
      vertex   1.350000e+00  4.500000e-01  7.300000e-01
      vertex   1.350000e+00  9.500000e-01  7.300000e-01
    endloop
  endfacet
  facet normal  0.000000e+00  0.000000e+00  1.000000e+00
    outer loop
      vertex   4.500000e-01  4.500000e-01  7.300000e-01
      vertex   4.000000e-01  9.500000e-01  7.300000e-01
      vertex   4.000000e-01  4.500000e-01  7.300000e-01
    endloop
  endfacet
  facet normal -0.000000e+00  0.000000e+00  1.000000e+00
    outer loop
      vertex   4.000000e-01  9.500000e-01  7.300000e-01
      vertex   4.500000e-01  4.500000e-01  7.300000e-01
      vertex   4.500000e-01  9.500000e-01  7.300000e-01
    endloop
  endfacet
  facet normal  0.000000e+00  1.000000e+00  0.000000e+00
    outer loop
      vertex   4.500000e-01  1.000000e+00  7.300000e-01
      vertex   1.350000e+00  1.000000e+00  7.000000e-01
      vertex   4.500000e-01  1.000000e+00  7.000000e-01
    endloop
  endfacet
  facet normal  0.000000e+00  1.000000e+00 -0.000000e+00
    outer loop
      vertex   1.350000e+00  1.000000e+00  7.000000e-01
      vertex   4.500000e-01  1.000000e+00  7.300000e-01
      vertex   1.350000e+00  1.000000e+00  7.300000e-01
    endloop
  endfacet
  facet normal  0.000000e+00  0.000000e+00  1.000000e+00
    outer loop
      vertex   4.000000e-01  4.000000e-01  7.300000e-01
      vertex   0.000000e+00  1.000000e+00  7.300000e-01
      vertex   0.000000e+00  4.000000e-01  7.300000e-01
    endloop
  endfacet
  facet normal -0.000000e+00  0.000000e+00  1.000000e+00
    outer loop
      vertex   0.000000e+00  1.000000e+00  7.300000e-01
      vertex   4.000000e-01  4.000000e-01  7.300000e-01
      vertex   4.000000e-01  1.000000e+00  7.300000e-01
    endloop
  endfacet
  facet normal  0.000000e+00  0.000000e+00  0.000000e+00
    outer loop
      vertex   4.000000e-01  1.000000e+00  7.300000e-01
      vertex   4.000000e-01  4.000000e-01  7.300000e-01
      vertex   4.000000e-01  4.500000e-01  7.300000e-01
    endloop
  endfacet
  facet normal  0.000000e+00  0.000000e+00  0.000000e+00
    outer loop
      vertex   4.000000e-01  1.000000e+00  7.300000e-01
      vertex   4.000000e-01  4.500000e-01  7.300000e-01
      vertex   4.000000e-01  9.500000e-01  7.300000e-01
    endloop
  endfacet
  facet normal -0.000000e+00  0.000000e+00 -1.000000e+00
    outer loop
      vertex   4.000000e-01  1.000000e+00  2.775558e-16
      vertex   0.000000e+00  4.000000e-01  2.775558e-16
      vertex   0.000000e+00  1.000000e+00  2.775558e-16
    endloop
  endfacet
  facet normal  0.000000e+00  0.000000e+00 -1.000000e+00
    outer loop
      vertex   0.000000e+00  4.000000e-01  2.775558e-16
      vertex   4.000000e-01  1.000000e+00  2.775558e-16
      vertex   4.000000e-01  4.000000e-01  2.775558e-16
    endloop
  endfacet
  facet normal  1.000000e+00  0.000000e+00  0.000000e+00
    outer loop
      vertex   4.000000e-01  9.500000e-01  7.000000e-01
      vertex   4.000000e-01  4.500000e-01  7.300000e-01
      vertex   4.000000e-01  4.500000e-01  7.000000e-01
    endloop
  endfacet
  facet normal  1.000000e+00 -0.000000e+00  0.000000e+00
    outer loop
      vertex   4.000000e-01  4.500000e-01  7.300000e-01
      vertex   4.000000e-01  9.500000e-01  7.000000e-01
      vertex   4.000000e-01  9.500000e-01  7.300000e-01
    endloop
  endfacet
  facet normal  0.000000e+00  1.000000e+00  0.000000e+00
    outer loop
      vertex   0.000000e+00  1.000000e+00  7.300000e-01
      vertex   4.000000e-01  1.000000e+00  2.775558e-16
      vertex   0.000000e+00  1.000000e+00  2.775558e-16
    endloop
  endfacet
  facet normal  0.000000e+00  1.000000e+00 -0.000000e+00
    outer loop
      vertex   4.000000e-01  1.000000e+00  2.775558e-16
      vertex   0.000000e+00  1.000000e+00  7.300000e-01
      vertex   4.000000e-01  1.000000e+00  7.000000e-01
    endloop
  endfacet
  facet normal  0.000000e+00  1.000000e+00 -0.000000e+00
    outer loop
      vertex   4.000000e-01  1.000000e+00  7.000000e-01
      vertex   0.000000e+00  1.000000e+00  7.300000e-01
      vertex   4.000000e-01  1.000000e+00  7.300000e-01
    endloop
  endfacet
  facet normal -0.000000e+00  0.000000e+00 -1.000000e+00
    outer loop
      vertex   4.500000e-01  1.000000e+00  7.000000e-01
      vertex   4.000000e-01  9.500000e-01  7.000000e-01
      vertex   4.000000e-01  1.000000e+00  7.000000e-01
    endloop
  endfacet
  facet normal  0.000000e+00  0.000000e+00 -1.000000e+00
    outer loop
      vertex   4.000000e-01  9.500000e-01  7.000000e-01
      vertex   4.500000e-01  1.000000e+00  7.000000e-01
      vertex   4.500000e-01  9.500000e-01  7.000000e-01
    endloop
  endfacet
  facet normal  0.000000e+00  1.000000e+00  0.000000e+00
    outer loop
      vertex   4.000000e-01  1.000000e+00  7.300000e-01
      vertex   4.500000e-01  1.000000e+00  7.000000e-01
      vertex   4.000000e-01  1.000000e+00  7.000000e-01
    endloop
  endfacet
  facet normal  0.000000e+00  1.000000e+00 -0.000000e+00
    outer loop
      vertex   4.500000e-01  1.000000e+00  7.000000e-01
      vertex   4.000000e-01  1.000000e+00  7.300000e-01
      vertex   4.500000e-01  1.000000e+00  7.300000e-01
    endloop
  endfacet
  facet normal  1.000000e+00  0.000000e+00  0.000000e+00
    outer loop
      vertex   4.000000e-01  1.000000e+00  7.000000e-01
      vertex   4.000000e-01  9.500000e-01  7.300000e-01
      vertex   4.000000e-01  9.500000e-01  7.000000e-01
    endloop
  endfacet
  facet normal  1.000000e+00 -0.000000e+00  0.000000e+00
    outer loop
      vertex   4.000000e-01  9.500000e-01  7.300000e-01
      vertex   4.000000e-01  1.000000e+00  7.000000e-01
      vertex   4.000000e-01  1.000000e+00  7.300000e-01
    endloop
  endfacet
  facet normal -0.000000e+00  0.000000e+00 -1.000000e+00
    outer loop
      vertex   4.500000e-01  4.500000e-01  7.000000e-01
      vertex   4.000000e-01  4.000000e-01  7.000000e-01
      vertex   4.000000e-01  4.500000e-01  7.000000e-01
    endloop
  endfacet
  facet normal  0.000000e+00  0.000000e+00 -1.000000e+00
    outer loop
      vertex   4.000000e-01  4.000000e-01  7.000000e-01
      vertex   4.500000e-01  4.500000e-01  7.000000e-01
      vertex   4.500000e-01  4.000000e-01  7.000000e-01
    endloop
  endfacet
  facet normal  1.000000e+00  0.000000e+00  0.000000e+00
    outer loop
      vertex   4.000000e-01  1.000000e+00  2.775558e-16
      vertex   4.000000e-01  4.000000e-01  7.000000e-01
      vertex   4.000000e-01  4.000000e-01  2.775558e-16
    endloop
  endfacet
  facet normal  1.000000e+00 -0.000000e+00  0.000000e+00
    outer loop
      vertex   4.000000e-01  4.000000e-01  7.000000e-01
      vertex   4.000000e-01  1.000000e+00  2.775558e-16
      vertex   4.000000e-01  4.500000e-01  7.000000e-01
    endloop
  endfacet
  facet normal  1.000000e+00 -0.000000e+00  0.000000e+00
    outer loop
      vertex   4.000000e-01  4.500000e-01  7.000000e-01
      vertex   4.000000e-01  1.000000e+00  2.775558e-16
      vertex   4.000000e-01  9.500000e-01  7.000000e-01
    endloop
  endfacet
  facet normal  1.000000e+00 -0.000000e+00  0.000000e+00
    outer loop
      vertex   4.000000e-01  9.500000e-01  7.000000e-01
      vertex   4.000000e-01  1.000000e+00  2.775558e-16
      vertex   4.000000e-01  1.000000e+00  7.000000e-01
    endloop
  endfacet
endsolid MensDesk
solid MensChair
  facet normal -0.000000e+00  0.000000e+00 -1.000000e+00
    outer loop
      vertex   6.929752e-01 -1.400000e-01  4.511946e-17
      vertex   6.429752e-01 -1.900000e-01  4.511946e-17
      vertex   6.429752e-01 -1.400000e-01  4.511946e-17
    endloop
  endfacet
  facet normal  0.000000e+00  0.000000e+00 -1.000000e+00
    outer loop
      vertex   6.429752e-01 -1.900000e-01  4.511946e-17
      vertex   6.929752e-01 -1.400000e-01  4.511946e-17
      vertex   6.929752e-01 -1.900000e-01  4.511946e-17
    endloop
  endfacet
  facet normal  0.000000e+00 -1.000000e+00 -0.000000e+00
    outer loop
      vertex   6.929752e-01 -1.900000e-01  4.000000e-01
      vertex   6.429752e-01 -1.900000e-01  4.511946e-17
      vertex   6.929752e-01 -1.900000e-01  4.511946e-17
    endloop
  endfacet
  facet normal  0.000000e+00 -1.000000e+00  0.000000e+00
    outer loop
      vertex   6.429752e-01 -1.900000e-01  4.511946e-17
      vertex   6.929752e-01 -1.900000e-01  4.000000e-01
      vertex   6.429752e-01 -1.900000e-01  9.000000e-01
    endloop
  endfacet
  facet normal  0.000000e+00 -1.000000e+00  0.000000e+00
    outer loop
      vertex   6.429752e-01 -1.900000e-01  9.000000e-01
      vertex   6.929752e-01 -1.900000e-01  4.000000e-01
      vertex   6.929752e-01 -1.900000e-01  5.000000e-01
    endloop
  endfacet
  facet normal  0.000000e+00 -1.000000e+00  0.000000e+00
    outer loop
      vertex   6.429752e-01 -1.900000e-01  9.000000e-01
      vertex   6.929752e-01 -1.900000e-01  5.000000e-01
      vertex   6.929752e-01 -1.900000e-01  6.794234e-01
    endloop
  endfacet
  facet normal  0.000000e+00 -1.000000e+00  0.000000e+00
    outer loop
      vertex   6.429752e-01 -1.900000e-01  9.000000e-01
      vertex   6.929752e-01 -1.900000e-01  6.794234e-01
      vertex   6.929752e-01 -1.900000e-01  7.286316e-01
    endloop
  endfacet
  facet normal  0.000000e+00 -1.000000e+00  0.000000e+00
    outer loop
      vertex   6.429752e-01 -1.900000e-01  9.000000e-01
      vertex   6.929752e-01 -1.900000e-01  7.286316e-01
      vertex   6.929752e-01 -1.900000e-01  8.537996e-01
    endloop
  endfacet
  facet normal  0.000000e+00 -1.000000e+00  0.000000e+00
    outer loop
      vertex   6.429752e-01 -1.900000e-01  9.000000e-01
      vertex   6.929752e-01 -1.900000e-01  8.537996e-01
      vertex   6.929752e-01 -1.900000e-01  9.000000e-01
    endloop
  endfacet
  facet normal  1.000000e+00  0.000000e+00  0.000000e+00
    outer loop
      vertex   6.929752e-01 -1.400000e-01  4.511946e-17
      vertex   6.929752e-01 -1.900000e-01  4.000000e-01
      vertex   6.929752e-01 -1.900000e-01  4.511946e-17
    endloop
  endfacet
  facet normal  1.000000e+00 -0.000000e+00  0.000000e+00
    outer loop
      vertex   6.929752e-01 -1.900000e-01  4.000000e-01
      vertex   6.929752e-01 -1.400000e-01  4.511946e-17
      vertex   6.929752e-01 -1.400000e-01  4.000000e-01
    endloop
  endfacet
  facet normal  0.000000e+00  1.000000e+00  0.000000e+00
    outer loop
      vertex   6.429752e-01 -1.400000e-01  4.000000e-01
      vertex   6.929752e-01 -1.400000e-01  4.511946e-17
      vertex   6.429752e-01 -1.400000e-01  4.511946e-17
    endloop
  endfacet
  facet normal  0.000000e+00  1.000000e+00 -0.000000e+00
    outer loop
      vertex   6.929752e-01 -1.400000e-01  4.511946e-17
      vertex   6.429752e-01 -1.400000e-01  4.000000e-01
      vertex   6.929752e-01 -1.400000e-01  4.000000e-01
    endloop
  endfacet
  facet normal -1.000000e+00 -0.000000e+00  0.000000e+00
    outer loop
      vertex   6.429752e-01 -1.400000e-01  9.000000e-01
      vertex   6.429752e-01 -1.900000e-01  4.511946e-17
      vertex   6.429752e-01 -1.900000e-01  9.000000e-01
    endloop
  endfacet
  facet normal -1.000000e+00  0.000000e+00  0.000000e+00
    outer loop
      vertex   6.429752e-01 -1.900000e-01  4.511946e-17
      vertex   6.429752e-01 -1.400000e-01  9.000000e-01
      vertex   6.429752e-01 -1.400000e-01  4.511946e-17
    endloop
  endfacet
  facet normal  0.000000e+00  0.000000e+00  0.000000e+00
    outer loop
      vertex   6.429752e-01 -1.400000e-01  4.511946e-17
      vertex   6.429752e-01 -1.400000e-01  9.000000e-01
      vertex   6.429752e-01 -1.400000e-01  5.000000e-01
    endloop
  endfacet
  facet normal  0.000000e+00  0.000000e+00  0.000000e+00
    outer loop
      vertex   6.429752e-01 -1.400000e-01  4.511946e-17
      vertex   6.429752e-01 -1.400000e-01  5.000000e-01
      vertex   6.429752e-01 -1.400000e-01  4.000000e-01
    endloop
  endfacet
  facet normal -0.000000e+00  0.000000e+00 -1.000000e+00
    outer loop
      vertex   6.929752e-01  1.600000e-01  4.000000e-01
      vertex   6.429752e-01 -1.400000e-01  4.000000e-01
      vertex   6.429752e-01  1.600000e-01  4.000000e-01
    endloop
  endfacet
  facet normal  0.000000e+00  0.000000e+00 -1.000000e+00
    outer loop
      vertex   6.429752e-01 -1.400000e-01  4.000000e-01
      vertex   6.929752e-01  1.600000e-01  4.000000e-01
      vertex   6.929752e-01 -1.400000e-01  4.000000e-01
    endloop
  endfacet
  facet normal -0.000000e+00  0.000000e+00 -1.000000e+00
    outer loop
      vertex   9.929751e-01  2.100000e-01  4.000000e-01
      vertex   6.929752e-01  1.600000e-01  4.000000e-01
      vertex   6.929752e-01  2.100000e-01  4.000000e-01
    endloop
  endfacet
  facet normal  0.000000e+00  0.000000e+00 -1.000000e+00
    outer loop
      vertex   6.929752e-01  1.600000e-01  4.000000e-01
      vertex   9.929751e-01  2.100000e-01  4.000000e-01
      vertex   6.929752e-01 -1.400000e-01  4.000000e-01
    endloop
  endfacet
  facet normal  0.000000e+00  0.000000e+00 -1.000000e+00
    outer loop
      vertex   6.929752e-01 -1.400000e-01  4.000000e-01
      vertex   9.929751e-01  2.100000e-01  4.000000e-01
      vertex   6.929752e-01 -1.900000e-01  4.000000e-01
    endloop
  endfacet
  facet normal  0.000000e+00  0.000000e+00 -1.000000e+00
    outer loop
      vertex   6.929752e-01 -1.900000e-01  4.000000e-01
      vertex   9.929751e-01  2.100000e-01  4.000000e-01
      vertex   9.929751e-01 -1.400000e-01  4.000000e-01
    endloop
  endfacet
  facet normal  0.000000e+00  0.000000e+00  0.000000e+00
    outer loop
      vertex   9.929751e-01 -1.400000e-01  4.000000e-01
      vertex   9.929751e-01  2.100000e-01  4.000000e-01
      vertex   9.929751e-01  1.600000e-01  4.000000e-01
    endloop
  endfacet
  facet normal  0.000000e+00  0.000000e+00 -1.000000e+00
    outer loop
      vertex   9.929751e-01 -1.400000e-01  4.000000e-01
      vertex   9.929751e-01  1.600000e-01  4.000000e-01
      vertex   1.042975e+00 -1.400000e-01  4.000000e-01
    endloop
  endfacet
  facet normal  0.000000e+00  0.000000e+00 -1.000000e+00
    outer loop
      vertex   1.042975e+00 -1.400000e-01  4.000000e-01
      vertex   9.929751e-01  1.600000e-01  4.000000e-01
      vertex   1.042975e+00  1.600000e-01  4.000000e-01
    endloop
  endfacet
  facet normal  0.000000e+00  0.000000e+00 -1.000000e+00
    outer loop
      vertex   9.929751e-01 -1.900000e-01  4.000000e-01
      vertex   6.929752e-01 -1.900000e-01  4.000000e-01
      vertex   9.929751e-01 -1.400000e-01  4.000000e-01
    endloop
  endfacet
  facet normal  0.000000e+00 -1.000000e+00 -0.000000e+00
    outer loop
      vertex   9.929751e-01 -1.900000e-01  9.000000e-01
      vertex   6.929752e-01 -1.900000e-01  8.537996e-01
      vertex   9.929751e-01 -1.900000e-01  8.537996e-01
    endloop
  endfacet
  facet normal  0.000000e+00 -1.000000e+00  0.000000e+00
    outer loop
      vertex   6.929752e-01 -1.900000e-01  8.537996e-01
      vertex   9.929751e-01 -1.900000e-01  9.000000e-01
      vertex   6.929752e-01 -1.900000e-01  9.000000e-01
    endloop
  endfacet
  facet normal  1.000000e+00  0.000000e+00  0.000000e+00
    outer loop
      vertex   1.042975e+00  1.600000e-01  4.000000e-01
      vertex   1.042975e+00 -1.400000e-01  5.000000e-01
      vertex   1.042975e+00 -1.400000e-01  4.000000e-01
    endloop
  endfacet
  facet normal  1.000000e+00 -0.000000e+00  0.000000e+00
    outer loop
      vertex   1.042975e+00 -1.400000e-01  5.000000e-01
      vertex   1.042975e+00  1.600000e-01  4.000000e-01
      vertex   1.042975e+00  1.600000e-01  5.000000e-01
    endloop
  endfacet
  facet normal  0.000000e+00  1.000000e+00  0.000000e+00
    outer loop
      vertex   6.929752e-01  2.100000e-01  5.000000e-01
      vertex   9.929751e-01  2.100000e-01  4.000000e-01
      vertex   6.929752e-01  2.100000e-01  4.000000e-01
    endloop
  endfacet
  facet normal  0.000000e+00  1.000000e+00 -0.000000e+00
    outer loop
      vertex   9.929751e-01  2.100000e-01  4.000000e-01
      vertex   6.929752e-01  2.100000e-01  5.000000e-01
      vertex   9.929751e-01  2.100000e-01  5.000000e-01
    endloop
  endfacet
  facet normal -1.000000e+00 -0.000000e+00  0.000000e+00
    outer loop
      vertex   6.429752e-01  1.600000e-01  5.000000e-01
      vertex   6.429752e-01 -1.400000e-01  4.000000e-01
      vertex   6.429752e-01 -1.400000e-01  5.000000e-01
    endloop
  endfacet
  facet normal -1.000000e+00  0.000000e+00  0.000000e+00
    outer loop
      vertex   6.429752e-01 -1.400000e-01  4.000000e-01
      vertex   6.429752e-01  1.600000e-01  5.000000e-01
      vertex   6.429752e-01  1.600000e-01  4.000000e-01
    endloop
  endfacet
  facet normal  0.000000e+00  1.000000e+00  0.000000e+00
    outer loop
      vertex   6.429752e-01 -1.400000e-01  5.000000e-01
      vertex   6.929752e-01 -1.400000e-01  4.000000e-01
      vertex   6.429752e-01 -1.400000e-01  4.000000e-01
    endloop
  endfacet
  facet normal  0.000000e+00  1.000000e+00 -0.000000e+00
    outer loop
      vertex   6.929752e-01 -1.400000e-01  4.000000e-01
      vertex   6.429752e-01 -1.400000e-01  5.000000e-01
      vertex   6.929752e-01 -1.400000e-01  5.000000e-01
    endloop
  endfacet
  facet normal  1.000000e+00  0.000000e+00  0.000000e+00
    outer loop
      vertex   6.929752e-01 -1.400000e-01  4.000000e-01
      vertex   6.929752e-01 -1.900000e-01  5.000000e-01
      vertex   6.929752e-01 -1.900000e-01  4.000000e-01
    endloop
  endfacet
  facet normal  1.000000e+00 -0.000000e+00  0.000000e+00
    outer loop
      vertex   6.929752e-01 -1.900000e-01  5.000000e-01
      vertex   6.929752e-01 -1.400000e-01  4.000000e-01
      vertex   6.929752e-01 -1.400000e-01  5.000000e-01
    endloop
  endfacet
  facet normal  0.000000e+00  1.000000e+00  0.000000e+00
    outer loop
      vertex   9.929751e-01 -1.400000e-01  5.000000e-01
      vertex   1.042975e+00 -1.400000e-01  4.000000e-01
      vertex   9.929751e-01 -1.400000e-01  4.000000e-01
    endloop
  endfacet
  facet normal  0.000000e+00  1.000000e+00 -0.000000e+00
    outer loop
      vertex   1.042975e+00 -1.400000e-01  4.000000e-01
      vertex   9.929751e-01 -1.400000e-01  5.000000e-01
      vertex   1.042975e+00 -1.400000e-01  5.000000e-01
    endloop
  endfacet
  facet normal -1.000000e+00 -0.000000e+00  0.000000e+00
    outer loop
      vertex   9.929751e-01 -1.400000e-01  9.000000e-01
      vertex   9.929751e-01 -1.900000e-01  8.537996e-01
      vertex   9.929751e-01 -1.900000e-01  9.000000e-01
    endloop
  endfacet
  facet normal -1.000000e+00  0.000000e+00  0.000000e+00
    outer loop
      vertex   9.929751e-01 -1.900000e-01  8.537996e-01
      vertex   9.929751e-01 -1.400000e-01  9.000000e-01
      vertex   9.929751e-01 -1.400000e-01  8.537996e-01
    endloop
  endfacet
  facet normal -1.000000e+00 -0.000000e+00  0.000000e+00
    outer loop
      vertex   9.929751e-01  2.100000e-01  5.000000e-01
      vertex   9.929751e-01  1.600000e-01  4.000000e-01
      vertex   9.929751e-01  1.600000e-01  5.000000e-01
    endloop
  endfacet
  facet normal -1.000000e+00  0.000000e+00  0.000000e+00
    outer loop
      vertex   9.929751e-01  1.600000e-01  4.000000e-01
      vertex   9.929751e-01  2.100000e-01  5.000000e-01
      vertex   9.929751e-01  2.100000e-01  4.000000e-01
    endloop
  endfacet
  facet normal  0.000000e+00 -1.000000e+00 -0.000000e+00
    outer loop
      vertex   1.042975e+00  1.600000e-01  5.000000e-01
      vertex   9.929751e-01  1.600000e-01  4.000000e-01
      vertex   1.042975e+00  1.600000e-01  4.000000e-01
    endloop
  endfacet
  facet normal  0.000000e+00 -1.000000e+00  0.000000e+00
    outer loop
      vertex   9.929751e-01  1.600000e-01  4.000000e-01
      vertex   1.042975e+00  1.600000e-01  5.000000e-01
      vertex   9.929751e-01  1.600000e-01  5.000000e-01
    endloop
  endfacet
  facet normal  0.000000e+00 -1.000000e+00 -0.000000e+00
    outer loop
      vertex   6.929752e-01  1.600000e-01  5.000000e-01
      vertex   6.429752e-01  1.600000e-01  4.000000e-01
      vertex   6.929752e-01  1.600000e-01  4.000000e-01
    endloop
  endfacet
  facet normal  0.000000e+00 -1.000000e+00  0.000000e+00
    outer loop
      vertex   6.429752e-01  1.600000e-01  4.000000e-01
      vertex   6.929752e-01  1.600000e-01  5.000000e-01
      vertex   6.429752e-01  1.600000e-01  5.000000e-01
    endloop
  endfacet
  facet normal  1.000000e+00  0.000000e+00  0.000000e+00
    outer loop
      vertex   6.929752e-01  2.100000e-01  4.000000e-01
      vertex   6.929752e-01  1.600000e-01  5.000000e-01
      vertex   6.929752e-01  1.600000e-01  4.000000e-01
    endloop
  endfacet
  facet normal  1.000000e+00 -0.000000e+00  0.000000e+00
    outer loop
      vertex   6.929752e-01  1.600000e-01  5.000000e-01
      vertex   6.929752e-01  2.100000e-01  4.000000e-01
      vertex   6.929752e-01  2.100000e-01  5.000000e-01
    endloop
  endfacet
  facet normal  0.000000e+00  0.000000e+00  1.000000e+00
    outer loop
      vertex   6.929752e-01  1.600000e-01  5.000000e-01
      vertex   6.429752e-01  2.100000e-01  5.000000e-01
      vertex   6.429752e-01  1.600000e-01  5.000000e-01
    endloop
  endfacet
  facet normal -0.000000e+00  0.000000e+00  1.000000e+00
    outer loop
      vertex   6.429752e-01  2.100000e-01  5.000000e-01
      vertex   6.929752e-01  1.600000e-01  5.000000e-01
      vertex   6.929752e-01  2.100000e-01  5.000000e-01
    endloop
  endfacet
  facet normal  0.000000e+00  0.000000e+00  1.000000e+00
    outer loop
      vertex   1.042975e+00  1.600000e-01  5.000000e-01
      vertex   9.929751e-01  2.100000e-01  5.000000e-01
      vertex   9.929751e-01  1.600000e-01  5.000000e-01
    endloop
  endfacet
  facet normal -0.000000e+00  0.000000e+00  1.000000e+00
    outer loop
      vertex   9.929751e-01  2.100000e-01  5.000000e-01
      vertex   1.042975e+00  1.600000e-01  5.000000e-01
      vertex   1.042975e+00  2.100000e-01  5.000000e-01
    endloop
  endfacet
  facet normal -0.000000e+00  0.000000e+00 -1.000000e+00
    outer loop
      vertex   1.042975e+00 -1.400000e-01  2.255973e-16
      vertex   9.929751e-01 -1.900000e-01  2.255973e-16
      vertex   9.929751e-01 -1.400000e-01  2.255973e-16
    endloop
  endfacet
  facet normal  0.000000e+00  0.000000e+00 -1.000000e+00
    outer loop
      vertex   9.929751e-01 -1.900000e-01  2.255973e-16
      vertex   1.042975e+00 -1.400000e-01  2.255973e-16
      vertex   1.042975e+00 -1.900000e-01  2.255973e-16
    endloop
  endfacet
  facet normal  0.000000e+00  1.000000e+00  0.000000e+00
    outer loop
      vertex   9.929751e-01 -1.400000e-01  4.000000e-01
      vertex   1.042975e+00 -1.400000e-01  2.255973e-16
      vertex   9.929751e-01 -1.400000e-01  2.255973e-16
    endloop
  endfacet
  facet normal  0.000000e+00  1.000000e+00 -0.000000e+00
    outer loop
      vertex   1.042975e+00 -1.400000e-01  2.255973e-16
      vertex   9.929751e-01 -1.400000e-01  4.000000e-01
      vertex   1.042975e+00 -1.400000e-01  4.000000e-01
    endloop
  endfacet
  facet normal -1.000000e+00 -0.000000e+00  0.000000e+00
    outer loop
      vertex   9.929751e-01 -1.400000e-01  4.000000e-01
      vertex   9.929751e-01 -1.900000e-01  2.255973e-16
      vertex   9.929751e-01 -1.900000e-01  4.000000e-01
    endloop
  endfacet
  facet normal -1.000000e+00  0.000000e+00  0.000000e+00
    outer loop
      vertex   9.929751e-01 -1.900000e-01  2.255973e-16
      vertex   9.929751e-01 -1.400000e-01  4.000000e-01
      vertex   9.929751e-01 -1.400000e-01  2.255973e-16
    endloop
  endfacet
  facet normal  0.000000e+00 -1.000000e+00 -0.000000e+00
    outer loop
      vertex   1.042975e+00 -1.900000e-01  9.000000e-01
      vertex   9.929751e-01 -1.900000e-01  2.255973e-16
      vertex   1.042975e+00 -1.900000e-01  2.255973e-16
    endloop
  endfacet
  facet normal  0.000000e+00 -1.000000e+00  0.000000e+00
    outer loop
      vertex   9.929751e-01 -1.900000e-01  2.255973e-16
      vertex   1.042975e+00 -1.900000e-01  9.000000e-01
      vertex   9.929751e-01 -1.900000e-01  4.000000e-01
    endloop
  endfacet
  facet normal  0.000000e+00 -1.000000e+00  0.000000e+00
    outer loop
      vertex   9.929751e-01 -1.900000e-01  4.000000e-01
      vertex   1.042975e+00 -1.900000e-01  9.000000e-01
      vertex   9.929751e-01 -1.900000e-01  5.000000e-01
    endloop
  endfacet
  facet normal  0.000000e+00 -1.000000e+00  0.000000e+00
    outer loop
      vertex   9.929751e-01 -1.900000e-01  5.000000e-01
      vertex   1.042975e+00 -1.900000e-01  9.000000e-01
      vertex   9.929751e-01 -1.900000e-01  6.794234e-01
    endloop
  endfacet
  facet normal  0.000000e+00 -1.000000e+00  0.000000e+00
    outer loop
      vertex   9.929751e-01 -1.900000e-01  6.794234e-01
      vertex   1.042975e+00 -1.900000e-01  9.000000e-01
      vertex   9.929751e-01 -1.900000e-01  7.286316e-01
    endloop
  endfacet
  facet normal  0.000000e+00 -1.000000e+00  0.000000e+00
    outer loop
      vertex   9.929751e-01 -1.900000e-01  7.286316e-01
      vertex   1.042975e+00 -1.900000e-01  9.000000e-01
      vertex   9.929751e-01 -1.900000e-01  8.537996e-01
    endloop
  endfacet
  facet normal  0.000000e+00 -1.000000e+00  0.000000e+00
    outer loop
      vertex   9.929751e-01 -1.900000e-01  8.537996e-01
      vertex   1.042975e+00 -1.900000e-01  9.000000e-01
      vertex   9.929751e-01 -1.900000e-01  9.000000e-01
    endloop
  endfacet
  facet normal  1.000000e+00  0.000000e+00  0.000000e+00
    outer loop
      vertex   1.042975e+00 -1.400000e-01  2.255973e-16
      vertex   1.042975e+00 -1.900000e-01  9.000000e-01
      vertex   1.042975e+00 -1.900000e-01  2.255973e-16
    endloop
  endfacet
  facet normal  1.000000e+00 -0.000000e+00  0.000000e+00
    outer loop
      vertex   1.042975e+00 -1.900000e-01  9.000000e-01
      vertex   1.042975e+00 -1.400000e-01  2.255973e-16
      vertex   1.042975e+00 -1.400000e-01  9.000000e-01
    endloop
  endfacet
  facet normal  0.000000e+00  0.000000e+00  0.000000e+00
    outer loop
      vertex   1.042975e+00 -1.400000e-01  9.000000e-01
      vertex   1.042975e+00 -1.400000e-01  2.255973e-16
      vertex   1.042975e+00 -1.400000e-01  4.000000e-01
    endloop
  endfacet
  facet normal  0.000000e+00  0.000000e+00  0.000000e+00
    outer loop
      vertex   1.042975e+00 -1.400000e-01  9.000000e-01
      vertex   1.042975e+00 -1.400000e-01  4.000000e-01
      vertex   1.042975e+00 -1.400000e-01  5.000000e-01
    endloop
  endfacet
  facet normal -0.000000e+00  0.000000e+00 -1.000000e+00
    outer loop
      vertex   6.929752e-01  2.100000e-01  0.000000e+00
      vertex   6.429752e-01  1.600000e-01  0.000000e+00
      vertex   6.429752e-01  2.100000e-01  0.000000e+00
    endloop
  endfacet
  facet normal  0.000000e+00  0.000000e+00 -1.000000e+00
    outer loop
      vertex   6.429752e-01  1.600000e-01  0.000000e+00
      vertex   6.929752e-01  2.100000e-01  0.000000e+00
      vertex   6.929752e-01  1.600000e-01  0.000000e+00
    endloop
  endfacet
  facet normal  0.000000e+00 -1.000000e+00 -0.000000e+00
    outer loop
      vertex   6.929752e-01  1.600000e-01  4.000000e-01
      vertex   6.429752e-01  1.600000e-01  0.000000e+00
      vertex   6.929752e-01  1.600000e-01  0.000000e+00
    endloop
  endfacet
  facet normal  0.000000e+00 -1.000000e+00  0.000000e+00
    outer loop
      vertex   6.429752e-01  1.600000e-01  0.000000e+00
      vertex   6.929752e-01  1.600000e-01  4.000000e-01
      vertex   6.429752e-01  1.600000e-01  4.000000e-01
    endloop
  endfacet
  facet normal  1.000000e+00  0.000000e+00  0.000000e+00
    outer loop
      vertex   6.929752e-01  2.100000e-01  0.000000e+00
      vertex   6.929752e-01  1.600000e-01  4.000000e-01
      vertex   6.929752e-01  1.600000e-01  0.000000e+00
    endloop
  endfacet
  facet normal  1.000000e+00 -0.000000e+00  0.000000e+00
    outer loop
      vertex   6.929752e-01  1.600000e-01  4.000000e-01
      vertex   6.929752e-01  2.100000e-01  0.000000e+00
      vertex   6.929752e-01  2.100000e-01  4.000000e-01
    endloop
  endfacet
  facet normal  0.000000e+00  1.000000e+00  0.000000e+00
    outer loop
      vertex   6.429752e-01  2.100000e-01  5.000000e-01
      vertex   6.929752e-01  2.100000e-01  0.000000e+00
      vertex   6.429752e-01  2.100000e-01  0.000000e+00
    endloop
  endfacet
  facet normal  0.000000e+00  1.000000e+00 -0.000000e+00
    outer loop
      vertex   6.929752e-01  2.100000e-01  0.000000e+00
      vertex   6.429752e-01  2.100000e-01  5.000000e-01
      vertex   6.929752e-01  2.100000e-01  4.000000e-01
    endloop
  endfacet
  facet normal  0.000000e+00  1.000000e+00 -0.000000e+00
    outer loop
      vertex   6.929752e-01  2.100000e-01  4.000000e-01
      vertex   6.429752e-01  2.100000e-01  5.000000e-01
      vertex   6.929752e-01  2.100000e-01  5.000000e-01
    endloop
  endfacet
  facet normal -1.000000e+00 -0.000000e+00  0.000000e+00
    outer loop
      vertex   6.429752e-01  2.100000e-01  5.000000e-01
      vertex   6.429752e-01  1.600000e-01  4.000000e-01
      vertex   6.429752e-01  1.600000e-01  5.000000e-01
    endloop
  endfacet
  facet normal -1.000000e+00  0.000000e+00  0.000000e+00
    outer loop
      vertex   6.429752e-01  1.600000e-01  4.000000e-01
      vertex   6.429752e-01  2.100000e-01  5.000000e-01
      vertex   6.429752e-01  1.600000e-01  0.000000e+00
    endloop
  endfacet
  facet normal -1.000000e+00  0.000000e+00  0.000000e+00
    outer loop
      vertex   6.429752e-01  1.600000e-01  0.000000e+00
      vertex   6.429752e-01  2.100000e-01  5.000000e-01
      vertex   6.429752e-01  2.100000e-01  0.000000e+00
    endloop
  endfacet
  facet normal -0.000000e+00  0.000000e+00 -1.000000e+00
    outer loop
      vertex   1.042975e+00  2.100000e-01  9.023893e-17
      vertex   9.929751e-01  1.600000e-01  9.023893e-17
      vertex   9.929751e-01  2.100000e-01  9.023893e-17
    endloop
  endfacet
  facet normal  0.000000e+00  0.000000e+00 -1.000000e+00
    outer loop
      vertex   9.929751e-01  1.600000e-01  9.023893e-17
      vertex   1.042975e+00  2.100000e-01  9.023893e-17
      vertex   1.042975e+00  1.600000e-01  9.023893e-17
    endloop
  endfacet
  facet normal -1.000000e+00 -0.000000e+00  0.000000e+00
    outer loop
      vertex   9.929751e-01  2.100000e-01  4.000000e-01
      vertex   9.929751e-01  1.600000e-01  9.023893e-17
      vertex   9.929751e-01  1.600000e-01  4.000000e-01
    endloop
  endfacet
  facet normal -1.000000e+00  0.000000e+00  0.000000e+00
    outer loop
      vertex   9.929751e-01  1.600000e-01  9.023893e-17
      vertex   9.929751e-01  2.100000e-01  4.000000e-01
      vertex   9.929751e-01  2.100000e-01  9.023893e-17
    endloop
  endfacet
  facet normal  0.000000e+00 -1.000000e+00 -0.000000e+00
    outer loop
      vertex   1.042975e+00  1.600000e-01  4.000000e-01
      vertex   9.929751e-01  1.600000e-01  9.023893e-17
      vertex   1.042975e+00  1.600000e-01  9.023893e-17
    endloop
  endfacet
  facet normal  0.000000e+00 -1.000000e+00  0.000000e+00
    outer loop
      vertex   9.929751e-01  1.600000e-01  9.023893e-17
      vertex   1.042975e+00  1.600000e-01  4.000000e-01
      vertex   9.929751e-01  1.600000e-01  4.000000e-01
    endloop
  endfacet
  facet normal  1.000000e+00  0.000000e+00  0.000000e+00
    outer loop
      vertex   1.042975e+00  2.100000e-01  9.023893e-17
      vertex   1.042975e+00  1.600000e-01  4.000000e-01
      vertex   1.042975e+00  1.600000e-01  9.023893e-17
    endloop
  endfacet
  facet normal  1.000000e+00 -0.000000e+00  0.000000e+00
    outer loop
      vertex   1.042975e+00  1.600000e-01  4.000000e-01
      vertex   1.042975e+00  2.100000e-01  9.023893e-17
      vertex   1.042975e+00  1.600000e-01  5.000000e-01
    endloop
  endfacet
  facet normal  1.000000e+00 -0.000000e+00  0.000000e+00
    outer loop
      vertex   1.042975e+00  1.600000e-01  5.000000e-01
      vertex   1.042975e+00  2.100000e-01  9.023893e-17
      vertex   1.042975e+00  2.100000e-01  5.000000e-01
    endloop
  endfacet
  facet normal  0.000000e+00  1.000000e+00  0.000000e+00
    outer loop
      vertex   9.929751e-01  2.100000e-01  4.000000e-01
      vertex   1.042975e+00  2.100000e-01  9.023893e-17
      vertex   9.929751e-01  2.100000e-01  9.023893e-17
    endloop
  endfacet
  facet normal  0.000000e+00  1.000000e+00 -0.000000e+00
    outer loop
      vertex   1.042975e+00  2.100000e-01  9.023893e-17
      vertex   9.929751e-01  2.100000e-01  4.000000e-01
      vertex   1.042975e+00  2.100000e-01  5.000000e-01
    endloop
  endfacet
  facet normal  0.000000e+00  1.000000e+00  0.000000e+00
    outer loop
      vertex   1.042975e+00  2.100000e-01  5.000000e-01
      vertex   9.929751e-01  2.100000e-01  4.000000e-01
      vertex   9.929751e-01  2.100000e-01  5.000000e-01
    endloop
  endfacet
  facet normal  0.000000e+00  0.000000e+00  1.000000e+00
    outer loop
      vertex   1.042975e+00 -1.400000e-01  5.000000e-01
      vertex   9.929751e-01  1.600000e-01  5.000000e-01
      vertex   9.929751e-01 -1.400000e-01  5.000000e-01
    endloop
  endfacet
  facet normal -0.000000e+00  0.000000e+00  1.000000e+00
    outer loop
      vertex   9.929751e-01  1.600000e-01  5.000000e-01
      vertex   1.042975e+00 -1.400000e-01  5.000000e-01
      vertex   1.042975e+00  1.600000e-01  5.000000e-01
    endloop
  endfacet
  facet normal  0.000000e+00  0.000000e+00  1.000000e+00
    outer loop
      vertex   9.929751e-01 -1.900000e-01  5.000000e-01
      vertex   6.929752e-01 -1.400000e-01  5.000000e-01
      vertex   6.929752e-01 -1.900000e-01  5.000000e-01
    endloop
  endfacet
  facet normal -0.000000e+00  0.000000e+00  1.000000e+00
    outer loop
      vertex   6.929752e-01 -1.400000e-01  5.000000e-01
      vertex   9.929751e-01 -1.900000e-01  5.000000e-01
      vertex   6.929752e-01  1.600000e-01  5.000000e-01
    endloop
  endfacet
  facet normal -0.000000e+00  0.000000e+00  1.000000e+00
    outer loop
      vertex   6.929752e-01  1.600000e-01  5.000000e-01
      vertex   9.929751e-01 -1.900000e-01  5.000000e-01
      vertex   6.929752e-01  2.100000e-01  5.000000e-01
    endloop
  endfacet
  facet normal  0.000000e+00  0.000000e+00  1.000000e+00
    outer loop
      vertex   6.929752e-01  2.100000e-01  5.000000e-01
      vertex   9.929751e-01 -1.900000e-01  5.000000e-01
      vertex   9.929751e-01 -1.400000e-01  5.000000e-01
    endloop
  endfacet
  facet normal -0.000000e+00  0.000000e+00  1.000000e+00
    outer loop
      vertex   6.929752e-01  2.100000e-01  5.000000e-01
      vertex   9.929751e-01 -1.400000e-01  5.000000e-01
      vertex   9.929751e-01  2.100000e-01  5.000000e-01
    endloop
  endfacet
  facet normal  0.000000e+00  0.000000e+00  0.000000e+00
    outer loop
      vertex   9.929751e-01  2.100000e-01  5.000000e-01
      vertex   9.929751e-01 -1.400000e-01  5.000000e-01
      vertex   9.929751e-01  1.600000e-01  5.000000e-01
    endloop
  endfacet
  facet normal  0.000000e+00  0.000000e+00  1.000000e+00
    outer loop
      vertex   6.929752e-01 -1.400000e-01  5.000000e-01
      vertex   6.429752e-01  1.600000e-01  5.000000e-01
      vertex   6.429752e-01 -1.400000e-01  5.000000e-01
    endloop
  endfacet
  facet normal -0.000000e+00  0.000000e+00  1.000000e+00
    outer loop
      vertex   6.429752e-01  1.600000e-01  5.000000e-01
      vertex   6.929752e-01 -1.400000e-01  5.000000e-01
      vertex   6.929752e-01  1.600000e-01  5.000000e-01
    endloop
  endfacet
  facet normal  0.000000e+00  0.000000e+00  1.000000e+00
    outer loop
      vertex   9.929751e-01 -1.900000e-01  9.000000e-01
      vertex   6.929752e-01 -1.400000e-01  9.000000e-01
      vertex   6.929752e-01 -1.900000e-01  9.000000e-01
    endloop
  endfacet
  facet normal -0.000000e+00  0.000000e+00  1.000000e+00
    outer loop
      vertex   6.929752e-01 -1.400000e-01  9.000000e-01
      vertex   9.929751e-01 -1.900000e-01  9.000000e-01
      vertex   9.929751e-01 -1.400000e-01  9.000000e-01
    endloop
  endfacet
  facet normal  0.000000e+00  1.000000e+00  0.000000e+00
    outer loop
      vertex   6.929752e-01 -1.400000e-01  9.000000e-01
      vertex   9.929751e-01 -1.400000e-01  8.537996e-01
      vertex   6.929752e-01 -1.400000e-01  8.537996e-01
    endloop
  endfacet
  facet normal  0.000000e+00  1.000000e+00 -0.000000e+00
    outer loop
      vertex   9.929751e-01 -1.400000e-01  8.537996e-01
      vertex   6.929752e-01 -1.400000e-01  9.000000e-01
      vertex   9.929751e-01 -1.400000e-01  9.000000e-01
    endloop
  endfacet
  facet normal  0.000000e+00  0.000000e+00  1.000000e+00
    outer loop
      vertex   1.042975e+00 -1.900000e-01  9.000000e-01
      vertex   9.929751e-01 -1.400000e-01  9.000000e-01
      vertex   9.929751e-01 -1.900000e-01  9.000000e-01
    endloop
  endfacet
  facet normal -0.000000e+00  0.000000e+00  1.000000e+00
    outer loop
      vertex   9.929751e-01 -1.400000e-01  9.000000e-01
      vertex   1.042975e+00 -1.900000e-01  9.000000e-01
      vertex   1.042975e+00 -1.400000e-01  9.000000e-01
    endloop
  endfacet
  facet normal  0.000000e+00  1.000000e+00  0.000000e+00
    outer loop
      vertex   9.929751e-01 -1.400000e-01  6.794234e-01
      vertex   1.042975e+00 -1.400000e-01  5.000000e-01
      vertex   9.929751e-01 -1.400000e-01  5.000000e-01
    endloop
  endfacet
  facet normal  0.000000e+00  1.000000e+00 -0.000000e+00
    outer loop
      vertex   1.042975e+00 -1.400000e-01  5.000000e-01
      vertex   9.929751e-01 -1.400000e-01  6.794234e-01
      vertex   1.042975e+00 -1.400000e-01  9.000000e-01
    endloop
  endfacet
  facet normal  0.000000e+00  1.000000e+00  0.000000e+00
    outer loop
      vertex   1.042975e+00 -1.400000e-01  9.000000e-01
      vertex   9.929751e-01 -1.400000e-01  6.794234e-01
      vertex   9.929751e-01 -1.400000e-01  7.286316e-01
    endloop
  endfacet
  facet normal  0.000000e+00  1.000000e+00  0.000000e+00
    outer loop
      vertex   1.042975e+00 -1.400000e-01  9.000000e-01
      vertex   9.929751e-01 -1.400000e-01  7.286316e-01
      vertex   9.929751e-01 -1.400000e-01  8.537996e-01
    endloop
  endfacet
  facet normal  0.000000e+00  1.000000e+00  0.000000e+00
    outer loop
      vertex   1.042975e+00 -1.400000e-01  9.000000e-01
      vertex   9.929751e-01 -1.400000e-01  8.537996e-01
      vertex   9.929751e-01 -1.400000e-01  9.000000e-01
    endloop
  endfacet
  facet normal  0.000000e+00  0.000000e+00  1.000000e+00
    outer loop
      vertex   6.929752e-01 -1.900000e-01  9.000000e-01
      vertex   6.429752e-01 -1.400000e-01  9.000000e-01
      vertex   6.429752e-01 -1.900000e-01  9.000000e-01
    endloop
  endfacet
  facet normal -0.000000e+00  0.000000e+00  1.000000e+00
    outer loop
      vertex   6.429752e-01 -1.400000e-01  9.000000e-01
      vertex   6.929752e-01 -1.900000e-01  9.000000e-01
      vertex   6.929752e-01 -1.400000e-01  9.000000e-01
    endloop
  endfacet
  facet normal  0.000000e+00  1.000000e+00  0.000000e+00
    outer loop
      vertex   6.429752e-01 -1.400000e-01  9.000000e-01
      vertex   6.929752e-01 -1.400000e-01  5.000000e-01
      vertex   6.429752e-01 -1.400000e-01  5.000000e-01
    endloop
  endfacet
  facet normal  0.000000e+00  1.000000e+00 -0.000000e+00
    outer loop
      vertex   6.929752e-01 -1.400000e-01  5.000000e-01
      vertex   6.429752e-01 -1.400000e-01  9.000000e-01
      vertex   6.929752e-01 -1.400000e-01  6.794234e-01
    endloop
  endfacet
  facet normal  0.000000e+00  1.000000e+00 -0.000000e+00
    outer loop
      vertex   6.929752e-01 -1.400000e-01  6.794234e-01
      vertex   6.429752e-01 -1.400000e-01  9.000000e-01
      vertex   6.929752e-01 -1.400000e-01  7.286316e-01
    endloop
  endfacet
  facet normal  0.000000e+00  1.000000e+00 -0.000000e+00
    outer loop
      vertex   6.929752e-01 -1.400000e-01  7.286316e-01
      vertex   6.429752e-01 -1.400000e-01  9.000000e-01
      vertex   6.929752e-01 -1.400000e-01  8.537996e-01
    endloop
  endfacet
  facet normal  0.000000e+00  1.000000e+00 -0.000000e+00
    outer loop
      vertex   6.929752e-01 -1.400000e-01  8.537996e-01
      vertex   6.429752e-01 -1.400000e-01  9.000000e-01
      vertex   6.929752e-01 -1.400000e-01  9.000000e-01
    endloop
  endfacet
  facet normal  0.000000e+00  1.000000e+00  0.000000e+00
    outer loop
      vertex   6.929752e-01 -1.400000e-01  7.286316e-01
      vertex   9.929751e-01 -1.400000e-01  6.794234e-01
      vertex   6.929752e-01 -1.400000e-01  6.794234e-01
    endloop
  endfacet
  facet normal  0.000000e+00  1.000000e+00 -0.000000e+00
    outer loop
      vertex   9.929751e-01 -1.400000e-01  6.794234e-01
      vertex   6.929752e-01 -1.400000e-01  7.286316e-01
      vertex   9.929751e-01 -1.400000e-01  7.286316e-01
    endloop
  endfacet
  facet normal  0.000000e+00  0.000000e+00  1.000000e+00
    outer loop
      vertex   9.929751e-01 -1.900000e-01  7.286316e-01
      vertex   6.929752e-01 -1.400000e-01  7.286316e-01
      vertex   6.929752e-01 -1.900000e-01  7.286316e-01
    endloop
  endfacet
  facet normal -0.000000e+00  0.000000e+00  1.000000e+00
    outer loop
      vertex   6.929752e-01 -1.400000e-01  7.286316e-01
      vertex   9.929751e-01 -1.900000e-01  7.286316e-01
      vertex   9.929751e-01 -1.400000e-01  7.286316e-01
    endloop
  endfacet
  facet normal -0.000000e+00  0.000000e+00 -1.000000e+00
    outer loop
      vertex   9.929751e-01 -1.400000e-01  8.537996e-01
      vertex   6.929752e-01 -1.900000e-01  8.537996e-01
      vertex   6.929752e-01 -1.400000e-01  8.537996e-01
    endloop
  endfacet
  facet normal  0.000000e+00  0.000000e+00 -1.000000e+00
    outer loop
      vertex   6.929752e-01 -1.900000e-01  8.537996e-01
      vertex   9.929751e-01 -1.400000e-01  8.537996e-01
      vertex   9.929751e-01 -1.900000e-01  8.537996e-01
    endloop
  endfacet
  facet normal  0.000000e+00 -1.000000e+00 -0.000000e+00
    outer loop
      vertex   9.929751e-01 -1.900000e-01  5.000000e-01
      vertex   6.929752e-01 -1.900000e-01  4.000000e-01
      vertex   9.929751e-01 -1.900000e-01  4.000000e-01
    endloop
  endfacet
  facet normal  0.000000e+00 -1.000000e+00  0.000000e+00
    outer loop
      vertex   6.929752e-01 -1.900000e-01  4.000000e-01
      vertex   9.929751e-01 -1.900000e-01  5.000000e-01
      vertex   6.929752e-01 -1.900000e-01  5.000000e-01
    endloop
  endfacet
  facet normal  1.000000e+00  0.000000e+00  0.000000e+00
    outer loop
      vertex   6.929752e-01 -1.400000e-01  7.286316e-01
      vertex   6.929752e-01 -1.900000e-01  8.537996e-01
      vertex   6.929752e-01 -1.900000e-01  7.286316e-01
    endloop
  endfacet
  facet normal  1.000000e+00 -0.000000e+00  0.000000e+00
    outer loop
      vertex   6.929752e-01 -1.900000e-01  8.537996e-01
      vertex   6.929752e-01 -1.400000e-01  7.286316e-01
      vertex   6.929752e-01 -1.400000e-01  8.537996e-01
    endloop
  endfacet
  facet normal -1.000000e+00 -0.000000e+00  0.000000e+00
    outer loop
      vertex   9.929751e-01 -1.400000e-01  7.286316e-01
      vertex   9.929751e-01 -1.900000e-01  6.794234e-01
      vertex   9.929751e-01 -1.900000e-01  7.286316e-01
    endloop
  endfacet
  facet normal -1.000000e+00  0.000000e+00  0.000000e+00
    outer loop
      vertex   9.929751e-01 -1.900000e-01  6.794234e-01
      vertex   9.929751e-01 -1.400000e-01  7.286316e-01
      vertex   9.929751e-01 -1.400000e-01  6.794234e-01
    endloop
  endfacet
  facet normal -1.000000e+00 -0.000000e+00  0.000000e+00
    outer loop
      vertex   9.929751e-01 -1.400000e-01  8.537996e-01
      vertex   9.929751e-01 -1.900000e-01  7.286316e-01
      vertex   9.929751e-01 -1.900000e-01  8.537996e-01
    endloop
  endfacet
  facet normal -1.000000e+00  0.000000e+00  0.000000e+00
    outer loop
      vertex   9.929751e-01 -1.900000e-01  7.286316e-01
      vertex   9.929751e-01 -1.400000e-01  8.537996e-01
      vertex   9.929751e-01 -1.400000e-01  7.286316e-01
    endloop
  endfacet
  facet normal  1.000000e+00  0.000000e+00  0.000000e+00
    outer loop
      vertex   6.929752e-01 -1.900000e-01  8.537996e-01
      vertex   6.929752e-01 -1.400000e-01  9.000000e-01
      vertex   6.929752e-01 -1.900000e-01  9.000000e-01
    endloop
  endfacet
  facet normal  1.000000e+00  0.000000e+00  0.000000e+00
    outer loop
      vertex   6.929752e-01 -1.400000e-01  9.000000e-01
      vertex   6.929752e-01 -1.900000e-01  8.537996e-01
      vertex   6.929752e-01 -1.400000e-01  8.537996e-01
    endloop
  endfacet
  facet normal -0.000000e+00  0.000000e+00 -1.000000e+00
    outer loop
      vertex   9.929751e-01 -1.400000e-01  6.794234e-01
      vertex   6.929752e-01 -1.900000e-01  6.794234e-01
      vertex   6.929752e-01 -1.400000e-01  6.794234e-01
    endloop
  endfacet
  facet normal  0.000000e+00  0.000000e+00 -1.000000e+00
    outer loop
      vertex   6.929752e-01 -1.900000e-01  6.794234e-01
      vertex   9.929751e-01 -1.400000e-01  6.794234e-01
      vertex   9.929751e-01 -1.900000e-01  6.794234e-01
    endloop
  endfacet
  facet normal  1.000000e+00  0.000000e+00  0.000000e+00
    outer loop
      vertex   6.929752e-01 -1.400000e-01  5.000000e-01
      vertex   6.929752e-01 -1.900000e-01  6.794234e-01
      vertex   6.929752e-01 -1.900000e-01  5.000000e-01
    endloop
  endfacet
  facet normal  1.000000e+00 -0.000000e+00  0.000000e+00
    outer loop
      vertex   6.929752e-01 -1.900000e-01  6.794234e-01
      vertex   6.929752e-01 -1.400000e-01  5.000000e-01
      vertex   6.929752e-01 -1.400000e-01  6.794234e-01
    endloop
  endfacet
  facet normal -1.000000e+00  0.000000e+00  0.000000e+00
    outer loop
      vertex   9.929751e-01 -1.900000e-01  5.000000e-01
      vertex   9.929751e-01 -1.400000e-01  4.000000e-01
      vertex   9.929751e-01 -1.900000e-01  4.000000e-01
    endloop
  endfacet
  facet normal -1.000000e+00  0.000000e+00  0.000000e+00
    outer loop
      vertex   9.929751e-01 -1.400000e-01  4.000000e-01
      vertex   9.929751e-01 -1.900000e-01  5.000000e-01
      vertex   9.929751e-01 -1.400000e-01  5.000000e-01
    endloop
  endfacet
  facet normal  0.000000e+00 -1.000000e+00 -0.000000e+00
    outer loop
      vertex   9.929751e-01 -1.900000e-01  7.286316e-01
      vertex   6.929752e-01 -1.900000e-01  6.794234e-01
      vertex   9.929751e-01 -1.900000e-01  6.794234e-01
    endloop
  endfacet
  facet normal  0.000000e+00 -1.000000e+00  0.000000e+00
    outer loop
      vertex   6.929752e-01 -1.900000e-01  6.794234e-01
      vertex   9.929751e-01 -1.900000e-01  7.286316e-01
      vertex   6.929752e-01 -1.900000e-01  7.286316e-01
    endloop
  endfacet
  facet normal -1.000000e+00 -0.000000e+00  0.000000e+00
    outer loop
      vertex   9.929751e-01 -1.400000e-01  6.794234e-01
      vertex   9.929751e-01 -1.900000e-01  5.000000e-01
      vertex   9.929751e-01 -1.900000e-01  6.794234e-01
    endloop
  endfacet
  facet normal -1.000000e+00  0.000000e+00  0.000000e+00
    outer loop
      vertex   9.929751e-01 -1.900000e-01  5.000000e-01
      vertex   9.929751e-01 -1.400000e-01  6.794234e-01
      vertex   9.929751e-01 -1.400000e-01  5.000000e-01
    endloop
  endfacet
  facet normal  1.000000e+00  0.000000e+00  0.000000e+00
    outer loop
      vertex   6.929752e-01 -1.400000e-01  6.794234e-01
      vertex   6.929752e-01 -1.900000e-01  7.286316e-01
      vertex   6.929752e-01 -1.900000e-01  6.794234e-01
    endloop
  endfacet
  facet normal  1.000000e+00 -0.000000e+00  0.000000e+00
    outer loop
      vertex   6.929752e-01 -1.900000e-01  7.286316e-01
      vertex   6.929752e-01 -1.400000e-01  6.794234e-01
      vertex   6.929752e-01 -1.400000e-01  7.286316e-01
    endloop
  endfacet
endsolid MensChair