solid Exported from Blender-4.0.2
facet normal 0.139565 0.969256 -0.202646
outer loop
vertex 0.846358 0.120987 1.230717
vertex 0.845801 0.124174 1.245579
vertex 0.864368 0.121474 1.245450
endloop
endfacet
facet normal 0.067666 0.981901 -0.176896
outer loop
vertex 0.846429 0.125585 1.261407
vertex 0.868726 0.123720 1.259584
vertex 0.864368 0.121474 1.245450
endloop
endfacet
facet normal -0.107409 -0.470295 -0.875949
outer loop
vertex 0.879561 0.069758 1.132832
vertex 0.886145 0.056589 1.139095
vertex 0.876130 0.065673 1.135446
endloop
endfacet
facet normal -0.067824 -0.496718 -0.865258
outer loop
vertex 0.879561 0.069758 1.132832
vertex 0.876130 0.065673 1.135446
vertex 0.867663 0.070029 1.133609
endloop
endfacet
facet normal 0.149400 -0.362763 -0.919828
outer loop
vertex 0.886145 0.056589 1.139095
vertex 0.879561 0.069758 1.132832
vertex 0.885308 0.076841 1.130972
endloop
endfacet
facet normal -0.255409 -0.369002 -0.893646
outer loop
vertex 0.886145 0.056589 1.139095
vertex 0.885308 0.076841 1.130972
vertex 0.892370 0.063876 1.134307
endloop
endfacet
facet normal 0.789176 0.290699 -0.541014
outer loop
vertex 0.892370 0.063876 1.134307
vertex 0.885308 0.076841 1.130972
vertex 0.890886 0.088077 1.145146
endloop
endfacet
facet normal 0.686955 0.413136 -0.597839
outer loop
vertex 0.890886 0.088077 1.145146
vertex 0.885308 0.076841 1.130972
vertex 0.875517 0.088592 1.127842
endloop
endfacet
facet normal 0.002223 -0.255666 -0.966762
outer loop
vertex 0.879561 0.069758 1.132832
vertex 0.875517 0.088592 1.127842
vertex 0.885308 0.076841 1.130972
endloop
endfacet
facet normal 0.540351 0.592896 -0.597072
outer loop
vertex 0.875517 0.088592 1.127842
vertex 0.864292 0.106089 1.135058
vertex 0.876795 0.098690 1.139026
endloop
endfacet
facet normal 0.243910 0.499334 -0.831369
outer loop
vertex 0.864292 0.106089 1.135058
vertex 0.875517 0.088592 1.127842
vertex 0.859965 0.093977 1.126514
endloop
endfacet
facet normal 0.640952 0.531853 -0.553456
outer loop
vertex 0.890886 0.088077 1.145146
vertex 0.875517 0.088592 1.127842
vertex 0.876795 0.098690 1.139026
endloop
endfacet
facet normal 0.111746 -0.232012 -0.966273
outer loop
vertex 0.879561 0.069758 1.132832
vertex 0.869921 0.079000 1.129498
vertex 0.875517 0.088592 1.127842
endloop
endfacet
facet normal 0.020945 -0.181942 -0.983086
outer loop
vertex 0.859965 0.093977 1.126514
vertex 0.875517 0.088592 1.127842
vertex 0.869921 0.079000 1.129498
endloop
endfacet
facet normal 0.028246 0.569445 -0.821544
outer loop
vertex 0.864292 0.106089 1.135058
vertex 0.859965 0.093977 1.126514
vertex 0.845801 0.094646 1.126491
endloop
endfacet
facet normal -0.008088 -0.205340 -0.978657
outer loop
vertex 0.845801 0.085670 1.128374
vertex 0.845801 0.094646 1.126491
vertex 0.859965 0.093977 1.126514
endloop
endfacet
facet normal -0.006473 -0.199534 -0.979870
outer loop
vertex 0.859965 0.093977 1.126514
vertex 0.869921 0.079000 1.129498
vertex 0.857648 0.084294 1.128501
endloop
endfacet
facet normal -0.012526 -0.198138 -0.980094
outer loop
vertex 0.845801 0.085670 1.128374
vertex 0.859965 0.093977 1.126514
vertex 0.857648 0.084294 1.128501
endloop
endfacet
facet normal -0.458549 -0.714861 0.527927
outer loop
vertex 0.893715 0.108414 1.255317
vertex 0.882102 0.117476 1.257501
vertex 0.873741 0.105094 1.233473
endloop
endfacet
facet normal -0.026937 -0.319296 -0.947272
outer loop
vertex 0.845801 0.074410 1.132170
vertex 0.845801 0.085670 1.128374
vertex 0.857648 0.084294 1.128501
endloop
endfacet
facet normal -0.634689 0.742971 0.212518
outer loop
vertex 0.845801 0.125836 1.194258
vertex 0.845801 0.118378 1.220328
vertex 0.846329 0.118824 1.220347
endloop
endfacet
facet normal -0.015468 -0.346697 -0.937850
outer loop
vertex 0.857648 0.084294 1.128501
vertex 0.867663 0.070029 1.133609
vertex 0.858061 0.072522 1.132846
endloop
endfacet
facet normal -0.001558 -0.346306 -0.938120
outer loop
vertex 0.845801 0.074410 1.132170
vertex 0.857648 0.084294 1.128501
vertex 0.858061 0.072522 1.132846
endloop
endfacet
facet normal 0.052292 0.906385 -0.419204
outer loop
vertex 0.845801 0.111306 1.162841
vertex 0.845801 0.125836 1.194258
vertex 0.861354 0.116903 1.176883
endloop
endfacet
facet normal -0.148453 -0.919246 0.364621
outer loop
vertex 0.845801 0.087171 1.164340
vertex 0.906327 0.082867 1.178132
vertex 0.845801 0.093551 1.180425
endloop
endfacet
facet normal -0.112518 -0.771739 0.625907
outer loop
vertex 0.906327 0.082867 1.178132
vertex 0.875866 0.092599 1.184657
vertex 0.845801 0.093551 1.180425
endloop
endfacet
facet normal -0.277411 -0.955244 0.102724
outer loop
vertex 0.905632 0.095069 1.226370
vertex 0.901676 0.097497 1.238265
vertex 0.887708 0.101296 1.235869
endloop
endfacet
facet normal -0.262027 -0.921678 0.286097
outer loop
vertex 0.858061 0.072522 1.132846
vertex 0.867663 0.070029 1.133609
vertex 0.845801 0.080791 1.148255
endloop
endfacet
facet normal -0.447647 -0.138658 0.883395
outer loop
vertex 0.876130 0.065673 1.135446
vertex 0.886145 0.056589 1.139095
vertex 0.900420 0.072341 1.148801
endloop
endfacet
facet normal 0.010371 0.999721 -0.021219
outer loop
vertex 0.845801 0.111306 1.162841
vertex 0.861214 0.111176 1.164263
vertex 0.862569 0.110855 1.149803
endloop
endfacet
facet normal 0.398869 0.885178 -0.239506
outer loop
vertex 0.864292 0.106089 1.135058
vertex 0.862569 0.110855 1.149803
vertex 0.876080 0.105597 1.152871
endloop
endfacet
facet normal 0.389066 0.907563 -0.157979
outer loop
vertex 0.862569 0.110855 1.149803
vertex 0.874657 0.108602 1.166630
vertex 0.876080 0.105597 1.152871
endloop
endfacet
facet normal 0.188753 0.982016 -0.004111
outer loop
vertex 0.862569 0.110855 1.149803
vertex 0.861214 0.111176 1.164263
vertex 0.874657 0.108602 1.166630
endloop
endfacet
facet normal 0.437950 0.879518 -0.186139
outer loop
vertex 0.889468 0.099473 1.158342
vertex 0.874657 0.108602 1.166630
vertex 0.887529 0.102855 1.169760
endloop
endfacet
facet normal 0.459660 0.876366 -0.143863
outer loop
vertex 0.889468 0.099473 1.158342
vertex 0.876080 0.105597 1.152871
vertex 0.874657 0.108602 1.166630
endloop
endfacet
facet normal 0.398537 0.916136 0.043167
outer loop
vertex 0.887529 0.102855 1.169760
vertex 0.874657 0.108602 1.166630
vertex 0.872283 0.109050 1.179040
endloop
endfacet
facet normal 0.187972 0.982174 0.000503
outer loop
vertex 0.861214 0.111176 1.164263
vertex 0.872283 0.109050 1.179040
vertex 0.874657 0.108602 1.166630
endloop
endfacet
facet normal 0.571057 0.816932 0.080721
outer loop
vertex 0.857914 0.117972 1.190401
vertex 0.872283 0.109050 1.179040
vertex 0.861354 0.116903 1.176883
endloop
endfacet
facet normal 0.669692 0.669607 0.321153
outer loop
vertex 0.857914 0.117972 1.190401
vertex 0.868593 0.106083 1.192921
vertex 0.872283 0.109050 1.179040
endloop
endfacet
facet normal 0.315021 0.942497 -0.111629
outer loop
vertex 0.887529 0.102855 1.169760
vertex 0.872283 0.109050 1.179040
vertex 0.885048 0.105176 1.182355
endloop
endfacet
facet normal 0.592245 0.731247 -0.338414
outer loop
vertex 0.861214 0.111176 1.164263
vertex 0.861354 0.116903 1.176883
vertex 0.872283 0.109050 1.179040
endloop
endfacet
facet normal 0.037126 0.975173 0.218309
outer loop
vertex 0.882561 0.104927 1.195709
vertex 0.872283 0.109050 1.179040
vertex 0.868593 0.106083 1.192921
endloop
endfacet
facet normal 0.273326 0.959459 0.068790
outer loop
vertex 0.882561 0.104927 1.195709
vertex 0.885048 0.105176 1.182355
vertex 0.872283 0.109050 1.179040
endloop
endfacet
facet normal -0.017331 0.944636 0.327663
outer loop
vertex 0.882561 0.104927 1.195709
vertex 0.879041 0.100213 1.209113
vertex 0.894288 0.099593 1.211707
endloop
endfacet
facet normal 0.011251 0.942373 0.334375
outer loop
vertex 0.868593 0.106083 1.192921
vertex 0.879041 0.100213 1.209113
vertex 0.882561 0.104927 1.195709
endloop
endfacet
facet normal 0.110307 0.964320 0.240663
outer loop
vertex 0.882561 0.104927 1.195709
vertex 0.894288 0.099593 1.211707
vertex 0.896466 0.102561 1.198816
endloop
endfacet
facet normal 0.157191 0.986417 0.047666
outer loop
vertex 0.896466 0.102561 1.198816
vertex 0.885048 0.105176 1.182355
vertex 0.882561 0.104927 1.195709
endloop
endfacet
facet normal 0.512700 0.813683 0.273968
outer loop
vertex 0.907698 0.094677 1.201212
vertex 0.896466 0.102561 1.198816
vertex 0.894288 0.099593 1.211707
endloop
endfacet
facet normal 0.329704 0.943855 -0.020834
outer loop
vertex 0.907698 0.094677 1.201212
vertex 0.894288 0.099593 1.211707
vertex 0.907839 0.094903 1.213683
endloop
endfacet
facet normal 0.308730 0.949608 0.054137
outer loop
vertex 0.905632 0.095069 1.226370
vertex 0.894288 0.099593 1.211707
vertex 0.891655 0.099722 1.224460
endloop
endfacet
facet normal 0.040912 0.999161 -0.001657
outer loop
vertex 0.891655 0.099722 1.224460
vertex 0.894288 0.099593 1.211707
vertex 0.879041 0.100213 1.209113
endloop
endfacet
facet normal 0.321089 0.946050 0.043479
outer loop
vertex 0.905632 0.095069 1.226370
vertex 0.907839 0.094903 1.213683
vertex 0.894288 0.099593 1.211707
endloop
endfacet
facet normal 0.333713 0.793677 -0.508638
outer loop
vertex 0.897038 0.100736 1.229574
vertex 0.905632 0.095069 1.226370
vertex 0.891655 0.099722 1.224460
endloop
endfacet
facet normal 0.305255 0.820154 -0.483907
outer loop
vertex 0.889935 0.107097 1.235875
vertex 0.897038 0.100736 1.229574
vertex 0.891655 0.099722 1.224460
endloop
endfacet
facet normal 0.644331 0.744291 -0.175693
outer loop
vertex 0.893715 0.108414 1.255317
vertex 0.901676 0.097497 1.238265
vertex 0.889935 0.107097 1.235875
endloop
endfacet
facet normal 0.586677 0.792259 -0.167735
outer loop
vertex 0.889935 0.107097 1.235875
vertex 0.882102 0.117476 1.257501
vertex 0.893715 0.108414 1.255317
endloop
endfacet
facet normal 0.403205 0.846912 -0.346650
outer loop
vertex 0.878864 0.116055 1.244884
vertex 0.889935 0.107097 1.235875
vertex 0.876021 0.113008 1.234133
endloop
endfacet
facet normal 0.497643 0.838451 -0.222150
outer loop
vertex 0.889935 0.107097 1.235875
vertex 0.878864 0.116055 1.244884
vertex 0.882102 0.117476 1.257501
endloop
endfacet
facet normal 0.355007 0.632877 -0.688067
outer loop
vertex 0.889935 0.107097 1.235875
vertex 0.876680 0.100764 1.223211
vertex 0.876021 0.113008 1.234133
endloop
endfacet
facet normal 0.102728 0.842488 -0.528829
outer loop
vertex 0.876680 0.100764 1.223211
vertex 0.889935 0.107097 1.235875
vertex 0.891655 0.099722 1.224460
endloop
endfacet
facet normal 0.374571 0.628352 -0.681814
outer loop
vertex 0.859575 0.107282 1.219821
vertex 0.876021 0.113008 1.234133
vertex 0.876680 0.100764 1.223211
endloop
endfacet
facet normal 0.378004 0.913386 -0.151124
outer loop
vertex 0.876680 0.100764 1.223211
vertex 0.865323 0.102627 1.206064
vertex 0.859575 0.107282 1.219821
endloop
endfacet
facet normal 0.071628 0.997067 -0.026973
outer loop
vertex 0.891655 0.099722 1.224460
vertex 0.879041 0.100213 1.209113
vertex 0.876680 0.100764 1.223211
endloop
endfacet
facet normal 0.175272 0.984478 -0.009123
outer loop
vertex 0.876680 0.100764 1.223211
vertex 0.879041 0.100213 1.209113
vertex 0.865323 0.102627 1.206064
endloop
endfacet
facet normal 0.814778 0.559756 0.151031
outer loop
vertex 0.859575 0.107282 1.219821
vertex 0.865323 0.102627 1.206064
vertex 0.857451 0.113731 1.207378
endloop
endfacet
facet normal 0.787515 0.518973 0.332397
outer loop
vertex 0.857451 0.113731 1.207378
vertex 0.865323 0.102627 1.206064
vertex 0.868593 0.106083 1.192921
endloop
endfacet
facet normal 0.106334 0.954814 0.277531
outer loop
vertex 0.868593 0.106083 1.192921
vertex 0.865323 0.102627 1.206064
vertex 0.879041 0.100213 1.209113
endloop
endfacet
facet normal 0.578804 0.787304 0.212459
outer loop
vertex 0.857451 0.113731 1.207378
vertex 0.857914 0.117972 1.190401
vertex 0.845801 0.125836 1.194258
endloop
endfacet
facet normal 0.710354 0.678062 0.188758
outer loop
vertex 0.857451 0.113731 1.207378
vertex 0.868593 0.106083 1.192921
vertex 0.857914 0.117972 1.190401
endloop
endfacet
facet normal 0.228158 0.941353 -0.248594
outer loop
vertex 0.846358 0.120987 1.230717
vertex 0.861720 0.117700 1.232369
vertex 0.845801 0.118378 1.220328
endloop
endfacet
facet normal -0.211688 0.950544 -0.227276
outer loop
vertex 0.845801 0.118378 1.220328
vertex 0.845801 0.120877 1.230778
vertex 0.846358 0.120987 1.230717
endloop
endfacet
facet normal -0.132034 0.968175 -0.212612
outer loop
vertex 0.846358 0.120987 1.230717
vertex 0.845801 0.121012 1.231177
vertex 0.845801 0.124174 1.245579
endloop
endfacet
facet normal 0.485339 0.630125 -0.606126
outer loop
vertex 0.861720 0.117700 1.232369
vertex 0.859575 0.107282 1.219821
vertex 0.845801 0.118378 1.220328
endloop
endfacet
facet normal 0.230773 0.921439 -0.312562
outer loop
vertex 0.864368 0.121474 1.245450
vertex 0.861720 0.117700 1.232369
vertex 0.846358 0.120987 1.230717
endloop
endfacet
facet normal 0.330764 0.886787 -0.322806
outer loop
vertex 0.864368 0.121474 1.245450
vertex 0.876021 0.113008 1.234133
vertex 0.861720 0.117700 1.232369
endloop
endfacet
facet normal 0.309952 0.704786 -0.638127
outer loop
vertex 0.859575 0.107282 1.219821
vertex 0.861720 0.117700 1.232369
vertex 0.876021 0.113008 1.234133
endloop
endfacet
facet normal 0.567502 0.791615 0.226465
outer loop
vertex 0.845801 0.125836 1.194258
vertex 0.845801 0.118378 1.220328
vertex 0.857451 0.113731 1.207378
endloop
endfacet
facet normal 0.061805 0.997072 0.045025
outer loop
vertex 0.845801 0.111306 1.162841
vertex 0.862569 0.110855 1.149803
vertex 0.845801 0.111950 1.148579
endloop
endfacet
facet normal 0.749956 -0.660779 -0.030613
outer loop
vertex 0.886145 0.056589 1.139095
vertex 0.892370 0.063876 1.134307
vertex 0.900420 0.072341 1.148801
endloop
endfacet
facet normal 0.045787 0.909475 -0.413230
outer loop
vertex 0.845801 0.111306 1.162841
vertex 0.861354 0.116903 1.176883
vertex 0.861214 0.111176 1.164263
endloop
endfacet
facet normal -0.305509 -0.837329 0.453371
outer loop
vertex 0.887708 0.101296 1.235869
vertex 0.873741 0.105094 1.233473
vertex 0.868997 0.098049 1.217264
endloop
endfacet
facet normal -0.115066 -0.888742 0.443731
outer loop
vertex 0.900420 0.072341 1.148801
vertex 0.905374 0.078672 1.162766
vertex 0.845801 0.087171 1.164340
endloop
endfacet
facet normal -0.347791 -0.934654 0.073910
outer loop
vertex 0.845801 0.106312 1.212596
vertex 0.861247 0.100348 1.209861
vertex 0.868997 0.098049 1.217264
endloop
endfacet
facet normal 0.186906 0.940943 -0.282297
outer loop
vertex 0.862569 0.110855 1.149803
vertex 0.864292 0.106089 1.135058
vertex 0.845801 0.109273 1.133428
endloop
endfacet
facet normal 0.076767 0.981844 -0.173464
outer loop
vertex 0.845801 0.109273 1.133428
vertex 0.845801 0.111950 1.148579
vertex 0.862569 0.110855 1.149803
endloop
endfacet
facet normal 0.560115 0.824800 0.077309
outer loop
vertex 0.845801 0.125836 1.194258
vertex 0.857914 0.117972 1.190401
vertex 0.861354 0.116903 1.176883
endloop
endfacet
facet normal 0.388492 0.899266 -0.200982
outer loop
vertex 0.868726 0.123720 1.259584
vertex 0.882102 0.117476 1.257501
vertex 0.878864 0.116055 1.244884
endloop
endfacet
facet normal 0.318346 0.886632 -0.335468
outer loop
vertex 0.864368 0.121474 1.245450
vertex 0.878864 0.116055 1.244884
vertex 0.876021 0.113008 1.234133
endloop
endfacet
facet normal 0.330858 0.910848 -0.246757
outer loop
vertex 0.868726 0.123720 1.259584
vertex 0.878864 0.116055 1.244884
vertex 0.864368 0.121474 1.245450
endloop
endfacet
facet normal 0.591058 0.759350 -0.272100
outer loop
vertex 0.905916 0.091648 1.188888
vertex 0.896466 0.102561 1.198816
vertex 0.907698 0.094677 1.201212
endloop
endfacet
facet normal 0.704561 0.702361 -0.101404
outer loop
vertex 0.905916 0.091648 1.188888
vertex 0.896940 0.100196 1.185729
vertex 0.896466 0.102561 1.198816
endloop
endfacet
facet normal 0.696014 0.569014 -0.437935
outer loop
vertex 0.906327 0.082867 1.178132
vertex 0.896940 0.100196 1.185729
vertex 0.905916 0.091648 1.188888
endloop
endfacet
facet normal 0.850240 0.512760 -0.119033
outer loop
vertex 0.906327 0.082867 1.178132
vertex 0.898080 0.095390 1.173169
vertex 0.896940 0.100196 1.185729
endloop
endfacet
facet normal 0.417255 0.896829 -0.146954
outer loop
vertex 0.896466 0.102561 1.198816
vertex 0.896940 0.100196 1.185729
vertex 0.885048 0.105176 1.182355
endloop
endfacet
facet normal 0.438080 0.852124 -0.286305
outer loop
vertex 0.885048 0.105176 1.182355
vertex 0.896940 0.100196 1.185729
vertex 0.898080 0.095390 1.173169
endloop
endfacet
facet normal 0.901071 0.429677 -0.058720
outer loop
vertex 0.905374 0.078672 1.162766
vertex 0.899169 0.091347 1.160296
vertex 0.898080 0.095390 1.173169
endloop
endfacet
facet normal 0.607299 0.771213 -0.190837
outer loop
vertex 0.887529 0.102855 1.169760
vertex 0.898080 0.095390 1.173169
vertex 0.899169 0.091347 1.160296
endloop
endfacet
facet normal 0.584577 0.810616 -0.034227
outer loop
vertex 0.885048 0.105176 1.182355
vertex 0.898080 0.095390 1.173169
vertex 0.887529 0.102855 1.169760
endloop
endfacet
facet normal 0.852837 0.487893 -0.186089
outer loop
vertex 0.905374 0.078672 1.162766
vertex 0.898080 0.095390 1.173169
vertex 0.906327 0.082867 1.178132
endloop
endfacet
facet normal 0.836246 0.323037 -0.443103
outer loop
vertex 0.900420 0.072341 1.148801
vertex 0.899169 0.091347 1.160296
vertex 0.905374 0.078672 1.162766
endloop
endfacet
facet normal 0.651249 0.750594 -0.111731
outer loop
vertex 0.887529 0.102855 1.169760
vertex 0.899169 0.091347 1.160296
vertex 0.889468 0.099473 1.158342
endloop
endfacet
facet normal 0.619598 0.625768 -0.473828
outer loop
vertex 0.889468 0.099473 1.158342
vertex 0.899169 0.091347 1.160296
vertex 0.890886 0.088077 1.145146
endloop
endfacet
facet normal 0.784662 0.357816 -0.506234
outer loop
vertex 0.900420 0.072341 1.148801
vertex 0.890886 0.088077 1.145146
vertex 0.899169 0.091347 1.160296
endloop
endfacet
facet normal 0.506323 0.781810 -0.363882
outer loop
vertex 0.889468 0.099473 1.158342
vertex 0.876795 0.098690 1.139026
vertex 0.876080 0.105597 1.152871
endloop
endfacet
facet normal 0.653467 0.606214 -0.453305
outer loop
vertex 0.889468 0.099473 1.158342
vertex 0.890886 0.088077 1.145146
vertex 0.876795 0.098690 1.139026
endloop
endfacet
facet normal 0.556771 0.754433 -0.347617
outer loop
vertex 0.864292 0.106089 1.135058
vertex 0.876080 0.105597 1.152871
vertex 0.876795 0.098690 1.139026
endloop
endfacet
facet normal 0.151670 0.423576 -0.893073
outer loop
vertex 0.864292 0.106089 1.135058
vertex 0.845801 0.094646 1.126491
vertex 0.845801 0.109273 1.133428
endloop
endfacet
facet normal -0.096001 -0.394600 -0.913824
outer loop
vertex 0.857648 0.084294 1.128501
vertex 0.869921 0.079000 1.129498
vertex 0.867663 0.070029 1.133609
endloop
endfacet
facet normal -0.068798 -0.401256 -0.913379
outer loop
vertex 0.879561 0.069758 1.132832
vertex 0.867663 0.070029 1.133609
vertex 0.869921 0.079000 1.129498
endloop
endfacet
facet normal 0.741786 0.311482 -0.593913
outer loop
vertex 0.892370 0.063876 1.134307
vertex 0.890886 0.088077 1.145146
vertex 0.900420 0.072341 1.148801
endloop
endfacet
facet normal -0.297747 -0.907101 0.297515
outer loop
vertex 0.873741 0.105094 1.233473
vertex 0.859774 0.108893 1.231077
vertex 0.861243 0.106728 1.225946
endloop
endfacet
facet normal 0.142663 0.985348 -0.093472
outer loop
vertex 0.846429 0.125585 1.261407
vertex 0.864368 0.121474 1.245450
vertex 0.845801 0.124174 1.245579
endloop
endfacet
facet normal -0.604517 0.766136 0.218162
outer loop
vertex 0.845801 0.125836 1.194258
vertex 0.846329 0.118824 1.220347
vertex 0.846368 0.126228 1.194454
endloop
endfacet
facet normal 0.608339 0.742311 0.280888
outer loop
vertex 0.859575 0.107282 1.219821
vertex 0.857451 0.113731 1.207378
vertex 0.845801 0.118378 1.220328
endloop
endfacet
facet normal -0.135402 0.987338 -0.082641
outer loop
vertex 0.846429 0.125585 1.261407
vertex 0.845801 0.124174 1.245579
vertex 0.845801 0.125452 1.260851
endloop
endfacet
facet normal -0.129083 -0.954563 0.268603
outer loop
vertex 0.905374 0.078672 1.162766
vertex 0.906327 0.082867 1.178132
vertex 0.845801 0.087171 1.164340
endloop
endfacet
facet normal -0.477237 -0.866888 0.144048
outer loop
vertex 0.867663 0.070029 1.133609
vertex 0.876130 0.065673 1.135446
vertex 0.845801 0.087171 1.164340
endloop
endfacet
facet normal -0.161380 -0.917360 0.363878
outer loop
vertex 0.845801 0.080791 1.148255
vertex 0.845801 0.074410 1.132170
vertex 0.858061 0.072522 1.132846
endloop
endfacet
facet normal 0.027194 -0.993884 -0.107029
outer loop
vertex 0.905632 0.095069 1.226370
vertex 0.880864 0.095143 1.219388
vertex 0.876273 0.096682 1.203934
endloop
endfacet
facet normal -0.206048 -0.909601 0.360792
outer loop
vertex 0.845801 0.087171 1.164340
vertex 0.845801 0.080791 1.148255
vertex 0.867663 0.070029 1.133609
endloop
endfacet
facet normal -0.071210 -0.834607 0.546224
outer loop
vertex 0.876130 0.065673 1.135446
vertex 0.900420 0.072341 1.148801
vertex 0.845801 0.087171 1.164340
endloop
endfacet
facet normal -0.153623 -0.966020 0.207859
outer loop
vertex 0.861247 0.100348 1.209861
vertex 0.845801 0.099931 1.196510
vertex 0.875866 0.092599 1.184657
endloop
endfacet
facet normal -0.297639 -0.907124 0.297552
outer loop
vertex 0.859774 0.108893 1.231077
vertex 0.845801 0.112692 1.228681
vertex 0.861243 0.106728 1.225946
endloop
endfacet
facet normal -0.062035 -0.997897 0.018787
outer loop
vertex 0.907698 0.094677 1.201212
vertex 0.907839 0.094903 1.213683
vertex 0.876273 0.096682 1.203934
endloop
endfacet
facet normal -0.281803 -0.891873 0.353764
outer loop
vertex 0.845801 0.106312 1.212596
vertex 0.861243 0.106728 1.225946
vertex 0.845801 0.112692 1.228681
endloop
endfacet
facet normal -0.250335 -0.743247 0.620416
outer loop
vertex 0.882102 0.117476 1.257501
vertex 0.868726 0.123720 1.259584
vertex 0.845801 0.119072 1.244766
endloop
endfacet
facet normal -0.047854 -0.929540 0.365602
outer loop
vertex 0.868726 0.123720 1.259584
vertex 0.846429 0.125585 1.261407
vertex 0.845801 0.119072 1.244766
endloop
endfacet
facet normal -0.129006 -0.921738 0.365727
outer loop
vertex 0.846429 0.125585 1.261407
vertex 0.845801 0.125452 1.260851
vertex 0.845801 0.119072 1.244766
endloop
endfacet
facet normal -0.167808 -0.916364 0.363480
outer loop
vertex 0.845801 0.119072 1.244766
vertex 0.845801 0.112692 1.228681
vertex 0.882102 0.117476 1.257501
endloop
endfacet
facet normal -0.304154 -0.860415 0.408871
outer loop
vertex 0.887708 0.101296 1.235869
vertex 0.893715 0.108414 1.255317
vertex 0.873741 0.105094 1.233473
endloop
endfacet
facet normal -0.306093 -0.798692 0.518072
outer loop
vertex 0.882102 0.117476 1.257501
vertex 0.859774 0.108893 1.231077
vertex 0.873741 0.105094 1.233473
endloop
endfacet
facet normal -0.250859 -0.967288 -0.037725
outer loop
vertex 0.876273 0.096682 1.203934
vertex 0.868997 0.098049 1.217264
vertex 0.861247 0.100348 1.209861
endloop
endfacet
facet normal -0.081043 -0.926487 0.367496
outer loop
vertex 0.845801 0.099931 1.196510
vertex 0.845801 0.093551 1.180425
vertex 0.875866 0.092599 1.184657
endloop
endfacet
facet normal -0.057219 -0.998357 0.003109
outer loop
vertex 0.876273 0.096682 1.203934
vertex 0.907839 0.094903 1.213683
vertex 0.905632 0.095069 1.226370
endloop
endfacet
facet normal -0.112128 -0.914785 0.388068
outer loop
vertex 0.905632 0.095069 1.226370
vertex 0.887708 0.101296 1.235869
vertex 0.880864 0.095143 1.219388
endloop
endfacet
facet normal -0.060204 -0.976272 0.208011
outer loop
vertex 0.875866 0.092599 1.184657
vertex 0.905916 0.091648 1.188888
vertex 0.876273 0.096682 1.203934
endloop
endfacet
facet normal -0.040680 -0.968916 0.244023
outer loop
vertex 0.905916 0.091648 1.188888
vertex 0.907698 0.094677 1.201212
vertex 0.876273 0.096682 1.203934
endloop
endfacet
facet normal -0.233086 -0.972066 -0.027534
outer loop
vertex 0.868997 0.098049 1.217264
vertex 0.876273 0.096682 1.203934
vertex 0.880864 0.095143 1.219388
endloop
endfacet
facet normal -0.381889 -0.801514 0.460148
outer loop
vertex 0.873741 0.105094 1.233473
vertex 0.861243 0.106728 1.225946
vertex 0.868997 0.098049 1.217264
endloop
endfacet
facet normal -0.112561 -0.771821 0.625797
outer loop
vertex 0.906327 0.082867 1.178132
vertex 0.905916 0.091648 1.188888
vertex 0.875866 0.092599 1.184657
endloop
endfacet
facet normal -0.281742 -0.891890 0.353772
outer loop
vertex 0.845801 0.106312 1.212596
vertex 0.845801 0.099931 1.196510
vertex 0.861247 0.100348 1.209861
endloop
endfacet
facet normal -0.378652 -0.801426 0.462969
outer loop
vertex 0.861243 0.106728 1.225946
vertex 0.845801 0.106312 1.212596
vertex 0.868997 0.098049 1.217264
endloop
endfacet
facet normal 0.554195 0.832262 0.014427
outer loop
vertex 0.897038 0.100736 1.229574
vertex 0.901676 0.097497 1.238265
vertex 0.905632 0.095069 1.226370
endloop
endfacet
facet normal -0.304136 -0.860425 0.408864
outer loop
vertex 0.887708 0.101296 1.235869
vertex 0.901676 0.097497 1.238265
vertex 0.893715 0.108414 1.255317
endloop
endfacet
facet normal -0.305990 -0.798770 0.518013
outer loop
vertex 0.882102 0.117476 1.257501
vertex 0.845801 0.112692 1.228681
vertex 0.859774 0.108893 1.231077
endloop
endfacet
facet normal -0.153707 -0.966017 0.207812
outer loop
vertex 0.861247 0.100348 1.209861
vertex 0.875866 0.092599 1.184657
vertex 0.876273 0.096682 1.203934
endloop
endfacet
facet normal -0.286980 -0.852276 0.437343
outer loop
vertex 0.868997 0.098049 1.217264
vertex 0.880864 0.095143 1.219388
vertex 0.887708 0.101296 1.235869
endloop
endfacet
facet normal 0.638698 0.767503 -0.054813
outer loop
vertex 0.889935 0.107097 1.235875
vertex 0.901676 0.097497 1.238265
vertex 0.897038 0.100736 1.229574
endloop
endfacet
facet normal -0.139566 0.969256 -0.202645
outer loop
vertex 0.845244 0.120987 1.230717
vertex 0.827234 0.121474 1.245450
vertex 0.845801 0.124174 1.245579
endloop
endfacet
facet normal -0.067666 0.981901 -0.176896
outer loop
vertex 0.845173 0.125585 1.261407
vertex 0.827234 0.121474 1.245450
vertex 0.822876 0.123720 1.259584
endloop
endfacet
facet normal 0.107408 -0.470297 -0.875948
outer loop
vertex 0.812041 0.069758 1.132832
vertex 0.815472 0.065673 1.135446
vertex 0.805457 0.056589 1.139095
endloop
endfacet
facet normal 0.067824 -0.496719 -0.865257
outer loop
vertex 0.812041 0.069758 1.132832
vertex 0.823939 0.070029 1.133609
vertex 0.815472 0.065673 1.135446
endloop
endfacet
facet normal -0.149401 -0.362768 -0.919825
outer loop
vertex 0.805457 0.056589 1.139095
vertex 0.806294 0.076841 1.130972
vertex 0.812041 0.069758 1.132832
endloop
endfacet
facet normal 0.255410 -0.368994 -0.893649
outer loop
vertex 0.805457 0.056589 1.139095
vertex 0.799232 0.063876 1.134307
vertex 0.806294 0.076841 1.130972
endloop
endfacet
facet normal -0.789177 0.290692 -0.541015
outer loop
vertex 0.799232 0.063876 1.134307
vertex 0.800716 0.088077 1.145146
vertex 0.806294 0.076841 1.130972
endloop
endfacet
facet normal -0.686958 0.413128 -0.597840
outer loop
vertex 0.800716 0.088077 1.145146
vertex 0.816085 0.088592 1.127842
vertex 0.806294 0.076841 1.130972
endloop
endfacet
facet normal -0.002223 -0.255672 -0.966761
outer loop
vertex 0.812041 0.069758 1.132832
vertex 0.806294 0.076841 1.130972
vertex 0.816085 0.088592 1.127842
endloop
endfacet
facet normal -0.540351 0.592898 -0.597070
outer loop
vertex 0.816085 0.088592 1.127842
vertex 0.814807 0.098690 1.139026
vertex 0.827310 0.106089 1.135058
endloop
endfacet
facet normal -0.243909 0.499335 -0.831368
outer loop
vertex 0.827310 0.106089 1.135058
vertex 0.831637 0.093977 1.126514
vertex 0.816085 0.088592 1.127842
endloop
endfacet
facet normal -0.640950 0.531859 -0.553452
outer loop
vertex 0.800716 0.088077 1.145146
vertex 0.814807 0.098690 1.139026
vertex 0.816085 0.088592 1.127842
endloop
endfacet
facet normal -0.111745 -0.232009 -0.966274
outer loop
vertex 0.812041 0.069758 1.132832
vertex 0.816085 0.088592 1.127842
vertex 0.821681 0.079000 1.129498
endloop
endfacet
facet normal -0.020945 -0.181944 -0.983086
outer loop
vertex 0.831637 0.093977 1.126514
vertex 0.821681 0.079000 1.129498
vertex 0.816085 0.088592 1.127842
endloop
endfacet
facet normal -0.028246 0.569438 -0.821549
outer loop
vertex 0.827310 0.106089 1.135058
vertex 0.845801 0.094646 1.126491
vertex 0.831637 0.093977 1.126514
endloop
endfacet
facet normal 0.008088 -0.205339 -0.978657
outer loop
vertex 0.845801 0.085670 1.128374
vertex 0.831637 0.093977 1.126514
vertex 0.845801 0.094646 1.126491
endloop
endfacet
facet normal 0.006473 -0.199534 -0.979870
outer loop
vertex 0.831637 0.093977 1.126514
vertex 0.833954 0.084294 1.128501
vertex 0.821681 0.079000 1.129498
endloop
endfacet
facet normal 0.012526 -0.198137 -0.980094
outer loop
vertex 0.845801 0.085670 1.128374
vertex 0.833954 0.084294 1.128501
vertex 0.831637 0.093977 1.126514
endloop
endfacet
facet normal 0.458552 -0.714857 0.527930
outer loop
vertex 0.797887 0.108414 1.255317
vertex 0.817861 0.105094 1.233473
vertex 0.809500 0.117476 1.257501
endloop
endfacet
facet normal 0.026937 -0.319292 -0.947273
outer loop
vertex 0.845801 0.074410 1.132170
vertex 0.833954 0.084294 1.128501
vertex 0.845801 0.085670 1.128374
endloop
endfacet
facet normal 0.634758 0.742913 0.212516
outer loop
vertex 0.845801 0.125836 1.194258
vertex 0.845273 0.118824 1.220347
vertex 0.845801 0.118378 1.220328
endloop
endfacet
facet normal 0.015468 -0.346700 -0.937849
outer loop
vertex 0.833954 0.084294 1.128501
vertex 0.833541 0.072522 1.132846
vertex 0.823939 0.070029 1.133609
endloop
endfacet
facet normal 0.001558 -0.346305 -0.938121
outer loop
vertex 0.845801 0.074410 1.132170
vertex 0.833541 0.072522 1.132846
vertex 0.833954 0.084294 1.128501
endloop
endfacet
facet normal -0.052292 0.906385 -0.419204
outer loop
vertex 0.845801 0.111306 1.162841
vertex 0.830248 0.116903 1.176883
vertex 0.845801 0.125836 1.194258
endloop
endfacet
facet normal 0.148453 -0.919246 0.364621
outer loop
vertex 0.845801 0.087171 1.164340
vertex 0.845801 0.093551 1.180425
vertex 0.785275 0.082867 1.178132
endloop
endfacet
facet normal 0.112518 -0.771739 0.625906
outer loop
vertex 0.785275 0.082867 1.178132
vertex 0.845801 0.093551 1.180425
vertex 0.815735 0.092599 1.184657
endloop
endfacet
facet normal 0.277410 -0.955244 0.102724
outer loop
vertex 0.785970 0.095069 1.226370
vertex 0.803893 0.101296 1.235869
vertex 0.789926 0.097497 1.238265
endloop
endfacet
facet normal 0.262030 -0.921676 0.286100
outer loop
vertex 0.833541 0.072522 1.132846
vertex 0.845801 0.080791 1.148255
vertex 0.823939 0.070029 1.133609
endloop
endfacet
facet normal 0.447646 -0.138660 0.883395
outer loop
vertex 0.815472 0.065673 1.135446
vertex 0.791182 0.072341 1.148801
vertex 0.805457 0.056589 1.139095
endloop
endfacet
facet normal -0.010371 0.999721 -0.021220
outer loop
vertex 0.845801 0.111306 1.162841
vertex 0.829033 0.110855 1.149803
vertex 0.830388 0.111176 1.164263
endloop
endfacet
facet normal -0.398868 0.885179 -0.239505
outer loop
vertex 0.827310 0.106089 1.135058
vertex 0.815522 0.105597 1.152871
vertex 0.829033 0.110855 1.149803
endloop
endfacet
facet normal -0.389059 0.907566 -0.157977
outer loop
vertex 0.829033 0.110855 1.149803
vertex 0.815522 0.105597 1.152871
vertex 0.816945 0.108602 1.166630
endloop
endfacet
facet normal -0.188754 0.982016 -0.004111
outer loop
vertex 0.829033 0.110855 1.149803
vertex 0.816945 0.108602 1.166630
vertex 0.830388 0.111176 1.164263
endloop
endfacet
facet normal -0.437951 0.879517 -0.186139
outer loop
vertex 0.802134 0.099473 1.158342
vertex 0.804073 0.102855 1.169760
vertex 0.816945 0.108602 1.166630
endloop
endfacet
facet normal -0.459656 0.876368 -0.143862
outer loop
vertex 0.802134 0.099473 1.158342
vertex 0.816945 0.108602 1.166630
vertex 0.815522 0.105597 1.152871
endloop
endfacet
facet normal -0.398537 0.916136 0.043167
outer loop
vertex 0.804073 0.102855 1.169760
vertex 0.819319 0.109050 1.179040
vertex 0.816945 0.108602 1.166630
endloop
endfacet
facet normal -0.187972 0.982174 0.000503
outer loop
vertex 0.830388 0.111176 1.164263
vertex 0.816945 0.108602 1.166630
vertex 0.819319 0.109050 1.179040
endloop
endfacet
facet normal -0.571057 0.816932 0.080721
outer loop
vertex 0.833688 0.117972 1.190401
vertex 0.830248 0.116903 1.176883
vertex 0.819319 0.109050 1.179040
endloop
endfacet
facet normal -0.669692 0.669607 0.321153
outer loop
vertex 0.833688 0.117972 1.190401
vertex 0.819319 0.109050 1.179040
vertex 0.823009 0.106083 1.192921
endloop
endfacet
facet normal -0.315021 0.942497 -0.111629
outer loop
vertex 0.804073 0.102855 1.169760
vertex 0.806554 0.105176 1.182355
vertex 0.819319 0.109050 1.179040
endloop
endfacet
facet normal -0.592240 0.731252 -0.338411
outer loop
vertex 0.830388 0.111176 1.164263
vertex 0.819319 0.109050 1.179040
vertex 0.830248 0.116903 1.176883
endloop
endfacet
facet normal -0.037126 0.975173 0.218309
outer loop
vertex 0.809041 0.104927 1.195709
vertex 0.823009 0.106083 1.192921
vertex 0.819319 0.109050 1.179040
endloop
endfacet
facet normal -0.273322 0.959460 0.068789
outer loop
vertex 0.809041 0.104927 1.195709
vertex 0.819319 0.109050 1.179040
vertex 0.806554 0.105176 1.182355
endloop
endfacet
facet normal 0.017331 0.944634 0.327667
outer loop
vertex 0.809041 0.104927 1.195709
vertex 0.797314 0.099593 1.211707
vertex 0.812561 0.100213 1.209113
endloop
endfacet
facet normal -0.011251 0.942373 0.334375
outer loop
vertex 0.823009 0.106083 1.192921
vertex 0.809041 0.104927 1.195709
vertex 0.812561 0.100213 1.209113
endloop
endfacet
facet normal -0.110306 0.964321 0.240661
outer loop
vertex 0.809041 0.104927 1.195709
vertex 0.795136 0.102561 1.198816
vertex 0.797314 0.099593 1.211707
endloop
endfacet
facet normal -0.157191 0.986417 0.047666
outer loop
vertex 0.795136 0.102561 1.198816
vertex 0.809041 0.104927 1.195709
vertex 0.806554 0.105176 1.182355
endloop
endfacet
facet normal -0.512696 0.813686 0.273966
outer loop
vertex 0.783904 0.094677 1.201212
vertex 0.797314 0.099593 1.211707
vertex 0.795136 0.102561 1.198816
endloop
endfacet
facet normal -0.329705 0.943854 -0.020834
outer loop
vertex 0.783904 0.094677 1.201212
vertex 0.783763 0.094903 1.213683
vertex 0.797314 0.099593 1.211707
endloop
endfacet
facet normal -0.308727 0.949609 0.054137
outer loop
vertex 0.785970 0.095069 1.226370
vertex 0.799947 0.099722 1.224460
vertex 0.797314 0.099593 1.211707
endloop
endfacet
facet normal -0.040912 0.999161 -0.001657
outer loop
vertex 0.799947 0.099722 1.224460
vertex 0.812561 0.100213 1.209113
vertex 0.797314 0.099593 1.211707
endloop
endfacet
facet normal -0.321088 0.946051 0.043478
outer loop
vertex 0.785970 0.095069 1.226370
vertex 0.797314 0.099593 1.211707
vertex 0.783763 0.094903 1.213683
endloop
endfacet
facet normal -0.333715 0.793675 -0.508640
outer loop
vertex 0.794564 0.100736 1.229574
vertex 0.799947 0.099722 1.224460
vertex 0.785970 0.095069 1.226370
endloop
endfacet
facet normal -0.305244 0.820169 -0.483890
outer loop
vertex 0.801667 0.107097 1.235875
vertex 0.799947 0.099722 1.224460
vertex 0.794564 0.100736 1.229574
endloop
endfacet
facet normal -0.644328 0.744294 -0.175692
outer loop
vertex 0.797887 0.108414 1.255317
vertex 0.801667 0.107097 1.235875
vertex 0.789926 0.097497 1.238265
endloop
endfacet
facet normal -0.586674 0.792262 -0.167734
outer loop
vertex 0.801667 0.107097 1.235875
vertex 0.797887 0.108414 1.255317
vertex 0.809500 0.117476 1.257501
endloop
endfacet
facet normal -0.403202 0.846915 -0.346647
outer loop
vertex 0.812738 0.116055 1.244884
vertex 0.815581 0.113008 1.234133
vertex 0.801667 0.107097 1.235875
endloop
endfacet
facet normal -0.497648 0.838449 -0.222149
outer loop
vertex 0.801667 0.107097 1.235875
vertex 0.809500 0.117476 1.257501
vertex 0.812738 0.116055 1.244884
endloop
endfacet
facet normal -0.355005 0.632882 -0.688064
outer loop
vertex 0.801667 0.107097 1.235875
vertex 0.815581 0.113008 1.234133
vertex 0.814922 0.100764 1.223211
endloop
endfacet
facet normal -0.102730 0.842483 -0.528837
outer loop
vertex 0.814922 0.100764 1.223211
vertex 0.799947 0.099722 1.224460
vertex 0.801667 0.107097 1.235875
endloop
endfacet
facet normal -0.374571 0.628352 -0.681814
outer loop
vertex 0.832027 0.107282 1.219821
vertex 0.814922 0.100764 1.223211
vertex 0.815581 0.113008 1.234133
endloop
endfacet
facet normal -0.378004 0.913386 -0.151124
outer loop
vertex 0.814922 0.100764 1.223211
vertex 0.832027 0.107282 1.219821
vertex 0.826279 0.102627 1.206064
endloop
endfacet
facet normal -0.071628 0.997067 -0.026973
outer loop
vertex 0.799947 0.099722 1.224460
vertex 0.814922 0.100764 1.223211
vertex 0.812561 0.100213 1.209113
endloop
endfacet
facet normal -0.175271 0.984478 -0.009123
outer loop
vertex 0.814922 0.100764 1.223211
vertex 0.826279 0.102627 1.206064
vertex 0.812561 0.100213 1.209113
endloop
endfacet
facet normal -0.814776 0.559759 0.151030
outer loop
vertex 0.832027 0.107282 1.219821
vertex 0.834151 0.113731 1.207378
vertex 0.826279 0.102627 1.206064
endloop
endfacet
facet normal -0.787523 0.518959 0.332400
outer loop
vertex 0.834151 0.113731 1.207378
vertex 0.823009 0.106083 1.192921
vertex 0.826279 0.102627 1.206064
endloop
endfacet
facet normal -0.106333 0.954815 0.277527
outer loop
vertex 0.823009 0.106083 1.192921
vertex 0.812561 0.100213 1.209113
vertex 0.826279 0.102627 1.206064
endloop
endfacet
facet normal -0.578805 0.787303 0.212459
outer loop
vertex 0.834151 0.113731 1.207378
vertex 0.845801 0.125836 1.194258
vertex 0.833688 0.117972 1.190401
endloop
endfacet
facet normal -0.710353 0.678063 0.188758
outer loop
vertex 0.834151 0.113731 1.207378
vertex 0.833688 0.117972 1.190401
vertex 0.823009 0.106083 1.192921
endloop
endfacet
facet normal -0.228156 0.941354 -0.248591
outer loop
vertex 0.845244 0.120987 1.230717
vertex 0.845801 0.118378 1.220328
vertex 0.829882 0.117700 1.232369
endloop
endfacet
facet normal 0.211738 0.950526 -0.227306
outer loop
vertex 0.845801 0.118378 1.220328
vertex 0.845244 0.120987 1.230717
vertex 0.845801 0.120877 1.230778
endloop
endfacet
facet normal 0.132035 0.968180 -0.212590
outer loop
vertex 0.845244 0.120987 1.230717
vertex 0.845801 0.124174 1.245579
vertex 0.845801 0.121012 1.231177
endloop
endfacet
facet normal -0.485339 0.630127 -0.606124
outer loop
vertex 0.829882 0.117700 1.232369
vertex 0.845801 0.118378 1.220328
vertex 0.832027 0.107282 1.219821
endloop
endfacet
facet normal -0.230772 0.921439 -0.312560
outer loop
vertex 0.827234 0.121474 1.245450
vertex 0.845244 0.120987 1.230717
vertex 0.829882 0.117700 1.232369
endloop
endfacet
facet normal -0.330760 0.886790 -0.322803
outer loop
vertex 0.827234 0.121474 1.245450
vertex 0.829882 0.117700 1.232369
vertex 0.815581 0.113008 1.234133
endloop
endfacet
facet normal -0.309953 0.704785 -0.638128
outer loop
vertex 0.832027 0.107282 1.219821
vertex 0.815581 0.113008 1.234133
vertex 0.829882 0.117700 1.232369
endloop
endfacet
facet normal -0.567505 0.791614 0.226465
outer loop
vertex 0.845801 0.125836 1.194258
vertex 0.834151 0.113731 1.207378
vertex 0.845801 0.118378 1.220328
endloop
endfacet
facet normal -0.061804 0.997072 0.045024
outer loop
vertex 0.845801 0.111306 1.162841
vertex 0.845801 0.111950 1.148579
vertex 0.829033 0.110855 1.149803
endloop
endfacet
facet normal -0.749956 -0.660779 -0.030616
outer loop
vertex 0.805457 0.056589 1.139095
vertex 0.791182 0.072341 1.148801
vertex 0.799232 0.063876 1.134307
endloop
endfacet
facet normal -0.045787 0.909474 -0.413233
outer loop
vertex 0.845801 0.111306 1.162841
vertex 0.830388 0.111176 1.164263
vertex 0.830248 0.116903 1.176883
endloop
endfacet
facet normal 0.305505 -0.837333 0.453365
outer loop
vertex 0.803893 0.101296 1.235869
vertex 0.822604 0.098049 1.217264
vertex 0.817861 0.105094 1.233473
endloop
endfacet
facet normal 0.115066 -0.888743 0.443730
outer loop
vertex 0.791182 0.072341 1.148801
vertex 0.845801 0.087171 1.164340
vertex 0.786228 0.078672 1.162766
endloop
endfacet
facet normal 0.347791 -0.934654 0.073912
outer loop
vertex 0.845801 0.106312 1.212596
vertex 0.822604 0.098049 1.217264
vertex 0.830355 0.100348 1.209861
endloop
endfacet
facet normal -0.186909 0.940942 -0.282299
outer loop
vertex 0.829033 0.110855 1.149803
vertex 0.845801 0.109273 1.133428
vertex 0.827310 0.106089 1.135058
endloop
endfacet
facet normal -0.076767 0.981844 -0.173463
outer loop
vertex 0.845801 0.109273 1.133428
vertex 0.829033 0.110855 1.149803
vertex 0.845801 0.111950 1.148579
endloop
endfacet
facet normal -0.560119 0.824797 0.077310
outer loop
vertex 0.845801 0.125836 1.194258
vertex 0.830248 0.116903 1.176883
vertex 0.833688 0.117972 1.190401
endloop
endfacet
facet normal -0.388492 0.899267 -0.200980
outer loop
vertex 0.822876 0.123720 1.259584
vertex 0.812738 0.116055 1.244884
vertex 0.809500 0.117476 1.257501
endloop
endfacet
facet normal -0.318349 0.886630 -0.335471
outer loop
vertex 0.827234 0.121474 1.245450
vertex 0.815581 0.113008 1.234133
vertex 0.812738 0.116055 1.244884
endloop
endfacet
facet normal -0.330858 0.910848 -0.246758
outer loop
vertex 0.822876 0.123720 1.259584
vertex 0.827234 0.121474 1.245450
vertex 0.812738 0.116055 1.244884
endloop
endfacet
facet normal -0.591047 0.759360 -0.272095
outer loop
vertex 0.785686 0.091648 1.188888
vertex 0.783904 0.094677 1.201212
vertex 0.795136 0.102561 1.198816
endloop
endfacet
facet normal -0.704561 0.702361 -0.101404
outer loop
vertex 0.785686 0.091648 1.188888
vertex 0.795136 0.102561 1.198816
vertex 0.794662 0.100196 1.185729
endloop
endfacet
facet normal -0.696012 0.569018 -0.437934
outer loop
vertex 0.785275 0.082867 1.178132
vertex 0.785686 0.091648 1.188888
vertex 0.794662 0.100196 1.185729
endloop
endfacet
facet normal -0.850240 0.512760 -0.119033
outer loop
vertex 0.785275 0.082867 1.178132
vertex 0.794662 0.100196 1.185729
vertex 0.793522 0.095390 1.173169
endloop
endfacet
facet normal -0.417265 0.896824 -0.146958
outer loop
vertex 0.795136 0.102561 1.198816
vertex 0.806554 0.105176 1.182355
vertex 0.794662 0.100196 1.185729
endloop
endfacet
facet normal -0.438076 0.852127 -0.286303
outer loop
vertex 0.806554 0.105176 1.182355
vertex 0.793522 0.095390 1.173169
vertex 0.794662 0.100196 1.185729
endloop
endfacet
facet normal -0.901075 0.429669 -0.058720
outer loop
vertex 0.786228 0.078672 1.162766
vertex 0.793522 0.095390 1.173169
vertex 0.792433 0.091347 1.160296
endloop
endfacet
facet normal -0.607299 0.771213 -0.190837
outer loop
vertex 0.804073 0.102855 1.169760
vertex 0.792433 0.091347 1.160296
vertex 0.793522 0.095390 1.173169
endloop
endfacet
facet normal -0.584586 0.810610 -0.034228
outer loop
vertex 0.806554 0.105176 1.182355
vertex 0.804073 0.102855 1.169760
vertex 0.793522 0.095390 1.173169
endloop
endfacet
facet normal -0.852843 0.487882 -0.186090
outer loop
vertex 0.786228 0.078672 1.162766
vertex 0.785275 0.082867 1.178132
vertex 0.793522 0.095390 1.173169
endloop
endfacet
facet normal -0.836248 0.323035 -0.443100
outer loop
vertex 0.791182 0.072341 1.148801
vertex 0.786228 0.078672 1.162766
vertex 0.792433 0.091347 1.160296
endloop
endfacet
facet normal -0.651246 0.750597 -0.111731
outer loop
vertex 0.804073 0.102855 1.169760
vertex 0.802134 0.099473 1.158342
vertex 0.792433 0.091347 1.160296
endloop
endfacet
facet normal -0.619598 0.625768 -0.473828
outer loop
vertex 0.802134 0.099473 1.158342
vertex 0.800716 0.088077 1.145146
vertex 0.792433 0.091347 1.160296
endloop
endfacet
facet normal -0.784661 0.357821 -0.506233
outer loop
vertex 0.791182 0.072341 1.148801
vertex 0.792433 0.091347 1.160296
vertex 0.800716 0.088077 1.145146
endloop
endfacet
facet normal -0.506323 0.781810 -0.363882
outer loop
vertex 0.802134 0.099473 1.158342
vertex 0.815522 0.105597 1.152871
vertex 0.814807 0.098690 1.139026
endloop
endfacet
facet normal -0.653466 0.606216 -0.453304
outer loop
vertex 0.802134 0.099473 1.158342
vertex 0.814807 0.098690 1.139026
vertex 0.800716 0.088077 1.145146
endloop
endfacet
facet normal -0.556771 0.754433 -0.347617
outer loop
vertex 0.827310 0.106089 1.135058
vertex 0.814807 0.098690 1.139026
vertex 0.815522 0.105597 1.152871
endloop
endfacet
facet normal -0.151671 0.423577 -0.893073
outer loop
vertex 0.827310 0.106089 1.135058
vertex 0.845801 0.109273 1.133428
vertex 0.845801 0.094646 1.126491
endloop
endfacet
facet normal 0.096001 -0.394606 -0.913822
outer loop
vertex 0.833954 0.084294 1.128501
vertex 0.823939 0.070029 1.133609
vertex 0.821681 0.079000 1.129498
endloop
endfacet
facet normal 0.068797 -0.401254 -0.913380
outer loop
vertex 0.812041 0.069758 1.132832
vertex 0.821681 0.079000 1.129498
vertex 0.823939 0.070029 1.133609
endloop
endfacet
facet normal -0.741781 0.311491 -0.593914
outer loop
vertex 0.799232 0.063876 1.134307
vertex 0.791182 0.072341 1.148801
vertex 0.800716 0.088077 1.145146
endloop
endfacet
facet normal 0.297747 -0.907101 0.297515
outer loop
vertex 0.817861 0.105094 1.233473
vertex 0.830359 0.106728 1.225946
vertex 0.831828 0.108893 1.231077
endloop
endfacet
facet normal -0.142664 0.985348 -0.093472
outer loop
vertex 0.845173 0.125585 1.261407
vertex 0.845801 0.124174 1.245579
vertex 0.827234 0.121474 1.245450
endloop
endfacet
facet normal 0.604610 0.766060 0.218173
outer loop
vertex 0.845801 0.125836 1.194258
vertex 0.845234 0.126228 1.194454
vertex 0.845273 0.118824 1.220347
endloop
endfacet
facet normal -0.608339 0.742312 0.280886
outer loop
vertex 0.832027 0.107282 1.219821
vertex 0.845801 0.118378 1.220328
vertex 0.834151 0.113731 1.207378
endloop
endfacet
facet normal 0.135351 0.987349 -0.082601
outer loop
vertex 0.845173 0.125585 1.261407
vertex 0.845801 0.125452 1.260851
vertex 0.845801 0.124174 1.245579
endloop
endfacet
facet normal 0.129083 -0.954562 0.268604
outer loop
vertex 0.786228 0.078672 1.162766
vertex 0.845801 0.087171 1.164340
vertex 0.785275 0.082867 1.178132
endloop
endfacet
facet normal 0.477232 -0.866891 0.144047
outer loop
vertex 0.823939 0.070029 1.133609
vertex 0.845801 0.087171 1.164340
vertex 0.815472 0.065673 1.135446
endloop
endfacet
facet normal 0.161380 -0.917361 0.363876
outer loop
vertex 0.845801 0.080791 1.148255
vertex 0.833541 0.072522 1.132846
vertex 0.845801 0.074410 1.132170
endloop
endfacet
facet normal -0.027194 -0.993884 -0.107031
outer loop
vertex 0.785970 0.095069 1.226370
vertex 0.815329 0.096682 1.203934
vertex 0.810737 0.095143 1.219388
endloop
endfacet
facet normal 0.206048 -0.909601 0.360792
outer loop
vertex 0.845801 0.087171 1.164340
vertex 0.823939 0.070029 1.133609
vertex 0.845801 0.080791 1.148255
endloop
endfacet
facet normal 0.071210 -0.834605 0.546226
outer loop
vertex 0.815472 0.065673 1.135446
vertex 0.845801 0.087171 1.164340
vertex 0.791182 0.072341 1.148801
endloop
endfacet
facet normal 0.153624 -0.966020 0.207858
outer loop
vertex 0.830355 0.100348 1.209861
vertex 0.815735 0.092599 1.184657
vertex 0.845801 0.099931 1.196510
endloop
endfacet
facet normal 0.297639 -0.907124 0.297552
outer loop
vertex 0.831828 0.108893 1.231077
vertex 0.830359 0.106728 1.225946
vertex 0.845801 0.112692 1.228681
endloop
endfacet
facet normal 0.062034 -0.997897 0.018787
outer loop
vertex 0.783904 0.094677 1.201212
vertex 0.815329 0.096682 1.203934
vertex 0.783763 0.094903 1.213683
endloop
endfacet
facet normal 0.281803 -0.891874 0.353763
outer loop
vertex 0.845801 0.106312 1.212596
vertex 0.845801 0.112692 1.228681
vertex 0.830359 0.106728 1.225946
endloop
endfacet
facet normal 0.250336 -0.743245 0.620418
outer loop
vertex 0.809500 0.117476 1.257501
vertex 0.845801 0.119072 1.244766
vertex 0.822876 0.123720 1.259584
endloop
endfacet
facet normal 0.047854 -0.929540 0.365603
outer loop
vertex 0.822876 0.123720 1.259584
vertex 0.845801 0.119072 1.244766
vertex 0.845173 0.125585 1.261407
endloop
endfacet
facet normal 0.128967 -0.921802 0.365581
outer loop
vertex 0.845173 0.125585 1.261407
vertex 0.845801 0.119072 1.244766
vertex 0.845801 0.125452 1.260851
endloop
endfacet
facet normal 0.167809 -0.916363 0.363482
outer loop
vertex 0.845801 0.119072 1.244766
vertex 0.809500 0.117476 1.257501
vertex 0.845801 0.112692 1.228681
endloop
endfacet
facet normal 0.304151 -0.860419 0.408867
outer loop
vertex 0.803893 0.101296 1.235869
vertex 0.817861 0.105094 1.233473
vertex 0.797887 0.108414 1.255317
endloop
endfacet
facet normal 0.306091 -0.798694 0.518069
outer loop
vertex 0.809500 0.117476 1.257501
vertex 0.817861 0.105094 1.233473
vertex 0.831828 0.108893 1.231077
endloop
endfacet
facet normal 0.250855 -0.967289 -0.037724
outer loop
vertex 0.815329 0.096682 1.203934
vertex 0.830355 0.100348 1.209861
vertex 0.822604 0.098049 1.217264
endloop
endfacet
facet normal 0.081043 -0.926487 0.367497
outer loop
vertex 0.845801 0.099931 1.196510
vertex 0.815735 0.092599 1.184657
vertex 0.845801 0.093551 1.180425
endloop
endfacet
facet normal 0.057219 -0.998357 0.003108
outer loop
vertex 0.815329 0.096682 1.203934
vertex 0.785970 0.095069 1.226370
vertex 0.783763 0.094903 1.213683
endloop
endfacet
facet normal 0.112128 -0.914785 0.388066
outer loop
vertex 0.785970 0.095069 1.226370
vertex 0.810737 0.095143 1.219388
vertex 0.803893 0.101296 1.235869
endloop
endfacet
facet normal 0.060204 -0.976272 0.208011
outer loop
vertex 0.815735 0.092599 1.184657
vertex 0.815329 0.096682 1.203934
vertex 0.785686 0.091648 1.188888
endloop
endfacet
facet normal 0.040680 -0.968916 0.244021
outer loop
vertex 0.785686 0.091648 1.188888
vertex 0.815329 0.096682 1.203934
vertex 0.783904 0.094677 1.201212
endloop
endfacet
facet normal 0.233088 -0.972066 -0.027535
outer loop
vertex 0.822604 0.098049 1.217264
vertex 0.810737 0.095143 1.219388
vertex 0.815329 0.096682 1.203934
endloop
endfacet
facet normal 0.381895 -0.801507 0.460154
outer loop
vertex 0.817861 0.105094 1.233473
vertex 0.822604 0.098049 1.217264
vertex 0.830359 0.106728 1.225946
endloop
endfacet
facet normal 0.112561 -0.771821 0.625797
outer loop
vertex 0.785275 0.082867 1.178132
vertex 0.815735 0.092599 1.184657
vertex 0.785686 0.091648 1.188888
endloop
endfacet
facet normal 0.281742 -0.891890 0.353771
outer loop
vertex 0.845801 0.106312 1.212596
vertex 0.830355 0.100348 1.209861
vertex 0.845801 0.099931 1.196510
endloop
endfacet
facet normal 0.378651 -0.801428 0.462966
outer loop
vertex 0.830359 0.106728 1.225946
vertex 0.822604 0.098049 1.217264
vertex 0.845801 0.106312 1.212596
endloop
endfacet
facet normal -0.554195 0.832262 0.014427
outer loop
vertex 0.794564 0.100736 1.229574
vertex 0.785970 0.095069 1.226370
vertex 0.789926 0.097497 1.238265
endloop
endfacet
facet normal 0.304138 -0.860424 0.408866
outer loop
vertex 0.803893 0.101296 1.235869
vertex 0.797887 0.108414 1.255317
vertex 0.789926 0.097497 1.238265
endloop
endfacet
facet normal 0.305991 -0.798769 0.518012
outer loop
vertex 0.809500 0.117476 1.257501
vertex 0.831828 0.108893 1.231077
vertex 0.845801 0.112692 1.228681
endloop
endfacet
facet normal 0.153707 -0.966017 0.207812
outer loop
vertex 0.830355 0.100348 1.209861
vertex 0.815329 0.096682 1.203934
vertex 0.815735 0.092599 1.184657
endloop
endfacet
facet normal 0.286982 -0.852273 0.437346
outer loop
vertex 0.822604 0.098049 1.217264
vertex 0.803893 0.101296 1.235869
vertex 0.810737 0.095143 1.219388
endloop
endfacet
facet normal -0.638702 0.767500 -0.054814
outer loop
vertex 0.801667 0.107097 1.235875
vertex 0.794564 0.100736 1.229574
vertex 0.789926 0.097497 1.238265
endloop
endfacet
endsolid Exported from Blender-4.0.2
