solid Exported from Blender-4.0.2
facet normal 0.683200 -0.482634 -0.547998
outer loop
vertex 0.669167 0.371749 0.622185
vertex 0.659315 0.369323 0.612039
vertex 0.662990 0.380452 0.606819
endloop
endfacet
facet normal 0.832409 -0.553005 -0.035794
outer loop
vertex 0.675265 0.381353 0.615618
vertex 0.672883 0.376552 0.634397
vertex 0.669167 0.371749 0.622185
endloop
endfacet
facet normal 0.458836 -0.681317 -0.570330
outer loop
vertex 0.669167 0.371749 0.622185
vertex 0.662990 0.380452 0.606819
vertex 0.675265 0.381353 0.615618
endloop
endfacet
facet normal -0.974218 -0.190520 -0.120834
outer loop
vertex 0.628113 0.389613 0.614719
vertex 0.630803 0.373983 0.617675
vertex 0.628284 0.378419 0.630990
endloop
endfacet
facet normal -0.999457 0.021304 0.025158
outer loop
vertex 0.628113 0.389613 0.614719
vertex 0.628284 0.378419 0.630990
vertex 0.628526 0.393899 0.627498
endloop
endfacet
facet normal -0.978381 0.059947 0.197930
outer loop
vertex 0.628526 0.393899 0.627498
vertex 0.628284 0.378419 0.630990
vertex 0.631429 0.383480 0.645003
endloop
endfacet
facet normal -0.801141 -0.241445 -0.547610
outer loop
vertex 0.630803 0.373983 0.617675
vertex 0.628113 0.389613 0.614719
vertex 0.635721 0.384711 0.605750
endloop
endfacet
facet normal -0.999335 0.028488 0.022738
outer loop
vertex 0.628526 0.393899 0.627498
vertex 0.628332 0.403293 0.607195
vertex 0.628113 0.389613 0.614719
endloop
endfacet
facet normal -0.802138 -0.277864 -0.528551
outer loop
vertex 0.635721 0.384711 0.605750
vertex 0.628113 0.389613 0.614719
vertex 0.628332 0.403293 0.607195
endloop
endfacet
facet normal -0.116473 -0.501220 -0.857445
outer loop
vertex 0.644027 0.370650 0.612841
vertex 0.635721 0.384711 0.605750
vertex 0.647470 0.382954 0.605181
endloop
endfacet
facet normal -0.404160 -0.590864 -0.698236
outer loop
vertex 0.644027 0.370650 0.612841
vertex 0.630803 0.373983 0.617675
vertex 0.635721 0.384711 0.605750
endloop
endfacet
facet normal -0.843718 -0.300934 -0.444498
outer loop
vertex 0.635721 0.384711 0.605750
vertex 0.628332 0.403293 0.607195
vertex 0.636612 0.396446 0.596114
endloop
endfacet
facet normal -0.130535 -0.623231 -0.771067
outer loop
vertex 0.636612 0.396446 0.596114
vertex 0.647470 0.382954 0.605181
vertex 0.635721 0.384711 0.605750
endloop
endfacet
facet normal 0.004201 -0.529351 -0.848393
outer loop
vertex 0.662990 0.380452 0.606819
vertex 0.644027 0.370650 0.612841
vertex 0.647470 0.382954 0.605181
endloop
endfacet
facet normal 0.074048 -0.531134 -0.844046
outer loop
vertex 0.666649 0.392288 0.600990
vertex 0.647470 0.382954 0.605181
vertex 0.651379 0.395273 0.597772
endloop
endfacet
facet normal 0.022265 -0.447230 -0.894142
outer loop
vertex 0.666649 0.392288 0.600990
vertex 0.662990 0.380452 0.606819
vertex 0.647470 0.382954 0.605181
endloop
endfacet
facet normal 0.053362 -0.527046 -0.848160
outer loop
vertex 0.636612 0.396446 0.596114
vertex 0.651379 0.395273 0.597772
vertex 0.647470 0.382954 0.605181
endloop
endfacet
facet normal 0.080072 -0.512246 -0.855098
outer loop
vertex 0.666649 0.392288 0.600990
vertex 0.651379 0.395273 0.597772
vertex 0.655786 0.407662 0.590763
endloop
endfacet
facet normal 0.051813 -0.537425 -0.841718
outer loop
vertex 0.640025 0.409994 0.587674
vertex 0.651379 0.395273 0.597772
vertex 0.636612 0.396446 0.596114
endloop
endfacet
facet normal 0.090935 -0.514670 -0.852552
outer loop
vertex 0.640025 0.409994 0.587674
vertex 0.655786 0.407662 0.590763
vertex 0.651379 0.395273 0.597772
endloop
endfacet
facet normal 0.139213 -0.478399 -0.867038
outer loop
vertex 0.666649 0.392288 0.600990
vertex 0.655786 0.407662 0.590763
vertex 0.670812 0.404352 0.595002
endloop
endfacet
facet normal 0.109621 -0.439826 -0.891367
outer loop
vertex 0.645431 0.423627 0.581612
vertex 0.655786 0.407662 0.590763
vertex 0.640025 0.409994 0.587674
endloop
endfacet
facet normal 0.040134 -0.477176 -0.877891
outer loop
vertex 0.645431 0.423627 0.581612
vertex 0.661103 0.419972 0.584315
vertex 0.655786 0.407662 0.590763
endloop
endfacet
facet normal 0.154149 -0.509882 -0.846320
outer loop
vertex 0.675055 0.416442 0.588983
vertex 0.655786 0.407662 0.590763
vertex 0.661103 0.419972 0.584315
endloop
endfacet
facet normal 0.138663 -0.479939 -0.866274
outer loop
vertex 0.675055 0.416442 0.588983
vertex 0.670812 0.404352 0.595002
vertex 0.655786 0.407662 0.590763
endloop
endfacet
facet normal 0.381117 -0.513207 -0.769005
outer loop
vertex 0.670812 0.404352 0.595002
vertex 0.679427 0.391754 0.607679
vertex 0.666649 0.392288 0.600990
endloop
endfacet
facet normal 0.338063 -0.542598 -0.768961
outer loop
vertex 0.670812 0.404352 0.595002
vertex 0.684193 0.403255 0.601659
vertex 0.679427 0.391754 0.607679
endloop
endfacet
facet normal 0.369487 -0.514810 -0.773595
outer loop
vertex 0.688000 0.415420 0.595846
vertex 0.670812 0.404352 0.595002
vertex 0.675055 0.416442 0.588983
endloop
endfacet
facet normal 0.355362 -0.491215 -0.795252
outer loop
vertex 0.688000 0.415420 0.595846
vertex 0.684193 0.403255 0.601659
vertex 0.670812 0.404352 0.595002
endloop
endfacet
facet normal 0.729834 -0.529057 -0.432944
outer loop
vertex 0.686992 0.394612 0.616939
vertex 0.679427 0.391754 0.607679
vertex 0.684193 0.403255 0.601659
endloop
endfacet
facet normal 0.681445 -0.478059 -0.554160
outer loop
vertex 0.693685 0.405161 0.611687
vertex 0.684193 0.403255 0.601659
vertex 0.688000 0.415420 0.595846
endloop
endfacet
facet normal 0.621400 -0.627704 -0.468882
outer loop
vertex 0.686992 0.394612 0.616939
vertex 0.684193 0.403255 0.601659
vertex 0.693685 0.405161 0.611687
endloop
endfacet
facet normal 0.755846 -0.540331 -0.369782
outer loop
vertex 0.693685 0.405161 0.611687
vertex 0.708529 0.421190 0.618607
vertex 0.701083 0.407860 0.622865
endloop
endfacet
facet normal 0.716727 -0.616763 -0.325431
outer loop
vertex 0.701083 0.407860 0.622865
vertex 0.686992 0.394612 0.616939
vertex 0.693685 0.405161 0.611687
endloop
endfacet
facet normal 0.652281 -0.507660 -0.562859
outer loop
vertex 0.693685 0.405161 0.611687
vertex 0.688000 0.415420 0.595846
vertex 0.698698 0.417535 0.606336
endloop
endfacet
facet normal 0.743957 -0.495358 -0.448495
outer loop
vertex 0.693685 0.405161 0.611687
vertex 0.698698 0.417535 0.606336
vertex 0.708529 0.421190 0.618607
endloop
endfacet
facet normal 0.784314 -0.576158 -0.229985
outer loop
vertex 0.705442 0.410015 0.636075
vertex 0.708529 0.421190 0.618607
vertex 0.713718 0.422696 0.632530
endloop
endfacet
facet normal 0.830501 -0.524138 -0.188540
outer loop
vertex 0.705442 0.410015 0.636075
vertex 0.701083 0.407860 0.622865
vertex 0.708529 0.421190 0.618607
endloop
endfacet
facet normal 0.812959 -0.527863 -0.245884
outer loop
vertex 0.713718 0.422696 0.632530
vertex 0.708529 0.421190 0.618607
vertex 0.715471 0.433738 0.614621
endloop
endfacet
facet normal 0.728843 -0.537817 -0.423723
outer loop
vertex 0.715471 0.433738 0.614621
vertex 0.708529 0.421190 0.618607
vertex 0.698698 0.417535 0.606336
endloop
endfacet
facet normal 0.836005 -0.548616 -0.010791
outer loop
vertex 0.707290 0.412567 0.649498
vertex 0.705442 0.410015 0.636075
vertex 0.713718 0.422696 0.632530
endloop
endfacet
facet normal 0.848441 -0.525427 -0.063830
outer loop
vertex 0.723068 0.436358 0.644353
vertex 0.715846 0.424376 0.646987
vertex 0.713718 0.422696 0.632530
endloop
endfacet
facet normal 0.803777 -0.592875 -0.049417
outer loop
vertex 0.707290 0.412567 0.649498
vertex 0.713718 0.422696 0.632530
vertex 0.715846 0.424376 0.646987
endloop
endfacet
facet normal 0.846421 -0.529384 -0.057647
outer loop
vertex 0.723068 0.436358 0.644353
vertex 0.713718 0.422696 0.632530
vertex 0.722621 0.437326 0.628901
endloop
endfacet
facet normal 0.794814 -0.548233 -0.260215
outer loop
vertex 0.713718 0.422696 0.632530
vertex 0.715471 0.433738 0.614621
vertex 0.722621 0.437326 0.628901
endloop
endfacet
facet normal 0.716457 -0.649679 0.254179
outer loop
vertex 0.707290 0.412567 0.649498
vertex 0.696457 0.406016 0.663288
vertex 0.697518 0.402629 0.651640
endloop
endfacet
facet normal 0.716271 -0.696999 0.033901
outer loop
vertex 0.705442 0.410015 0.636075
vertex 0.707290 0.412567 0.649498
vertex 0.697518 0.402629 0.651640
endloop
endfacet
facet normal 0.805340 -0.524915 0.275485
outer loop
vertex 0.705596 0.416816 0.662546
vertex 0.707290 0.412567 0.649498
vertex 0.715846 0.424376 0.646987
endloop
endfacet
facet normal 0.739637 -0.605743 0.293278
outer loop
vertex 0.707290 0.412567 0.649498
vertex 0.705596 0.416816 0.662546
vertex 0.696457 0.406016 0.663288
endloop
endfacet
facet normal 0.743342 -0.636422 0.205936
outer loop
vertex 0.688576 0.393857 0.654159
vertex 0.696457 0.406016 0.663288
vertex 0.688281 0.396757 0.664186
endloop
endfacet
facet normal 0.570382 -0.436162 0.696007
outer loop
vertex 0.688281 0.396757 0.664186
vertex 0.696457 0.406016 0.663288
vertex 0.689885 0.411054 0.671831
endloop
endfacet
facet normal 0.712790 -0.653409 0.254925
outer loop
vertex 0.688576 0.393857 0.654159
vertex 0.697518 0.402629 0.651640
vertex 0.696457 0.406016 0.663288
endloop
endfacet
facet normal 0.570994 -0.435366 0.696005
outer loop
vertex 0.689885 0.411054 0.671831
vertex 0.696457 0.406016 0.663288
vertex 0.705596 0.416816 0.662546
endloop
endfacet
facet normal 0.669964 -0.407131 0.620800
outer loop
vertex 0.688281 0.396757 0.664186
vertex 0.689885 0.411054 0.671831
vertex 0.683284 0.399975 0.671689
endloop
endfacet
facet normal 0.174737 -0.063137 0.982589
outer loop
vertex 0.679362 0.416758 0.674069
vertex 0.689885 0.411054 0.671831
vertex 0.697433 0.423588 0.671294
endloop
endfacet
facet normal 0.565189 -0.307565 0.765483
outer loop
vertex 0.689885 0.411054 0.671831
vertex 0.705596 0.416816 0.662546
vertex 0.697433 0.423588 0.671294
endloop
endfacet
facet normal 0.152829 -0.103655 0.982802
outer loop
vertex 0.683284 0.399975 0.671689
vertex 0.689885 0.411054 0.671831
vertex 0.679362 0.416758 0.674069
endloop
endfacet
facet normal 0.659369 -0.423881 0.620932
outer loop
vertex 0.678250 0.390618 0.670647
vertex 0.688281 0.396757 0.664186
vertex 0.683284 0.399975 0.671689
endloop
endfacet
facet normal 0.195344 -0.211737 0.957605
outer loop
vertex 0.673408 0.403911 0.674574
vertex 0.678250 0.390618 0.670647
vertex 0.683284 0.399975 0.671689
endloop
endfacet
facet normal 0.250700 -0.078247 0.964897
outer loop
vertex 0.683284 0.399975 0.671689
vertex 0.679362 0.416758 0.674069
vertex 0.673408 0.403911 0.674574
endloop
endfacet
facet normal 0.310342 -0.163596 0.936442
outer loop
vertex 0.673408 0.403911 0.674574
vertex 0.668846 0.391914 0.673990
vertex 0.678250 0.390618 0.670647
endloop
endfacet
facet normal -0.049752 -0.029676 0.998321
outer loop
vertex 0.661805 0.407824 0.674112
vertex 0.668846 0.391914 0.673990
vertex 0.673408 0.403911 0.674574
endloop
endfacet
facet normal -0.010124 0.043959 0.998982
outer loop
vertex 0.673408 0.403911 0.674574
vertex 0.679362 0.416758 0.674069
vertex 0.668094 0.422187 0.673716
endloop
endfacet
facet normal -0.026557 0.039172 0.998880
outer loop
vertex 0.673408 0.403911 0.674574
vertex 0.668094 0.422187 0.673716
vertex 0.661805 0.407824 0.674112
endloop
endfacet
facet normal -0.018406 -0.015811 0.999705
outer loop
vertex 0.661805 0.407824 0.674112
vertex 0.654677 0.393863 0.673760
vertex 0.668846 0.391914 0.673990
endloop
endfacet
facet normal -0.167928 0.060931 0.983914
outer loop
vertex 0.641294 0.407909 0.670606
vertex 0.654677 0.393863 0.673760
vertex 0.661805 0.407824 0.674112
endloop
endfacet
facet normal 0.118315 -0.024437 0.992675
outer loop
vertex 0.661805 0.407824 0.674112
vertex 0.668094 0.422187 0.673716
vertex 0.655702 0.423405 0.675223
endloop
endfacet
facet normal -0.167489 -0.135235 0.976555
outer loop
vertex 0.641294 0.407909 0.670606
vertex 0.661805 0.407824 0.674112
vertex 0.655702 0.423405 0.675223
endloop
endfacet
facet normal -0.120885 0.106437 0.986944
outer loop
vertex 0.641294 0.407909 0.670606
vertex 0.640028 0.392841 0.672076
vertex 0.654677 0.393863 0.673760
endloop
endfacet
facet normal -0.433057 0.137223 0.890860
outer loop
vertex 0.641294 0.407909 0.670606
vertex 0.655702 0.423405 0.675223
vertex 0.642286 0.423258 0.668724
endloop
endfacet
facet normal -0.924673 0.104655 0.366097
outer loop
vertex 0.635184 0.403538 0.656423
vertex 0.641294 0.407909 0.670606
vertex 0.642286 0.423258 0.668724
endloop
endfacet
facet normal -0.924547 0.129599 0.358354
outer loop
vertex 0.634100 0.387845 0.659302
vertex 0.641294 0.407909 0.670606
vertex 0.635184 0.403538 0.656423
endloop
endfacet
facet normal -0.917456 0.114259 0.381077
outer loop
vertex 0.634100 0.387845 0.659302
vertex 0.640028 0.392841 0.672076
vertex 0.641294 0.407909 0.670606
endloop
endfacet
facet normal -0.983326 0.096232 0.154304
outer loop
vertex 0.635184 0.403538 0.656423
vertex 0.631429 0.383480 0.645003
vertex 0.634100 0.387845 0.659302
endloop
endfacet
facet normal 0.699685 -0.711077 0.069352
outer loop
vertex 0.686139 0.390428 0.642932
vertex 0.677022 0.382002 0.648519
vertex 0.672883 0.376552 0.634397
endloop
endfacet
facet normal 0.706058 -0.701954 0.093503
outer loop
vertex 0.680671 0.387563 0.662713
vertex 0.677022 0.382002 0.648519
vertex 0.686139 0.390428 0.642932
endloop
endfacet
facet normal 0.657259 -0.614041 0.436995
outer loop
vertex 0.678250 0.390618 0.670647
vertex 0.680671 0.387563 0.662713
vertex 0.688281 0.396757 0.664186
endloop
endfacet
facet normal 0.736940 -0.643249 0.207725
outer loop
vertex 0.688576 0.393857 0.654159
vertex 0.688281 0.396757 0.664186
vertex 0.680671 0.387563 0.662713
endloop
endfacet
facet normal 0.671898 -0.736410 0.079076
outer loop
vertex 0.680671 0.387563 0.662713
vertex 0.686139 0.390428 0.642932
vertex 0.688576 0.393857 0.654159
endloop
endfacet
facet normal 0.717297 -0.694481 0.056403
outer loop
vertex 0.695574 0.399865 0.639138
vertex 0.688576 0.393857 0.654159
vertex 0.686139 0.390428 0.642932
endloop
endfacet
facet normal 0.700251 -0.713158 -0.032473
outer loop
vertex 0.682275 0.387224 0.629970
vertex 0.695574 0.399865 0.639138
vertex 0.686139 0.390428 0.642932
endloop
endfacet
facet normal 0.738387 -0.672215 -0.053959
outer loop
vertex 0.686139 0.390428 0.642932
vertex 0.672883 0.376552 0.634397
vertex 0.682275 0.387224 0.629970
endloop
endfacet
facet normal 0.706170 -0.706521 0.046400
outer loop
vertex 0.695574 0.399865 0.639138
vertex 0.697518 0.402629 0.651640
vertex 0.688576 0.393857 0.654159
endloop
endfacet
facet normal 0.722462 -0.690237 0.040261
outer loop
vertex 0.705442 0.410015 0.636075
vertex 0.697518 0.402629 0.651640
vertex 0.695574 0.399865 0.639138
endloop
endfacet
facet normal 0.695025 -0.709967 -0.113522
outer loop
vertex 0.695574 0.399865 0.639138
vertex 0.701083 0.407860 0.622865
vertex 0.705442 0.410015 0.636075
endloop
endfacet
facet normal 0.720093 -0.687482 -0.093988
outer loop
vertex 0.695574 0.399865 0.639138
vertex 0.691946 0.397851 0.626073
vertex 0.701083 0.407860 0.622865
endloop
endfacet
facet normal 0.719039 -0.688650 -0.093509
outer loop
vertex 0.682275 0.387224 0.629970
vertex 0.691946 0.397851 0.626073
vertex 0.695574 0.399865 0.639138
endloop
endfacet
facet normal 0.708751 -0.691597 -0.139159
outer loop
vertex 0.701083 0.407860 0.622865
vertex 0.691946 0.397851 0.626073
vertex 0.686992 0.394612 0.616939
endloop
endfacet
facet normal 0.706968 -0.693766 -0.137422
outer loop
vertex 0.686992 0.394612 0.616939
vertex 0.691946 0.397851 0.626073
vertex 0.682275 0.387224 0.629970
endloop
endfacet
facet normal 0.731508 -0.677086 -0.080316
outer loop
vertex 0.675265 0.381353 0.615618
vertex 0.682275 0.387224 0.629970
vertex 0.672883 0.376552 0.634397
endloop
endfacet
facet normal 0.750250 -0.653695 -0.099039
outer loop
vertex 0.686992 0.394612 0.616939
vertex 0.682275 0.387224 0.629970
vertex 0.675265 0.381353 0.615618
endloop
endfacet
facet normal -0.930815 0.119848 0.345283
outer loop
vertex 0.635184 0.403538 0.656423
vertex 0.642286 0.423258 0.668724
vertex 0.636116 0.419420 0.653423
endloop
endfacet
facet normal -0.977174 0.093386 0.190815
outer loop
vertex 0.636116 0.419420 0.653423
vertex 0.631836 0.398728 0.641632
vertex 0.635184 0.403538 0.656423
endloop
endfacet
facet normal -0.977594 0.069984 0.198524
outer loop
vertex 0.635184 0.403538 0.656423
vertex 0.631836 0.398728 0.641632
vertex 0.631429 0.383480 0.645003
endloop
endfacet
facet normal -0.970590 0.069401 0.230518
outer loop
vertex 0.636116 0.419420 0.653423
vertex 0.631991 0.414135 0.637646
vertex 0.631836 0.398728 0.641632
endloop
endfacet
facet normal -0.980270 0.058699 0.188747
outer loop
vertex 0.631836 0.398728 0.641632
vertex 0.631991 0.414135 0.637646
vertex 0.628733 0.408808 0.622382
endloop
endfacet
facet normal -0.976230 0.082348 0.200483
outer loop
vertex 0.631836 0.398728 0.641632
vertex 0.628733 0.408808 0.622382
vertex 0.628526 0.393899 0.627498
endloop
endfacet
facet normal -0.976313 0.071226 0.204303
outer loop
vertex 0.628526 0.393899 0.627498
vertex 0.631429 0.383480 0.645003
vertex 0.631836 0.398728 0.641632
endloop
endfacet
facet normal -0.988977 0.081656 0.123517
outer loop
vertex 0.628733 0.408808 0.622382
vertex 0.631815 0.429728 0.633230
vertex 0.629378 0.424139 0.617412
endloop
endfacet
facet normal -0.980045 0.043837 0.193882
outer loop
vertex 0.628733 0.408808 0.622382
vertex 0.631991 0.414135 0.637646
vertex 0.631815 0.429728 0.633230
endloop
endfacet
facet normal -0.999612 0.020401 0.018989
outer loop
vertex 0.628526 0.393899 0.627498
vertex 0.628733 0.408808 0.622382
vertex 0.628332 0.403293 0.607195
endloop
endfacet
facet normal -0.998926 0.045257 0.009945
outer loop
vertex 0.629378 0.424139 0.617412
vertex 0.628332 0.403293 0.607195
vertex 0.628733 0.408808 0.622382
endloop
endfacet
facet normal -0.989607 0.044570 0.136714
outer loop
vertex 0.629378 0.424139 0.617412
vertex 0.631815 0.429728 0.633230
vertex 0.631699 0.444118 0.627699
endloop
endfacet
facet normal -0.994053 0.083899 -0.069417
outer loop
vertex 0.629378 0.424139 0.617412
vertex 0.630163 0.418945 0.599893
vertex 0.628332 0.403293 0.607195
endloop
endfacet
facet normal -0.993285 0.090969 -0.071477
outer loop
vertex 0.630992 0.438900 0.613770
vertex 0.630163 0.418945 0.599893
vertex 0.629378 0.424139 0.617412
endloop
endfacet
facet normal -0.993796 0.110864 0.008913
outer loop
vertex 0.629378 0.424139 0.617412
vertex 0.631699 0.444118 0.627699
vertex 0.630992 0.438900 0.613770
endloop
endfacet
facet normal -0.818320 -0.140969 -0.557207
outer loop
vertex 0.636612 0.396446 0.596114
vertex 0.630163 0.418945 0.599893
vertex 0.640025 0.409994 0.587674
endloop
endfacet
facet normal -0.814212 -0.122345 -0.567530
outer loop
vertex 0.640025 0.409994 0.587674
vertex 0.630163 0.418945 0.599893
vertex 0.635795 0.429989 0.589432
endloop
endfacet
facet normal -0.834208 -0.149978 -0.530662
outer loop
vertex 0.636612 0.396446 0.596114
vertex 0.628332 0.403293 0.607195
vertex 0.630163 0.418945 0.599893
endloop
endfacet
facet normal -0.988723 0.110992 -0.100539
outer loop
vertex 0.630992 0.438900 0.613770
vertex 0.631870 0.434943 0.600767
vertex 0.630163 0.418945 0.599893
endloop
endfacet
facet normal -0.921126 0.118538 -0.370776
outer loop
vertex 0.635795 0.429989 0.589432
vertex 0.630163 0.418945 0.599893
vertex 0.631870 0.434943 0.600767
endloop
endfacet
facet normal -0.657099 -0.073047 -0.750257
outer loop
vertex 0.640025 0.409994 0.587674
vertex 0.635795 0.429989 0.589432
vertex 0.645431 0.423627 0.581612
endloop
endfacet
facet normal -0.669561 -0.111497 -0.734341
outer loop
vertex 0.639212 0.442400 0.584432
vertex 0.645431 0.423627 0.581612
vertex 0.635795 0.429989 0.589432
endloop
endfacet
facet normal -0.920699 0.120142 -0.371320
outer loop
vertex 0.635795 0.429989 0.589432
vertex 0.631870 0.434943 0.600767
vertex 0.635112 0.447376 0.596751
endloop
endfacet
facet normal -0.928241 0.112752 -0.354479
outer loop
vertex 0.635795 0.429989 0.589432
vertex 0.635112 0.447376 0.596751
vertex 0.639212 0.442400 0.584432
endloop
endfacet
facet normal -0.611011 -0.084172 -0.787134
outer loop
vertex 0.639212 0.442400 0.584432
vertex 0.650338 0.436672 0.576408
vertex 0.645431 0.423627 0.581612
endloop
endfacet
facet normal -0.628930 -0.154160 -0.762025
outer loop
vertex 0.650338 0.436672 0.576408
vertex 0.639212 0.442400 0.584432
vertex 0.641405 0.455919 0.579887
endloop
endfacet
facet normal -0.942826 0.041769 -0.330658
outer loop
vertex 0.641405 0.455919 0.579887
vertex 0.639212 0.442400 0.584432
vertex 0.635112 0.447376 0.596751
endloop
endfacet
facet normal -0.576388 -0.121445 -0.808101
outer loop
vertex 0.650338 0.436672 0.576408
vertex 0.641405 0.455919 0.579887
vertex 0.653983 0.450600 0.571715
endloop
endfacet
facet normal -0.569262 -0.090703 -0.817138
outer loop
vertex 0.643879 0.471149 0.576473
vertex 0.653983 0.450600 0.571715
vertex 0.641405 0.455919 0.579887
endloop
endfacet
facet normal -0.978092 0.120880 -0.169484
outer loop
vertex 0.641405 0.455919 0.579887
vertex 0.641378 0.470804 0.590660
vertex 0.643879 0.471149 0.576473
endloop
endfacet
facet normal -0.948780 0.135781 -0.285271
outer loop
vertex 0.641405 0.455919 0.579887
vertex 0.635112 0.447376 0.596751
vertex 0.638010 0.459666 0.592962
endloop
endfacet
facet normal -0.927662 0.217838 -0.303299
outer loop
vertex 0.641405 0.455919 0.579887
vertex 0.638010 0.459666 0.592962
vertex 0.641378 0.470804 0.590660
endloop
endfacet
facet normal -0.789173 0.601421 -0.124495
outer loop
vertex 0.641378 0.470804 0.590660
vertex 0.651373 0.482551 0.584050
vertex 0.643879 0.471149 0.576473
endloop
endfacet
facet normal -0.793667 0.437353 -0.422865
outer loop
vertex 0.641378 0.470804 0.590660
vertex 0.644830 0.480295 0.593997
vertex 0.651373 0.482551 0.584050
endloop
endfacet
facet normal -0.942110 0.255668 -0.216939
outer loop
vertex 0.641378 0.470804 0.590660
vertex 0.636291 0.464123 0.604878
vertex 0.639951 0.474092 0.600732
endloop
endfacet
facet normal -0.944453 0.238957 -0.225627
outer loop
vertex 0.641378 0.470804 0.590660
vertex 0.638010 0.459666 0.592962
vertex 0.636291 0.464123 0.604878
endloop
endfacet
facet normal -0.875453 0.408966 -0.257543
outer loop
vertex 0.639951 0.474092 0.600732
vertex 0.644830 0.480295 0.593997
vertex 0.641378 0.470804 0.590660
endloop
endfacet
facet normal -0.708092 0.627706 -0.323405
outer loop
vertex 0.644830 0.480295 0.593997
vertex 0.656149 0.493607 0.595052
vertex 0.651373 0.482551 0.584050
endloop
endfacet
facet normal -0.697475 0.621348 -0.357009
outer loop
vertex 0.644830 0.480295 0.593997
vertex 0.647884 0.488857 0.602932
vertex 0.656149 0.493607 0.595052
endloop
endfacet
facet normal -0.849165 0.495003 -0.184094
outer loop
vertex 0.641533 0.480841 0.610673
vertex 0.647884 0.488857 0.602932
vertex 0.644830 0.480295 0.593997
endloop
endfacet
facet normal -0.860166 0.475038 -0.185618
outer loop
vertex 0.641533 0.480841 0.610673
vertex 0.644830 0.480295 0.593997
vertex 0.639951 0.474092 0.600732
endloop
endfacet
facet normal -0.262124 0.735245 -0.625065
outer loop
vertex 0.656149 0.493607 0.595052
vertex 0.664429 0.478104 0.573344
vertex 0.651373 0.482551 0.584050
endloop
endfacet
facet normal -0.295295 0.720638 -0.627282
outer loop
vertex 0.656149 0.493607 0.595052
vertex 0.670249 0.488961 0.583077
vertex 0.664429 0.478104 0.573344
endloop
endfacet
facet normal -0.241245 0.774631 -0.584592
outer loop
vertex 0.656149 0.493607 0.595052
vertex 0.676381 0.499960 0.595121
vertex 0.670249 0.488961 0.583077
endloop
endfacet
facet normal -0.232190 0.746222 -0.623892
outer loop
vertex 0.656149 0.493607 0.595052
vertex 0.663008 0.502969 0.603697
vertex 0.676381 0.499960 0.595121
endloop
endfacet
facet normal -0.652812 0.713432 -0.254660
outer loop
vertex 0.647884 0.488857 0.602932
vertex 0.663008 0.502969 0.603697
vertex 0.656149 0.493607 0.595052
endloop
endfacet
facet normal 0.047305 0.725479 -0.686616
outer loop
vertex 0.688707 0.491491 0.587022
vertex 0.670249 0.488961 0.583077
vertex 0.676381 0.499960 0.595121
endloop
endfacet
facet normal 0.137717 0.781893 -0.608010
outer loop
vertex 0.693940 0.499141 0.598045
vertex 0.688707 0.491491 0.587022
vertex 0.676381 0.499960 0.595121
endloop
endfacet
facet normal -0.143014 0.842885 -0.518740
outer loop
vertex 0.683210 0.507395 0.605319
vertex 0.676381 0.499960 0.595121
vertex 0.663008 0.502969 0.603697
endloop
endfacet
facet normal 0.142246 0.752062 -0.643560
outer loop
vertex 0.693940 0.499141 0.598045
vertex 0.676381 0.499960 0.595121
vertex 0.683210 0.507395 0.605319
endloop
endfacet
facet normal 0.322807 0.698871 -0.638259
outer loop
vertex 0.693940 0.499141 0.598045
vertex 0.702223 0.485365 0.587150
vertex 0.688707 0.491491 0.587022
endloop
endfacet
facet normal 0.405019 0.704459 -0.582835
outer loop
vertex 0.693940 0.499141 0.598045
vertex 0.706799 0.492553 0.599018
vertex 0.702223 0.485365 0.587150
endloop
endfacet
facet normal 0.173734 0.768521 -0.615785
outer loop
vertex 0.699099 0.506807 0.609068
vertex 0.693940 0.499141 0.598045
vertex 0.683210 0.507395 0.605319
endloop
endfacet
facet normal 0.463111 0.611226 -0.641819
outer loop
vertex 0.710725 0.499842 0.610824
vertex 0.693940 0.499141 0.598045
vertex 0.699099 0.506807 0.609068
endloop
endfacet
facet normal 0.407359 0.710320 -0.574024
outer loop
vertex 0.710725 0.499842 0.610824
vertex 0.706799 0.492553 0.599018
vertex 0.693940 0.499141 0.598045
endloop
endfacet
facet normal 0.487180 0.650995 -0.582118
outer loop
vertex 0.706799 0.492553 0.599018
vertex 0.714556 0.477195 0.588335
vertex 0.702223 0.485365 0.587150
endloop
endfacet
facet normal 0.529412 0.648153 -0.547376
outer loop
vertex 0.706799 0.492553 0.599018
vertex 0.718877 0.484298 0.600925
vertex 0.714556 0.477195 0.588335
endloop
endfacet
facet normal 0.524010 0.635757 -0.566769
outer loop
vertex 0.710725 0.499842 0.610824
vertex 0.718877 0.484298 0.600925
vertex 0.706799 0.492553 0.599018
endloop
endfacet
facet normal 0.679469 0.514251 -0.523325
outer loop
vertex 0.718877 0.484298 0.600925
vertex 0.724583 0.466741 0.591081
vertex 0.714556 0.477195 0.588335
endloop
endfacet
facet normal 0.608713 0.529239 -0.591079
outer loop
vertex 0.718877 0.484298 0.600925
vertex 0.730445 0.474196 0.603793
vertex 0.724583 0.466741 0.591081
endloop
endfacet
facet normal 0.637026 0.587955 -0.498504
outer loop
vertex 0.722239 0.491458 0.613666
vertex 0.730445 0.474196 0.603793
vertex 0.718877 0.484298 0.600925
endloop
endfacet
facet normal 0.585229 0.631126 -0.509104
outer loop
vertex 0.710725 0.499842 0.610824
vertex 0.722239 0.491458 0.613666
vertex 0.718877 0.484298 0.600925
endloop
endfacet
facet normal 0.603271 0.788968 -0.116590
outer loop
vertex 0.710233 0.502249 0.624566
vertex 0.722239 0.491458 0.613666
vertex 0.710725 0.499842 0.610824
endloop
endfacet
facet normal 0.554837 0.809833 -0.190594
outer loop
vertex 0.710233 0.502249 0.624566
vertex 0.721001 0.495535 0.627385
vertex 0.722239 0.491458 0.613666
endloop
endfacet
facet normal 0.671423 0.724728 -0.154788
outer loop
vertex 0.721001 0.495535 0.627385
vertex 0.733570 0.481816 0.617672
vertex 0.722239 0.491458 0.613666
endloop
endfacet
facet normal 0.662567 0.583540 -0.469559
outer loop
vertex 0.722239 0.491458 0.613666
vertex 0.733570 0.481816 0.617672
vertex 0.730445 0.474196 0.603793
endloop
endfacet
facet normal 0.638887 0.738326 -0.216097
outer loop
vertex 0.721001 0.495535 0.627385
vertex 0.731599 0.487656 0.631798
vertex 0.733570 0.481816 0.617672
endloop
endfacet
facet normal 0.845433 0.524826 -0.099004
outer loop
vertex 0.731599 0.487656 0.631798
vertex 0.741953 0.469684 0.624946
vertex 0.733570 0.481816 0.617672
endloop
endfacet
facet normal 0.813377 0.245935 -0.527193
outer loop
vertex 0.733570 0.481816 0.617672
vertex 0.741953 0.469684 0.624946
vertex 0.735142 0.461183 0.610472
endloop
endfacet
facet normal 0.934243 0.178843 -0.308553
outer loop
vertex 0.733570 0.481816 0.617672
vertex 0.735142 0.461183 0.610472
vertex 0.730445 0.474196 0.603793
endloop
endfacet
facet normal 0.807409 -0.279279 -0.519706
outer loop
vertex 0.735142 0.461183 0.610472
vertex 0.725536 0.454641 0.599064
vertex 0.724583 0.466741 0.591081
endloop
endfacet
facet normal 0.724432 -0.646489 -0.239270
outer loop
vertex 0.729011 0.450545 0.620652
vertex 0.725536 0.454641 0.599064
vertex 0.735142 0.461183 0.610472
endloop
endfacet
facet normal 0.885071 0.084537 -0.457716
outer loop
vertex 0.735142 0.461183 0.610472
vertex 0.724583 0.466741 0.591081
vertex 0.730445 0.474196 0.603793
endloop
endfacet
facet normal 0.815205 -0.569693 -0.104360
outer loop
vertex 0.735142 0.461183 0.610472
vertex 0.735710 0.457747 0.633666
vertex 0.729011 0.450545 0.620652
endloop
endfacet
facet normal 0.850965 -0.516132 -0.097296
outer loop
vertex 0.735142 0.461183 0.610472
vertex 0.741953 0.469684 0.624946
vertex 0.735710 0.457747 0.633666
endloop
endfacet
facet normal 0.818181 -0.564589 -0.108717
outer loop
vertex 0.729361 0.447331 0.639977
vertex 0.729011 0.450545 0.620652
vertex 0.735710 0.457747 0.633666
endloop
endfacet
facet normal 0.882920 -0.345590 0.317836
outer loop
vertex 0.735710 0.457747 0.633666
vertex 0.727593 0.455008 0.653236
vertex 0.729361 0.447331 0.639977
endloop
endfacet
facet normal 0.866771 -0.395186 0.304199
outer loop
vertex 0.735710 0.457747 0.633666
vertex 0.734762 0.466750 0.648063
vertex 0.727593 0.455008 0.653236
endloop
endfacet
facet normal 0.921985 -0.298112 0.247129
outer loop
vertex 0.740680 0.478729 0.640434
vertex 0.734762 0.466750 0.648063
vertex 0.735710 0.457747 0.633666
endloop
endfacet
facet normal 0.920914 -0.298844 0.250217
outer loop
vertex 0.740680 0.478729 0.640434
vertex 0.735710 0.457747 0.633666
vertex 0.741953 0.469684 0.624946
endloop
endfacet
facet normal 0.882404 -0.358962 0.304153
outer loop
vertex 0.723068 0.436358 0.644353
vertex 0.727593 0.455008 0.653236
vertex 0.721032 0.442364 0.657348
endloop
endfacet
facet normal 0.869844 -0.367704 0.328886
outer loop
vertex 0.723068 0.436358 0.644353
vertex 0.729361 0.447331 0.639977
vertex 0.727593 0.455008 0.653236
endloop
endfacet
facet normal 0.608667 -0.022207 0.793115
outer loop
vertex 0.734762 0.466750 0.648063
vertex 0.717195 0.463797 0.661462
vertex 0.727593 0.455008 0.653236
endloop
endfacet
facet normal 0.594684 -0.047584 0.802550
outer loop
vertex 0.721032 0.442364 0.657348
vertex 0.727593 0.455008 0.653236
vertex 0.717195 0.463797 0.661462
endloop
endfacet
facet normal 0.838520 -0.432576 0.331303
outer loop
vertex 0.721032 0.442364 0.657348
vertex 0.715846 0.424376 0.646987
vertex 0.723068 0.436358 0.644353
endloop
endfacet
facet normal 0.886074 -0.395100 0.242421
outer loop
vertex 0.721032 0.442364 0.657348
vertex 0.714134 0.429015 0.660805
vertex 0.715846 0.424376 0.646987
endloop
endfacet
facet normal 0.576061 -0.087200 0.812742
outer loop
vertex 0.710847 0.450511 0.665441
vertex 0.714134 0.429015 0.660805
vertex 0.721032 0.442364 0.657348
endloop
endfacet
facet normal 0.598439 -0.046390 0.799825
outer loop
vertex 0.721032 0.442364 0.657348
vertex 0.717195 0.463797 0.661462
vertex 0.710847 0.450511 0.665441
endloop
endfacet
facet normal 0.244030 0.151527 0.957856
outer loop
vertex 0.704594 0.437041 0.669165
vertex 0.710847 0.450511 0.665441
vertex 0.697223 0.458502 0.667648
endloop
endfacet
facet normal 0.621813 -0.073087 0.779748
outer loop
vertex 0.710847 0.450511 0.665441
vertex 0.704594 0.437041 0.669165
vertex 0.714134 0.429015 0.660805
endloop
endfacet
facet normal 0.251502 0.165427 0.953614
outer loop
vertex 0.697223 0.458502 0.667648
vertex 0.710847 0.450511 0.665441
vertex 0.717195 0.463797 0.661462
endloop
endfacet
facet normal 0.135643 0.193096 0.971759
outer loop
vertex 0.703010 0.472287 0.664101
vertex 0.682916 0.466398 0.668076
vertex 0.697223 0.458502 0.667648
endloop
endfacet
facet normal 0.259785 0.136911 0.955912
outer loop
vertex 0.697223 0.458502 0.667648
vertex 0.717195 0.463797 0.661462
vertex 0.703010 0.472287 0.664101
endloop
endfacet
facet normal 0.192907 0.134954 0.971892
outer loop
vertex 0.704594 0.437041 0.669165
vertex 0.697223 0.458502 0.667648
vertex 0.691608 0.444448 0.670714
endloop
endfacet
facet normal 0.120557 0.165377 0.978834
outer loop
vertex 0.691608 0.444448 0.670714
vertex 0.697223 0.458502 0.667648
vertex 0.682916 0.466398 0.668076
endloop
endfacet
facet normal 0.286004 0.081825 0.954728
outer loop
vertex 0.663915 0.471976 0.673290
vertex 0.678513 0.451568 0.670666
vertex 0.682916 0.466398 0.668076
endloop
endfacet
facet normal 0.318828 0.225554 0.920584
outer loop
vertex 0.667609 0.488533 0.667954
vertex 0.663915 0.471976 0.673290
vertex 0.682916 0.466398 0.668076
endloop
endfacet
facet normal 0.077484 0.149155 0.985773
outer loop
vertex 0.691608 0.444448 0.670714
vertex 0.682916 0.466398 0.668076
vertex 0.678513 0.451568 0.670666
endloop
endfacet
facet normal 0.210656 0.151001 0.965828
outer loop
vertex 0.667609 0.488533 0.667954
vertex 0.682916 0.466398 0.668076
vertex 0.687653 0.480974 0.664764
endloop
endfacet
facet normal 0.141315 0.175460 0.974291
outer loop
vertex 0.703010 0.472287 0.664101
vertex 0.687653 0.480974 0.664764
vertex 0.682916 0.466398 0.668076
endloop
endfacet
facet normal 0.275078 0.351822 0.894736
outer loop
vertex 0.674566 0.502536 0.660309
vertex 0.667609 0.488533 0.667954
vertex 0.687653 0.480974 0.664764
endloop
endfacet
facet normal 0.120812 0.270652 0.955066
outer loop
vertex 0.674566 0.502536 0.660309
vertex 0.687653 0.480974 0.664764
vertex 0.693341 0.494819 0.660121
endloop
endfacet
facet normal 0.179988 0.245492 0.952543
outer loop
vertex 0.693341 0.494819 0.660121
vertex 0.687653 0.480974 0.664764
vertex 0.703010 0.472287 0.664101
endloop
endfacet
facet normal -0.007441 0.611526 0.791189
outer loop
vertex 0.682091 0.510782 0.647677
vertex 0.693341 0.494819 0.660121
vertex 0.700447 0.505922 0.651606
endloop
endfacet
facet normal 0.293026 0.456664 0.839996
outer loop
vertex 0.709036 0.485471 0.659728
vertex 0.700447 0.505922 0.651606
vertex 0.693341 0.494819 0.660121
endloop
endfacet
facet normal 0.167285 0.240664 0.956084
outer loop
vertex 0.693341 0.494819 0.660121
vertex 0.703010 0.472287 0.664101
vertex 0.709036 0.485471 0.659728
endloop
endfacet
facet normal 0.297636 0.708544 0.639827
outer loop
vertex 0.682091 0.510782 0.647677
vertex 0.674566 0.502536 0.660309
vertex 0.693341 0.494819 0.660121
endloop
endfacet
facet normal -0.292014 0.871164 0.394717
outer loop
vertex 0.682091 0.510782 0.647677
vertex 0.658617 0.501976 0.649746
vertex 0.674566 0.502536 0.660309
endloop
endfacet
facet normal -0.296536 0.878488 0.374601
outer loop
vertex 0.682091 0.510782 0.647677
vertex 0.667924 0.509936 0.638446
vertex 0.658617 0.501976 0.649746
endloop
endfacet
facet normal -0.085076 0.995598 0.039320
outer loop
vertex 0.683023 0.511571 0.629718
vertex 0.667924 0.509936 0.638446
vertex 0.682091 0.510782 0.647677
endloop
endfacet
facet normal 0.244490 0.968078 0.055218
outer loop
vertex 0.683023 0.511571 0.629718
vertex 0.682091 0.510782 0.647677
vertex 0.700447 0.505922 0.651606
endloop
endfacet
facet normal 0.277118 0.956243 0.093831
outer loop
vertex 0.683023 0.511571 0.629718
vertex 0.700048 0.507295 0.623015
vertex 0.691202 0.510522 0.616254
endloop
endfacet
facet normal 0.110225 0.993851 -0.010476
outer loop
vertex 0.691202 0.510522 0.616254
vertex 0.670934 0.512757 0.615039
vertex 0.683023 0.511571 0.629718
endloop
endfacet
facet normal 0.255761 0.966168 0.033260
outer loop
vertex 0.683023 0.511571 0.629718
vertex 0.700327 0.506726 0.637398
vertex 0.700048 0.507295 0.623015
endloop
endfacet
facet normal -0.150202 0.985794 -0.075165
outer loop
vertex 0.683023 0.511571 0.629718
vertex 0.658540 0.507499 0.625238
vertex 0.667924 0.509936 0.638446
endloop
endfacet
facet normal 0.247512 0.967453 0.052653
outer loop
vertex 0.683023 0.511571 0.629718
vertex 0.700447 0.505922 0.651606
vertex 0.700327 0.506726 0.637398
endloop
endfacet
facet normal -0.202287 0.948639 0.243238
outer loop
vertex 0.683023 0.511571 0.629718
vertex 0.670934 0.512757 0.615039
vertex 0.658540 0.507499 0.625238
endloop
endfacet
facet normal 0.440482 0.897357 0.026954
outer loop
vertex 0.710233 0.502249 0.624566
vertex 0.700048 0.507295 0.623015
vertex 0.700327 0.506726 0.637398
endloop
endfacet
facet normal 0.551571 0.833046 0.042482
outer loop
vertex 0.700327 0.506726 0.637398
vertex 0.700447 0.505922 0.651606
vertex 0.714700 0.496411 0.653056
endloop
endfacet
facet normal 0.452325 0.891029 0.038319
outer loop
vertex 0.710233 0.502249 0.624566
vertex 0.700327 0.506726 0.637398
vertex 0.717168 0.498060 0.640111
endloop
endfacet
facet normal 0.424072 0.884706 0.193540
outer loop
vertex 0.700327 0.506726 0.637398
vertex 0.714700 0.496411 0.653056
vertex 0.717168 0.498060 0.640111
endloop
endfacet
facet normal 0.540799 0.815293 0.206963
outer loop
vertex 0.728507 0.488556 0.647921
vertex 0.717168 0.498060 0.640111
vertex 0.714700 0.496411 0.653056
endloop
endfacet
facet normal 0.199435 0.432888 0.879110
outer loop
vertex 0.709036 0.485471 0.659728
vertex 0.714700 0.496411 0.653056
vertex 0.700447 0.505922 0.651606
endloop
endfacet
facet normal 0.467276 0.271255 0.841471
outer loop
vertex 0.709036 0.485471 0.659728
vertex 0.728507 0.488556 0.647921
vertex 0.714700 0.496411 0.653056
endloop
endfacet
facet normal 0.610609 0.788553 0.073082
outer loop
vertex 0.731599 0.487656 0.631798
vertex 0.717168 0.498060 0.640111
vertex 0.728507 0.488556 0.647921
endloop
endfacet
facet normal 0.656726 0.749424 0.084110
outer loop
vertex 0.731599 0.487656 0.631798
vertex 0.728507 0.488556 0.647921
vertex 0.740680 0.478729 0.640434
endloop
endfacet
facet normal 0.419575 0.423877 0.802674
outer loop
vertex 0.709036 0.485471 0.659728
vertex 0.723758 0.476674 0.656678
vertex 0.728507 0.488556 0.647921
endloop
endfacet
facet normal 0.617614 0.182141 0.765100
outer loop
vertex 0.728507 0.488556 0.647921
vertex 0.734762 0.466750 0.648063
vertex 0.740680 0.478729 0.640434
endloop
endfacet
facet normal 0.712635 0.208774 0.669749
outer loop
vertex 0.728507 0.488556 0.647921
vertex 0.723758 0.476674 0.656678
vertex 0.734762 0.466750 0.648063
endloop
endfacet
facet normal 0.298731 0.174655 0.938219
outer loop
vertex 0.703010 0.472287 0.664101
vertex 0.723758 0.476674 0.656678
vertex 0.709036 0.485471 0.659728
endloop
endfacet
facet normal 0.292726 0.198323 0.935403
outer loop
vertex 0.703010 0.472287 0.664101
vertex 0.717195 0.463797 0.661462
vertex 0.723758 0.476674 0.656678
endloop
endfacet
facet normal 0.607978 -0.014959 0.793813
outer loop
vertex 0.734762 0.466750 0.648063
vertex 0.723758 0.476674 0.656678
vertex 0.717195 0.463797 0.661462
endloop
endfacet
facet normal 0.530643 0.847555 -0.008338
outer loop
vertex 0.710233 0.502249 0.624566
vertex 0.717168 0.498060 0.640111
vertex 0.721001 0.495535 0.627385
endloop
endfacet
facet normal 0.591620 0.806010 0.018268
outer loop
vertex 0.731599 0.487656 0.631798
vertex 0.721001 0.495535 0.627385
vertex 0.717168 0.498060 0.640111
endloop
endfacet
facet normal -0.561021 0.778946 -0.280177
outer loop
vertex 0.663008 0.502969 0.603697
vertex 0.658540 0.507499 0.625238
vertex 0.670934 0.512757 0.615039
endloop
endfacet
facet normal 0.123474 0.926597 -0.355207
outer loop
vertex 0.691202 0.510522 0.616254
vertex 0.683210 0.507395 0.605319
vertex 0.670934 0.512757 0.615039
endloop
endfacet
facet normal -0.125822 0.792844 -0.596294
outer loop
vertex 0.683210 0.507395 0.605319
vertex 0.663008 0.502969 0.603697
vertex 0.670934 0.512757 0.615039
endloop
endfacet
facet normal -0.526936 0.803091 -0.278178
outer loop
vertex 0.663008 0.502969 0.603697
vertex 0.651524 0.498742 0.613247
vertex 0.658540 0.507499 0.625238
endloop
endfacet
facet normal -0.641157 0.694033 0.327470
outer loop
vertex 0.667924 0.509936 0.638446
vertex 0.658540 0.507499 0.625238
vertex 0.651091 0.495895 0.635247
endloop
endfacet
facet normal -0.783907 0.608710 0.122316
outer loop
vertex 0.658540 0.507499 0.625238
vertex 0.643911 0.489262 0.622241
vertex 0.651091 0.495895 0.635247
endloop
endfacet
facet normal -0.779992 0.625789 -0.000630
outer loop
vertex 0.658540 0.507499 0.625238
vertex 0.651524 0.498742 0.613247
vertex 0.643911 0.489262 0.622241
endloop
endfacet
facet normal -0.604308 0.670933 -0.429721
outer loop
vertex 0.647884 0.488857 0.602932
vertex 0.651524 0.498742 0.613247
vertex 0.663008 0.502969 0.603697
endloop
endfacet
facet normal -0.847930 0.498986 -0.178963
outer loop
vertex 0.641533 0.480841 0.610673
vertex 0.651524 0.498742 0.613247
vertex 0.647884 0.488857 0.602932
endloop
endfacet
facet normal -0.845518 0.499167 -0.189557
outer loop
vertex 0.641533 0.480841 0.610673
vertex 0.643911 0.489262 0.622241
vertex 0.651524 0.498742 0.613247
endloop
endfacet
facet normal -0.925546 0.370247 -0.079259
outer loop
vertex 0.641533 0.480841 0.610673
vertex 0.638412 0.477138 0.629820
vertex 0.643911 0.489262 0.622241
endloop
endfacet
facet normal -0.835446 0.508793 0.207750
outer loop
vertex 0.643911 0.489262 0.622241
vertex 0.638412 0.477138 0.629820
vertex 0.645153 0.482672 0.643375
endloop
endfacet
facet normal -0.838952 0.503576 0.206329
outer loop
vertex 0.643911 0.489262 0.622241
vertex 0.645153 0.482672 0.643375
vertex 0.651091 0.495895 0.635247
endloop
endfacet
facet normal -0.897860 0.296534 0.325445
outer loop
vertex 0.638412 0.477138 0.629820
vertex 0.642337 0.467870 0.649093
vertex 0.645153 0.482672 0.643375
endloop
endfacet
facet normal -0.877423 0.308752 0.367154
outer loop
vertex 0.642337 0.467870 0.649093
vertex 0.653037 0.487851 0.657861
vertex 0.645153 0.482672 0.643375
endloop
endfacet
facet normal -0.828595 0.486500 0.277035
outer loop
vertex 0.658617 0.501976 0.649746
vertex 0.645153 0.482672 0.643375
vertex 0.653037 0.487851 0.657861
endloop
endfacet
facet normal -0.832734 0.508539 0.218957
outer loop
vertex 0.658617 0.501976 0.649746
vertex 0.651091 0.495895 0.635247
vertex 0.645153 0.482672 0.643375
endloop
endfacet
facet normal -0.886485 0.334315 0.319967
outer loop
vertex 0.642337 0.467870 0.649093
vertex 0.649159 0.472008 0.663670
vertex 0.653037 0.487851 0.657861
endloop
endfacet
facet normal -0.533730 0.403202 0.743344
outer loop
vertex 0.667609 0.488533 0.667954
vertex 0.653037 0.487851 0.657861
vertex 0.649159 0.472008 0.663670
endloop
endfacet
facet normal -0.477512 0.591796 0.649430
outer loop
vertex 0.674566 0.502536 0.660309
vertex 0.653037 0.487851 0.657861
vertex 0.667609 0.488533 0.667954
endloop
endfacet
facet normal -0.466818 0.571932 0.674518
outer loop
vertex 0.674566 0.502536 0.660309
vertex 0.658617 0.501976 0.649746
vertex 0.653037 0.487851 0.657861
endloop
endfacet
facet normal -0.902513 0.248269 0.351899
outer loop
vertex 0.645895 0.455598 0.666876
vertex 0.649159 0.472008 0.663670
vertex 0.642337 0.467870 0.649093
endloop
endfacet
facet normal -0.526550 0.262695 0.808540
outer loop
vertex 0.663915 0.471976 0.673290
vertex 0.649159 0.472008 0.663670
vertex 0.645895 0.455598 0.666876
endloop
endfacet
facet normal -0.507932 0.364810 0.780332
outer loop
vertex 0.667609 0.488533 0.667954
vertex 0.649159 0.472008 0.663670
vertex 0.663915 0.471976 0.673290
endloop
endfacet
facet normal -0.904308 0.244682 0.349796
outer loop
vertex 0.645895 0.455598 0.666876
vertex 0.642337 0.467870 0.649093
vertex 0.639946 0.453400 0.653034
endloop
endfacet
facet normal -0.917641 0.138982 0.372315
outer loop
vertex 0.639946 0.453400 0.653034
vertex 0.643578 0.439104 0.667322
vertex 0.645895 0.455598 0.666876
endloop
endfacet
facet normal -0.495744 0.092991 0.863476
outer loop
vertex 0.645895 0.455598 0.666876
vertex 0.643578 0.439104 0.667322
vertex 0.657855 0.438740 0.675558
endloop
endfacet
facet normal -0.496445 0.092321 0.863145
outer loop
vertex 0.645895 0.455598 0.666876
vertex 0.657855 0.438740 0.675558
vertex 0.660362 0.455129 0.675247
endloop
endfacet
facet normal -0.485680 0.201245 0.850656
outer loop
vertex 0.663915 0.471976 0.673290
vertex 0.645895 0.455598 0.666876
vertex 0.660362 0.455129 0.675247
endloop
endfacet
facet normal -0.935814 0.227872 0.268936
outer loop
vertex 0.635328 0.449603 0.640182
vertex 0.639946 0.453400 0.653034
vertex 0.642337 0.467870 0.649093
endloop
endfacet
facet normal -0.945070 0.119068 0.304411
outer loop
vertex 0.636902 0.436806 0.650074
vertex 0.639946 0.453400 0.653034
vertex 0.635328 0.449603 0.640182
endloop
endfacet
facet normal -0.931816 0.109190 0.346116
outer loop
vertex 0.639946 0.453400 0.653034
vertex 0.636902 0.436806 0.650074
vertex 0.643578 0.439104 0.667322
endloop
endfacet
facet normal -0.963041 0.080287 0.257109
outer loop
vertex 0.631815 0.429728 0.633230
vertex 0.636902 0.436806 0.650074
vertex 0.635328 0.449603 0.640182
endloop
endfacet
facet normal -0.962451 0.063857 0.263836
outer loop
vertex 0.636902 0.436806 0.650074
vertex 0.631815 0.429728 0.633230
vertex 0.631991 0.414135 0.637646
endloop
endfacet
facet normal -0.970555 0.087139 0.224567
outer loop
vertex 0.636902 0.436806 0.650074
vertex 0.631991 0.414135 0.637646
vertex 0.636116 0.419420 0.653423
endloop
endfacet
facet normal -0.931092 0.109141 0.348076
outer loop
vertex 0.642286 0.423258 0.668724
vertex 0.636902 0.436806 0.650074
vertex 0.636116 0.419420 0.653423
endloop
endfacet
facet normal -0.931962 0.106648 0.346515
outer loop
vertex 0.642286 0.423258 0.668724
vertex 0.643578 0.439104 0.667322
vertex 0.636902 0.436806 0.650074
endloop
endfacet
facet normal -0.927458 0.202522 0.314335
outer loop
vertex 0.635328 0.449603 0.640182
vertex 0.642337 0.467870 0.649093
vertex 0.636711 0.463109 0.635561
endloop
endfacet
facet normal -0.966177 0.085702 0.243224
outer loop
vertex 0.631815 0.429728 0.633230
vertex 0.635328 0.449603 0.640182
vertex 0.631699 0.444118 0.627699
endloop
endfacet
facet normal -0.963848 0.169143 0.205882
outer loop
vertex 0.636711 0.463109 0.635561
vertex 0.631699 0.444118 0.627699
vertex 0.635328 0.449603 0.640182
endloop
endfacet
facet normal -0.924010 0.235356 0.301353
outer loop
vertex 0.638412 0.477138 0.629820
vertex 0.636711 0.463109 0.635561
vertex 0.642337 0.467870 0.649093
endloop
endfacet
facet normal -0.985241 0.151816 0.079070
outer loop
vertex 0.636306 0.470193 0.616912
vertex 0.636711 0.463109 0.635561
vertex 0.638412 0.477138 0.629820
endloop
endfacet
facet normal -0.970327 0.199556 0.136540
outer loop
vertex 0.636711 0.463109 0.635561
vertex 0.633702 0.457485 0.622397
vertex 0.631699 0.444118 0.627699
endloop
endfacet
facet normal -0.962307 0.246646 0.114593
outer loop
vertex 0.636306 0.470193 0.616912
vertex 0.633702 0.457485 0.622397
vertex 0.636711 0.463109 0.635561
endloop
endfacet
facet normal -0.911080 0.406255 -0.069935
outer loop
vertex 0.641533 0.480841 0.610673
vertex 0.636306 0.470193 0.616912
vertex 0.638412 0.477138 0.629820
endloop
endfacet
facet normal -0.916639 0.383057 -0.114194
outer loop
vertex 0.639951 0.474092 0.600732
vertex 0.636306 0.470193 0.616912
vertex 0.641533 0.480841 0.610673
endloop
endfacet
facet normal -0.982712 0.165791 -0.082408
outer loop
vertex 0.636291 0.464123 0.604878
vertex 0.633702 0.457485 0.622397
vertex 0.636306 0.470193 0.616912
endloop
endfacet
facet normal -0.946825 0.287744 -0.143962
outer loop
vertex 0.639951 0.474092 0.600732
vertex 0.636291 0.464123 0.604878
vertex 0.636306 0.470193 0.616912
endloop
endfacet
facet normal -0.989216 0.146393 -0.004629
outer loop
vertex 0.630992 0.438900 0.613770
vertex 0.631699 0.444118 0.627699
vertex 0.633702 0.457485 0.622397
endloop
endfacet
facet normal -0.980571 0.179603 -0.078889
outer loop
vertex 0.630992 0.438900 0.613770
vertex 0.633702 0.457485 0.622397
vertex 0.633747 0.452022 0.609400
endloop
endfacet
facet normal -0.981097 0.177160 -0.077862
outer loop
vertex 0.636291 0.464123 0.604878
vertex 0.633747 0.452022 0.609400
vertex 0.633702 0.457485 0.622397
endloop
endfacet
facet normal -0.979071 0.166646 -0.116827
outer loop
vertex 0.633747 0.452022 0.609400
vertex 0.631870 0.434943 0.600767
vertex 0.630992 0.438900 0.613770
endloop
endfacet
facet normal -0.976448 0.145889 -0.158954
outer loop
vertex 0.636291 0.464123 0.604878
vertex 0.635112 0.447376 0.596751
vertex 0.633747 0.452022 0.609400
endloop
endfacet
facet normal -0.964963 0.194865 -0.175709
outer loop
vertex 0.633747 0.452022 0.609400
vertex 0.635112 0.447376 0.596751
vertex 0.631870 0.434943 0.600767
endloop
endfacet
facet normal 0.184178 -0.009521 0.982847
outer loop
vertex 0.660362 0.455129 0.675247
vertex 0.657855 0.438740 0.675558
vertex 0.673840 0.436727 0.672543
endloop
endfacet
facet normal 0.252368 0.042796 0.966684
outer loop
vertex 0.660362 0.455129 0.675247
vertex 0.673840 0.436727 0.672543
vertex 0.678513 0.451568 0.670666
endloop
endfacet
facet normal 0.255034 0.058328 0.965171
outer loop
vertex 0.663915 0.471976 0.673290
vertex 0.660362 0.455129 0.675247
vertex 0.678513 0.451568 0.670666
endloop
endfacet
facet normal 0.186049 0.005743 0.982524
outer loop
vertex 0.657855 0.438740 0.675558
vertex 0.668094 0.422187 0.673716
vertex 0.673840 0.436727 0.672543
endloop
endfacet
facet normal 0.008372 0.077122 0.996987
outer loop
vertex 0.685636 0.430404 0.672933
vertex 0.673840 0.436727 0.672543
vertex 0.668094 0.422187 0.673716
endloop
endfacet
facet normal 0.029494 0.116270 0.992780
outer loop
vertex 0.678513 0.451568 0.670666
vertex 0.673840 0.436727 0.672543
vertex 0.685636 0.430404 0.672933
endloop
endfacet
facet normal 0.007167 0.079682 0.996795
outer loop
vertex 0.685636 0.430404 0.672933
vertex 0.668094 0.422187 0.673716
vertex 0.679362 0.416758 0.674069
endloop
endfacet
facet normal 0.146167 0.015134 0.989144
outer loop
vertex 0.679362 0.416758 0.674069
vertex 0.697433 0.423588 0.671294
vertex 0.685636 0.430404 0.672933
endloop
endfacet
facet normal 0.173160 0.063369 0.982853
outer loop
vertex 0.685636 0.430404 0.672933
vertex 0.697433 0.423588 0.671294
vertex 0.704594 0.437041 0.669165
endloop
endfacet
facet normal 0.165585 0.084833 0.982540
outer loop
vertex 0.685636 0.430404 0.672933
vertex 0.704594 0.437041 0.669165
vertex 0.691608 0.444448 0.670714
endloop
endfacet
facet normal 0.066106 0.128244 0.989537
outer loop
vertex 0.678513 0.451568 0.670666
vertex 0.685636 0.430404 0.672933
vertex 0.691608 0.444448 0.670714
endloop
endfacet
facet normal -0.494055 0.116510 0.861589
outer loop
vertex 0.657855 0.438740 0.675558
vertex 0.643578 0.439104 0.667322
vertex 0.642286 0.423258 0.668724
endloop
endfacet
facet normal -0.435948 0.041562 0.899012
outer loop
vertex 0.657855 0.438740 0.675558
vertex 0.642286 0.423258 0.668724
vertex 0.655702 0.423405 0.675223
endloop
endfacet
facet normal 0.116932 -0.038100 0.992409
outer loop
vertex 0.657855 0.438740 0.675558
vertex 0.655702 0.423405 0.675223
vertex 0.668094 0.422187 0.673716
endloop
endfacet
facet normal -0.641792 0.766792 0.011540
outer loop
vertex 0.667924 0.509936 0.638446
vertex 0.651091 0.495895 0.635247
vertex 0.658617 0.501976 0.649746
endloop
endfacet
facet normal 0.520059 0.851639 -0.065189
outer loop
vertex 0.710725 0.499842 0.610824
vertex 0.699099 0.506807 0.609068
vertex 0.700048 0.507295 0.623015
endloop
endfacet
facet normal 0.381092 0.922702 -0.058214
outer loop
vertex 0.691202 0.510522 0.616254
vertex 0.700048 0.507295 0.623015
vertex 0.699099 0.506807 0.609068
endloop
endfacet
facet normal 0.456455 0.879039 -0.137623
outer loop
vertex 0.710725 0.499842 0.610824
vertex 0.700048 0.507295 0.623015
vertex 0.710233 0.502249 0.624566
endloop
endfacet
facet normal 0.117267 0.928880 -0.351326
outer loop
vertex 0.699099 0.506807 0.609068
vertex 0.683210 0.507395 0.605319
vertex 0.691202 0.510522 0.616254
endloop
endfacet
facet normal 0.625799 -0.214425 0.749932
outer loop
vertex 0.704594 0.437041 0.669165
vertex 0.697433 0.423588 0.671294
vertex 0.705596 0.416816 0.662546
endloop
endfacet
facet normal 0.515312 -0.243390 0.821715
outer loop
vertex 0.704594 0.437041 0.669165
vertex 0.705596 0.416816 0.662546
vertex 0.714134 0.429015 0.660805
endloop
endfacet
facet normal 0.791029 0.554371 -0.258739
outer loop
vertex 0.731599 0.487656 0.631798
vertex 0.740680 0.478729 0.640434
vertex 0.741953 0.469684 0.624946
endloop
endfacet
facet normal 0.856099 -0.513666 -0.056943
outer loop
vertex 0.723068 0.436358 0.644353
vertex 0.722621 0.437326 0.628901
vertex 0.729361 0.447331 0.639977
endloop
endfacet
facet normal 0.871455 -0.481032 -0.095785
outer loop
vertex 0.729361 0.447331 0.639977
vertex 0.722621 0.437326 0.628901
vertex 0.729011 0.450545 0.620652
endloop
endfacet
facet normal 0.795359 -0.547187 -0.260752
outer loop
vertex 0.729011 0.450545 0.620652
vertex 0.722621 0.437326 0.628901
vertex 0.715471 0.433738 0.614621
endloop
endfacet
facet normal 0.789979 -0.519634 -0.325444
outer loop
vertex 0.729011 0.450545 0.620652
vertex 0.715471 0.433738 0.614621
vertex 0.721386 0.446190 0.609097
endloop
endfacet
facet normal 0.728766 -0.641680 -0.239056
outer loop
vertex 0.729011 0.450545 0.620652
vertex 0.721386 0.446190 0.609097
vertex 0.725536 0.454641 0.599064
endloop
endfacet
facet normal 0.664225 -0.543301 -0.513448
outer loop
vertex 0.715471 0.433738 0.614621
vertex 0.705522 0.441692 0.593334
vertex 0.721386 0.446190 0.609097
endloop
endfacet
facet normal 0.584849 -0.714034 -0.384847
outer loop
vertex 0.721386 0.446190 0.609097
vertex 0.705522 0.441692 0.593334
vertex 0.710260 0.451067 0.583140
endloop
endfacet
facet normal 0.567418 -0.730286 -0.380420
outer loop
vertex 0.721386 0.446190 0.609097
vertex 0.710260 0.451067 0.583140
vertex 0.725536 0.454641 0.599064
endloop
endfacet
facet normal 0.728676 -0.456018 -0.510959
outer loop
vertex 0.715471 0.433738 0.614621
vertex 0.703044 0.429655 0.600543
vertex 0.705522 0.441692 0.593334
endloop
endfacet
facet normal 0.630764 -0.490144 -0.601578
outer loop
vertex 0.705522 0.441692 0.593334
vertex 0.703044 0.429655 0.600543
vertex 0.691252 0.427177 0.590198
endloop
endfacet
facet normal 0.571024 -0.407407 -0.712707
outer loop
vertex 0.705522 0.441692 0.593334
vertex 0.691252 0.427177 0.590198
vertex 0.688458 0.439866 0.580706
endloop
endfacet
facet normal 0.441432 -0.753266 -0.487573
outer loop
vertex 0.710260 0.451067 0.583140
vertex 0.705522 0.441692 0.593334
vertex 0.688458 0.439866 0.580706
endloop
endfacet
facet normal 0.718398 -0.492442 -0.491329
outer loop
vertex 0.715471 0.433738 0.614621
vertex 0.698698 0.417535 0.606336
vertex 0.703044 0.429655 0.600543
endloop
endfacet
facet normal 0.626050 -0.507470 -0.592060
outer loop
vertex 0.698698 0.417535 0.606336
vertex 0.691252 0.427177 0.590198
vertex 0.703044 0.429655 0.600543
endloop
endfacet
facet normal 0.397770 -0.491808 -0.774535
outer loop
vertex 0.688458 0.439866 0.580706
vertex 0.691252 0.427177 0.590198
vertex 0.679325 0.427975 0.583566
endloop
endfacet
facet normal 0.270643 -0.416598 -0.867870
outer loop
vertex 0.679325 0.427975 0.583566
vertex 0.669983 0.445613 0.572186
vertex 0.688458 0.439866 0.580706
endloop
endfacet
facet normal 0.161088 -0.620246 -0.767688
outer loop
vertex 0.692924 0.452127 0.571737
vertex 0.688458 0.439866 0.580706
vertex 0.669983 0.445613 0.572186
endloop
endfacet
facet normal 0.398727 -0.631605 -0.664899
outer loop
vertex 0.710260 0.451067 0.583140
vertex 0.688458 0.439866 0.580706
vertex 0.692924 0.452127 0.571737
endloop
endfacet
facet normal -0.108783 -0.433517 -0.894555
outer loop
vertex 0.653983 0.450600 0.571715
vertex 0.674458 0.458140 0.565571
vertex 0.669983 0.445613 0.572186
endloop
endfacet
facet normal -0.095183 -0.391819 -0.915105
outer loop
vertex 0.653983 0.450600 0.571715
vertex 0.669983 0.445613 0.572186
vertex 0.666283 0.432501 0.578185
endloop
endfacet
facet normal 0.200695 -0.453848 -0.868184
outer loop
vertex 0.679325 0.427975 0.583566
vertex 0.666283 0.432501 0.578185
vertex 0.669983 0.445613 0.572186
endloop
endfacet
facet normal 0.124528 -0.497740 -0.858340
outer loop
vertex 0.692924 0.452127 0.571737
vertex 0.669983 0.445613 0.572186
vertex 0.674458 0.458140 0.565571
endloop
endfacet
facet normal 0.020625 -0.324087 -0.945803
outer loop
vertex 0.653983 0.450600 0.571715
vertex 0.666283 0.432501 0.578185
vertex 0.650338 0.436672 0.576408
endloop
endfacet
facet normal -0.013431 -0.434950 -0.900355
outer loop
vertex 0.650338 0.436672 0.576408
vertex 0.666283 0.432501 0.578185
vertex 0.661103 0.419972 0.584315
endloop
endfacet
facet normal 0.180873 -0.491564 -0.851851
outer loop
vertex 0.661103 0.419972 0.584315
vertex 0.666283 0.432501 0.578185
vertex 0.679325 0.427975 0.583566
endloop
endfacet
facet normal -0.180808 -0.277806 -0.943468
outer loop
vertex 0.653983 0.450600 0.571715
vertex 0.657767 0.465213 0.566687
vertex 0.674458 0.458140 0.565571
endloop
endfacet
facet normal 0.311583 -0.017363 -0.950060
outer loop
vertex 0.694163 0.466535 0.571880
vertex 0.692924 0.452127 0.571737
vertex 0.674458 0.458140 0.565571
endloop
endfacet
facet normal 0.262009 0.105903 -0.959237
outer loop
vertex 0.694163 0.466535 0.571880
vertex 0.674458 0.458140 0.565571
vertex 0.679191 0.469727 0.568143
endloop
endfacet
facet normal 0.022677 0.207806 -0.977907
outer loop
vertex 0.657767 0.465213 0.566687
vertex 0.679191 0.469727 0.568143
vertex 0.674458 0.458140 0.565571
endloop
endfacet
facet normal -0.604500 -0.114706 -0.788304
outer loop
vertex 0.643879 0.471149 0.576473
vertex 0.657767 0.465213 0.566687
vertex 0.653983 0.450600 0.571715
endloop
endfacet
facet normal -0.239296 0.641578 -0.728776
outer loop
vertex 0.651373 0.482551 0.584050
vertex 0.657767 0.465213 0.566687
vertex 0.643879 0.471149 0.576473
endloop
endfacet
facet normal -0.393323 0.574105 -0.718122
outer loop
vertex 0.651373 0.482551 0.584050
vertex 0.664429 0.478104 0.573344
vertex 0.657767 0.465213 0.566687
endloop
endfacet
facet normal -0.040296 0.474826 -0.879157
outer loop
vertex 0.657767 0.465213 0.566687
vertex 0.664429 0.478104 0.573344
vertex 0.679191 0.469727 0.568143
endloop
endfacet
facet normal 0.086316 0.630850 -0.771089
outer loop
vertex 0.664429 0.478104 0.573344
vertex 0.683992 0.480814 0.577751
vertex 0.679191 0.469727 0.568143
endloop
endfacet
facet normal 0.310484 0.542187 -0.780790
outer loop
vertex 0.694163 0.466535 0.571880
vertex 0.679191 0.469727 0.568143
vertex 0.683992 0.480814 0.577751
endloop
endfacet
facet normal 0.083410 0.640028 -0.763811
outer loop
vertex 0.664429 0.478104 0.573344
vertex 0.670249 0.488961 0.583077
vertex 0.683992 0.480814 0.577751
endloop
endfacet
facet normal 0.077573 0.633915 -0.769503
outer loop
vertex 0.688707 0.491491 0.587022
vertex 0.683992 0.480814 0.577751
vertex 0.670249 0.488961 0.583077
endloop
endfacet
facet normal 0.304462 0.544299 -0.781691
outer loop
vertex 0.703810 0.476378 0.582381
vertex 0.683992 0.480814 0.577751
vertex 0.688707 0.491491 0.587022
endloop
endfacet
facet normal 0.304187 0.539486 -0.785127
outer loop
vertex 0.694163 0.466535 0.571880
vertex 0.683992 0.480814 0.577751
vertex 0.703810 0.476378 0.582381
endloop
endfacet
facet normal 0.228953 0.487533 -0.842551
outer loop
vertex 0.703810 0.476378 0.582381
vertex 0.688707 0.491491 0.587022
vertex 0.702223 0.485365 0.587150
endloop
endfacet
facet normal 0.395644 0.484040 -0.780494
outer loop
vertex 0.714556 0.477195 0.588335
vertex 0.703810 0.476378 0.582381
vertex 0.702223 0.485365 0.587150
endloop
endfacet
facet normal 0.425866 0.380595 -0.820845
outer loop
vertex 0.714556 0.477195 0.588335
vertex 0.709565 0.464538 0.579877
vertex 0.703810 0.476378 0.582381
endloop
endfacet
facet normal 0.463333 0.393172 -0.794190
outer loop
vertex 0.694163 0.466535 0.571880
vertex 0.703810 0.476378 0.582381
vertex 0.709565 0.464538 0.579877
endloop
endfacet
facet normal 0.538607 0.310917 -0.783092
outer loop
vertex 0.714556 0.477195 0.588335
vertex 0.724583 0.466741 0.591081
vertex 0.709565 0.464538 0.579877
endloop
endfacet
facet normal 0.729845 -0.125135 -0.672062
outer loop
vertex 0.725536 0.454641 0.599064
vertex 0.710260 0.451067 0.583140
vertex 0.709565 0.464538 0.579877
endloop
endfacet
facet normal 0.533863 -0.172942 -0.827696
outer loop
vertex 0.709565 0.464538 0.579877
vertex 0.710260 0.451067 0.583140
vertex 0.692924 0.452127 0.571737
endloop
endfacet
facet normal 0.457466 -0.030517 -0.888703
outer loop
vertex 0.709565 0.464538 0.579877
vertex 0.692924 0.452127 0.571737
vertex 0.694163 0.466535 0.571880
endloop
endfacet
facet normal 0.582326 -0.415240 -0.698908
outer loop
vertex 0.725536 0.454641 0.599064
vertex 0.709565 0.464538 0.579877
vertex 0.724583 0.466741 0.591081
endloop
endfacet
facet normal 0.393031 -0.506107 -0.767712
outer loop
vertex 0.675055 0.416442 0.588983
vertex 0.679325 0.427975 0.583566
vertex 0.691252 0.427177 0.590198
endloop
endfacet
facet normal 0.170824 -0.469993 -0.865983
outer loop
vertex 0.661103 0.419972 0.584315
vertex 0.679325 0.427975 0.583566
vertex 0.675055 0.416442 0.588983
endloop
endfacet
facet normal 0.665065 -0.464763 -0.584537
outer loop
vertex 0.698698 0.417535 0.606336
vertex 0.688000 0.415420 0.595846
vertex 0.691252 0.427177 0.590198
endloop
endfacet
facet normal 0.379808 -0.483822 -0.788455
outer loop
vertex 0.675055 0.416442 0.588983
vertex 0.691252 0.427177 0.590198
vertex 0.688000 0.415420 0.595846
endloop
endfacet
facet normal -0.965444 0.165614 -0.201220
outer loop
vertex 0.636291 0.464123 0.604878
vertex 0.638010 0.459666 0.592962
vertex 0.635112 0.447376 0.596751
endloop
endfacet
facet normal 0.067022 -0.391348 -0.917799
outer loop
vertex 0.650338 0.436672 0.576408
vertex 0.661103 0.419972 0.584315
vertex 0.645431 0.423627 0.581612
endloop
endfacet
facet normal 0.706855 -0.585646 -0.396704
outer loop
vertex 0.686992 0.394612 0.616939
vertex 0.675265 0.381353 0.615618
vertex 0.679427 0.391754 0.607679
endloop
endfacet
facet normal 0.475457 -0.646044 -0.597133
outer loop
vertex 0.679427 0.391754 0.607679
vertex 0.675265 0.381353 0.615618
vertex 0.662990 0.380452 0.606819
endloop
endfacet
facet normal 0.384908 -0.500802 -0.775270
outer loop
vertex 0.679427 0.391754 0.607679
vertex 0.662990 0.380452 0.606819
vertex 0.666649 0.392288 0.600990
endloop
endfacet
facet normal -0.082651 -0.400699 -0.912474
outer loop
vertex 0.662990 0.380452 0.606819
vertex 0.659315 0.369323 0.612039
vertex 0.644027 0.370650 0.612841
endloop
endfacet
facet normal 0.805535 -0.524418 0.275859
outer loop
vertex 0.705596 0.416816 0.662546
vertex 0.715846 0.424376 0.646987
vertex 0.714134 0.429015 0.660805
endloop
endfacet
endsolid Exported from Blender-4.0.2
