solid Exported from Blender-4.0.2
facet normal -0.027283 0.153840 0.987719
outer loop
vertex 0.781596 -0.029206 1.106665
vertex 0.795611 -0.024320 1.106291
vertex 0.793906 -0.017091 1.105118
endloop
endfacet
facet normal -0.026577 -0.146297 0.988884
outer loop
vertex 0.783608 -0.044004 1.105253
vertex 0.799365 -0.038752 1.106454
vertex 0.797316 -0.031549 1.107464
endloop
endfacet
facet normal -0.065906 -0.103658 0.992427
outer loop
vertex 0.783608 -0.044004 1.105253
vertex 0.797316 -0.031549 1.107464
vertex 0.781596 -0.029206 1.106665
endloop
endfacet
facet normal -0.187913 -0.118590 0.975000
outer loop
vertex 0.766364 -0.026771 1.104025
vertex 0.783608 -0.044004 1.105253
vertex 0.781596 -0.029206 1.106665
endloop
endfacet
facet normal -0.050044 -0.366362 0.929126
outer loop
vertex 0.783608 -0.044004 1.105253
vertex 0.803892 -0.052628 1.102946
vertex 0.801415 -0.045955 1.105443
endloop
endfacet
facet normal -0.181204 -0.340626 0.922572
outer loop
vertex 0.767364 -0.041762 1.102890
vertex 0.785043 -0.058231 1.100282
vertex 0.783608 -0.044004 1.105253
endloop
endfacet
facet normal -0.023965 -0.331905 0.943008
outer loop
vertex 0.783608 -0.044004 1.105253
vertex 0.785043 -0.058231 1.100282
vertex 0.806370 -0.059300 1.100448
endloop
endfacet
facet normal -0.154906 -0.084855 0.984278
outer loop
vertex 0.766364 -0.026771 1.104025
vertex 0.767364 -0.041762 1.102890
vertex 0.783608 -0.044004 1.105253
endloop
endfacet
facet normal -0.028829 -0.435430 0.899761
outer loop
vertex 0.799023 -0.071654 1.094234
vertex 0.806370 -0.059300 1.100448
vertex 0.785043 -0.058231 1.100282
endloop
endfacet
facet normal 0.025425 -0.461220 0.886921
outer loop
vertex 0.799023 -0.071654 1.094234
vertex 0.810321 -0.064950 1.097397
vertex 0.806370 -0.059300 1.100448
endloop
endfacet
facet normal -0.040495 -0.620896 0.782847
outer loop
vertex 0.820586 -0.087771 1.081053
vertex 0.819364 -0.074252 1.091712
vertex 0.814272 -0.070599 1.094346
endloop
endfacet
facet normal 0.063195 -0.596275 0.800289
outer loop
vertex 0.820586 -0.087771 1.081053
vertex 0.814272 -0.070599 1.094346
vertex 0.804764 -0.084329 1.084867
endloop
endfacet
facet normal 0.034433 -0.583845 0.811135
outer loop
vertex 0.804764 -0.084329 1.084867
vertex 0.814272 -0.070599 1.094346
vertex 0.799023 -0.071654 1.094234
endloop
endfacet
facet normal -0.063560 -0.611586 0.788621
outer loop
vertex 0.785676 -0.084282 1.083365
vertex 0.804764 -0.084329 1.084867
vertex 0.799023 -0.071654 1.094234
endloop
endfacet
facet normal 0.000120 -0.742105 0.670283
outer loop
vertex 0.818606 -0.097666 1.070098
vertex 0.820586 -0.087771 1.081053
vertex 0.804764 -0.084329 1.084867
endloop
endfacet
facet normal 0.005223 -0.739721 0.672893
outer loop
vertex 0.818606 -0.097666 1.070098
vertex 0.804764 -0.084329 1.084867
vertex 0.802780 -0.096476 1.071529
endloop
endfacet
facet normal -0.081736 -0.730789 0.677692
outer loop
vertex 0.804764 -0.084329 1.084867
vertex 0.785932 -0.095199 1.070874
vertex 0.802780 -0.096476 1.071529
endloop
endfacet
facet normal -0.053509 -0.752419 0.656507
outer loop
vertex 0.804764 -0.084329 1.084867
vertex 0.785676 -0.084282 1.083365
vertex 0.785932 -0.095199 1.070874
endloop
endfacet
facet normal -0.065283 -0.610428 0.789377
outer loop
vertex 0.785676 -0.084282 1.083365
vertex 0.799023 -0.071654 1.094234
vertex 0.783786 -0.071531 1.093069
endloop
endfacet
facet normal -0.176682 -0.742900 0.645665
outer loop
vertex 0.785676 -0.084282 1.083365
vertex 0.769700 -0.093055 1.068899
vertex 0.785932 -0.095199 1.070874
endloop
endfacet
facet normal -0.186676 -0.612330 0.768248
outer loop
vertex 0.769266 -0.082393 1.080883
vertex 0.785676 -0.084282 1.083365
vertex 0.783786 -0.071531 1.093069
endloop
endfacet
facet normal -0.183193 -0.737754 0.649738
outer loop
vertex 0.785676 -0.084282 1.083365
vertex 0.769266 -0.082393 1.080883
vertex 0.769700 -0.093055 1.068899
endloop
endfacet
facet normal -0.273721 -0.706547 0.652586
outer loop
vertex 0.769266 -0.082393 1.080883
vertex 0.753915 -0.079480 1.077598
vertex 0.754158 -0.090170 1.066126
endloop
endfacet
facet normal -0.249104 -0.728026 0.638691
outer loop
vertex 0.769266 -0.082393 1.080883
vertex 0.754158 -0.090170 1.066126
vertex 0.769700 -0.093055 1.068899
endloop
endfacet
facet normal -0.274495 -0.592211 0.757587
outer loop
vertex 0.753915 -0.079480 1.077598
vertex 0.769266 -0.082393 1.080883
vertex 0.768807 -0.069851 1.090521
endloop
endfacet
facet normal -0.199072 -0.601701 0.773515
outer loop
vertex 0.769266 -0.082393 1.080883
vertex 0.783786 -0.071531 1.093069
vertex 0.768807 -0.069851 1.090521
endloop
endfacet
facet normal -0.295445 -0.458666 0.838056
outer loop
vertex 0.753201 -0.053484 1.093977
vertex 0.768807 -0.069851 1.090521
vertex 0.768385 -0.056230 1.097827
endloop
endfacet
facet normal -0.183667 -0.469048 0.863864
outer loop
vertex 0.785043 -0.058231 1.100282
vertex 0.768385 -0.056230 1.097827
vertex 0.768807 -0.069851 1.090521
endloop
endfacet
facet normal -0.198635 -0.452662 0.869276
outer loop
vertex 0.785043 -0.058231 1.100282
vertex 0.768807 -0.069851 1.090521
vertex 0.783786 -0.071531 1.093069
endloop
endfacet
facet normal -0.294504 -0.457944 0.838782
outer loop
vertex 0.753201 -0.053484 1.093977
vertex 0.754214 -0.066999 1.086954
vertex 0.768807 -0.069851 1.090521
endloop
endfacet
facet normal -0.298483 -0.567874 0.767090
outer loop
vertex 0.753915 -0.079480 1.077598
vertex 0.768807 -0.069851 1.090521
vertex 0.754214 -0.066999 1.086954
endloop
endfacet
facet normal -0.344349 -0.453096 0.822270
outer loop
vertex 0.754214 -0.066999 1.086954
vertex 0.753201 -0.053484 1.093977
vertex 0.738721 -0.050363 1.089633
endloop
endfacet
facet normal -0.345496 -0.454016 0.821281
outer loop
vertex 0.754214 -0.066999 1.086954
vertex 0.738721 -0.050363 1.089633
vertex 0.739894 -0.063529 1.082848
endloop
endfacet
facet normal -0.350792 -0.556297 0.753312
outer loop
vertex 0.739894 -0.063529 1.082848
vertex 0.753915 -0.079480 1.077598
vertex 0.754214 -0.066999 1.086954
endloop
endfacet
facet normal -0.354753 -0.453071 0.817849
outer loop
vertex 0.724544 -0.047104 1.085289
vertex 0.739894 -0.063529 1.082848
vertex 0.738721 -0.050363 1.089633
endloop
endfacet
facet normal -0.337762 -0.548621 0.764809
outer loop
vertex 0.739894 -0.063529 1.082848
vertex 0.739208 -0.075865 1.073696
vertex 0.753915 -0.079480 1.077598
endloop
endfacet
facet normal -0.369674 -0.540276 0.755938
outer loop
vertex 0.725695 -0.059825 1.078552
vertex 0.739208 -0.075865 1.073696
vertex 0.739894 -0.063529 1.082848
endloop
endfacet
facet normal -0.365017 -0.461300 0.808681
outer loop
vertex 0.724544 -0.047104 1.085289
vertex 0.725695 -0.059825 1.078552
vertex 0.739894 -0.063529 1.082848
endloop
endfacet
facet normal -0.367471 -0.539022 0.757905
outer loop
vertex 0.725695 -0.059825 1.078552
vertex 0.724856 -0.071971 1.069507
vertex 0.739208 -0.075865 1.073696
endloop
endfacet
facet normal -0.363540 -0.540123 0.759017
outer loop
vertex 0.724856 -0.071971 1.069507
vertex 0.725695 -0.059825 1.078552
vertex 0.711454 -0.056198 1.074312
endloop
endfacet
facet normal -0.360673 -0.484375 0.797054
outer loop
vertex 0.725695 -0.059825 1.078552
vertex 0.710423 -0.043956 1.081285
vertex 0.711454 -0.056198 1.074312
endloop
endfacet
facet normal -0.335887 -0.464380 0.819470
outer loop
vertex 0.725695 -0.059825 1.078552
vertex 0.724544 -0.047104 1.085289
vertex 0.710423 -0.043956 1.081285
endloop
endfacet
facet normal -0.326205 -0.342735 0.880978
outer loop
vertex 0.724544 -0.047104 1.085289
vertex 0.709599 -0.030718 1.086130
vertex 0.710423 -0.043956 1.081285
endloop
endfacet
facet normal -0.287378 -0.344922 0.893556
outer loop
vertex 0.709599 -0.030718 1.086130
vertex 0.695874 -0.041073 1.077719
vertex 0.710423 -0.043956 1.081285
endloop
endfacet
facet normal -0.334344 -0.487560 0.806535
outer loop
vertex 0.710423 -0.043956 1.081285
vertex 0.696514 -0.048893 1.072535
vertex 0.711454 -0.056198 1.074312
endloop
endfacet
facet normal -0.299875 -0.544059 0.783629
outer loop
vertex 0.710423 -0.043956 1.081285
vertex 0.695874 -0.041073 1.077719
vertex 0.696514 -0.048893 1.072535
endloop
endfacet
facet normal -0.460064 -0.516464 0.722223
outer loop
vertex 0.695874 -0.041073 1.077719
vertex 0.688201 -0.044620 1.070295
vertex 0.696514 -0.048893 1.072535
endloop
endfacet
facet normal -0.553573 -0.367129 0.747511
outer loop
vertex 0.695874 -0.041073 1.077719
vertex 0.682968 -0.025242 1.075937
vertex 0.688201 -0.044620 1.070295
endloop
endfacet
facet normal -0.522069 -0.337432 0.783316
outer loop
vertex 0.695172 -0.028201 1.082796
vertex 0.682968 -0.025242 1.075937
vertex 0.695874 -0.041073 1.077719
endloop
endfacet
facet normal -0.269690 -0.366013 0.890675
outer loop
vertex 0.709599 -0.030718 1.086130
vertex 0.695172 -0.028201 1.082796
vertex 0.695874 -0.041073 1.077719
endloop
endfacet
facet normal 0.033525 0.159480 0.986632
outer loop
vertex 0.680240 -0.005136 1.079575
vertex 0.695172 -0.028201 1.082796
vertex 0.695724 -0.009472 1.079750
endloop
endfacet
facet normal -0.195059 0.163046 0.967144
outer loop
vertex 0.695724 -0.009472 1.079750
vertex 0.695172 -0.028201 1.082796
vertex 0.709599 -0.030718 1.086130
endloop
endfacet
facet normal -0.517953 -0.219843 0.826676
outer loop
vertex 0.695172 -0.028201 1.082796
vertex 0.680240 -0.005136 1.079575
vertex 0.682968 -0.025242 1.075937
endloop
endfacet
facet normal 0.058946 0.249571 0.966561
outer loop
vertex 0.680240 -0.005136 1.079575
vertex 0.695724 -0.009472 1.079750
vertex 0.679980 0.013510 1.074776
endloop
endfacet
facet normal -0.256639 0.237536 0.936863
outer loop
vertex 0.665777 -0.000246 1.074373
vertex 0.680240 -0.005136 1.079575
vertex 0.679980 0.013510 1.074776
endloop
endfacet
facet normal -0.215053 -0.202043 0.955474
outer loop
vertex 0.666986 -0.016434 1.074203
vertex 0.682968 -0.025242 1.075937
vertex 0.680240 -0.005136 1.079575
endloop
endfacet
facet normal -0.348947 -0.035941 0.936453
outer loop
vertex 0.666986 -0.016434 1.074203
vertex 0.680240 -0.005136 1.079575
vertex 0.665777 -0.000246 1.074373
endloop
endfacet
facet normal -0.375234 -0.426021 0.823229
outer loop
vertex 0.666986 -0.016434 1.074203
vertex 0.653512 -0.026839 1.062676
vertex 0.667967 -0.030203 1.067524
endloop
endfacet
facet normal -0.328741 -0.431010 0.840333
outer loop
vertex 0.682968 -0.025242 1.075937
vertex 0.666986 -0.016434 1.074203
vertex 0.667967 -0.030203 1.067524
endloop
endfacet
facet normal -0.382154 -0.418063 0.824125
outer loop
vertex 0.666986 -0.016434 1.074203
vertex 0.652238 -0.013632 1.068785
vertex 0.653512 -0.026839 1.062676
endloop
endfacet
facet normal -0.350597 -0.036058 0.935832
outer loop
vertex 0.652238 -0.013632 1.068785
vertex 0.666986 -0.016434 1.074203
vertex 0.665777 -0.000246 1.074373
endloop
endfacet
facet normal -0.423642 -0.413632 0.805876
outer loop
vertex 0.652238 -0.013632 1.068785
vertex 0.639312 -0.023011 1.057176
vertex 0.653512 -0.026839 1.062676
endloop
endfacet
facet normal -0.337897 -0.146204 0.929758
outer loop
vertex 0.638403 -0.010731 1.064213
vertex 0.652238 -0.013632 1.068785
vertex 0.651846 0.001607 1.071039
endloop
endfacet
facet normal -0.248762 -0.147970 0.957195
outer loop
vertex 0.652238 -0.013632 1.068785
vertex 0.665777 -0.000246 1.074373
vertex 0.651846 0.001607 1.071039
endloop
endfacet
facet normal -0.364403 -0.483171 0.796089
outer loop
vertex 0.652238 -0.013632 1.068785
vertex 0.638403 -0.010731 1.064213
vertex 0.639312 -0.023011 1.057176
endloop
endfacet
facet normal -0.535188 -0.449473 0.715226
outer loop
vertex 0.638403 -0.010731 1.064213
vertex 0.625864 -0.018075 1.050215
vertex 0.639312 -0.023011 1.057176
endloop
endfacet
facet normal -0.454091 -0.165196 0.875507
outer loop
vertex 0.625071 -0.006563 1.058085
vertex 0.638403 -0.010731 1.064213
vertex 0.638902 0.004083 1.067267
endloop
endfacet
facet normal -0.307050 -0.182227 0.934085
outer loop
vertex 0.638403 -0.010731 1.064213
vertex 0.651846 0.001607 1.071039
vertex 0.638902 0.004083 1.067267
endloop
endfacet
facet normal -0.485653 -0.515894 0.705688
outer loop
vertex 0.638403 -0.010731 1.064213
vertex 0.625071 -0.006563 1.058085
vertex 0.625864 -0.018075 1.050215
endloop
endfacet
facet normal -0.712021 -0.429034 0.555839
outer loop
vertex 0.614359 -0.000159 1.049306
vertex 0.625864 -0.018075 1.050215
vertex 0.625071 -0.006563 1.058085
endloop
endfacet
facet normal -0.681274 -0.127152 0.720901
outer loop
vertex 0.617017 0.013283 1.053974
vertex 0.625071 -0.006563 1.058085
vertex 0.626359 0.007519 1.061786
endloop
endfacet
facet normal -0.436520 -0.191138 0.879157
outer loop
vertex 0.625071 -0.006563 1.058085
vertex 0.638902 0.004083 1.067267
vertex 0.626359 0.007519 1.061786
endloop
endfacet
facet normal -0.671517 -0.121089 0.731028
outer loop
vertex 0.617017 0.013283 1.053974
vertex 0.614359 -0.000159 1.049306
vertex 0.625071 -0.006563 1.058085
endloop
endfacet
facet normal -0.886238 0.014450 0.463004
outer loop
vertex 0.614359 -0.000159 1.049306
vertex 0.617017 0.013283 1.053974
vertex 0.611659 0.020721 1.043486
endloop
endfacet
facet normal -0.517550 0.264199 0.813844
outer loop
vertex 0.626925 0.024917 1.056498
vertex 0.617017 0.013283 1.053974
vertex 0.626359 0.007519 1.061786
endloop
endfacet
facet normal -0.634788 0.396758 0.663044
outer loop
vertex 0.619255 0.033717 1.043889
vertex 0.617017 0.013283 1.053974
vertex 0.626925 0.024917 1.056498
endloop
endfacet
facet normal -0.685273 0.381291 0.620498
outer loop
vertex 0.619255 0.033717 1.043889
vertex 0.611659 0.020721 1.043486
vertex 0.617017 0.013283 1.053974
endloop
endfacet
facet normal -0.876102 0.020973 0.481670
outer loop
vertex 0.614359 -0.000159 1.049306
vertex 0.611659 0.020721 1.043486
vertex 0.608429 0.007583 1.038183
endloop
endfacet
facet normal -0.914419 -0.278811 0.293433
outer loop
vertex 0.614753 -0.010957 1.040274
vertex 0.614359 -0.000159 1.049306
vertex 0.608429 0.007583 1.038183
endloop
endfacet
facet normal -0.918464 -0.282023 0.277286
outer loop
vertex 0.614753 -0.010957 1.040274
vertex 0.608429 0.007583 1.038183
vertex 0.609219 -0.003464 1.029564
endloop
endfacet
facet normal -0.474183 0.577990 0.664137
outer loop
vertex 0.626925 0.024917 1.056498
vertex 0.636240 0.039330 1.050605
vertex 0.629316 0.044745 1.040949
endloop
endfacet
facet normal -0.249924 0.757008 0.603720
outer loop
vertex 0.640708 0.052760 1.035615
vertex 0.629316 0.044745 1.040949
vertex 0.636240 0.039330 1.050605
endloop
endfacet
facet normal -0.443566 0.585570 0.678496
outer loop
vertex 0.626925 0.024917 1.056498
vertex 0.629316 0.044745 1.040949
vertex 0.619255 0.033717 1.043889
endloop
endfacet
facet normal -0.060900 0.752372 0.655918
outer loop
vertex 0.649666 0.033515 1.058522
vertex 0.640708 0.052760 1.035615
vertex 0.636240 0.039330 1.050605
endloop
endfacet
facet normal -0.326094 0.657127 0.679594
outer loop
vertex 0.649666 0.033515 1.058522
vertex 0.652003 0.048235 1.045410
vertex 0.640708 0.052760 1.035615
endloop
endfacet
facet normal 0.004988 0.909975 0.414633
outer loop
vertex 0.652003 0.048235 1.045410
vertex 0.652218 0.056298 1.027712
vertex 0.640708 0.052760 1.035615
endloop
endfacet
facet normal -0.121510 0.648898 0.751111
outer loop
vertex 0.665256 0.032422 1.061215
vertex 0.665773 0.046892 1.048798
vertex 0.652003 0.048235 1.045410
endloop
endfacet
facet normal -0.080499 0.670077 0.737914
outer loop
vertex 0.665256 0.032422 1.061215
vertex 0.652003 0.048235 1.045410
vertex 0.649666 0.033515 1.058522
endloop
endfacet
facet normal 0.001596 0.931831 0.362888
outer loop
vertex 0.652003 0.048235 1.045410
vertex 0.665773 0.046892 1.048798
vertex 0.666494 0.053818 1.031010
endloop
endfacet
facet normal 0.061991 0.907976 0.414412
outer loop
vertex 0.652003 0.048235 1.045410
vertex 0.666494 0.053818 1.031010
vertex 0.652218 0.056298 1.027712
endloop
endfacet
facet normal 0.013029 0.971579 0.236358
outer loop
vertex 0.683651 0.056030 1.020972
vertex 0.666494 0.053818 1.031010
vertex 0.679514 0.052532 1.035577
endloop
endfacet
facet normal -0.034747 0.931767 0.361389
outer loop
vertex 0.665773 0.046892 1.048798
vertex 0.679514 0.052532 1.035577
vertex 0.666494 0.053818 1.031010
endloop
endfacet
facet normal 0.194664 0.939982 0.280250
outer loop
vertex 0.692966 0.047104 1.044439
vertex 0.683651 0.056030 1.020972
vertex 0.679514 0.052532 1.035577
endloop
endfacet
facet normal 0.225556 0.936973 0.266845
outer loop
vertex 0.692966 0.047104 1.044439
vertex 0.702367 0.047435 1.035332
vertex 0.683651 0.056030 1.020972
endloop
endfacet
facet normal 0.227006 0.937132 0.265052
outer loop
vertex 0.683651 0.056030 1.020972
vertex 0.702367 0.047435 1.035332
vertex 0.705705 0.049441 1.025382
endloop
endfacet
facet normal 0.217556 0.854746 0.471252
outer loop
vertex 0.705705 0.049441 1.025382
vertex 0.715516 0.032809 1.051018
vertex 0.719797 0.038607 1.038526
endloop
endfacet
facet normal 0.499134 0.801631 0.329018
outer loop
vertex 0.705705 0.049441 1.025382
vertex 0.702367 0.047435 1.035332
vertex 0.715516 0.032809 1.051018
endloop
endfacet
facet normal 0.009905 0.876211 0.481827
outer loop
vertex 0.715516 0.032809 1.051018
vertex 0.729284 0.030019 1.055809
vertex 0.734056 0.037305 1.042461
endloop
endfacet
facet normal -0.030593 0.910603 0.412149
outer loop
vertex 0.715516 0.032809 1.051018
vertex 0.734056 0.037305 1.042461
vertex 0.719797 0.038607 1.038526
endloop
endfacet
facet normal 0.001345 0.865813 0.500365
outer loop
vertex 0.729284 0.030019 1.055809
vertex 0.715516 0.032809 1.051018
vertex 0.710526 0.025011 1.064525
endloop
endfacet
facet normal 0.235595 0.801424 0.549741
outer loop
vertex 0.702367 0.047435 1.035332
vertex 0.710526 0.025011 1.064525
vertex 0.715516 0.032809 1.051018
endloop
endfacet
facet normal 0.292081 0.655025 0.696872
outer loop
vertex 0.698495 0.029469 1.065378
vertex 0.709715 0.012789 1.076353
vertex 0.710526 0.025011 1.064525
endloop
endfacet
facet normal -0.057473 0.696248 0.715497
outer loop
vertex 0.709715 0.012789 1.076353
vertex 0.724594 0.022182 1.068408
vertex 0.710526 0.025011 1.064525
endloop
endfacet
facet normal 0.322729 0.764202 0.558427
outer loop
vertex 0.698495 0.029469 1.065378
vertex 0.710526 0.025011 1.064525
vertex 0.692966 0.047104 1.044439
endloop
endfacet
facet normal 0.429645 0.770132 0.471488
outer loop
vertex 0.702367 0.047435 1.035332
vertex 0.692966 0.047104 1.044439
vertex 0.710526 0.025011 1.064525
endloop
endfacet
facet normal 0.022537 0.845132 0.534083
outer loop
vertex 0.729284 0.030019 1.055809
vertex 0.710526 0.025011 1.064525
vertex 0.724594 0.022182 1.068408
endloop
endfacet
facet normal 0.063561 0.836629 0.544070
outer loop
vertex 0.738284 0.018334 1.072726
vertex 0.729284 0.030019 1.055809
vertex 0.724594 0.022182 1.068408
endloop
endfacet
facet normal -0.029885 0.697309 0.716147
outer loop
vertex 0.723766 0.010338 1.079906
vertex 0.738284 0.018334 1.072726
vertex 0.724594 0.022182 1.068408
endloop
endfacet
facet normal -0.058930 0.697453 0.714203
outer loop
vertex 0.709715 0.012789 1.076353
vertex 0.723766 0.010338 1.079906
vertex 0.724594 0.022182 1.068408
endloop
endfacet
facet normal -0.144507 0.475358 0.867844
outer loop
vertex 0.737305 -0.006660 1.091471
vertex 0.737723 0.007291 1.083899
vertex 0.723766 0.010338 1.079906
endloop
endfacet
facet normal -0.045209 0.711635 0.701093
outer loop
vertex 0.723766 0.010338 1.079906
vertex 0.737723 0.007291 1.083899
vertex 0.738284 0.018334 1.072726
endloop
endfacet
facet normal -0.148379 0.436029 0.887616
outer loop
vertex 0.709715 0.012789 1.076353
vertex 0.723431 -0.004087 1.086936
vertex 0.723766 0.010338 1.079906
endloop
endfacet
facet normal -0.206662 0.432507 0.877627
outer loop
vertex 0.737305 -0.006660 1.091471
vertex 0.723766 0.010338 1.079906
vertex 0.723431 -0.004087 1.086936
endloop
endfacet
facet normal -0.187816 0.407718 0.893583
outer loop
vertex 0.709715 0.012789 1.076353
vertex 0.709601 -0.001939 1.083049
vertex 0.723431 -0.004087 1.086936
endloop
endfacet
facet normal -0.230815 0.226268 0.946323
outer loop
vertex 0.709601 -0.001939 1.083049
vertex 0.723321 -0.018917 1.090455
vertex 0.723431 -0.004087 1.086936
endloop
endfacet
facet normal -0.263592 0.229956 0.936824
outer loop
vertex 0.737233 -0.021568 1.095110
vertex 0.737305 -0.006660 1.091471
vertex 0.723431 -0.004087 1.086936
endloop
endfacet
facet normal -0.270556 0.224171 0.936241
outer loop
vertex 0.737233 -0.021568 1.095110
vertex 0.723431 -0.004087 1.086936
vertex 0.723321 -0.018917 1.090455
endloop
endfacet
facet normal -0.243403 0.215788 0.945616
outer loop
vertex 0.709601 -0.001939 1.083049
vertex 0.709513 -0.016639 1.086381
vertex 0.723321 -0.018917 1.090455
endloop
endfacet
facet normal -0.287434 -0.030191 0.957325
outer loop
vertex 0.709513 -0.016639 1.086381
vertex 0.723611 -0.033474 1.090083
vertex 0.723321 -0.018917 1.090455
endloop
endfacet
facet normal -0.325630 -0.051077 0.944117
outer loop
vertex 0.723321 -0.018917 1.090455
vertex 0.737782 -0.036364 1.094499
vertex 0.737233 -0.021568 1.095110
endloop
endfacet
facet normal -0.303012 -0.030380 0.952502
outer loop
vertex 0.723321 -0.018917 1.090455
vertex 0.723611 -0.033474 1.090083
vertex 0.737782 -0.036364 1.094499
endloop
endfacet
facet normal -0.341455 -0.328947 0.880456
outer loop
vertex 0.723611 -0.033474 1.090083
vertex 0.738721 -0.050363 1.089633
vertex 0.737782 -0.036364 1.094499
endloop
endfacet
facet normal -0.345327 -0.332335 0.877669
outer loop
vertex 0.723611 -0.033474 1.090083
vertex 0.724544 -0.047104 1.085289
vertex 0.738721 -0.050363 1.089633
endloop
endfacet
facet normal -0.274906 -0.018813 0.961287
outer loop
vertex 0.709513 -0.016639 1.086381
vertex 0.709599 -0.030718 1.086130
vertex 0.723611 -0.033474 1.090083
endloop
endfacet
facet normal -0.316195 -0.333967 0.887968
outer loop
vertex 0.724544 -0.047104 1.085289
vertex 0.723611 -0.033474 1.090083
vertex 0.709599 -0.030718 1.086130
endloop
endfacet
facet normal -0.335730 -0.329285 0.882529
outer loop
vertex 0.753201 -0.053484 1.093977
vertex 0.737782 -0.036364 1.094499
vertex 0.738721 -0.050363 1.089633
endloop
endfacet
facet normal -0.303400 -0.050559 0.951521
outer loop
vertex 0.737233 -0.021568 1.095110
vertex 0.737782 -0.036364 1.094499
vertex 0.752236 -0.039187 1.098958
endloop
endfacet
facet normal -0.336519 -0.329990 0.881965
outer loop
vertex 0.753201 -0.053484 1.093977
vertex 0.752236 -0.039187 1.098958
vertex 0.737782 -0.036364 1.094499
endloop
endfacet
facet normal -0.287837 -0.332346 0.898163
outer loop
vertex 0.752236 -0.039187 1.098958
vertex 0.753201 -0.053484 1.093977
vertex 0.768385 -0.056230 1.097827
endloop
endfacet
facet normal -0.289986 -0.334281 0.896752
outer loop
vertex 0.752236 -0.039187 1.098958
vertex 0.768385 -0.056230 1.097827
vertex 0.767364 -0.041762 1.102890
endloop
endfacet
facet normal -0.325644 -0.071376 0.942795
outer loop
vertex 0.737233 -0.021568 1.095110
vertex 0.752236 -0.039187 1.098958
vertex 0.751635 -0.024228 1.099883
endloop
endfacet
facet normal -0.262101 -0.070044 0.962495
outer loop
vertex 0.751635 -0.024228 1.099883
vertex 0.752236 -0.039187 1.098958
vertex 0.767364 -0.041762 1.102890
endloop
endfacet
facet normal -0.284139 -0.091215 0.954434
outer loop
vertex 0.751635 -0.024228 1.099883
vertex 0.767364 -0.041762 1.102890
vertex 0.766364 -0.026771 1.104025
endloop
endfacet
facet normal -0.225310 0.235050 0.945509
outer loop
vertex 0.751344 -0.009471 1.096145
vertex 0.751635 -0.024228 1.099883
vertex 0.766364 -0.026771 1.104025
endloop
endfacet
facet normal -0.265190 0.231834 0.935910
outer loop
vertex 0.751635 -0.024228 1.099883
vertex 0.751344 -0.009471 1.096145
vertex 0.737305 -0.006660 1.091471
endloop
endfacet
facet normal -0.267650 0.229709 0.935734
outer loop
vertex 0.751635 -0.024228 1.099883
vertex 0.737305 -0.006660 1.091471
vertex 0.737233 -0.021568 1.095110
endloop
endfacet
facet normal -0.114145 0.523913 0.844089
outer loop
vertex 0.737723 0.007291 1.083899
vertex 0.751344 -0.009471 1.096145
vertex 0.751690 0.004030 1.087812
endloop
endfacet
facet normal -0.091855 0.524710 0.846311
outer loop
vertex 0.765645 0.000976 1.091220
vertex 0.751690 0.004030 1.087812
vertex 0.751344 -0.009471 1.096145
endloop
endfacet
facet normal -0.191769 0.472594 0.860162
outer loop
vertex 0.737723 0.007291 1.083899
vertex 0.737305 -0.006660 1.091471
vertex 0.751344 -0.009471 1.096145
endloop
endfacet
facet normal -0.234611 0.226855 0.945248
outer loop
vertex 0.751344 -0.009471 1.096145
vertex 0.766364 -0.026771 1.104025
vertex 0.765666 -0.012088 1.100328
endloop
endfacet
facet normal -0.133915 0.566611 0.813031
outer loop
vertex 0.765645 0.000976 1.091220
vertex 0.751344 -0.009471 1.096145
vertex 0.765666 -0.012088 1.100328
endloop
endfacet
facet normal -0.054602 0.570997 0.819134
outer loop
vertex 0.765666 -0.012088 1.100328
vertex 0.779389 -0.001434 1.093816
vertex 0.765645 0.000976 1.091220
endloop
endfacet
facet normal 0.007104 0.751316 0.659904
outer loop
vertex 0.765645 0.000976 1.091220
vertex 0.779389 -0.001434 1.093816
vertex 0.780446 0.008389 1.082621
endloop
endfacet
facet normal 0.017157 0.742507 0.669618
outer loop
vertex 0.765645 0.000976 1.091220
vertex 0.780446 0.008389 1.082621
vertex 0.765958 0.010724 1.080403
endloop
endfacet
facet normal -0.000910 0.742872 0.669432
outer loop
vertex 0.751690 0.004030 1.087812
vertex 0.765645 0.000976 1.091220
vertex 0.765958 0.010724 1.080403
endloop
endfacet
facet normal 0.034264 0.791811 0.609805
outer loop
vertex 0.787899 0.017145 1.070833
vertex 0.765958 0.010724 1.080403
vertex 0.780446 0.008389 1.082621
endloop
endfacet
facet normal 0.020034 0.808381 0.588318
outer loop
vertex 0.787899 0.017145 1.070833
vertex 0.772732 0.019956 1.067487
vertex 0.765958 0.010724 1.080403
endloop
endfacet
facet normal 0.053894 0.798772 0.599215
outer loop
vertex 0.772732 0.019956 1.067487
vertex 0.751967 0.014301 1.076893
vertex 0.765958 0.010724 1.080403
endloop
endfacet
facet normal 0.014238 0.728139 0.685282
outer loop
vertex 0.751690 0.004030 1.087812
vertex 0.765958 0.010724 1.080403
vertex 0.751967 0.014301 1.076893
endloop
endfacet
facet normal -0.021742 0.728494 0.684707
outer loop
vertex 0.737723 0.007291 1.083899
vertex 0.751690 0.004030 1.087812
vertex 0.751967 0.014301 1.076893
endloop
endfacet
facet normal -0.004379 0.711334 0.702841
outer loop
vertex 0.737723 0.007291 1.083899
vertex 0.751967 0.014301 1.076893
vertex 0.738284 0.018334 1.072726
endloop
endfacet
facet normal 0.060317 0.808893 0.584854
outer loop
vertex 0.758080 0.023270 1.063858
vertex 0.738284 0.018334 1.072726
vertex 0.751967 0.014301 1.076893
endloop
endfacet
facet normal 0.040662 0.814133 0.579253
outer loop
vertex 0.772732 0.019956 1.067487
vertex 0.758080 0.023270 1.063858
vertex 0.751967 0.014301 1.076893
endloop
endfacet
facet normal 0.061812 0.848602 0.525408
outer loop
vertex 0.763621 0.030929 1.050836
vertex 0.758080 0.023270 1.063858
vertex 0.772732 0.019956 1.067487
endloop
endfacet
facet normal 0.046336 0.825290 0.562805
outer loop
vertex 0.758080 0.023270 1.063858
vertex 0.743624 0.026813 1.059853
vertex 0.738284 0.018334 1.072726
endloop
endfacet
facet normal 0.053667 0.850572 0.523113
outer loop
vertex 0.758080 0.023270 1.063858
vertex 0.763621 0.030929 1.050836
vertex 0.748812 0.034420 1.046679
endloop
endfacet
facet normal 0.065447 0.852766 0.518177
outer loop
vertex 0.758080 0.023270 1.063858
vertex 0.748812 0.034420 1.046679
vertex 0.743624 0.026813 1.059853
endloop
endfacet
facet normal 0.023590 0.861702 0.506865
outer loop
vertex 0.743624 0.026813 1.059853
vertex 0.748812 0.034420 1.046679
vertex 0.734056 0.037305 1.042461
endloop
endfacet
facet normal -0.873328 -0.461974 0.154525
outer loop
vertex 0.610704 -0.011703 1.017488
vertex 0.612780 -0.019692 1.005337
vertex 0.623689 -0.034362 1.023133
endloop
endfacet
facet normal -0.731703 -0.565011 0.381278
outer loop
vertex 0.623689 -0.034362 1.023133
vertex 0.632213 -0.039735 1.031529
vertex 0.629159 -0.029420 1.040954
endloop
endfacet
facet normal -0.873584 -0.464224 0.146107
outer loop
vertex 0.610704 -0.011703 1.017488
vertex 0.623689 -0.034362 1.023133
vertex 0.618991 -0.022782 1.031836
endloop
endfacet
facet normal -0.720357 -0.579126 0.381707
outer loop
vertex 0.623689 -0.034362 1.023133
vertex 0.629159 -0.029420 1.040954
vertex 0.618991 -0.022782 1.031836
endloop
endfacet
facet normal -0.726818 -0.552059 0.408615
outer loop
vertex 0.629159 -0.029420 1.040954
vertex 0.614753 -0.010957 1.040274
vertex 0.618991 -0.022782 1.031836
endloop
endfacet
facet normal -0.577914 -0.610209 0.541904
outer loop
vertex 0.625864 -0.018075 1.050215
vertex 0.629159 -0.029420 1.040954
vertex 0.641376 -0.034614 1.048134
endloop
endfacet
facet normal -0.724343 -0.549878 0.415886
outer loop
vertex 0.629159 -0.029420 1.040954
vertex 0.625864 -0.018075 1.050215
vertex 0.614753 -0.010957 1.040274
endloop
endfacet
facet normal -0.579225 -0.600696 0.551056
outer loop
vertex 0.643255 -0.045258 1.038506
vertex 0.641376 -0.034614 1.048134
vertex 0.629159 -0.029420 1.040954
endloop
endfacet
facet normal -0.616154 -0.622881 0.482051
outer loop
vertex 0.643255 -0.045258 1.038506
vertex 0.629159 -0.029420 1.040954
vertex 0.632213 -0.039735 1.031529
endloop
endfacet
facet normal -0.532376 -0.577220 0.619188
outer loop
vertex 0.625864 -0.018075 1.050215
vertex 0.641376 -0.034614 1.048134
vertex 0.639312 -0.023011 1.057176
endloop
endfacet
facet normal -0.424270 -0.602369 0.676126
outer loop
vertex 0.641376 -0.034614 1.048134
vertex 0.653512 -0.026839 1.062676
vertex 0.639312 -0.023011 1.057176
endloop
endfacet
facet normal -0.489721 -0.630839 0.601843
outer loop
vertex 0.654683 -0.039092 1.054268
vertex 0.641376 -0.034614 1.048134
vertex 0.643255 -0.045258 1.038506
endloop
endfacet
facet normal -0.495632 -0.523124 0.693318
outer loop
vertex 0.641376 -0.034614 1.048134
vertex 0.654683 -0.039092 1.054268
vertex 0.653512 -0.026839 1.062676
endloop
endfacet
facet normal -0.448392 -0.547669 0.706401
outer loop
vertex 0.669192 -0.055182 1.051003
vertex 0.668458 -0.043255 1.059784
vertex 0.654683 -0.039092 1.054268
endloop
endfacet
facet normal -0.498851 -0.580451 0.643602
outer loop
vertex 0.669192 -0.055182 1.051003
vertex 0.654683 -0.039092 1.054268
vertex 0.655946 -0.050364 1.045081
endloop
endfacet
facet normal -0.547244 -0.564767 0.617707
outer loop
vertex 0.654683 -0.039092 1.054268
vertex 0.643255 -0.045258 1.038506
vertex 0.655946 -0.050364 1.045081
endloop
endfacet
facet normal -0.448416 -0.534466 0.716428
outer loop
vertex 0.668458 -0.043255 1.059784
vertex 0.653512 -0.026839 1.062676
vertex 0.654683 -0.039092 1.054268
endloop
endfacet
facet normal -0.377378 -0.482813 0.790239
outer loop
vertex 0.668458 -0.043255 1.059784
vertex 0.667967 -0.030203 1.067524
vertex 0.653512 -0.026839 1.062676
endloop
endfacet
facet normal -0.422591 -0.473992 0.772495
outer loop
vertex 0.667967 -0.030203 1.067524
vertex 0.668458 -0.043255 1.059784
vertex 0.682449 -0.047324 1.064941
endloop
endfacet
facet normal -0.470122 -0.541859 0.696688
outer loop
vertex 0.668458 -0.043255 1.059784
vertex 0.669192 -0.055182 1.051003
vertex 0.682723 -0.059894 1.056469
endloop
endfacet
facet normal -0.424229 -0.512455 0.746605
outer loop
vertex 0.668458 -0.043255 1.059784
vertex 0.682723 -0.059894 1.056469
vertex 0.682449 -0.047324 1.064941
endloop
endfacet
facet normal -0.454895 -0.496322 0.739415
outer loop
vertex 0.667967 -0.030203 1.067524
vertex 0.682449 -0.047324 1.064941
vertex 0.688201 -0.044620 1.070295
endloop
endfacet
facet normal -0.431828 -0.510550 0.743547
outer loop
vertex 0.694247 -0.065464 1.059337
vertex 0.682449 -0.047324 1.064941
vertex 0.682723 -0.059894 1.056469
endloop
endfacet
facet normal -0.449555 -0.503941 0.737525
outer loop
vertex 0.696474 -0.057881 1.066277
vertex 0.688201 -0.044620 1.070295
vertex 0.682449 -0.047324 1.064941
endloop
endfacet
facet normal -0.460986 -0.521620 0.717917
outer loop
vertex 0.694247 -0.065464 1.059337
vertex 0.696474 -0.057881 1.066277
vertex 0.682449 -0.047324 1.064941
endloop
endfacet
facet normal -0.276551 -0.603324 0.748011
outer loop
vertex 0.696474 -0.057881 1.066277
vertex 0.694247 -0.065464 1.059337
vertex 0.711763 -0.075707 1.057552
endloop
endfacet
facet normal -0.426154 -0.665451 0.612836
outer loop
vertex 0.696474 -0.057881 1.066277
vertex 0.711763 -0.075707 1.057552
vertex 0.710703 -0.067987 1.065197
endloop
endfacet
facet normal -0.433581 -0.663458 0.609779
outer loop
vertex 0.724674 -0.082825 1.058987
vertex 0.710703 -0.067987 1.065197
vertex 0.711763 -0.075707 1.057552
endloop
endfacet
facet normal -0.346076 -0.668506 0.658279
outer loop
vertex 0.724674 -0.082825 1.058987
vertex 0.739209 -0.086657 1.062737
vertex 0.739208 -0.075865 1.073696
endloop
endfacet
facet normal -0.383009 -0.639579 0.666515
outer loop
vertex 0.724674 -0.082825 1.058987
vertex 0.724856 -0.071971 1.069507
vertex 0.710703 -0.067987 1.065197
endloop
endfacet
facet normal -0.370157 -0.643327 0.670160
outer loop
vertex 0.724674 -0.082825 1.058987
vertex 0.739208 -0.075865 1.073696
vertex 0.724856 -0.071971 1.069507
endloop
endfacet
facet normal -0.310326 -0.698751 0.644551
outer loop
vertex 0.739209 -0.086657 1.062737
vertex 0.754158 -0.090170 1.066126
vertex 0.753915 -0.079480 1.077598
endloop
endfacet
facet normal -0.339799 -0.670137 0.659888
outer loop
vertex 0.739209 -0.086657 1.062737
vertex 0.753915 -0.079480 1.077598
vertex 0.739208 -0.075865 1.073696
endloop
endfacet
facet normal -0.020132 0.833134 0.552705
outer loop
vertex 0.794327 0.024488 1.059246
vertex 0.799056 0.020019 1.066155
vertex 0.803261 0.023571 1.060954
endloop
endfacet
facet normal 0.008944 0.842380 0.538809
outer loop
vertex 0.787899 0.017145 1.070833
vertex 0.799056 0.020019 1.066155
vertex 0.794327 0.024488 1.059246
endloop
endfacet
facet normal 0.018315 0.855050 0.518222
outer loop
vertex 0.786548 0.026005 1.057018
vertex 0.772732 0.019956 1.067487
vertex 0.794327 0.024488 1.059246
endloop
endfacet
facet normal 0.033894 0.835574 0.548331
outer loop
vertex 0.794327 0.024488 1.059246
vertex 0.772732 0.019956 1.067487
vertex 0.787899 0.017145 1.070833
endloop
endfacet
facet normal 0.052252 0.846755 0.529411
outer loop
vertex 0.772732 0.019956 1.067487
vertex 0.771195 0.029225 1.052813
vertex 0.763621 0.030929 1.050836
endloop
endfacet
facet normal 0.008165 0.790604 0.612273
outer loop
vertex 0.780446 0.008389 1.082621
vertex 0.799530 0.011716 1.078071
vertex 0.803785 0.015550 1.073063
endloop
endfacet
facet normal -0.002856 0.803631 0.595122
outer loop
vertex 0.803785 0.015550 1.073063
vertex 0.787899 0.017145 1.070833
vertex 0.780446 0.008389 1.082621
endloop
endfacet
facet normal -0.001713 0.561569 0.827428
outer loop
vertex 0.779975 -0.014656 1.103437
vertex 0.792840 -0.010091 1.100365
vertex 0.791775 -0.003091 1.095612
endloop
endfacet
facet normal -0.038755 0.586810 0.808797
outer loop
vertex 0.791775 -0.003091 1.095612
vertex 0.779389 -0.001434 1.093816
vertex 0.779975 -0.014656 1.103437
endloop
endfacet
facet normal 0.004932 0.751713 0.659472
outer loop
vertex 0.779389 -0.001434 1.093816
vertex 0.793525 0.002395 1.089345
vertex 0.795276 0.007882 1.083078
endloop
endfacet
facet normal -0.166310 0.233327 0.958071
outer loop
vertex 0.766364 -0.026771 1.104025
vertex 0.779975 -0.014656 1.103437
vertex 0.765666 -0.012088 1.100328
endloop
endfacet
facet normal -0.070626 0.584857 0.808056
outer loop
vertex 0.765666 -0.012088 1.100328
vertex 0.779975 -0.014656 1.103437
vertex 0.779389 -0.001434 1.093816
endloop
endfacet
facet normal -0.136193 0.200086 0.970267
outer loop
vertex 0.766364 -0.026771 1.104025
vertex 0.781596 -0.029206 1.106665
vertex 0.779975 -0.014656 1.103437
endloop
endfacet
facet normal -0.081407 0.207213 0.974903
outer loop
vertex 0.781596 -0.029206 1.106665
vertex 0.793906 -0.017091 1.105118
vertex 0.779975 -0.014656 1.103437
endloop
endfacet
facet normal 0.005346 0.751405 0.659819
outer loop
vertex 0.779389 -0.001434 1.093816
vertex 0.795276 0.007882 1.083078
vertex 0.780446 0.008389 1.082621
endloop
endfacet
facet normal 0.012999 -0.763053 0.646205
outer loop
vertex 0.820586 -0.087771 1.081053
vertex 0.833223 -0.098101 1.068601
vertex 0.834135 -0.089482 1.078760
endloop
endfacet
facet normal 0.012918 -0.763069 0.646188
outer loop
vertex 0.833223 -0.098101 1.068601
vertex 0.845801 -0.098252 1.068172
vertex 0.845801 -0.097263 1.069340
endloop
endfacet
facet normal 0.045941 -0.745426 0.665003
outer loop
vertex 0.820586 -0.087771 1.081053
vertex 0.818606 -0.097666 1.070098
vertex 0.833223 -0.098101 1.068601
endloop
endfacet
facet normal 0.001994 -0.769809 0.638272
outer loop
vertex 0.845801 -0.090007 1.078091
vertex 0.834135 -0.089482 1.078760
vertex 0.845801 -0.097263 1.069340
endloop
endfacet
facet normal 0.011408 -0.680638 0.732531
outer loop
vertex 0.845801 -0.090007 1.078091
vertex 0.845801 -0.082733 1.084850
vertex 0.834135 -0.089482 1.078760
endloop
endfacet
facet normal 0.000220 -0.670175 0.742203
outer loop
vertex 0.845801 -0.082733 1.084850
vertex 0.840600 -0.081341 1.086108
vertex 0.835398 -0.080856 1.086548
endloop
endfacet
facet normal -0.008783 -0.669397 0.742853
outer loop
vertex 0.834135 -0.089482 1.078760
vertex 0.829927 -0.079381 1.087813
vertex 0.824457 -0.077905 1.089078
endloop
endfacet
facet normal 0.048520 -0.641659 0.765454
outer loop
vertex 0.824457 -0.077905 1.089078
vertex 0.820586 -0.087771 1.081053
vertex 0.834135 -0.089482 1.078760
endloop
endfacet
facet normal -0.381130 -0.550187 0.742990
outer loop
vertex 0.724856 -0.071971 1.069507
vertex 0.711454 -0.056198 1.074312
vertex 0.710703 -0.067987 1.065197
endloop
endfacet
facet normal -0.360917 -0.555944 0.748776
outer loop
vertex 0.696514 -0.048893 1.072535
vertex 0.710703 -0.067987 1.065197
vertex 0.711454 -0.056198 1.074312
endloop
endfacet
facet normal -0.324261 -0.539558 0.777002
outer loop
vertex 0.696514 -0.048893 1.072535
vertex 0.696474 -0.057881 1.066277
vertex 0.710703 -0.067987 1.065197
endloop
endfacet
facet normal -0.457384 -0.506765 0.730746
outer loop
vertex 0.696474 -0.057881 1.066277
vertex 0.696514 -0.048893 1.072535
vertex 0.688201 -0.044620 1.070295
endloop
endfacet
facet normal -0.882360 -0.438351 0.171144
outer loop
vertex 0.610704 -0.011703 1.017488
vertex 0.618991 -0.022782 1.031836
vertex 0.614753 -0.010957 1.040274
endloop
endfacet
facet normal -0.893899 -0.413796 0.172390
outer loop
vertex 0.610704 -0.011703 1.017488
vertex 0.614753 -0.010957 1.040274
vertex 0.609219 -0.003464 1.029564
endloop
endfacet
facet normal 0.028087 0.829399 0.557951
outer loop
vertex 0.738284 0.018334 1.072726
vertex 0.743624 0.026813 1.059853
vertex 0.729284 0.030019 1.055809
endloop
endfacet
facet normal 0.054906 0.868042 0.493446
outer loop
vertex 0.743624 0.026813 1.059853
vertex 0.734056 0.037305 1.042461
vertex 0.729284 0.030019 1.055809
endloop
endfacet
facet normal -0.280662 0.213766 0.935699
outer loop
vertex 0.709513 -0.016639 1.086381
vertex 0.709601 -0.001939 1.083049
vertex 0.697780 0.003102 1.078352
endloop
endfacet
facet normal -0.358578 0.160867 0.919535
outer loop
vertex 0.709513 -0.016639 1.086381
vertex 0.697780 0.003102 1.078352
vertex 0.695724 -0.009472 1.079750
endloop
endfacet
facet normal -0.441200 -0.018685 0.897214
outer loop
vertex 0.695724 -0.009472 1.079750
vertex 0.709599 -0.030718 1.086130
vertex 0.709513 -0.016639 1.086381
endloop
endfacet
facet normal 0.071228 0.438842 0.895737
outer loop
vertex 0.698495 0.029469 1.065378
vertex 0.680487 0.029005 1.067037
vertex 0.697780 0.003102 1.078352
endloop
endfacet
facet normal -0.360019 0.161041 0.918941
outer loop
vertex 0.680487 0.029005 1.067037
vertex 0.695724 -0.009472 1.079750
vertex 0.697780 0.003102 1.078352
endloop
endfacet
facet normal -0.163723 0.439135 0.883377
outer loop
vertex 0.709601 -0.001939 1.083049
vertex 0.698495 0.029469 1.065378
vertex 0.697780 0.003102 1.078352
endloop
endfacet
facet normal 0.334210 0.412368 0.847500
outer loop
vertex 0.680487 0.029005 1.067037
vertex 0.679980 0.013510 1.074776
vertex 0.695724 -0.009472 1.079750
endloop
endfacet
facet normal -0.213489 0.442104 0.871186
outer loop
vertex 0.680487 0.029005 1.067037
vertex 0.665829 0.016122 1.069983
vertex 0.679980 0.013510 1.074776
endloop
endfacet
facet normal -0.134650 0.659635 0.739426
outer loop
vertex 0.665256 0.032422 1.061215
vertex 0.680487 0.029005 1.067037
vertex 0.679301 0.040415 1.056643
endloop
endfacet
facet normal -0.227000 0.455155 0.860991
outer loop
vertex 0.680487 0.029005 1.067037
vertex 0.665256 0.032422 1.061215
vertex 0.665829 0.016122 1.069983
endloop
endfacet
facet normal 0.050408 0.675449 0.735682
outer loop
vertex 0.698495 0.029469 1.065378
vertex 0.679301 0.040415 1.056643
vertex 0.680487 0.029005 1.067037
endloop
endfacet
facet normal 0.164800 0.775414 0.609569
outer loop
vertex 0.679301 0.040415 1.056643
vertex 0.698495 0.029469 1.065378
vertex 0.692966 0.047104 1.044439
endloop
endfacet
facet normal 0.021138 0.866537 0.498664
outer loop
vertex 0.679301 0.040415 1.056643
vertex 0.692966 0.047104 1.044439
vertex 0.679514 0.052532 1.035577
endloop
endfacet
facet normal -0.124755 0.648692 0.750756
outer loop
vertex 0.665256 0.032422 1.061215
vertex 0.679301 0.040415 1.056643
vertex 0.665773 0.046892 1.048798
endloop
endfacet
facet normal 0.124121 0.859578 0.495701
outer loop
vertex 0.665773 0.046892 1.048798
vertex 0.679301 0.040415 1.056643
vertex 0.679514 0.052532 1.035577
endloop
endfacet
facet normal -0.192886 0.254756 0.947573
outer loop
vertex 0.651846 0.001607 1.071039
vertex 0.665777 -0.000246 1.074373
vertex 0.665829 0.016122 1.069983
endloop
endfacet
facet normal -0.268813 0.250311 0.930099
outer loop
vertex 0.665777 -0.000246 1.074373
vertex 0.679980 0.013510 1.074776
vertex 0.665829 0.016122 1.069983
endloop
endfacet
facet normal -0.162120 0.226069 0.960526
outer loop
vertex 0.651846 0.001607 1.071039
vertex 0.665829 0.016122 1.069983
vertex 0.652721 0.017033 1.067556
endloop
endfacet
facet normal -0.131016 0.457725 0.879388
outer loop
vertex 0.665829 0.016122 1.069983
vertex 0.649666 0.033515 1.058522
vertex 0.652721 0.017033 1.067556
endloop
endfacet
facet normal -0.118593 0.467144 0.876192
outer loop
vertex 0.665829 0.016122 1.069983
vertex 0.665256 0.032422 1.061215
vertex 0.649666 0.033515 1.058522
endloop
endfacet
facet normal -0.157549 0.452033 0.877978
outer loop
vertex 0.649666 0.033515 1.058522
vertex 0.640885 0.019570 1.064126
vertex 0.652721 0.017033 1.067556
endloop
endfacet
facet normal -0.225961 0.226723 0.947385
outer loop
vertex 0.651846 0.001607 1.071039
vertex 0.652721 0.017033 1.067556
vertex 0.640885 0.019570 1.064126
endloop
endfacet
facet normal -0.268821 0.500088 0.823193
outer loop
vertex 0.640885 0.019570 1.064126
vertex 0.649666 0.033515 1.058522
vertex 0.636240 0.039330 1.050605
endloop
endfacet
facet normal -0.257652 0.503661 0.824585
outer loop
vertex 0.640885 0.019570 1.064126
vertex 0.636240 0.039330 1.050605
vertex 0.626925 0.024917 1.056498
endloop
endfacet
facet normal -0.233443 0.221897 0.946713
outer loop
vertex 0.651846 0.001607 1.071039
vertex 0.640885 0.019570 1.064126
vertex 0.638902 0.004083 1.067267
endloop
endfacet
facet normal -0.396912 0.230985 0.888317
outer loop
vertex 0.638902 0.004083 1.067267
vertex 0.640885 0.019570 1.064126
vertex 0.626925 0.024917 1.056498
endloop
endfacet
facet normal -0.262352 0.401064 0.877678
outer loop
vertex 0.709601 -0.001939 1.083049
vertex 0.709715 0.012789 1.076353
vertex 0.698495 0.029469 1.065378
endloop
endfacet
facet normal -0.738190 -0.448458 0.503945
outer loop
vertex 0.614359 -0.000159 1.049306
vertex 0.614753 -0.010957 1.040274
vertex 0.625864 -0.018075 1.050215
endloop
endfacet
facet normal -0.317088 0.285232 0.904488
outer loop
vertex 0.638902 0.004083 1.067267
vertex 0.626925 0.024917 1.056498
vertex 0.626359 0.007519 1.061786
endloop
endfacet
facet normal -0.367443 -0.350101 0.861635
outer loop
vertex 0.682968 -0.025242 1.075937
vertex 0.667967 -0.030203 1.067524
vertex 0.688201 -0.044620 1.070295
endloop
endfacet
facet normal -0.176733 -0.336194 0.925062
outer loop
vertex 0.767364 -0.041762 1.102890
vertex 0.768385 -0.056230 1.097827
vertex 0.785043 -0.058231 1.100282
endloop
endfacet
facet normal -0.071060 -0.470343 0.879618
outer loop
vertex 0.799023 -0.071654 1.094234
vertex 0.785043 -0.058231 1.100282
vertex 0.783786 -0.071531 1.093069
endloop
endfacet
facet normal 0.012904 -0.763042 0.646220
outer loop
vertex 0.833223 -0.098101 1.068601
vertex 0.845801 -0.097263 1.069340
vertex 0.834135 -0.089482 1.078760
endloop
endfacet
facet normal 0.000270 -0.670151 0.742225
outer loop
vertex 0.845801 -0.082733 1.084850
vertex 0.835398 -0.080856 1.086548
vertex 0.834135 -0.089482 1.078760
endloop
endfacet
facet normal 0.733345 0.523363 -0.433931
outer loop
vertex 0.845801 -0.097263 1.069340
vertex 0.838818 -0.089780 1.066565
vertex 0.845801 -0.090007 1.078091
endloop
endfacet
facet normal 0.604864 0.202945 -0.770034
outer loop
vertex 0.802143 -0.021925 1.067164
vertex 0.789929 -0.030473 1.055317
vertex 0.799575 -0.018402 1.066075
endloop
endfacet
facet normal 0.433753 0.038037 -0.900228
outer loop
vertex 0.781598 0.006264 1.058456
vertex 0.761992 0.003416 1.048889
vertex 0.779030 0.009787 1.057367
endloop
endfacet
facet normal 0.725574 0.344841 -0.595505
outer loop
vertex 0.822689 -0.050114 1.075872
vertex 0.817866 -0.064363 1.061744
vertex 0.820121 -0.046590 1.074783
endloop
endfacet
facet normal 0.672656 0.278457 -0.685562
outer loop
vertex 0.812416 -0.036019 1.071518
vertex 0.803898 -0.047418 1.058530
vertex 0.809848 -0.032496 1.070429
endloop
endfacet
facet normal 0.339764 -0.042590 -0.939546
outer loop
vertex 0.771325 0.020358 1.054102
vertex 0.748024 0.020360 1.045675
vertex 0.768757 0.023882 1.053013
endloop
endfacet
facet normal 0.523888 0.121398 -0.843092
outer loop
vertex 0.791871 -0.007831 1.062810
vertex 0.775961 -0.013529 1.052103
vertex 0.789303 -0.004307 1.061721
endloop
endfacet
facet normal 0.746546 0.374186 -0.550140
outer loop
vertex 0.824850 -0.072835 1.063351
vertex 0.832962 -0.064208 1.080226
vertex 0.835530 -0.067732 1.081314
endloop
endfacet
facet normal 0.725559 0.344874 -0.595505
outer loop
vertex 0.817866 -0.064363 1.061744
vertex 0.827825 -0.057161 1.078049
vertex 0.830393 -0.060685 1.079137
endloop
endfacet
facet normal 0.479650 0.079672 -0.873835
outer loop
vertex 0.786734 -0.000783 1.060633
vertex 0.768977 -0.005057 1.050496
vertex 0.784166 0.002740 1.059544
endloop
endfacet
facet normal 0.293044 -0.080726 -0.952685
outer loop
vertex 0.766189 0.027405 1.051925
vertex 0.768757 0.023882 1.053013
vertex 0.741040 0.028833 1.044068
endloop
endfacet
facet normal 0.640540 0.241726 -0.728888
outer loop
vertex 0.807280 -0.028972 1.069341
vertex 0.796913 -0.038946 1.056924
vertex 0.804712 -0.025449 1.068252
endloop
endfacet
facet normal 0.700949 0.312931 -0.640894
outer loop
vertex 0.817553 -0.043067 1.073695
vertex 0.810882 -0.055890 1.060137
vertex 0.814984 -0.039543 1.072606
endloop
endfacet
facet normal 0.386888 -0.002872 -0.922122
outer loop
vertex 0.776462 0.013311 1.056279
vertex 0.755008 0.011888 1.047282
vertex 0.773893 0.016834 1.055190
endloop
endfacet
facet normal 0.565820 0.162671 -0.808323
outer loop
vertex 0.797007 -0.014878 1.064987
vertex 0.782945 -0.022001 1.053710
vertex 0.794439 -0.011354 1.063898
endloop
endfacet
facet normal 0.764171 0.400836 -0.505344
outer loop
vertex 0.831834 -0.081307 1.064958
vertex 0.838098 -0.071255 1.082403
vertex 0.840666 -0.074779 1.083491
endloop
endfacet
facet normal 0.777158 0.421755 -0.467063
outer loop
vertex 0.845801 -0.082733 1.084850
vertex 0.843234 -0.078303 1.084580
vertex 0.845801 -0.081826 1.085668
endloop
endfacet
facet normal 0.777434 0.426183 -0.462562
outer loop
vertex 0.840666 -0.074779 1.083491
vertex 0.845801 -0.090007 1.078091
vertex 0.838818 -0.089780 1.066565
endloop
endfacet
facet normal 0.780450 0.425574 -0.458023
outer loop
vertex 0.845801 -0.082733 1.084850
vertex 0.845801 -0.090007 1.078091
vertex 0.840666 -0.074779 1.083491
endloop
endfacet
facet normal 0.732120 0.519830 -0.440202
outer loop
vertex 0.838818 -0.089780 1.066565
vertex 0.845801 -0.097263 1.069340
vertex 0.845801 -0.098252 1.068172
endloop
endfacet
facet normal 0.530989 0.286455 -0.797493
outer loop
vertex 0.799575 -0.018402 1.066075
vertex 0.789929 -0.030473 1.055317
vertex 0.782945 -0.022001 1.053710
endloop
endfacet
facet normal 0.393886 0.152809 -0.906368
outer loop
vertex 0.779030 0.009787 1.057367
vertex 0.761992 0.003416 1.048889
vertex 0.755008 0.011888 1.047282
endloop
endfacet
facet normal 0.637978 0.401264 -0.657245
outer loop
vertex 0.820121 -0.046590 1.074783
vertex 0.817866 -0.064363 1.061744
vertex 0.810882 -0.055890 1.060137
endloop
endfacet
facet normal 0.588965 0.347106 -0.729821
outer loop
vertex 0.809848 -0.032496 1.070429
vertex 0.803898 -0.047418 1.058530
vertex 0.796913 -0.038946 1.056924
endloop
endfacet
facet normal 0.319666 0.084521 -0.943753
outer loop
vertex 0.768757 0.023882 1.053013
vertex 0.748024 0.020360 1.045675
vertex 0.741040 0.028833 1.044068
endloop
endfacet
facet normal 0.465244 0.220941 -0.857166
outer loop
vertex 0.789303 -0.004307 1.061721
vertex 0.775961 -0.013529 1.052103
vertex 0.768977 -0.005057 1.050496
endloop
endfacet
facet normal 0.694334 0.468827 -0.545987
outer loop
vertex 0.824850 -0.072835 1.063351
vertex 0.835530 -0.067732 1.081314
vertex 0.831834 -0.081307 1.064958
endloop
endfacet
facet normal 0.677760 0.448150 -0.582927
outer loop
vertex 0.817866 -0.064363 1.061744
vertex 0.830393 -0.060685 1.079137
vertex 0.824850 -0.072835 1.063351
endloop
endfacet
facet normal 0.430094 0.187056 -0.883192
outer loop
vertex 0.784166 0.002740 1.059544
vertex 0.768977 -0.005057 1.050496
vertex 0.761992 0.003416 1.048889
endloop
endfacet
facet normal 0.561053 0.317500 -0.764469
outer loop
vertex 0.804712 -0.025449 1.068252
vertex 0.796913 -0.038946 1.056924
vertex 0.789929 -0.030473 1.055317
endloop
endfacet
facet normal 0.614629 0.375066 -0.693942
outer loop
vertex 0.814984 -0.039543 1.072606
vertex 0.810882 -0.055890 1.060137
vertex 0.803898 -0.047418 1.058530
endloop
endfacet
facet normal 0.356958 0.118515 -0.926572
outer loop
vertex 0.773893 0.016834 1.055190
vertex 0.755008 0.011888 1.047282
vertex 0.748024 0.020360 1.045675
endloop
endfacet
facet normal 0.498959 0.254177 -0.828513
outer loop
vertex 0.794439 -0.011354 1.063898
vertex 0.782945 -0.022001 1.053710
vertex 0.775961 -0.013529 1.052103
endloop
endfacet
facet normal 0.708855 0.487691 -0.509591
outer loop
vertex 0.831834 -0.081307 1.064958
vertex 0.840666 -0.074779 1.083491
vertex 0.838818 -0.089780 1.066565
endloop
endfacet
facet normal 0.057064 -0.140435 -0.988444
outer loop
vertex 0.789929 -0.030473 1.055317
vertex 0.750317 -0.048177 1.055545
vertex 0.782945 -0.022001 1.053710
endloop
endfacet
facet normal 0.039727 -0.127851 -0.990997
outer loop
vertex 0.711763 -0.075707 1.057552
vertex 0.750317 -0.048177 1.055545
vertex 0.724674 -0.082825 1.058987
endloop
endfacet
facet normal 0.057088 -0.140431 -0.988443
outer loop
vertex 0.755008 0.011888 1.047282
vertex 0.750317 -0.048177 1.055545
vertex 0.748024 0.020360 1.045675
endloop
endfacet
facet normal 0.185223 -0.231953 -0.954929
outer loop
vertex 0.724674 -0.082825 1.058987
vertex 0.750317 -0.048177 1.055545
vertex 0.739209 -0.086657 1.062737
endloop
endfacet
facet normal 0.164305 -0.226860 -0.959968
outer loop
vertex 0.739209 -0.086657 1.062737
vertex 0.750317 -0.048177 1.055545
vertex 0.754158 -0.090170 1.066126
endloop
endfacet
facet normal 0.129140 -0.231172 -0.964304
outer loop
vertex 0.754158 -0.090170 1.066126
vertex 0.750317 -0.048177 1.055545
vertex 0.769700 -0.093055 1.068899
endloop
endfacet
facet normal 0.079869 -0.277373 -0.957437
outer loop
vertex 0.769700 -0.093055 1.068899
vertex 0.803898 -0.047418 1.058530
vertex 0.785932 -0.095199 1.070874
endloop
endfacet
facet normal 0.057386 -0.261890 -0.963390
outer loop
vertex 0.750317 -0.048177 1.055545
vertex 0.803898 -0.047418 1.058530
vertex 0.769700 -0.093055 1.068899
endloop
endfacet
facet normal 0.014546 -0.297693 -0.954551
outer loop
vertex 0.785932 -0.095199 1.070874
vertex 0.817866 -0.064363 1.061744
vertex 0.802780 -0.096476 1.071529
endloop
endfacet
facet normal -0.105111 -0.236065 -0.966036
outer loop
vertex 0.802780 -0.096476 1.071529
vertex 0.824850 -0.072835 1.063351
vertex 0.818606 -0.097666 1.070098
endloop
endfacet
facet normal -0.055589 -0.230101 -0.971578
outer loop
vertex 0.785932 -0.095199 1.070874
vertex 0.810882 -0.055890 1.060137
vertex 0.817866 -0.064363 1.061744
endloop
endfacet
facet normal -0.105873 -0.219171 -0.969925
outer loop
vertex 0.818606 -0.097666 1.070098
vertex 0.831834 -0.081307 1.064958
vertex 0.833223 -0.098101 1.068601
endloop
endfacet
facet normal -0.035924 -0.214696 -0.976020
outer loop
vertex 0.833223 -0.098101 1.068601
vertex 0.838818 -0.089780 1.066565
vertex 0.845801 -0.098252 1.068172
endloop
endfacet
facet normal -0.035868 -0.214706 -0.976020
outer loop
vertex 0.831834 -0.081307 1.064958
vertex 0.838818 -0.089780 1.066565
vertex 0.833223 -0.098101 1.068601
endloop
endfacet
facet normal -0.073735 -0.244190 -0.966920
outer loop
vertex 0.831834 -0.081307 1.064958
vertex 0.818606 -0.097666 1.070098
vertex 0.824850 -0.072835 1.063351
endloop
endfacet
facet normal -0.085657 -0.253371 -0.963570
outer loop
vertex 0.824850 -0.072835 1.063351
vertex 0.802780 -0.096476 1.071529
vertex 0.817866 -0.064363 1.061744
endloop
endfacet
facet normal -0.055596 -0.230096 -0.971578
outer loop
vertex 0.810882 -0.055890 1.060137
vertex 0.785932 -0.095199 1.070874
vertex 0.803898 -0.047418 1.058530
endloop
endfacet
facet normal 0.057060 -0.140424 -0.988446
outer loop
vertex 0.803898 -0.047418 1.058530
vertex 0.750317 -0.048177 1.055545
vertex 0.796913 -0.038946 1.056924
endloop
endfacet
facet normal 0.057072 -0.140436 -0.988443
outer loop
vertex 0.796913 -0.038946 1.056924
vertex 0.750317 -0.048177 1.055545
vertex 0.789929 -0.030473 1.055317
endloop
endfacet
facet normal 0.057056 -0.140437 -0.988444
outer loop
vertex 0.775961 -0.013529 1.052103
vertex 0.782945 -0.022001 1.053710
vertex 0.750317 -0.048177 1.055545
endloop
endfacet
facet normal 0.067809 -0.460980 -0.884816
outer loop
vertex 0.750317 -0.048177 1.055545
vertex 0.682723 -0.059894 1.056469
vertex 0.648216 0.018169 1.013155
endloop
endfacet
facet normal 0.589433 -0.407685 -0.697396
outer loop
vertex 0.648216 0.018169 1.013155
vertex 0.623689 -0.034362 1.023133
vertex 0.612780 -0.019692 1.005337
endloop
endfacet
facet normal 0.512881 -0.385192 -0.767189
outer loop
vertex 0.632213 -0.039735 1.031529
vertex 0.623689 -0.034362 1.023133
vertex 0.648216 0.018169 1.013155
endloop
endfacet
facet normal 0.356504 -0.370671 -0.857617
outer loop
vertex 0.632213 -0.039735 1.031529
vertex 0.648216 0.018169 1.013155
vertex 0.643255 -0.045258 1.038506
endloop
endfacet
facet normal 0.303532 -0.374013 -0.876346
outer loop
vertex 0.643255 -0.045258 1.038506
vertex 0.648216 0.018169 1.013155
vertex 0.655946 -0.050364 1.045081
endloop
endfacet
facet normal 0.256756 -0.384181 -0.886838
outer loop
vertex 0.655946 -0.050364 1.045081
vertex 0.648216 0.018169 1.013155
vertex 0.669192 -0.055182 1.051003
endloop
endfacet
facet normal 0.221909 -0.396251 -0.890922
outer loop
vertex 0.669192 -0.055182 1.051003
vertex 0.648216 0.018169 1.013155
vertex 0.682723 -0.059894 1.056469
endloop
endfacet
facet normal 0.051578 -0.370712 -0.927315
outer loop
vertex 0.682723 -0.059894 1.056469
vertex 0.750317 -0.048177 1.055545
vertex 0.694247 -0.065464 1.059337
endloop
endfacet
facet normal -0.079167 0.038271 -0.996126
outer loop
vertex 0.694247 -0.065464 1.059337
vertex 0.750317 -0.048177 1.055545
vertex 0.711763 -0.075707 1.057552
endloop
endfacet
facet normal 0.200286 0.014811 -0.979626
outer loop
vertex 0.705705 0.049441 1.025382
vertex 0.648216 0.018169 1.013155
vertex 0.683651 0.056030 1.020972
endloop
endfacet
facet normal 0.348824 -0.060725 -0.935219
outer loop
vertex 0.648216 0.018169 1.013155
vertex 0.719797 0.038607 1.038526
vertex 0.750317 -0.048177 1.055545
endloop
endfacet
facet normal 0.057064 -0.140437 -0.988444
outer loop
vertex 0.750317 -0.048177 1.055545
vertex 0.768977 -0.005057 1.050496
vertex 0.775961 -0.013529 1.052103
endloop
endfacet
facet normal 0.057040 -0.140431 -0.988446
outer loop
vertex 0.750317 -0.048177 1.055545
vertex 0.761992 0.003416 1.048889
vertex 0.768977 -0.005057 1.050496
endloop
endfacet
facet normal 0.160064 -0.135448 -0.977770
outer loop
vertex 0.719797 0.038607 1.038526
vertex 0.748024 0.020360 1.045675
vertex 0.750317 -0.048177 1.055545
endloop
endfacet
facet normal 0.408909 -0.438906 -0.800097
outer loop
vertex 0.719797 0.038607 1.038526
vertex 0.648216 0.018169 1.013155
vertex 0.705705 0.049441 1.025382
endloop
endfacet
facet normal 0.269151 0.039362 -0.962293
outer loop
vertex 0.741040 0.028833 1.044068
vertex 0.719797 0.038607 1.038526
vertex 0.734056 0.037305 1.042461
endloop
endfacet
facet normal 0.269165 0.039349 -0.962290
outer loop
vertex 0.748024 0.020360 1.045675
vertex 0.719797 0.038607 1.038526
vertex 0.741040 0.028833 1.044068
endloop
endfacet
facet normal 0.057079 -0.140433 -0.988443
outer loop
vertex 0.750317 -0.048177 1.055545
vertex 0.755008 0.011888 1.047282
vertex 0.761992 0.003416 1.048889
endloop
endfacet
facet normal 0.513529 0.111463 -0.850802
outer loop
vertex 0.781598 0.006264 1.058456
vertex 0.803785 0.015550 1.073063
vertex 0.784166 0.002740 1.059544
endloop
endfacet
facet normal -0.020103 0.833126 0.552717
outer loop
vertex 0.799056 0.020019 1.066155
vertex 0.803785 0.015550 1.073063
vertex 0.807990 0.019102 1.067862
endloop
endfacet
facet normal -0.020132 0.833134 0.552705
outer loop
vertex 0.799056 0.020019 1.066155
vertex 0.807990 0.019102 1.067862
vertex 0.803261 0.023571 1.060954
endloop
endfacet
facet normal -0.020125 0.833127 0.552715
outer loop
vertex 0.803261 0.023571 1.060954
vertex 0.807990 0.019102 1.067862
vertex 0.812196 0.022654 1.062661
endloop
endfacet
facet normal 0.925674 0.220237 0.307609
outer loop
vertex 0.799365 -0.038752 1.106454
vertex 0.809848 -0.032496 1.070429
vertex 0.797316 -0.031549 1.107464
endloop
endfacet
facet normal 0.915393 0.265060 0.302984
outer loop
vertex 0.797316 -0.031549 1.107464
vertex 0.809848 -0.032496 1.070429
vertex 0.795611 -0.024320 1.106291
endloop
endfacet
facet normal 0.955682 0.250494 0.154679
outer loop
vertex 0.795611 -0.024320 1.106291
vertex 0.792840 -0.010091 1.100365
vertex 0.793906 -0.017091 1.105118
endloop
endfacet
facet normal 0.962743 0.236080 0.131878
outer loop
vertex 0.792840 -0.010091 1.100365
vertex 0.799575 -0.018402 1.066075
vertex 0.791775 -0.003091 1.095612
endloop
endfacet
facet normal 0.976359 -0.084025 0.199157
outer loop
vertex 0.791775 -0.003091 1.095612
vertex 0.797007 -0.014878 1.064987
vertex 0.793525 0.002395 1.089345
endloop
endfacet
facet normal 0.964396 -0.261330 0.040580
outer loop
vertex 0.793525 0.002395 1.089345
vertex 0.791871 -0.007831 1.062810
vertex 0.795276 0.007882 1.083078
endloop
endfacet
facet normal 0.754816 -0.637857 0.152939
outer loop
vertex 0.795276 0.007882 1.083078
vertex 0.789303 -0.004307 1.061721
vertex 0.799530 0.011716 1.078071
endloop
endfacet
facet normal 0.817548 0.518401 -0.250750
outer loop
vertex 0.793525 0.002395 1.089345
vertex 0.794439 -0.011354 1.063898
vertex 0.791871 -0.007831 1.062810
endloop
endfacet
facet normal 0.683274 -0.729839 0.021743
outer loop
vertex 0.799530 0.011716 1.078071
vertex 0.786734 -0.000783 1.060633
vertex 0.803785 0.015550 1.073063
endloop
endfacet
facet normal 0.483771 -0.853880 -0.191977
outer loop
vertex 0.803785 0.015550 1.073063
vertex 0.781598 0.006264 1.058456
vertex 0.807990 0.019102 1.067862
endloop
endfacet
facet normal 0.513543 0.111432 -0.850798
outer loop
vertex 0.786734 -0.000783 1.060633
vertex 0.784166 0.002740 1.059544
vertex 0.803785 0.015550 1.073063
endloop
endfacet
facet normal 0.385930 -0.876828 -0.286760
outer loop
vertex 0.807990 0.019102 1.067862
vertex 0.779030 0.009787 1.057367
vertex 0.812196 0.022654 1.062661
endloop
endfacet
facet normal 0.778971 0.425415 -0.460680
outer loop
vertex 0.791871 -0.007831 1.062810
vertex 0.789303 -0.004307 1.061721
vertex 0.795276 0.007882 1.083078
endloop
endfacet
facet normal 0.817148 0.570837 -0.080089
outer loop
vertex 0.791775 -0.003091 1.095612
vertex 0.799575 -0.018402 1.066075
vertex 0.797007 -0.014878 1.064987
endloop
endfacet
facet normal 0.937522 0.272586 0.216217
outer loop
vertex 0.795611 -0.024320 1.106291
vertex 0.804712 -0.025449 1.068252
vertex 0.792840 -0.010091 1.100365
endloop
endfacet
facet normal 0.805858 0.591923 0.014824
outer loop
vertex 0.802143 -0.021925 1.067164
vertex 0.799575 -0.018402 1.066075
vertex 0.792840 -0.010091 1.100365
endloop
endfacet
facet normal 0.875221 0.153217 0.458817
outer loop
vertex 0.803892 -0.052628 1.102946
vertex 0.817553 -0.043067 1.073695
vertex 0.801415 -0.045955 1.105443
endloop
endfacet
facet normal 0.891991 0.196693 0.407019
outer loop
vertex 0.801415 -0.045955 1.105443
vertex 0.814984 -0.039543 1.072606
vertex 0.799365 -0.038752 1.106454
endloop
endfacet
facet normal 0.746230 0.175021 0.642268
outer loop
vertex 0.810321 -0.064950 1.097397
vertex 0.825257 -0.053637 1.076960
vertex 0.806370 -0.059300 1.100448
endloop
endfacet
facet normal 0.814437 0.087711 0.573584
outer loop
vertex 0.806370 -0.059300 1.100448
vertex 0.822689 -0.050114 1.075872
vertex 0.803892 -0.052628 1.102946
endloop
endfacet
facet normal 0.677218 0.617300 0.400395
outer loop
vertex 0.817553 -0.043067 1.073695
vertex 0.814984 -0.039543 1.072606
vertex 0.801415 -0.045955 1.105443
endloop
endfacet
facet normal 0.552023 0.182998 0.813500
outer loop
vertex 0.819364 -0.074252 1.091712
vertex 0.832962 -0.064208 1.080226
vertex 0.814272 -0.070599 1.094346
endloop
endfacet
facet normal 0.664311 0.062355 0.744851
outer loop
vertex 0.814272 -0.070599 1.094346
vertex 0.830393 -0.060685 1.079137
vertex 0.810321 -0.064950 1.097397
endloop
endfacet
facet normal 0.488050 0.562014 0.667793
outer loop
vertex 0.830393 -0.060685 1.079137
vertex 0.827825 -0.057161 1.078049
vertex 0.810321 -0.064950 1.097397
endloop
endfacet
facet normal 0.277492 0.228765 0.933094
outer loop
vertex 0.829927 -0.079381 1.087813
vertex 0.840666 -0.074779 1.083491
vertex 0.824457 -0.077905 1.089078
endloop
endfacet
facet normal 0.447577 -0.020692 0.894006
outer loop
vertex 0.824457 -0.077905 1.089078
vertex 0.838098 -0.071255 1.082403
vertex 0.819364 -0.074252 1.091712
endloop
endfacet
facet normal 0.324889 0.487211 0.810600
outer loop
vertex 0.835530 -0.067732 1.081314
vertex 0.832962 -0.064208 1.080226
vertex 0.819364 -0.074252 1.091712
endloop
endfacet
facet normal 0.233492 0.032471 0.971816
outer loop
vertex 0.835398 -0.080856 1.086548
vertex 0.843234 -0.078303 1.084580
vertex 0.829927 -0.079381 1.087813
endloop
endfacet
facet normal 0.324893 0.487192 0.810610
outer loop
vertex 0.819364 -0.074252 1.091712
vertex 0.838098 -0.071255 1.082403
vertex 0.835530 -0.067732 1.081314
endloop
endfacet
facet normal 0.393932 0.521019 0.757203
outer loop
vertex 0.832962 -0.064208 1.080226
vertex 0.830393 -0.060685 1.079137
vertex 0.814272 -0.070599 1.094346
endloop
endfacet
facet normal 0.805844 0.591942 0.014823
outer loop
vertex 0.792840 -0.010091 1.100365
vertex 0.804712 -0.025449 1.068252
vertex 0.802143 -0.021925 1.067164
endloop
endfacet
facet normal 0.771672 0.613865 0.166412
outer loop
vertex 0.809848 -0.032496 1.070429
vertex 0.807280 -0.028972 1.069341
vertex 0.795611 -0.024320 1.106291
endloop
endfacet
facet normal 0.817549 0.518400 -0.250749
outer loop
vertex 0.797007 -0.014878 1.064987
vertex 0.794439 -0.011354 1.063898
vertex 0.793525 0.002395 1.089345
endloop
endfacet
facet normal 0.189183 0.015225 -0.981824
outer loop
vertex 0.803261 0.023571 1.060954
vertex 0.773893 0.016834 1.055190
vertex 0.794327 0.024488 1.059246
endloop
endfacet
facet normal 0.242772 -0.160295 -0.956748
outer loop
vertex 0.794327 0.024488 1.059246
vertex 0.771325 0.020358 1.054102
vertex 0.786548 0.026005 1.057018
endloop
endfacet
facet normal 0.670133 0.275500 -0.689218
outer loop
vertex 0.799530 0.011716 1.078071
vertex 0.789303 -0.004307 1.061721
vertex 0.786734 -0.000783 1.060633
endloop
endfacet
facet normal 0.184270 -0.033739 -0.982296
outer loop
vertex 0.812196 0.022654 1.062661
vertex 0.776462 0.013311 1.056279
vertex 0.803261 0.023571 1.060954
endloop
endfacet
facet normal 0.237778 -0.124281 -0.963336
outer loop
vertex 0.794327 0.024488 1.059246
vertex 0.773893 0.016834 1.055190
vertex 0.771325 0.020358 1.054102
endloop
endfacet
facet normal 0.236879 -0.185926 -0.953583
outer loop
vertex 0.786548 0.026005 1.057018
vertex 0.768757 0.023882 1.053013
vertex 0.778769 0.027522 1.054790
endloop
endfacet
facet normal 0.232374 -0.128458 -0.964106
outer loop
vertex 0.771325 0.020358 1.054102
vertex 0.768757 0.023882 1.053013
vertex 0.786548 0.026005 1.057018
endloop
endfacet
facet normal 0.717380 0.620621 0.316538
outer loop
vertex 0.799365 -0.038752 1.106454
vertex 0.812416 -0.036019 1.071518
vertex 0.809848 -0.032496 1.070429
endloop
endfacet
facet normal 0.717365 0.620641 0.316532
outer loop
vertex 0.814984 -0.039543 1.072606
vertex 0.812416 -0.036019 1.071518
vertex 0.799365 -0.038752 1.106454
endloop
endfacet
facet normal 0.221228 -0.137076 -0.965540
outer loop
vertex 0.778769 0.027522 1.054790
vertex 0.766189 0.027405 1.051925
vertex 0.771195 0.029225 1.052813
endloop
endfacet
facet normal 0.221211 -0.137048 -0.965548
outer loop
vertex 0.771195 0.029225 1.052813
vertex 0.766189 0.027405 1.051925
vertex 0.763621 0.030929 1.050836
endloop
endfacet
facet normal 0.221194 -0.137045 -0.965553
outer loop
vertex 0.766189 0.027405 1.051925
vertex 0.778769 0.027522 1.054790
vertex 0.768757 0.023882 1.053013
endloop
endfacet
facet normal 0.220966 -0.137227 -0.965579
outer loop
vertex 0.773893 0.016834 1.055190
vertex 0.803261 0.023571 1.060954
vertex 0.776462 0.013311 1.056279
endloop
endfacet
facet normal 0.210619 -0.145129 -0.966735
outer loop
vertex 0.776462 0.013311 1.056279
vertex 0.812196 0.022654 1.062661
vertex 0.779030 0.009787 1.057367
endloop
endfacet
facet normal 0.112318 0.367102 0.923375
outer loop
vertex 0.840600 -0.081341 1.086108
vertex 0.843234 -0.078303 1.084580
vertex 0.835398 -0.080856 1.086548
endloop
endfacet
facet normal 0.555903 0.587007 0.588553
outer loop
vertex 0.806370 -0.059300 1.100448
vertex 0.825257 -0.053637 1.076960
vertex 0.822689 -0.050114 1.075872
endloop
endfacet
facet normal 0.112298 0.367065 0.923392
outer loop
vertex 0.843234 -0.078303 1.084580
vertex 0.840600 -0.081341 1.086108
vertex 0.845801 -0.081826 1.085668
endloop
endfacet
facet normal 0.218901 0.430127 0.875827
outer loop
vertex 0.838098 -0.071255 1.082403
vertex 0.824457 -0.077905 1.089078
vertex 0.840666 -0.074779 1.083491
endloop
endfacet
facet normal 0.183853 0.409980 0.893372
outer loop
vertex 0.840666 -0.074779 1.083491
vertex 0.829927 -0.079381 1.087813
vertex 0.843234 -0.078303 1.084580
endloop
endfacet
facet normal 0.350165 -0.033946 -0.936073
outer loop
vertex 0.779030 0.009787 1.057367
vertex 0.807990 0.019102 1.067862
vertex 0.781598 0.006264 1.058456
endloop
endfacet
facet normal 0.488091 0.561978 0.667794
outer loop
vertex 0.825257 -0.053637 1.076960
vertex 0.810321 -0.064950 1.097397
vertex 0.827825 -0.057161 1.078049
endloop
endfacet
facet normal 0.625162 0.607172 0.490423
outer loop
vertex 0.817553 -0.043067 1.073695
vertex 0.803892 -0.052628 1.102946
vertex 0.820121 -0.046590 1.074783
endloop
endfacet
facet normal 0.625172 0.607166 0.490417
outer loop
vertex 0.820121 -0.046590 1.074783
vertex 0.803892 -0.052628 1.102946
vertex 0.822689 -0.050114 1.075872
endloop
endfacet
facet normal 0.771680 0.613854 0.166415
outer loop
vertex 0.804712 -0.025449 1.068252
vertex 0.795611 -0.024320 1.106291
vertex 0.807280 -0.028972 1.069341
endloop
endfacet
facet normal -0.580204 0.361752 -0.729725
outer loop
vertex 0.619255 0.033717 1.043889
vertex 0.648216 0.018169 1.013155
vertex 0.611659 0.020721 1.043486
endloop
endfacet
facet normal -0.560324 0.424768 -0.711062
outer loop
vertex 0.611659 0.020721 1.043486
vertex 0.648216 0.018169 1.013155
vertex 0.608429 0.007583 1.038183
endloop
endfacet
facet normal -0.554215 0.487024 -0.675021
outer loop
vertex 0.608429 0.007583 1.038183
vertex 0.648216 0.018169 1.013155
vertex 0.609219 -0.003464 1.029564
endloop
endfacet
facet normal -0.571324 0.643561 -0.509331
outer loop
vertex 0.609219 -0.003464 1.029564
vertex 0.648216 0.018169 1.013155
vertex 0.610704 -0.011703 1.017488
endloop
endfacet
facet normal -0.568850 0.639243 -0.517473
outer loop
vertex 0.610704 -0.011703 1.017488
vertex 0.648216 0.018169 1.013155
vertex 0.612780 -0.019692 1.005337
endloop
endfacet
facet normal -0.466936 0.575638 -0.671276
outer loop
vertex 0.648216 0.018169 1.013155
vertex 0.666494 0.053818 1.031010
vertex 0.683651 0.056030 1.020972
endloop
endfacet
facet normal 0.265622 0.319412 -0.909627
outer loop
vertex 0.652218 0.056298 1.027712
vertex 0.666494 0.053818 1.031010
vertex 0.648216 0.018169 1.013155
endloop
endfacet
facet normal -0.601106 0.339343 -0.723545
outer loop
vertex 0.652218 0.056298 1.027712
vertex 0.648216 0.018169 1.013155
vertex 0.640708 0.052760 1.035615
endloop
endfacet
facet normal -0.586886 0.347476 -0.731318
outer loop
vertex 0.640708 0.052760 1.035615
vertex 0.648216 0.018169 1.013155
vertex 0.629316 0.044745 1.040949
endloop
endfacet
facet normal -0.590340 0.343893 -0.730230
outer loop
vertex 0.629316 0.044745 1.040949
vertex 0.648216 0.018169 1.013155
vertex 0.619255 0.033717 1.043889
endloop
endfacet
facet normal -0.027300 0.153841 0.987718
outer loop
vertex 0.781596 -0.029206 1.106665
vertex 0.797316 -0.031549 1.107464
vertex 0.795611 -0.024320 1.106291
endloop
endfacet
facet normal -0.026577 -0.146298 0.988883
outer loop
vertex 0.783608 -0.044004 1.105253
vertex 0.801415 -0.045955 1.105443
vertex 0.799365 -0.038752 1.106454
endloop
endfacet
facet normal -0.050082 -0.366342 0.929131
outer loop
vertex 0.783608 -0.044004 1.105253
vertex 0.806370 -0.059300 1.100448
vertex 0.803892 -0.052628 1.102946
endloop
endfacet
facet normal 0.025388 -0.461215 0.886925
outer loop
vertex 0.799023 -0.071654 1.094234
vertex 0.814272 -0.070599 1.094346
vertex 0.810321 -0.064950 1.097397
endloop
endfacet
facet normal -0.040473 -0.620893 0.782850
outer loop
vertex 0.820586 -0.087771 1.081053
vertex 0.824457 -0.077905 1.089078
vertex 0.819364 -0.074252 1.091712
endloop
endfacet
facet normal 0.008944 0.842380 0.538810
outer loop
vertex 0.787899 0.017145 1.070833
vertex 0.803785 0.015550 1.073063
vertex 0.799056 0.020019 1.066155
endloop
endfacet
facet normal 0.018322 0.855050 0.518222
outer loop
vertex 0.786548 0.026005 1.057018
vertex 0.778769 0.027522 1.054790
vertex 0.772732 0.019956 1.067487
endloop
endfacet
facet normal 0.052248 0.846753 0.529414
outer loop
vertex 0.772732 0.019956 1.067487
vertex 0.778769 0.027522 1.054790
vertex 0.771195 0.029225 1.052813
endloop
endfacet
facet normal 0.008155 0.790617 0.612256
outer loop
vertex 0.780446 0.008389 1.082621
vertex 0.795276 0.007882 1.083078
vertex 0.799530 0.011716 1.078071
endloop
endfacet
facet normal -0.001680 0.561568 0.827429
outer loop
vertex 0.779975 -0.014656 1.103437
vertex 0.793906 -0.017091 1.105118
vertex 0.792840 -0.010091 1.100365
endloop
endfacet
facet normal 0.004949 0.751714 0.659471
outer loop
vertex 0.779389 -0.001434 1.093816
vertex 0.791775 -0.003091 1.095612
vertex 0.793525 0.002395 1.089345
endloop
endfacet
facet normal 0.000311 -0.670189 0.742190
outer loop
vertex 0.845801 -0.082733 1.084850
vertex 0.845801 -0.081826 1.085668
vertex 0.840600 -0.081341 1.086108
endloop
endfacet
facet normal -0.008748 -0.669401 0.742850
outer loop
vertex 0.834135 -0.089482 1.078760
vertex 0.835398 -0.080856 1.086548
vertex 0.829927 -0.079381 1.087813
endloop
endfacet
facet normal 0.604840 0.202971 -0.770046
outer loop
vertex 0.802143 -0.021925 1.067164
vertex 0.804712 -0.025449 1.068252
vertex 0.789929 -0.030473 1.055317
endloop
endfacet
facet normal 0.433755 0.038037 -0.900228
outer loop
vertex 0.781598 0.006264 1.058456
vertex 0.784166 0.002740 1.059544
vertex 0.761992 0.003416 1.048889
endloop
endfacet
facet normal 0.725558 0.344864 -0.595512
outer loop
vertex 0.822689 -0.050114 1.075872
vertex 0.825257 -0.053637 1.076960
vertex 0.817866 -0.064363 1.061744
endloop
endfacet
facet normal 0.672633 0.278465 -0.685582
outer loop
vertex 0.812416 -0.036019 1.071518
vertex 0.814984 -0.039543 1.072606
vertex 0.803898 -0.047418 1.058530
endloop
endfacet
facet normal 0.339773 -0.042611 -0.939542
outer loop
vertex 0.771325 0.020358 1.054102
vertex 0.773893 0.016834 1.055190
vertex 0.748024 0.020360 1.045675
endloop
endfacet
facet normal 0.523898 0.121417 -0.843083
outer loop
vertex 0.791871 -0.007831 1.062810
vertex 0.794439 -0.011354 1.063898
vertex 0.775961 -0.013529 1.052103
endloop
endfacet
facet normal 0.746549 0.374166 -0.550150
outer loop
vertex 0.824850 -0.072835 1.063351
vertex 0.830393 -0.060685 1.079137
vertex 0.832962 -0.064208 1.080226
endloop
endfacet
facet normal 0.725550 0.344870 -0.595518
outer loop
vertex 0.817866 -0.064363 1.061744
vertex 0.825257 -0.053637 1.076960
vertex 0.827825 -0.057161 1.078049
endloop
endfacet
facet normal 0.479663 0.079650 -0.873830
outer loop
vertex 0.786734 -0.000783 1.060633
vertex 0.789303 -0.004307 1.061721
vertex 0.768977 -0.005057 1.050496
endloop
endfacet
facet normal 0.283923 0.052464 -0.957411
outer loop
vertex 0.734056 0.037305 1.042461
vertex 0.748812 0.034420 1.046679
vertex 0.741040 0.028833 1.044068
endloop
endfacet
facet normal 0.241647 -0.121280 -0.962756
outer loop
vertex 0.748812 0.034420 1.046679
vertex 0.763621 0.030929 1.050836
vertex 0.766189 0.027405 1.051925
endloop
endfacet
facet normal 0.299565 0.028969 -0.953636
outer loop
vertex 0.741040 0.028833 1.044068
vertex 0.748812 0.034420 1.046679
vertex 0.766189 0.027405 1.051925
endloop
endfacet
facet normal 0.640562 0.241661 -0.728890
outer loop
vertex 0.807280 -0.028972 1.069341
vertex 0.809848 -0.032496 1.070429
vertex 0.796913 -0.038946 1.056924
endloop
endfacet
facet normal 0.700971 0.312922 -0.640875
outer loop
vertex 0.817553 -0.043067 1.073695
vertex 0.820121 -0.046590 1.074783
vertex 0.810882 -0.055890 1.060137
endloop
endfacet
facet normal 0.386893 -0.002872 -0.922120
outer loop
vertex 0.776462 0.013311 1.056279
vertex 0.779030 0.009787 1.057367
vertex 0.755008 0.011888 1.047282
endloop
endfacet
facet normal 0.565827 0.162714 -0.808309
outer loop
vertex 0.797007 -0.014878 1.064987
vertex 0.799575 -0.018402 1.066075
vertex 0.782945 -0.022001 1.053710
endloop
endfacet
facet normal 0.764155 0.400844 -0.505363
outer loop
vertex 0.831834 -0.081307 1.064958
vertex 0.835530 -0.067732 1.081314
vertex 0.838098 -0.071255 1.082403
endloop
endfacet
facet normal 0.776456 0.421507 -0.468453
outer loop
vertex 0.845801 -0.082733 1.084850
vertex 0.840666 -0.074779 1.083491
vertex 0.843234 -0.078303 1.084580
endloop
endfacet
endsolid Exported from Blender-4.0.2
