solid Exported from Blender-4.0.2
facet normal 0.016871 0.006783 0.999835
outer loop
vertex 0.653533 0.494642 0.107767
vertex 0.686904 0.499643 0.107170
vertex 0.645687 0.505902 0.107823
endloop
endfacet
facet normal -0.787630 -0.550196 0.277351
outer loop
vertex 0.645687 0.505902 0.107823
vertex 0.651054 0.490205 0.091925
vertex 0.653533 0.494642 0.107767
endloop
endfacet
facet normal -0.469361 -0.828481 0.305482
outer loop
vertex 0.664401 0.484486 0.096922
vertex 0.653533 0.494642 0.107767
vertex 0.651054 0.490205 0.091925
endloop
endfacet
facet normal -0.514573 -0.819615 0.251882
outer loop
vertex 0.664401 0.484486 0.096922
vertex 0.665725 0.487006 0.107827
vertex 0.653533 0.494642 0.107767
endloop
endfacet
facet normal 0.013478 0.029374 0.999478
outer loop
vertex 0.665725 0.487006 0.107827
vertex 0.686904 0.499643 0.107170
vertex 0.653533 0.494642 0.107767
endloop
endfacet
facet normal 0.046259 -0.025608 0.998601
outer loop
vertex 0.665725 0.487006 0.107827
vertex 0.678194 0.489135 0.107304
vertex 0.686904 0.499643 0.107170
endloop
endfacet
facet normal 0.763116 -0.630746 0.140761
outer loop
vertex 0.677253 0.485407 0.095701
vertex 0.686904 0.499643 0.107170
vertex 0.678194 0.489135 0.107304
endloop
endfacet
facet normal 0.008186 -0.050287 0.998701
outer loop
vertex 0.694361 0.511065 0.107684
vertex 0.645687 0.505902 0.107823
vertex 0.686904 0.499643 0.107170
endloop
endfacet
facet normal 0.821038 -0.543837 0.173606
outer loop
vertex 0.687134 0.496017 0.094723
vertex 0.694361 0.511065 0.107684
vertex 0.686904 0.499643 0.107170
endloop
endfacet
facet normal 0.725637 -0.656900 0.204776
outer loop
vertex 0.677253 0.485407 0.095701
vertex 0.687134 0.496017 0.094723
vertex 0.686904 0.499643 0.107170
endloop
endfacet
facet normal 0.101716 -0.921062 0.375897
outer loop
vertex 0.664401 0.484486 0.096922
vertex 0.676428 0.480059 0.082820
vertex 0.677253 0.485407 0.095701
endloop
endfacet
facet normal 0.723323 -0.652910 0.224750
outer loop
vertex 0.687134 0.496017 0.094723
vertex 0.677253 0.485407 0.095701
vertex 0.676428 0.480059 0.082820
endloop
endfacet
facet normal 0.096322 -0.949888 0.297381
outer loop
vertex 0.664401 0.484486 0.096922
vertex 0.677253 0.485407 0.095701
vertex 0.678194 0.489135 0.107304
endloop
endfacet
facet normal 0.268772 -0.909020 0.318503
outer loop
vertex 0.676428 0.480059 0.082820
vertex 0.669152 0.473874 0.071308
vertex 0.681189 0.476837 0.069607
endloop
endfacet
facet normal 0.683590 -0.613199 0.395843
outer loop
vertex 0.690646 0.486727 0.068596
vertex 0.676428 0.480059 0.082820
vertex 0.681189 0.476837 0.069607
endloop
endfacet
facet normal 0.042921 -0.891154 0.451667
outer loop
vertex 0.669152 0.473874 0.071308
vertex 0.676428 0.480059 0.082820
vertex 0.661481 0.480928 0.085955
endloop
endfacet
facet normal 0.647529 -0.684394 0.335128
outer loop
vertex 0.687134 0.496017 0.094723
vertex 0.676428 0.480059 0.082820
vertex 0.688650 0.491182 0.081920
endloop
endfacet
facet normal 0.649152 -0.686831 0.326902
outer loop
vertex 0.690646 0.486727 0.068596
vertex 0.688650 0.491182 0.081920
vertex 0.676428 0.480059 0.082820
endloop
endfacet
facet normal 0.008931 -0.951852 0.306427
outer loop
vertex 0.664401 0.484486 0.096922
vertex 0.661481 0.480928 0.085955
vertex 0.676428 0.480059 0.082820
endloop
endfacet
facet normal 0.936382 -0.344830 0.065430
outer loop
vertex 0.690646 0.486727 0.068596
vertex 0.690325 0.483241 0.054817
vertex 0.695367 0.496651 0.053335
endloop
endfacet
facet normal 0.721950 -0.674624 0.153853
outer loop
vertex 0.690325 0.483241 0.054817
vertex 0.690646 0.486727 0.068596
vertex 0.681189 0.476837 0.069607
endloop
endfacet
facet normal 0.926794 -0.372962 0.044182
outer loop
vertex 0.690646 0.486727 0.068596
vertex 0.695367 0.496651 0.053335
vertex 0.696179 0.500255 0.066725
endloop
endfacet
facet normal 0.908057 -0.337010 0.248709
outer loop
vertex 0.688650 0.491182 0.081920
vertex 0.690646 0.486727 0.068596
vertex 0.696179 0.500255 0.066725
endloop
endfacet
facet normal 0.936498 -0.350276 0.016687
outer loop
vertex 0.690325 0.483241 0.054817
vertex 0.694323 0.493228 0.040078
vertex 0.695367 0.496651 0.053335
endloop
endfacet
facet normal 0.983400 -0.181124 -0.010884
outer loop
vertex 0.698785 0.514543 0.064409
vertex 0.696179 0.500255 0.066725
vertex 0.695367 0.496651 0.053335
endloop
endfacet
facet normal 0.986845 -0.147368 -0.066480
outer loop
vertex 0.698785 0.514543 0.064409
vertex 0.695367 0.496651 0.053335
vertex 0.697370 0.510776 0.051755
endloop
endfacet
facet normal 0.988644 -0.144719 -0.040493
outer loop
vertex 0.697370 0.510776 0.051755
vertex 0.695367 0.496651 0.053335
vertex 0.694323 0.493228 0.040078
endloop
endfacet
facet normal 0.994991 -0.044060 -0.089724
outer loop
vertex 0.697370 0.510776 0.051755
vertex 0.696130 0.507641 0.039544
vertex 0.696723 0.522172 0.038985
endloop
endfacet
facet normal 0.994205 -0.050121 -0.095098
outer loop
vertex 0.697370 0.510776 0.051755
vertex 0.696723 0.522172 0.038985
vertex 0.697864 0.524316 0.049783
endloop
endfacet
facet normal 0.989622 -0.126594 -0.067990
outer loop
vertex 0.697370 0.510776 0.051755
vertex 0.694323 0.493228 0.040078
vertex 0.696130 0.507641 0.039544
endloop
endfacet
facet normal 0.994092 -0.050283 -0.096195
outer loop
vertex 0.698785 0.514543 0.064409
vertex 0.697370 0.510776 0.051755
vertex 0.697864 0.524316 0.049783
endloop
endfacet
facet normal 0.994553 -0.035256 -0.098088
outer loop
vertex 0.697864 0.524316 0.049783
vertex 0.696723 0.522172 0.038985
vertex 0.697185 0.536704 0.038446
endloop
endfacet
facet normal 0.998918 0.014239 -0.044266
outer loop
vertex 0.697864 0.524316 0.049783
vertex 0.697185 0.536704 0.038446
vertex 0.697756 0.539455 0.052215
endloop
endfacet
facet normal 0.995706 -0.034641 -0.085845
outer loop
vertex 0.698785 0.514543 0.064409
vertex 0.697864 0.524316 0.049783
vertex 0.698984 0.528153 0.061226
endloop
endfacet
facet normal 0.994144 0.024013 -0.105360
outer loop
vertex 0.697864 0.524316 0.049783
vertex 0.697756 0.539455 0.052215
vertex 0.698984 0.528153 0.061226
endloop
endfacet
facet normal 0.991974 0.124519 0.021988
outer loop
vertex 0.696521 0.546864 0.065970
vertex 0.697756 0.539455 0.052215
vertex 0.695926 0.554710 0.048380
endloop
endfacet
facet normal 0.985517 0.169551 -0.002841
outer loop
vertex 0.698711 0.534264 0.073744
vertex 0.697756 0.539455 0.052215
vertex 0.696521 0.546864 0.065970
endloop
endfacet
facet normal 0.991088 0.128078 0.036602
outer loop
vertex 0.697756 0.539455 0.052215
vertex 0.696768 0.551223 0.037783
vertex 0.695926 0.554710 0.048380
endloop
endfacet
facet normal 0.998556 0.026551 -0.046711
outer loop
vertex 0.697756 0.539455 0.052215
vertex 0.697185 0.536704 0.038446
vertex 0.696768 0.551223 0.037783
endloop
endfacet
facet normal 0.995660 0.090334 -0.022386
outer loop
vertex 0.698711 0.534264 0.073744
vertex 0.698984 0.528153 0.061226
vertex 0.697756 0.539455 0.052215
endloop
endfacet
facet normal 0.982080 0.186675 0.025912
outer loop
vertex 0.696795 0.541960 0.090916
vertex 0.698711 0.534264 0.073744
vertex 0.696521 0.546864 0.065970
endloop
endfacet
facet normal 0.999044 -0.015588 0.040842
outer loop
vertex 0.698785 0.514543 0.064409
vertex 0.698711 0.534264 0.073744
vertex 0.698318 0.519434 0.077699
endloop
endfacet
facet normal 0.999626 -0.008534 0.025970
outer loop
vertex 0.698785 0.514543 0.064409
vertex 0.698984 0.528153 0.061226
vertex 0.698711 0.534264 0.073744
endloop
endfacet
facet normal 0.999619 -0.027390 -0.003359
outer loop
vertex 0.698711 0.534264 0.073744
vertex 0.698492 0.523960 0.092572
vertex 0.698318 0.519434 0.077699
endloop
endfacet
facet normal 0.992821 0.099684 0.066102
outer loop
vertex 0.698711 0.534264 0.073744
vertex 0.696795 0.541960 0.090916
vertex 0.698492 0.523960 0.092572
endloop
endfacet
facet normal 0.894778 0.428848 0.124344
outer loop
vertex 0.687914 0.554547 0.111412
vertex 0.696795 0.541960 0.090916
vertex 0.687834 0.559543 0.094757
endloop
endfacet
facet normal 0.894011 0.423968 0.144896
outer loop
vertex 0.687834 0.559543 0.094757
vertex 0.696795 0.541960 0.090916
vertex 0.693071 0.553881 0.079012
endloop
endfacet
facet normal 0.934701 0.350564 0.058648
outer loop
vertex 0.696795 0.541960 0.090916
vertex 0.696521 0.546864 0.065970
vertex 0.693071 0.553881 0.079012
endloop
endfacet
facet normal 0.994758 0.089172 -0.050045
outer loop
vertex 0.696795 0.541960 0.090916
vertex 0.699103 0.526007 0.108366
vertex 0.698492 0.523960 0.092572
endloop
endfacet
facet normal 0.982198 0.183919 0.038231
outer loop
vertex 0.696795 0.541960 0.090916
vertex 0.696194 0.541325 0.109413
vertex 0.699103 0.526007 0.108366
endloop
endfacet
facet normal 0.849735 0.525230 0.045640
outer loop
vertex 0.687914 0.554547 0.111412
vertex 0.696194 0.541325 0.109413
vertex 0.696795 0.541960 0.090916
endloop
endfacet
facet normal 0.726065 0.659585 0.194364
outer loop
vertex 0.676235 0.570284 0.101636
vertex 0.687914 0.554547 0.111412
vertex 0.687834 0.559543 0.094757
endloop
endfacet
facet normal 0.678560 0.678461 0.281507
outer loop
vertex 0.676235 0.570284 0.101636
vertex 0.677579 0.564050 0.113421
vertex 0.687914 0.554547 0.111412
endloop
endfacet
facet normal -0.005717 -0.152984 0.988212
outer loop
vertex 0.696194 0.541325 0.109413
vertex 0.687914 0.554547 0.111412
vertex 0.643402 0.546043 0.109838
endloop
endfacet
facet normal -0.003659 -0.210643 0.977556
outer loop
vertex 0.663946 0.565048 0.113585
vertex 0.687914 0.554547 0.111412
vertex 0.677579 0.564050 0.113421
endloop
endfacet
facet normal 0.005116 -0.207823 0.978153
outer loop
vertex 0.643402 0.546043 0.109838
vertex 0.687914 0.554547 0.111412
vertex 0.652217 0.557170 0.112156
endloop
endfacet
facet normal 0.006652 -0.188055 0.982136
outer loop
vertex 0.652217 0.557170 0.112156
vertex 0.687914 0.554547 0.111412
vertex 0.663946 0.565048 0.113585
endloop
endfacet
facet normal 0.072161 0.924020 0.375473
outer loop
vertex 0.677579 0.564050 0.113421
vertex 0.662145 0.569832 0.102158
vertex 0.663946 0.565048 0.113585
endloop
endfacet
facet normal -0.621779 0.682696 0.383819
outer loop
vertex 0.650827 0.561098 0.099358
vertex 0.663946 0.565048 0.113585
vertex 0.662145 0.569832 0.102158
endloop
endfacet
facet normal -0.556958 0.775089 0.298386
outer loop
vertex 0.650827 0.561098 0.099358
vertex 0.652217 0.557170 0.112156
vertex 0.663946 0.565048 0.113585
endloop
endfacet
facet normal -0.706807 0.655581 0.265779
outer loop
vertex 0.650827 0.561098 0.099358
vertex 0.660954 0.575659 0.090373
vertex 0.649296 0.565585 0.084219
endloop
endfacet
facet normal -0.620253 0.676438 0.397136
outer loop
vertex 0.650827 0.561098 0.099358
vertex 0.662145 0.569832 0.102158
vertex 0.660954 0.575659 0.090373
endloop
endfacet
facet normal -0.823893 0.540247 0.171268
outer loop
vertex 0.641802 0.552289 0.083730
vertex 0.642581 0.549288 0.096944
vertex 0.650827 0.561098 0.099358
endloop
endfacet
facet normal -0.817326 0.519905 0.248347
outer loop
vertex 0.642581 0.549288 0.096944
vertex 0.652217 0.557170 0.112156
vertex 0.650827 0.561098 0.099358
endloop
endfacet
facet normal -0.852137 0.471975 0.226058
outer loop
vertex 0.641802 0.552289 0.083730
vertex 0.650827 0.561098 0.099358
vertex 0.649296 0.565585 0.084219
endloop
endfacet
facet normal -0.708130 0.545891 0.447833
outer loop
vertex 0.660954 0.575659 0.090373
vertex 0.649087 0.574209 0.073376
vertex 0.649296 0.565585 0.084219
endloop
endfacet
facet normal -0.790501 0.471820 0.390504
outer loop
vertex 0.639263 0.566944 0.062267
vertex 0.649296 0.565585 0.084219
vertex 0.649087 0.574209 0.073376
endloop
endfacet
facet normal -0.857353 0.476036 0.195794
outer loop
vertex 0.641802 0.552289 0.083730
vertex 0.649296 0.565585 0.084219
vertex 0.641821 0.557477 0.071200
endloop
endfacet
facet normal -0.895165 0.153120 0.418610
outer loop
vertex 0.639263 0.566944 0.062267
vertex 0.641821 0.557477 0.071200
vertex 0.649296 0.565585 0.084219
endloop
endfacet
facet normal -0.886237 0.041583 0.461361
outer loop
vertex 0.639263 0.566944 0.062267
vertex 0.630614 0.570618 0.045322
vertex 0.629400 0.555839 0.044322
endloop
endfacet
facet normal -0.886435 0.039998 0.461121
outer loop
vertex 0.639263 0.566944 0.062267
vertex 0.636598 0.576906 0.056280
vertex 0.630614 0.570618 0.045322
endloop
endfacet
facet normal -0.904199 0.169726 0.391940
outer loop
vertex 0.639263 0.566944 0.062267
vertex 0.629400 0.555839 0.044322
vertex 0.634689 0.544380 0.061486
endloop
endfacet
facet normal -0.787100 0.149140 0.598524
outer loop
vertex 0.636598 0.576906 0.056280
vertex 0.639263 0.566944 0.062267
vertex 0.649087 0.574209 0.073376
endloop
endfacet
facet normal -0.887946 0.165137 0.429281
outer loop
vertex 0.639263 0.566944 0.062267
vertex 0.634689 0.544380 0.061486
vertex 0.641821 0.557477 0.071200
endloop
endfacet
facet normal -0.986863 0.056688 0.151287
outer loop
vertex 0.634689 0.544380 0.061486
vertex 0.635937 0.524642 0.077023
vertex 0.637131 0.539260 0.079334
endloop
endfacet
facet normal -0.973744 0.099572 0.204715
outer loop
vertex 0.634689 0.544380 0.061486
vertex 0.632720 0.526735 0.060703
vertex 0.635937 0.524642 0.077023
endloop
endfacet
facet normal -0.942686 0.090949 0.321046
outer loop
vertex 0.632720 0.526735 0.060703
vertex 0.634689 0.544380 0.061486
vertex 0.628393 0.540910 0.043982
endloop
endfacet
facet normal -0.942989 0.056129 0.328056
outer loop
vertex 0.629400 0.555839 0.044322
vertex 0.628393 0.540910 0.043982
vertex 0.634689 0.544380 0.061486
endloop
endfacet
facet normal -0.915985 0.334644 0.221325
outer loop
vertex 0.637131 0.539260 0.079334
vertex 0.641821 0.557477 0.071200
vertex 0.634689 0.544380 0.061486
endloop
endfacet
facet normal -0.995857 0.072708 0.054609
outer loop
vertex 0.637695 0.535772 0.094263
vertex 0.637131 0.539260 0.079334
vertex 0.635937 0.524642 0.077023
endloop
endfacet
facet normal -0.946854 0.303462 0.106669
outer loop
vertex 0.637695 0.535772 0.094263
vertex 0.641802 0.552289 0.083730
vertex 0.637131 0.539260 0.079334
endloop
endfacet
facet normal -0.946665 0.298215 0.122036
outer loop
vertex 0.637131 0.539260 0.079334
vertex 0.641802 0.552289 0.083730
vertex 0.641821 0.557477 0.071200
endloop
endfacet
facet normal -0.990342 -0.051701 0.128647
outer loop
vertex 0.637695 0.535772 0.094263
vertex 0.638230 0.520857 0.092388
vertex 0.640352 0.518547 0.107795
endloop
endfacet
facet normal -0.990611 -0.134774 0.022942
outer loop
vertex 0.637695 0.535772 0.094263
vertex 0.640352 0.518547 0.107795
vertex 0.638436 0.532693 0.108170
endloop
endfacet
facet normal -0.989491 -0.052429 0.134751
outer loop
vertex 0.637695 0.535772 0.094263
vertex 0.635937 0.524642 0.077023
vertex 0.638230 0.520857 0.092388
endloop
endfacet
facet normal -0.940614 0.314846 0.126957
outer loop
vertex 0.637695 0.535772 0.094263
vertex 0.642581 0.549288 0.096944
vertex 0.641802 0.552289 0.083730
endloop
endfacet
facet normal -0.941007 0.316329 0.120177
outer loop
vertex 0.642581 0.549288 0.096944
vertex 0.637695 0.535772 0.094263
vertex 0.638436 0.532693 0.108170
endloop
endfacet
facet normal -0.190179 -0.051745 0.980385
outer loop
vertex 0.640352 0.518547 0.107795
vertex 0.643402 0.546043 0.109838
vertex 0.638436 0.532693 0.108170
endloop
endfacet
facet normal -0.933390 0.329428 0.142336
outer loop
vertex 0.642581 0.549288 0.096944
vertex 0.638436 0.532693 0.108170
vertex 0.643402 0.546043 0.109838
endloop
endfacet
facet normal -0.965605 -0.241318 0.096812
outer loop
vertex 0.641945 0.505083 0.090122
vertex 0.640352 0.518547 0.107795
vertex 0.638230 0.520857 0.092388
endloop
endfacet
facet normal -0.987604 -0.096849 0.123525
outer loop
vertex 0.637006 0.511521 0.075282
vertex 0.638230 0.520857 0.092388
vertex 0.635937 0.524642 0.077023
endloop
endfacet
facet normal -0.945642 -0.252208 0.205309
outer loop
vertex 0.637006 0.511521 0.075282
vertex 0.641945 0.505083 0.090122
vertex 0.638230 0.520857 0.092388
endloop
endfacet
facet normal -0.901341 -0.379830 0.208118
outer loop
vertex 0.641945 0.505083 0.090122
vertex 0.645687 0.505902 0.107823
vertex 0.640352 0.518547 0.107795
endloop
endfacet
facet normal -0.846021 -0.493530 0.201686
outer loop
vertex 0.645687 0.505902 0.107823
vertex 0.641945 0.505083 0.090122
vertex 0.651054 0.490205 0.091925
endloop
endfacet
facet normal -0.947024 -0.243310 0.209633
outer loop
vertex 0.637006 0.511521 0.075282
vertex 0.640211 0.498727 0.074912
vertex 0.641945 0.505083 0.090122
endloop
endfacet
facet normal -0.856503 -0.434183 0.279084
outer loop
vertex 0.641945 0.505083 0.090122
vertex 0.640211 0.498727 0.074912
vertex 0.646541 0.486782 0.075755
endloop
endfacet
facet normal -0.822874 -0.464069 0.327899
outer loop
vertex 0.641945 0.505083 0.090122
vertex 0.646541 0.486782 0.075755
vertex 0.651054 0.490205 0.091925
endloop
endfacet
facet normal -0.857575 -0.435094 0.274332
outer loop
vertex 0.642598 0.484799 0.060284
vertex 0.646541 0.486782 0.075755
vertex 0.640211 0.498727 0.074912
endloop
endfacet
facet normal -0.629577 -0.734056 0.254549
outer loop
vertex 0.646541 0.486782 0.075755
vertex 0.642598 0.484799 0.060284
vertex 0.653242 0.475420 0.059563
endloop
endfacet
facet normal -0.567602 -0.703573 0.427566
outer loop
vertex 0.661481 0.480928 0.085955
vertex 0.646541 0.486782 0.075755
vertex 0.656798 0.477645 0.074336
endloop
endfacet
facet normal -0.524445 -0.791464 0.313915
outer loop
vertex 0.661481 0.480928 0.085955
vertex 0.651054 0.490205 0.091925
vertex 0.646541 0.486782 0.075755
endloop
endfacet
facet normal -0.621756 -0.738483 0.260887
outer loop
vertex 0.646541 0.486782 0.075755
vertex 0.653242 0.475420 0.059563
vertex 0.656798 0.477645 0.074336
endloop
endfacet
facet normal -0.224114 -0.940192 0.256538
outer loop
vertex 0.666531 0.470830 0.057862
vertex 0.669152 0.473874 0.071308
vertex 0.656798 0.477645 0.074336
endloop
endfacet
facet normal -0.197517 -0.919648 0.339461
outer loop
vertex 0.669152 0.473874 0.071308
vertex 0.661481 0.480928 0.085955
vertex 0.656798 0.477645 0.074336
endloop
endfacet
facet normal -0.294825 -0.931892 0.211318
outer loop
vertex 0.666531 0.470830 0.057862
vertex 0.656798 0.477645 0.074336
vertex 0.653242 0.475420 0.059563
endloop
endfacet
facet normal 0.282353 -0.946022 0.159120
outer loop
vertex 0.669152 0.473874 0.071308
vertex 0.666531 0.470830 0.057862
vertex 0.679498 0.474405 0.056107
endloop
endfacet
facet normal -0.294648 -0.931731 0.212275
outer loop
vertex 0.664483 0.468055 0.042839
vertex 0.666531 0.470830 0.057862
vertex 0.653242 0.475420 0.059563
endloop
endfacet
facet normal 0.280824 -0.949341 0.141029
outer loop
vertex 0.666531 0.470830 0.057862
vertex 0.677359 0.471645 0.041787
vertex 0.679498 0.474405 0.056107
endloop
endfacet
facet normal 0.276444 -0.951072 0.137991
outer loop
vertex 0.666531 0.470830 0.057862
vertex 0.664483 0.468055 0.042839
vertex 0.677359 0.471645 0.041787
endloop
endfacet
facet normal 0.269727 -0.962809 0.015703
outer loop
vertex 0.677081 0.471315 0.026328
vertex 0.677359 0.471645 0.041787
vertex 0.664483 0.468055 0.042839
endloop
endfacet
facet normal -0.343931 -0.922526 0.175092
outer loop
vertex 0.664483 0.468055 0.042839
vertex 0.653242 0.475420 0.059563
vertex 0.649841 0.473673 0.043678
endloop
endfacet
facet normal -0.358822 -0.933323 -0.012464
outer loop
vertex 0.649841 0.473673 0.043678
vertex 0.662897 0.468872 0.027326
vertex 0.664483 0.468055 0.042839
endloop
endfacet
facet normal 0.164642 -0.983961 -0.068657
outer loop
vertex 0.677081 0.471315 0.026328
vertex 0.664483 0.468055 0.042839
vertex 0.662897 0.468872 0.027326
endloop
endfacet
facet normal 0.172325 -0.984234 0.039856
outer loop
vertex 0.676218 0.470536 0.010821
vertex 0.677081 0.471315 0.026328
vertex 0.662897 0.468872 0.027326
endloop
endfacet
facet normal 0.155434 -0.987507 0.025891
outer loop
vertex 0.676218 0.470536 0.010821
vertex 0.662897 0.468872 0.027326
vertex 0.661687 0.468275 0.011820
endloop
endfacet
facet normal -0.239098 -0.969380 0.055981
outer loop
vertex 0.648519 0.472485 0.028480
vertex 0.661687 0.468275 0.011820
vertex 0.662897 0.468872 0.027326
endloop
endfacet
facet normal -0.235321 -0.967158 0.096065
outer loop
vertex 0.649841 0.473673 0.043678
vertex 0.648519 0.472485 0.028480
vertex 0.662897 0.468872 0.027326
endloop
endfacet
facet normal -0.199739 -0.975824 0.088719
outer loop
vertex 0.648519 0.472485 0.028480
vertex 0.647314 0.471324 0.012997
vertex 0.661687 0.468275 0.011820
endloop
endfacet
facet normal -0.552859 -0.826631 0.105012
outer loop
vertex 0.647314 0.471324 0.012997
vertex 0.648519 0.472485 0.028480
vertex 0.636430 0.480672 0.029281
endloop
endfacet
facet normal -0.541034 -0.818002 0.195334
outer loop
vertex 0.648519 0.472485 0.028480
vertex 0.638547 0.482837 0.044211
vertex 0.636430 0.480672 0.029281
endloop
endfacet
facet normal -0.622656 -0.774048 0.114669
outer loop
vertex 0.648519 0.472485 0.028480
vertex 0.649841 0.473673 0.043678
vertex 0.638547 0.482837 0.044211
endloop
endfacet
facet normal -0.879954 -0.400038 0.256223
outer loop
vertex 0.638547 0.482837 0.044211
vertex 0.636397 0.497655 0.059962
vertex 0.632222 0.496362 0.043605
endloop
endfacet
facet normal -0.869959 -0.412862 0.269661
outer loop
vertex 0.638547 0.482837 0.044211
vertex 0.642598 0.484799 0.060284
vertex 0.636397 0.497655 0.059962
endloop
endfacet
facet normal -0.981287 -0.113438 0.155588
outer loop
vertex 0.634803 0.495009 0.029472
vertex 0.636430 0.480672 0.029281
vertex 0.638547 0.482837 0.044211
endloop
endfacet
facet normal -0.896824 -0.424916 -0.123101
outer loop
vertex 0.634803 0.495009 0.029472
vertex 0.638547 0.482837 0.044211
vertex 0.632222 0.496362 0.043605
endloop
endfacet
facet normal -0.603908 -0.758529 0.244803
outer loop
vertex 0.642598 0.484799 0.060284
vertex 0.638547 0.482837 0.044211
vertex 0.649841 0.473673 0.043678
endloop
endfacet
facet normal -0.945880 -0.198037 0.257085
outer loop
vertex 0.636397 0.497655 0.059962
vertex 0.629222 0.511011 0.043852
vertex 0.632222 0.496362 0.043605
endloop
endfacet
facet normal -0.982866 -0.062097 -0.173547
outer loop
vertex 0.633793 0.509669 0.029946
vertex 0.634803 0.495009 0.029472
vertex 0.632222 0.496362 0.043605
endloop
endfacet
facet normal -0.938405 -0.187269 -0.290389
outer loop
vertex 0.633793 0.509669 0.029946
vertex 0.632222 0.496362 0.043605
vertex 0.629222 0.511011 0.043852
endloop
endfacet
facet normal -0.966514 -0.053870 0.250895
outer loop
vertex 0.629222 0.511011 0.043852
vertex 0.633403 0.511727 0.060112
vertex 0.632720 0.526735 0.060703
endloop
endfacet
facet normal -0.962798 -0.066492 0.261913
outer loop
vertex 0.629222 0.511011 0.043852
vertex 0.632720 0.526735 0.060703
vertex 0.628249 0.525938 0.044065
endloop
endfacet
facet normal -0.945938 -0.203942 0.252208
outer loop
vertex 0.636397 0.497655 0.059962
vertex 0.633403 0.511727 0.060112
vertex 0.629222 0.511011 0.043852
endloop
endfacet
facet normal -0.940250 -0.056494 -0.335766
outer loop
vertex 0.633080 0.524604 0.030761
vertex 0.629222 0.511011 0.043852
vertex 0.628249 0.525938 0.044065
endloop
endfacet
facet normal -0.950420 -0.028492 -0.309662
outer loop
vertex 0.633080 0.524604 0.030761
vertex 0.633793 0.509669 0.029946
vertex 0.629222 0.511011 0.043852
endloop
endfacet
facet normal -0.965811 0.010725 0.259025
outer loop
vertex 0.632720 0.526735 0.060703
vertex 0.628393 0.540910 0.043982
vertex 0.628249 0.525938 0.044065
endloop
endfacet
facet normal -0.939694 0.007144 -0.341942
outer loop
vertex 0.633080 0.524604 0.030761
vertex 0.628249 0.525938 0.044065
vertex 0.628393 0.540910 0.043982
endloop
endfacet
facet normal -0.997423 -0.043431 -0.057101
outer loop
vertex 0.632273 0.540899 0.032463
vertex 0.634050 0.522072 0.015743
vertex 0.633080 0.524604 0.030761
endloop
endfacet
facet normal -0.947599 -0.013599 -0.319174
outer loop
vertex 0.633080 0.524604 0.030761
vertex 0.628393 0.540910 0.043982
vertex 0.632273 0.540899 0.032463
endloop
endfacet
facet normal -0.997386 -0.044515 -0.056916
outer loop
vertex 0.633793 0.509669 0.029946
vertex 0.633080 0.524604 0.030761
vertex 0.634050 0.522072 0.015743
endloop
endfacet
facet normal -0.070386 0.035800 -0.996877
outer loop
vertex 0.647326 0.535532 0.015289
vertex 0.647026 0.520518 0.014771
vertex 0.634050 0.522072 0.015743
endloop
endfacet
facet normal -0.070428 0.035460 -0.996886
outer loop
vertex 0.647026 0.520518 0.014771
vertex 0.634357 0.507810 0.015214
vertex 0.634050 0.522072 0.015743
endloop
endfacet
facet normal -0.070192 0.035609 -0.996898
outer loop
vertex 0.647326 0.535532 0.015289
vertex 0.634050 0.522072 0.015743
vertex 0.633744 0.536335 0.016274
endloop
endfacet
facet normal -0.996181 -0.018183 -0.085392
outer loop
vertex 0.632273 0.540899 0.032463
vertex 0.633744 0.536335 0.016274
vertex 0.634050 0.522072 0.015743
endloop
endfacet
facet normal -0.999159 -0.020177 -0.035703
outer loop
vertex 0.633793 0.509669 0.029946
vertex 0.634050 0.522072 0.015743
vertex 0.634357 0.507810 0.015214
endloop
endfacet
facet normal -0.999695 -0.021731 0.011758
outer loop
vertex 0.634803 0.495009 0.029472
vertex 0.634357 0.507810 0.015214
vertex 0.634661 0.493550 0.014704
endloop
endfacet
facet normal -0.069503 0.034175 -0.996996
outer loop
vertex 0.647535 0.507450 0.014283
vertex 0.634661 0.493550 0.014704
vertex 0.634357 0.507810 0.015214
endloop
endfacet
facet normal -0.069492 0.034524 -0.996985
outer loop
vertex 0.647026 0.520518 0.014771
vertex 0.647535 0.507450 0.014283
vertex 0.634357 0.507810 0.015214
endloop
endfacet
facet normal -0.997262 -0.067750 -0.029629
outer loop
vertex 0.634803 0.495009 0.029472
vertex 0.633793 0.509669 0.029946
vertex 0.634357 0.507810 0.015214
endloop
endfacet
facet normal -0.070348 0.034961 -0.996910
outer loop
vertex 0.647535 0.507450 0.014283
vertex 0.647806 0.493424 0.013772
vertex 0.634661 0.493550 0.014704
endloop
endfacet
facet normal -0.071569 0.034934 -0.996824
outer loop
vertex 0.647806 0.493424 0.013772
vertex 0.647535 0.507450 0.014283
vertex 0.660715 0.506802 0.013314
endloop
endfacet
facet normal -0.071531 0.035663 -0.996801
outer loop
vertex 0.647535 0.507450 0.014283
vertex 0.659920 0.520580 0.013864
vertex 0.660715 0.506802 0.013314
endloop
endfacet
facet normal -0.070292 0.034490 -0.996930
outer loop
vertex 0.647535 0.507450 0.014283
vertex 0.647026 0.520518 0.014771
vertex 0.659920 0.520580 0.013864
endloop
endfacet
facet normal -0.070326 0.036666 -0.996850
outer loop
vertex 0.648064 0.481576 0.013318
vertex 0.634661 0.493550 0.014704
vertex 0.647806 0.493424 0.013772
endloop
endfacet
facet normal -0.073426 0.036590 -0.996629
outer loop
vertex 0.661704 0.480457 0.012272
vertex 0.648064 0.481576 0.013318
vertex 0.647806 0.493424 0.013772
endloop
endfacet
facet normal -0.073121 0.036919 -0.996640
outer loop
vertex 0.661704 0.480457 0.012272
vertex 0.647806 0.493424 0.013772
vertex 0.661429 0.493653 0.012781
endloop
endfacet
facet normal -0.073114 0.036430 -0.996658
outer loop
vertex 0.647806 0.493424 0.013772
vertex 0.660715 0.506802 0.013314
vertex 0.661429 0.493653 0.012781
endloop
endfacet
facet normal -0.074452 0.036888 -0.996542
outer loop
vertex 0.674874 0.481698 0.011334
vertex 0.661704 0.480457 0.012272
vertex 0.661429 0.493653 0.012781
endloop
endfacet
facet normal -0.074042 0.037350 -0.996555
outer loop
vertex 0.674874 0.481698 0.011334
vertex 0.661429 0.493653 0.012781
vertex 0.675268 0.494806 0.011796
endloop
endfacet
facet normal -0.073965 0.036392 -0.996597
outer loop
vertex 0.674958 0.509320 0.012349
vertex 0.675268 0.494806 0.011796
vertex 0.661429 0.493653 0.012781
endloop
endfacet
facet normal -0.073954 0.036382 -0.996598
outer loop
vertex 0.674958 0.509320 0.012349
vertex 0.661429 0.493653 0.012781
vertex 0.660715 0.506802 0.013314
endloop
endfacet
facet normal -0.073943 0.036393 -0.996598
outer loop
vertex 0.675268 0.494806 0.011796
vertex 0.674958 0.509320 0.012349
vertex 0.690028 0.511432 0.011308
endloop
endfacet
facet normal -0.073831 0.035570 -0.996636
outer loop
vertex 0.673966 0.526482 0.013035
vertex 0.690028 0.511432 0.011308
vertex 0.674958 0.509320 0.012349
endloop
endfacet
facet normal -0.073770 0.035573 -0.996641
outer loop
vertex 0.659920 0.520580 0.013864
vertex 0.673966 0.526482 0.013035
vertex 0.674958 0.509320 0.012349
endloop
endfacet
facet normal -0.073806 0.035526 -0.996640
outer loop
vertex 0.659920 0.520580 0.013864
vertex 0.674958 0.509320 0.012349
vertex 0.660715 0.506802 0.013314
endloop
endfacet
facet normal -0.073488 0.034895 -0.996685
outer loop
vertex 0.673966 0.526482 0.013035
vertex 0.659920 0.520580 0.013864
vertex 0.660301 0.533550 0.014290
endloop
endfacet
facet normal -0.074836 0.036224 -0.996538
outer loop
vertex 0.690528 0.528236 0.011855
vertex 0.673966 0.526482 0.013035
vertex 0.676592 0.546433 0.013563
endloop
endfacet
facet normal -0.075557 0.036317 -0.996480
outer loop
vertex 0.673966 0.526482 0.013035
vertex 0.662213 0.547825 0.014704
vertex 0.676592 0.546433 0.013563
endloop
endfacet
facet normal -0.074676 0.034663 -0.996605
outer loop
vertex 0.673966 0.526482 0.013035
vertex 0.690528 0.528236 0.011855
vertex 0.690028 0.511432 0.011308
endloop
endfacet
facet normal -0.071624 0.038499 -0.996688
outer loop
vertex 0.673966 0.526482 0.013035
vertex 0.660301 0.533550 0.014290
vertex 0.662213 0.547825 0.014704
endloop
endfacet
facet normal -0.070293 0.034809 -0.996919
outer loop
vertex 0.647026 0.520518 0.014771
vertex 0.660301 0.533550 0.014290
vertex 0.659920 0.520580 0.013864
endloop
endfacet
facet normal -0.071278 0.035816 -0.996813
outer loop
vertex 0.647026 0.520518 0.014771
vertex 0.647326 0.535532 0.015289
vertex 0.660301 0.533550 0.014290
endloop
endfacet
facet normal -0.070878 0.038401 -0.996746
outer loop
vertex 0.647326 0.535532 0.015289
vertex 0.662213 0.547825 0.014704
vertex 0.660301 0.533550 0.014290
endloop
endfacet
facet normal -0.068678 0.035725 -0.996999
outer loop
vertex 0.647326 0.535532 0.015289
vertex 0.647825 0.549217 0.015745
vertex 0.662213 0.547825 0.014704
endloop
endfacet
facet normal 0.087136 0.989143 -0.118335
outer loop
vertex 0.647825 0.549217 0.015745
vertex 0.663477 0.549137 0.026602
vertex 0.662213 0.547825 0.014704
endloop
endfacet
facet normal 0.087821 0.990885 -0.102149
outer loop
vertex 0.677766 0.547528 0.025195
vertex 0.676592 0.546433 0.013563
vertex 0.662213 0.547825 0.014704
endloop
endfacet
facet normal 0.099467 0.987841 -0.119484
outer loop
vertex 0.677766 0.547528 0.025195
vertex 0.662213 0.547825 0.014704
vertex 0.663477 0.549137 0.026602
endloop
endfacet
facet normal 0.087614 0.989020 -0.119013
outer loop
vertex 0.647825 0.549217 0.015745
vertex 0.649025 0.550442 0.026808
vertex 0.663477 0.549137 0.026602
endloop
endfacet
facet normal -0.112440 0.021452 -0.993427
outer loop
vertex 0.677659 0.563177 0.025300
vertex 0.663477 0.549137 0.026602
vertex 0.663094 0.564310 0.026973
endloop
endfacet
facet normal -0.097321 0.006012 -0.995235
outer loop
vertex 0.677659 0.563177 0.025300
vertex 0.677766 0.547528 0.025195
vertex 0.663477 0.549137 0.026602
endloop
endfacet
facet normal -0.012069 0.024138 -0.999636
outer loop
vertex 0.649025 0.550442 0.026808
vertex 0.663094 0.564310 0.026973
vertex 0.663477 0.549137 0.026602
endloop
endfacet
facet normal 0.086203 0.989161 -0.118869
outer loop
vertex 0.649025 0.550442 0.026808
vertex 0.647825 0.549217 0.015745
vertex 0.633439 0.550598 0.016804
endloop
endfacet
facet normal 0.116379 0.979227 -0.166043
outer loop
vertex 0.649025 0.550442 0.026808
vertex 0.633439 0.550598 0.016804
vertex 0.634355 0.552226 0.027047
endloop
endfacet
facet normal -0.012512 0.031006 -0.999441
outer loop
vertex 0.648894 0.565958 0.027291
vertex 0.649025 0.550442 0.026808
vertex 0.634355 0.552226 0.027047
endloop
endfacet
facet normal -0.018788 0.030950 -0.999344
outer loop
vertex 0.649025 0.550442 0.026808
vertex 0.648894 0.565958 0.027291
vertex 0.663094 0.564310 0.026973
endloop
endfacet
facet normal -0.027955 0.047340 -0.998488
outer loop
vertex 0.648894 0.565958 0.027291
vertex 0.634355 0.552226 0.027047
vertex 0.634813 0.567556 0.027761
endloop
endfacet
facet normal -0.015504 0.059012 -0.998137
outer loop
vertex 0.648620 0.581650 0.028223
vertex 0.663094 0.564310 0.026973
vertex 0.648894 0.565958 0.027291
endloop
endfacet
facet normal -0.013558 0.059047 -0.998163
outer loop
vertex 0.634589 0.583263 0.028509
vertex 0.648620 0.581650 0.028223
vertex 0.648894 0.565958 0.027291
endloop
endfacet
facet normal -0.027977 0.047152 -0.998496
outer loop
vertex 0.634589 0.583263 0.028509
vertex 0.648894 0.565958 0.027291
vertex 0.634813 0.567556 0.027761
endloop
endfacet
facet normal -0.940518 0.043789 -0.336911
outer loop
vertex 0.631396 0.569534 0.037557
vertex 0.634813 0.567556 0.027761
vertex 0.634355 0.552226 0.027047
endloop
endfacet
facet normal -0.944063 0.002241 -0.329758
outer loop
vertex 0.631396 0.569534 0.037557
vertex 0.634589 0.583263 0.028509
vertex 0.634813 0.567556 0.027761
endloop
endfacet
facet normal -0.949405 0.027646 -0.312836
outer loop
vertex 0.631396 0.569534 0.037557
vertex 0.634355 0.552226 0.027047
vertex 0.629459 0.556033 0.042242
endloop
endfacet
facet normal -0.994675 0.013961 -0.102113
outer loop
vertex 0.630797 0.585470 0.045568
vertex 0.631396 0.569534 0.037557
vertex 0.630614 0.570618 0.045322
endloop
endfacet
facet normal -0.971117 0.077020 -0.225832
outer loop
vertex 0.630797 0.585470 0.045568
vertex 0.634589 0.583263 0.028509
vertex 0.631396 0.569534 0.037557
endloop
endfacet
facet normal -0.988226 0.102273 -0.113796
outer loop
vertex 0.629459 0.556033 0.042242
vertex 0.630614 0.570618 0.045322
vertex 0.631396 0.569534 0.037557
endloop
endfacet
facet normal -0.949646 0.025239 -0.312308
outer loop
vertex 0.632273 0.540899 0.032463
vertex 0.629459 0.556033 0.042242
vertex 0.634355 0.552226 0.027047
endloop
endfacet
facet normal -0.996319 0.083235 -0.020502
outer loop
vertex 0.629459 0.556033 0.042242
vertex 0.629400 0.555839 0.044322
vertex 0.630614 0.570618 0.045322
endloop
endfacet
facet normal -0.986834 -0.156046 -0.042537
outer loop
vertex 0.632273 0.540899 0.032463
vertex 0.629400 0.555839 0.044322
vertex 0.629459 0.556033 0.042242
endloop
endfacet
facet normal -0.878359 0.002913 0.477993
outer loop
vertex 0.636598 0.576906 0.056280
vertex 0.630797 0.585470 0.045568
vertex 0.630614 0.570618 0.045322
endloop
endfacet
facet normal -0.796875 0.181125 0.576354
outer loop
vertex 0.636598 0.576906 0.056280
vertex 0.643395 0.595379 0.059872
vertex 0.630797 0.585470 0.045568
endloop
endfacet
facet normal -0.976302 -0.050081 -0.210540
outer loop
vertex 0.634589 0.583263 0.028509
vertex 0.630797 0.585470 0.045568
vertex 0.630229 0.600291 0.044676
endloop
endfacet
facet normal -0.754039 0.010634 0.656744
outer loop
vertex 0.643395 0.595379 0.059872
vertex 0.630229 0.600291 0.044676
vertex 0.630797 0.585470 0.045568
endloop
endfacet
facet normal -0.728836 0.137758 0.670687
outer loop
vertex 0.636598 0.576906 0.056280
vertex 0.646647 0.584132 0.065716
vertex 0.643395 0.595379 0.059872
endloop
endfacet
facet normal -0.732608 0.112875 0.671226
outer loop
vertex 0.643395 0.595379 0.059872
vertex 0.641719 0.608026 0.055916
vertex 0.630229 0.600291 0.044676
endloop
endfacet
facet normal -0.334713 0.240630 0.911079
outer loop
vertex 0.643395 0.595379 0.059872
vertex 0.655962 0.613117 0.059804
vertex 0.641719 0.608026 0.055916
endloop
endfacet
facet normal -0.428156 0.306597 0.850106
outer loop
vertex 0.643395 0.595379 0.059872
vertex 0.656952 0.601002 0.064672
vertex 0.655962 0.613117 0.059804
endloop
endfacet
facet normal -0.523565 0.268715 0.808500
outer loop
vertex 0.658721 0.590844 0.071304
vertex 0.643395 0.595379 0.059872
vertex 0.646647 0.584132 0.065716
endloop
endfacet
facet normal -0.454555 0.430089 0.780002
outer loop
vertex 0.658721 0.590844 0.071304
vertex 0.656952 0.601002 0.064672
vertex 0.643395 0.595379 0.059872
endloop
endfacet
facet normal -0.755601 0.273619 0.595147
outer loop
vertex 0.636598 0.576906 0.056280
vertex 0.649087 0.574209 0.073376
vertex 0.646647 0.584132 0.065716
endloop
endfacet
facet normal -0.639738 0.364882 0.676459
outer loop
vertex 0.660353 0.582380 0.079623
vertex 0.646647 0.584132 0.065716
vertex 0.649087 0.574209 0.073376
endloop
endfacet
facet normal -0.578532 0.512285 0.634716
outer loop
vertex 0.660353 0.582380 0.079623
vertex 0.658721 0.590844 0.071304
vertex 0.646647 0.584132 0.065716
endloop
endfacet
facet normal -0.673764 0.609048 0.418454
outer loop
vertex 0.660954 0.575659 0.090373
vertex 0.660353 0.582380 0.079623
vertex 0.649087 0.574209 0.073376
endloop
endfacet
facet normal -0.144417 0.835377 0.530366
outer loop
vertex 0.660353 0.582380 0.079623
vertex 0.660954 0.575659 0.090373
vertex 0.674459 0.578068 0.090256
endloop
endfacet
facet normal -0.190328 0.669253 0.718245
outer loop
vertex 0.658721 0.590844 0.071304
vertex 0.660353 0.582380 0.079623
vertex 0.673104 0.585533 0.080064
endloop
endfacet
facet normal -0.212168 0.774724 0.595641
outer loop
vertex 0.660353 0.582380 0.079623
vertex 0.674459 0.578068 0.090256
vertex 0.673104 0.585533 0.080064
endloop
endfacet
facet normal -0.153003 0.879627 0.450386
outer loop
vertex 0.662145 0.569832 0.102158
vertex 0.674459 0.578068 0.090256
vertex 0.660954 0.575659 0.090373
endloop
endfacet
facet normal -0.005523 0.824971 0.565149
outer loop
vertex 0.662145 0.569832 0.102158
vertex 0.676235 0.570284 0.101636
vertex 0.674459 0.578068 0.090256
endloop
endfacet
facet normal 0.677748 0.651896 0.340132
outer loop
vertex 0.676235 0.570284 0.101636
vertex 0.684349 0.571805 0.082553
vertex 0.674459 0.578068 0.090256
endloop
endfacet
facet normal 0.685115 0.628090 0.368947
outer loop
vertex 0.684349 0.571805 0.082553
vertex 0.673104 0.585533 0.080064
vertex 0.674459 0.578068 0.090256
endloop
endfacet
facet normal 0.739835 0.568444 0.359883
outer loop
vertex 0.676235 0.570284 0.101636
vertex 0.687834 0.559543 0.094757
vertex 0.684349 0.571805 0.082553
endloop
endfacet
facet normal 0.896852 0.412873 0.158723
outer loop
vertex 0.687834 0.559543 0.094757
vertex 0.689571 0.564991 0.070771
vertex 0.684349 0.571805 0.082553
endloop
endfacet
facet normal 0.923958 0.301814 0.234969
outer loop
vertex 0.683304 0.581624 0.074050
vertex 0.684349 0.571805 0.082553
vertex 0.689571 0.564991 0.070771
endloop
endfacet
facet normal 0.568020 0.572483 0.591284
outer loop
vertex 0.684349 0.571805 0.082553
vertex 0.683304 0.581624 0.074050
vertex 0.673104 0.585533 0.080064
endloop
endfacet
facet normal 0.902906 0.400401 0.156333
outer loop
vertex 0.687834 0.559543 0.094757
vertex 0.693071 0.553881 0.079012
vertex 0.689571 0.564991 0.070771
endloop
endfacet
facet normal 0.903137 0.400089 0.155794
outer loop
vertex 0.693071 0.553881 0.079012
vertex 0.694173 0.559081 0.059270
vertex 0.689571 0.564991 0.070771
endloop
endfacet
facet normal 0.855643 0.231101 0.463106
outer loop
vertex 0.683304 0.581624 0.074050
vertex 0.689571 0.564991 0.070771
vertex 0.690186 0.576437 0.063923
endloop
endfacet
facet normal 0.941886 0.133762 0.308153
outer loop
vertex 0.694173 0.559081 0.059270
vertex 0.690186 0.576437 0.063923
vertex 0.689571 0.564991 0.070771
endloop
endfacet
facet normal 0.960785 0.250204 0.119539
outer loop
vertex 0.693071 0.553881 0.079012
vertex 0.696521 0.546864 0.065970
vertex 0.694173 0.559081 0.059270
endloop
endfacet
facet normal 0.972404 0.223531 0.066808
outer loop
vertex 0.696521 0.546864 0.065970
vertex 0.695926 0.554710 0.048380
vertex 0.694173 0.559081 0.059270
endloop
endfacet
facet normal 0.988816 0.074078 0.129438
outer loop
vertex 0.694167 0.570725 0.052652
vertex 0.694173 0.559081 0.059270
vertex 0.695926 0.554710 0.048380
endloop
endfacet
facet normal 0.953679 0.149020 0.261324
outer loop
vertex 0.694173 0.559081 0.059270
vertex 0.694167 0.570725 0.052652
vertex 0.690186 0.576437 0.063923
endloop
endfacet
facet normal 0.994085 0.108581 0.002251
outer loop
vertex 0.694167 0.570725 0.052652
vertex 0.695926 0.554710 0.048380
vertex 0.694757 0.565628 0.037954
endloop
endfacet
facet normal 0.948105 0.037841 0.315698
outer loop
vertex 0.695159 0.582921 0.048211
vertex 0.690186 0.576437 0.063923
vertex 0.694167 0.570725 0.052652
endloop
endfacet
facet normal 0.996423 -0.059028 0.060470
outer loop
vertex 0.695159 0.582921 0.048211
vertex 0.694167 0.570725 0.052652
vertex 0.694757 0.565628 0.037954
endloop
endfacet
facet normal 0.989899 0.137802 0.033313
outer loop
vertex 0.694757 0.565628 0.037954
vertex 0.695926 0.554710 0.048380
vertex 0.696768 0.551223 0.037783
endloop
endfacet
facet normal 0.994657 0.034577 -0.097276
outer loop
vertex 0.695159 0.582921 0.048211
vertex 0.694757 0.565628 0.037954
vertex 0.694230 0.580139 0.037723
endloop
endfacet
facet normal 0.970105 0.031403 -0.240647
outer loop
vertex 0.690992 0.578300 0.024430
vertex 0.694230 0.580139 0.037723
vertex 0.694757 0.565628 0.037954
endloop
endfacet
facet normal 0.969443 0.027922 -0.243723
outer loop
vertex 0.690992 0.578300 0.024430
vertex 0.694757 0.565628 0.037954
vertex 0.691146 0.562594 0.023243
endloop
endfacet
facet normal 0.955203 0.136466 -0.262611
outer loop
vertex 0.696768 0.551223 0.037783
vertex 0.691146 0.562594 0.023243
vertex 0.694757 0.565628 0.037954
endloop
endfacet
facet normal 0.964229 -0.157702 -0.213053
outer loop
vertex 0.694230 0.580139 0.037723
vertex 0.690992 0.578300 0.024430
vertex 0.693282 0.593966 0.023198
endloop
endfacet
facet normal -0.158717 -0.054328 -0.985828
outer loop
vertex 0.677790 0.579053 0.026514
vertex 0.693282 0.593966 0.023198
vertex 0.690992 0.578300 0.024430
endloop
endfacet
facet normal -0.151201 0.076611 -0.985530
outer loop
vertex 0.677659 0.563177 0.025300
vertex 0.677790 0.579053 0.026514
vertex 0.690992 0.578300 0.024430
endloop
endfacet
facet normal -0.147280 0.073103 -0.986390
outer loop
vertex 0.677659 0.563177 0.025300
vertex 0.690992 0.578300 0.024430
vertex 0.691146 0.562594 0.023243
endloop
endfacet
facet normal -0.149684 -0.063895 -0.986667
outer loop
vertex 0.677790 0.579053 0.026514
vertex 0.678511 0.594767 0.025387
vertex 0.693282 0.593966 0.023198
endloop
endfacet
facet normal -0.113433 -0.065895 -0.991358
outer loop
vertex 0.678511 0.594767 0.025387
vertex 0.677790 0.579053 0.026514
vertex 0.662969 0.580194 0.028134
endloop
endfacet
facet normal -0.102921 0.071706 -0.992102
outer loop
vertex 0.677790 0.579053 0.026514
vertex 0.663094 0.564310 0.026973
vertex 0.662969 0.580194 0.028134
endloop
endfacet
facet normal -0.107890 0.076686 -0.991201
outer loop
vertex 0.677790 0.579053 0.026514
vertex 0.677659 0.563177 0.025300
vertex 0.663094 0.564310 0.026973
endloop
endfacet
facet normal -0.108317 -0.071390 -0.991550
outer loop
vertex 0.678511 0.594767 0.025387
vertex 0.662969 0.580194 0.028134
vertex 0.662935 0.595913 0.027006
endloop
endfacet
facet normal -0.003223 -0.071583 -0.997429
outer loop
vertex 0.662969 0.580194 0.028134
vertex 0.647933 0.597285 0.026956
vertex 0.662935 0.595913 0.027006
endloop
endfacet
facet normal 0.001212 0.072907 -0.997338
outer loop
vertex 0.648620 0.581650 0.028223
vertex 0.662969 0.580194 0.028134
vertex 0.663094 0.564310 0.026973
endloop
endfacet
facet normal -0.014440 -0.081392 -0.996578
outer loop
vertex 0.662969 0.580194 0.028134
vertex 0.648620 0.581650 0.028223
vertex 0.647933 0.597285 0.026956
endloop
endfacet
facet normal -0.016091 -0.081463 -0.996546
outer loop
vertex 0.648620 0.581650 0.028223
vertex 0.633103 0.598991 0.027056
vertex 0.647933 0.597285 0.026956
endloop
endfacet
facet normal -0.024697 -0.156815 -0.987319
outer loop
vertex 0.631223 0.614486 0.024642
vertex 0.647933 0.597285 0.026956
vertex 0.633103 0.598991 0.027056
endloop
endfacet
facet normal -0.019289 -0.151684 -0.988241
outer loop
vertex 0.631223 0.614486 0.024642
vertex 0.646911 0.613136 0.024543
vertex 0.647933 0.597285 0.026956
endloop
endfacet
facet normal -0.010529 -0.151151 -0.988455
outer loop
vertex 0.646911 0.613136 0.024543
vertex 0.662935 0.595913 0.027006
vertex 0.647933 0.597285 0.026956
endloop
endfacet
facet normal -0.987092 -0.133534 -0.088414
outer loop
vertex 0.629481 0.615061 0.043222
vertex 0.631223 0.614486 0.024642
vertex 0.633103 0.598991 0.027056
endloop
endfacet
facet normal -0.019666 -0.156121 -0.987542
outer loop
vertex 0.646911 0.613136 0.024543
vertex 0.631223 0.614486 0.024642
vertex 0.629566 0.630015 0.022220
endloop
endfacet
facet normal -0.993423 -0.110617 -0.029564
outer loop
vertex 0.631223 0.614486 0.024642
vertex 0.629006 0.629840 0.041692
vertex 0.629566 0.630015 0.022220
endloop
endfacet
facet normal -0.994894 -0.041507 -0.091995
outer loop
vertex 0.631223 0.614486 0.024642
vertex 0.629481 0.615061 0.043222
vertex 0.629006 0.629840 0.041692
endloop
endfacet
facet normal -0.985607 -0.065264 -0.155944
outer loop
vertex 0.629481 0.615061 0.043222
vertex 0.633103 0.598991 0.027056
vertex 0.630229 0.600291 0.044676
endloop
endfacet
facet normal -0.710249 0.033250 0.703165
outer loop
vertex 0.641719 0.608026 0.055916
vertex 0.629481 0.615061 0.043222
vertex 0.630229 0.600291 0.044676
endloop
endfacet
facet normal -0.680028 0.121658 0.723022
outer loop
vertex 0.641719 0.608026 0.055916
vertex 0.640938 0.621674 0.052885
vertex 0.629481 0.615061 0.043222
endloop
endfacet
facet normal -0.662414 0.056050 0.747038
outer loop
vertex 0.640938 0.621674 0.052885
vertex 0.629006 0.629840 0.041692
vertex 0.629481 0.615061 0.043222
endloop
endfacet
facet normal -0.320576 0.187842 0.928410
outer loop
vertex 0.640938 0.621674 0.052885
vertex 0.641719 0.608026 0.055916
vertex 0.655962 0.613117 0.059804
endloop
endfacet
facet normal -0.266536 0.278181 0.922808
outer loop
vertex 0.640938 0.621674 0.052885
vertex 0.655962 0.613117 0.059804
vertex 0.655478 0.626191 0.055723
endloop
endfacet
facet normal -0.632707 0.123380 0.764499
outer loop
vertex 0.640938 0.621674 0.052885
vertex 0.640620 0.635949 0.050318
vertex 0.629006 0.629840 0.041692
endloop
endfacet
facet normal -0.238532 0.166727 0.956716
outer loop
vertex 0.640620 0.635949 0.050318
vertex 0.640938 0.621674 0.052885
vertex 0.655478 0.626191 0.055723
endloop
endfacet
facet normal -0.029570 0.296840 0.954469
outer loop
vertex 0.655478 0.626191 0.055723
vertex 0.655962 0.613117 0.059804
vertex 0.670288 0.615602 0.059475
endloop
endfacet
facet normal -0.022550 0.238841 0.970797
outer loop
vertex 0.655507 0.640107 0.052300
vertex 0.655478 0.626191 0.055723
vertex 0.670091 0.628599 0.055470
endloop
endfacet
facet normal -0.031889 0.293891 0.955307
outer loop
vertex 0.655478 0.626191 0.055723
vertex 0.670288 0.615602 0.059475
vertex 0.670091 0.628599 0.055470
endloop
endfacet
facet normal -0.192427 0.234769 0.952814
outer loop
vertex 0.640620 0.635949 0.050318
vertex 0.655478 0.626191 0.055723
vertex 0.655507 0.640107 0.052300
endloop
endfacet
facet normal -0.046014 0.387189 0.920851
outer loop
vertex 0.655962 0.613117 0.059804
vertex 0.670718 0.603764 0.064474
vertex 0.670288 0.615602 0.059475
endloop
endfacet
facet normal 0.217250 0.386416 0.896374
outer loop
vertex 0.683830 0.603008 0.061622
vertex 0.670288 0.615602 0.059475
vertex 0.670718 0.603764 0.064474
endloop
endfacet
facet normal 0.164669 0.335211 0.927641
outer loop
vertex 0.683830 0.603008 0.061622
vertex 0.684191 0.615555 0.057024
vertex 0.670288 0.615602 0.059475
endloop
endfacet
facet normal 0.166973 0.292660 0.941526
outer loop
vertex 0.684191 0.615555 0.057024
vertex 0.670091 0.628599 0.055470
vertex 0.670288 0.615602 0.059475
endloop
endfacet
facet normal 0.658019 0.242330 0.712943
outer loop
vertex 0.684191 0.615555 0.057024
vertex 0.683830 0.603008 0.061622
vertex 0.694142 0.599220 0.053392
endloop
endfacet
facet normal 0.539160 0.143942 0.829811
outer loop
vertex 0.684191 0.615555 0.057024
vertex 0.694142 0.599220 0.053392
vertex 0.696102 0.612488 0.049817
endloop
endfacet
facet normal 0.545494 0.214783 0.810126
outer loop
vertex 0.696102 0.612488 0.049817
vertex 0.684286 0.628979 0.053401
vertex 0.684191 0.615555 0.057024
endloop
endfacet
facet normal 0.132621 0.257389 0.957164
outer loop
vertex 0.684191 0.615555 0.057024
vertex 0.684286 0.628979 0.053401
vertex 0.670091 0.628599 0.055470
endloop
endfacet
facet normal 0.972714 -0.085588 0.215642
outer loop
vertex 0.694142 0.599220 0.053392
vertex 0.698926 0.608748 0.035594
vertex 0.696102 0.612488 0.049817
endloop
endfacet
facet normal 0.979062 -0.027677 0.201670
outer loop
vertex 0.696979 0.626855 0.047530
vertex 0.696102 0.612488 0.049817
vertex 0.698926 0.608748 0.035594
endloop
endfacet
facet normal 0.432882 0.115885 0.893971
outer loop
vertex 0.696102 0.612488 0.049817
vertex 0.696979 0.626855 0.047530
vertex 0.684286 0.628979 0.053401
endloop
endfacet
facet normal 0.438436 0.194888 0.877378
outer loop
vertex 0.696979 0.626855 0.047530
vertex 0.684377 0.643320 0.050170
vertex 0.684286 0.628979 0.053401
endloop
endfacet
facet normal 0.393520 0.155927 0.905996
outer loop
vertex 0.696979 0.626855 0.047530
vertex 0.697262 0.641457 0.044894
vertex 0.684377 0.643320 0.050170
endloop
endfacet
facet normal 0.940333 0.042715 0.337564
outer loop
vertex 0.697262 0.641457 0.044894
vertex 0.696979 0.626855 0.047530
vertex 0.701845 0.622953 0.034469
endloop
endfacet
facet normal 0.909371 -0.156331 0.385494
outer loop
vertex 0.696979 0.626855 0.047530
vertex 0.698926 0.608748 0.035594
vertex 0.701845 0.622953 0.034469
endloop
endfacet
facet normal 0.821912 -0.111176 0.558659
outer loop
vertex 0.697262 0.641457 0.044894
vertex 0.701845 0.622953 0.034469
vertex 0.704454 0.637236 0.033473
endloop
endfacet
facet normal 0.949279 -0.213352 -0.230975
outer loop
vertex 0.698926 0.608748 0.035594
vertex 0.698657 0.624946 0.019526
vertex 0.701845 0.622953 0.034469
endloop
endfacet
facet normal 0.954093 -0.192737 -0.229256
outer loop
vertex 0.701345 0.640444 0.017683
vertex 0.701845 0.622953 0.034469
vertex 0.698657 0.624946 0.019526
endloop
endfacet
facet normal 0.955186 -0.190291 -0.226733
outer loop
vertex 0.701345 0.640444 0.017683
vertex 0.704454 0.637236 0.033473
vertex 0.701845 0.622953 0.034469
endloop
endfacet
facet normal 0.858094 0.098481 0.503960
outer loop
vertex 0.697307 0.656929 0.041794
vertex 0.697262 0.641457 0.044894
vertex 0.704454 0.637236 0.033473
endloop
endfacet
facet normal 0.981022 -0.144392 -0.129409
outer loop
vertex 0.704454 0.637236 0.033473
vertex 0.705803 0.653574 0.025470
vertex 0.706477 0.651627 0.032752
endloop
endfacet
facet normal 0.683196 -0.059581 0.727801
outer loop
vertex 0.697307 0.656929 0.041794
vertex 0.704454 0.637236 0.033473
vertex 0.706477 0.651627 0.032752
endloop
endfacet
facet normal 0.955278 -0.189903 -0.226673
outer loop
vertex 0.704454 0.637236 0.033473
vertex 0.701345 0.640444 0.017683
vertex 0.705803 0.653574 0.025470
endloop
endfacet
facet normal 0.380238 0.180639 0.907077
outer loop
vertex 0.697262 0.641457 0.044894
vertex 0.697307 0.656929 0.041794
vertex 0.684448 0.657885 0.046994
endloop
endfacet
facet normal 0.741761 0.182158 0.645453
outer loop
vertex 0.697317 0.676196 0.036345
vertex 0.697307 0.656929 0.041794
vertex 0.706477 0.651627 0.032752
endloop
endfacet
facet normal 0.379526 0.228690 0.896471
outer loop
vertex 0.697307 0.656929 0.041794
vertex 0.684306 0.672374 0.043358
vertex 0.684448 0.657885 0.046994
endloop
endfacet
facet normal 0.401827 0.249007 0.881210
outer loop
vertex 0.697307 0.656929 0.041794
vertex 0.697317 0.676196 0.036345
vertex 0.684306 0.672374 0.043358
endloop
endfacet
facet normal 0.395614 0.193828 0.897731
outer loop
vertex 0.697262 0.641457 0.044894
vertex 0.684448 0.657885 0.046994
vertex 0.684377 0.643320 0.050170
endloop
endfacet
facet normal 0.140189 0.210293 0.967535
outer loop
vertex 0.684377 0.643320 0.050170
vertex 0.684448 0.657885 0.046994
vertex 0.670411 0.657323 0.049150
endloop
endfacet
facet normal 0.137801 0.242345 0.960354
outer loop
vertex 0.684306 0.672374 0.043358
vertex 0.670411 0.657323 0.049150
vertex 0.684448 0.657885 0.046994
endloop
endfacet
facet normal 0.119001 0.189680 0.974608
outer loop
vertex 0.684377 0.643320 0.050170
vertex 0.670411 0.657323 0.049150
vertex 0.670150 0.642591 0.052049
endloop
endfacet
facet normal -0.025963 0.193456 0.980765
outer loop
vertex 0.655862 0.654833 0.049256
vertex 0.670150 0.642591 0.052049
vertex 0.670411 0.657323 0.049150
endloop
endfacet
facet normal 0.161941 0.220638 0.961818
outer loop
vertex 0.684306 0.672374 0.043358
vertex 0.670980 0.672852 0.045492
vertex 0.670411 0.657323 0.049150
endloop
endfacet
facet normal -0.032327 0.230289 0.972585
outer loop
vertex 0.670980 0.672852 0.045492
vertex 0.655862 0.654833 0.049256
vertex 0.670411 0.657323 0.049150
endloop
endfacet
facet normal -0.017621 0.202807 0.979060
outer loop
vertex 0.655862 0.654833 0.049256
vertex 0.655507 0.640107 0.052300
vertex 0.670150 0.642591 0.052049
endloop
endfacet
facet normal -0.182176 0.242014 0.953017
outer loop
vertex 0.642570 0.665832 0.043922
vertex 0.641290 0.650645 0.047534
vertex 0.655862 0.654833 0.049256
endloop
endfacet
facet normal -0.172348 0.203383 0.963811
outer loop
vertex 0.655507 0.640107 0.052300
vertex 0.655862 0.654833 0.049256
vertex 0.641290 0.650645 0.047534
endloop
endfacet
facet normal -0.039703 0.236125 0.970911
outer loop
vertex 0.670980 0.672852 0.045492
vertex 0.656633 0.670563 0.045462
vertex 0.655862 0.654833 0.049256
endloop
endfacet
facet normal -0.184789 0.238986 0.953278
outer loop
vertex 0.642570 0.665832 0.043922
vertex 0.655862 0.654833 0.049256
vertex 0.656633 0.670563 0.045462
endloop
endfacet
facet normal -0.450212 0.242341 0.859407
outer loop
vertex 0.641290 0.650645 0.047534
vertex 0.642570 0.665832 0.043922
vertex 0.629585 0.659419 0.038928
endloop
endfacet
facet normal -0.397855 0.094963 0.912520
outer loop
vertex 0.642570 0.665832 0.043922
vertex 0.631090 0.674171 0.038049
vertex 0.629585 0.659419 0.038928
endloop
endfacet
facet normal -0.175818 0.289904 0.940768
outer loop
vertex 0.642570 0.665832 0.043922
vertex 0.657948 0.687386 0.040154
vertex 0.644165 0.681464 0.039403
endloop
endfacet
facet normal -0.205651 0.309047 0.928546
outer loop
vertex 0.642570 0.665832 0.043922
vertex 0.656633 0.670563 0.045462
vertex 0.657948 0.687386 0.040154
endloop
endfacet
facet normal -0.258504 0.292524 0.920655
outer loop
vertex 0.642570 0.665832 0.043922
vertex 0.644165 0.681464 0.039403
vertex 0.631090 0.674171 0.038049
endloop
endfacet
facet normal -0.992032 0.105333 0.069115
outer loop
vertex 0.628430 0.661412 0.019313
vertex 0.629585 0.659419 0.038928
vertex 0.631090 0.674171 0.038049
endloop
endfacet
facet normal -0.992542 0.095309 0.076002
outer loop
vertex 0.628430 0.661412 0.019313
vertex 0.631090 0.674171 0.038049
vertex 0.629994 0.677101 0.020061
endloop
endfacet
facet normal -0.493413 0.853212 0.169035
outer loop
vertex 0.644165 0.681464 0.039403
vertex 0.629994 0.677101 0.020061
vertex 0.631090 0.674171 0.038049
endloop
endfacet
facet normal -0.009416 0.048557 -0.998776
outer loop
vertex 0.629994 0.677101 0.020061
vertex 0.644139 0.660180 0.019105
vertex 0.628430 0.661412 0.019313
endloop
endfacet
facet normal -0.026186 0.034554 -0.999060
outer loop
vertex 0.629994 0.677101 0.020061
vertex 0.644198 0.674710 0.019606
vertex 0.644139 0.660180 0.019105
endloop
endfacet
facet normal -0.658091 0.677049 0.329424
outer loop
vertex 0.644165 0.681464 0.039403
vertex 0.641674 0.687838 0.021327
vertex 0.629994 0.677101 0.020061
endloop
endfacet
facet normal -0.010214 0.128046 -0.991716
outer loop
vertex 0.644198 0.674710 0.019606
vertex 0.629994 0.677101 0.020061
vertex 0.641674 0.687838 0.021327
endloop
endfacet
facet normal -0.000102 0.034460 -0.999406
outer loop
vertex 0.644198 0.674710 0.019606
vertex 0.660085 0.660430 0.019112
vertex 0.644139 0.660180 0.019105
endloop
endfacet
facet normal 0.013002 0.049014 -0.998713
outer loop
vertex 0.644198 0.674710 0.019606
vertex 0.659192 0.677049 0.019916
vertex 0.660085 0.660430 0.019112
endloop
endfacet
facet normal 0.000216 0.130024 -0.991511
outer loop
vertex 0.659192 0.677049 0.019916
vertex 0.644198 0.674710 0.019606
vertex 0.641674 0.687838 0.021327
endloop
endfacet
facet normal -0.073798 0.044234 -0.996292
outer loop
vertex 0.659192 0.677049 0.019916
vertex 0.675474 0.660766 0.017987
vertex 0.660085 0.660430 0.019112
endloop
endfacet
facet normal -0.056791 0.061264 -0.996505
outer loop
vertex 0.659192 0.677049 0.019916
vertex 0.676713 0.678489 0.019006
vertex 0.675474 0.660766 0.017987
endloop
endfacet
facet normal -0.063552 0.149729 -0.986683
outer loop
vertex 0.676713 0.678489 0.019006
vertex 0.659192 0.677049 0.019916
vertex 0.656207 0.694148 0.022703
endloop
endfacet
facet normal 0.021919 0.164557 -0.986124
outer loop
vertex 0.659192 0.677049 0.019916
vertex 0.641674 0.687838 0.021327
vertex 0.656207 0.694148 0.022703
endloop
endfacet
facet normal -0.399606 0.840626 0.365598
outer loop
vertex 0.641674 0.687838 0.021327
vertex 0.657948 0.687386 0.040154
vertex 0.656207 0.694148 0.022703
endloop
endfacet
facet normal -0.185431 0.909901 0.371075
outer loop
vertex 0.656207 0.694148 0.022703
vertex 0.657948 0.687386 0.040154
vertex 0.672629 0.690541 0.039754
endloop
endfacet
facet normal -0.084543 0.955237 0.283503
outer loop
vertex 0.656207 0.694148 0.022703
vertex 0.672629 0.690541 0.039754
vertex 0.672045 0.695583 0.022591
endloop
endfacet
facet normal -0.024928 0.198666 -0.979750
outer loop
vertex 0.676713 0.678489 0.019006
vertex 0.656207 0.694148 0.022703
vertex 0.672045 0.695583 0.022591
endloop
endfacet
facet normal 0.394070 0.885355 0.246687
outer loop
vertex 0.685980 0.684912 0.038629
vertex 0.672045 0.695583 0.022591
vertex 0.672629 0.690541 0.039754
endloop
endfacet
facet normal 0.254411 0.892393 0.372707
outer loop
vertex 0.685980 0.684912 0.038629
vertex 0.687162 0.692274 0.020195
vertex 0.672045 0.695583 0.022591
endloop
endfacet
facet normal -0.117104 0.173113 -0.977915
outer loop
vertex 0.687162 0.692274 0.020195
vertex 0.676713 0.678489 0.019006
vertex 0.672045 0.695583 0.022591
endloop
endfacet
facet normal 0.592152 0.734560 0.331327
outer loop
vertex 0.698907 0.679304 0.027959
vertex 0.687162 0.692274 0.020195
vertex 0.685980 0.684912 0.038629
endloop
endfacet
facet normal 0.549926 0.735213 0.396288
outer loop
vertex 0.687162 0.692274 0.020195
vertex 0.698907 0.679304 0.027959
vertex 0.700225 0.684388 0.016698
endloop
endfacet
facet normal -0.167277 0.154691 -0.973699
outer loop
vertex 0.687162 0.692274 0.020195
vertex 0.700225 0.684388 0.016698
vertex 0.692546 0.672572 0.016140
endloop
endfacet
facet normal -0.113482 0.170445 -0.978811
outer loop
vertex 0.687162 0.692274 0.020195
vertex 0.692546 0.672572 0.016140
vertex 0.676713 0.678489 0.019006
endloop
endfacet
facet normal -0.136990 0.135368 -0.981279
outer loop
vertex 0.706720 0.671432 0.014004
vertex 0.692546 0.672572 0.016140
vertex 0.700225 0.684388 0.016698
endloop
endfacet
facet normal -0.155483 -0.089955 -0.983734
outer loop
vertex 0.692546 0.672572 0.016140
vertex 0.706720 0.671432 0.014004
vertex 0.704032 0.655934 0.015846
endloop
endfacet
facet normal -0.002946 0.015634 -0.999873
outer loop
vertex 0.692546 0.672572 0.016140
vertex 0.704032 0.655934 0.015846
vertex 0.689769 0.658810 0.015933
endloop
endfacet
facet normal -0.160788 0.047274 -0.985856
outer loop
vertex 0.676713 0.678489 0.019006
vertex 0.692546 0.672572 0.016140
vertex 0.689769 0.658810 0.015933
endloop
endfacet
facet normal -0.028802 -0.112791 -0.993201
outer loop
vertex 0.701345 0.640444 0.017683
vertex 0.689769 0.658810 0.015933
vertex 0.704032 0.655934 0.015846
endloop
endfacet
facet normal -0.038912 -0.119060 -0.992124
outer loop
vertex 0.701345 0.640444 0.017683
vertex 0.681501 0.644638 0.017958
vertex 0.689769 0.658810 0.015933
endloop
endfacet
facet normal -0.133039 0.066160 -0.988900
outer loop
vertex 0.676713 0.678489 0.019006
vertex 0.689769 0.658810 0.015933
vertex 0.675474 0.660766 0.017987
endloop
endfacet
facet normal -0.149254 -0.054001 -0.987323
outer loop
vertex 0.681501 0.644638 0.017958
vertex 0.675474 0.660766 0.017987
vertex 0.689769 0.658810 0.015933
endloop
endfacet
facet normal -0.051958 -0.124168 -0.990900
outer loop
vertex 0.681501 0.644638 0.017958
vertex 0.698657 0.624946 0.019526
vertex 0.680551 0.627080 0.020208
endloop
endfacet
facet normal -0.037351 -0.111615 -0.993049
outer loop
vertex 0.681501 0.644638 0.017958
vertex 0.701345 0.640444 0.017683
vertex 0.698657 0.624946 0.019526
endloop
endfacet
facet normal -0.102612 -0.120972 -0.987338
outer loop
vertex 0.661960 0.644498 0.020006
vertex 0.681501 0.644638 0.017958
vertex 0.680551 0.627080 0.020208
endloop
endfacet
facet normal -0.103901 -0.037041 -0.993898
outer loop
vertex 0.661960 0.644498 0.020006
vertex 0.675474 0.660766 0.017987
vertex 0.681501 0.644638 0.017958
endloop
endfacet
facet normal -0.107400 -0.126069 -0.986191
outer loop
vertex 0.661960 0.644498 0.020006
vertex 0.680551 0.627080 0.020208
vertex 0.662339 0.628131 0.022057
endloop
endfacet
facet normal -0.006203 -0.124479 -0.992203
outer loop
vertex 0.644884 0.644799 0.020075
vertex 0.661960 0.644498 0.020006
vertex 0.662339 0.628131 0.022057
endloop
endfacet
facet normal -0.005032 -0.056615 -0.998383
outer loop
vertex 0.660085 0.660430 0.019112
vertex 0.661960 0.644498 0.020006
vertex 0.644884 0.644799 0.020075
endloop
endfacet
facet normal -0.071363 -0.064253 -0.995379
outer loop
vertex 0.661960 0.644498 0.020006
vertex 0.660085 0.660430 0.019112
vertex 0.675474 0.660766 0.017987
endloop
endfacet
facet normal -0.006724 -0.125016 -0.992132
outer loop
vertex 0.644884 0.644799 0.020075
vertex 0.662339 0.628131 0.022057
vertex 0.645856 0.628962 0.022064
endloop
endfacet
facet normal -0.016385 -0.125586 -0.991947
outer loop
vertex 0.628463 0.645646 0.020239
vertex 0.644884 0.644799 0.020075
vertex 0.645856 0.628962 0.022064
endloop
endfacet
facet normal -0.018216 -0.063808 -0.997796
outer loop
vertex 0.644884 0.644799 0.020075
vertex 0.628430 0.661412 0.019313
vertex 0.644139 0.660180 0.019105
endloop
endfacet
facet normal -0.012995 -0.058655 -0.998194
outer loop
vertex 0.644884 0.644799 0.020075
vertex 0.628463 0.645646 0.020239
vertex 0.628430 0.661412 0.019313
endloop
endfacet
facet normal 0.001424 -0.062872 -0.998021
outer loop
vertex 0.660085 0.660430 0.019112
vertex 0.644884 0.644799 0.020075
vertex 0.644139 0.660180 0.019105
endloop
endfacet
facet normal -0.017703 -0.126939 -0.991753
outer loop
vertex 0.628463 0.645646 0.020239
vertex 0.645856 0.628962 0.022064
vertex 0.629566 0.630015 0.022220
endloop
endfacet
facet normal -0.997480 -0.067712 0.021170
outer loop
vertex 0.628956 0.644623 0.040196
vertex 0.628463 0.645646 0.020239
vertex 0.629566 0.630015 0.022220
endloop
endfacet
facet normal -0.998262 0.001373 0.058918
outer loop
vertex 0.629585 0.659419 0.038928
vertex 0.628430 0.661412 0.019313
vertex 0.628463 0.645646 0.020239
endloop
endfacet
facet normal -0.998633 0.044771 0.026963
outer loop
vertex 0.629585 0.659419 0.038928
vertex 0.628463 0.645646 0.020239
vertex 0.628956 0.644623 0.040196
endloop
endfacet
facet normal -0.999565 -0.006286 -0.028803
outer loop
vertex 0.628956 0.644623 0.040196
vertex 0.629566 0.630015 0.022220
vertex 0.629006 0.629840 0.041692
endloop
endfacet
facet normal -0.620244 0.076898 0.780631
outer loop
vertex 0.640620 0.635949 0.050318
vertex 0.628956 0.644623 0.040196
vertex 0.629006 0.629840 0.041692
endloop
endfacet
facet normal -0.565936 0.178288 0.804941
outer loop
vertex 0.640620 0.635949 0.050318
vertex 0.641290 0.650645 0.047534
vertex 0.628956 0.644623 0.040196
endloop
endfacet
facet normal -0.542710 0.094596 0.834576
outer loop
vertex 0.641290 0.650645 0.047534
vertex 0.629585 0.659419 0.038928
vertex 0.628956 0.644623 0.040196
endloop
endfacet
facet normal -0.008229 -0.154899 -0.987896
outer loop
vertex 0.662707 0.611976 0.024587
vertex 0.645856 0.628962 0.022064
vertex 0.662339 0.628131 0.022057
endloop
endfacet
facet normal -0.008654 -0.155313 -0.987827
outer loop
vertex 0.662707 0.611976 0.024587
vertex 0.646911 0.613136 0.024543
vertex 0.645856 0.628962 0.022064
endloop
endfacet
facet normal -0.019541 -0.155996 -0.987565
outer loop
vertex 0.646911 0.613136 0.024543
vertex 0.629566 0.630015 0.022220
vertex 0.645856 0.628962 0.022064
endloop
endfacet
facet normal -0.111557 -0.156236 -0.981400
outer loop
vertex 0.679745 0.610734 0.022848
vertex 0.662707 0.611976 0.024587
vertex 0.662339 0.628131 0.022057
endloop
endfacet
facet normal -0.008190 -0.149024 -0.988800
outer loop
vertex 0.646911 0.613136 0.024543
vertex 0.662707 0.611976 0.024587
vertex 0.662935 0.595913 0.027006
endloop
endfacet
facet normal -0.113101 -0.149530 -0.982267
outer loop
vertex 0.662707 0.611976 0.024587
vertex 0.678511 0.594767 0.025387
vertex 0.662935 0.595913 0.027006
endloop
endfacet
facet normal -0.111073 -0.147689 -0.982777
outer loop
vertex 0.662707 0.611976 0.024587
vertex 0.679745 0.610734 0.022848
vertex 0.678511 0.594767 0.025387
endloop
endfacet
facet normal -0.152696 -0.143683 -0.977773
outer loop
vertex 0.679745 0.610734 0.022848
vertex 0.693282 0.593966 0.023198
vertex 0.678511 0.594767 0.025387
endloop
endfacet
facet normal -0.098573 -0.100245 -0.990068
outer loop
vertex 0.679745 0.610734 0.022848
vertex 0.695970 0.609456 0.021362
vertex 0.693282 0.593966 0.023198
endloop
endfacet
facet normal -0.108565 -0.153281 -0.982201
outer loop
vertex 0.679745 0.610734 0.022848
vertex 0.662339 0.628131 0.022057
vertex 0.680551 0.627080 0.020208
endloop
endfacet
facet normal -0.102121 -0.153699 -0.982826
outer loop
vertex 0.695970 0.609456 0.021362
vertex 0.679745 0.610734 0.022848
vertex 0.680551 0.627080 0.020208
endloop
endfacet
facet normal 0.963857 -0.189458 -0.187313
outer loop
vertex 0.695970 0.609456 0.021362
vertex 0.696038 0.594540 0.036799
vertex 0.693282 0.593966 0.023198
endloop
endfacet
facet normal -0.050236 -0.108957 -0.992776
outer loop
vertex 0.695970 0.609456 0.021362
vertex 0.680551 0.627080 0.020208
vertex 0.698657 0.624946 0.019526
endloop
endfacet
facet normal 0.959118 -0.191122 -0.208722
outer loop
vertex 0.698926 0.608748 0.035594
vertex 0.695970 0.609456 0.021362
vertex 0.698657 0.624946 0.019526
endloop
endfacet
facet normal 0.954743 -0.211786 -0.208838
outer loop
vertex 0.695970 0.609456 0.021362
vertex 0.698926 0.608748 0.035594
vertex 0.696038 0.594540 0.036799
endloop
endfacet
facet normal 0.990340 -0.127791 -0.053825
outer loop
vertex 0.695159 0.582921 0.048211
vertex 0.694230 0.580139 0.037723
vertex 0.696038 0.594540 0.036799
endloop
endfacet
facet normal 0.994006 0.028479 0.105548
outer loop
vertex 0.694142 0.599220 0.053392
vertex 0.695159 0.582921 0.048211
vertex 0.696038 0.594540 0.036799
endloop
endfacet
facet normal 0.972286 -0.134334 -0.191347
outer loop
vertex 0.694230 0.580139 0.037723
vertex 0.693282 0.593966 0.023198
vertex 0.696038 0.594540 0.036799
endloop
endfacet
facet normal 0.969537 -0.183298 0.162478
outer loop
vertex 0.694142 0.599220 0.053392
vertex 0.696038 0.594540 0.036799
vertex 0.698926 0.608748 0.035594
endloop
endfacet
facet normal 0.971988 -0.185712 -0.144050
outer loop
vertex 0.708016 0.665017 0.031019
vertex 0.704032 0.655934 0.015846
vertex 0.706720 0.671432 0.014004
endloop
endfacet
facet normal 0.975226 -0.090786 -0.201724
outer loop
vertex 0.708016 0.665017 0.031019
vertex 0.705803 0.653574 0.025470
vertex 0.704032 0.655934 0.015846
endloop
endfacet
facet normal 0.955678 -0.192222 -0.223004
outer loop
vertex 0.705803 0.653574 0.025470
vertex 0.701345 0.640444 0.017683
vertex 0.704032 0.655934 0.015846
endloop
endfacet
facet normal 0.756622 0.583781 0.294488
outer loop
vertex 0.708016 0.665017 0.031019
vertex 0.697317 0.676196 0.036345
vertex 0.707649 0.664754 0.032483
endloop
endfacet
facet normal 0.754490 0.555799 0.349044
outer loop
vertex 0.708016 0.665017 0.031019
vertex 0.698907 0.679304 0.027959
vertex 0.697317 0.676196 0.036345
endloop
endfacet
facet normal 0.943472 -0.273384 0.187408
outer loop
vertex 0.705803 0.653574 0.025470
vertex 0.708016 0.665017 0.031019
vertex 0.707649 0.664754 0.032483
endloop
endfacet
facet normal 0.819598 0.553916 0.146409
outer loop
vertex 0.698907 0.679304 0.027959
vertex 0.708016 0.665017 0.031019
vertex 0.706720 0.671432 0.014004
endloop
endfacet
facet normal 0.339376 -0.011024 0.940586
outer loop
vertex 0.697317 0.676196 0.036345
vertex 0.706477 0.651627 0.032752
vertex 0.707649 0.664754 0.032483
endloop
endfacet
facet normal 0.989124 -0.090682 -0.115800
outer loop
vertex 0.705803 0.653574 0.025470
vertex 0.707649 0.664754 0.032483
vertex 0.706477 0.651627 0.032752
endloop
endfacet
facet normal 0.880907 0.384110 0.276518
outer loop
vertex 0.698907 0.679304 0.027959
vertex 0.706720 0.671432 0.014004
vertex 0.700225 0.684388 0.016698
endloop
endfacet
facet normal 0.611409 0.697184 0.374318
outer loop
vertex 0.698907 0.679304 0.027959
vertex 0.685980 0.684912 0.038629
vertex 0.697317 0.676196 0.036345
endloop
endfacet
facet normal 0.199361 0.285498 0.937415
outer loop
vertex 0.670980 0.672852 0.045492
vertex 0.685980 0.684912 0.038629
vertex 0.672629 0.690541 0.039754
endloop
endfacet
facet normal 0.390963 0.278664 0.877208
outer loop
vertex 0.697317 0.676196 0.036345
vertex 0.685980 0.684912 0.038629
vertex 0.684306 0.672374 0.043358
endloop
endfacet
facet normal 0.160807 0.329441 0.930381
outer loop
vertex 0.670980 0.672852 0.045492
vertex 0.684306 0.672374 0.043358
vertex 0.685980 0.684912 0.038629
endloop
endfacet
facet normal -0.039275 0.303457 0.952035
outer loop
vertex 0.656633 0.670563 0.045462
vertex 0.672629 0.690541 0.039754
vertex 0.657948 0.687386 0.040154
endloop
endfacet
facet normal -0.051842 0.312508 0.948500
outer loop
vertex 0.656633 0.670563 0.045462
vertex 0.670980 0.672852 0.045492
vertex 0.672629 0.690541 0.039754
endloop
endfacet
facet normal -0.385451 0.852269 0.353644
outer loop
vertex 0.641674 0.687838 0.021327
vertex 0.644165 0.681464 0.039403
vertex 0.657948 0.687386 0.040154
endloop
endfacet
facet normal -0.181778 0.191020 0.964608
outer loop
vertex 0.655507 0.640107 0.052300
vertex 0.641290 0.650645 0.047534
vertex 0.640620 0.635949 0.050318
endloop
endfacet
facet normal 0.134041 0.234825 0.962751
outer loop
vertex 0.684286 0.628979 0.053401
vertex 0.670150 0.642591 0.052049
vertex 0.670091 0.628599 0.055470
endloop
endfacet
facet normal -0.023648 0.237526 0.971093
outer loop
vertex 0.655507 0.640107 0.052300
vertex 0.670091 0.628599 0.055470
vertex 0.670150 0.642591 0.052049
endloop
endfacet
facet normal 0.116833 0.217578 0.969025
outer loop
vertex 0.684286 0.628979 0.053401
vertex 0.684377 0.643320 0.050170
vertex 0.670150 0.642591 0.052049
endloop
endfacet
facet normal 0.943545 -0.045429 0.328114
outer loop
vertex 0.694142 0.599220 0.053392
vertex 0.691752 0.587389 0.058627
vertex 0.695159 0.582921 0.048211
endloop
endfacet
facet normal 0.660007 0.320975 0.679239
outer loop
vertex 0.683281 0.591717 0.067491
vertex 0.694142 0.599220 0.053392
vertex 0.683830 0.603008 0.061622
endloop
endfacet
facet normal 0.748553 0.135947 0.648989
outer loop
vertex 0.683281 0.591717 0.067491
vertex 0.691752 0.587389 0.058627
vertex 0.694142 0.599220 0.053392
endloop
endfacet
facet normal 0.951885 0.011971 0.306222
outer loop
vertex 0.695159 0.582921 0.048211
vertex 0.691752 0.587389 0.058627
vertex 0.690186 0.576437 0.063923
endloop
endfacet
facet normal 0.754872 0.194898 0.626245
outer loop
vertex 0.683281 0.591717 0.067491
vertex 0.690186 0.576437 0.063923
vertex 0.691752 0.587389 0.058627
endloop
endfacet
facet normal 0.383302 0.411244 0.827017
outer loop
vertex 0.671633 0.594077 0.071716
vertex 0.683281 0.591717 0.067491
vertex 0.683830 0.603008 0.061622
endloop
endfacet
facet normal 0.854362 0.284539 0.434859
outer loop
vertex 0.683281 0.591717 0.067491
vertex 0.683304 0.581624 0.074050
vertex 0.690186 0.576437 0.063923
endloop
endfacet
facet normal 0.382930 0.503985 0.774187
outer loop
vertex 0.683304 0.581624 0.074050
vertex 0.683281 0.591717 0.067491
vertex 0.671633 0.594077 0.071716
endloop
endfacet
facet normal 0.203071 0.598526 0.774938
outer loop
vertex 0.671633 0.594077 0.071716
vertex 0.683830 0.603008 0.061622
vertex 0.670718 0.603764 0.064474
endloop
endfacet
facet normal -0.170555 0.579610 0.796846
outer loop
vertex 0.658721 0.590844 0.071304
vertex 0.671633 0.594077 0.071716
vertex 0.670718 0.603764 0.064474
endloop
endfacet
facet normal 0.559858 0.626366 0.542425
outer loop
vertex 0.683304 0.581624 0.074050
vertex 0.671633 0.594077 0.071716
vertex 0.673104 0.585533 0.080064
endloop
endfacet
facet normal -0.190455 0.669091 0.718362
outer loop
vertex 0.658721 0.590844 0.071304
vertex 0.673104 0.585533 0.080064
vertex 0.671633 0.594077 0.071716
endloop
endfacet
facet normal -0.060470 0.367907 0.927894
outer loop
vertex 0.655962 0.613117 0.059804
vertex 0.656952 0.601002 0.064672
vertex 0.670718 0.603764 0.064474
endloop
endfacet
facet normal -0.094764 0.532604 0.841043
outer loop
vertex 0.658721 0.590844 0.071304
vertex 0.670718 0.603764 0.064474
vertex 0.656952 0.601002 0.064672
endloop
endfacet
facet normal -0.031188 -0.094869 -0.995001
outer loop
vertex 0.648620 0.581650 0.028223
vertex 0.634589 0.583263 0.028509
vertex 0.633103 0.598991 0.027056
endloop
endfacet
facet normal -0.982524 -0.106913 -0.152369
outer loop
vertex 0.634589 0.583263 0.028509
vertex 0.630229 0.600291 0.044676
vertex 0.633103 0.598991 0.027056
endloop
endfacet
facet normal -0.150536 0.005604 -0.988589
outer loop
vertex 0.677766 0.547528 0.025195
vertex 0.677659 0.563177 0.025300
vertex 0.691146 0.562594 0.023243
endloop
endfacet
facet normal -0.132089 -0.011112 -0.991176
outer loop
vertex 0.677766 0.547528 0.025195
vertex 0.691146 0.562594 0.023243
vertex 0.692092 0.546979 0.023292
endloop
endfacet
facet normal 0.945239 0.056262 -0.321493
outer loop
vertex 0.696768 0.551223 0.037783
vertex 0.692092 0.546979 0.023292
vertex 0.691146 0.562594 0.023243
endloop
endfacet
facet normal 0.025347 0.995037 -0.096219
outer loop
vertex 0.676592 0.546433 0.013563
vertex 0.677766 0.547528 0.025195
vertex 0.692092 0.546979 0.023292
endloop
endfacet
facet normal 0.080805 0.979650 -0.183727
outer loop
vertex 0.676592 0.546433 0.013563
vertex 0.692092 0.546979 0.023292
vertex 0.690969 0.545030 0.012405
endloop
endfacet
facet normal 0.943489 -0.020205 -0.330788
outer loop
vertex 0.697185 0.536704 0.038446
vertex 0.692588 0.534807 0.025450
vertex 0.692092 0.546979 0.023292
endloop
endfacet
facet normal 0.950469 0.013111 -0.310543
outer loop
vertex 0.697185 0.536704 0.038446
vertex 0.692092 0.546979 0.023292
vertex 0.696768 0.551223 0.037783
endloop
endfacet
facet normal 0.994087 0.021648 -0.106411
outer loop
vertex 0.692588 0.534807 0.025450
vertex 0.690969 0.545030 0.012405
vertex 0.692092 0.546979 0.023292
endloop
endfacet
facet normal -0.076877 0.034651 -0.996438
outer loop
vertex 0.690528 0.528236 0.011855
vertex 0.676592 0.546433 0.013563
vertex 0.690969 0.545030 0.012405
endloop
endfacet
facet normal 0.989969 -0.021417 -0.139652
outer loop
vertex 0.692588 0.534807 0.025450
vertex 0.690528 0.528236 0.011855
vertex 0.690969 0.545030 0.012405
endloop
endfacet
facet normal 0.989663 -0.015218 -0.142606
outer loop
vertex 0.690528 0.528236 0.011855
vertex 0.692588 0.534807 0.025450
vertex 0.692491 0.522112 0.026131
endloop
endfacet
facet normal 0.949603 -0.024014 -0.312535
outer loop
vertex 0.692588 0.534807 0.025450
vertex 0.696723 0.522172 0.038985
vertex 0.692491 0.522112 0.026131
endloop
endfacet
facet normal 0.943839 -0.042160 -0.327704
outer loop
vertex 0.692588 0.534807 0.025450
vertex 0.697185 0.536704 0.038446
vertex 0.696723 0.522172 0.038985
endloop
endfacet
facet normal 0.988896 -0.024653 -0.146551
outer loop
vertex 0.692491 0.522112 0.026131
vertex 0.690028 0.511432 0.011308
vertex 0.690528 0.528236 0.011855
endloop
endfacet
facet normal 0.989542 -0.033471 -0.140308
outer loop
vertex 0.692491 0.522112 0.026131
vertex 0.691980 0.508731 0.025719
vertex 0.690028 0.511432 0.011308
endloop
endfacet
facet normal 0.949543 -0.026647 -0.312502
outer loop
vertex 0.691980 0.508731 0.025719
vertex 0.692491 0.522112 0.026131
vertex 0.696723 0.522172 0.038985
endloop
endfacet
facet normal 0.955475 -0.050179 -0.290775
outer loop
vertex 0.691980 0.508731 0.025719
vertex 0.696723 0.522172 0.038985
vertex 0.696130 0.507641 0.039544
endloop
endfacet
facet normal 0.955892 -0.043957 -0.290410
outer loop
vertex 0.691223 0.493798 0.025488
vertex 0.691980 0.508731 0.025719
vertex 0.696130 0.507641 0.039544
endloop
endfacet
facet normal 0.991975 -0.048481 -0.116773
outer loop
vertex 0.691980 0.508731 0.025719
vertex 0.691223 0.493798 0.025488
vertex 0.689525 0.494623 0.010721
endloop
endfacet
facet normal 0.990018 -0.024779 -0.138744
outer loop
vertex 0.691980 0.508731 0.025719
vertex 0.689525 0.494623 0.010721
vertex 0.690028 0.511432 0.011308
endloop
endfacet
facet normal -0.074659 0.037333 -0.996510
outer loop
vertex 0.689020 0.477811 0.010129
vertex 0.675268 0.494806 0.011796
vertex 0.689525 0.494623 0.010721
endloop
endfacet
facet normal -0.074664 0.037035 -0.996521
outer loop
vertex 0.675268 0.494806 0.011796
vertex 0.690028 0.511432 0.011308
vertex 0.689525 0.494623 0.010721
endloop
endfacet
facet normal 0.992960 -0.025751 -0.115616
outer loop
vertex 0.691223 0.493798 0.025488
vertex 0.689020 0.477811 0.010129
vertex 0.689525 0.494623 0.010721
endloop
endfacet
facet normal -0.074618 0.037364 -0.996512
outer loop
vertex 0.689020 0.477811 0.010129
vertex 0.674874 0.481698 0.011334
vertex 0.675268 0.494806 0.011796
endloop
endfacet
facet normal -0.074776 0.036796 -0.996521
outer loop
vertex 0.674874 0.481698 0.011334
vertex 0.689020 0.477811 0.010129
vertex 0.676218 0.470536 0.010821
endloop
endfacet
facet normal 0.994567 -0.093928 -0.044885
outer loop
vertex 0.691223 0.493798 0.025488
vertex 0.689797 0.478794 0.025289
vertex 0.689020 0.477811 0.010129
endloop
endfacet
facet normal 0.508555 -0.860516 0.029732
outer loop
vertex 0.677081 0.471315 0.026328
vertex 0.689020 0.477811 0.010129
vertex 0.689797 0.478794 0.025289
endloop
endfacet
facet normal 0.494656 -0.868939 0.016123
outer loop
vertex 0.677081 0.471315 0.026328
vertex 0.676218 0.470536 0.010821
vertex 0.689020 0.477811 0.010129
endloop
endfacet
facet normal 0.973499 -0.089736 -0.210349
outer loop
vertex 0.689797 0.478794 0.025289
vertex 0.691223 0.493798 0.025488
vertex 0.694323 0.493228 0.040078
endloop
endfacet
facet normal 0.548927 -0.834230 0.052342
outer loop
vertex 0.677359 0.471645 0.041787
vertex 0.689797 0.478794 0.025289
vertex 0.689499 0.479552 0.040494
endloop
endfacet
facet normal 0.507510 -0.861596 0.009269
outer loop
vertex 0.677359 0.471645 0.041787
vertex 0.677081 0.471315 0.026328
vertex 0.689797 0.478794 0.025289
endloop
endfacet
facet normal 0.942806 -0.331498 0.035007
outer loop
vertex 0.689797 0.478794 0.025289
vertex 0.694323 0.493228 0.040078
vertex 0.689499 0.479552 0.040494
endloop
endfacet
facet normal 0.942895 -0.331640 0.031042
outer loop
vertex 0.690325 0.483241 0.054817
vertex 0.689499 0.479552 0.040494
vertex 0.694323 0.493228 0.040078
endloop
endfacet
facet normal 0.635560 -0.755713 0.157989
outer loop
vertex 0.689499 0.479552 0.040494
vertex 0.690325 0.483241 0.054817
vertex 0.679498 0.474405 0.056107
endloop
endfacet
facet normal 0.549930 -0.831548 0.078135
outer loop
vertex 0.689499 0.479552 0.040494
vertex 0.679498 0.474405 0.056107
vertex 0.677359 0.471645 0.041787
endloop
endfacet
facet normal 0.968916 -0.129291 -0.210918
outer loop
vertex 0.691223 0.493798 0.025488
vertex 0.696130 0.507641 0.039544
vertex 0.694323 0.493228 0.040078
endloop
endfacet
facet normal -0.995364 -0.024746 0.092946
outer loop
vertex 0.633744 0.536335 0.016274
vertex 0.634355 0.552226 0.027047
vertex 0.633439 0.550598 0.016804
endloop
endfacet
facet normal -0.984800 0.121806 -0.123825
outer loop
vertex 0.633744 0.536335 0.016274
vertex 0.632273 0.540899 0.032463
vertex 0.634355 0.552226 0.027047
endloop
endfacet
facet normal -0.069973 0.035547 -0.996915
outer loop
vertex 0.647825 0.549217 0.015745
vertex 0.633744 0.536335 0.016274
vertex 0.633439 0.550598 0.016804
endloop
endfacet
facet normal -0.070182 0.035777 -0.996892
outer loop
vertex 0.647825 0.549217 0.015745
vertex 0.647326 0.535532 0.015289
vertex 0.633744 0.536335 0.016274
endloop
endfacet
facet normal -0.074447 0.036836 -0.996544
outer loop
vertex 0.661704 0.480457 0.012272
vertex 0.674874 0.481698 0.011334
vertex 0.676218 0.470536 0.010821
endloop
endfacet
facet normal -0.073385 0.037081 -0.996614
outer loop
vertex 0.648064 0.481576 0.013318
vertex 0.661704 0.480457 0.012272
vertex 0.661687 0.468275 0.011820
endloop
endfacet
facet normal -0.074282 0.037079 -0.996548
outer loop
vertex 0.661704 0.480457 0.012272
vertex 0.676218 0.470536 0.010821
vertex 0.661687 0.468275 0.011820
endloop
endfacet
facet normal -0.072616 0.034096 -0.996777
outer loop
vertex 0.648064 0.481576 0.013318
vertex 0.634966 0.479290 0.014194
vertex 0.634661 0.493550 0.014704
endloop
endfacet
facet normal -0.073846 0.036606 -0.996598
outer loop
vertex 0.648064 0.481576 0.013318
vertex 0.661687 0.468275 0.011820
vertex 0.647314 0.471324 0.012997
endloop
endfacet
facet normal -0.073036 0.036549 -0.996659
outer loop
vertex 0.634966 0.479290 0.014194
vertex 0.648064 0.481576 0.013318
vertex 0.647314 0.471324 0.012997
endloop
endfacet
facet normal -0.994797 -0.024814 0.098806
outer loop
vertex 0.636430 0.480672 0.029281
vertex 0.634661 0.493550 0.014704
vertex 0.634966 0.479290 0.014194
endloop
endfacet
facet normal -0.528835 -0.838992 0.128169
outer loop
vertex 0.647314 0.471324 0.012997
vertex 0.636430 0.480672 0.029281
vertex 0.634966 0.479290 0.014194
endloop
endfacet
facet normal -0.993377 -0.113014 0.020715
outer loop
vertex 0.636430 0.480672 0.029281
vertex 0.634803 0.495009 0.029472
vertex 0.634661 0.493550 0.014704
endloop
endfacet
facet normal -0.945269 0.071022 -0.318469
outer loop
vertex 0.632273 0.540899 0.032463
vertex 0.628393 0.540910 0.043982
vertex 0.629400 0.555839 0.044322
endloop
endfacet
facet normal -0.971715 -0.053271 0.230070
outer loop
vertex 0.637006 0.511521 0.075282
vertex 0.632720 0.526735 0.060703
vertex 0.633403 0.511727 0.060112
endloop
endfacet
facet normal -0.952868 -0.205124 0.223533
outer loop
vertex 0.637006 0.511521 0.075282
vertex 0.633403 0.511727 0.060112
vertex 0.636397 0.497655 0.059962
endloop
endfacet
facet normal -0.873922 -0.415197 0.252728
outer loop
vertex 0.642598 0.484799 0.060284
vertex 0.640211 0.498727 0.074912
vertex 0.636397 0.497655 0.059962
endloop
endfacet
facet normal -0.935902 -0.241860 0.256109
outer loop
vertex 0.637006 0.511521 0.075282
vertex 0.636397 0.497655 0.059962
vertex 0.640211 0.498727 0.074912
endloop
endfacet
facet normal -0.636919 -0.739555 0.217698
outer loop
vertex 0.642598 0.484799 0.060284
vertex 0.649841 0.473673 0.043678
vertex 0.653242 0.475420 0.059563
endloop
endfacet
facet normal 0.635389 -0.769927 0.059110
outer loop
vertex 0.690325 0.483241 0.054817
vertex 0.681189 0.476837 0.069607
vertex 0.679498 0.474405 0.056107
endloop
endfacet
facet normal 0.255314 -0.956616 0.140356
outer loop
vertex 0.669152 0.473874 0.071308
vertex 0.679498 0.474405 0.056107
vertex 0.681189 0.476837 0.069607
endloop
endfacet
facet normal -0.978285 -0.103527 0.179559
outer loop
vertex 0.637006 0.511521 0.075282
vertex 0.635937 0.524642 0.077023
vertex 0.632720 0.526735 0.060703
endloop
endfacet
facet normal 0.002508 0.003273 0.999991
outer loop
vertex 0.645687 0.505902 0.107823
vertex 0.694361 0.511065 0.107684
vertex 0.640352 0.518547 0.107795
endloop
endfacet
facet normal -0.004084 -0.044301 0.999010
outer loop
vertex 0.699103 0.526007 0.108366
vertex 0.640352 0.518547 0.107795
vertex 0.694361 0.511065 0.107684
endloop
endfacet
facet normal 0.001392 -0.074252 0.997239
outer loop
vertex 0.696194 0.541325 0.109413
vertex 0.643402 0.546043 0.109838
vertex 0.640352 0.518547 0.107795
endloop
endfacet
facet normal -0.001013 -0.068383 0.997659
outer loop
vertex 0.696194 0.541325 0.109413
vertex 0.640352 0.518547 0.107795
vertex 0.699103 0.526007 0.108366
endloop
endfacet
facet normal -0.788044 0.583260 0.196963
outer loop
vertex 0.642581 0.549288 0.096944
vertex 0.643402 0.546043 0.109838
vertex 0.652217 0.557170 0.112156
endloop
endfacet
facet normal -0.010975 0.883372 0.468543
outer loop
vertex 0.677579 0.564050 0.113421
vertex 0.676235 0.570284 0.101636
vertex 0.662145 0.569832 0.102158
endloop
endfacet
facet normal 0.953205 -0.301483 -0.022558
outer loop
vertex 0.693370 0.508983 0.093634
vertex 0.699103 0.526007 0.108366
vertex 0.694361 0.511065 0.107684
endloop
endfacet
facet normal 0.946300 -0.323247 0.005284
outer loop
vertex 0.693370 0.508983 0.093634
vertex 0.698492 0.523960 0.092572
vertex 0.699103 0.526007 0.108366
endloop
endfacet
facet normal 0.937414 -0.309235 0.160094
outer loop
vertex 0.698492 0.523960 0.092572
vertex 0.693370 0.508983 0.093634
vertex 0.694349 0.504906 0.080027
endloop
endfacet
facet normal 0.901209 -0.433385 0.000652
outer loop
vertex 0.687134 0.496017 0.094723
vertex 0.693370 0.508983 0.093634
vertex 0.694361 0.511065 0.107684
endloop
endfacet
facet normal 0.917832 -0.357253 0.173076
outer loop
vertex 0.693370 0.508983 0.093634
vertex 0.688650 0.491182 0.081920
vertex 0.694349 0.504906 0.080027
endloop
endfacet
facet normal 0.879430 -0.401489 0.255754
outer loop
vertex 0.693370 0.508983 0.093634
vertex 0.687134 0.496017 0.094723
vertex 0.688650 0.491182 0.081920
endloop
endfacet
facet normal 0.965190 -0.253152 0.065744
outer loop
vertex 0.698492 0.523960 0.092572
vertex 0.694349 0.504906 0.080027
vertex 0.698318 0.519434 0.077699
endloop
endfacet
facet normal 0.951181 -0.226214 0.209958
outer loop
vertex 0.698318 0.519434 0.077699
vertex 0.694349 0.504906 0.080027
vertex 0.696179 0.500255 0.066725
endloop
endfacet
facet normal 0.906959 -0.342881 0.244660
outer loop
vertex 0.688650 0.491182 0.081920
vertex 0.696179 0.500255 0.066725
vertex 0.694349 0.504906 0.080027
endloop
endfacet
facet normal 0.981943 -0.163735 0.094761
outer loop
vertex 0.698318 0.519434 0.077699
vertex 0.696179 0.500255 0.066725
vertex 0.698785 0.514543 0.064409
endloop
endfacet
facet normal -0.481354 -0.788023 0.383820
outer loop
vertex 0.664401 0.484486 0.096922
vertex 0.651054 0.490205 0.091925
vertex 0.661481 0.480928 0.085955
endloop
endfacet
facet normal 0.173063 -0.964024 0.201759
outer loop
vertex 0.664401 0.484486 0.096922
vertex 0.678194 0.489135 0.107304
vertex 0.665725 0.487006 0.107827
endloop
endfacet
endsolid Exported from Blender-4.0.2
