solid Exported from Blender-4.0.2
facet normal 0.245877 -0.969084 -0.020503
outer loop
vertex 0.857897 -0.039463 1.180016
vertex 0.874675 -0.035446 1.191353
vertex 0.860245 -0.039216 1.196499
endloop
endfacet
facet normal 0.531687 -0.843649 -0.074601
outer loop
vertex 0.870145 -0.037049 1.177194
vertex 0.886221 -0.027651 1.185492
vertex 0.874675 -0.035446 1.191353
endloop
endfacet
facet normal 0.203292 -0.978052 0.045684
outer loop
vertex 0.857897 -0.039463 1.180016
vertex 0.870145 -0.037049 1.177194
vertex 0.874675 -0.035446 1.191353
endloop
endfacet
facet normal 0.238888 -0.943491 0.229691
outer loop
vertex 0.867985 -0.040516 1.165199
vertex 0.870145 -0.037049 1.177194
vertex 0.857897 -0.039463 1.180016
endloop
endfacet
facet normal 0.667162 -0.739026 0.093465
outer loop
vertex 0.867985 -0.040516 1.165199
vertex 0.879245 -0.030041 1.167648
vertex 0.870145 -0.037049 1.177194
endloop
endfacet
facet normal 0.539826 -0.835926 -0.099074
outer loop
vertex 0.870145 -0.037049 1.177194
vertex 0.879245 -0.030041 1.167648
vertex 0.886221 -0.027651 1.185492
endloop
endfacet
facet normal 0.611566 -0.729174 0.307072
outer loop
vertex 0.879245 -0.030041 1.167648
vertex 0.867985 -0.040516 1.165199
vertex 0.867701 -0.045664 1.153540
endloop
endfacet
facet normal 0.700726 -0.689949 -0.181532
outer loop
vertex 0.886221 -0.027651 1.185492
vertex 0.879245 -0.030041 1.167648
vertex 0.888163 -0.019720 1.162845
endloop
endfacet
facet normal 0.608469 -0.730210 0.310738
outer loop
vertex 0.879245 -0.030041 1.167648
vertex 0.867701 -0.045664 1.153540
vertex 0.879011 -0.037286 1.151081
endloop
endfacet
facet normal 0.786971 -0.569302 0.237849
outer loop
vertex 0.888163 -0.019720 1.162845
vertex 0.879245 -0.030041 1.167648
vertex 0.879011 -0.037286 1.151081
endloop
endfacet
facet normal 0.812703 -0.550776 0.190158
outer loop
vertex 0.888163 -0.019720 1.162845
vertex 0.879011 -0.037286 1.151081
vertex 0.887131 -0.026655 1.147169
endloop
endfacet
facet normal 0.880709 -0.451892 0.141936
outer loop
vertex 0.894946 -0.008411 1.156762
vertex 0.888163 -0.019720 1.162845
vertex 0.887131 -0.026655 1.147169
endloop
endfacet
facet normal 0.825088 -0.554154 -0.110198
outer loop
vertex 0.900582 -0.003251 1.173012
vertex 0.888163 -0.019720 1.162845
vertex 0.894946 -0.008411 1.156762
endloop
endfacet
facet normal 0.841101 -0.477984 -0.253141
outer loop
vertex 0.900582 -0.003251 1.173012
vertex 0.894998 -0.016458 1.179396
vertex 0.888163 -0.019720 1.162845
endloop
endfacet
facet normal 0.728393 -0.663739 -0.169985
outer loop
vertex 0.886221 -0.027651 1.185492
vertex 0.888163 -0.019720 1.162845
vertex 0.894998 -0.016458 1.179396
endloop
endfacet
facet normal 0.888394 0.259030 -0.379024
outer loop
vertex 0.895773 0.028171 1.135808
vertex 0.893629 0.046567 1.143355
vertex 0.898974 0.035574 1.148370
endloop
endfacet
facet normal 0.956777 0.066660 -0.283079
outer loop
vertex 0.898974 0.035574 1.148370
vertex 0.898376 0.016172 1.141780
vertex 0.895773 0.028171 1.135808
endloop
endfacet
facet normal 0.957984 0.065327 -0.279283
outer loop
vertex 0.898974 0.035574 1.148370
vertex 0.901462 0.024001 1.154197
vertex 0.898376 0.016172 1.141780
endloop
endfacet
facet normal 0.981840 -0.054721 -0.181647
outer loop
vertex 0.898376 0.016172 1.141780
vertex 0.902050 0.009049 1.163784
vertex 0.898993 0.003091 1.149055
endloop
endfacet
facet normal 0.992080 -0.021983 -0.123673
outer loop
vertex 0.898993 0.003091 1.149055
vertex 0.896513 0.009542 1.128014
vertex 0.898376 0.016172 1.141780
endloop
endfacet
facet normal 0.974981 0.117643 -0.188606
outer loop
vertex 0.895773 0.028171 1.135808
vertex 0.898376 0.016172 1.141780
vertex 0.896513 0.009542 1.128014
endloop
endfacet
facet normal 0.978144 -0.083599 -0.190381
outer loop
vertex 0.898376 0.016172 1.141780
vertex 0.901462 0.024001 1.154197
vertex 0.902050 0.009049 1.163784
endloop
endfacet
facet normal 0.974795 0.117943 -0.189377
outer loop
vertex 0.895773 0.028171 1.135808
vertex 0.896513 0.009542 1.128014
vertex 0.893988 0.021600 1.122527
endloop
endfacet
facet normal 0.982235 0.175690 -0.065930
outer loop
vertex 0.893988 0.021600 1.122527
vertex 0.896513 0.009542 1.128014
vertex 0.896638 0.003316 1.113285
endloop
endfacet
facet normal 0.999064 -0.036148 0.023762
outer loop
vertex 0.895908 -0.003044 1.134299
vertex 0.896638 0.003316 1.113285
vertex 0.896513 0.009542 1.128014
endloop
endfacet
facet normal 0.980366 -0.123782 -0.153497
outer loop
vertex 0.898993 0.003091 1.149055
vertex 0.895908 -0.003044 1.134299
vertex 0.896513 0.009542 1.128014
endloop
endfacet
facet normal 0.951624 -0.297953 -0.075071
outer loop
vertex 0.892614 -0.015241 1.140953
vertex 0.895908 -0.003044 1.134299
vertex 0.898993 0.003091 1.149055
endloop
endfacet
facet normal 0.972362 -0.220084 0.077946
outer loop
vertex 0.892217 -0.022567 1.125220
vertex 0.895908 -0.003044 1.134299
vertex 0.892614 -0.015241 1.140953
endloop
endfacet
facet normal 0.973710 -0.216717 0.070161
outer loop
vertex 0.892217 -0.022567 1.125220
vertex 0.895463 -0.009829 1.119517
vertex 0.895908 -0.003044 1.134299
endloop
endfacet
facet normal 0.996355 -0.084832 0.008939
outer loop
vertex 0.895908 -0.003044 1.134299
vertex 0.895463 -0.009829 1.119517
vertex 0.896638 0.003316 1.113285
endloop
endfacet
facet normal 0.987124 -0.012630 0.159458
outer loop
vertex 0.896638 0.003316 1.113285
vertex 0.895463 -0.009829 1.119517
vertex 0.897696 -0.017091 1.105118
endloop
endfacet
facet normal 0.952557 -0.185521 0.241284
outer loop
vertex 0.894286 -0.031549 1.107464
vertex 0.897696 -0.017091 1.105118
vertex 0.895463 -0.009829 1.119517
endloop
endfacet
facet normal 0.967937 -0.159940 0.193694
outer loop
vertex 0.894286 -0.031549 1.107464
vertex 0.895463 -0.009829 1.119517
vertex 0.892217 -0.022567 1.125220
endloop
endfacet
facet normal 0.928863 -0.275511 0.247603
outer loop
vertex 0.894286 -0.031549 1.107464
vertex 0.892217 -0.022567 1.125220
vertex 0.887115 -0.033830 1.131827
endloop
endfacet
facet normal 0.906568 -0.351287 0.233948
outer loop
vertex 0.894286 -0.031549 1.107464
vertex 0.887115 -0.033830 1.131827
vertex 0.888063 -0.040939 1.117479
endloop
endfacet
facet normal 0.910559 -0.299102 0.285343
outer loop
vertex 0.888063 -0.040939 1.117479
vertex 0.890187 -0.045955 1.105443
vertex 0.894286 -0.031549 1.107464
endloop
endfacet
facet normal 0.561913 -0.718054 0.410673
outer loop
vertex 0.869653 -0.059661 1.121133
vertex 0.885232 -0.059300 1.100448
vertex 0.881084 -0.051704 1.119405
endloop
endfacet
facet normal 0.567728 -0.710851 0.415181
outer loop
vertex 0.869653 -0.059661 1.121133
vertex 0.872069 -0.066455 1.106197
vertex 0.885232 -0.059300 1.100448
endloop
endfacet
facet normal 0.571594 -0.661749 0.485148
outer loop
vertex 0.872069 -0.066455 1.106197
vertex 0.877330 -0.070599 1.094346
vertex 0.885232 -0.059300 1.100448
endloop
endfacet
facet normal 0.824425 -0.439563 0.356521
outer loop
vertex 0.881084 -0.051704 1.119405
vertex 0.885232 -0.059300 1.100448
vertex 0.890187 -0.045955 1.105443
endloop
endfacet
facet normal 0.357964 -0.820445 0.445794
outer loop
vertex 0.872069 -0.066455 1.106197
vertex 0.867145 -0.077905 1.089078
vertex 0.877330 -0.070599 1.094346
endloop
endfacet
facet normal 0.736805 0.660433 -0.144728
outer loop
vertex 0.878670 0.025963 1.074014
vertex 0.887817 0.015550 1.073063
vertex 0.879406 0.022654 1.062661
endloop
endfacet
facet normal 0.724919 0.655985 -0.210183
outer loop
vertex 0.878954 0.029858 1.087150
vertex 0.887817 0.015550 1.073063
vertex 0.878670 0.025963 1.074014
endloop
endfacet
facet normal 0.758880 0.630512 -0.162959
outer loop
vertex 0.878954 0.029858 1.087150
vertex 0.887131 0.020822 1.090267
vertex 0.887817 0.015550 1.073063
endloop
endfacet
facet normal 0.809995 0.568971 -0.142056
outer loop
vertex 0.894519 0.011569 1.095333
vertex 0.887817 0.015550 1.073063
vertex 0.887131 0.020822 1.090267
endloop
endfacet
facet normal 0.727020 0.679689 -0.097289
outer loop
vertex 0.894519 0.011569 1.095333
vertex 0.896326 0.007882 1.083078
vertex 0.887817 0.015550 1.073063
endloop
endfacet
facet normal 0.503214 0.825480 -0.255653
outer loop
vertex 0.878670 0.025963 1.074014
vertex 0.868565 0.035407 1.084618
vertex 0.878954 0.029858 1.087150
endloop
endfacet
facet normal 0.470890 0.832287 -0.292508
outer loop
vertex 0.878670 0.025963 1.074014
vertex 0.868028 0.030788 1.070611
vertex 0.868565 0.035407 1.084618
endloop
endfacet
facet normal 0.460419 0.859816 -0.220749
outer loop
vertex 0.868028 0.030788 1.070611
vertex 0.878670 0.025963 1.074014
vertex 0.879406 0.022654 1.062661
endloop
endfacet
facet normal 0.226925 0.922301 -0.312835
outer loop
vertex 0.857140 0.037776 1.083315
vertex 0.868565 0.035407 1.084618
vertex 0.868028 0.030788 1.070611
endloop
endfacet
facet normal 0.226812 0.922295 -0.312934
outer loop
vertex 0.857140 0.037776 1.083315
vertex 0.868028 0.030788 1.070611
vertex 0.856802 0.032899 1.068696
endloop
endfacet
facet normal 0.216546 0.950865 -0.221276
outer loop
vertex 0.867201 0.027347 1.055015
vertex 0.856802 0.032899 1.068696
vertex 0.868028 0.030788 1.070611
endloop
endfacet
facet normal 0.464588 0.859227 -0.214214
outer loop
vertex 0.868028 0.030788 1.070611
vertex 0.879406 0.022654 1.062661
vertex 0.867201 0.027347 1.055015
endloop
endfacet
facet normal 0.067359 0.946018 -0.317037
outer loop
vertex 0.845801 0.033642 1.068577
vertex 0.856802 0.032899 1.068696
vertex 0.845801 0.033490 1.068124
endloop
endfacet
facet normal 0.063458 0.975242 -0.211838
outer loop
vertex 0.856802 0.032899 1.068696
vertex 0.845801 0.033371 1.067573
vertex 0.845801 0.033490 1.068124
endloop
endfacet
facet normal 0.232070 0.949955 -0.209114
outer loop
vertex 0.867201 0.027347 1.055015
vertex 0.856524 0.029261 1.051861
vertex 0.856802 0.032899 1.068696
endloop
endfacet
facet normal 0.080032 0.976365 -0.200766
outer loop
vertex 0.845801 0.033371 1.067573
vertex 0.856524 0.029261 1.051861
vertex 0.845801 0.029934 1.050861
endloop
endfacet
facet normal 0.042345 0.953036 -0.299881
outer loop
vertex 0.845801 0.038199 1.083060
vertex 0.857140 0.037776 1.083315
vertex 0.845801 0.033642 1.068577
endloop
endfacet
facet normal 0.043238 0.911129 -0.409847
outer loop
vertex 0.845801 0.038356 1.083408
vertex 0.857140 0.037776 1.083315
vertex 0.845801 0.038199 1.083060
endloop
endfacet
facet normal 0.030901 0.915571 -0.400968
outer loop
vertex 0.845801 0.044265 1.096902
vertex 0.857533 0.043901 1.096973
vertex 0.845801 0.038356 1.083408
endloop
endfacet
facet normal 0.029962 0.866123 -0.498932
outer loop
vertex 0.845801 0.044410 1.097152
vertex 0.857533 0.043901 1.096973
vertex 0.845801 0.044265 1.096902
endloop
endfacet
facet normal 0.243705 0.836149 -0.491388
outer loop
vertex 0.869143 0.041207 1.098147
vertex 0.857533 0.043901 1.096973
vertex 0.858113 0.051435 1.110081
endloop
endfacet
facet normal 0.245384 0.887157 -0.390819
outer loop
vertex 0.857533 0.043901 1.096973
vertex 0.869143 0.041207 1.098147
vertex 0.868565 0.035407 1.084618
endloop
endfacet
facet normal 0.229673 0.885574 -0.403744
outer loop
vertex 0.857533 0.043901 1.096973
vertex 0.868565 0.035407 1.084618
vertex 0.857140 0.037776 1.083315
endloop
endfacet
facet normal 0.305613 0.760827 -0.572489
outer loop
vertex 0.870919 0.057648 1.125174
vertex 0.858113 0.051435 1.110081
vertex 0.859228 0.060545 1.122783
endloop
endfacet
facet normal 0.037350 0.810593 -0.584418
outer loop
vertex 0.859228 0.060545 1.122783
vertex 0.845801 0.061048 1.122620
vertex 0.845801 0.061098 1.122690
endloop
endfacet
facet normal 0.022851 0.804114 -0.594036
outer loop
vertex 0.845801 0.061048 1.122620
vertex 0.858113 0.051435 1.110081
vertex 0.845801 0.051789 1.110087
endloop
endfacet
facet normal 0.024745 0.868322 -0.495383
outer loop
vertex 0.845801 0.051789 1.110087
vertex 0.858113 0.051435 1.110081
vertex 0.845801 0.044410 1.097152
endloop
endfacet
facet normal 0.271595 0.786751 -0.554309
outer loop
vertex 0.870919 0.057648 1.125174
vertex 0.869913 0.048331 1.111457
vertex 0.858113 0.051435 1.110081
endloop
endfacet
facet normal 0.275513 0.840809 -0.465975
outer loop
vertex 0.869143 0.041207 1.098147
vertex 0.858113 0.051435 1.110081
vertex 0.869913 0.048331 1.111457
endloop
endfacet
facet normal 0.592554 0.645491 -0.481893
outer loop
vertex 0.882126 0.048886 1.127218
vertex 0.869913 0.048331 1.111457
vertex 0.870919 0.057648 1.125174
endloop
endfacet
facet normal 0.299521 0.589735 -0.750000
outer loop
vertex 0.859228 0.060545 1.122783
vertex 0.867663 0.070029 1.133609
vertex 0.870919 0.057648 1.125174
endloop
endfacet
facet normal 0.527936 0.518325 -0.672772
outer loop
vertex 0.882126 0.048886 1.127218
vertex 0.870919 0.057648 1.125174
vertex 0.876130 0.065673 1.135446
endloop
endfacet
facet normal 0.446553 0.581020 -0.680446
outer loop
vertex 0.870919 0.057648 1.125174
vertex 0.867663 0.070029 1.133609
vertex 0.876130 0.065673 1.135446
endloop
endfacet
facet normal 0.661349 0.507112 -0.552680
outer loop
vertex 0.882126 0.048886 1.127218
vertex 0.876130 0.065673 1.135446
vertex 0.886145 0.056589 1.139095
endloop
endfacet
facet normal 0.793349 0.395825 -0.462515
outer loop
vertex 0.890159 0.039056 1.130975
vertex 0.886145 0.056589 1.139095
vertex 0.893629 0.046567 1.143355
endloop
endfacet
facet normal 0.747823 0.412232 -0.520409
outer loop
vertex 0.890159 0.039056 1.130975
vertex 0.882126 0.048886 1.127218
vertex 0.886145 0.056589 1.139095
endloop
endfacet
facet normal 0.131546 0.576181 -0.806667
outer loop
vertex 0.858061 0.072522 1.132846
vertex 0.845801 0.068398 1.127901
vertex 0.845801 0.074386 1.132178
endloop
endfacet
facet normal 0.031890 0.644774 -0.763707
outer loop
vertex 0.859228 0.060545 1.122783
vertex 0.845801 0.061164 1.122745
vertex 0.858061 0.072522 1.132846
endloop
endfacet
facet normal 0.224472 0.639583 -0.735218
outer loop
vertex 0.859228 0.060545 1.122783
vertex 0.858061 0.072522 1.132846
vertex 0.867663 0.070029 1.133609
endloop
endfacet
facet normal 0.897358 0.335552 -0.286626
outer loop
vertex 0.893988 0.021600 1.122527
vertex 0.890159 0.039056 1.130975
vertex 0.895773 0.028171 1.135808
endloop
endfacet
facet normal 0.887481 0.343403 -0.307330
outer loop
vertex 0.893988 0.021600 1.122527
vertex 0.888261 0.032224 1.117860
vertex 0.890159 0.039056 1.130975
endloop
endfacet
facet normal 0.872562 0.268991 -0.407774
outer loop
vertex 0.895773 0.028171 1.135808
vertex 0.890159 0.039056 1.130975
vertex 0.893629 0.046567 1.143355
endloop
endfacet
facet normal 0.783255 0.497676 -0.372599
outer loop
vertex 0.882126 0.048886 1.127218
vertex 0.890159 0.039056 1.130975
vertex 0.888261 0.032224 1.117860
endloop
endfacet
facet normal 0.866443 0.430805 -0.252358
outer loop
vertex 0.893732 0.015889 1.108758
vertex 0.887350 0.026136 1.104339
vertex 0.888261 0.032224 1.117860
endloop
endfacet
facet normal 0.779006 0.550417 -0.300319
outer loop
vertex 0.880274 0.041471 1.114089
vertex 0.888261 0.032224 1.117860
vertex 0.887350 0.026136 1.104339
endloop
endfacet
facet normal 0.769086 0.503955 -0.393110
outer loop
vertex 0.882126 0.048886 1.127218
vertex 0.888261 0.032224 1.117860
vertex 0.880274 0.041471 1.114089
endloop
endfacet
facet normal 0.896713 0.402692 -0.183695
outer loop
vertex 0.893732 0.015889 1.108758
vertex 0.888261 0.032224 1.117860
vertex 0.893988 0.021600 1.122527
endloop
endfacet
facet normal 0.567957 0.679773 -0.464040
outer loop
vertex 0.882126 0.048886 1.127218
vertex 0.880274 0.041471 1.114089
vertex 0.869913 0.048331 1.111457
endloop
endfacet
facet normal 0.575894 0.724419 -0.378898
outer loop
vertex 0.879424 0.035137 1.100687
vertex 0.869913 0.048331 1.111457
vertex 0.880274 0.041471 1.114089
endloop
endfacet
facet normal 0.772341 0.553977 -0.310805
outer loop
vertex 0.880274 0.041471 1.114089
vertex 0.887350 0.026136 1.104339
vertex 0.879424 0.035137 1.100687
endloop
endfacet
facet normal 0.758929 0.597324 -0.259289
outer loop
vertex 0.887131 0.020822 1.090267
vertex 0.878954 0.029858 1.087150
vertex 0.879424 0.035137 1.100687
endloop
endfacet
facet normal 0.539055 0.778212 -0.322187
outer loop
vertex 0.878954 0.029858 1.087150
vertex 0.869143 0.041207 1.098147
vertex 0.879424 0.035137 1.100687
endloop
endfacet
facet normal 0.535935 0.731056 -0.422293
outer loop
vertex 0.879424 0.035137 1.100687
vertex 0.869143 0.041207 1.098147
vertex 0.869913 0.048331 1.111457
endloop
endfacet
facet normal 0.774788 0.587375 -0.233867
outer loop
vertex 0.887131 0.020822 1.090267
vertex 0.879424 0.035137 1.100687
vertex 0.887350 0.026136 1.104339
endloop
endfacet
facet normal 0.868017 0.459903 -0.187179
outer loop
vertex 0.887131 0.020822 1.090267
vertex 0.887350 0.026136 1.104339
vertex 0.893732 0.015889 1.108758
endloop
endfacet
facet normal 0.939221 0.339035 -0.054039
outer loop
vertex 0.899827 -0.003091 1.095612
vertex 0.894519 0.011569 1.095333
vertex 0.893732 0.015889 1.108758
endloop
endfacet
facet normal 0.809236 0.571420 -0.136439
outer loop
vertex 0.887131 0.020822 1.090267
vertex 0.893732 0.015889 1.108758
vertex 0.894519 0.011569 1.095333
endloop
endfacet
facet normal 0.964077 0.252512 0.082423
outer loop
vertex 0.899827 -0.003091 1.095612
vertex 0.893732 0.015889 1.108758
vertex 0.896638 0.003316 1.113285
endloop
endfacet
facet normal 0.976808 0.190744 -0.097274
outer loop
vertex 0.893988 0.021600 1.122527
vertex 0.896638 0.003316 1.113285
vertex 0.893732 0.015889 1.108758
endloop
endfacet
facet normal 0.982320 -0.023411 0.185741
outer loop
vertex 0.896638 0.003316 1.113285
vertex 0.897696 -0.017091 1.105118
vertex 0.899827 -0.003091 1.095612
endloop
endfacet
facet normal 0.939433 0.340838 0.035982
outer loop
vertex 0.894519 0.011569 1.095333
vertex 0.899827 -0.003091 1.095612
vertex 0.896326 0.007882 1.083078
endloop
endfacet
facet normal 0.506284 0.784558 -0.357973
outer loop
vertex 0.878954 0.029858 1.087150
vertex 0.868565 0.035407 1.084618
vertex 0.869143 0.041207 1.098147
endloop
endfacet
facet normal 0.044646 -0.890088 0.453597
outer loop
vertex 0.845801 -0.075720 1.097650
vertex 0.845801 -0.081826 1.085668
vertex 0.856204 -0.080856 1.086548
endloop
endfacet
facet normal 0.047022 -0.889071 0.455348
outer loop
vertex 0.859036 -0.074509 1.098648
vertex 0.845801 -0.075720 1.097650
vertex 0.856204 -0.080856 1.086548
endloop
endfacet
facet normal 0.046921 -0.898224 0.437027
outer loop
vertex 0.845801 -0.069325 1.110724
vertex 0.845801 -0.075039 1.098980
vertex 0.859036 -0.074509 1.098648
endloop
endfacet
facet normal 0.052752 -0.895367 0.442194
outer loop
vertex 0.857510 -0.068231 1.111542
vertex 0.845801 -0.069325 1.110724
vertex 0.859036 -0.074509 1.098648
endloop
endfacet
facet normal 0.052775 -0.906089 0.419784
outer loop
vertex 0.845801 -0.063369 1.123509
vertex 0.845801 -0.068793 1.111801
vertex 0.857510 -0.068231 1.111542
endloop
endfacet
facet normal 0.070551 -0.898166 0.433960
outer loop
vertex 0.857262 -0.062194 1.124077
vertex 0.845801 -0.063369 1.123509
vertex 0.857510 -0.068231 1.111542
endloop
endfacet
facet normal 0.069946 -0.910994 0.406444
outer loop
vertex 0.857262 -0.062194 1.124077
vertex 0.845801 -0.062225 1.125980
vertex 0.845801 -0.062830 1.124625
endloop
endfacet
facet normal 0.082948 -0.914213 0.396654
outer loop
vertex 0.845801 -0.056727 1.138652
vertex 0.845801 -0.062225 1.125980
vertex 0.856806 -0.055810 1.138464
endloop
endfacet
facet normal 0.299029 -0.868680 0.394940
outer loop
vertex 0.857262 -0.062194 1.124077
vertex 0.868311 -0.052460 1.137121
vertex 0.856806 -0.055810 1.138464
endloop
endfacet
facet normal 0.083578 -0.929312 0.359714
outer loop
vertex 0.856806 -0.055810 1.138464
vertex 0.845801 -0.056205 1.140001
vertex 0.845801 -0.056727 1.138652
endloop
endfacet
facet normal 0.299264 -0.877653 0.374387
outer loop
vertex 0.856806 -0.055810 1.138464
vertex 0.868311 -0.052460 1.137121
vertex 0.867701 -0.045664 1.153540
endloop
endfacet
facet normal 0.342938 -0.875211 0.341174
outer loop
vertex 0.856806 -0.055810 1.138464
vertex 0.867701 -0.045664 1.153540
vertex 0.856669 -0.050041 1.153401
endloop
endfacet
facet normal 0.341817 -0.872602 0.348895
outer loop
vertex 0.867701 -0.045664 1.153540
vertex 0.856932 -0.044645 1.166639
vertex 0.856669 -0.050041 1.153401
endloop
endfacet
facet normal 0.105931 -0.921560 0.373505
outer loop
vertex 0.856669 -0.050041 1.153401
vertex 0.845801 -0.050892 1.154385
vertex 0.845801 -0.051341 1.153276
endloop
endfacet
facet normal 0.107741 -0.933498 0.342013
outer loop
vertex 0.845801 -0.051341 1.153276
vertex 0.845801 -0.056205 1.140001
vertex 0.856669 -0.050041 1.153401
endloop
endfacet
facet normal 0.123360 -0.924970 0.359463
outer loop
vertex 0.845801 -0.046010 1.166948
vertex 0.845801 -0.050892 1.154385
vertex 0.856932 -0.044645 1.166639
endloop
endfacet
facet normal 0.123553 -0.928852 0.349241
outer loop
vertex 0.845801 -0.041197 1.179749
vertex 0.845801 -0.046010 1.166948
vertex 0.856932 -0.044645 1.166639
endloop
endfacet
facet normal 0.125263 -0.928146 0.350507
outer loop
vertex 0.857897 -0.039463 1.180016
vertex 0.845801 -0.041197 1.179749
vertex 0.856932 -0.044645 1.166639
endloop
endfacet
facet normal 0.111224 -0.993795 -0.000977
outer loop
vertex 0.857897 -0.039463 1.180016
vertex 0.845801 -0.040818 1.181727
vertex 0.845801 -0.040817 1.180753
endloop
endfacet
facet normal 0.052910 -0.997005 0.056407
outer loop
vertex 0.845801 -0.039844 1.198947
vertex 0.845801 -0.040818 1.181727
vertex 0.860245 -0.039216 1.196499
endloop
endfacet
facet normal 0.367870 -0.875724 0.312696
outer loop
vertex 0.867985 -0.040516 1.165199
vertex 0.857897 -0.039463 1.180016
vertex 0.856932 -0.044645 1.166639
endloop
endfacet
facet normal 0.367080 -0.854201 0.368229
outer loop
vertex 0.867701 -0.045664 1.153540
vertex 0.867985 -0.040516 1.165199
vertex 0.856932 -0.044645 1.166639
endloop
endfacet
facet normal 0.275696 -0.867570 0.413900
outer loop
vertex 0.857262 -0.062194 1.124077
vertex 0.869653 -0.059661 1.121133
vertex 0.868311 -0.052460 1.137121
endloop
endfacet
facet normal 0.566807 -0.732318 0.377412
outer loop
vertex 0.868311 -0.052460 1.137121
vertex 0.869653 -0.059661 1.121133
vertex 0.881084 -0.051704 1.119405
endloop
endfacet
facet normal 0.578571 -0.718247 0.386493
outer loop
vertex 0.868311 -0.052460 1.137121
vertex 0.881084 -0.051704 1.119405
vertex 0.879520 -0.044472 1.135186
endloop
endfacet
facet normal 0.585081 -0.741412 0.328616
outer loop
vertex 0.867701 -0.045664 1.153540
vertex 0.868311 -0.052460 1.137121
vertex 0.879520 -0.044472 1.135186
endloop
endfacet
facet normal 0.824454 -0.512967 0.239041
outer loop
vertex 0.887131 -0.026655 1.147169
vertex 0.879520 -0.044472 1.135186
vertex 0.887115 -0.033830 1.131827
endloop
endfacet
facet normal 0.811016 -0.522890 0.262371
outer loop
vertex 0.887131 -0.026655 1.147169
vertex 0.879011 -0.037286 1.151081
vertex 0.879520 -0.044472 1.135186
endloop
endfacet
facet normal 0.606086 -0.717309 0.343697
outer loop
vertex 0.867701 -0.045664 1.153540
vertex 0.879520 -0.044472 1.135186
vertex 0.879011 -0.037286 1.151081
endloop
endfacet
facet normal 0.823740 -0.480068 0.301641
outer loop
vertex 0.888063 -0.040939 1.117479
vertex 0.879520 -0.044472 1.135186
vertex 0.881084 -0.051704 1.119405
endloop
endfacet
facet normal 0.819049 -0.490718 0.297247
outer loop
vertex 0.888063 -0.040939 1.117479
vertex 0.887115 -0.033830 1.131827
vertex 0.879520 -0.044472 1.135186
endloop
endfacet
facet normal 0.278357 -0.856510 0.434635
outer loop
vertex 0.872069 -0.066455 1.106197
vertex 0.869653 -0.059661 1.121133
vertex 0.857262 -0.062194 1.124077
endloop
endfacet
facet normal 0.261154 -0.867662 0.423038
outer loop
vertex 0.872069 -0.066455 1.106197
vertex 0.857262 -0.062194 1.124077
vertex 0.857510 -0.068231 1.111542
endloop
endfacet
facet normal 0.268270 -0.853256 0.447197
outer loop
vertex 0.859036 -0.074509 1.098648
vertex 0.872069 -0.066455 1.106197
vertex 0.857510 -0.068231 1.111542
endloop
endfacet
facet normal 0.139647 -0.889958 0.434136
outer loop
vertex 0.859036 -0.074509 1.098648
vertex 0.856204 -0.080856 1.086548
vertex 0.867145 -0.077905 1.089078
endloop
endfacet
facet normal 0.231844 -0.838069 0.493851
outer loop
vertex 0.872069 -0.066455 1.106197
vertex 0.859036 -0.074509 1.098648
vertex 0.867145 -0.077905 1.089078
endloop
endfacet
facet normal 0.815908 -0.468277 0.339133
outer loop
vertex 0.881084 -0.051704 1.119405
vertex 0.890187 -0.045955 1.105443
vertex 0.888063 -0.040939 1.117479
endloop
endfacet
facet normal 0.929966 -0.341705 0.135646
outer loop
vertex 0.887115 -0.033830 1.131827
vertex 0.892217 -0.022567 1.125220
vertex 0.892614 -0.015241 1.140953
endloop
endfacet
facet normal 0.921090 -0.353053 0.164157
outer loop
vertex 0.887115 -0.033830 1.131827
vertex 0.892614 -0.015241 1.140953
vertex 0.887131 -0.026655 1.147169
endloop
endfacet
facet normal 0.944000 -0.329929 0.003292
outer loop
vertex 0.892614 -0.015241 1.140953
vertex 0.898993 0.003091 1.149055
vertex 0.894946 -0.008411 1.156762
endloop
endfacet
facet normal 0.909689 -0.412931 0.044203
outer loop
vertex 0.894946 -0.008411 1.156762
vertex 0.887131 -0.026655 1.147169
vertex 0.892614 -0.015241 1.140953
endloop
endfacet
facet normal 0.929996 -0.285076 -0.232032
outer loop
vertex 0.894946 -0.008411 1.156762
vertex 0.902050 0.009049 1.163784
vertex 0.900582 -0.003251 1.173012
endloop
endfacet
facet normal 0.931772 -0.359882 -0.047814
outer loop
vertex 0.894946 -0.008411 1.156762
vertex 0.898993 0.003091 1.149055
vertex 0.902050 0.009049 1.163784
endloop
endfacet
facet normal 0.051210 0.446884 0.893125
outer loop
vertex 0.901462 0.024001 1.154197
vertex 0.893629 0.046567 1.143355
vertex 0.845801 0.074386 1.132178
endloop
endfacet
facet normal 0.238390 0.332879 0.912338
outer loop
vertex 0.860245 -0.039216 1.196499
vertex 0.874675 -0.035446 1.191353
vertex 0.886221 -0.027651 1.185492
endloop
endfacet
facet normal 0.255935 0.299833 0.919020
outer loop
vertex 0.886221 -0.027651 1.185492
vertex 0.894998 -0.016458 1.179396
vertex 0.860245 -0.039216 1.196499
endloop
endfacet
facet normal 0.191512 0.360331 0.912954
outer loop
vertex 0.894998 -0.016458 1.179396
vertex 0.900582 -0.003251 1.173012
vertex 0.845801 -0.039844 1.198947
endloop
endfacet
facet normal -0.024047 0.601787 0.798294
outer loop
vertex 0.900582 -0.003251 1.173012
vertex 0.902050 0.009049 1.163784
vertex 0.845801 -0.039844 1.198947
endloop
endfacet
facet normal 0.158738 0.537334 0.828296
outer loop
vertex 0.902050 0.009049 1.163784
vertex 0.901462 0.024001 1.154197
vertex 0.845801 0.074386 1.132178
endloop
endfacet
facet normal 0.100540 0.502070 0.858963
outer loop
vertex 0.845801 -0.039844 1.198947
vertex 0.902050 0.009049 1.163784
vertex 0.845801 0.074386 1.132178
endloop
endfacet
facet normal 0.151664 0.470336 0.869357
outer loop
vertex 0.901462 0.024001 1.154197
vertex 0.898974 0.035574 1.148370
vertex 0.893629 0.046567 1.143355
endloop
endfacet
facet normal 0.029483 0.409590 0.911793
outer loop
vertex 0.893629 0.046567 1.143355
vertex 0.886145 0.056589 1.139095
vertex 0.858061 0.072522 1.132846
endloop
endfacet
facet normal 0.013284 0.385258 0.922713
outer loop
vertex 0.886145 0.056589 1.139095
vertex 0.876130 0.065673 1.135446
vertex 0.858061 0.072522 1.132846
endloop
endfacet
facet normal 0.053195 0.474180 0.878820
outer loop
vertex 0.876130 0.065673 1.135446
vertex 0.867663 0.070029 1.133609
vertex 0.858061 0.072522 1.132846
endloop
endfacet
facet normal 0.008270 0.384980 0.922888
outer loop
vertex 0.858061 0.072522 1.132846
vertex 0.845801 0.074386 1.132178
vertex 0.893629 0.046567 1.143355
endloop
endfacet
facet normal 0.128467 0.462921 0.877041
outer loop
vertex 0.845801 -0.039844 1.198947
vertex 0.860245 -0.039216 1.196499
vertex 0.894998 -0.016458 1.179396
endloop
endfacet
facet normal 0.533185 -0.286198 -0.796118
outer loop
vertex 0.867201 0.027347 1.055015
vertex 0.887817 0.015550 1.073063
vertex 0.856204 -0.080856 1.086548
endloop
endfacet
facet normal 0.803540 -0.275163 -0.527835
outer loop
vertex 0.897696 -0.017091 1.105118
vertex 0.894286 -0.031549 1.107464
vertex 0.887817 0.015550 1.073063
endloop
endfacet
facet normal 0.883311 -0.191280 -0.427988
outer loop
vertex 0.894286 -0.031549 1.107464
vertex 0.890187 -0.045955 1.105443
vertex 0.887817 0.015550 1.073063
endloop
endfacet
facet normal 0.358732 0.207455 -0.910095
outer loop
vertex 0.890187 -0.045955 1.105443
vertex 0.885232 -0.059300 1.100448
vertex 0.867145 -0.077905 1.089078
endloop
endfacet
facet normal 0.238253 0.327204 -0.914425
outer loop
vertex 0.885232 -0.059300 1.100448
vertex 0.877330 -0.070599 1.094346
vertex 0.867145 -0.077905 1.089078
endloop
endfacet
facet normal 0.275986 -0.221333 -0.935331
outer loop
vertex 0.867145 -0.077905 1.089078
vertex 0.856204 -0.080856 1.086548
vertex 0.887817 0.015550 1.073063
endloop
endfacet
facet normal 0.777298 -0.269367 -0.568550
outer loop
vertex 0.890187 -0.045955 1.105443
vertex 0.867145 -0.077905 1.089078
vertex 0.887817 0.015550 1.073063
endloop
endfacet
facet normal 0.107833 -0.295632 -0.949196
outer loop
vertex 0.856204 -0.080856 1.086548
vertex 0.845801 -0.081826 1.085668
vertex 0.845801 0.029934 1.050861
endloop
endfacet
facet normal 0.069972 -0.299897 -0.951402
outer loop
vertex 0.845801 0.029934 1.050861
vertex 0.856524 0.029261 1.051861
vertex 0.856204 -0.080856 1.086548
endloop
endfacet
facet normal 0.222033 -0.293533 -0.929806
outer loop
vertex 0.856524 0.029261 1.051861
vertex 0.867201 0.027347 1.055015
vertex 0.856204 -0.080856 1.086548
endloop
endfacet
facet normal 0.069974 -0.796508 -0.600565
outer loop
vertex 0.867201 0.027347 1.055015
vertex 0.879406 0.022654 1.062661
vertex 0.887817 0.015550 1.073063
endloop
endfacet
facet normal 0.291146 -0.624017 -0.725146
outer loop
vertex 0.887817 0.015550 1.073063
vertex 0.896326 0.007882 1.083078
vertex 0.897696 -0.017091 1.105118
endloop
endfacet
facet normal 0.603491 -0.508762 -0.613970
outer loop
vertex 0.896326 0.007882 1.083078
vertex 0.899827 -0.003091 1.095612
vertex 0.897696 -0.017091 1.105118
endloop
endfacet
facet normal 0.067353 0.945983 -0.317143
outer loop
vertex 0.845801 0.033642 1.068577
vertex 0.857140 0.037776 1.083315
vertex 0.856802 0.032899 1.068696
endloop
endfacet
facet normal 0.063454 0.975252 -0.211796
outer loop
vertex 0.856802 0.032899 1.068696
vertex 0.856524 0.029261 1.051861
vertex 0.845801 0.033371 1.067573
endloop
endfacet
facet normal 0.043253 0.911129 -0.409844
outer loop
vertex 0.845801 0.038356 1.083408
vertex 0.857533 0.043901 1.096973
vertex 0.857140 0.037776 1.083315
endloop
endfacet
facet normal 0.029969 0.866033 -0.499088
outer loop
vertex 0.845801 0.044410 1.097152
vertex 0.858113 0.051435 1.110081
vertex 0.857533 0.043901 1.096973
endloop
endfacet
facet normal 0.037464 0.810480 -0.584567
outer loop
vertex 0.859228 0.060545 1.122783
vertex 0.858113 0.051435 1.110081
vertex 0.845801 0.061048 1.122620
endloop
endfacet
facet normal 0.132057 0.575305 -0.807208
outer loop
vertex 0.858061 0.072522 1.132846
vertex 0.845801 0.061164 1.122745
vertex 0.845801 0.068398 1.127901
endloop
endfacet
facet normal 0.031903 0.645190 -0.763356
outer loop
vertex 0.859228 0.060545 1.122783
vertex 0.845801 0.061098 1.122690
vertex 0.845801 0.061164 1.122745
endloop
endfacet
facet normal 0.047014 -0.889044 0.455401
outer loop
vertex 0.859036 -0.074509 1.098648
vertex 0.845801 -0.075039 1.098980
vertex 0.845801 -0.075720 1.097650
endloop
endfacet
facet normal 0.052751 -0.895369 0.442189
outer loop
vertex 0.857510 -0.068231 1.111542
vertex 0.845801 -0.068793 1.111801
vertex 0.845801 -0.069325 1.110724
endloop
endfacet
facet normal 0.070554 -0.898162 0.433966
outer loop
vertex 0.857262 -0.062194 1.124077
vertex 0.845801 -0.062830 1.124625
vertex 0.845801 -0.063369 1.123509
endloop
endfacet
facet normal 0.069954 -0.910990 0.406453
outer loop
vertex 0.857262 -0.062194 1.124077
vertex 0.856806 -0.055810 1.138464
vertex 0.845801 -0.062225 1.125980
endloop
endfacet
facet normal 0.083569 -0.929321 0.359692
outer loop
vertex 0.856806 -0.055810 1.138464
vertex 0.856669 -0.050041 1.153401
vertex 0.845801 -0.056205 1.140001
endloop
endfacet
facet normal 0.105947 -0.921546 0.373534
outer loop
vertex 0.856669 -0.050041 1.153401
vertex 0.856932 -0.044645 1.166639
vertex 0.845801 -0.050892 1.154385
endloop
endfacet
facet normal 0.125252 -0.928128 0.350556
outer loop
vertex 0.857897 -0.039463 1.180016
vertex 0.845801 -0.040817 1.180753
vertex 0.845801 -0.041197 1.179749
endloop
endfacet
facet normal 0.111211 -0.993796 -0.000950
outer loop
vertex 0.857897 -0.039463 1.180016
vertex 0.860245 -0.039216 1.196499
vertex 0.845801 -0.040818 1.181727
endloop
endfacet
facet normal -0.245876 -0.969085 -0.020503
outer loop
vertex 0.833705 -0.039463 1.180016
vertex 0.831357 -0.039216 1.196499
vertex 0.816927 -0.035446 1.191353
endloop
endfacet
facet normal -0.531695 -0.843644 -0.074603
outer loop
vertex 0.821457 -0.037049 1.177194
vertex 0.816927 -0.035446 1.191353
vertex 0.805381 -0.027651 1.185492
endloop
endfacet
facet normal -0.203288 -0.978053 0.045683
outer loop
vertex 0.833705 -0.039463 1.180016
vertex 0.816927 -0.035446 1.191353
vertex 0.821457 -0.037049 1.177194
endloop
endfacet
facet normal -0.238887 -0.943491 0.229691
outer loop
vertex 0.823617 -0.040516 1.165199
vertex 0.833705 -0.039463 1.180016
vertex 0.821457 -0.037049 1.177194
endloop
endfacet
facet normal -0.667159 -0.739028 0.093467
outer loop
vertex 0.823617 -0.040516 1.165199
vertex 0.821457 -0.037049 1.177194
vertex 0.812357 -0.030041 1.167648
endloop
endfacet
facet normal -0.539829 -0.835924 -0.099075
outer loop
vertex 0.821457 -0.037049 1.177194
vertex 0.805381 -0.027651 1.185492
vertex 0.812357 -0.030041 1.167648
endloop
endfacet
facet normal -0.611562 -0.729180 0.307065
outer loop
vertex 0.812357 -0.030041 1.167648
vertex 0.823901 -0.045664 1.153540
vertex 0.823617 -0.040516 1.165199
endloop
endfacet
facet normal -0.700727 -0.689948 -0.181533
outer loop
vertex 0.805381 -0.027651 1.185492
vertex 0.803439 -0.019720 1.162845
vertex 0.812357 -0.030041 1.167648
endloop
endfacet
facet normal -0.608468 -0.730211 0.310737
outer loop
vertex 0.812357 -0.030041 1.167648
vertex 0.812591 -0.037286 1.151081
vertex 0.823901 -0.045664 1.153540
endloop
endfacet
facet normal -0.786971 -0.569302 0.237849
outer loop
vertex 0.803439 -0.019720 1.162845
vertex 0.812591 -0.037286 1.151081
vertex 0.812357 -0.030041 1.167648
endloop
endfacet
facet normal -0.812704 -0.550774 0.190158
outer loop
vertex 0.803439 -0.019720 1.162845
vertex 0.804471 -0.026655 1.147169
vertex 0.812591 -0.037286 1.151081
endloop
endfacet
facet normal -0.880709 -0.451892 0.141936
outer loop
vertex 0.796656 -0.008411 1.156762
vertex 0.804471 -0.026655 1.147169
vertex 0.803439 -0.019720 1.162845
endloop
endfacet
facet normal -0.825089 -0.554151 -0.110201
outer loop
vertex 0.791020 -0.003251 1.173012
vertex 0.796656 -0.008411 1.156762
vertex 0.803439 -0.019720 1.162845
endloop
endfacet
facet normal -0.841100 -0.477984 -0.253143
outer loop
vertex 0.791020 -0.003251 1.173012
vertex 0.803439 -0.019720 1.162845
vertex 0.796604 -0.016458 1.179396
endloop
endfacet
facet normal -0.728383 -0.663750 -0.169984
outer loop
vertex 0.805381 -0.027651 1.185492
vertex 0.796604 -0.016458 1.179396
vertex 0.803439 -0.019720 1.162845
endloop
endfacet
facet normal -0.888395 0.259031 -0.379023
outer loop
vertex 0.795829 0.028171 1.135808
vertex 0.792628 0.035574 1.148370
vertex 0.797973 0.046567 1.143355
endloop
endfacet
facet normal -0.956777 0.066665 -0.283079
outer loop
vertex 0.792628 0.035574 1.148370
vertex 0.795829 0.028171 1.135808
vertex 0.793226 0.016172 1.141780
endloop
endfacet
facet normal -0.957984 0.065327 -0.279283
outer loop
vertex 0.792628 0.035574 1.148370
vertex 0.793226 0.016172 1.141780
vertex 0.790140 0.024001 1.154197
endloop
endfacet
facet normal -0.981840 -0.054714 -0.181647
outer loop
vertex 0.793226 0.016172 1.141780
vertex 0.792609 0.003091 1.149055
vertex 0.789552 0.009049 1.163784
endloop
endfacet
facet normal -0.992079 -0.021999 -0.123673
outer loop
vertex 0.792609 0.003091 1.149055
vertex 0.793226 0.016172 1.141780
vertex 0.795089 0.009542 1.128014
endloop
endfacet
facet normal -0.974982 0.117634 -0.188606
outer loop
vertex 0.795829 0.028171 1.135808
vertex 0.795089 0.009542 1.128014
vertex 0.793226 0.016172 1.141780
endloop
endfacet
facet normal -0.978143 -0.083610 -0.190381
outer loop
vertex 0.793226 0.016172 1.141780
vertex 0.789552 0.009049 1.163784
vertex 0.790140 0.024001 1.154197
endloop
endfacet
facet normal -0.974795 0.117957 -0.189371
outer loop
vertex 0.795829 0.028171 1.135808
vertex 0.797614 0.021600 1.122527
vertex 0.795089 0.009542 1.128014
endloop
endfacet
facet normal -0.982235 0.175690 -0.065928
outer loop
vertex 0.797614 0.021600 1.122527
vertex 0.794964 0.003316 1.113285
vertex 0.795089 0.009542 1.128014
endloop
endfacet
facet normal -0.999063 -0.036164 0.023762
outer loop
vertex 0.795694 -0.003044 1.134299
vertex 0.795089 0.009542 1.128014
vertex 0.794964 0.003316 1.113285
endloop
endfacet
facet normal -0.980368 -0.123762 -0.153497
outer loop
vertex 0.792609 0.003091 1.149055
vertex 0.795089 0.009542 1.128014
vertex 0.795694 -0.003044 1.134299
endloop
endfacet
facet normal -0.951622 -0.297960 -0.075073
outer loop
vertex 0.798988 -0.015241 1.140953
vertex 0.792609 0.003091 1.149055
vertex 0.795694 -0.003044 1.134299
endloop
endfacet
facet normal -0.972363 -0.220081 0.077941
outer loop
vertex 0.799385 -0.022567 1.125220
vertex 0.798988 -0.015241 1.140953
vertex 0.795694 -0.003044 1.134299
endloop
endfacet
facet normal -0.973710 -0.216717 0.070161
outer loop
vertex 0.799385 -0.022567 1.125220
vertex 0.795694 -0.003044 1.134299
vertex 0.796139 -0.009829 1.119517
endloop
endfacet
facet normal -0.996356 -0.084821 0.008939
outer loop
vertex 0.795694 -0.003044 1.134299
vertex 0.794964 0.003316 1.113285
vertex 0.796139 -0.009829 1.119517
endloop
endfacet
facet normal -0.987124 -0.012646 0.159458
outer loop
vertex 0.794964 0.003316 1.113285
vertex 0.793906 -0.017091 1.105118
vertex 0.796139 -0.009829 1.119517
endloop
endfacet
facet normal -0.952559 -0.185506 0.241284
outer loop
vertex 0.797316 -0.031549 1.107464
vertex 0.796139 -0.009829 1.119517
vertex 0.793906 -0.017091 1.105118
endloop
endfacet
facet normal -0.967937 -0.159940 0.193694
outer loop
vertex 0.797316 -0.031549 1.107464
vertex 0.799385 -0.022567 1.125220
vertex 0.796139 -0.009829 1.119517
endloop
endfacet
facet normal -0.928864 -0.275508 0.247603
outer loop
vertex 0.797316 -0.031549 1.107464
vertex 0.804487 -0.033830 1.131827
vertex 0.799385 -0.022567 1.125220
endloop
endfacet
facet normal -0.906568 -0.351287 0.233948
outer loop
vertex 0.797316 -0.031549 1.107464
vertex 0.803539 -0.040939 1.117479
vertex 0.804487 -0.033830 1.131827
endloop
endfacet
facet normal -0.910555 -0.299120 0.285337
outer loop
vertex 0.803539 -0.040939 1.117479
vertex 0.797316 -0.031549 1.107464
vertex 0.801415 -0.045955 1.105443
endloop
endfacet
facet normal -0.561910 -0.718057 0.410671
outer loop
vertex 0.821949 -0.059661 1.121133
vertex 0.810518 -0.051704 1.119405
vertex 0.806370 -0.059300 1.100448
endloop
endfacet
facet normal -0.567730 -0.710849 0.415182
outer loop
vertex 0.821949 -0.059661 1.121133
vertex 0.806370 -0.059300 1.100448
vertex 0.819533 -0.066455 1.106197
endloop
endfacet
facet normal -0.571595 -0.661746 0.485151
outer loop
vertex 0.819533 -0.066455 1.106197
vertex 0.806370 -0.059300 1.100448
vertex 0.814272 -0.070599 1.094346
endloop
endfacet
facet normal -0.824430 -0.439552 0.356523
outer loop
vertex 0.810518 -0.051704 1.119405
vertex 0.801415 -0.045955 1.105443
vertex 0.806370 -0.059300 1.100448
endloop
endfacet
facet normal -0.357965 -0.820442 0.445798
outer loop
vertex 0.819533 -0.066455 1.106197
vertex 0.814272 -0.070599 1.094346
vertex 0.824457 -0.077905 1.089078
endloop
endfacet
facet normal -0.736793 0.660447 -0.144725
outer loop
vertex 0.812932 0.025963 1.074014
vertex 0.812196 0.022654 1.062661
vertex 0.803785 0.015550 1.073063
endloop
endfacet
facet normal -0.724921 0.655982 -0.210184
outer loop
vertex 0.812648 0.029858 1.087150
vertex 0.812932 0.025963 1.074014
vertex 0.803785 0.015550 1.073063
endloop
endfacet
facet normal -0.758877 0.630517 -0.162958
outer loop
vertex 0.812648 0.029858 1.087150
vertex 0.803785 0.015550 1.073063
vertex 0.804471 0.020822 1.090267
endloop
endfacet
facet normal -0.810003 0.568960 -0.142057
outer loop
vertex 0.797083 0.011569 1.095333
vertex 0.804471 0.020822 1.090267
vertex 0.803785 0.015550 1.073063
endloop
endfacet
facet normal -0.727010 0.679700 -0.097287
outer loop
vertex 0.797083 0.011569 1.095333
vertex 0.803785 0.015550 1.073063
vertex 0.795276 0.007882 1.083078
endloop
endfacet
facet normal -0.503207 0.825485 -0.255650
outer loop
vertex 0.812932 0.025963 1.074014
vertex 0.812648 0.029858 1.087150
vertex 0.823037 0.035407 1.084618
endloop
endfacet
facet normal -0.470890 0.832287 -0.292508
outer loop
vertex 0.812932 0.025963 1.074014
vertex 0.823037 0.035407 1.084618
vertex 0.823574 0.030788 1.070611
endloop
endfacet
facet normal -0.460430 0.859810 -0.220754
outer loop
vertex 0.823574 0.030788 1.070611
vertex 0.812196 0.022654 1.062661
vertex 0.812932 0.025963 1.074014
endloop
endfacet
facet normal -0.226930 0.922298 -0.312842
outer loop
vertex 0.834462 0.037776 1.083315
vertex 0.823574 0.030788 1.070611
vertex 0.823037 0.035407 1.084618
endloop
endfacet
facet normal -0.226807 0.922299 -0.312927
outer loop
vertex 0.834462 0.037776 1.083315
vertex 0.834800 0.032899 1.068696
vertex 0.823574 0.030788 1.070611
endloop
endfacet
facet normal -0.216549 0.950864 -0.221279
outer loop
vertex 0.824401 0.027347 1.055015
vertex 0.823574 0.030788 1.070611
vertex 0.834800 0.032899 1.068696
endloop
endfacet
facet normal -0.464579 0.859232 -0.214210
outer loop
vertex 0.823574 0.030788 1.070611
vertex 0.824401 0.027347 1.055015
vertex 0.812196 0.022654 1.062661
endloop
endfacet
facet normal -0.067358 0.946019 -0.317034
outer loop
vertex 0.845801 0.033642 1.068577
vertex 0.845801 0.033490 1.068124
vertex 0.834800 0.032899 1.068696
endloop
endfacet
facet normal -0.063458 0.975244 -0.211829
outer loop
vertex 0.834800 0.032899 1.068696
vertex 0.845801 0.033490 1.068124
vertex 0.845801 0.033371 1.067573
endloop
endfacet
facet normal -0.232072 0.949954 -0.209116
outer loop
vertex 0.824401 0.027347 1.055015
vertex 0.834800 0.032899 1.068696
vertex 0.835078 0.029261 1.051861
endloop
endfacet
facet normal -0.080034 0.976364 -0.200770
outer loop
vertex 0.845801 0.033371 1.067573
vertex 0.845801 0.029934 1.050861
vertex 0.835078 0.029261 1.051861
endloop
endfacet
facet normal -0.042346 0.953035 -0.299885
outer loop
vertex 0.845801 0.038199 1.083060
vertex 0.845801 0.033642 1.068577
vertex 0.834462 0.037776 1.083315
endloop
endfacet
facet normal -0.043239 0.911123 -0.409860
outer loop
vertex 0.845801 0.038356 1.083408
vertex 0.845801 0.038199 1.083060
vertex 0.834462 0.037776 1.083315
endloop
endfacet
facet normal -0.030901 0.915570 -0.400970
outer loop
vertex 0.845801 0.044265 1.096902
vertex 0.845801 0.038356 1.083408
vertex 0.834069 0.043901 1.096973
endloop
endfacet
facet normal -0.029962 0.866120 -0.498937
outer loop
vertex 0.845801 0.044410 1.097152
vertex 0.845801 0.044265 1.096902
vertex 0.834069 0.043901 1.096973
endloop
endfacet
facet normal -0.243701 0.836155 -0.491381
outer loop
vertex 0.822459 0.041207 1.098147
vertex 0.833489 0.051435 1.110081
vertex 0.834069 0.043901 1.096973
endloop
endfacet
facet normal -0.245381 0.887158 -0.390818
outer loop
vertex 0.834069 0.043901 1.096973
vertex 0.823037 0.035407 1.084618
vertex 0.822459 0.041207 1.098147
endloop
endfacet
facet normal -0.229672 0.885575 -0.403741
outer loop
vertex 0.834069 0.043901 1.096973
vertex 0.834462 0.037776 1.083315
vertex 0.823037 0.035407 1.084618
endloop
endfacet
facet normal -0.305618 0.760818 -0.572497
outer loop
vertex 0.820683 0.057648 1.125174
vertex 0.832374 0.060545 1.122783
vertex 0.833489 0.051435 1.110081
endloop
endfacet
facet normal -0.037350 0.810588 -0.584424
outer loop
vertex 0.832374 0.060545 1.122783
vertex 0.845801 0.061098 1.122690
vertex 0.845801 0.061048 1.122620
endloop
endfacet
facet normal -0.022851 0.804116 -0.594033
outer loop
vertex 0.845801 0.061048 1.122620
vertex 0.845801 0.051789 1.110087
vertex 0.833489 0.051435 1.110081
endloop
endfacet
facet normal -0.024745 0.868321 -0.495386
outer loop
vertex 0.845801 0.051789 1.110087
vertex 0.845801 0.044410 1.097152
vertex 0.833489 0.051435 1.110081
endloop
endfacet
facet normal -0.271592 0.786757 -0.554302
outer loop
vertex 0.820683 0.057648 1.125174
vertex 0.833489 0.051435 1.110081
vertex 0.821689 0.048331 1.111457
endloop
endfacet
facet normal -0.275510 0.840813 -0.465970
outer loop
vertex 0.822459 0.041207 1.098147
vertex 0.821689 0.048331 1.111457
vertex 0.833489 0.051435 1.110081
endloop
endfacet
facet normal -0.592554 0.645491 -0.481893
outer loop
vertex 0.809476 0.048886 1.127218
vertex 0.820683 0.057648 1.125174
vertex 0.821689 0.048331 1.111457
endloop
endfacet
facet normal -0.299520 0.589739 -0.749997
outer loop
vertex 0.832374 0.060545 1.122783
vertex 0.820683 0.057648 1.125174
vertex 0.823939 0.070029 1.133609
endloop
endfacet
facet normal -0.527936 0.518325 -0.672772
outer loop
vertex 0.809476 0.048886 1.127218
vertex 0.815472 0.065673 1.135446
vertex 0.820683 0.057648 1.125174
endloop
endfacet
facet normal -0.446556 0.581012 -0.680451
outer loop
vertex 0.820683 0.057648 1.125174
vertex 0.815472 0.065673 1.135446
vertex 0.823939 0.070029 1.133609
endloop
endfacet
facet normal -0.661350 0.507110 -0.552680
outer loop
vertex 0.809476 0.048886 1.127218
vertex 0.805457 0.056589 1.139095
vertex 0.815472 0.065673 1.135446
endloop
endfacet
facet normal -0.793344 0.395834 -0.462515
outer loop
vertex 0.801443 0.039056 1.130975
vertex 0.797973 0.046567 1.143355
vertex 0.805457 0.056589 1.139095
endloop
endfacet
facet normal -0.747819 0.412239 -0.520409
outer loop
vertex 0.801443 0.039056 1.130975
vertex 0.805457 0.056589 1.139095
vertex 0.809476 0.048886 1.127218
endloop
endfacet
facet normal -0.131546 0.576186 -0.806663
outer loop
vertex 0.833541 0.072522 1.132846
vertex 0.845801 0.074386 1.132178
vertex 0.845801 0.068398 1.127901
endloop
endfacet
facet normal -0.031890 0.644766 -0.763715
outer loop
vertex 0.832374 0.060545 1.122783
vertex 0.833541 0.072522 1.132846
vertex 0.845801 0.061164 1.122745
endloop
endfacet
facet normal -0.224469 0.639595 -0.735209
outer loop
vertex 0.832374 0.060545 1.122783
vertex 0.823939 0.070029 1.133609
vertex 0.833541 0.072522 1.132846
endloop
endfacet
facet normal -0.897362 0.335544 -0.286622
outer loop
vertex 0.797614 0.021600 1.122527
vertex 0.795829 0.028171 1.135808
vertex 0.801443 0.039056 1.130975
endloop
endfacet
facet normal -0.887477 0.343411 -0.307333
outer loop
vertex 0.797614 0.021600 1.122527
vertex 0.801443 0.039056 1.130975
vertex 0.803341 0.032224 1.117860
endloop
endfacet
facet normal -0.872565 0.268982 -0.407773
outer loop
vertex 0.795829 0.028171 1.135808
vertex 0.797973 0.046567 1.143355
vertex 0.801443 0.039056 1.130975
endloop
endfacet
facet normal -0.783257 0.497668 -0.372605
outer loop
vertex 0.809476 0.048886 1.127218
vertex 0.803341 0.032224 1.117860
vertex 0.801443 0.039056 1.130975
endloop
endfacet
facet normal -0.866435 0.430820 -0.252357
outer loop
vertex 0.797870 0.015889 1.108758
vertex 0.803341 0.032224 1.117860
vertex 0.804252 0.026136 1.104339
endloop
endfacet
facet normal -0.779010 0.550410 -0.300320
outer loop
vertex 0.811328 0.041471 1.114089
vertex 0.804252 0.026136 1.104339
vertex 0.803341 0.032224 1.117860
endloop
endfacet
facet normal -0.769084 0.503959 -0.393109
outer loop
vertex 0.809476 0.048886 1.127218
vertex 0.811328 0.041471 1.114089
vertex 0.803341 0.032224 1.117860
endloop
endfacet
facet normal -0.896713 0.402692 -0.183697
outer loop
vertex 0.797870 0.015889 1.108758
vertex 0.797614 0.021600 1.122527
vertex 0.803341 0.032224 1.117860
endloop
endfacet
facet normal -0.567957 0.679774 -0.464039
outer loop
vertex 0.809476 0.048886 1.127218
vertex 0.821689 0.048331 1.111457
vertex 0.811328 0.041471 1.114089
endloop
endfacet
facet normal -0.575895 0.724418 -0.378899
outer loop
vertex 0.812178 0.035137 1.100687
vertex 0.811328 0.041471 1.114089
vertex 0.821689 0.048331 1.111457
endloop
endfacet
facet normal -0.772341 0.553977 -0.310805
outer loop
vertex 0.811328 0.041471 1.114089
vertex 0.812178 0.035137 1.100687
vertex 0.804252 0.026136 1.104339
endloop
endfacet
facet normal -0.758920 0.597337 -0.259286
outer loop
vertex 0.804471 0.020822 1.090267
vertex 0.812178 0.035137 1.100687
vertex 0.812648 0.029858 1.087150
endloop
endfacet
facet normal -0.539067 0.778203 -0.322192
outer loop
vertex 0.812648 0.029858 1.087150
vertex 0.812178 0.035137 1.100687
vertex 0.822459 0.041207 1.098147
endloop
endfacet
facet normal -0.535940 0.731052 -0.422292
outer loop
vertex 0.812178 0.035137 1.100687
vertex 0.821689 0.048331 1.111457
vertex 0.822459 0.041207 1.098147
endloop
endfacet
facet normal -0.774788 0.587375 -0.233867
outer loop
vertex 0.804471 0.020822 1.090267
vertex 0.804252 0.026136 1.104339
vertex 0.812178 0.035137 1.100687
endloop
endfacet
facet normal -0.868020 0.459897 -0.187181
outer loop
vertex 0.804471 0.020822 1.090267
vertex 0.797870 0.015889 1.108758
vertex 0.804252 0.026136 1.104339
endloop
endfacet
facet normal -0.939220 0.339034 -0.054043
outer loop
vertex 0.791775 -0.003091 1.095612
vertex 0.797870 0.015889 1.108758
vertex 0.797083 0.011569 1.095333
endloop
endfacet
facet normal -0.809231 0.571427 -0.136441
outer loop
vertex 0.804471 0.020822 1.090267
vertex 0.797083 0.011569 1.095333
vertex 0.797870 0.015889 1.108758
endloop
endfacet
facet normal -0.964078 0.252507 0.082425
outer loop
vertex 0.791775 -0.003091 1.095612
vertex 0.794964 0.003316 1.113285
vertex 0.797870 0.015889 1.108758
endloop
endfacet
facet normal -0.976811 0.190733 -0.097273
outer loop
vertex 0.797614 0.021600 1.122527
vertex 0.797870 0.015889 1.108758
vertex 0.794964 0.003316 1.113285
endloop
endfacet
facet normal -0.982320 -0.023411 0.185741
outer loop
vertex 0.794964 0.003316 1.113285
vertex 0.791775 -0.003091 1.095612
vertex 0.793906 -0.017091 1.105118
endloop
endfacet
facet normal -0.939439 0.340821 0.035982
outer loop
vertex 0.797083 0.011569 1.095333
vertex 0.795276 0.007882 1.083078
vertex 0.791775 -0.003091 1.095612
endloop
endfacet
facet normal -0.506284 0.784557 -0.357975
outer loop
vertex 0.812648 0.029858 1.087150
vertex 0.822459 0.041207 1.098147
vertex 0.823037 0.035407 1.084618
endloop
endfacet
facet normal -0.044647 -0.890088 0.453598
outer loop
vertex 0.845801 -0.075720 1.097650
vertex 0.835398 -0.080856 1.086548
vertex 0.845801 -0.081826 1.085668
endloop
endfacet
facet normal -0.047022 -0.889069 0.455351
outer loop
vertex 0.832566 -0.074509 1.098648
vertex 0.835398 -0.080856 1.086548
vertex 0.845801 -0.075720 1.097650
endloop
endfacet
facet normal -0.046921 -0.898224 0.437027
outer loop
vertex 0.845801 -0.069325 1.110724
vertex 0.832566 -0.074509 1.098648
vertex 0.845801 -0.075039 1.098980
endloop
endfacet
facet normal -0.052752 -0.895368 0.442192
outer loop
vertex 0.834092 -0.068231 1.111542
vertex 0.832566 -0.074509 1.098648
vertex 0.845801 -0.069325 1.110724
endloop
endfacet
facet normal -0.052775 -0.906090 0.419780
outer loop
vertex 0.845801 -0.063369 1.123509
vertex 0.834092 -0.068231 1.111542
vertex 0.845801 -0.068793 1.111801
endloop
endfacet
facet normal -0.070551 -0.898164 0.433964
outer loop
vertex 0.834340 -0.062194 1.124077
vertex 0.834092 -0.068231 1.111542
vertex 0.845801 -0.063369 1.123509
endloop
endfacet
facet normal -0.069946 -0.910994 0.406444
outer loop
vertex 0.834340 -0.062194 1.124077
vertex 0.845801 -0.062830 1.124625
vertex 0.845801 -0.062225 1.125980
endloop
endfacet
facet normal -0.082950 -0.914210 0.396660
outer loop
vertex 0.845801 -0.056727 1.138652
vertex 0.834796 -0.055810 1.138464
vertex 0.845801 -0.062225 1.125980
endloop
endfacet
facet normal -0.299031 -0.868677 0.394943
outer loop
vertex 0.834340 -0.062194 1.124077
vertex 0.834796 -0.055810 1.138464
vertex 0.823291 -0.052460 1.137121
endloop
endfacet
facet normal -0.083579 -0.929307 0.359726
outer loop
vertex 0.834796 -0.055810 1.138464
vertex 0.845801 -0.056727 1.138652
vertex 0.845801 -0.056205 1.140001
endloop
endfacet
facet normal -0.299264 -0.877653 0.374387
outer loop
vertex 0.834796 -0.055810 1.138464
vertex 0.823901 -0.045664 1.153540
vertex 0.823291 -0.052460 1.137121
endloop
endfacet
facet normal -0.342938 -0.875212 0.341170
outer loop
vertex 0.834796 -0.055810 1.138464
vertex 0.834933 -0.050041 1.153401
vertex 0.823901 -0.045664 1.153540
endloop
endfacet
facet normal -0.341820 -0.872599 0.348898
outer loop
vertex 0.823901 -0.045664 1.153540
vertex 0.834933 -0.050041 1.153401
vertex 0.834670 -0.044645 1.166639
endloop
endfacet
facet normal -0.105932 -0.921558 0.373508
outer loop
vertex 0.834933 -0.050041 1.153401
vertex 0.845801 -0.051341 1.153276
vertex 0.845801 -0.050892 1.154385
endloop
endfacet
facet normal -0.107739 -0.933500 0.342009
outer loop
vertex 0.845801 -0.051341 1.153276
vertex 0.834933 -0.050041 1.153401
vertex 0.845801 -0.056205 1.140001
endloop
endfacet
facet normal -0.123360 -0.924970 0.359462
outer loop
vertex 0.845801 -0.046010 1.166948
vertex 0.834670 -0.044645 1.166639
vertex 0.845801 -0.050892 1.154385
endloop
endfacet
facet normal -0.123553 -0.928852 0.349240
outer loop
vertex 0.845801 -0.041197 1.179749
vertex 0.834670 -0.044645 1.166639
vertex 0.845801 -0.046010 1.166948
endloop
endfacet
facet normal -0.125264 -0.928145 0.350508
outer loop
vertex 0.833705 -0.039463 1.180016
vertex 0.834670 -0.044645 1.166639
vertex 0.845801 -0.041197 1.179749
endloop
endfacet
facet normal -0.111225 -0.993795 -0.000972
outer loop
vertex 0.833705 -0.039463 1.180016
vertex 0.845801 -0.040817 1.180753
vertex 0.845801 -0.040818 1.181727
endloop
endfacet
facet normal -0.052910 -0.997005 0.056407
outer loop
vertex 0.845801 -0.039844 1.198947
vertex 0.831357 -0.039216 1.196499
vertex 0.845801 -0.040818 1.181727
endloop
endfacet
facet normal -0.367870 -0.875723 0.312698
outer loop
vertex 0.823617 -0.040516 1.165199
vertex 0.834670 -0.044645 1.166639
vertex 0.833705 -0.039463 1.180016
endloop
endfacet
facet normal -0.367083 -0.854199 0.368231
outer loop
vertex 0.823901 -0.045664 1.153540
vertex 0.834670 -0.044645 1.166639
vertex 0.823617 -0.040516 1.165199
endloop
endfacet
facet normal -0.275692 -0.867575 0.413893
outer loop
vertex 0.834340 -0.062194 1.124077
vertex 0.823291 -0.052460 1.137121
vertex 0.821949 -0.059661 1.121133
endloop
endfacet
facet normal -0.566810 -0.732315 0.377413
outer loop
vertex 0.823291 -0.052460 1.137121
vertex 0.810518 -0.051704 1.119405
vertex 0.821949 -0.059661 1.121133
endloop
endfacet
facet normal -0.578571 -0.718247 0.386493
outer loop
vertex 0.823291 -0.052460 1.137121
vertex 0.812082 -0.044472 1.135186
vertex 0.810518 -0.051704 1.119405
endloop
endfacet
facet normal -0.585080 -0.741413 0.328616
outer loop
vertex 0.823901 -0.045664 1.153540
vertex 0.812082 -0.044472 1.135186
vertex 0.823291 -0.052460 1.137121
endloop
endfacet
facet normal -0.824456 -0.512963 0.239042
outer loop
vertex 0.804471 -0.026655 1.147169
vertex 0.804487 -0.033830 1.131827
vertex 0.812082 -0.044472 1.135186
endloop
endfacet
facet normal -0.811006 -0.522907 0.262368
outer loop
vertex 0.804471 -0.026655 1.147169
vertex 0.812082 -0.044472 1.135186
vertex 0.812591 -0.037286 1.151081
endloop
endfacet
facet normal -0.606089 -0.717305 0.343698
outer loop
vertex 0.823901 -0.045664 1.153540
vertex 0.812591 -0.037286 1.151081
vertex 0.812082 -0.044472 1.135186
endloop
endfacet
facet normal -0.823739 -0.480068 0.301643
outer loop
vertex 0.803539 -0.040939 1.117479
vertex 0.810518 -0.051704 1.119405
vertex 0.812082 -0.044472 1.135186
endloop
endfacet
facet normal -0.819045 -0.490722 0.297249
outer loop
vertex 0.803539 -0.040939 1.117479
vertex 0.812082 -0.044472 1.135186
vertex 0.804487 -0.033830 1.131827
endloop
endfacet
facet normal -0.278354 -0.856514 0.434629
outer loop
vertex 0.819533 -0.066455 1.106197
vertex 0.834340 -0.062194 1.124077
vertex 0.821949 -0.059661 1.121133
endloop
endfacet
facet normal -0.261158 -0.867658 0.423045
outer loop
vertex 0.819533 -0.066455 1.106197
vertex 0.834092 -0.068231 1.111542
vertex 0.834340 -0.062194 1.124077
endloop
endfacet
facet normal -0.268269 -0.853257 0.447196
outer loop
vertex 0.832566 -0.074509 1.098648
vertex 0.834092 -0.068231 1.111542
vertex 0.819533 -0.066455 1.106197
endloop
endfacet
facet normal -0.139647 -0.889957 0.434137
outer loop
vertex 0.832566 -0.074509 1.098648
vertex 0.824457 -0.077905 1.089078
vertex 0.835398 -0.080856 1.086548
endloop
endfacet
facet normal -0.231843 -0.838070 0.493849
outer loop
vertex 0.819533 -0.066455 1.106197
vertex 0.824457 -0.077905 1.089078
vertex 0.832566 -0.074509 1.098648
endloop
endfacet
facet normal -0.815908 -0.468278 0.339131
outer loop
vertex 0.810518 -0.051704 1.119405
vertex 0.803539 -0.040939 1.117479
vertex 0.801415 -0.045955 1.105443
endloop
endfacet
facet normal -0.929969 -0.341698 0.135644
outer loop
vertex 0.804487 -0.033830 1.131827
vertex 0.798988 -0.015241 1.140953
vertex 0.799385 -0.022567 1.125220
endloop
endfacet
facet normal -0.921088 -0.353056 0.164158
outer loop
vertex 0.804487 -0.033830 1.131827
vertex 0.804471 -0.026655 1.147169
vertex 0.798988 -0.015241 1.140953
endloop
endfacet
facet normal -0.943999 -0.329933 0.003295
outer loop
vertex 0.798988 -0.015241 1.140953
vertex 0.796656 -0.008411 1.156762
vertex 0.792609 0.003091 1.149055
endloop
endfacet
facet normal -0.909690 -0.412928 0.044208
outer loop
vertex 0.796656 -0.008411 1.156762
vertex 0.798988 -0.015241 1.140953
vertex 0.804471 -0.026655 1.147169
endloop
endfacet
facet normal -0.929995 -0.285076 -0.232036
outer loop
vertex 0.796656 -0.008411 1.156762
vertex 0.791020 -0.003251 1.173012
vertex 0.789552 0.009049 1.163784
endloop
endfacet
facet normal -0.931774 -0.359875 -0.047814
outer loop
vertex 0.796656 -0.008411 1.156762
vertex 0.789552 0.009049 1.163784
vertex 0.792609 0.003091 1.149055
endloop
endfacet
facet normal -0.051210 0.446885 0.893124
outer loop
vertex 0.790140 0.024001 1.154197
vertex 0.845801 0.074386 1.132178
vertex 0.797973 0.046567 1.143355
endloop
endfacet
facet normal -0.238392 0.332857 0.912346
outer loop
vertex 0.831357 -0.039216 1.196499
vertex 0.805381 -0.027651 1.185492
vertex 0.816927 -0.035446 1.191353
endloop
endfacet
facet normal -0.255935 0.299842 0.919017
outer loop
vertex 0.805381 -0.027651 1.185492
vertex 0.831357 -0.039216 1.196499
vertex 0.796604 -0.016458 1.179396
endloop
endfacet
facet normal -0.191512 0.360331 0.912954
outer loop
vertex 0.796604 -0.016458 1.179396
vertex 0.845801 -0.039844 1.198947
vertex 0.791020 -0.003251 1.173012
endloop
endfacet
facet normal 0.024046 0.601786 0.798295
outer loop
vertex 0.791020 -0.003251 1.173012
vertex 0.845801 -0.039844 1.198947
vertex 0.789552 0.009049 1.163784
endloop
endfacet
facet normal -0.158738 0.537337 0.828294
outer loop
vertex 0.789552 0.009049 1.163784
vertex 0.845801 0.074386 1.132178
vertex 0.790140 0.024001 1.154197
endloop
endfacet
facet normal -0.100540 0.502070 0.858963
outer loop
vertex 0.845801 -0.039844 1.198947
vertex 0.845801 0.074386 1.132178
vertex 0.789552 0.009049 1.163784
endloop
endfacet
facet normal -0.151669 0.470307 0.869372
outer loop
vertex 0.790140 0.024001 1.154197
vertex 0.797973 0.046567 1.143355
vertex 0.792628 0.035574 1.148370
endloop
endfacet
facet normal -0.029483 0.409584 0.911796
outer loop
vertex 0.797973 0.046567 1.143355
vertex 0.833541 0.072522 1.132846
vertex 0.805457 0.056589 1.139095
endloop
endfacet
facet normal -0.013284 0.385262 0.922712
outer loop
vertex 0.805457 0.056589 1.139095
vertex 0.833541 0.072522 1.132846
vertex 0.815472 0.065673 1.135446
endloop
endfacet
facet normal -0.053195 0.474161 0.878830
outer loop
vertex 0.815472 0.065673 1.135446
vertex 0.833541 0.072522 1.132846
vertex 0.823939 0.070029 1.133609
endloop
endfacet
facet normal -0.008271 0.384988 0.922884
outer loop
vertex 0.833541 0.072522 1.132846
vertex 0.797973 0.046567 1.143355
vertex 0.845801 0.074386 1.132178
endloop
endfacet
facet normal -0.128468 0.462918 0.877042
outer loop
vertex 0.845801 -0.039844 1.198947
vertex 0.796604 -0.016458 1.179396
vertex 0.831357 -0.039216 1.196499
endloop
endfacet
facet normal -0.533186 -0.286197 -0.796118
outer loop
vertex 0.824401 0.027347 1.055015
vertex 0.835398 -0.080856 1.086548
vertex 0.803785 0.015550 1.073063
endloop
endfacet
facet normal -0.803541 -0.275156 -0.527836
outer loop
vertex 0.793906 -0.017091 1.105118
vertex 0.803785 0.015550 1.073063
vertex 0.797316 -0.031549 1.107464
endloop
endfacet
facet normal -0.883310 -0.191285 -0.427987
outer loop
vertex 0.797316 -0.031549 1.107464
vertex 0.803785 0.015550 1.073063
vertex 0.801415 -0.045955 1.105443
endloop
endfacet
facet normal -0.358734 0.207445 -0.910097
outer loop
vertex 0.801415 -0.045955 1.105443
vertex 0.824457 -0.077905 1.089078
vertex 0.806370 -0.059300 1.100448
endloop
endfacet
facet normal -0.238251 0.327216 -0.914421
outer loop
vertex 0.806370 -0.059300 1.100448
vertex 0.824457 -0.077905 1.089078
vertex 0.814272 -0.070599 1.094346
endloop
endfacet
facet normal -0.275985 -0.221332 -0.935331
outer loop
vertex 0.824457 -0.077905 1.089078
vertex 0.803785 0.015550 1.073063
vertex 0.835398 -0.080856 1.086548
endloop
endfacet
facet normal -0.777298 -0.269367 -0.568549
outer loop
vertex 0.801415 -0.045955 1.105443
vertex 0.803785 0.015550 1.073063
vertex 0.824457 -0.077905 1.089078
endloop
endfacet
facet normal -0.107834 -0.295625 -0.949198
outer loop
vertex 0.835398 -0.080856 1.086548
vertex 0.845801 0.029934 1.050861
vertex 0.845801 -0.081826 1.085668
endloop
endfacet
facet normal -0.069972 -0.299898 -0.951402
outer loop
vertex 0.845801 0.029934 1.050861
vertex 0.835398 -0.080856 1.086548
vertex 0.835078 0.029261 1.051861
endloop
endfacet
facet normal -0.222033 -0.293536 -0.929805
outer loop
vertex 0.835078 0.029261 1.051861
vertex 0.835398 -0.080856 1.086548
vertex 0.824401 0.027347 1.055015
endloop
endfacet
facet normal -0.069971 -0.796526 -0.600542
outer loop
vertex 0.824401 0.027347 1.055015
vertex 0.803785 0.015550 1.073063
vertex 0.812196 0.022654 1.062661
endloop
endfacet
facet normal -0.291146 -0.624017 -0.725146
outer loop
vertex 0.803785 0.015550 1.073063
vertex 0.793906 -0.017091 1.105118
vertex 0.795276 0.007882 1.083078
endloop
endfacet
facet normal -0.603499 -0.508744 -0.613978
outer loop
vertex 0.795276 0.007882 1.083078
vertex 0.793906 -0.017091 1.105118
vertex 0.791775 -0.003091 1.095612
endloop
endfacet
facet normal -0.067353 0.945982 -0.317145
outer loop
vertex 0.845801 0.033642 1.068577
vertex 0.834800 0.032899 1.068696
vertex 0.834462 0.037776 1.083315
endloop
endfacet
facet normal -0.063454 0.975252 -0.211795
outer loop
vertex 0.834800 0.032899 1.068696
vertex 0.845801 0.033371 1.067573
vertex 0.835078 0.029261 1.051861
endloop
endfacet
facet normal -0.043253 0.911130 -0.409842
outer loop
vertex 0.845801 0.038356 1.083408
vertex 0.834462 0.037776 1.083315
vertex 0.834069 0.043901 1.096973
endloop
endfacet
facet normal -0.029970 0.866026 -0.499100
outer loop
vertex 0.845801 0.044410 1.097152
vertex 0.834069 0.043901 1.096973
vertex 0.833489 0.051435 1.110081
endloop
endfacet
facet normal -0.037464 0.810481 -0.584565
outer loop
vertex 0.832374 0.060545 1.122783
vertex 0.845801 0.061048 1.122620
vertex 0.833489 0.051435 1.110081
endloop
endfacet
facet normal -0.132057 0.575313 -0.807202
outer loop
vertex 0.833541 0.072522 1.132846
vertex 0.845801 0.068398 1.127901
vertex 0.845801 0.061164 1.122745
endloop
endfacet
facet normal -0.031903 0.645190 -0.763356
outer loop
vertex 0.832374 0.060545 1.122783
vertex 0.845801 0.061164 1.122745
vertex 0.845801 0.061098 1.122690
endloop
endfacet
facet normal -0.047014 -0.889049 0.455392
outer loop
vertex 0.832566 -0.074509 1.098648
vertex 0.845801 -0.075720 1.097650
vertex 0.845801 -0.075039 1.098980
endloop
endfacet
facet normal -0.052751 -0.895369 0.442189
outer loop
vertex 0.834092 -0.068231 1.111542
vertex 0.845801 -0.069325 1.110724
vertex 0.845801 -0.068793 1.111801
endloop
endfacet
facet normal -0.070555 -0.898159 0.433972
outer loop
vertex 0.834340 -0.062194 1.124077
vertex 0.845801 -0.063369 1.123509
vertex 0.845801 -0.062830 1.124625
endloop
endfacet
facet normal -0.069954 -0.910990 0.406453
outer loop
vertex 0.834340 -0.062194 1.124077
vertex 0.845801 -0.062225 1.125980
vertex 0.834796 -0.055810 1.138464
endloop
endfacet
facet normal -0.083570 -0.929321 0.359693
outer loop
vertex 0.834796 -0.055810 1.138464
vertex 0.845801 -0.056205 1.140001
vertex 0.834933 -0.050041 1.153401
endloop
endfacet
facet normal -0.105947 -0.921546 0.373535
outer loop
vertex 0.834933 -0.050041 1.153401
vertex 0.845801 -0.050892 1.154385
vertex 0.834670 -0.044645 1.166639
endloop
endfacet
facet normal -0.125254 -0.928126 0.350562
outer loop
vertex 0.833705 -0.039463 1.180016
vertex 0.845801 -0.041197 1.179749
vertex 0.845801 -0.040817 1.180753
endloop
endfacet
facet normal -0.111213 -0.993796 -0.000950
outer loop
vertex 0.833705 -0.039463 1.180016
vertex 0.845801 -0.040818 1.181727
vertex 0.831357 -0.039216 1.196499
endloop
endfacet
endsolid Exported from Blender-4.0.2
