solid Exported from Blender-4.0.2
facet normal 0.245877 -0.969084 -0.020503
outer loop
vertex 0.857897 -0.039463 1.180016
vertex 0.874675 -0.035446 1.191353
vertex 0.860245 -0.039216 1.196499
endloop
endfacet
facet normal 0.531687 -0.843649 -0.074601
outer loop
vertex 0.870145 -0.037049 1.177194
vertex 0.886221 -0.027651 1.185492
vertex 0.874675 -0.035446 1.191353
endloop
endfacet
facet normal 0.203292 -0.978052 0.045684
outer loop
vertex 0.857897 -0.039463 1.180016
vertex 0.870145 -0.037049 1.177194
vertex 0.874675 -0.035446 1.191353
endloop
endfacet
facet normal 0.238888 -0.943491 0.229691
outer loop
vertex 0.867985 -0.040516 1.165199
vertex 0.870145 -0.037049 1.177194
vertex 0.857897 -0.039463 1.180016
endloop
endfacet
facet normal 0.667162 -0.739026 0.093465
outer loop
vertex 0.867985 -0.040516 1.165199
vertex 0.879245 -0.030041 1.167648
vertex 0.870145 -0.037049 1.177194
endloop
endfacet
facet normal 0.539826 -0.835926 -0.099074
outer loop
vertex 0.870145 -0.037049 1.177194
vertex 0.879245 -0.030041 1.167648
vertex 0.886221 -0.027651 1.185492
endloop
endfacet
facet normal 0.611566 -0.729174 0.307072
outer loop
vertex 0.879245 -0.030041 1.167648
vertex 0.867985 -0.040516 1.165199
vertex 0.867701 -0.045664 1.153540
endloop
endfacet
facet normal 0.700726 -0.689949 -0.181532
outer loop
vertex 0.886221 -0.027651 1.185492
vertex 0.879245 -0.030041 1.167648
vertex 0.888163 -0.019720 1.162845
endloop
endfacet
facet normal 0.608469 -0.730210 0.310738
outer loop
vertex 0.879245 -0.030041 1.167648
vertex 0.867701 -0.045664 1.153540
vertex 0.879011 -0.037286 1.151081
endloop
endfacet
facet normal 0.786971 -0.569302 0.237849
outer loop
vertex 0.888163 -0.019720 1.162845
vertex 0.879245 -0.030041 1.167648
vertex 0.879011 -0.037286 1.151081
endloop
endfacet
facet normal 0.812703 -0.550776 0.190158
outer loop
vertex 0.888163 -0.019720 1.162845
vertex 0.879011 -0.037286 1.151081
vertex 0.887131 -0.026655 1.147169
endloop
endfacet
facet normal 0.880709 -0.451892 0.141936
outer loop
vertex 0.894946 -0.008411 1.156762
vertex 0.888163 -0.019720 1.162845
vertex 0.887131 -0.026655 1.147169
endloop
endfacet
facet normal 0.825088 -0.554154 -0.110198
outer loop
vertex 0.900582 -0.003251 1.173012
vertex 0.888163 -0.019720 1.162845
vertex 0.894946 -0.008411 1.156762
endloop
endfacet
facet normal 0.841101 -0.477984 -0.253141
outer loop
vertex 0.900582 -0.003251 1.173012
vertex 0.894998 -0.016458 1.179396
vertex 0.888163 -0.019720 1.162845
endloop
endfacet
facet normal 0.728393 -0.663739 -0.169985
outer loop
vertex 0.886221 -0.027651 1.185492
vertex 0.888163 -0.019720 1.162845
vertex 0.894998 -0.016458 1.179396
endloop
endfacet
facet normal 0.888394 0.259030 -0.379024
outer loop
vertex 0.895773 0.028171 1.135808
vertex 0.893629 0.046567 1.143355
vertex 0.898974 0.035574 1.148370
endloop
endfacet
facet normal 0.956777 0.066660 -0.283079
outer loop
vertex 0.898974 0.035574 1.148370
vertex 0.898376 0.016172 1.141780
vertex 0.895773 0.028171 1.135808
endloop
endfacet
facet normal 0.957984 0.065327 -0.279283
outer loop
vertex 0.898974 0.035574 1.148370
vertex 0.901462 0.024001 1.154197
vertex 0.898376 0.016172 1.141780
endloop
endfacet
facet normal 0.981840 -0.054721 -0.181647
outer loop
vertex 0.898376 0.016172 1.141780
vertex 0.902050 0.009049 1.163784
vertex 0.898993 0.003091 1.149055
endloop
endfacet
facet normal 0.992080 -0.021983 -0.123673
outer loop
vertex 0.898993 0.003091 1.149055
vertex 0.896513 0.009542 1.128014
vertex 0.898376 0.016172 1.141780
endloop
endfacet
facet normal 0.974981 0.117643 -0.188606
outer loop
vertex 0.895773 0.028171 1.135808
vertex 0.898376 0.016172 1.141780
vertex 0.896513 0.009542 1.128014
endloop
endfacet
facet normal 0.978144 -0.083599 -0.190381
outer loop
vertex 0.898376 0.016172 1.141780
vertex 0.901462 0.024001 1.154197
vertex 0.902050 0.009049 1.163784
endloop
endfacet
facet normal 0.974795 0.117943 -0.189377
outer loop
vertex 0.895773 0.028171 1.135808
vertex 0.896513 0.009542 1.128014
vertex 0.893988 0.021600 1.122527
endloop
endfacet
facet normal 0.982235 0.175690 -0.065930
outer loop
vertex 0.893988 0.021600 1.122527
vertex 0.896513 0.009542 1.128014
vertex 0.896638 0.003316 1.113285
endloop
endfacet
facet normal 0.999064 -0.036148 0.023762
outer loop
vertex 0.895908 -0.003044 1.134299
vertex 0.896638 0.003316 1.113285
vertex 0.896513 0.009542 1.128014
endloop
endfacet
facet normal 0.980366 -0.123782 -0.153497
outer loop
vertex 0.898993 0.003091 1.149055
vertex 0.895908 -0.003044 1.134299
vertex 0.896513 0.009542 1.128014
endloop
endfacet
facet normal 0.951624 -0.297953 -0.075071
outer loop
vertex 0.892614 -0.015241 1.140953
vertex 0.895908 -0.003044 1.134299
vertex 0.898993 0.003091 1.149055
endloop
endfacet
facet normal 0.972362 -0.220084 0.077946
outer loop
vertex 0.892217 -0.022567 1.125220
vertex 0.895908 -0.003044 1.134299
vertex 0.892614 -0.015241 1.140953
endloop
endfacet
facet normal 0.973710 -0.216717 0.070161
outer loop
vertex 0.892217 -0.022567 1.125220
vertex 0.895463 -0.009829 1.119517
vertex 0.895908 -0.003044 1.134299
endloop
endfacet
facet normal 0.996355 -0.084832 0.008939
outer loop
vertex 0.895908 -0.003044 1.134299
vertex 0.895463 -0.009829 1.119517
vertex 0.896638 0.003316 1.113285
endloop
endfacet
facet normal 0.987124 -0.012630 0.159458
outer loop
vertex 0.896638 0.003316 1.113285
vertex 0.895463 -0.009829 1.119517
vertex 0.897696 -0.017091 1.105118
endloop
endfacet
facet normal 0.952557 -0.185521 0.241284
outer loop
vertex 0.894286 -0.031549 1.107464
vertex 0.897696 -0.017091 1.105118
vertex 0.895463 -0.009829 1.119517
endloop
endfacet
facet normal 0.967937 -0.159940 0.193694
outer loop
vertex 0.894286 -0.031549 1.107464
vertex 0.895463 -0.009829 1.119517
vertex 0.892217 -0.022567 1.125220
endloop
endfacet
facet normal 0.928863 -0.275511 0.247603
outer loop
vertex 0.894286 -0.031549 1.107464
vertex 0.892217 -0.022567 1.125220
vertex 0.887115 -0.033830 1.131827
endloop
endfacet
facet normal -0.506284 0.784557 -0.357975
outer loop
vertex 0.812648 0.029858 1.087150
vertex 0.822459 0.041207 1.098147
vertex 0.823037 0.035407 1.084618
endloop
endfacet
facet normal 0.906568 -0.351287 0.233948
outer loop
vertex 0.887115 -0.033830 1.131827
vertex 0.888063 -0.040939 1.117479
vertex 0.894286 -0.031549 1.107464
endloop
endfacet
facet normal 0.357964 -0.820445 0.445794
outer loop
vertex 0.872069 -0.066455 1.106197
vertex 0.867145 -0.077905 1.089078
vertex 0.877330 -0.070599 1.094346
endloop
endfacet
facet normal 0.736805 0.660433 -0.144728
outer loop
vertex 0.878670 0.025963 1.074014
vertex 0.887817 0.015550 1.073063
vertex 0.879406 0.022654 1.062661
endloop
endfacet
facet normal 0.724919 0.655985 -0.210183
outer loop
vertex 0.878954 0.029858 1.087150
vertex 0.887817 0.015550 1.073063
vertex 0.878670 0.025963 1.074014
endloop
endfacet
facet normal 0.758880 0.630512 -0.162959
outer loop
vertex 0.878954 0.029858 1.087150
vertex 0.887131 0.020822 1.090267
vertex 0.887817 0.015550 1.073063
endloop
endfacet
facet normal 0.809995 0.568971 -0.142056
outer loop
vertex 0.894519 0.011569 1.095333
vertex 0.887817 0.015550 1.073063
vertex 0.887131 0.020822 1.090267
endloop
endfacet
facet normal 0.727020 0.679689 -0.097289
outer loop
vertex 0.894519 0.011569 1.095333
vertex 0.896326 0.007882 1.083078
vertex 0.887817 0.015550 1.073063
endloop
endfacet
facet normal 0.503214 0.825480 -0.255653
outer loop
vertex 0.878670 0.025963 1.074014
vertex 0.868565 0.035407 1.084618
vertex 0.878954 0.029858 1.087150
endloop
endfacet
facet normal 0.470890 0.832287 -0.292508
outer loop
vertex 0.878670 0.025963 1.074014
vertex 0.868028 0.030788 1.070611
vertex 0.868565 0.035407 1.084618
endloop
endfacet
facet normal 0.460419 0.859816 -0.220749
outer loop
vertex 0.868028 0.030788 1.070611
vertex 0.878670 0.025963 1.074014
vertex 0.879406 0.022654 1.062661
endloop
endfacet
facet normal -0.939439 0.340821 0.035982
outer loop
vertex 0.797083 0.011569 1.095333
vertex 0.795276 0.007882 1.083078
vertex 0.791775 -0.003091 1.095612
endloop
endfacet
facet normal 0.216546 0.950865 -0.221276
outer loop
vertex 0.867201 0.027347 1.055015
vertex 0.856802 0.032899 1.068696
vertex 0.868028 0.030788 1.070611
endloop
endfacet
facet normal 0.464588 0.859227 -0.214214
outer loop
vertex 0.868028 0.030788 1.070611
vertex 0.879406 0.022654 1.062661
vertex 0.867201 0.027347 1.055015
endloop
endfacet
facet normal 0.571594 -0.661749 0.485148
outer loop
vertex 0.872069 -0.066455 1.106197
vertex 0.877330 -0.070599 1.094346
vertex 0.885232 -0.059300 1.100448
endloop
endfacet
facet normal 0.232070 0.949955 -0.209114
outer loop
vertex 0.867201 0.027347 1.055015
vertex 0.856524 0.029261 1.051861
vertex 0.856802 0.032899 1.068696
endloop
endfacet
facet normal 0.080137 0.976090 -0.202058
outer loop
vertex 0.845801 0.033501 1.068092
vertex 0.856524 0.029261 1.051861
vertex 0.845801 0.029934 1.050861
endloop
endfacet
facet normal 0.044312 0.952742 -0.300532
outer loop
vertex 0.845801 0.038278 1.083234
vertex 0.857140 0.037776 1.083315
vertex 0.845801 0.033501 1.068092
endloop
endfacet
facet normal 0.069211 0.945848 -0.317144
outer loop
vertex 0.845801 0.033501 1.068092
vertex 0.857140 0.037776 1.083315
vertex 0.856802 0.032899 1.068696
endloop
endfacet
facet normal 0.032220 0.915060 -0.402029
outer loop
vertex 0.845801 0.044338 1.097027
vertex 0.857533 0.043901 1.096973
vertex 0.845801 0.038278 1.083234
endloop
endfacet
facet normal 0.231844 -0.838069 0.493851
outer loop
vertex 0.859036 -0.074509 1.098648
vertex 0.867145 -0.077905 1.089078
vertex 0.872069 -0.066455 1.106197
endloop
endfacet
facet normal 0.243705 0.836149 -0.491388
outer loop
vertex 0.869143 0.041207 1.098147
vertex 0.857533 0.043901 1.096973
vertex 0.858113 0.051435 1.110081
endloop
endfacet
facet normal 0.245384 0.887157 -0.390819
outer loop
vertex 0.857533 0.043901 1.096973
vertex 0.869143 0.041207 1.098147
vertex 0.868565 0.035407 1.084618
endloop
endfacet
facet normal 0.229673 0.885574 -0.403744
outer loop
vertex 0.857533 0.043901 1.096973
vertex 0.868565 0.035407 1.084618
vertex 0.857140 0.037776 1.083315
endloop
endfacet
facet normal 0.305613 0.760827 -0.572489
outer loop
vertex 0.870919 0.057648 1.125174
vertex 0.858113 0.051435 1.110081
vertex 0.859228 0.060545 1.122783
endloop
endfacet
facet normal 0.022861 0.804156 -0.593979
outer loop
vertex 0.845801 0.061098 1.122690
vertex 0.858113 0.051435 1.110081
vertex 0.845801 0.051789 1.110087
endloop
endfacet
facet normal 0.024743 0.868302 -0.495418
outer loop
vertex 0.845801 0.051789 1.110087
vertex 0.858113 0.051435 1.110081
vertex 0.845801 0.044338 1.097027
endloop
endfacet
facet normal 0.271595 0.786751 -0.554309
outer loop
vertex 0.870919 0.057648 1.125174
vertex 0.869913 0.048331 1.111457
vertex 0.858113 0.051435 1.110081
endloop
endfacet
facet normal 0.275513 0.840809 -0.465975
outer loop
vertex 0.869143 0.041207 1.098147
vertex 0.858113 0.051435 1.110081
vertex 0.869913 0.048331 1.111457
endloop
endfacet
facet normal 0.592554 0.645491 -0.481893
outer loop
vertex 0.882126 0.048886 1.127218
vertex 0.869913 0.048331 1.111457
vertex 0.870919 0.057648 1.125174
endloop
endfacet
facet normal 0.299521 0.589735 -0.750000
outer loop
vertex 0.859228 0.060545 1.122783
vertex 0.867663 0.070029 1.133609
vertex 0.870919 0.057648 1.125174
endloop
endfacet
facet normal 0.527936 0.518325 -0.672772
outer loop
vertex 0.882126 0.048886 1.127218
vertex 0.870919 0.057648 1.125174
vertex 0.876130 0.065673 1.135446
endloop
endfacet
facet normal 0.446553 0.581020 -0.680446
outer loop
vertex 0.870919 0.057648 1.125174
vertex 0.867663 0.070029 1.133609
vertex 0.876130 0.065673 1.135446
endloop
endfacet
facet normal 0.661349 0.507112 -0.552680
outer loop
vertex 0.882126 0.048886 1.127218
vertex 0.876130 0.065673 1.135446
vertex 0.886145 0.056589 1.139095
endloop
endfacet
facet normal 0.793349 0.395825 -0.462515
outer loop
vertex 0.890159 0.039056 1.130975
vertex 0.886145 0.056589 1.139095
vertex 0.893629 0.046567 1.143355
endloop
endfacet
facet normal 0.747823 0.412232 -0.520409
outer loop
vertex 0.890159 0.039056 1.130975
vertex 0.882126 0.048886 1.127218
vertex 0.886145 0.056589 1.139095
endloop
endfacet
facet normal 0.131546 0.576181 -0.806667
outer loop
vertex 0.858061 0.072522 1.132846
vertex 0.845801 0.068398 1.127901
vertex 0.845801 0.074386 1.132178
endloop
endfacet
facet normal 0.224472 0.639583 -0.735218
outer loop
vertex 0.859228 0.060545 1.122783
vertex 0.858061 0.072522 1.132846
vertex 0.867663 0.070029 1.133609
endloop
endfacet
facet normal 0.897358 0.335552 -0.286626
outer loop
vertex 0.893988 0.021600 1.122527
vertex 0.890159 0.039056 1.130975
vertex 0.895773 0.028171 1.135808
endloop
endfacet
facet normal 0.887481 0.343403 -0.307330
outer loop
vertex 0.893988 0.021600 1.122527
vertex 0.888261 0.032224 1.117860
vertex 0.890159 0.039056 1.130975
endloop
endfacet
facet normal 0.872562 0.268991 -0.407774
outer loop
vertex 0.895773 0.028171 1.135808
vertex 0.890159 0.039056 1.130975
vertex 0.893629 0.046567 1.143355
endloop
endfacet
facet normal 0.783255 0.497676 -0.372599
outer loop
vertex 0.882126 0.048886 1.127218
vertex 0.890159 0.039056 1.130975
vertex 0.888261 0.032224 1.117860
endloop
endfacet
facet normal 0.866443 0.430805 -0.252358
outer loop
vertex 0.893732 0.015889 1.108758
vertex 0.887350 0.026136 1.104339
vertex 0.888261 0.032224 1.117860
endloop
endfacet
facet normal 0.779006 0.550417 -0.300319
outer loop
vertex 0.880274 0.041471 1.114089
vertex 0.888261 0.032224 1.117860
vertex 0.887350 0.026136 1.104339
endloop
endfacet
facet normal 0.769086 0.503955 -0.393110
outer loop
vertex 0.882126 0.048886 1.127218
vertex 0.888261 0.032224 1.117860
vertex 0.880274 0.041471 1.114089
endloop
endfacet
facet normal 0.896713 0.402692 -0.183695
outer loop
vertex 0.893732 0.015889 1.108758
vertex 0.888261 0.032224 1.117860
vertex 0.893988 0.021600 1.122527
endloop
endfacet
facet normal 0.567957 0.679773 -0.464040
outer loop
vertex 0.882126 0.048886 1.127218
vertex 0.880274 0.041471 1.114089
vertex 0.869913 0.048331 1.111457
endloop
endfacet
facet normal 0.575894 0.724419 -0.378898
outer loop
vertex 0.879424 0.035137 1.100687
vertex 0.869913 0.048331 1.111457
vertex 0.880274 0.041471 1.114089
endloop
endfacet
facet normal 0.772341 0.553977 -0.310805
outer loop
vertex 0.880274 0.041471 1.114089
vertex 0.887350 0.026136 1.104339
vertex 0.879424 0.035137 1.100687
endloop
endfacet
facet normal 0.758929 0.597324 -0.259289
outer loop
vertex 0.887131 0.020822 1.090267
vertex 0.878954 0.029858 1.087150
vertex 0.879424 0.035137 1.100687
endloop
endfacet
facet normal 0.539055 0.778212 -0.322187
outer loop
vertex 0.878954 0.029858 1.087150
vertex 0.869143 0.041207 1.098147
vertex 0.879424 0.035137 1.100687
endloop
endfacet
facet normal 0.535935 0.731056 -0.422293
outer loop
vertex 0.879424 0.035137 1.100687
vertex 0.869143 0.041207 1.098147
vertex 0.869913 0.048331 1.111457
endloop
endfacet
facet normal 0.774788 0.587375 -0.233867
outer loop
vertex 0.887131 0.020822 1.090267
vertex 0.879424 0.035137 1.100687
vertex 0.887350 0.026136 1.104339
endloop
endfacet
facet normal 0.868017 0.459903 -0.187179
outer loop
vertex 0.887131 0.020822 1.090267
vertex 0.887350 0.026136 1.104339
vertex 0.893732 0.015889 1.108758
endloop
endfacet
facet normal 0.939221 0.339035 -0.054039
outer loop
vertex 0.899827 -0.003091 1.095612
vertex 0.894519 0.011569 1.095333
vertex 0.893732 0.015889 1.108758
endloop
endfacet
facet normal 0.809236 0.571420 -0.136439
outer loop
vertex 0.887131 0.020822 1.090267
vertex 0.893732 0.015889 1.108758
vertex 0.894519 0.011569 1.095333
endloop
endfacet
facet normal 0.964077 0.252512 0.082423
outer loop
vertex 0.899827 -0.003091 1.095612
vertex 0.893732 0.015889 1.108758
vertex 0.896638 0.003316 1.113285
endloop
endfacet
facet normal 0.976808 0.190744 -0.097274
outer loop
vertex 0.893988 0.021600 1.122527
vertex 0.896638 0.003316 1.113285
vertex 0.893732 0.015889 1.108758
endloop
endfacet
facet normal 0.982320 -0.023411 0.185741
outer loop
vertex 0.896638 0.003316 1.113285
vertex 0.897696 -0.017091 1.105118
vertex 0.899827 -0.003091 1.095612
endloop
endfacet
facet normal 0.939433 0.340838 0.035982
outer loop
vertex 0.894519 0.011569 1.095333
vertex 0.899827 -0.003091 1.095612
vertex 0.896326 0.007882 1.083078
endloop
endfacet
facet normal 0.506284 0.784558 -0.357973
outer loop
vertex 0.878954 0.029858 1.087150
vertex 0.868565 0.035407 1.084618
vertex 0.869143 0.041207 1.098147
endloop
endfacet
facet normal 0.062958 -0.882367 0.466331
outer loop
vertex 0.845801 -0.075380 1.098315
vertex 0.845801 -0.082280 1.085259
vertex 0.856204 -0.080856 1.086548
endloop
endfacet
facet normal 0.048002 -0.897605 0.438178
outer loop
vertex 0.845801 -0.069059 1.111263
vertex 0.845801 -0.075380 1.098315
vertex 0.859036 -0.074509 1.098648
endloop
endfacet
facet normal 0.053973 -0.905426 0.421060
outer loop
vertex 0.845801 -0.062808 1.124705
vertex 0.845801 -0.069059 1.111263
vertex 0.857510 -0.068231 1.111542
endloop
endfacet
facet normal -0.896713 0.402692 -0.183697
outer loop
vertex 0.797870 0.015889 1.108758
vertex 0.797614 0.021600 1.122527
vertex 0.803341 0.032224 1.117860
endloop
endfacet
facet normal -0.585080 -0.741413 0.328616
outer loop
vertex 0.823901 -0.045664 1.153540
vertex 0.812082 -0.044472 1.135186
vertex 0.823291 -0.052460 1.137121
endloop
endfacet
facet normal 0.085536 -0.914057 0.396464
outer loop
vertex 0.845801 -0.056466 1.139326
vertex 0.845801 -0.062808 1.124705
vertex 0.856806 -0.055810 1.138464
endloop
endfacet
facet normal 0.299029 -0.868680 0.394940
outer loop
vertex 0.857262 -0.062194 1.124077
vertex 0.868311 -0.052460 1.137121
vertex 0.856806 -0.055810 1.138464
endloop
endfacet
facet normal -0.772341 0.553977 -0.310805
outer loop
vertex 0.811328 0.041471 1.114089
vertex 0.812178 0.035137 1.100687
vertex 0.804252 0.026136 1.104339
endloop
endfacet
facet normal 0.299264 -0.877653 0.374387
outer loop
vertex 0.856806 -0.055810 1.138464
vertex 0.868311 -0.052460 1.137121
vertex 0.867701 -0.045664 1.153540
endloop
endfacet
facet normal 0.342938 -0.875211 0.341174
outer loop
vertex 0.856806 -0.055810 1.138464
vertex 0.867701 -0.045664 1.153540
vertex 0.856669 -0.050041 1.153401
endloop
endfacet
facet normal 0.341817 -0.872602 0.348895
outer loop
vertex 0.867701 -0.045664 1.153540
vertex 0.856932 -0.044645 1.166639
vertex 0.856669 -0.050041 1.153401
endloop
endfacet
facet normal 0.226812 0.922295 -0.312934
outer loop
vertex 0.857140 0.037776 1.083315
vertex 0.868028 0.030788 1.070611
vertex 0.856802 0.032899 1.068696
endloop
endfacet
facet normal 0.105912 -0.932943 0.344092
outer loop
vertex 0.845801 -0.051117 1.153830
vertex 0.845801 -0.056466 1.139326
vertex 0.856669 -0.050041 1.153401
endloop
endfacet
facet normal 0.123343 -0.924751 0.360031
outer loop
vertex 0.845801 -0.046010 1.166948
vertex 0.845801 -0.051117 1.153830
vertex 0.856932 -0.044645 1.166639
endloop
endfacet
facet normal 0.123673 -0.931508 0.342048
outer loop
vertex 0.845801 -0.040944 1.180743
vertex 0.845801 -0.046010 1.166948
vertex 0.856932 -0.044645 1.166639
endloop
endfacet
facet normal -0.561910 -0.718057 0.410671
outer loop
vertex 0.821949 -0.059661 1.121133
vertex 0.810518 -0.051704 1.119405
vertex 0.806370 -0.059300 1.100448
endloop
endfacet
facet normal 0.065834 -0.996629 0.048954
outer loop
vertex 0.845801 -0.040030 1.199358
vertex 0.845801 -0.040944 1.180743
vertex 0.860245 -0.039216 1.196499
endloop
endfacet
facet normal 0.367870 -0.875724 0.312696
outer loop
vertex 0.867985 -0.040516 1.165199
vertex 0.857897 -0.039463 1.180016
vertex 0.856932 -0.044645 1.166639
endloop
endfacet
facet normal 0.367080 -0.854201 0.368229
outer loop
vertex 0.867701 -0.045664 1.153540
vertex 0.867985 -0.040516 1.165199
vertex 0.856932 -0.044645 1.166639
endloop
endfacet
facet normal 0.275696 -0.867570 0.413900
outer loop
vertex 0.857262 -0.062194 1.124077
vertex 0.869653 -0.059661 1.121133
vertex 0.868311 -0.052460 1.137121
endloop
endfacet
facet normal 0.566807 -0.732318 0.377412
outer loop
vertex 0.868311 -0.052460 1.137121
vertex 0.869653 -0.059661 1.121133
vertex 0.881084 -0.051704 1.119405
endloop
endfacet
facet normal 0.578571 -0.718247 0.386493
outer loop
vertex 0.868311 -0.052460 1.137121
vertex 0.881084 -0.051704 1.119405
vertex 0.879520 -0.044472 1.135186
endloop
endfacet
facet normal 0.585081 -0.741412 0.328616
outer loop
vertex 0.867701 -0.045664 1.153540
vertex 0.868311 -0.052460 1.137121
vertex 0.879520 -0.044472 1.135186
endloop
endfacet
facet normal 0.824454 -0.512967 0.239041
outer loop
vertex 0.887131 -0.026655 1.147169
vertex 0.879520 -0.044472 1.135186
vertex 0.887115 -0.033830 1.131827
endloop
endfacet
facet normal 0.811016 -0.522890 0.262371
outer loop
vertex 0.887131 -0.026655 1.147169
vertex 0.879011 -0.037286 1.151081
vertex 0.879520 -0.044472 1.135186
endloop
endfacet
facet normal 0.606086 -0.717309 0.343697
outer loop
vertex 0.867701 -0.045664 1.153540
vertex 0.879520 -0.044472 1.135186
vertex 0.879011 -0.037286 1.151081
endloop
endfacet
facet normal 0.823740 -0.480068 0.301641
outer loop
vertex 0.888063 -0.040939 1.117479
vertex 0.879520 -0.044472 1.135186
vertex 0.881084 -0.051704 1.119405
endloop
endfacet
facet normal 0.819049 -0.490718 0.297247
outer loop
vertex 0.888063 -0.040939 1.117479
vertex 0.887115 -0.033830 1.131827
vertex 0.879520 -0.044472 1.135186
endloop
endfacet
facet normal 0.278357 -0.856510 0.434635
outer loop
vertex 0.872069 -0.066455 1.106197
vertex 0.869653 -0.059661 1.121133
vertex 0.857262 -0.062194 1.124077
endloop
endfacet
facet normal 0.261154 -0.867662 0.423038
outer loop
vertex 0.872069 -0.066455 1.106197
vertex 0.857262 -0.062194 1.124077
vertex 0.857510 -0.068231 1.111542
endloop
endfacet
facet normal 0.268270 -0.853256 0.447197
outer loop
vertex 0.859036 -0.074509 1.098648
vertex 0.872069 -0.066455 1.106197
vertex 0.857510 -0.068231 1.111542
endloop
endfacet
facet normal 0.139647 -0.889958 0.434136
outer loop
vertex 0.859036 -0.074509 1.098648
vertex 0.856204 -0.080856 1.086548
vertex 0.867145 -0.077905 1.089078
endloop
endfacet
facet normal 0.929966 -0.341705 0.135646
outer loop
vertex 0.887115 -0.033830 1.131827
vertex 0.892217 -0.022567 1.125220
vertex 0.892614 -0.015241 1.140953
endloop
endfacet
facet normal 0.921090 -0.353053 0.164157
outer loop
vertex 0.887115 -0.033830 1.131827
vertex 0.892614 -0.015241 1.140953
vertex 0.887131 -0.026655 1.147169
endloop
endfacet
facet normal 0.944000 -0.329929 0.003292
outer loop
vertex 0.892614 -0.015241 1.140953
vertex 0.898993 0.003091 1.149055
vertex 0.894946 -0.008411 1.156762
endloop
endfacet
facet normal 0.909689 -0.412931 0.044203
outer loop
vertex 0.894946 -0.008411 1.156762
vertex 0.887131 -0.026655 1.147169
vertex 0.892614 -0.015241 1.140953
endloop
endfacet
facet normal 0.929996 -0.285076 -0.232032
outer loop
vertex 0.894946 -0.008411 1.156762
vertex 0.902050 0.009049 1.163784
vertex 0.900582 -0.003251 1.173012
endloop
endfacet
facet normal 0.931772 -0.359882 -0.047814
outer loop
vertex 0.894946 -0.008411 1.156762
vertex 0.898993 0.003091 1.149055
vertex 0.902050 0.009049 1.163784
endloop
endfacet
facet normal 0.071854 -0.898072 0.433939
outer loop
vertex 0.857262 -0.062194 1.124077
vertex 0.845801 -0.062808 1.124705
vertex 0.857510 -0.068231 1.111542
endloop
endfacet
facet normal -0.535940 0.731052 -0.422292
outer loop
vertex 0.812178 0.035137 1.100687
vertex 0.821689 0.048331 1.111457
vertex 0.822459 0.041207 1.098147
endloop
endfacet
facet normal 0.031892 0.644775 -0.763707
outer loop
vertex 0.845801 0.061098 1.122690
vertex 0.858061 0.072522 1.132846
vertex 0.859228 0.060545 1.122783
endloop
endfacet
facet normal 0.131672 0.575975 -0.806793
outer loop
vertex 0.858061 0.072522 1.132846
vertex 0.845801 0.061098 1.122690
vertex 0.845801 0.068398 1.127901
endloop
endfacet
facet normal -0.815908 -0.468278 0.339131
outer loop
vertex 0.810518 -0.051704 1.119405
vertex 0.803539 -0.040939 1.117479
vertex 0.801415 -0.045955 1.105443
endloop
endfacet
facet normal 0.047017 -0.889072 0.455347
outer loop
vertex 0.859036 -0.074509 1.098648
vertex 0.845801 -0.075380 1.098315
vertex 0.856204 -0.080856 1.086548
endloop
endfacet
facet normal -0.976811 0.190733 -0.097273
outer loop
vertex 0.797614 0.021600 1.122527
vertex 0.797870 0.015889 1.108758
vertex 0.794964 0.003316 1.113285
endloop
endfacet
facet normal -0.203288 -0.978053 0.045683
outer loop
vertex 0.833705 -0.039463 1.180016
vertex 0.816927 -0.035446 1.191353
vertex 0.821457 -0.037049 1.177194
endloop
endfacet
facet normal -0.667159 -0.739028 0.093467
outer loop
vertex 0.823617 -0.040516 1.165199
vertex 0.821457 -0.037049 1.177194
vertex 0.812357 -0.030041 1.167648
endloop
endfacet
facet normal -0.539829 -0.835924 -0.099075
outer loop
vertex 0.821457 -0.037049 1.177194
vertex 0.805381 -0.027651 1.185492
vertex 0.812357 -0.030041 1.167648
endloop
endfacet
facet normal -0.611562 -0.729180 0.307065
outer loop
vertex 0.812357 -0.030041 1.167648
vertex 0.823901 -0.045664 1.153540
vertex 0.823617 -0.040516 1.165199
endloop
endfacet
facet normal -0.700727 -0.689948 -0.181533
outer loop
vertex 0.805381 -0.027651 1.185492
vertex 0.803439 -0.019720 1.162845
vertex 0.812357 -0.030041 1.167648
endloop
endfacet
facet normal -0.608468 -0.730211 0.310737
outer loop
vertex 0.812357 -0.030041 1.167648
vertex 0.812591 -0.037286 1.151081
vertex 0.823901 -0.045664 1.153540
endloop
endfacet
facet normal -0.786971 -0.569302 0.237849
outer loop
vertex 0.803439 -0.019720 1.162845
vertex 0.812591 -0.037286 1.151081
vertex 0.812357 -0.030041 1.167648
endloop
endfacet
facet normal -0.880709 -0.451892 0.141936
outer loop
vertex 0.796656 -0.008411 1.156762
vertex 0.804471 -0.026655 1.147169
vertex 0.803439 -0.019720 1.162845
endloop
endfacet
facet normal -0.812704 -0.550774 0.190158
outer loop
vertex 0.803439 -0.019720 1.162845
vertex 0.804471 -0.026655 1.147169
vertex 0.812591 -0.037286 1.151081
endloop
endfacet
facet normal -0.825089 -0.554151 -0.110201
outer loop
vertex 0.791020 -0.003251 1.173012
vertex 0.796656 -0.008411 1.156762
vertex 0.803439 -0.019720 1.162845
endloop
endfacet
facet normal -0.841100 -0.477984 -0.253143
outer loop
vertex 0.791020 -0.003251 1.173012
vertex 0.803439 -0.019720 1.162845
vertex 0.796604 -0.016458 1.179396
endloop
endfacet
facet normal -0.728383 -0.663750 -0.169984
outer loop
vertex 0.805381 -0.027651 1.185492
vertex 0.796604 -0.016458 1.179396
vertex 0.803439 -0.019720 1.162845
endloop
endfacet
facet normal -0.888395 0.259031 -0.379023
outer loop
vertex 0.795829 0.028171 1.135808
vertex 0.792628 0.035574 1.148370
vertex 0.797973 0.046567 1.143355
endloop
endfacet
facet normal -0.992079 -0.021999 -0.123673
outer loop
vertex 0.792609 0.003091 1.149055
vertex 0.793226 0.016172 1.141780
vertex 0.795089 0.009542 1.128014
endloop
endfacet
facet normal -0.974982 0.117634 -0.188606
outer loop
vertex 0.795829 0.028171 1.135808
vertex 0.795089 0.009542 1.128014
vertex 0.793226 0.016172 1.141780
endloop
endfacet
facet normal -0.982235 0.175690 -0.065928
outer loop
vertex 0.797614 0.021600 1.122527
vertex 0.794964 0.003316 1.113285
vertex 0.795089 0.009542 1.128014
endloop
endfacet
facet normal -0.999063 -0.036164 0.023762
outer loop
vertex 0.795694 -0.003044 1.134299
vertex 0.795089 0.009542 1.128014
vertex 0.794964 0.003316 1.113285
endloop
endfacet
facet normal -0.980368 -0.123762 -0.153497
outer loop
vertex 0.792609 0.003091 1.149055
vertex 0.795089 0.009542 1.128014
vertex 0.795694 -0.003044 1.134299
endloop
endfacet
facet normal -0.952559 -0.185506 0.241284
outer loop
vertex 0.797316 -0.031549 1.107464
vertex 0.796139 -0.009829 1.119517
vertex 0.793906 -0.017091 1.105118
endloop
endfacet
facet normal -0.928864 -0.275508 0.247603
outer loop
vertex 0.797316 -0.031549 1.107464
vertex 0.804487 -0.033830 1.131827
vertex 0.799385 -0.022567 1.125220
endloop
endfacet
facet normal -0.967937 -0.159940 0.193694
outer loop
vertex 0.797316 -0.031549 1.107464
vertex 0.799385 -0.022567 1.125220
vertex 0.796139 -0.009829 1.119517
endloop
endfacet
facet normal -0.906568 -0.351287 0.233948
outer loop
vertex 0.804487 -0.033830 1.131827
vertex 0.797316 -0.031549 1.107464
vertex 0.803539 -0.040939 1.117479
endloop
endfacet
facet normal -0.357965 -0.820442 0.445798
outer loop
vertex 0.819533 -0.066455 1.106197
vertex 0.814272 -0.070599 1.094346
vertex 0.824457 -0.077905 1.089078
endloop
endfacet
facet normal -0.736793 0.660447 -0.144725
outer loop
vertex 0.812932 0.025963 1.074014
vertex 0.812196 0.022654 1.062661
vertex 0.803785 0.015550 1.073063
endloop
endfacet
facet normal -0.724921 0.655982 -0.210184
outer loop
vertex 0.812648 0.029858 1.087150
vertex 0.812932 0.025963 1.074014
vertex 0.803785 0.015550 1.073063
endloop
endfacet
facet normal -0.727010 0.679700 -0.097287
outer loop
vertex 0.797083 0.011569 1.095333
vertex 0.803785 0.015550 1.073063
vertex 0.795276 0.007882 1.083078
endloop
endfacet
facet normal -0.503207 0.825485 -0.255650
outer loop
vertex 0.812932 0.025963 1.074014
vertex 0.812648 0.029858 1.087150
vertex 0.823037 0.035407 1.084618
endloop
endfacet
facet normal -0.470890 0.832287 -0.292508
outer loop
vertex 0.812932 0.025963 1.074014
vertex 0.823037 0.035407 1.084618
vertex 0.823574 0.030788 1.070611
endloop
endfacet
facet normal -0.460430 0.859810 -0.220754
outer loop
vertex 0.823574 0.030788 1.070611
vertex 0.812196 0.022654 1.062661
vertex 0.812932 0.025963 1.074014
endloop
endfacet
facet normal -0.216549 0.950864 -0.221279
outer loop
vertex 0.824401 0.027347 1.055015
vertex 0.823574 0.030788 1.070611
vertex 0.834800 0.032899 1.068696
endloop
endfacet
facet normal -0.464579 0.859232 -0.214210
outer loop
vertex 0.823574 0.030788 1.070611
vertex 0.824401 0.027347 1.055015
vertex 0.812196 0.022654 1.062661
endloop
endfacet
facet normal -0.571595 -0.661746 0.485151
outer loop
vertex 0.819533 -0.066455 1.106197
vertex 0.806370 -0.059300 1.100448
vertex 0.814272 -0.070599 1.094346
endloop
endfacet
facet normal -0.069212 0.945848 -0.317146
outer loop
vertex 0.845801 0.033501 1.068092
vertex 0.834800 0.032899 1.068696
vertex 0.834462 0.037776 1.083315
endloop
endfacet
facet normal -0.032221 0.915057 -0.402035
outer loop
vertex 0.845801 0.044338 1.097027
vertex 0.845801 0.038278 1.083234
vertex 0.834069 0.043901 1.096973
endloop
endfacet
facet normal -0.232072 0.949954 -0.209116
outer loop
vertex 0.824401 0.027347 1.055015
vertex 0.834800 0.032899 1.068696
vertex 0.835078 0.029261 1.051861
endloop
endfacet
facet normal -0.245381 0.887158 -0.390818
outer loop
vertex 0.834069 0.043901 1.096973
vertex 0.823037 0.035407 1.084618
vertex 0.822459 0.041207 1.098147
endloop
endfacet
facet normal -0.231841 -0.838073 0.493846
outer loop
vertex 0.832566 -0.074509 1.098648
vertex 0.819533 -0.066455 1.106197
vertex 0.824457 -0.077905 1.089078
endloop
endfacet
facet normal -0.305618 0.760818 -0.572497
outer loop
vertex 0.820683 0.057648 1.125174
vertex 0.832374 0.060545 1.122783
vertex 0.833489 0.051435 1.110081
endloop
endfacet
facet normal -0.229672 0.885575 -0.403741
outer loop
vertex 0.834069 0.043901 1.096973
vertex 0.834462 0.037776 1.083315
vertex 0.823037 0.035407 1.084618
endloop
endfacet
facet normal -0.024743 0.868298 -0.495425
outer loop
vertex 0.845801 0.051789 1.110087
vertex 0.845801 0.044338 1.097027
vertex 0.833489 0.051435 1.110081
endloop
endfacet
facet normal -0.131546 0.576186 -0.806663
outer loop
vertex 0.833541 0.072522 1.132846
vertex 0.845801 0.074386 1.132178
vertex 0.845801 0.068398 1.127901
endloop
endfacet
facet normal -0.224469 0.639595 -0.735209
outer loop
vertex 0.832374 0.060545 1.122783
vertex 0.823939 0.070029 1.133609
vertex 0.833541 0.072522 1.132846
endloop
endfacet
facet normal -0.793344 0.395834 -0.462515
outer loop
vertex 0.801443 0.039056 1.130975
vertex 0.797973 0.046567 1.143355
vertex 0.805457 0.056589 1.139095
endloop
endfacet
facet normal -0.747819 0.412239 -0.520409
outer loop
vertex 0.801443 0.039056 1.130975
vertex 0.805457 0.056589 1.139095
vertex 0.809476 0.048886 1.127218
endloop
endfacet
facet normal -0.446556 0.581012 -0.680451
outer loop
vertex 0.820683 0.057648 1.125174
vertex 0.815472 0.065673 1.135446
vertex 0.823939 0.070029 1.133609
endloop
endfacet
facet normal -0.897362 0.335544 -0.286622
outer loop
vertex 0.797614 0.021600 1.122527
vertex 0.795829 0.028171 1.135808
vertex 0.801443 0.039056 1.130975
endloop
endfacet
facet normal -0.872565 0.268982 -0.407773
outer loop
vertex 0.795829 0.028171 1.135808
vertex 0.797973 0.046567 1.143355
vertex 0.801443 0.039056 1.130975
endloop
endfacet
facet normal -0.783257 0.497668 -0.372605
outer loop
vertex 0.809476 0.048886 1.127218
vertex 0.803341 0.032224 1.117860
vertex 0.801443 0.039056 1.130975
endloop
endfacet
facet normal 0.065030 0.975147 -0.211798
outer loop
vertex 0.845801 0.033501 1.068092
vertex 0.856802 0.032899 1.068696
vertex 0.856524 0.029261 1.051861
endloop
endfacet
facet normal -0.779010 0.550410 -0.300320
outer loop
vertex 0.811328 0.041471 1.114089
vertex 0.804252 0.026136 1.104339
vertex 0.803341 0.032224 1.117860
endloop
endfacet
facet normal -0.567957 0.679774 -0.464039
outer loop
vertex 0.809476 0.048886 1.127218
vertex 0.821689 0.048331 1.111457
vertex 0.811328 0.041471 1.114089
endloop
endfacet
facet normal -0.887477 0.343411 -0.307333
outer loop
vertex 0.797614 0.021600 1.122527
vertex 0.801443 0.039056 1.130975
vertex 0.803341 0.032224 1.117860
endloop
endfacet
facet normal 0.121395 -0.992601 -0.002418
outer loop
vertex 0.857897 -0.039463 1.180016
vertex 0.860245 -0.039216 1.196499
vertex 0.845801 -0.040944 1.180743
endloop
endfacet
facet normal -0.758920 0.597337 -0.259286
outer loop
vertex 0.804471 0.020822 1.090267
vertex 0.812178 0.035137 1.100687
vertex 0.812648 0.029858 1.087150
endloop
endfacet
facet normal -0.575895 0.724418 -0.378899
outer loop
vertex 0.812178 0.035137 1.100687
vertex 0.811328 0.041471 1.114089
vertex 0.821689 0.048331 1.111457
endloop
endfacet
facet normal -0.866435 0.430820 -0.252357
outer loop
vertex 0.797870 0.015889 1.108758
vertex 0.803341 0.032224 1.117860
vertex 0.804252 0.026136 1.104339
endloop
endfacet
facet normal -0.774788 0.587375 -0.233867
outer loop
vertex 0.804471 0.020822 1.090267
vertex 0.804252 0.026136 1.104339
vertex 0.812178 0.035137 1.100687
endloop
endfacet
facet normal -0.964078 0.252507 0.082425
outer loop
vertex 0.791775 -0.003091 1.095612
vertex 0.794964 0.003316 1.113285
vertex 0.797870 0.015889 1.108758
endloop
endfacet
facet normal -0.939220 0.339034 -0.054043
outer loop
vertex 0.791775 -0.003091 1.095612
vertex 0.797870 0.015889 1.108758
vertex 0.797083 0.011569 1.095333
endloop
endfacet
facet normal -0.539067 0.778203 -0.322192
outer loop
vertex 0.812648 0.029858 1.087150
vertex 0.812178 0.035137 1.100687
vertex 0.822459 0.041207 1.098147
endloop
endfacet
facet normal -0.048003 -0.897605 0.438179
outer loop
vertex 0.845801 -0.069059 1.111263
vertex 0.832566 -0.074509 1.098648
vertex 0.845801 -0.075380 1.098315
endloop
endfacet
facet normal -0.809231 0.571427 -0.136441
outer loop
vertex 0.804471 0.020822 1.090267
vertex 0.797083 0.011569 1.095333
vertex 0.797870 0.015889 1.108758
endloop
endfacet
facet normal -0.982320 -0.023411 0.185741
outer loop
vertex 0.794964 0.003316 1.113285
vertex 0.791775 -0.003091 1.095612
vertex 0.793906 -0.017091 1.105118
endloop
endfacet
facet normal -0.053973 -0.905427 0.421056
outer loop
vertex 0.845801 -0.062808 1.124705
vertex 0.834092 -0.068231 1.111542
vertex 0.845801 -0.069059 1.111263
endloop
endfacet
facet normal -0.062958 -0.882369 0.466326
outer loop
vertex 0.845801 -0.075380 1.098315
vertex 0.835398 -0.080856 1.086548
vertex 0.845801 -0.082280 1.085259
endloop
endfacet
facet normal -0.085536 -0.914057 0.396463
outer loop
vertex 0.845801 -0.056466 1.139326
vertex 0.834796 -0.055810 1.138464
vertex 0.845801 -0.062808 1.124705
endloop
endfacet
facet normal -0.299031 -0.868677 0.394943
outer loop
vertex 0.834340 -0.062194 1.124077
vertex 0.834796 -0.055810 1.138464
vertex 0.823291 -0.052460 1.137121
endloop
endfacet
facet normal -0.299264 -0.877653 0.374387
outer loop
vertex 0.834796 -0.055810 1.138464
vertex 0.823901 -0.045664 1.153540
vertex 0.823291 -0.052460 1.137121
endloop
endfacet
facet normal -0.342938 -0.875212 0.341170
outer loop
vertex 0.834796 -0.055810 1.138464
vertex 0.834933 -0.050041 1.153401
vertex 0.823901 -0.045664 1.153540
endloop
endfacet
facet normal -0.341820 -0.872599 0.348898
outer loop
vertex 0.823901 -0.045664 1.153540
vertex 0.834933 -0.050041 1.153401
vertex 0.834670 -0.044645 1.166639
endloop
endfacet
facet normal -0.123343 -0.924751 0.360030
outer loop
vertex 0.845801 -0.046010 1.166948
vertex 0.834670 -0.044645 1.166639
vertex 0.845801 -0.051117 1.153830
endloop
endfacet
facet normal -0.123672 -0.931510 0.342044
outer loop
vertex 0.845801 -0.040944 1.180743
vertex 0.834670 -0.044645 1.166639
vertex 0.845801 -0.046010 1.166948
endloop
endfacet
facet normal -0.065834 -0.996629 0.048954
outer loop
vertex 0.845801 -0.040030 1.199358
vertex 0.831357 -0.039216 1.196499
vertex 0.845801 -0.040944 1.180743
endloop
endfacet
facet normal 0.910557 -0.299104 0.285346
outer loop
vertex 0.890187 -0.045955 1.105443
vertex 0.894286 -0.031549 1.107464
vertex 0.888063 -0.040939 1.117479
endloop
endfacet
facet normal -0.566810 -0.732315 0.377413
outer loop
vertex 0.823291 -0.052460 1.137121
vertex 0.810518 -0.051704 1.119405
vertex 0.821949 -0.059661 1.121133
endloop
endfacet
facet normal -0.105912 -0.932943 0.344092
outer loop
vertex 0.845801 -0.051117 1.153830
vertex 0.834933 -0.050041 1.153401
vertex 0.845801 -0.056466 1.139326
endloop
endfacet
facet normal -0.811006 -0.522907 0.262368
outer loop
vertex 0.804471 -0.026655 1.147169
vertex 0.812082 -0.044472 1.135186
vertex 0.812591 -0.037286 1.151081
endloop
endfacet
facet normal -0.226807 0.922299 -0.312927
outer loop
vertex 0.834462 0.037776 1.083315
vertex 0.834800 0.032899 1.068696
vertex 0.823574 0.030788 1.070611
endloop
endfacet
facet normal -0.606089 -0.717305 0.343698
outer loop
vertex 0.823901 -0.045664 1.153540
vertex 0.812591 -0.037286 1.151081
vertex 0.812082 -0.044472 1.135186
endloop
endfacet
facet normal -0.261158 -0.867658 0.423045
outer loop
vertex 0.819533 -0.066455 1.106197
vertex 0.834092 -0.068231 1.111542
vertex 0.834340 -0.062194 1.124077
endloop
endfacet
facet normal -0.929969 -0.341698 0.135644
outer loop
vertex 0.804487 -0.033830 1.131827
vertex 0.798988 -0.015241 1.140953
vertex 0.799385 -0.022567 1.125220
endloop
endfacet
facet normal -0.268269 -0.853257 0.447196
outer loop
vertex 0.832566 -0.074509 1.098648
vertex 0.834092 -0.068231 1.111542
vertex 0.819533 -0.066455 1.106197
endloop
endfacet
facet normal -0.139647 -0.889957 0.434137
outer loop
vertex 0.832566 -0.074509 1.098648
vertex 0.824457 -0.077905 1.089078
vertex 0.835398 -0.080856 1.086548
endloop
endfacet
facet normal -0.931774 -0.359875 -0.047814
outer loop
vertex 0.796656 -0.008411 1.156762
vertex 0.789552 0.009049 1.163784
vertex 0.792609 0.003091 1.149055
endloop
endfacet
facet normal -0.909690 -0.412928 0.044208
outer loop
vertex 0.796656 -0.008411 1.156762
vertex 0.798988 -0.015241 1.140953
vertex 0.804471 -0.026655 1.147169
endloop
endfacet
facet normal -0.929995 -0.285076 -0.232036
outer loop
vertex 0.796656 -0.008411 1.156762
vertex 0.791020 -0.003251 1.173012
vertex 0.789552 0.009049 1.163784
endloop
endfacet
facet normal -0.943999 -0.329933 0.003295
outer loop
vertex 0.798988 -0.015241 1.140953
vertex 0.796656 -0.008411 1.156762
vertex 0.792609 0.003091 1.149055
endloop
endfacet
facet normal -0.921088 -0.353056 0.164158
outer loop
vertex 0.804487 -0.033830 1.131827
vertex 0.804471 -0.026655 1.147169
vertex 0.798988 -0.015241 1.140953
endloop
endfacet
facet normal -0.278354 -0.856514 0.434629
outer loop
vertex 0.819533 -0.066455 1.106197
vertex 0.834340 -0.062194 1.124077
vertex 0.821949 -0.059661 1.121133
endloop
endfacet
facet normal -0.819045 -0.490722 0.297249
outer loop
vertex 0.803539 -0.040939 1.117479
vertex 0.812082 -0.044472 1.135186
vertex 0.804487 -0.033830 1.131827
endloop
endfacet
facet normal -0.823739 -0.480068 0.301643
outer loop
vertex 0.803539 -0.040939 1.117479
vertex 0.810518 -0.051704 1.119405
vertex 0.812082 -0.044472 1.135186
endloop
endfacet
facet normal -0.868020 0.459897 -0.187181
outer loop
vertex 0.804471 0.020822 1.090267
vertex 0.797870 0.015889 1.108758
vertex 0.804252 0.026136 1.104339
endloop
endfacet
facet normal -0.071856 -0.898068 0.433948
outer loop
vertex 0.834340 -0.062194 1.124077
vertex 0.834092 -0.068231 1.111542
vertex 0.845801 -0.062808 1.124705
endloop
endfacet
facet normal 0.071050 -0.910906 0.406452
outer loop
vertex 0.857262 -0.062194 1.124077
vertex 0.856806 -0.055810 1.138464
vertex 0.845801 -0.062808 1.124705
endloop
endfacet
facet normal 0.134524 -0.927234 0.349485
outer loop
vertex 0.857897 -0.039463 1.180016
vertex 0.845801 -0.040944 1.180743
vertex 0.856932 -0.044645 1.166639
endloop
endfacet
facet normal -0.047017 -0.889071 0.455349
outer loop
vertex 0.832566 -0.074509 1.098648
vertex 0.835398 -0.080856 1.086548
vertex 0.845801 -0.075380 1.098315
endloop
endfacet
facet normal 0.824425 -0.439563 0.356521
outer loop
vertex 0.881084 -0.051704 1.119405
vertex 0.885232 -0.059300 1.100448
vertex 0.890187 -0.045955 1.105443
endloop
endfacet
facet normal -0.065030 0.975147 -0.211799
outer loop
vertex 0.845801 0.033501 1.068092
vertex 0.835078 0.029261 1.051861
vertex 0.834800 0.032899 1.068696
endloop
endfacet
facet normal -0.121397 -0.992601 -0.002418
outer loop
vertex 0.833705 -0.039463 1.180016
vertex 0.845801 -0.040944 1.180743
vertex 0.831357 -0.039216 1.196499
endloop
endfacet
facet normal -0.043256 0.911130 -0.409843
outer loop
vertex 0.845801 0.038278 1.083234
vertex 0.834462 0.037776 1.083315
vertex 0.834069 0.043901 1.096973
endloop
endfacet
facet normal 0.561913 -0.718054 0.410673
outer loop
vertex 0.869653 -0.059661 1.121133
vertex 0.885232 -0.059300 1.100448
vertex 0.881084 -0.051704 1.119405
endloop
endfacet
facet normal -0.910553 -0.299123 0.285340
outer loop
vertex 0.801415 -0.045955 1.105443
vertex 0.803539 -0.040939 1.117479
vertex 0.797316 -0.031549 1.107464
endloop
endfacet
facet normal -0.083576 -0.929320 0.359692
outer loop
vertex 0.845801 -0.056466 1.139326
vertex 0.834933 -0.050041 1.153401
vertex 0.834796 -0.055810 1.138464
endloop
endfacet
facet normal -0.134527 -0.927232 0.349490
outer loop
vertex 0.833705 -0.039463 1.180016
vertex 0.834670 -0.044645 1.166639
vertex 0.845801 -0.040944 1.180743
endloop
endfacet
facet normal -0.245876 -0.969085 -0.020503
outer loop
vertex 0.833705 -0.039463 1.180016
vertex 0.831357 -0.039216 1.196499
vertex 0.816927 -0.035446 1.191353
endloop
endfacet
facet normal -0.105947 -0.921546 0.373534
outer loop
vertex 0.834933 -0.050041 1.153401
vertex 0.845801 -0.051117 1.153830
vertex 0.834670 -0.044645 1.166639
endloop
endfacet
facet normal -0.824430 -0.439552 0.356523
outer loop
vertex 0.810518 -0.051704 1.119405
vertex 0.801415 -0.045955 1.105443
vertex 0.806370 -0.059300 1.100448
endloop
endfacet
facet normal -0.131672 0.575983 -0.806787
outer loop
vertex 0.833541 0.072522 1.132846
vertex 0.845801 0.068398 1.127901
vertex 0.845801 0.061098 1.122690
endloop
endfacet
facet normal -0.031893 0.644766 -0.763714
outer loop
vertex 0.845801 0.061098 1.122690
vertex 0.832374 0.060545 1.122783
vertex 0.833541 0.072522 1.132846
endloop
endfacet
facet normal -0.029973 0.866029 -0.499095
outer loop
vertex 0.845801 0.044338 1.097027
vertex 0.834069 0.043901 1.096973
vertex 0.833489 0.051435 1.110081
endloop
endfacet
facet normal -0.226930 0.922298 -0.312842
outer loop
vertex 0.834462 0.037776 1.083315
vertex 0.823574 0.030788 1.070611
vertex 0.823037 0.035407 1.084618
endloop
endfacet
facet normal -0.052758 -0.895368 0.442191
outer loop
vertex 0.834092 -0.068231 1.111542
vertex 0.832566 -0.074509 1.098648
vertex 0.845801 -0.069059 1.111263
endloop
endfacet
facet normal -0.037465 0.810479 -0.584569
outer loop
vertex 0.832374 0.060545 1.122783
vertex 0.845801 0.061098 1.122690
vertex 0.833489 0.051435 1.110081
endloop
endfacet
facet normal -0.567730 -0.710849 0.415182
outer loop
vertex 0.821949 -0.059661 1.121133
vertex 0.806370 -0.059300 1.100448
vertex 0.819533 -0.066455 1.106197
endloop
endfacet
facet normal -0.243701 0.836155 -0.491381
outer loop
vertex 0.822459 0.041207 1.098147
vertex 0.833489 0.051435 1.110081
vertex 0.834069 0.043901 1.096973
endloop
endfacet
facet normal -0.044313 0.952741 -0.300533
outer loop
vertex 0.845801 0.038278 1.083234
vertex 0.845801 0.033501 1.068092
vertex 0.834462 0.037776 1.083315
endloop
endfacet
facet normal -0.080138 0.976089 -0.202060
outer loop
vertex 0.845801 0.033501 1.068092
vertex 0.845801 0.029934 1.050861
vertex 0.835078 0.029261 1.051861
endloop
endfacet
facet normal -0.810003 0.568960 -0.142057
outer loop
vertex 0.797083 0.011569 1.095333
vertex 0.804471 0.020822 1.090267
vertex 0.803785 0.015550 1.073063
endloop
endfacet
facet normal -0.758877 0.630517 -0.162958
outer loop
vertex 0.812648 0.029858 1.087150
vertex 0.803785 0.015550 1.073063
vertex 0.804471 0.020822 1.090267
endloop
endfacet
facet normal -0.973710 -0.216717 0.070161
outer loop
vertex 0.799385 -0.022567 1.125220
vertex 0.795694 -0.003044 1.134299
vertex 0.796139 -0.009829 1.119517
endloop
endfacet
facet normal -0.972363 -0.220081 0.077941
outer loop
vertex 0.799385 -0.022567 1.125220
vertex 0.798988 -0.015241 1.140953
vertex 0.795694 -0.003044 1.134299
endloop
endfacet
facet normal -0.978143 -0.083610 -0.190381
outer loop
vertex 0.793226 0.016172 1.141780
vertex 0.789552 0.009049 1.163784
vertex 0.790140 0.024001 1.154197
endloop
endfacet
facet normal -0.531695 -0.843644 -0.074603
outer loop
vertex 0.821457 -0.037049 1.177194
vertex 0.816927 -0.035446 1.191353
vertex 0.805381 -0.027651 1.185492
endloop
endfacet
facet normal -0.957984 0.065327 -0.279283
outer loop
vertex 0.792628 0.035574 1.148370
vertex 0.793226 0.016172 1.141780
vertex 0.790140 0.024001 1.154197
endloop
endfacet
facet normal -0.981840 -0.054714 -0.181647
outer loop
vertex 0.793226 0.016172 1.141780
vertex 0.792609 0.003091 1.149055
vertex 0.789552 0.009049 1.163784
endloop
endfacet
facet normal -0.996356 -0.084821 0.008939
outer loop
vertex 0.795694 -0.003044 1.134299
vertex 0.794964 0.003316 1.113285
vertex 0.796139 -0.009829 1.119517
endloop
endfacet
facet normal -0.987124 -0.012646 0.159458
outer loop
vertex 0.794964 0.003316 1.113285
vertex 0.793906 -0.017091 1.105118
vertex 0.796139 -0.009829 1.119517
endloop
endfacet
facet normal -0.951622 -0.297960 -0.075073
outer loop
vertex 0.798988 -0.015241 1.140953
vertex 0.792609 0.003091 1.149055
vertex 0.795694 -0.003044 1.134299
endloop
endfacet
facet normal -0.974795 0.117957 -0.189371
outer loop
vertex 0.795829 0.028171 1.135808
vertex 0.797614 0.021600 1.122527
vertex 0.795089 0.009542 1.128014
endloop
endfacet
facet normal -0.367083 -0.854199 0.368231
outer loop
vertex 0.823901 -0.045664 1.153540
vertex 0.834670 -0.044645 1.166639
vertex 0.823617 -0.040516 1.165199
endloop
endfacet
facet normal -0.367870 -0.875723 0.312698
outer loop
vertex 0.823617 -0.040516 1.165199
vertex 0.834670 -0.044645 1.166639
vertex 0.833705 -0.039463 1.180016
endloop
endfacet
facet normal -0.578571 -0.718247 0.386493
outer loop
vertex 0.823291 -0.052460 1.137121
vertex 0.812082 -0.044472 1.135186
vertex 0.810518 -0.051704 1.119405
endloop
endfacet
facet normal -0.275692 -0.867575 0.413893
outer loop
vertex 0.834340 -0.062194 1.124077
vertex 0.823291 -0.052460 1.137121
vertex 0.821949 -0.059661 1.121133
endloop
endfacet
facet normal -0.956777 0.066665 -0.283079
outer loop
vertex 0.792628 0.035574 1.148370
vertex 0.795829 0.028171 1.135808
vertex 0.793226 0.016172 1.141780
endloop
endfacet
facet normal -0.299520 0.589739 -0.749997
outer loop
vertex 0.832374 0.060545 1.122783
vertex 0.820683 0.057648 1.125174
vertex 0.823939 0.070029 1.133609
endloop
endfacet
facet normal -0.592554 0.645491 -0.481893
outer loop
vertex 0.809476 0.048886 1.127218
vertex 0.820683 0.057648 1.125174
vertex 0.821689 0.048331 1.111457
endloop
endfacet
facet normal -0.022861 0.804151 -0.593985
outer loop
vertex 0.845801 0.061098 1.122690
vertex 0.845801 0.051789 1.110087
vertex 0.833489 0.051435 1.110081
endloop
endfacet
facet normal -0.271592 0.786757 -0.554302
outer loop
vertex 0.820683 0.057648 1.125174
vertex 0.833489 0.051435 1.110081
vertex 0.821689 0.048331 1.111457
endloop
endfacet
facet normal -0.275510 0.840813 -0.465970
outer loop
vertex 0.822459 0.041207 1.098147
vertex 0.821689 0.048331 1.111457
vertex 0.833489 0.051435 1.110081
endloop
endfacet
facet normal -0.527936 0.518325 -0.672772
outer loop
vertex 0.809476 0.048886 1.127218
vertex 0.815472 0.065673 1.135446
vertex 0.820683 0.057648 1.125174
endloop
endfacet
facet normal -0.661350 0.507110 -0.552680
outer loop
vertex 0.809476 0.048886 1.127218
vertex 0.805457 0.056589 1.139095
vertex 0.815472 0.065673 1.135446
endloop
endfacet
facet normal -0.769084 0.503959 -0.393109
outer loop
vertex 0.809476 0.048886 1.127218
vertex 0.811328 0.041471 1.114089
vertex 0.803341 0.032224 1.117860
endloop
endfacet
facet normal 0.105947 -0.921547 0.373533
outer loop
vertex 0.856669 -0.050041 1.153401
vertex 0.856932 -0.044645 1.166639
vertex 0.845801 -0.051117 1.153830
endloop
endfacet
facet normal -0.824456 -0.512963 0.239042
outer loop
vertex 0.804471 -0.026655 1.147169
vertex 0.804487 -0.033830 1.131827
vertex 0.812082 -0.044472 1.135186
endloop
endfacet
facet normal 0.043256 0.911129 -0.409845
outer loop
vertex 0.845801 0.038278 1.083234
vertex 0.857533 0.043901 1.096973
vertex 0.857140 0.037776 1.083315
endloop
endfacet
facet normal 0.815908 -0.468277 0.339133
outer loop
vertex 0.881084 -0.051704 1.119405
vertex 0.890187 -0.045955 1.105443
vertex 0.888063 -0.040939 1.117479
endloop
endfacet
facet normal 0.083575 -0.929321 0.359691
outer loop
vertex 0.845801 -0.056466 1.139326
vertex 0.856806 -0.055810 1.138464
vertex 0.856669 -0.050041 1.153401
endloop
endfacet
facet normal -0.238887 -0.943491 0.229691
outer loop
vertex 0.823617 -0.040516 1.165199
vertex 0.833705 -0.039463 1.180016
vertex 0.821457 -0.037049 1.177194
endloop
endfacet
facet normal 0.567728 -0.710851 0.415181
outer loop
vertex 0.869653 -0.059661 1.121133
vertex 0.872069 -0.066455 1.106197
vertex 0.885232 -0.059300 1.100448
endloop
endfacet
facet normal 0.052758 -0.895367 0.442193
outer loop
vertex 0.857510 -0.068231 1.111542
vertex 0.845801 -0.069059 1.111263
vertex 0.859036 -0.074509 1.098648
endloop
endfacet
facet normal 0.037465 0.810478 -0.584570
outer loop
vertex 0.859228 0.060545 1.122783
vertex 0.858113 0.051435 1.110081
vertex 0.845801 0.061098 1.122690
endloop
endfacet
facet normal 0.029972 0.866033 -0.499088
outer loop
vertex 0.845801 0.044338 1.097027
vertex 0.858113 0.051435 1.110081
vertex 0.857533 0.043901 1.096973
endloop
endfacet
facet normal -0.071050 -0.910907 0.406448
outer loop
vertex 0.834340 -0.062194 1.124077
vertex 0.845801 -0.062808 1.124705
vertex 0.834796 -0.055810 1.138464
endloop
endfacet
facet normal 0.226925 0.922301 -0.312835
outer loop
vertex 0.857140 0.037776 1.083315
vertex 0.868565 0.035407 1.084618
vertex 0.868028 0.030788 1.070611
endloop
endfacet
endsolid Exported from Blender-4.0.2
