solid Exported from Blender-4.0.2
facet normal 0.787627 -0.550202 0.277348
outer loop
vertex 1.045915 0.505902 0.107823
vertex 1.038069 0.494642 0.107767
vertex 1.040548 0.490205 0.091925
endloop
endfacet
facet normal 0.846017 -0.493538 0.201682
outer loop
vertex 1.045915 0.505902 0.107823
vertex 1.040548 0.490205 0.091925
vertex 1.049657 0.505083 0.090122
endloop
endfacet
facet normal 0.901351 -0.379806 0.208118
outer loop
vertex 1.049657 0.505083 0.090122
vertex 1.051250 0.518547 0.107795
vertex 1.045915 0.505902 0.107823
endloop
endfacet
facet normal 0.990608 -0.134796 0.022941
outer loop
vertex 1.053907 0.535772 0.094263
vertex 1.053166 0.532693 0.108170
vertex 1.051250 0.518547 0.107795
endloop
endfacet
facet normal 0.990342 -0.051686 0.128651
outer loop
vertex 1.053907 0.535772 0.094263
vertex 1.051250 0.518547 0.107795
vertex 1.053372 0.520857 0.092388
endloop
endfacet
facet normal 0.965601 -0.241331 0.096815
outer loop
vertex 1.049657 0.505083 0.090122
vertex 1.053372 0.520857 0.092388
vertex 1.051250 0.518547 0.107795
endloop
endfacet
facet normal 0.945643 -0.252207 0.205307
outer loop
vertex 1.054596 0.511521 0.075282
vertex 1.053372 0.520857 0.092388
vertex 1.049657 0.505083 0.090122
endloop
endfacet
facet normal 0.987603 -0.096858 0.123525
outer loop
vertex 1.054596 0.511521 0.075282
vertex 1.055665 0.524642 0.077023
vertex 1.053372 0.520857 0.092388
endloop
endfacet
facet normal 0.989491 -0.052437 0.134751
outer loop
vertex 1.053907 0.535772 0.094263
vertex 1.053372 0.520857 0.092388
vertex 1.055665 0.524642 0.077023
endloop
endfacet
facet normal 0.973743 0.099579 0.204714
outer loop
vertex 1.056913 0.544380 0.061486
vertex 1.055665 0.524642 0.077023
vertex 1.058882 0.526735 0.060703
endloop
endfacet
facet normal 0.986862 0.056700 0.151287
outer loop
vertex 1.056913 0.544380 0.061486
vertex 1.054471 0.539260 0.079334
vertex 1.055665 0.524642 0.077023
endloop
endfacet
facet normal 0.995858 0.072702 0.054609
outer loop
vertex 1.053907 0.535772 0.094263
vertex 1.055665 0.524642 0.077023
vertex 1.054471 0.539260 0.079334
endloop
endfacet
facet normal 0.978284 -0.103536 0.179559
outer loop
vertex 1.054596 0.511521 0.075282
vertex 1.058882 0.526735 0.060703
vertex 1.055665 0.524642 0.077023
endloop
endfacet
facet normal 0.942686 0.090954 0.321046
outer loop
vertex 1.058882 0.526735 0.060703
vertex 1.063209 0.540910 0.043982
vertex 1.056913 0.544380 0.061486
endloop
endfacet
facet normal 0.962798 -0.066492 0.261915
outer loop
vertex 1.062380 0.511011 0.043852
vertex 1.063353 0.525938 0.044065
vertex 1.058882 0.526735 0.060703
endloop
endfacet
facet normal 0.965811 0.010728 0.259025
outer loop
vertex 1.058882 0.526735 0.060703
vertex 1.063353 0.525938 0.044065
vertex 1.063209 0.540910 0.043982
endloop
endfacet
facet normal 0.966514 -0.053881 0.250892
outer loop
vertex 1.062380 0.511011 0.043852
vertex 1.058882 0.526735 0.060703
vertex 1.058199 0.511727 0.060112
endloop
endfacet
facet normal 0.971713 -0.053283 0.230073
outer loop
vertex 1.054596 0.511521 0.075282
vertex 1.058199 0.511727 0.060112
vertex 1.058882 0.526735 0.060703
endloop
endfacet
facet normal 0.945938 -0.203942 0.252206
outer loop
vertex 1.055205 0.497655 0.059962
vertex 1.062380 0.511011 0.043852
vertex 1.058199 0.511727 0.060112
endloop
endfacet
facet normal 0.952865 -0.205135 0.223535
outer loop
vertex 1.054596 0.511521 0.075282
vertex 1.055205 0.497655 0.059962
vertex 1.058199 0.511727 0.060112
endloop
endfacet
facet normal 0.869946 -0.412888 0.269661
outer loop
vertex 1.053055 0.482837 0.044211
vertex 1.055205 0.497655 0.059962
vertex 1.049004 0.484799 0.060284
endloop
endfacet
facet normal 0.879964 -0.400012 0.256230
outer loop
vertex 1.053055 0.482837 0.044211
vertex 1.059380 0.496362 0.043605
vertex 1.055205 0.497655 0.059962
endloop
endfacet
facet normal 0.945876 -0.198057 0.257085
outer loop
vertex 1.055205 0.497655 0.059962
vertex 1.059380 0.496362 0.043605
vertex 1.062380 0.511011 0.043852
endloop
endfacet
facet normal 0.873920 -0.415205 0.252724
outer loop
vertex 1.049004 0.484799 0.060284
vertex 1.055205 0.497655 0.059962
vertex 1.051391 0.498727 0.074912
endloop
endfacet
facet normal 0.935911 -0.241826 0.256108
outer loop
vertex 1.054596 0.511521 0.075282
vertex 1.051391 0.498727 0.074912
vertex 1.055205 0.497655 0.059962
endloop
endfacet
facet normal 0.857578 -0.435089 0.274331
outer loop
vertex 1.049004 0.484799 0.060284
vertex 1.051391 0.498727 0.074912
vertex 1.045061 0.486782 0.075755
endloop
endfacet
facet normal 0.856499 -0.434188 0.279087
outer loop
vertex 1.049657 0.505083 0.090122
vertex 1.045061 0.486782 0.075755
vertex 1.051391 0.498727 0.074912
endloop
endfacet
facet normal 0.947030 -0.243284 0.209636
outer loop
vertex 1.054596 0.511521 0.075282
vertex 1.049657 0.505083 0.090122
vertex 1.051391 0.498727 0.074912
endloop
endfacet
facet normal 0.629574 -0.734060 0.254543
outer loop
vertex 1.045061 0.486782 0.075755
vertex 1.038360 0.475420 0.059563
vertex 1.049004 0.484799 0.060284
endloop
endfacet
facet normal 0.524447 -0.791461 0.313919
outer loop
vertex 1.030121 0.480928 0.085955
vertex 1.045061 0.486782 0.075755
vertex 1.040548 0.490205 0.091925
endloop
endfacet
facet normal 0.567599 -0.703577 0.427564
outer loop
vertex 1.030121 0.480928 0.085955
vertex 1.034804 0.477645 0.074336
vertex 1.045061 0.486782 0.075755
endloop
endfacet
facet normal 0.822871 -0.464073 0.327901
outer loop
vertex 1.049657 0.505083 0.090122
vertex 1.040548 0.490205 0.091925
vertex 1.045061 0.486782 0.075755
endloop
endfacet
facet normal 0.621755 -0.738482 0.260891
outer loop
vertex 1.045061 0.486782 0.075755
vertex 1.034804 0.477645 0.074336
vertex 1.038360 0.475420 0.059563
endloop
endfacet
facet normal 0.197515 -0.919651 0.339456
outer loop
vertex 1.022450 0.473874 0.071308
vertex 1.034804 0.477645 0.074336
vertex 1.030121 0.480928 0.085955
endloop
endfacet
facet normal 0.224112 -0.940193 0.256536
outer loop
vertex 1.025071 0.470830 0.057862
vertex 1.034804 0.477645 0.074336
vertex 1.022450 0.473874 0.071308
endloop
endfacet
facet normal 0.294828 -0.931891 0.211320
outer loop
vertex 1.025071 0.470830 0.057862
vertex 1.038360 0.475420 0.059563
vertex 1.034804 0.477645 0.074336
endloop
endfacet
facet normal -0.282352 -0.946021 0.159124
outer loop
vertex 1.022450 0.473874 0.071308
vertex 1.012104 0.474405 0.056107
vertex 1.025071 0.470830 0.057862
endloop
endfacet
facet normal 0.294647 -0.931731 0.212274
outer loop
vertex 1.027119 0.468055 0.042839
vertex 1.038360 0.475420 0.059563
vertex 1.025071 0.470830 0.057862
endloop
endfacet
facet normal -0.276445 -0.951071 0.137992
outer loop
vertex 1.025071 0.470830 0.057862
vertex 1.014243 0.471645 0.041787
vertex 1.027119 0.468055 0.042839
endloop
endfacet
facet normal -0.280827 -0.949340 0.141030
outer loop
vertex 1.025071 0.470830 0.057862
vertex 1.012104 0.474405 0.056107
vertex 1.014243 0.471645 0.041787
endloop
endfacet
facet normal -0.269726 -0.962809 0.015703
outer loop
vertex 1.014521 0.471315 0.026328
vertex 1.027119 0.468055 0.042839
vertex 1.014243 0.471645 0.041787
endloop
endfacet
facet normal 0.343931 -0.922526 0.175092
outer loop
vertex 1.027119 0.468055 0.042839
vertex 1.041761 0.473673 0.043678
vertex 1.038360 0.475420 0.059563
endloop
endfacet
facet normal 0.358822 -0.933323 -0.012464
outer loop
vertex 1.041761 0.473673 0.043678
vertex 1.027119 0.468055 0.042839
vertex 1.028705 0.468872 0.027326
endloop
endfacet
facet normal -0.164641 -0.983961 -0.068656
outer loop
vertex 1.014521 0.471315 0.026328
vertex 1.028705 0.468872 0.027326
vertex 1.027119 0.468055 0.042839
endloop
endfacet
facet normal -0.172324 -0.984234 0.039860
outer loop
vertex 1.015384 0.470536 0.010821
vertex 1.028705 0.468872 0.027326
vertex 1.014521 0.471315 0.026328
endloop
endfacet
facet normal -0.155433 -0.987507 0.025891
outer loop
vertex 1.015384 0.470536 0.010821
vertex 1.029915 0.468275 0.011820
vertex 1.028705 0.468872 0.027326
endloop
endfacet
facet normal 0.239096 -0.969381 0.055980
outer loop
vertex 1.043083 0.472485 0.028480
vertex 1.028705 0.468872 0.027326
vertex 1.029915 0.468275 0.011820
endloop
endfacet
facet normal 0.235323 -0.967158 0.096066
outer loop
vertex 1.041761 0.473673 0.043678
vertex 1.028705 0.468872 0.027326
vertex 1.043083 0.472485 0.028480
endloop
endfacet
facet normal 0.199740 -0.975824 0.088720
outer loop
vertex 1.043083 0.472485 0.028480
vertex 1.029915 0.468275 0.011820
vertex 1.044288 0.471324 0.012997
endloop
endfacet
facet normal 0.552856 -0.826633 0.105016
outer loop
vertex 1.044288 0.471324 0.012997
vertex 1.055172 0.480672 0.029281
vertex 1.043083 0.472485 0.028480
endloop
endfacet
facet normal 0.541037 -0.818000 0.195333
outer loop
vertex 1.043083 0.472485 0.028480
vertex 1.055172 0.480672 0.029281
vertex 1.053055 0.482837 0.044211
endloop
endfacet
facet normal 0.622655 -0.774050 0.114664
outer loop
vertex 1.043083 0.472485 0.028480
vertex 1.053055 0.482837 0.044211
vertex 1.041761 0.473673 0.043678
endloop
endfacet
facet normal 0.528842 -0.838987 0.128171
outer loop
vertex 1.044288 0.471324 0.012997
vertex 1.056636 0.479290 0.014194
vertex 1.055172 0.480672 0.029281
endloop
endfacet
facet normal 0.981289 -0.113430 0.155584
outer loop
vertex 1.056799 0.495009 0.029472
vertex 1.053055 0.482837 0.044211
vertex 1.055172 0.480672 0.029281
endloop
endfacet
facet normal 0.994797 -0.024833 0.098806
outer loop
vertex 1.055172 0.480672 0.029281
vertex 1.056636 0.479290 0.014194
vertex 1.056941 0.493550 0.014704
endloop
endfacet
facet normal 0.993379 -0.112996 0.020722
outer loop
vertex 1.055172 0.480672 0.029281
vertex 1.056941 0.493550 0.014704
vertex 1.056799 0.495009 0.029472
endloop
endfacet
facet normal 0.027977 0.047153 -0.998496
outer loop
vertex 1.056789 0.567556 0.027761
vertex 1.042708 0.565958 0.027291
vertex 1.057013 0.583263 0.028509
endloop
endfacet
facet normal 0.999694 -0.021737 0.011766
outer loop
vertex 1.056799 0.495009 0.029472
vertex 1.056941 0.493550 0.014704
vertex 1.057245 0.507810 0.015214
endloop
endfacet
facet normal 0.070348 0.034961 -0.996910
outer loop
vertex 1.044067 0.507450 0.014283
vertex 1.056941 0.493550 0.014704
vertex 1.043796 0.493424 0.013772
endloop
endfacet
facet normal 0.070327 0.036667 -0.996850
outer loop
vertex 1.043538 0.481576 0.013318
vertex 1.043796 0.493424 0.013772
vertex 1.056941 0.493550 0.014704
endloop
endfacet
facet normal 0.072616 0.034094 -0.996777
outer loop
vertex 1.043538 0.481576 0.013318
vertex 1.056941 0.493550 0.014704
vertex 1.056636 0.479290 0.014194
endloop
endfacet
facet normal 0.190450 0.669094 0.718360
outer loop
vertex 1.018498 0.585533 0.080064
vertex 1.032881 0.590844 0.071304
vertex 1.019969 0.594077 0.071716
endloop
endfacet
facet normal 0.190328 0.669253 0.718245
outer loop
vertex 1.018498 0.585533 0.080064
vertex 1.031249 0.582380 0.079623
vertex 1.032881 0.590844 0.071304
endloop
endfacet
facet normal -0.087085 0.989072 -0.118964
outer loop
vertex 1.042577 0.550442 0.026808
vertex 1.043777 0.549217 0.015745
vertex 1.029389 0.547825 0.014704
endloop
endfacet
facet normal 0.073845 0.036608 -0.996598
outer loop
vertex 1.043538 0.481576 0.013318
vertex 1.044288 0.471324 0.012997
vertex 1.029915 0.468275 0.011820
endloop
endfacet
facet normal 0.070878 0.038400 -0.996746
outer loop
vertex 1.031301 0.533550 0.014290
vertex 1.029389 0.547825 0.014704
vertex 1.044276 0.535532 0.015289
endloop
endfacet
facet normal 0.019657 -0.156000 -0.987561
outer loop
vertex 1.060379 0.614486 0.024642
vertex 1.044691 0.613136 0.024543
vertex 1.045746 0.628962 0.022064
endloop
endfacet
facet normal -0.902904 0.400404 0.156333
outer loop
vertex 1.002031 0.564991 0.070771
vertex 0.998531 0.553881 0.079012
vertex 1.003768 0.559543 0.094757
endloop
endfacet
facet normal 0.071569 0.034935 -0.996824
outer loop
vertex 1.030887 0.506802 0.013314
vertex 1.044067 0.507450 0.014283
vertex 1.043796 0.493424 0.013772
endloop
endfacet
facet normal 0.073751 0.035529 -0.996643
outer loop
vertex 1.031682 0.520580 0.013864
vertex 1.030887 0.506802 0.013314
vertex 1.017636 0.526482 0.013035
endloop
endfacet
facet normal 0.006212 -0.124986 -0.992139
outer loop
vertex 1.045746 0.628962 0.022064
vertex 1.029642 0.644498 0.020006
vertex 1.046718 0.644799 0.020075
endloop
endfacet
facet normal 0.008624 -0.154911 -0.987891
outer loop
vertex 1.029263 0.628131 0.022057
vertex 1.044691 0.613136 0.024543
vertex 1.028895 0.611976 0.024587
endloop
endfacet
facet normal 0.074160 0.036282 -0.996586
outer loop
vertex 1.029915 0.468275 0.011820
vertex 1.015384 0.470536 0.010821
vertex 1.043538 0.481576 0.013318
endloop
endfacet
facet normal -0.087630 0.989095 -0.118375
outer loop
vertex 1.042577 0.550442 0.026808
vertex 1.029389 0.547825 0.014704
vertex 1.028125 0.549137 0.026602
endloop
endfacet
facet normal 0.073283 0.036594 -0.996640
outer loop
vertex 1.030887 0.506802 0.013314
vertex 1.043796 0.493424 0.013772
vertex 1.043538 0.481576 0.013318
endloop
endfacet
facet normal 0.069973 0.035547 -0.996915
outer loop
vertex 1.043777 0.549217 0.015745
vertex 1.058163 0.550598 0.016804
vertex 1.057858 0.536335 0.016274
endloop
endfacet
facet normal 0.027955 0.047340 -0.998488
outer loop
vertex 1.056789 0.567556 0.027761
vertex 1.057247 0.552226 0.027047
vertex 1.042708 0.565958 0.027291
endloop
endfacet
facet normal 0.069503 0.034176 -0.996996
outer loop
vertex 1.057245 0.507810 0.015214
vertex 1.056941 0.493550 0.014704
vertex 1.044067 0.507450 0.014283
endloop
endfacet
facet normal 0.070192 0.035608 -0.996898
outer loop
vertex 1.057858 0.536335 0.016274
vertex 1.057552 0.522072 0.015743
vertex 1.044276 0.535532 0.015289
endloop
endfacet
facet normal 0.071278 0.035816 -0.996813
outer loop
vertex 1.044576 0.520518 0.014771
vertex 1.031301 0.533550 0.014290
vertex 1.044276 0.535532 0.015289
endloop
endfacet
facet normal 0.019548 -0.156111 -0.987546
outer loop
vertex 1.060379 0.614486 0.024642
vertex 1.045746 0.628962 0.022064
vertex 1.062036 0.630015 0.022220
endloop
endfacet
facet normal 0.068679 0.035727 -0.996999
outer loop
vertex 1.044276 0.535532 0.015289
vertex 1.029389 0.547825 0.014704
vertex 1.043777 0.549217 0.015745
endloop
endfacet
facet normal 0.070428 0.035460 -0.996886
outer loop
vertex 1.057552 0.522072 0.015743
vertex 1.057245 0.507810 0.015214
vertex 1.044576 0.520518 0.014771
endloop
endfacet
facet normal 0.073487 0.034895 -0.996685
outer loop
vertex 1.031301 0.533550 0.014290
vertex 1.031682 0.520580 0.013864
vertex 1.017636 0.526482 0.013035
endloop
endfacet
facet normal 0.073914 0.036911 -0.996581
outer loop
vertex 1.030887 0.506802 0.013314
vertex 1.043538 0.481576 0.013318
vertex 1.015384 0.470536 0.010821
endloop
endfacet
facet normal -0.086203 0.989161 -0.118869
outer loop
vertex 1.042577 0.550442 0.026808
vertex 1.058163 0.550598 0.016804
vertex 1.043777 0.549217 0.015745
endloop
endfacet
facet normal 0.069492 0.034524 -0.996985
outer loop
vertex 1.057245 0.507810 0.015214
vertex 1.044067 0.507450 0.014283
vertex 1.044576 0.520518 0.014771
endloop
endfacet
facet normal 0.070182 0.035777 -0.996892
outer loop
vertex 1.044276 0.535532 0.015289
vertex 1.043777 0.549217 0.015745
vertex 1.057858 0.536335 0.016274
endloop
endfacet
facet normal 0.995364 -0.024727 0.092946
outer loop
vertex 1.057858 0.536335 0.016274
vertex 1.058163 0.550598 0.016804
vertex 1.057247 0.552226 0.027047
endloop
endfacet
facet normal -0.116380 0.979227 -0.166044
outer loop
vertex 1.042577 0.550442 0.026808
vertex 1.057247 0.552226 0.027047
vertex 1.058163 0.550598 0.016804
endloop
endfacet
facet normal 0.984801 0.121797 -0.123826
outer loop
vertex 1.057858 0.536335 0.016274
vertex 1.057247 0.552226 0.027047
vertex 1.059329 0.540899 0.032463
endloop
endfacet
facet normal 0.949647 0.025239 -0.312303
outer loop
vertex 1.059329 0.540899 0.032463
vertex 1.057247 0.552226 0.027047
vertex 1.062143 0.556033 0.042242
endloop
endfacet
facet normal 0.940522 0.043808 -0.336897
outer loop
vertex 1.060206 0.569534 0.037557
vertex 1.057247 0.552226 0.027047
vertex 1.056789 0.567556 0.027761
endloop
endfacet
facet normal 0.949405 0.027646 -0.312835
outer loop
vertex 1.060206 0.569534 0.037557
vertex 1.062143 0.556033 0.042242
vertex 1.057247 0.552226 0.027047
endloop
endfacet
facet normal 0.012512 0.031006 -0.999441
outer loop
vertex 1.042708 0.565958 0.027291
vertex 1.057247 0.552226 0.027047
vertex 1.042577 0.550442 0.026808
endloop
endfacet
facet normal 0.971117 0.077030 -0.225828
outer loop
vertex 1.060805 0.585470 0.045568
vertex 1.060206 0.569534 0.037557
vertex 1.057013 0.583263 0.028509
endloop
endfacet
facet normal 0.994674 0.013945 -0.102121
outer loop
vertex 1.060805 0.585470 0.045568
vertex 1.060988 0.570618 0.045322
vertex 1.060206 0.569534 0.037557
endloop
endfacet
facet normal 0.944066 0.002232 -0.329748
outer loop
vertex 1.060206 0.569534 0.037557
vertex 1.056789 0.567556 0.027761
vertex 1.057013 0.583263 0.028509
endloop
endfacet
facet normal 0.988223 0.102290 -0.113805
outer loop
vertex 1.062143 0.556033 0.042242
vertex 1.060206 0.569534 0.037557
vertex 1.060988 0.570618 0.045322
endloop
endfacet
facet normal 0.886435 0.040004 0.461122
outer loop
vertex 1.052339 0.566944 0.062267
vertex 1.060988 0.570618 0.045322
vertex 1.055004 0.576906 0.056280
endloop
endfacet
facet normal 0.886235 0.041581 0.461366
outer loop
vertex 1.052339 0.566944 0.062267
vertex 1.062202 0.555839 0.044322
vertex 1.060988 0.570618 0.045322
endloop
endfacet
facet normal 0.878362 0.002911 0.477986
outer loop
vertex 1.055004 0.576906 0.056280
vertex 1.060988 0.570618 0.045322
vertex 1.060805 0.585470 0.045568
endloop
endfacet
facet normal 0.996320 0.083224 -0.020502
outer loop
vertex 1.062143 0.556033 0.042242
vertex 1.060988 0.570618 0.045322
vertex 1.062202 0.555839 0.044322
endloop
endfacet
facet normal 0.904203 0.169714 0.391937
outer loop
vertex 1.052339 0.566944 0.062267
vertex 1.056913 0.544380 0.061486
vertex 1.062202 0.555839 0.044322
endloop
endfacet
facet normal 0.942990 0.056136 0.328054
outer loop
vertex 1.062202 0.555839 0.044322
vertex 1.056913 0.544380 0.061486
vertex 1.063209 0.540910 0.043982
endloop
endfacet
facet normal 0.945270 0.071017 -0.318468
outer loop
vertex 1.059329 0.540899 0.032463
vertex 1.062202 0.555839 0.044322
vertex 1.063209 0.540910 0.043982
endloop
endfacet
facet normal 0.986849 -0.155945 -0.042544
outer loop
vertex 1.059329 0.540899 0.032463
vertex 1.062143 0.556033 0.042242
vertex 1.062202 0.555839 0.044322
endloop
endfacet
facet normal 0.787104 0.149136 0.598520
outer loop
vertex 1.055004 0.576906 0.056280
vertex 1.042515 0.574209 0.073376
vertex 1.052339 0.566944 0.062267
endloop
endfacet
facet normal 0.728832 0.137750 0.670692
outer loop
vertex 1.055004 0.576906 0.056280
vertex 1.048207 0.595379 0.059872
vertex 1.044955 0.584132 0.065716
endloop
endfacet
facet normal 0.796876 0.181126 0.576352
outer loop
vertex 1.055004 0.576906 0.056280
vertex 1.060805 0.585470 0.045568
vertex 1.048207 0.595379 0.059872
endloop
endfacet
facet normal 0.755603 0.273616 0.595145
outer loop
vertex 1.055004 0.576906 0.056280
vertex 1.044955 0.584132 0.065716
vertex 1.042515 0.574209 0.073376
endloop
endfacet
facet normal 0.790501 0.471822 0.390502
outer loop
vertex 1.052339 0.566944 0.062267
vertex 1.042515 0.574209 0.073376
vertex 1.042306 0.565585 0.084219
endloop
endfacet
facet normal 0.639737 0.364878 0.676461
outer loop
vertex 1.031249 0.582380 0.079623
vertex 1.042515 0.574209 0.073376
vertex 1.044955 0.584132 0.065716
endloop
endfacet
facet normal 0.673760 0.609054 0.418451
outer loop
vertex 1.030648 0.575659 0.090373
vertex 1.042515 0.574209 0.073376
vertex 1.031249 0.582380 0.079623
endloop
endfacet
facet normal 0.708130 0.545891 0.447834
outer loop
vertex 1.030648 0.575659 0.090373
vertex 1.042306 0.565585 0.084219
vertex 1.042515 0.574209 0.073376
endloop
endfacet
facet normal 0.153004 0.879626 0.450386
outer loop
vertex 1.029457 0.569832 0.102158
vertex 1.030648 0.575659 0.090373
vertex 1.017143 0.578068 0.090256
endloop
endfacet
facet normal 0.144417 0.835378 0.530366
outer loop
vertex 1.031249 0.582380 0.079623
vertex 1.017143 0.578068 0.090256
vertex 1.030648 0.575659 0.090373
endloop
endfacet
facet normal 0.620247 0.676435 0.397151
outer loop
vertex 1.040775 0.561098 0.099358
vertex 1.030648 0.575659 0.090373
vertex 1.029457 0.569832 0.102158
endloop
endfacet
facet normal 0.706809 0.655579 0.265776
outer loop
vertex 1.040775 0.561098 0.099358
vertex 1.042306 0.565585 0.084219
vertex 1.030648 0.575659 0.090373
endloop
endfacet
facet normal 0.005526 0.824968 0.565153
outer loop
vertex 1.029457 0.569832 0.102158
vertex 1.017143 0.578068 0.090256
vertex 1.015367 0.570284 0.101636
endloop
endfacet
facet normal 0.621785 0.682693 0.383815
outer loop
vertex 1.040775 0.561098 0.099358
vertex 1.029457 0.569832 0.102158
vertex 1.027656 0.565048 0.113585
endloop
endfacet
facet normal -0.072160 0.924021 0.375471
outer loop
vertex 1.014023 0.564050 0.113421
vertex 1.027656 0.565048 0.113585
vertex 1.029457 0.569832 0.102158
endloop
endfacet
facet normal 0.010979 0.883377 0.468534
outer loop
vertex 1.014023 0.564050 0.113421
vertex 1.029457 0.569832 0.102158
vertex 1.015367 0.570284 0.101636
endloop
endfacet
facet normal -0.678565 0.678457 0.281504
outer loop
vertex 1.015367 0.570284 0.101636
vertex 1.003688 0.554547 0.111412
vertex 1.014023 0.564050 0.113421
endloop
endfacet
facet normal -0.726062 0.659588 0.194366
outer loop
vertex 1.015367 0.570284 0.101636
vertex 1.003768 0.559543 0.094757
vertex 1.003688 0.554547 0.111412
endloop
endfacet
facet normal -0.677742 0.651900 0.340134
outer loop
vertex 1.015367 0.570284 0.101636
vertex 1.017143 0.578068 0.090256
vertex 1.007253 0.571805 0.082553
endloop
endfacet
facet normal -0.739832 0.568448 0.359883
outer loop
vertex 1.015367 0.570284 0.101636
vertex 1.007253 0.571805 0.082553
vertex 1.003768 0.559543 0.094757
endloop
endfacet
facet normal -0.896849 0.412879 0.158721
outer loop
vertex 1.003768 0.559543 0.094757
vertex 1.007253 0.571805 0.082553
vertex 1.002031 0.564991 0.070771
endloop
endfacet
facet normal -0.894016 0.423957 0.144900
outer loop
vertex 1.003768 0.559543 0.094757
vertex 0.998531 0.553881 0.079012
vertex 0.994807 0.541960 0.090916
endloop
endfacet
facet normal -0.894783 0.428838 0.124342
outer loop
vertex 1.003688 0.554547 0.111412
vertex 1.003768 0.559543 0.094757
vertex 0.994807 0.541960 0.090916
endloop
endfacet
facet normal 0.073823 0.035578 -0.996637
outer loop
vertex 1.030887 0.506802 0.013314
vertex 1.001574 0.511432 0.011308
vertex 1.017636 0.526482 0.013035
endloop
endfacet
facet normal -0.934703 0.350557 0.058646
outer loop
vertex 0.994807 0.541960 0.090916
vertex 0.998531 0.553881 0.079012
vertex 0.995081 0.546864 0.065970
endloop
endfacet
facet normal -0.960786 0.250204 0.119535
outer loop
vertex 0.998531 0.553881 0.079012
vertex 0.997429 0.559081 0.059270
vertex 0.995081 0.546864 0.065970
endloop
endfacet
facet normal 0.073036 0.036550 -0.996659
outer loop
vertex 1.043538 0.481576 0.013318
vertex 1.056636 0.479290 0.014194
vertex 1.044288 0.471324 0.012997
endloop
endfacet
facet normal -0.982079 0.186681 0.025912
outer loop
vertex 0.994807 0.541960 0.090916
vertex 0.995081 0.546864 0.065970
vertex 0.992891 0.534264 0.073744
endloop
endfacet
facet normal -0.972408 0.223515 0.066812
outer loop
vertex 0.995081 0.546864 0.065970
vertex 0.997429 0.559081 0.059270
vertex 0.995676 0.554710 0.048380
endloop
endfacet
facet normal -0.985517 0.169551 -0.002837
outer loop
vertex 0.992891 0.534264 0.073744
vertex 0.995081 0.546864 0.065970
vertex 0.993846 0.539455 0.052215
endloop
endfacet
facet normal -0.991972 0.124531 0.021991
outer loop
vertex 0.995081 0.546864 0.065970
vertex 0.995676 0.554710 0.048380
vertex 0.993846 0.539455 0.052215
endloop
endfacet
facet normal -0.994085 0.108585 0.002247
outer loop
vertex 0.997435 0.570725 0.052652
vertex 0.996845 0.565628 0.037954
vertex 0.995676 0.554710 0.048380
endloop
endfacet
facet normal -0.989900 0.137802 0.033308
outer loop
vertex 0.996845 0.565628 0.037954
vertex 0.994834 0.551223 0.037783
vertex 0.995676 0.554710 0.048380
endloop
endfacet
facet normal -0.991087 0.128094 0.036597
outer loop
vertex 0.993846 0.539455 0.052215
vertex 0.995676 0.554710 0.048380
vertex 0.994834 0.551223 0.037783
endloop
endfacet
facet normal -0.988815 0.074084 0.129444
outer loop
vertex 0.997435 0.570725 0.052652
vertex 0.995676 0.554710 0.048380
vertex 0.997429 0.559081 0.059270
endloop
endfacet
facet normal -0.953678 0.149020 0.261326
outer loop
vertex 0.997429 0.559081 0.059270
vertex 1.001416 0.576437 0.063923
vertex 0.997435 0.570725 0.052652
endloop
endfacet
facet normal -0.948106 0.037841 0.315696
outer loop
vertex 0.996443 0.582921 0.048211
vertex 0.997435 0.570725 0.052652
vertex 1.001416 0.576437 0.063923
endloop
endfacet
facet normal -0.996423 -0.059037 0.060464
outer loop
vertex 0.996443 0.582921 0.048211
vertex 0.996845 0.565628 0.037954
vertex 0.997435 0.570725 0.052652
endloop
endfacet
facet normal -0.943546 -0.045441 0.328109
outer loop
vertex 0.997460 0.599220 0.053392
vertex 0.996443 0.582921 0.048211
vertex 0.999850 0.587389 0.058627
endloop
endfacet
facet normal -0.994006 0.028471 0.105552
outer loop
vertex 0.997460 0.599220 0.053392
vertex 0.995564 0.594540 0.036799
vertex 0.996443 0.582921 0.048211
endloop
endfacet
facet normal -0.990340 -0.127784 -0.053825
outer loop
vertex 0.996443 0.582921 0.048211
vertex 0.995564 0.594540 0.036799
vertex 0.997372 0.580139 0.037723
endloop
endfacet
facet normal -0.951887 0.011978 0.306216
outer loop
vertex 0.996443 0.582921 0.048211
vertex 1.001416 0.576437 0.063923
vertex 0.999850 0.587389 0.058627
endloop
endfacet
facet normal -0.994657 0.034575 -0.097276
outer loop
vertex 0.996443 0.582921 0.048211
vertex 0.997372 0.580139 0.037723
vertex 0.996845 0.565628 0.037954
endloop
endfacet
facet normal -0.972285 -0.134344 -0.191345
outer loop
vertex 0.997372 0.580139 0.037723
vertex 0.995564 0.594540 0.036799
vertex 0.998320 0.593966 0.023198
endloop
endfacet
facet normal -0.970105 0.031395 -0.240647
outer loop
vertex 1.000610 0.578300 0.024430
vertex 0.996845 0.565628 0.037954
vertex 0.997372 0.580139 0.037723
endloop
endfacet
facet normal -0.964230 -0.157700 -0.213052
outer loop
vertex 0.997372 0.580139 0.037723
vertex 0.998320 0.593966 0.023198
vertex 1.000610 0.578300 0.024430
endloop
endfacet
facet normal 0.098573 -0.100245 -0.990068
outer loop
vertex 1.011857 0.610734 0.022848
vertex 0.998320 0.593966 0.023198
vertex 0.995632 0.609456 0.021362
endloop
endfacet
facet normal -0.963855 -0.189466 -0.187312
outer loop
vertex 0.995632 0.609456 0.021362
vertex 0.998320 0.593966 0.023198
vertex 0.995564 0.594540 0.036799
endloop
endfacet
facet normal 0.158717 -0.054327 -0.985828
outer loop
vertex 1.013812 0.579053 0.026514
vertex 1.000610 0.578300 0.024430
vertex 0.998320 0.593966 0.023198
endloop
endfacet
facet normal 0.152695 -0.143684 -0.977773
outer loop
vertex 1.011857 0.610734 0.022848
vertex 1.013091 0.594767 0.025387
vertex 0.998320 0.593966 0.023198
endloop
endfacet
facet normal 0.149684 -0.063895 -0.986667
outer loop
vertex 1.013812 0.579053 0.026514
vertex 0.998320 0.593966 0.023198
vertex 1.013091 0.594767 0.025387
endloop
endfacet
facet normal 0.113432 -0.065895 -0.991358
outer loop
vertex 1.013091 0.594767 0.025387
vertex 1.028633 0.580194 0.028134
vertex 1.013812 0.579053 0.026514
endloop
endfacet
facet normal 0.107889 0.076686 -0.991201
outer loop
vertex 1.013812 0.579053 0.026514
vertex 1.028508 0.564310 0.026973
vertex 1.013943 0.563177 0.025300
endloop
endfacet
facet normal 0.102921 0.071704 -0.992102
outer loop
vertex 1.013812 0.579053 0.026514
vertex 1.028633 0.580194 0.028134
vertex 1.028508 0.564310 0.026973
endloop
endfacet
facet normal 0.151202 0.076610 -0.985530
outer loop
vertex 1.013943 0.563177 0.025300
vertex 1.000610 0.578300 0.024430
vertex 1.013812 0.579053 0.026514
endloop
endfacet
facet normal 0.108318 -0.071390 -0.991550
outer loop
vertex 1.013091 0.594767 0.025387
vertex 1.028667 0.595913 0.027006
vertex 1.028633 0.580194 0.028134
endloop
endfacet
facet normal 0.003222 -0.071581 -0.997429
outer loop
vertex 1.028633 0.580194 0.028134
vertex 1.028667 0.595913 0.027006
vertex 1.043669 0.597285 0.026956
endloop
endfacet
facet normal -0.001212 0.072908 -0.997338
outer loop
vertex 1.042982 0.581650 0.028223
vertex 1.028508 0.564310 0.026973
vertex 1.028633 0.580194 0.028134
endloop
endfacet
facet normal 0.014440 -0.081393 -0.996577
outer loop
vertex 1.028633 0.580194 0.028134
vertex 1.043669 0.597285 0.026956
vertex 1.042982 0.581650 0.028223
endloop
endfacet
facet normal 0.013558 0.059046 -0.998163
outer loop
vertex 1.057013 0.583263 0.028509
vertex 1.042708 0.565958 0.027291
vertex 1.042982 0.581650 0.028223
endloop
endfacet
facet normal 0.015504 0.059013 -0.998137
outer loop
vertex 1.042982 0.581650 0.028223
vertex 1.042708 0.565958 0.027291
vertex 1.028508 0.564310 0.026973
endloop
endfacet
facet normal 0.031188 -0.094867 -0.995001
outer loop
vertex 1.042982 0.581650 0.028223
vertex 1.058499 0.598991 0.027056
vertex 1.057013 0.583263 0.028509
endloop
endfacet
facet normal 0.016091 -0.081464 -0.996546
outer loop
vertex 1.042982 0.581650 0.028223
vertex 1.043669 0.597285 0.026956
vertex 1.058499 0.598991 0.027056
endloop
endfacet
facet normal 0.982523 -0.106913 -0.152373
outer loop
vertex 1.057013 0.583263 0.028509
vertex 1.058499 0.598991 0.027056
vertex 1.061373 0.600291 0.044676
endloop
endfacet
facet normal 0.024697 -0.156813 -0.987320
outer loop
vertex 1.060379 0.614486 0.024642
vertex 1.058499 0.598991 0.027056
vertex 1.043669 0.597285 0.026956
endloop
endfacet
facet normal 0.987093 -0.133530 -0.088415
outer loop
vertex 1.062121 0.615061 0.043222
vertex 1.058499 0.598991 0.027056
vertex 1.060379 0.614486 0.024642
endloop
endfacet
facet normal 0.985607 -0.065257 -0.155948
outer loop
vertex 1.062121 0.615061 0.043222
vertex 1.061373 0.600291 0.044676
vertex 1.058499 0.598991 0.027056
endloop
endfacet
facet normal 0.710250 0.033256 0.703163
outer loop
vertex 1.049883 0.608026 0.055916
vertex 1.061373 0.600291 0.044676
vertex 1.062121 0.615061 0.043222
endloop
endfacet
facet normal 0.732607 0.112870 0.671229
outer loop
vertex 1.048207 0.595379 0.059872
vertex 1.061373 0.600291 0.044676
vertex 1.049883 0.608026 0.055916
endloop
endfacet
facet normal 0.754042 0.010631 0.656740
outer loop
vertex 1.048207 0.595379 0.059872
vertex 1.060805 0.585470 0.045568
vertex 1.061373 0.600291 0.044676
endloop
endfacet
facet normal 0.976302 -0.050099 -0.210535
outer loop
vertex 1.057013 0.583263 0.028509
vertex 1.061373 0.600291 0.044676
vertex 1.060805 0.585470 0.045568
endloop
endfacet
facet normal 0.680024 0.121658 0.723026
outer loop
vertex 1.049883 0.608026 0.055916
vertex 1.062121 0.615061 0.043222
vertex 1.050664 0.621674 0.052885
endloop
endfacet
facet normal 0.320576 0.187842 0.928411
outer loop
vertex 1.050664 0.621674 0.052885
vertex 1.035640 0.613117 0.059804
vertex 1.049883 0.608026 0.055916
endloop
endfacet
facet normal 0.334714 0.240632 0.911078
outer loop
vertex 1.048207 0.595379 0.059872
vertex 1.049883 0.608026 0.055916
vertex 1.035640 0.613117 0.059804
endloop
endfacet
facet normal 0.046015 0.387187 0.920852
outer loop
vertex 1.035640 0.613117 0.059804
vertex 1.021314 0.615602 0.059475
vertex 1.020884 0.603764 0.064474
endloop
endfacet
facet normal 0.029570 0.296844 0.954468
outer loop
vertex 1.036124 0.626191 0.055723
vertex 1.021314 0.615602 0.059475
vertex 1.035640 0.613117 0.059804
endloop
endfacet
facet normal 0.266541 0.278183 0.922805
outer loop
vertex 1.050664 0.621674 0.052885
vertex 1.036124 0.626191 0.055723
vertex 1.035640 0.613117 0.059804
endloop
endfacet
facet normal 0.428154 0.306597 0.850107
outer loop
vertex 1.048207 0.595379 0.059872
vertex 1.035640 0.613117 0.059804
vertex 1.034650 0.601002 0.064672
endloop
endfacet
facet normal 0.060469 0.367903 0.927896
outer loop
vertex 1.035640 0.613117 0.059804
vertex 1.020884 0.603764 0.064474
vertex 1.034650 0.601002 0.064672
endloop
endfacet
facet normal -0.217249 0.386422 0.896371
outer loop
vertex 1.007772 0.603008 0.061622
vertex 1.020884 0.603764 0.064474
vertex 1.021314 0.615602 0.059475
endloop
endfacet
facet normal 0.170551 0.579605 0.796850
outer loop
vertex 1.032881 0.590844 0.071304
vertex 1.020884 0.603764 0.064474
vertex 1.019969 0.594077 0.071716
endloop
endfacet
facet normal -0.203068 0.598528 0.774937
outer loop
vertex 1.019969 0.594077 0.071716
vertex 1.020884 0.603764 0.064474
vertex 1.007772 0.603008 0.061622
endloop
endfacet
facet normal 0.094765 0.532613 0.841037
outer loop
vertex 1.032881 0.590844 0.071304
vertex 1.034650 0.601002 0.064672
vertex 1.020884 0.603764 0.064474
endloop
endfacet
facet normal -0.660010 0.320961 0.679243
outer loop
vertex 1.008321 0.591717 0.067491
vertex 1.007772 0.603008 0.061622
vertex 0.997460 0.599220 0.053392
endloop
endfacet
facet normal -0.658021 0.242331 0.712940
outer loop
vertex 1.007411 0.615555 0.057024
vertex 0.997460 0.599220 0.053392
vertex 1.007772 0.603008 0.061622
endloop
endfacet
facet normal -0.164669 0.335214 0.927640
outer loop
vertex 1.007772 0.603008 0.061622
vertex 1.021314 0.615602 0.059475
vertex 1.007411 0.615555 0.057024
endloop
endfacet
facet normal -0.383301 0.411239 0.827021
outer loop
vertex 1.019969 0.594077 0.071716
vertex 1.007772 0.603008 0.061622
vertex 1.008321 0.591717 0.067491
endloop
endfacet
facet normal -0.748549 0.135960 0.648991
outer loop
vertex 1.008321 0.591717 0.067491
vertex 0.997460 0.599220 0.053392
vertex 0.999850 0.587389 0.058627
endloop
endfacet
facet normal -0.854359 0.284543 0.434863
outer loop
vertex 1.008321 0.591717 0.067491
vertex 1.001416 0.576437 0.063923
vertex 1.008298 0.581624 0.074050
endloop
endfacet
facet normal -0.754872 0.194898 0.626245
outer loop
vertex 1.008321 0.591717 0.067491
vertex 0.999850 0.587389 0.058627
vertex 1.001416 0.576437 0.063923
endloop
endfacet
facet normal -0.382932 0.503976 0.774191
outer loop
vertex 1.008298 0.581624 0.074050
vertex 1.019969 0.594077 0.071716
vertex 1.008321 0.591717 0.067491
endloop
endfacet
facet normal -0.855641 0.231106 0.463108
outer loop
vertex 1.008298 0.581624 0.074050
vertex 1.001416 0.576437 0.063923
vertex 1.002031 0.564991 0.070771
endloop
endfacet
facet normal -0.568028 0.572479 0.591280
outer loop
vertex 1.007253 0.571805 0.082553
vertex 1.018498 0.585533 0.080064
vertex 1.008298 0.581624 0.074050
endloop
endfacet
facet normal -0.923959 0.301814 0.234962
outer loop
vertex 1.008298 0.581624 0.074050
vertex 1.002031 0.564991 0.070771
vertex 1.007253 0.571805 0.082553
endloop
endfacet
facet normal -0.559862 0.626372 0.542414
outer loop
vertex 1.008298 0.581624 0.074050
vertex 1.018498 0.585533 0.080064
vertex 1.019969 0.594077 0.071716
endloop
endfacet
facet normal -0.685110 0.628090 0.368954
outer loop
vertex 1.007253 0.571805 0.082553
vertex 1.017143 0.578068 0.090256
vertex 1.018498 0.585533 0.080064
endloop
endfacet
facet normal 0.212167 0.774721 0.595644
outer loop
vertex 1.031249 0.582380 0.079623
vertex 1.018498 0.585533 0.080064
vertex 1.017143 0.578068 0.090256
endloop
endfacet
facet normal 0.074131 0.036817 -0.996569
outer loop
vertex 1.002077 0.494623 0.010721
vertex 1.030887 0.506802 0.013314
vertex 1.015384 0.470536 0.010821
endloop
endfacet
facet normal -0.955186 -0.190291 -0.226736
outer loop
vertex 0.990257 0.640444 0.017683
vertex 0.989757 0.622953 0.034469
vertex 0.987148 0.637236 0.033473
endloop
endfacet
facet normal -0.539157 0.143946 0.829813
outer loop
vertex 1.007411 0.615555 0.057024
vertex 0.995500 0.612488 0.049817
vertex 0.997460 0.599220 0.053392
endloop
endfacet
facet normal -0.132622 0.257387 0.957164
outer loop
vertex 1.007411 0.615555 0.057024
vertex 1.021511 0.628599 0.055470
vertex 1.007316 0.628979 0.053401
endloop
endfacet
facet normal -0.545492 0.214785 0.810127
outer loop
vertex 0.995500 0.612488 0.049817
vertex 1.007411 0.615555 0.057024
vertex 1.007316 0.628979 0.053401
endloop
endfacet
facet normal -0.166972 0.292657 0.941527
outer loop
vertex 1.007411 0.615555 0.057024
vertex 1.021314 0.615602 0.059475
vertex 1.021511 0.628599 0.055470
endloop
endfacet
facet normal 0.031889 0.293889 0.955308
outer loop
vertex 1.036124 0.626191 0.055723
vertex 1.021511 0.628599 0.055470
vertex 1.021314 0.615602 0.059475
endloop
endfacet
facet normal 0.022550 0.238839 0.970797
outer loop
vertex 1.036095 0.640107 0.052300
vertex 1.021511 0.628599 0.055470
vertex 1.036124 0.626191 0.055723
endloop
endfacet
facet normal 0.023647 0.237526 0.971093
outer loop
vertex 1.036095 0.640107 0.052300
vertex 1.021452 0.642591 0.052049
vertex 1.021511 0.628599 0.055470
endloop
endfacet
facet normal -0.134042 0.234829 0.962750
outer loop
vertex 1.007316 0.628979 0.053401
vertex 1.021511 0.628599 0.055470
vertex 1.021452 0.642591 0.052049
endloop
endfacet
facet normal 0.017620 0.202808 0.979060
outer loop
vertex 1.035740 0.654833 0.049256
vertex 1.021452 0.642591 0.052049
vertex 1.036095 0.640107 0.052300
endloop
endfacet
facet normal 0.025964 0.193454 0.980766
outer loop
vertex 1.035740 0.654833 0.049256
vertex 1.021191 0.657323 0.049150
vertex 1.021452 0.642591 0.052049
endloop
endfacet
facet normal -0.119002 0.189683 0.974607
outer loop
vertex 1.007225 0.643320 0.050170
vertex 1.021452 0.642591 0.052049
vertex 1.021191 0.657323 0.049150
endloop
endfacet
facet normal -0.116832 0.217576 0.969026
outer loop
vertex 1.007316 0.628979 0.053401
vertex 1.021452 0.642591 0.052049
vertex 1.007225 0.643320 0.050170
endloop
endfacet
facet normal -0.393520 0.155925 0.905996
outer loop
vertex 0.994623 0.626855 0.047530
vertex 1.007225 0.643320 0.050170
vertex 0.994340 0.641457 0.044894
endloop
endfacet
facet normal -0.438436 0.194890 0.877378
outer loop
vertex 0.994623 0.626855 0.047530
vertex 1.007316 0.628979 0.053401
vertex 1.007225 0.643320 0.050170
endloop
endfacet
facet normal -0.140187 0.210292 0.967535
outer loop
vertex 1.007225 0.643320 0.050170
vertex 1.021191 0.657323 0.049150
vertex 1.007154 0.657885 0.046994
endloop
endfacet
facet normal -0.395614 0.193826 0.897731
outer loop
vertex 0.994340 0.641457 0.044894
vertex 1.007225 0.643320 0.050170
vertex 1.007154 0.657885 0.046994
endloop
endfacet
facet normal -0.380238 0.180641 0.907077
outer loop
vertex 0.994340 0.641457 0.044894
vertex 1.007154 0.657885 0.046994
vertex 0.994295 0.656929 0.041794
endloop
endfacet
facet normal -0.858093 0.098473 0.503963
outer loop
vertex 0.994295 0.656929 0.041794
vertex 0.987148 0.637236 0.033473
vertex 0.994340 0.641457 0.044894
endloop
endfacet
facet normal -0.821910 -0.111176 0.558662
outer loop
vertex 0.994340 0.641457 0.044894
vertex 0.987148 0.637236 0.033473
vertex 0.989757 0.622953 0.034469
endloop
endfacet
facet normal -0.940331 0.042715 0.337568
outer loop
vertex 0.994340 0.641457 0.044894
vertex 0.989757 0.622953 0.034469
vertex 0.994623 0.626855 0.047530
endloop
endfacet
facet normal -0.909369 -0.156333 0.385498
outer loop
vertex 0.994623 0.626855 0.047530
vertex 0.989757 0.622953 0.034469
vertex 0.992676 0.608748 0.035594
endloop
endfacet
facet normal -0.949279 -0.213352 -0.230979
outer loop
vertex 0.992676 0.608748 0.035594
vertex 0.989757 0.622953 0.034469
vertex 0.992945 0.624946 0.019526
endloop
endfacet
facet normal -0.955277 -0.189903 -0.226677
outer loop
vertex 0.990257 0.640444 0.017683
vertex 0.987148 0.637236 0.033473
vertex 0.985799 0.653574 0.025470
endloop
endfacet
facet normal -0.954091 -0.192744 -0.229258
outer loop
vertex 0.990257 0.640444 0.017683
vertex 0.992945 0.624946 0.019526
vertex 0.989757 0.622953 0.034469
endloop
endfacet
facet normal -0.959120 -0.191114 -0.208718
outer loop
vertex 0.992676 0.608748 0.035594
vertex 0.992945 0.624946 0.019526
vertex 0.995632 0.609456 0.021362
endloop
endfacet
facet normal 0.037351 -0.111615 -0.993049
outer loop
vertex 1.010101 0.644638 0.017958
vertex 0.992945 0.624946 0.019526
vertex 0.990257 0.640444 0.017683
endloop
endfacet
facet normal 0.050237 -0.108957 -0.992776
outer loop
vertex 0.995632 0.609456 0.021362
vertex 0.992945 0.624946 0.019526
vertex 1.011051 0.627080 0.020208
endloop
endfacet
facet normal 0.051959 -0.124169 -0.990900
outer loop
vertex 1.010101 0.644638 0.017958
vertex 1.011051 0.627080 0.020208
vertex 0.992945 0.624946 0.019526
endloop
endfacet
facet normal 0.102121 -0.153700 -0.982826
outer loop
vertex 0.995632 0.609456 0.021362
vertex 1.011051 0.627080 0.020208
vertex 1.011857 0.610734 0.022848
endloop
endfacet
facet normal 0.102611 -0.120971 -0.987338
outer loop
vertex 1.029642 0.644498 0.020006
vertex 1.011051 0.627080 0.020208
vertex 1.010101 0.644638 0.017958
endloop
endfacet
facet normal 0.108564 -0.153278 -0.982201
outer loop
vertex 1.011857 0.610734 0.022848
vertex 1.011051 0.627080 0.020208
vertex 1.029263 0.628131 0.022057
endloop
endfacet
facet normal 0.107400 -0.126071 -0.986190
outer loop
vertex 1.029642 0.644498 0.020006
vertex 1.029263 0.628131 0.022057
vertex 1.011051 0.627080 0.020208
endloop
endfacet
facet normal 0.075085 0.037344 -0.996478
outer loop
vertex 1.015384 0.470536 0.010821
vertex 1.002582 0.477811 0.010129
vertex 1.002077 0.494623 0.010721
endloop
endfacet
facet normal 0.111557 -0.156236 -0.981400
outer loop
vertex 1.011857 0.610734 0.022848
vertex 1.029263 0.628131 0.022057
vertex 1.028895 0.611976 0.024587
endloop
endfacet
facet normal 0.071531 0.035662 -0.996801
outer loop
vertex 1.030887 0.506802 0.013314
vertex 1.031682 0.520580 0.013864
vertex 1.044067 0.507450 0.014283
endloop
endfacet
facet normal 0.074046 0.037017 -0.996567
outer loop
vertex 1.001574 0.511432 0.011308
vertex 1.030887 0.506802 0.013314
vertex 1.002077 0.494623 0.010721
endloop
endfacet
facet normal 0.016385 -0.125587 -0.991947
outer loop
vertex 1.063139 0.645646 0.020239
vertex 1.045746 0.628962 0.022064
vertex 1.046718 0.644799 0.020075
endloop
endfacet
facet normal 0.017702 -0.126939 -0.991753
outer loop
vertex 1.063139 0.645646 0.020239
vertex 1.062036 0.630015 0.022220
vertex 1.045746 0.628962 0.022064
endloop
endfacet
facet normal 0.006698 -0.124489 -0.992198
outer loop
vertex 1.045746 0.628962 0.022064
vertex 1.029263 0.628131 0.022057
vertex 1.029642 0.644498 0.020006
endloop
endfacet
facet normal -0.903141 0.400081 0.155790
outer loop
vertex 1.002031 0.564991 0.070771
vertex 0.997429 0.559081 0.059270
vertex 0.998531 0.553881 0.079012
endloop
endfacet
facet normal 0.997481 -0.067702 0.021168
outer loop
vertex 1.062646 0.644623 0.040196
vertex 1.062036 0.630015 0.022220
vertex 1.063139 0.645646 0.020239
endloop
endfacet
facet normal 0.999565 -0.006306 -0.028800
outer loop
vertex 1.062646 0.644623 0.040196
vertex 1.062596 0.629840 0.041692
vertex 1.062036 0.630015 0.022220
endloop
endfacet
facet normal 0.993423 -0.110623 -0.029560
outer loop
vertex 1.060379 0.614486 0.024642
vertex 1.062036 0.630015 0.022220
vertex 1.062596 0.629840 0.041692
endloop
endfacet
facet normal 0.008248 -0.155286 -0.987835
outer loop
vertex 1.029263 0.628131 0.022057
vertex 1.045746 0.628962 0.022064
vertex 1.044691 0.613136 0.024543
endloop
endfacet
facet normal 0.620245 0.076898 0.780630
outer loop
vertex 1.050982 0.635949 0.050318
vertex 1.062596 0.629840 0.041692
vertex 1.062646 0.644623 0.040196
endloop
endfacet
facet normal 0.632709 0.123380 0.764498
outer loop
vertex 1.050664 0.621674 0.052885
vertex 1.062596 0.629840 0.041692
vertex 1.050982 0.635949 0.050318
endloop
endfacet
facet normal 0.662414 0.056058 0.747038
outer loop
vertex 1.050664 0.621674 0.052885
vertex 1.062121 0.615061 0.043222
vertex 1.062596 0.629840 0.041692
endloop
endfacet
facet normal 0.994895 -0.041493 -0.091995
outer loop
vertex 1.060379 0.614486 0.024642
vertex 1.062596 0.629840 0.041692
vertex 1.062121 0.615061 0.043222
endloop
endfacet
facet normal 0.192427 0.234769 0.952814
outer loop
vertex 1.050982 0.635949 0.050318
vertex 1.036095 0.640107 0.052300
vertex 1.036124 0.626191 0.055723
endloop
endfacet
facet normal 0.181778 0.191019 0.964608
outer loop
vertex 1.036095 0.640107 0.052300
vertex 1.050982 0.635949 0.050318
vertex 1.050312 0.650645 0.047534
endloop
endfacet
facet normal 0.238534 0.166728 0.956715
outer loop
vertex 1.050982 0.635949 0.050318
vertex 1.036124 0.626191 0.055723
vertex 1.050664 0.621674 0.052885
endloop
endfacet
facet normal 0.565937 0.178280 0.804942
outer loop
vertex 1.050982 0.635949 0.050318
vertex 1.062646 0.644623 0.040196
vertex 1.050312 0.650645 0.047534
endloop
endfacet
facet normal 0.172347 0.203385 0.963811
outer loop
vertex 1.036095 0.640107 0.052300
vertex 1.050312 0.650645 0.047534
vertex 1.035740 0.654833 0.049256
endloop
endfacet
facet normal 0.450213 0.242341 0.859406
outer loop
vertex 1.050312 0.650645 0.047534
vertex 1.062017 0.659419 0.038928
vertex 1.049032 0.665832 0.043922
endloop
endfacet
facet normal 0.182175 0.242012 0.953017
outer loop
vertex 1.049032 0.665832 0.043922
vertex 1.035740 0.654833 0.049256
vertex 1.050312 0.650645 0.047534
endloop
endfacet
facet normal 0.542710 0.094591 0.834577
outer loop
vertex 1.050312 0.650645 0.047534
vertex 1.062646 0.644623 0.040196
vertex 1.062017 0.659419 0.038928
endloop
endfacet
facet normal 0.998633 0.044771 0.026960
outer loop
vertex 1.062017 0.659419 0.038928
vertex 1.062646 0.644623 0.040196
vertex 1.063139 0.645646 0.020239
endloop
endfacet
facet normal 0.992035 0.105310 0.069116
outer loop
vertex 1.063172 0.661412 0.019313
vertex 1.060512 0.674171 0.038049
vertex 1.062017 0.659419 0.038928
endloop
endfacet
facet normal 0.397856 0.094961 0.912520
outer loop
vertex 1.049032 0.665832 0.043922
vertex 1.062017 0.659419 0.038928
vertex 1.060512 0.674171 0.038049
endloop
endfacet
facet normal 0.998262 0.001381 0.058922
outer loop
vertex 1.062017 0.659419 0.038928
vertex 1.063139 0.645646 0.020239
vertex 1.063172 0.661412 0.019313
endloop
endfacet
facet normal 0.012995 -0.058655 -0.998194
outer loop
vertex 1.046718 0.644799 0.020075
vertex 1.063172 0.661412 0.019313
vertex 1.063139 0.645646 0.020239
endloop
endfacet
facet normal 0.009416 0.048557 -0.998776
outer loop
vertex 1.061608 0.677101 0.020061
vertex 1.063172 0.661412 0.019313
vertex 1.047463 0.660180 0.019105
endloop
endfacet
facet normal 0.992542 0.095309 0.076002
outer loop
vertex 1.063172 0.661412 0.019313
vertex 1.061608 0.677101 0.020061
vertex 1.060512 0.674171 0.038049
endloop
endfacet
facet normal 0.018215 -0.063807 -0.997796
outer loop
vertex 1.046718 0.644799 0.020075
vertex 1.047463 0.660180 0.019105
vertex 1.063172 0.661412 0.019313
endloop
endfacet
facet normal 0.026186 0.034555 -0.999060
outer loop
vertex 1.061608 0.677101 0.020061
vertex 1.047463 0.660180 0.019105
vertex 1.047404 0.674710 0.019606
endloop
endfacet
facet normal 0.000101 0.034461 -0.999406
outer loop
vertex 1.047404 0.674710 0.019606
vertex 1.047463 0.660180 0.019105
vertex 1.031517 0.660430 0.019112
endloop
endfacet
facet normal -0.001424 -0.062871 -0.998021
outer loop
vertex 1.031517 0.660430 0.019112
vertex 1.047463 0.660180 0.019105
vertex 1.046718 0.644799 0.020075
endloop
endfacet
facet normal 0.071363 -0.064250 -0.995379
outer loop
vertex 1.029642 0.644498 0.020006
vertex 1.016128 0.660766 0.017987
vertex 1.031517 0.660430 0.019112
endloop
endfacet
facet normal 0.073799 0.044233 -0.996292
outer loop
vertex 1.032410 0.677049 0.019916
vertex 1.031517 0.660430 0.019112
vertex 1.016128 0.660766 0.017987
endloop
endfacet
facet normal -0.013002 0.049014 -0.998713
outer loop
vertex 1.047404 0.674710 0.019606
vertex 1.031517 0.660430 0.019112
vertex 1.032410 0.677049 0.019916
endloop
endfacet
facet normal 0.005032 -0.056615 -0.998383
outer loop
vertex 1.031517 0.660430 0.019112
vertex 1.046718 0.644799 0.020075
vertex 1.029642 0.644498 0.020006
endloop
endfacet
facet normal 0.063552 0.149730 -0.986682
outer loop
vertex 1.014889 0.678489 0.019006
vertex 1.035395 0.694148 0.022703
vertex 1.032410 0.677049 0.019916
endloop
endfacet
facet normal 0.056791 0.061265 -0.996505
outer loop
vertex 1.032410 0.677049 0.019916
vertex 1.016128 0.660766 0.017987
vertex 1.014889 0.678489 0.019006
endloop
endfacet
facet normal -0.021919 0.164555 -0.986124
outer loop
vertex 1.032410 0.677049 0.019916
vertex 1.035395 0.694148 0.022703
vertex 1.049928 0.687838 0.021327
endloop
endfacet
facet normal -0.000216 0.130024 -0.991511
outer loop
vertex 1.032410 0.677049 0.019916
vertex 1.049928 0.687838 0.021327
vertex 1.047404 0.674710 0.019606
endloop
endfacet
facet normal 0.010214 0.128045 -0.991716
outer loop
vertex 1.047404 0.674710 0.019606
vertex 1.049928 0.687838 0.021327
vertex 1.061608 0.677101 0.020061
endloop
endfacet
facet normal 0.658090 0.677045 0.329435
outer loop
vertex 1.047437 0.681464 0.039403
vertex 1.061608 0.677101 0.020061
vertex 1.049928 0.687838 0.021327
endloop
endfacet
facet normal 0.385454 0.852266 0.353649
outer loop
vertex 1.049928 0.687838 0.021327
vertex 1.033654 0.687386 0.040154
vertex 1.047437 0.681464 0.039403
endloop
endfacet
facet normal 0.399600 0.840633 0.365589
outer loop
vertex 1.049928 0.687838 0.021327
vertex 1.035395 0.694148 0.022703
vertex 1.033654 0.687386 0.040154
endloop
endfacet
facet normal 0.205652 0.309049 0.928545
outer loop
vertex 1.049032 0.665832 0.043922
vertex 1.033654 0.687386 0.040154
vertex 1.034969 0.670563 0.045462
endloop
endfacet
facet normal 0.039275 0.303457 0.952035
outer loop
vertex 1.034969 0.670563 0.045462
vertex 1.033654 0.687386 0.040154
vertex 1.018973 0.690541 0.039754
endloop
endfacet
facet normal 0.175820 0.289904 0.940767
outer loop
vertex 1.049032 0.665832 0.043922
vertex 1.047437 0.681464 0.039403
vertex 1.033654 0.687386 0.040154
endloop
endfacet
facet normal 0.185433 0.909898 0.371080
outer loop
vertex 1.035395 0.694148 0.022703
vertex 1.018973 0.690541 0.039754
vertex 1.033654 0.687386 0.040154
endloop
endfacet
facet normal 0.051843 0.312508 0.948499
outer loop
vertex 1.034969 0.670563 0.045462
vertex 1.018973 0.690541 0.039754
vertex 1.020622 0.672852 0.045492
endloop
endfacet
facet normal -0.199361 0.285496 0.937415
outer loop
vertex 1.020622 0.672852 0.045492
vertex 1.018973 0.690541 0.039754
vertex 1.005622 0.684912 0.038629
endloop
endfacet
facet normal 0.084546 0.955240 0.283493
outer loop
vertex 1.035395 0.694148 0.022703
vertex 1.019557 0.695583 0.022591
vertex 1.018973 0.690541 0.039754
endloop
endfacet
facet normal -0.394065 0.885358 0.246684
outer loop
vertex 1.005622 0.684912 0.038629
vertex 1.018973 0.690541 0.039754
vertex 1.019557 0.695583 0.022591
endloop
endfacet
facet normal -0.611409 0.697184 0.374318
outer loop
vertex 0.992695 0.679304 0.027959
vertex 0.994285 0.676196 0.036345
vertex 1.005622 0.684912 0.038629
endloop
endfacet
facet normal -0.390965 0.278663 0.877208
outer loop
vertex 0.994285 0.676196 0.036345
vertex 1.007296 0.672374 0.043358
vertex 1.005622 0.684912 0.038629
endloop
endfacet
facet normal -0.160806 0.329451 0.930378
outer loop
vertex 1.020622 0.672852 0.045492
vertex 1.005622 0.684912 0.038629
vertex 1.007296 0.672374 0.043358
endloop
endfacet
facet normal -0.592150 0.734563 0.331325
outer loop
vertex 0.992695 0.679304 0.027959
vertex 1.005622 0.684912 0.038629
vertex 1.004440 0.692274 0.020195
endloop
endfacet
facet normal -0.254416 0.892388 0.372715
outer loop
vertex 1.005622 0.684912 0.038629
vertex 1.019557 0.695583 0.022591
vertex 1.004440 0.692274 0.020195
endloop
endfacet
facet normal -0.549926 0.735213 0.396288
outer loop
vertex 1.004440 0.692274 0.020195
vertex 0.991377 0.684388 0.016698
vertex 0.992695 0.679304 0.027959
endloop
endfacet
facet normal 0.167276 0.154692 -0.973699
outer loop
vertex 1.004440 0.692274 0.020195
vertex 0.999056 0.672572 0.016140
vertex 0.991377 0.684388 0.016698
endloop
endfacet
facet normal 0.117104 0.173111 -0.977916
outer loop
vertex 1.004440 0.692274 0.020195
vertex 1.019557 0.695583 0.022591
vertex 1.014889 0.678489 0.019006
endloop
endfacet
facet normal 0.113482 0.170445 -0.978811
outer loop
vertex 1.004440 0.692274 0.020195
vertex 1.014889 0.678489 0.019006
vertex 0.999056 0.672572 0.016140
endloop
endfacet
facet normal 0.155483 -0.089954 -0.983734
outer loop
vertex 0.999056 0.672572 0.016140
vertex 0.987570 0.655934 0.015846
vertex 0.984882 0.671432 0.014004
endloop
endfacet
facet normal 0.136990 0.135366 -0.981280
outer loop
vertex 0.984882 0.671432 0.014004
vertex 0.991377 0.684388 0.016698
vertex 0.999056 0.672572 0.016140
endloop
endfacet
facet normal 0.002946 0.015634 -0.999873
outer loop
vertex 0.999056 0.672572 0.016140
vertex 1.001833 0.658810 0.015933
vertex 0.987570 0.655934 0.015846
endloop
endfacet
facet normal 0.160787 0.047272 -0.985856
outer loop
vertex 1.014889 0.678489 0.019006
vertex 1.001833 0.658810 0.015933
vertex 0.999056 0.672572 0.016140
endloop
endfacet
facet normal 0.028802 -0.112791 -0.993201
outer loop
vertex 0.990257 0.640444 0.017683
vertex 0.987570 0.655934 0.015846
vertex 1.001833 0.658810 0.015933
endloop
endfacet
facet normal 0.038912 -0.119059 -0.992124
outer loop
vertex 0.990257 0.640444 0.017683
vertex 1.001833 0.658810 0.015933
vertex 1.010101 0.644638 0.017958
endloop
endfacet
facet normal 0.133038 0.066158 -0.988900
outer loop
vertex 1.014889 0.678489 0.019006
vertex 1.016128 0.660766 0.017987
vertex 1.001833 0.658810 0.015933
endloop
endfacet
facet normal 0.149254 -0.054002 -0.987323
outer loop
vertex 1.010101 0.644638 0.017958
vertex 1.001833 0.658810 0.015933
vertex 1.016128 0.660766 0.017987
endloop
endfacet
facet normal -0.971989 -0.185706 -0.144050
outer loop
vertex 0.983586 0.665017 0.031019
vertex 0.984882 0.671432 0.014004
vertex 0.987570 0.655934 0.015846
endloop
endfacet
facet normal -0.955676 -0.192230 -0.223004
outer loop
vertex 0.985799 0.653574 0.025470
vertex 0.987570 0.655934 0.015846
vertex 0.990257 0.640444 0.017683
endloop
endfacet
facet normal -0.975226 -0.090779 -0.201724
outer loop
vertex 0.983586 0.665017 0.031019
vertex 0.987570 0.655934 0.015846
vertex 0.985799 0.653574 0.025470
endloop
endfacet
facet normal -0.754488 0.555803 0.349043
outer loop
vertex 0.983586 0.665017 0.031019
vertex 0.994285 0.676196 0.036345
vertex 0.992695 0.679304 0.027959
endloop
endfacet
facet normal -0.756631 0.583768 0.294492
outer loop
vertex 0.983586 0.665017 0.031019
vertex 0.983953 0.664754 0.032483
vertex 0.994285 0.676196 0.036345
endloop
endfacet
facet normal -0.943472 -0.273384 0.187408
outer loop
vertex 0.985799 0.653574 0.025470
vertex 0.983953 0.664754 0.032483
vertex 0.983586 0.665017 0.031019
endloop
endfacet
facet normal -0.819601 0.553911 0.146409
outer loop
vertex 0.992695 0.679304 0.027959
vertex 0.984882 0.671432 0.014004
vertex 0.983586 0.665017 0.031019
endloop
endfacet
facet normal -0.339376 -0.011024 0.940586
outer loop
vertex 0.994285 0.676196 0.036345
vertex 0.983953 0.664754 0.032483
vertex 0.985125 0.651627 0.032752
endloop
endfacet
facet normal -0.989125 -0.090673 -0.115800
outer loop
vertex 0.985799 0.653574 0.025470
vertex 0.985125 0.651627 0.032752
vertex 0.983953 0.664754 0.032483
endloop
endfacet
facet normal -0.741760 0.182161 0.645453
outer loop
vertex 0.994285 0.676196 0.036345
vertex 0.985125 0.651627 0.032752
vertex 0.994295 0.656929 0.041794
endloop
endfacet
facet normal -0.683197 -0.059580 0.727799
outer loop
vertex 0.994295 0.656929 0.041794
vertex 0.985125 0.651627 0.032752
vertex 0.987148 0.637236 0.033473
endloop
endfacet
facet normal -0.981022 -0.144392 -0.129407
outer loop
vertex 0.987148 0.637236 0.033473
vertex 0.985125 0.651627 0.032752
vertex 0.985799 0.653574 0.025470
endloop
endfacet
facet normal 0.070386 0.035800 -0.996877
outer loop
vertex 1.044276 0.535532 0.015289
vertex 1.057552 0.522072 0.015743
vertex 1.044576 0.520518 0.014771
endloop
endfacet
facet normal -0.880906 0.384112 0.276517
outer loop
vertex 0.992695 0.679304 0.027959
vertex 0.991377 0.684388 0.016698
vertex 0.984882 0.671432 0.014004
endloop
endfacet
facet normal -0.401829 0.249008 0.881208
outer loop
vertex 0.994295 0.656929 0.041794
vertex 1.007296 0.672374 0.043358
vertex 0.994285 0.676196 0.036345
endloop
endfacet
facet normal -0.379524 0.228689 0.896473
outer loop
vertex 0.994295 0.656929 0.041794
vertex 1.007154 0.657885 0.046994
vertex 1.007296 0.672374 0.043358
endloop
endfacet
facet normal -0.137801 0.242348 0.960353
outer loop
vertex 1.007296 0.672374 0.043358
vertex 1.007154 0.657885 0.046994
vertex 1.021191 0.657323 0.049150
endloop
endfacet
facet normal -0.161939 0.220628 0.961821
outer loop
vertex 1.007296 0.672374 0.043358
vertex 1.021191 0.657323 0.049150
vertex 1.020622 0.672852 0.045492
endloop
endfacet
facet normal 0.024929 0.198666 -0.979750
outer loop
vertex 1.014889 0.678489 0.019006
vertex 1.019557 0.695583 0.022591
vertex 1.035395 0.694148 0.022703
endloop
endfacet
facet normal 0.032326 0.230286 0.972586
outer loop
vertex 1.020622 0.672852 0.045492
vertex 1.021191 0.657323 0.049150
vertex 1.035740 0.654833 0.049256
endloop
endfacet
facet normal 0.039703 0.236128 0.970910
outer loop
vertex 1.020622 0.672852 0.045492
vertex 1.035740 0.654833 0.049256
vertex 1.034969 0.670563 0.045462
endloop
endfacet
facet normal 0.184790 0.238987 0.953277
outer loop
vertex 1.049032 0.665832 0.043922
vertex 1.034969 0.670563 0.045462
vertex 1.035740 0.654833 0.049256
endloop
endfacet
facet normal 0.258503 0.292525 0.920655
outer loop
vertex 1.049032 0.665832 0.043922
vertex 1.060512 0.674171 0.038049
vertex 1.047437 0.681464 0.039403
endloop
endfacet
facet normal 0.493410 0.853213 0.169042
outer loop
vertex 1.047437 0.681464 0.039403
vertex 1.060512 0.674171 0.038049
vertex 1.061608 0.677101 0.020061
endloop
endfacet
facet normal 0.103900 -0.037042 -0.993898
outer loop
vertex 1.029642 0.644498 0.020006
vertex 1.010101 0.644638 0.017958
vertex 1.016128 0.660766 0.017987
endloop
endfacet
facet normal 0.008190 -0.149027 -0.988799
outer loop
vertex 1.044691 0.613136 0.024543
vertex 1.028667 0.595913 0.027006
vertex 1.028895 0.611976 0.024587
endloop
endfacet
facet normal 0.010529 -0.151148 -0.988455
outer loop
vertex 1.044691 0.613136 0.024543
vertex 1.043669 0.597285 0.026956
vertex 1.028667 0.595913 0.027006
endloop
endfacet
facet normal 0.019289 -0.151685 -0.988240
outer loop
vertex 1.060379 0.614486 0.024642
vertex 1.043669 0.597285 0.026956
vertex 1.044691 0.613136 0.024543
endloop
endfacet
facet normal 0.111073 -0.147689 -0.982777
outer loop
vertex 1.028895 0.611976 0.024587
vertex 1.013091 0.594767 0.025387
vertex 1.011857 0.610734 0.022848
endloop
endfacet
facet normal 0.113100 -0.149527 -0.982268
outer loop
vertex 1.028895 0.611976 0.024587
vertex 1.028667 0.595913 0.027006
vertex 1.013091 0.594767 0.025387
endloop
endfacet
facet normal -0.979064 -0.027659 0.201667
outer loop
vertex 0.994623 0.626855 0.047530
vertex 0.992676 0.608748 0.035594
vertex 0.995500 0.612488 0.049817
endloop
endfacet
facet normal -0.954745 -0.211779 -0.208834
outer loop
vertex 0.995632 0.609456 0.021362
vertex 0.995564 0.594540 0.036799
vertex 0.992676 0.608748 0.035594
endloop
endfacet
facet normal -0.972714 -0.085597 0.215639
outer loop
vertex 0.997460 0.599220 0.053392
vertex 0.995500 0.612488 0.049817
vertex 0.992676 0.608748 0.035594
endloop
endfacet
facet normal -0.969539 -0.183290 0.162480
outer loop
vertex 0.997460 0.599220 0.053392
vertex 0.992676 0.608748 0.035594
vertex 0.995564 0.594540 0.036799
endloop
endfacet
facet normal -0.432882 0.115885 0.893971
outer loop
vertex 0.995500 0.612488 0.049817
vertex 1.007316 0.628979 0.053401
vertex 0.994623 0.626855 0.047530
endloop
endfacet
facet normal 0.454557 0.430086 0.780002
outer loop
vertex 1.032881 0.590844 0.071304
vertex 1.048207 0.595379 0.059872
vertex 1.034650 0.601002 0.064672
endloop
endfacet
facet normal 0.523567 0.268715 0.808499
outer loop
vertex 1.032881 0.590844 0.071304
vertex 1.044955 0.584132 0.065716
vertex 1.048207 0.595379 0.059872
endloop
endfacet
facet normal 0.578534 0.512284 0.634715
outer loop
vertex 1.031249 0.582380 0.079623
vertex 1.044955 0.584132 0.065716
vertex 1.032881 0.590844 0.071304
endloop
endfacet
facet normal 0.150536 0.005603 -0.988589
outer loop
vertex 1.013836 0.547528 0.025195
vertex 1.000456 0.562594 0.023243
vertex 1.013943 0.563177 0.025300
endloop
endfacet
facet normal 0.147280 0.073104 -0.986390
outer loop
vertex 1.013943 0.563177 0.025300
vertex 1.000456 0.562594 0.023243
vertex 1.000610 0.578300 0.024430
endloop
endfacet
facet normal 0.097322 0.006014 -0.995235
outer loop
vertex 1.013943 0.563177 0.025300
vertex 1.028125 0.549137 0.026602
vertex 1.013836 0.547528 0.025195
endloop
endfacet
facet normal 0.112439 0.021453 -0.993427
outer loop
vertex 1.013943 0.563177 0.025300
vertex 1.028508 0.564310 0.026973
vertex 1.028125 0.549137 0.026602
endloop
endfacet
facet normal 0.132089 -0.011112 -0.991176
outer loop
vertex 1.013836 0.547528 0.025195
vertex 0.999510 0.546979 0.023292
vertex 1.000456 0.562594 0.023243
endloop
endfacet
facet normal -0.025346 0.995037 -0.096218
outer loop
vertex 1.015010 0.546433 0.013563
vertex 0.999510 0.546979 0.023292
vertex 1.013836 0.547528 0.025195
endloop
endfacet
facet normal -0.099466 0.987841 -0.119483
outer loop
vertex 1.013836 0.547528 0.025195
vertex 1.028125 0.549137 0.026602
vertex 1.029389 0.547825 0.014704
endloop
endfacet
facet normal -0.087821 0.990885 -0.102149
outer loop
vertex 1.013836 0.547528 0.025195
vertex 1.029389 0.547825 0.014704
vertex 1.015010 0.546433 0.013563
endloop
endfacet
facet normal 0.075557 0.036318 -0.996480
outer loop
vertex 1.017636 0.526482 0.013035
vertex 1.015010 0.546433 0.013563
vertex 1.029389 0.547825 0.014704
endloop
endfacet
facet normal 0.074836 0.036224 -0.996538
outer loop
vertex 1.001074 0.528236 0.011855
vertex 1.015010 0.546433 0.013563
vertex 1.017636 0.526482 0.013035
endloop
endfacet
facet normal -0.080806 0.979650 -0.183729
outer loop
vertex 1.015010 0.546433 0.013563
vertex 1.000633 0.545030 0.012405
vertex 0.999510 0.546979 0.023292
endloop
endfacet
facet normal 0.076877 0.034651 -0.996438
outer loop
vertex 1.001074 0.528236 0.011855
vertex 1.000633 0.545030 0.012405
vertex 1.015010 0.546433 0.013563
endloop
endfacet
facet normal -0.989663 -0.015216 -0.142604
outer loop
vertex 1.001074 0.528236 0.011855
vertex 0.999111 0.522112 0.026131
vertex 0.999014 0.534807 0.025450
endloop
endfacet
facet normal -0.989969 -0.021418 -0.139649
outer loop
vertex 0.999014 0.534807 0.025450
vertex 1.000633 0.545030 0.012405
vertex 1.001074 0.528236 0.011855
endloop
endfacet
facet normal -0.988896 -0.024651 -0.146552
outer loop
vertex 0.999111 0.522112 0.026131
vertex 1.001074 0.528236 0.011855
vertex 1.001574 0.511432 0.011308
endloop
endfacet
facet normal 0.074676 0.034663 -0.996605
outer loop
vertex 1.017636 0.526482 0.013035
vertex 1.001574 0.511432 0.011308
vertex 1.001074 0.528236 0.011855
endloop
endfacet
facet normal -0.989541 -0.033471 -0.140313
outer loop
vertex 0.999111 0.522112 0.026131
vertex 1.001574 0.511432 0.011308
vertex 0.999622 0.508731 0.025719
endloop
endfacet
facet normal -0.949545 -0.026637 -0.312498
outer loop
vertex 0.999622 0.508731 0.025719
vertex 0.994879 0.522172 0.038985
vertex 0.999111 0.522112 0.026131
endloop
endfacet
facet normal -0.949603 -0.024025 -0.312532
outer loop
vertex 0.999014 0.534807 0.025450
vertex 0.999111 0.522112 0.026131
vertex 0.994879 0.522172 0.038985
endloop
endfacet
facet normal -0.994205 -0.050114 -0.095103
outer loop
vertex 0.994232 0.510776 0.051755
vertex 0.993738 0.524316 0.049783
vertex 0.994879 0.522172 0.038985
endloop
endfacet
facet normal -0.994553 -0.035257 -0.098093
outer loop
vertex 0.993738 0.524316 0.049783
vertex 0.994417 0.536704 0.038446
vertex 0.994879 0.522172 0.038985
endloop
endfacet
facet normal -0.994991 -0.044063 -0.089729
outer loop
vertex 0.994232 0.510776 0.051755
vertex 0.994879 0.522172 0.038985
vertex 0.995472 0.507641 0.039544
endloop
endfacet
facet normal -0.955476 -0.050186 -0.290770
outer loop
vertex 0.999622 0.508731 0.025719
vertex 0.995472 0.507641 0.039544
vertex 0.994879 0.522172 0.038985
endloop
endfacet
facet normal -0.943840 -0.042150 -0.327704
outer loop
vertex 0.999014 0.534807 0.025450
vertex 0.994879 0.522172 0.038985
vertex 0.994417 0.536704 0.038446
endloop
endfacet
facet normal -0.998918 0.014239 -0.044271
outer loop
vertex 0.993738 0.524316 0.049783
vertex 0.993846 0.539455 0.052215
vertex 0.994417 0.536704 0.038446
endloop
endfacet
facet normal -0.998555 0.026544 -0.046715
outer loop
vertex 0.993846 0.539455 0.052215
vertex 0.994834 0.551223 0.037783
vertex 0.994417 0.536704 0.038446
endloop
endfacet
facet normal -0.950470 0.013111 -0.310541
outer loop
vertex 0.994417 0.536704 0.038446
vertex 0.994834 0.551223 0.037783
vertex 0.999510 0.546979 0.023292
endloop
endfacet
facet normal -0.943489 -0.020207 -0.330786
outer loop
vertex 0.994417 0.536704 0.038446
vertex 0.999510 0.546979 0.023292
vertex 0.999014 0.534807 0.025450
endloop
endfacet
facet normal -0.989622 -0.126592 -0.067995
outer loop
vertex 0.994232 0.510776 0.051755
vertex 0.995472 0.507641 0.039544
vertex 0.997279 0.493228 0.040078
endloop
endfacet
facet normal -0.968916 -0.129284 -0.210919
outer loop
vertex 1.000379 0.493798 0.025488
vertex 0.997279 0.493228 0.040078
vertex 0.995472 0.507641 0.039544
endloop
endfacet
facet normal -0.955893 -0.043965 -0.290406
outer loop
vertex 1.000379 0.493798 0.025488
vertex 0.995472 0.507641 0.039544
vertex 0.999622 0.508731 0.025719
endloop
endfacet
facet normal -0.991975 -0.048481 -0.116773
outer loop
vertex 0.999622 0.508731 0.025719
vertex 1.002077 0.494623 0.010721
vertex 1.000379 0.493798 0.025488
endloop
endfacet
facet normal -0.973499 -0.089736 -0.210349
outer loop
vertex 1.001805 0.478794 0.025289
vertex 0.997279 0.493228 0.040078
vertex 1.000379 0.493798 0.025488
endloop
endfacet
facet normal -0.992960 -0.025750 -0.115616
outer loop
vertex 1.000379 0.493798 0.025488
vertex 1.002077 0.494623 0.010721
vertex 1.002582 0.477811 0.010129
endloop
endfacet
facet normal -0.994567 -0.093928 -0.044885
outer loop
vertex 1.000379 0.493798 0.025488
vertex 1.002582 0.477811 0.010129
vertex 1.001805 0.478794 0.025289
endloop
endfacet
facet normal -0.507513 -0.861594 0.009269
outer loop
vertex 1.014243 0.471645 0.041787
vertex 1.001805 0.478794 0.025289
vertex 1.014521 0.471315 0.026328
endloop
endfacet
facet normal -0.548923 -0.834233 0.052342
outer loop
vertex 1.014243 0.471645 0.041787
vertex 1.002103 0.479552 0.040494
vertex 1.001805 0.478794 0.025289
endloop
endfacet
facet normal -0.942808 -0.331493 0.035007
outer loop
vertex 1.001805 0.478794 0.025289
vertex 1.002103 0.479552 0.040494
vertex 0.997279 0.493228 0.040078
endloop
endfacet
facet normal -0.508548 -0.860520 0.029732
outer loop
vertex 1.014521 0.471315 0.026328
vertex 1.001805 0.478794 0.025289
vertex 1.002582 0.477811 0.010129
endloop
endfacet
facet normal -0.635561 -0.755713 0.157984
outer loop
vertex 1.002103 0.479552 0.040494
vertex 1.012104 0.474405 0.056107
vertex 1.001277 0.483241 0.054817
endloop
endfacet
facet normal -0.942896 -0.331637 0.031042
outer loop
vertex 1.001277 0.483241 0.054817
vertex 0.997279 0.493228 0.040078
vertex 1.002103 0.479552 0.040494
endloop
endfacet
facet normal -0.549914 -0.831559 0.078133
outer loop
vertex 1.002103 0.479552 0.040494
vertex 1.014243 0.471645 0.041787
vertex 1.012104 0.474405 0.056107
endloop
endfacet
facet normal -0.635384 -0.769930 0.059109
outer loop
vertex 1.001277 0.483241 0.054817
vertex 1.012104 0.474405 0.056107
vertex 1.010413 0.476837 0.069607
endloop
endfacet
facet normal -0.721958 -0.674616 0.153854
outer loop
vertex 1.001277 0.483241 0.054817
vertex 1.010413 0.476837 0.069607
vertex 1.000956 0.486727 0.068596
endloop
endfacet
facet normal -0.936381 -0.344833 0.065432
outer loop
vertex 1.000956 0.486727 0.068596
vertex 0.996235 0.496651 0.053335
vertex 1.001277 0.483241 0.054817
endloop
endfacet
facet normal -0.936504 -0.350260 0.016691
outer loop
vertex 1.001277 0.483241 0.054817
vertex 0.996235 0.496651 0.053335
vertex 0.997279 0.493228 0.040078
endloop
endfacet
facet normal -0.683589 -0.613199 0.395845
outer loop
vertex 1.000956 0.486727 0.068596
vertex 1.010413 0.476837 0.069607
vertex 1.015174 0.480059 0.082820
endloop
endfacet
facet normal -0.268774 -0.909016 0.318511
outer loop
vertex 1.015174 0.480059 0.082820
vertex 1.010413 0.476837 0.069607
vertex 1.022450 0.473874 0.071308
endloop
endfacet
facet normal -0.255314 -0.956617 0.140351
outer loop
vertex 1.022450 0.473874 0.071308
vertex 1.010413 0.476837 0.069607
vertex 1.012104 0.474405 0.056107
endloop
endfacet
facet normal -0.042921 -0.891154 0.451666
outer loop
vertex 1.022450 0.473874 0.071308
vertex 1.030121 0.480928 0.085955
vertex 1.015174 0.480059 0.082820
endloop
endfacet
facet normal -0.723323 -0.652910 0.224749
outer loop
vertex 1.004468 0.496017 0.094723
vertex 1.015174 0.480059 0.082820
vertex 1.014349 0.485407 0.095701
endloop
endfacet
facet normal -0.647534 -0.684389 0.335130
outer loop
vertex 1.004468 0.496017 0.094723
vertex 1.002952 0.491182 0.081920
vertex 1.015174 0.480059 0.082820
endloop
endfacet
facet normal -0.649153 -0.686832 0.326898
outer loop
vertex 1.000956 0.486727 0.068596
vertex 1.015174 0.480059 0.082820
vertex 1.002952 0.491182 0.081920
endloop
endfacet
facet normal -0.101715 -0.921063 0.375894
outer loop
vertex 1.027201 0.484486 0.096922
vertex 1.014349 0.485407 0.095701
vertex 1.015174 0.480059 0.082820
endloop
endfacet
facet normal -0.008931 -0.951852 0.306428
outer loop
vertex 1.027201 0.484486 0.096922
vertex 1.015174 0.480059 0.082820
vertex 1.030121 0.480928 0.085955
endloop
endfacet
facet normal -0.096323 -0.949886 0.297386
outer loop
vertex 1.027201 0.484486 0.096922
vertex 1.013408 0.489135 0.107304
vertex 1.014349 0.485407 0.095701
endloop
endfacet
facet normal 0.514579 -0.819615 0.251873
outer loop
vertex 1.027201 0.484486 0.096922
vertex 1.038069 0.494642 0.107767
vertex 1.025877 0.487006 0.107827
endloop
endfacet
facet normal -0.173060 -0.964024 0.201763
outer loop
vertex 1.027201 0.484486 0.096922
vertex 1.025877 0.487006 0.107827
vertex 1.013408 0.489135 0.107304
endloop
endfacet
facet normal 0.481354 -0.788023 0.383820
outer loop
vertex 1.027201 0.484486 0.096922
vertex 1.030121 0.480928 0.085955
vertex 1.040548 0.490205 0.091925
endloop
endfacet
facet normal 0.469361 -0.828480 0.305486
outer loop
vertex 1.027201 0.484486 0.096922
vertex 1.040548 0.490205 0.091925
vertex 1.038069 0.494642 0.107767
endloop
endfacet
facet normal -0.763119 -0.630742 0.140762
outer loop
vertex 1.014349 0.485407 0.095701
vertex 1.013408 0.489135 0.107304
vertex 1.004698 0.499643 0.107170
endloop
endfacet
facet normal 0.788047 0.583256 0.196963
outer loop
vertex 1.049021 0.549288 0.096944
vertex 1.039385 0.557170 0.112156
vertex 1.048200 0.546043 0.109838
endloop
endfacet
facet normal 0.933387 0.329439 0.142336
outer loop
vertex 1.049021 0.549288 0.096944
vertex 1.048200 0.546043 0.109838
vertex 1.053166 0.532693 0.108170
endloop
endfacet
facet normal 0.941007 0.316329 0.120177
outer loop
vertex 1.049021 0.549288 0.096944
vertex 1.053166 0.532693 0.108170
vertex 1.053907 0.535772 0.094263
endloop
endfacet
facet normal 0.817322 0.519912 0.248348
outer loop
vertex 1.049021 0.549288 0.096944
vertex 1.040775 0.561098 0.099358
vertex 1.039385 0.557170 0.112156
endloop
endfacet
facet normal 0.823892 0.540249 0.171268
outer loop
vertex 1.049800 0.552289 0.083730
vertex 1.040775 0.561098 0.099358
vertex 1.049021 0.549288 0.096944
endloop
endfacet
facet normal 0.940616 0.314837 0.126958
outer loop
vertex 1.053907 0.535772 0.094263
vertex 1.049800 0.552289 0.083730
vertex 1.049021 0.549288 0.096944
endloop
endfacet
facet normal 0.857349 0.476043 0.195793
outer loop
vertex 1.049800 0.552289 0.083730
vertex 1.049781 0.557477 0.071200
vertex 1.042306 0.565585 0.084219
endloop
endfacet
facet normal 0.946671 0.298198 0.122032
outer loop
vertex 1.054471 0.539260 0.079334
vertex 1.049781 0.557477 0.071200
vertex 1.049800 0.552289 0.083730
endloop
endfacet
facet normal 0.946853 0.303466 0.106669
outer loop
vertex 1.053907 0.535772 0.094263
vertex 1.054471 0.539260 0.079334
vertex 1.049800 0.552289 0.083730
endloop
endfacet
facet normal 0.852128 0.471993 0.226052
outer loop
vertex 1.049800 0.552289 0.083730
vertex 1.042306 0.565585 0.084219
vertex 1.040775 0.561098 0.099358
endloop
endfacet
facet normal 0.895165 0.153113 0.418612
outer loop
vertex 1.052339 0.566944 0.062267
vertex 1.042306 0.565585 0.084219
vertex 1.049781 0.557477 0.071200
endloop
endfacet
facet normal 0.887946 0.165142 0.429278
outer loop
vertex 1.052339 0.566944 0.062267
vertex 1.049781 0.557477 0.071200
vertex 1.056913 0.544380 0.061486
endloop
endfacet
facet normal 0.915985 0.334641 0.221328
outer loop
vertex 1.054471 0.539260 0.079334
vertex 1.056913 0.544380 0.061486
vertex 1.049781 0.557477 0.071200
endloop
endfacet
facet normal 0.556953 0.775092 0.298388
outer loop
vertex 1.040775 0.561098 0.099358
vertex 1.027656 0.565048 0.113585
vertex 1.039385 0.557170 0.112156
endloop
endfacet
facet normal -0.953205 -0.301481 -0.022558
outer loop
vertex 0.998232 0.508983 0.093634
vertex 0.997241 0.511065 0.107684
vertex 0.992499 0.526007 0.108366
endloop
endfacet
facet normal -0.982199 0.183911 0.038227
outer loop
vertex 0.994807 0.541960 0.090916
vertex 0.992499 0.526007 0.108366
vertex 0.995408 0.541325 0.109413
endloop
endfacet
facet normal -0.994758 0.089178 -0.050042
outer loop
vertex 0.994807 0.541960 0.090916
vertex 0.993110 0.523960 0.092572
vertex 0.992499 0.526007 0.108366
endloop
endfacet
facet normal -0.946298 -0.323254 0.005287
outer loop
vertex 0.998232 0.508983 0.093634
vertex 0.992499 0.526007 0.108366
vertex 0.993110 0.523960 0.092572
endloop
endfacet
facet normal -0.937413 -0.309234 0.160100
outer loop
vertex 0.993110 0.523960 0.092572
vertex 0.997253 0.504906 0.080027
vertex 0.998232 0.508983 0.093634
endloop
endfacet
facet normal -0.901212 -0.433377 0.000652
outer loop
vertex 1.004468 0.496017 0.094723
vertex 0.997241 0.511065 0.107684
vertex 0.998232 0.508983 0.093634
endloop
endfacet
facet normal -0.917828 -0.357261 0.173079
outer loop
vertex 0.998232 0.508983 0.093634
vertex 0.997253 0.504906 0.080027
vertex 1.002952 0.491182 0.081920
endloop
endfacet
facet normal -0.879430 -0.401490 0.255751
outer loop
vertex 0.998232 0.508983 0.093634
vertex 1.002952 0.491182 0.081920
vertex 1.004468 0.496017 0.094723
endloop
endfacet
facet normal -0.965190 -0.253154 0.065744
outer loop
vertex 0.993110 0.523960 0.092572
vertex 0.993284 0.519434 0.077699
vertex 0.997253 0.504906 0.080027
endloop
endfacet
facet normal -0.951181 -0.226215 0.209955
outer loop
vertex 0.993284 0.519434 0.077699
vertex 0.995423 0.500255 0.066725
vertex 0.997253 0.504906 0.080027
endloop
endfacet
facet normal -0.906962 -0.342873 0.244657
outer loop
vertex 1.002952 0.491182 0.081920
vertex 0.997253 0.504906 0.080027
vertex 0.995423 0.500255 0.066725
endloop
endfacet
facet normal -0.981941 -0.163741 0.094762
outer loop
vertex 0.993284 0.519434 0.077699
vertex 0.992817 0.514543 0.064409
vertex 0.995423 0.500255 0.066725
endloop
endfacet
facet normal -0.908056 -0.337016 0.248704
outer loop
vertex 1.002952 0.491182 0.081920
vertex 0.995423 0.500255 0.066725
vertex 1.000956 0.486727 0.068596
endloop
endfacet
facet normal -0.926797 -0.372955 0.044182
outer loop
vertex 1.000956 0.486727 0.068596
vertex 0.995423 0.500255 0.066725
vertex 0.996235 0.496651 0.053335
endloop
endfacet
facet normal -0.983400 -0.181124 -0.010883
outer loop
vertex 0.992817 0.514543 0.064409
vertex 0.996235 0.496651 0.053335
vertex 0.995423 0.500255 0.066725
endloop
endfacet
facet normal -0.994092 -0.050275 -0.096195
outer loop
vertex 0.992817 0.514543 0.064409
vertex 0.993738 0.524316 0.049783
vertex 0.994232 0.510776 0.051755
endloop
endfacet
facet normal -0.995706 -0.034641 -0.085845
outer loop
vertex 0.992817 0.514543 0.064409
vertex 0.992618 0.528153 0.061226
vertex 0.993738 0.524316 0.049783
endloop
endfacet
facet normal -0.986843 -0.147384 -0.066478
outer loop
vertex 0.992817 0.514543 0.064409
vertex 0.994232 0.510776 0.051755
vertex 0.996235 0.496651 0.053335
endloop
endfacet
facet normal -0.999626 -0.008553 0.025975
outer loop
vertex 0.992817 0.514543 0.064409
vertex 0.992891 0.534264 0.073744
vertex 0.992618 0.528153 0.061226
endloop
endfacet
facet normal -0.999044 -0.015579 0.040840
outer loop
vertex 0.992817 0.514543 0.064409
vertex 0.993284 0.519434 0.077699
vertex 0.992891 0.534264 0.073744
endloop
endfacet
facet normal -0.994144 0.024019 -0.105360
outer loop
vertex 0.993738 0.524316 0.049783
vertex 0.992618 0.528153 0.061226
vertex 0.993846 0.539455 0.052215
endloop
endfacet
facet normal -0.995660 0.090339 -0.022383
outer loop
vertex 0.992891 0.534264 0.073744
vertex 0.993846 0.539455 0.052215
vertex 0.992618 0.528153 0.061226
endloop
endfacet
facet normal -0.999620 -0.027375 -0.003360
outer loop
vertex 0.992891 0.534264 0.073744
vertex 0.993284 0.519434 0.077699
vertex 0.993110 0.523960 0.092572
endloop
endfacet
facet normal -0.992822 0.099678 0.066101
outer loop
vertex 0.992891 0.534264 0.073744
vertex 0.993110 0.523960 0.092572
vertex 0.994807 0.541960 0.090916
endloop
endfacet
facet normal -0.821038 -0.543834 0.173609
outer loop
vertex 1.004468 0.496017 0.094723
vertex 1.004698 0.499643 0.107170
vertex 0.997241 0.511065 0.107684
endloop
endfacet
facet normal -0.849735 0.525230 0.045638
outer loop
vertex 1.003688 0.554547 0.111412
vertex 0.994807 0.541960 0.090916
vertex 0.995408 0.541325 0.109413
endloop
endfacet
facet normal -0.725632 -0.656905 0.204778
outer loop
vertex 1.014349 0.485407 0.095701
vertex 1.004698 0.499643 0.107170
vertex 1.004468 0.496017 0.094723
endloop
endfacet
facet normal -0.988643 -0.144728 -0.040487
outer loop
vertex 0.994232 0.510776 0.051755
vertex 0.997279 0.493228 0.040078
vertex 0.996235 0.496651 0.053335
endloop
endfacet
facet normal -0.990018 -0.024780 -0.138747
outer loop
vertex 0.999622 0.508731 0.025719
vertex 1.001574 0.511432 0.011308
vertex 1.002077 0.494623 0.010721
endloop
endfacet
facet normal -0.994086 0.021642 -0.106415
outer loop
vertex 0.999014 0.534807 0.025450
vertex 0.999510 0.546979 0.023292
vertex 1.000633 0.545030 0.012405
endloop
endfacet
facet normal -0.945241 0.056266 -0.321488
outer loop
vertex 0.994834 0.551223 0.037783
vertex 1.000456 0.562594 0.023243
vertex 0.999510 0.546979 0.023292
endloop
endfacet
facet normal -0.955204 0.136458 -0.262610
outer loop
vertex 0.994834 0.551223 0.037783
vertex 0.996845 0.565628 0.037954
vertex 1.000456 0.562594 0.023243
endloop
endfacet
facet normal -0.969444 0.027930 -0.243719
outer loop
vertex 1.000610 0.578300 0.024430
vertex 1.000456 0.562594 0.023243
vertex 0.996845 0.565628 0.037954
endloop
endfacet
facet normal 0.012069 0.024138 -0.999636
outer loop
vertex 1.042577 0.550442 0.026808
vertex 1.028125 0.549137 0.026602
vertex 1.028508 0.564310 0.026973
endloop
endfacet
facet normal 0.018787 0.030950 -0.999344
outer loop
vertex 1.042577 0.550442 0.026808
vertex 1.028508 0.564310 0.026973
vertex 1.042708 0.565958 0.027291
endloop
endfacet
facet normal -0.941888 0.133752 0.308151
outer loop
vertex 0.997429 0.559081 0.059270
vertex 1.002031 0.564991 0.070771
vertex 1.001416 0.576437 0.063923
endloop
endfacet
facet normal 0.947599 -0.013599 -0.319172
outer loop
vertex 1.058522 0.524604 0.030761
vertex 1.059329 0.540899 0.032463
vertex 1.063209 0.540910 0.043982
endloop
endfacet
facet normal 0.997424 -0.043415 -0.057100
outer loop
vertex 1.059329 0.540899 0.032463
vertex 1.058522 0.524604 0.030761
vertex 1.057552 0.522072 0.015743
endloop
endfacet
facet normal 0.996181 -0.018198 -0.085391
outer loop
vertex 1.059329 0.540899 0.032463
vertex 1.057552 0.522072 0.015743
vertex 1.057858 0.536335 0.016274
endloop
endfacet
facet normal 0.997386 -0.044524 -0.056917
outer loop
vertex 1.057809 0.509669 0.029946
vertex 1.057552 0.522072 0.015743
vertex 1.058522 0.524604 0.030761
endloop
endfacet
facet normal 0.950421 -0.028475 -0.309658
outer loop
vertex 1.058522 0.524604 0.030761
vertex 1.062380 0.511011 0.043852
vertex 1.057809 0.509669 0.029946
endloop
endfacet
facet normal 0.940248 -0.056495 -0.335770
outer loop
vertex 1.058522 0.524604 0.030761
vertex 1.063353 0.525938 0.044065
vertex 1.062380 0.511011 0.043852
endloop
endfacet
facet normal 0.939692 0.007141 -0.341946
outer loop
vertex 1.058522 0.524604 0.030761
vertex 1.063209 0.540910 0.043982
vertex 1.063353 0.525938 0.044065
endloop
endfacet
facet normal 0.938403 -0.187287 -0.290386
outer loop
vertex 1.057809 0.509669 0.029946
vertex 1.062380 0.511011 0.043852
vertex 1.059380 0.496362 0.043605
endloop
endfacet
facet normal 0.999159 -0.020174 -0.035704
outer loop
vertex 1.057809 0.509669 0.029946
vertex 1.057245 0.507810 0.015214
vertex 1.057552 0.522072 0.015743
endloop
endfacet
facet normal 0.982864 -0.062097 -0.173555
outer loop
vertex 1.057809 0.509669 0.029946
vertex 1.059380 0.496362 0.043605
vertex 1.056799 0.495009 0.029472
endloop
endfacet
facet normal 0.997262 -0.067759 -0.029628
outer loop
vertex 1.056799 0.495009 0.029472
vertex 1.057245 0.507810 0.015214
vertex 1.057809 0.509669 0.029946
endloop
endfacet
facet normal 0.070294 0.034492 -0.996930
outer loop
vertex 1.044576 0.520518 0.014771
vertex 1.044067 0.507450 0.014283
vertex 1.031682 0.520580 0.013864
endloop
endfacet
facet normal -0.494666 -0.868933 0.016123
outer loop
vertex 1.014521 0.471315 0.026328
vertex 1.002582 0.477811 0.010129
vertex 1.015384 0.470536 0.010821
endloop
endfacet
facet normal 0.896823 -0.424915 -0.123106
outer loop
vertex 1.056799 0.495009 0.029472
vertex 1.059380 0.496362 0.043605
vertex 1.053055 0.482837 0.044211
endloop
endfacet
facet normal 0.603924 -0.758515 0.244810
outer loop
vertex 1.049004 0.484799 0.060284
vertex 1.041761 0.473673 0.043678
vertex 1.053055 0.482837 0.044211
endloop
endfacet
facet normal 0.636919 -0.739555 0.217699
outer loop
vertex 1.049004 0.484799 0.060284
vertex 1.038360 0.475420 0.059563
vertex 1.041761 0.473673 0.043678
endloop
endfacet
facet normal 0.071624 0.038498 -0.996688
outer loop
vertex 1.031301 0.533550 0.014290
vertex 1.017636 0.526482 0.013035
vertex 1.029389 0.547825 0.014704
endloop
endfacet
facet normal 0.070294 0.034809 -0.996919
outer loop
vertex 1.044576 0.520518 0.014771
vertex 1.031682 0.520580 0.013864
vertex 1.031301 0.533550 0.014290
endloop
endfacet
endsolid Exported from Blender-4.0.2
