solid Exported from Blender-4.0.2
facet normal -0.683190 -0.482650 -0.547997
outer loop
vertex 1.022435 0.371749 0.622185
vertex 1.028612 0.380452 0.606819
vertex 1.032287 0.369323 0.612039
endloop
endfacet
facet normal 0.082651 -0.400700 -0.912474
outer loop
vertex 1.028612 0.380452 0.606819
vertex 1.047575 0.370650 0.612841
vertex 1.032287 0.369323 0.612039
endloop
endfacet
facet normal 0.404160 -0.590864 -0.698236
outer loop
vertex 1.047575 0.370650 0.612841
vertex 1.055881 0.384711 0.605750
vertex 1.060799 0.373983 0.617675
endloop
endfacet
facet normal 0.116473 -0.501223 -0.857443
outer loop
vertex 1.047575 0.370650 0.612841
vertex 1.044132 0.382954 0.605181
vertex 1.055881 0.384711 0.605750
endloop
endfacet
facet normal -0.004201 -0.529351 -0.848393
outer loop
vertex 1.028612 0.380452 0.606819
vertex 1.044132 0.382954 0.605181
vertex 1.047575 0.370650 0.612841
endloop
endfacet
facet normal 0.974218 -0.190520 -0.120835
outer loop
vertex 1.063489 0.389613 0.614719
vertex 1.063318 0.378419 0.630990
vertex 1.060799 0.373983 0.617675
endloop
endfacet
facet normal 0.801145 -0.241432 -0.547611
outer loop
vertex 1.060799 0.373983 0.617675
vertex 1.055881 0.384711 0.605750
vertex 1.063489 0.389613 0.614719
endloop
endfacet
facet normal 0.120885 0.106438 0.986944
outer loop
vertex 1.050308 0.407909 0.670606
vertex 1.036925 0.393863 0.673760
vertex 1.051574 0.392841 0.672076
endloop
endfacet
facet normal 0.167928 0.060933 0.983914
outer loop
vertex 1.050308 0.407909 0.670606
vertex 1.029797 0.407824 0.674112
vertex 1.036925 0.393863 0.673760
endloop
endfacet
facet normal 0.018406 -0.015811 0.999705
outer loop
vertex 1.029797 0.407824 0.674112
vertex 1.022756 0.391914 0.673990
vertex 1.036925 0.393863 0.673760
endloop
endfacet
facet normal 0.049752 -0.029676 0.998321
outer loop
vertex 1.029797 0.407824 0.674112
vertex 1.018194 0.403911 0.674574
vertex 1.022756 0.391914 0.673990
endloop
endfacet
facet normal -0.310344 -0.163594 0.936442
outer loop
vertex 1.018194 0.403911 0.674574
vertex 1.013352 0.390618 0.670647
vertex 1.022756 0.391914 0.673990
endloop
endfacet
facet normal -0.657264 -0.614030 0.437003
outer loop
vertex 1.013352 0.390618 0.670647
vertex 1.003321 0.396757 0.664186
vertex 1.010931 0.387563 0.662713
endloop
endfacet
facet normal -0.195343 -0.211748 0.957603
outer loop
vertex 1.018194 0.403911 0.674574
vertex 1.008318 0.399975 0.671689
vertex 1.013352 0.390618 0.670647
endloop
endfacet
facet normal -0.659365 -0.423888 0.620932
outer loop
vertex 1.013352 0.390618 0.670647
vertex 1.008318 0.399975 0.671689
vertex 1.003321 0.396757 0.664186
endloop
endfacet
facet normal -0.570386 -0.436159 0.696006
outer loop
vertex 1.003321 0.396757 0.664186
vertex 1.001717 0.411054 0.671831
vertex 0.995145 0.406016 0.663288
endloop
endfacet
facet normal -0.669960 -0.407133 0.620803
outer loop
vertex 1.003321 0.396757 0.664186
vertex 1.008318 0.399975 0.671689
vertex 1.001717 0.411054 0.671831
endloop
endfacet
facet normal -0.743346 -0.636419 0.205930
outer loop
vertex 1.003026 0.393857 0.654159
vertex 1.003321 0.396757 0.664186
vertex 0.995145 0.406016 0.663288
endloop
endfacet
facet normal -0.736938 -0.643253 0.207720
outer loop
vertex 1.003026 0.393857 0.654159
vertex 1.010931 0.387563 0.662713
vertex 1.003321 0.396757 0.664186
endloop
endfacet
facet normal -0.717297 -0.694481 0.056403
outer loop
vertex 0.996028 0.399865 0.639138
vertex 1.005463 0.390428 0.642932
vertex 1.003026 0.393857 0.654159
endloop
endfacet
facet normal -0.671888 -0.736419 0.079075
outer loop
vertex 1.010931 0.387563 0.662713
vertex 1.003026 0.393857 0.654159
vertex 1.005463 0.390428 0.642932
endloop
endfacet
facet normal -0.706170 -0.706520 0.046400
outer loop
vertex 0.996028 0.399865 0.639138
vertex 1.003026 0.393857 0.654159
vertex 0.994084 0.402629 0.651640
endloop
endfacet
facet normal -0.712791 -0.653410 0.254921
outer loop
vertex 1.003026 0.393857 0.654159
vertex 0.995145 0.406016 0.663288
vertex 0.994084 0.402629 0.651640
endloop
endfacet
facet normal -0.722457 -0.690242 0.040260
outer loop
vertex 0.986160 0.410015 0.636075
vertex 0.996028 0.399865 0.639138
vertex 0.994084 0.402629 0.651640
endloop
endfacet
facet normal -0.716270 -0.696999 0.033905
outer loop
vertex 0.986160 0.410015 0.636075
vertex 0.994084 0.402629 0.651640
vertex 0.984312 0.412567 0.649498
endloop
endfacet
facet normal -0.716443 -0.649699 0.254167
outer loop
vertex 0.984312 0.412567 0.649498
vertex 0.994084 0.402629 0.651640
vertex 0.995145 0.406016 0.663288
endloop
endfacet
facet normal -0.695021 -0.709972 -0.113519
outer loop
vertex 0.996028 0.399865 0.639138
vertex 0.986160 0.410015 0.636075
vertex 0.990519 0.407860 0.622865
endloop
endfacet
facet normal -0.830504 -0.524133 -0.188542
outer loop
vertex 0.986160 0.410015 0.636075
vertex 0.983073 0.421190 0.618607
vertex 0.990519 0.407860 0.622865
endloop
endfacet
facet normal -0.784310 -0.576163 -0.229986
outer loop
vertex 0.986160 0.410015 0.636075
vertex 0.977884 0.422696 0.632530
vertex 0.983073 0.421190 0.618607
endloop
endfacet
facet normal -0.836002 -0.548621 -0.010791
outer loop
vertex 0.984312 0.412567 0.649498
vertex 0.977884 0.422696 0.632530
vertex 0.986160 0.410015 0.636075
endloop
endfacet
facet normal -0.708748 -0.691600 -0.139165
outer loop
vertex 0.990519 0.407860 0.622865
vertex 1.004610 0.394612 0.616939
vertex 0.999656 0.397851 0.626073
endloop
endfacet
facet normal -0.716730 -0.616760 -0.325430
outer loop
vertex 0.990519 0.407860 0.622865
vertex 0.997917 0.405161 0.611687
vertex 1.004610 0.394612 0.616939
endloop
endfacet
facet normal -0.755847 -0.540330 -0.369783
outer loop
vertex 0.997917 0.405161 0.611687
vertex 0.990519 0.407860 0.622865
vertex 0.983073 0.421190 0.618607
endloop
endfacet
facet normal -0.720095 -0.687481 -0.093986
outer loop
vertex 0.996028 0.399865 0.639138
vertex 0.990519 0.407860 0.622865
vertex 0.999656 0.397851 0.626073
endloop
endfacet
facet normal -0.719044 -0.688645 -0.093507
outer loop
vertex 1.009327 0.387224 0.629970
vertex 0.996028 0.399865 0.639138
vertex 0.999656 0.397851 0.626073
endloop
endfacet
facet normal -0.706969 -0.693763 -0.137432
outer loop
vertex 1.004610 0.394612 0.616939
vertex 1.009327 0.387224 0.629970
vertex 0.999656 0.397851 0.626073
endloop
endfacet
facet normal -0.750253 -0.653690 -0.099046
outer loop
vertex 1.004610 0.394612 0.616939
vertex 1.016337 0.381353 0.615618
vertex 1.009327 0.387224 0.629970
endloop
endfacet
facet normal -0.731503 -0.677091 -0.080319
outer loop
vertex 1.016337 0.381353 0.615618
vertex 1.018719 0.376552 0.634397
vertex 1.009327 0.387224 0.629970
endloop
endfacet
facet normal -0.738399 -0.672202 -0.053955
outer loop
vertex 1.005463 0.390428 0.642932
vertex 1.009327 0.387224 0.629970
vertex 1.018719 0.376552 0.634397
endloop
endfacet
facet normal -0.700243 -0.713167 -0.032463
outer loop
vertex 1.009327 0.387224 0.629970
vertex 1.005463 0.390428 0.642932
vertex 0.996028 0.399865 0.639138
endloop
endfacet
facet normal -0.706856 -0.585647 -0.396702
outer loop
vertex 1.004610 0.394612 0.616939
vertex 1.012175 0.391754 0.607679
vertex 1.016337 0.381353 0.615618
endloop
endfacet
facet normal -0.458846 -0.681304 -0.570338
outer loop
vertex 1.022435 0.371749 0.622185
vertex 1.016337 0.381353 0.615618
vertex 1.028612 0.380452 0.606819
endloop
endfacet
facet normal -0.475457 -0.646044 -0.597133
outer loop
vertex 1.012175 0.391754 0.607679
vertex 1.028612 0.380452 0.606819
vertex 1.016337 0.381353 0.615618
endloop
endfacet
facet normal -0.832409 -0.553005 -0.035797
outer loop
vertex 1.016337 0.381353 0.615618
vertex 1.022435 0.371749 0.622185
vertex 1.018719 0.376552 0.634397
endloop
endfacet
facet normal -0.384907 -0.500798 -0.775272
outer loop
vertex 1.012175 0.391754 0.607679
vertex 1.024953 0.392288 0.600990
vertex 1.028612 0.380452 0.606819
endloop
endfacet
facet normal -0.338062 -0.542601 -0.768959
outer loop
vertex 1.020790 0.404352 0.595002
vertex 1.012175 0.391754 0.607679
vertex 1.007409 0.403255 0.601659
endloop
endfacet
facet normal -0.381115 -0.513209 -0.769005
outer loop
vertex 1.020790 0.404352 0.595002
vertex 1.024953 0.392288 0.600990
vertex 1.012175 0.391754 0.607679
endloop
endfacet
facet normal -0.729840 -0.529050 -0.432942
outer loop
vertex 1.004610 0.394612 0.616939
vertex 1.007409 0.403255 0.601659
vertex 1.012175 0.391754 0.607679
endloop
endfacet
facet normal -0.080072 -0.512239 -0.855102
outer loop
vertex 1.024953 0.392288 0.600990
vertex 1.035816 0.407662 0.590763
vertex 1.040223 0.395273 0.597772
endloop
endfacet
facet normal -0.139213 -0.478401 -0.867037
outer loop
vertex 1.024953 0.392288 0.600990
vertex 1.020790 0.404352 0.595002
vertex 1.035816 0.407662 0.590763
endloop
endfacet
facet normal -0.022265 -0.447233 -0.894140
outer loop
vertex 1.024953 0.392288 0.600990
vertex 1.044132 0.382954 0.605181
vertex 1.028612 0.380452 0.606819
endloop
endfacet
facet normal -0.074048 -0.531131 -0.844048
outer loop
vertex 1.024953 0.392288 0.600990
vertex 1.040223 0.395273 0.597772
vertex 1.044132 0.382954 0.605181
endloop
endfacet
facet normal -0.051813 -0.537419 -0.841722
outer loop
vertex 1.051577 0.409994 0.587674
vertex 1.054990 0.396446 0.596114
vertex 1.040223 0.395273 0.597772
endloop
endfacet
facet normal -0.053362 -0.527049 -0.848158
outer loop
vertex 1.054990 0.396446 0.596114
vertex 1.044132 0.382954 0.605181
vertex 1.040223 0.395273 0.597772
endloop
endfacet
facet normal -0.090935 -0.514677 -0.852548
outer loop
vertex 1.051577 0.409994 0.587674
vertex 1.040223 0.395273 0.597772
vertex 1.035816 0.407662 0.590763
endloop
endfacet
facet normal -0.109622 -0.439821 -0.891370
outer loop
vertex 1.046171 0.423627 0.581612
vertex 1.051577 0.409994 0.587674
vertex 1.035816 0.407662 0.590763
endloop
endfacet
facet normal 0.814209 -0.122358 -0.567531
outer loop
vertex 1.051577 0.409994 0.587674
vertex 1.055807 0.429989 0.589432
vertex 1.061439 0.418945 0.599893
endloop
endfacet
facet normal 0.818316 -0.140975 -0.557211
outer loop
vertex 1.054990 0.396446 0.596114
vertex 1.051577 0.409994 0.587674
vertex 1.061439 0.418945 0.599893
endloop
endfacet
facet normal 0.657095 -0.073042 -0.750261
outer loop
vertex 1.051577 0.409994 0.587674
vertex 1.046171 0.423627 0.581612
vertex 1.055807 0.429989 0.589432
endloop
endfacet
facet normal 0.611013 -0.084176 -0.787132
outer loop
vertex 1.052390 0.442400 0.584432
vertex 1.046171 0.423627 0.581612
vertex 1.041264 0.436672 0.576408
endloop
endfacet
facet normal 0.669558 -0.111501 -0.734343
outer loop
vertex 1.052390 0.442400 0.584432
vertex 1.055807 0.429989 0.589432
vertex 1.046171 0.423627 0.581612
endloop
endfacet
facet normal -0.040134 -0.477176 -0.877891
outer loop
vertex 1.046171 0.423627 0.581612
vertex 1.035816 0.407662 0.590763
vertex 1.030499 0.419972 0.584315
endloop
endfacet
facet normal -0.067022 -0.391345 -0.917800
outer loop
vertex 1.041264 0.436672 0.576408
vertex 1.046171 0.423627 0.581612
vertex 1.030499 0.419972 0.584315
endloop
endfacet
facet normal 0.628933 -0.154163 -0.762022
outer loop
vertex 1.041264 0.436672 0.576408
vertex 1.050197 0.455919 0.579887
vertex 1.052390 0.442400 0.584432
endloop
endfacet
facet normal 0.576389 -0.121438 -0.808102
outer loop
vertex 1.041264 0.436672 0.576408
vertex 1.037619 0.450600 0.571715
vertex 1.050197 0.455919 0.579887
endloop
endfacet
facet normal 0.013431 -0.434950 -0.900355
outer loop
vertex 1.041264 0.436672 0.576408
vertex 1.030499 0.419972 0.584315
vertex 1.025319 0.432501 0.578185
endloop
endfacet
facet normal -0.020625 -0.324089 -0.945802
outer loop
vertex 1.037619 0.450600 0.571715
vertex 1.041264 0.436672 0.576408
vertex 1.025319 0.432501 0.578185
endloop
endfacet
facet normal 0.569262 -0.090696 -0.817138
outer loop
vertex 1.047723 0.471149 0.576473
vertex 1.050197 0.455919 0.579887
vertex 1.037619 0.450600 0.571715
endloop
endfacet
facet normal 0.095183 -0.391824 -0.915103
outer loop
vertex 1.037619 0.450600 0.571715
vertex 1.025319 0.432501 0.578185
vertex 1.021619 0.445613 0.572186
endloop
endfacet
facet normal 0.108783 -0.433510 -0.894559
outer loop
vertex 1.037619 0.450600 0.571715
vertex 1.021619 0.445613 0.572186
vertex 1.017144 0.458140 0.565571
endloop
endfacet
facet normal 0.180808 -0.277809 -0.943467
outer loop
vertex 1.037619 0.450600 0.571715
vertex 1.017144 0.458140 0.565571
vertex 1.033835 0.465213 0.566687
endloop
endfacet
facet normal 0.604495 -0.114703 -0.788308
outer loop
vertex 1.047723 0.471149 0.576473
vertex 1.037619 0.450600 0.571715
vertex 1.033835 0.465213 0.566687
endloop
endfacet
facet normal 0.978092 0.120880 -0.169480
outer loop
vertex 1.050197 0.455919 0.579887
vertex 1.047723 0.471149 0.576473
vertex 1.050224 0.470804 0.590660
endloop
endfacet
facet normal 0.789169 0.601427 -0.124492
outer loop
vertex 1.050224 0.470804 0.590660
vertex 1.047723 0.471149 0.576473
vertex 1.040229 0.482551 0.584050
endloop
endfacet
facet normal 0.239293 0.641583 -0.728773
outer loop
vertex 1.040229 0.482551 0.584050
vertex 1.047723 0.471149 0.576473
vertex 1.033835 0.465213 0.566687
endloop
endfacet
facet normal 0.793665 0.437351 -0.422871
outer loop
vertex 1.050224 0.470804 0.590660
vertex 1.040229 0.482551 0.584050
vertex 1.046772 0.480295 0.593997
endloop
endfacet
facet normal 0.708094 0.627703 -0.323406
outer loop
vertex 1.046772 0.480295 0.593997
vertex 1.040229 0.482551 0.584050
vertex 1.035453 0.493607 0.595052
endloop
endfacet
facet normal 0.262124 0.735246 -0.625063
outer loop
vertex 1.035453 0.493607 0.595052
vertex 1.040229 0.482551 0.584050
vertex 1.027173 0.478104 0.573344
endloop
endfacet
facet normal 0.393325 0.574102 -0.718124
outer loop
vertex 1.040229 0.482551 0.584050
vertex 1.033835 0.465213 0.566687
vertex 1.027173 0.478104 0.573344
endloop
endfacet
facet normal -0.086316 0.630849 -0.771089
outer loop
vertex 1.027173 0.478104 0.573344
vertex 1.012411 0.469727 0.568143
vertex 1.007610 0.480814 0.577751
endloop
endfacet
facet normal 0.040296 0.474827 -0.879156
outer loop
vertex 1.033835 0.465213 0.566687
vertex 1.012411 0.469727 0.568143
vertex 1.027173 0.478104 0.573344
endloop
endfacet
facet normal -0.083409 0.640025 -0.763813
outer loop
vertex 1.027173 0.478104 0.573344
vertex 1.007610 0.480814 0.577751
vertex 1.021353 0.488961 0.583077
endloop
endfacet
facet normal 0.295299 0.720631 -0.627287
outer loop
vertex 1.035453 0.493607 0.595052
vertex 1.027173 0.478104 0.573344
vertex 1.021353 0.488961 0.583077
endloop
endfacet
facet normal 0.241244 0.774632 -0.584591
outer loop
vertex 1.035453 0.493607 0.595052
vertex 1.021353 0.488961 0.583077
vertex 1.015221 0.499960 0.595121
endloop
endfacet
facet normal -0.047306 0.725473 -0.686623
outer loop
vertex 1.002895 0.491491 0.587022
vertex 1.015221 0.499960 0.595121
vertex 1.021353 0.488961 0.583077
endloop
endfacet
facet normal -0.077573 0.633919 -0.769499
outer loop
vertex 1.002895 0.491491 0.587022
vertex 1.021353 0.488961 0.583077
vertex 1.007610 0.480814 0.577751
endloop
endfacet
facet normal -0.322805 0.698868 -0.638264
outer loop
vertex 0.997662 0.499141 0.598045
vertex 1.002895 0.491491 0.587022
vertex 0.989379 0.485365 0.587150
endloop
endfacet
facet normal -0.137716 0.781897 -0.608007
outer loop
vertex 0.997662 0.499141 0.598045
vertex 1.015221 0.499960 0.595121
vertex 1.002895 0.491491 0.587022
endloop
endfacet
facet normal -0.304463 0.544302 -0.781689
outer loop
vertex 0.987792 0.476378 0.582381
vertex 1.002895 0.491491 0.587022
vertex 1.007610 0.480814 0.577751
endloop
endfacet
facet normal -0.228951 0.487534 -0.842551
outer loop
vertex 0.987792 0.476378 0.582381
vertex 0.989379 0.485365 0.587150
vertex 1.002895 0.491491 0.587022
endloop
endfacet
facet normal -0.405016 0.704462 -0.582834
outer loop
vertex 0.997662 0.499141 0.598045
vertex 0.989379 0.485365 0.587150
vertex 0.984803 0.492553 0.599018
endloop
endfacet
facet normal -0.395645 0.484041 -0.780493
outer loop
vertex 0.977046 0.477195 0.588335
vertex 0.989379 0.485365 0.587150
vertex 0.987792 0.476378 0.582381
endloop
endfacet
facet normal -0.487184 0.650987 -0.582123
outer loop
vertex 0.984803 0.492553 0.599018
vertex 0.989379 0.485365 0.587150
vertex 0.977046 0.477195 0.588335
endloop
endfacet
facet normal -0.425866 0.380592 -0.820846
outer loop
vertex 0.977046 0.477195 0.588335
vertex 0.987792 0.476378 0.582381
vertex 0.982037 0.464538 0.579877
endloop
endfacet
facet normal -0.538609 0.310910 -0.783094
outer loop
vertex 0.977046 0.477195 0.588335
vertex 0.982037 0.464538 0.579877
vertex 0.967019 0.466741 0.591081
endloop
endfacet
facet normal -0.679469 0.514251 -0.523325
outer loop
vertex 0.972725 0.484298 0.600925
vertex 0.977046 0.477195 0.588335
vertex 0.967019 0.466741 0.591081
endloop
endfacet
facet normal -0.529412 0.648153 -0.547376
outer loop
vertex 0.984803 0.492553 0.599018
vertex 0.977046 0.477195 0.588335
vertex 0.972725 0.484298 0.600925
endloop
endfacet
facet normal -0.608712 0.529238 -0.591080
outer loop
vertex 0.972725 0.484298 0.600925
vertex 0.967019 0.466741 0.591081
vertex 0.961157 0.474196 0.603793
endloop
endfacet
facet normal -0.637025 0.587953 -0.498508
outer loop
vertex 0.969363 0.491458 0.613666
vertex 0.972725 0.484298 0.600925
vertex 0.961157 0.474196 0.603793
endloop
endfacet
facet normal -0.585224 0.631130 -0.509104
outer loop
vertex 0.980877 0.499842 0.610824
vertex 0.972725 0.484298 0.600925
vertex 0.969363 0.491458 0.613666
endloop
endfacet
facet normal -0.524013 0.635750 -0.566773
outer loop
vertex 0.980877 0.499842 0.610824
vertex 0.984803 0.492553 0.599018
vertex 0.972725 0.484298 0.600925
endloop
endfacet
facet normal -0.554832 0.809836 -0.190598
outer loop
vertex 0.981369 0.502249 0.624566
vertex 0.969363 0.491458 0.613666
vertex 0.970601 0.495535 0.627385
endloop
endfacet
facet normal -0.603274 0.788967 -0.116585
outer loop
vertex 0.981369 0.502249 0.624566
vertex 0.980877 0.499842 0.610824
vertex 0.969363 0.491458 0.613666
endloop
endfacet
facet normal -0.671427 0.724726 -0.154784
outer loop
vertex 0.970601 0.495535 0.627385
vertex 0.969363 0.491458 0.613666
vertex 0.958032 0.481816 0.617672
endloop
endfacet
facet normal -0.662571 0.583536 -0.469559
outer loop
vertex 0.969363 0.491458 0.613666
vertex 0.961157 0.474196 0.603793
vertex 0.958032 0.481816 0.617672
endloop
endfacet
facet normal -0.845434 0.524822 -0.099011
outer loop
vertex 0.960003 0.487656 0.631798
vertex 0.958032 0.481816 0.617672
vertex 0.949649 0.469684 0.624946
endloop
endfacet
facet normal -0.638887 0.738326 -0.216097
outer loop
vertex 0.970601 0.495535 0.627385
vertex 0.958032 0.481816 0.617672
vertex 0.960003 0.487656 0.631798
endloop
endfacet
facet normal -0.813376 0.245941 -0.527193
outer loop
vertex 0.958032 0.481816 0.617672
vertex 0.956460 0.461183 0.610472
vertex 0.949649 0.469684 0.624946
endloop
endfacet
facet normal -0.934244 0.178847 -0.308546
outer loop
vertex 0.958032 0.481816 0.617672
vertex 0.961157 0.474196 0.603793
vertex 0.956460 0.461183 0.610472
endloop
endfacet
facet normal -0.724432 -0.646488 -0.239273
outer loop
vertex 0.962591 0.450545 0.620652
vertex 0.956460 0.461183 0.610472
vertex 0.966066 0.454641 0.599064
endloop
endfacet
facet normal -0.807409 -0.279279 -0.519706
outer loop
vertex 0.956460 0.461183 0.610472
vertex 0.967019 0.466741 0.591081
vertex 0.966066 0.454641 0.599064
endloop
endfacet
facet normal -0.885070 0.084522 -0.457719
outer loop
vertex 0.956460 0.461183 0.610472
vertex 0.961157 0.474196 0.603793
vertex 0.967019 0.466741 0.591081
endloop
endfacet
facet normal -0.815205 -0.569693 -0.104360
outer loop
vertex 0.956460 0.461183 0.610472
vertex 0.962591 0.450545 0.620652
vertex 0.955892 0.457747 0.633666
endloop
endfacet
facet normal -0.850967 -0.516127 -0.097301
outer loop
vertex 0.956460 0.461183 0.610472
vertex 0.955892 0.457747 0.633666
vertex 0.949649 0.469684 0.624946
endloop
endfacet
facet normal -0.818185 -0.564583 -0.108718
outer loop
vertex 0.962241 0.447331 0.639977
vertex 0.955892 0.457747 0.633666
vertex 0.962591 0.450545 0.620652
endloop
endfacet
facet normal -0.882915 -0.345606 0.317834
outer loop
vertex 0.955892 0.457747 0.633666
vertex 0.962241 0.447331 0.639977
vertex 0.964009 0.455008 0.653236
endloop
endfacet
facet normal -0.921988 -0.298106 0.247126
outer loop
vertex 0.950922 0.478729 0.640434
vertex 0.955892 0.457747 0.633666
vertex 0.956840 0.466750 0.648063
endloop
endfacet
facet normal -0.866773 -0.395179 0.304200
outer loop
vertex 0.955892 0.457747 0.633666
vertex 0.964009 0.455008 0.653236
vertex 0.956840 0.466750 0.648063
endloop
endfacet
facet normal -0.920914 -0.298844 0.250220
outer loop
vertex 0.950922 0.478729 0.640434
vertex 0.949649 0.469684 0.624946
vertex 0.955892 0.457747 0.633666
endloop
endfacet
facet normal -0.869847 -0.367696 0.328887
outer loop
vertex 0.968534 0.436358 0.644353
vertex 0.964009 0.455008 0.653236
vertex 0.962241 0.447331 0.639977
endloop
endfacet
facet normal -0.882405 -0.358960 0.304153
outer loop
vertex 0.968534 0.436358 0.644353
vertex 0.970570 0.442364 0.657348
vertex 0.964009 0.455008 0.653236
endloop
endfacet
facet normal -0.608665 -0.022203 0.793117
outer loop
vertex 0.956840 0.466750 0.648063
vertex 0.964009 0.455008 0.653236
vertex 0.974407 0.463797 0.661462
endloop
endfacet
facet normal -0.594682 -0.047588 0.802552
outer loop
vertex 0.970570 0.442364 0.657348
vertex 0.974407 0.463797 0.661462
vertex 0.964009 0.455008 0.653236
endloop
endfacet
facet normal -0.838517 -0.432583 0.331302
outer loop
vertex 0.970570 0.442364 0.657348
vertex 0.968534 0.436358 0.644353
vertex 0.975756 0.424376 0.646987
endloop
endfacet
facet normal -0.886076 -0.395093 0.242426
outer loop
vertex 0.970570 0.442364 0.657348
vertex 0.975756 0.424376 0.646987
vertex 0.977468 0.429015 0.660805
endloop
endfacet
facet normal -0.576060 -0.087198 0.812743
outer loop
vertex 0.980755 0.450511 0.665441
vertex 0.970570 0.442364 0.657348
vertex 0.977468 0.429015 0.660805
endloop
endfacet
facet normal -0.598440 -0.046386 0.799824
outer loop
vertex 0.970570 0.442364 0.657348
vertex 0.980755 0.450511 0.665441
vertex 0.974407 0.463797 0.661462
endloop
endfacet
facet normal -0.621815 -0.073087 0.779746
outer loop
vertex 0.980755 0.450511 0.665441
vertex 0.977468 0.429015 0.660805
vertex 0.987008 0.437041 0.669165
endloop
endfacet
facet normal -0.244030 0.151526 0.957857
outer loop
vertex 0.987008 0.437041 0.669165
vertex 0.994379 0.458502 0.667648
vertex 0.980755 0.450511 0.665441
endloop
endfacet
facet normal -0.251503 0.165429 0.953614
outer loop
vertex 0.994379 0.458502 0.667648
vertex 0.974407 0.463797 0.661462
vertex 0.980755 0.450511 0.665441
endloop
endfacet
facet normal -0.259785 0.136910 0.955912
outer loop
vertex 0.994379 0.458502 0.667648
vertex 0.988592 0.472287 0.664101
vertex 0.974407 0.463797 0.661462
endloop
endfacet
facet normal -0.135643 0.193100 0.971758
outer loop
vertex 0.988592 0.472287 0.664101
vertex 0.994379 0.458502 0.667648
vertex 1.008686 0.466398 0.668076
endloop
endfacet
facet normal -0.192907 0.134956 0.971892
outer loop
vertex 0.987008 0.437041 0.669165
vertex 0.999994 0.444448 0.670714
vertex 0.994379 0.458502 0.667648
endloop
endfacet
facet normal -0.120557 0.165375 0.978835
outer loop
vertex 0.999994 0.444448 0.670714
vertex 1.008686 0.466398 0.668076
vertex 0.994379 0.458502 0.667648
endloop
endfacet
facet normal -0.318828 0.225557 0.920583
outer loop
vertex 1.023993 0.488533 0.667954
vertex 1.008686 0.466398 0.668076
vertex 1.027687 0.471976 0.673290
endloop
endfacet
facet normal -0.286004 0.081827 0.954728
outer loop
vertex 1.027687 0.471976 0.673290
vertex 1.008686 0.466398 0.668076
vertex 1.013089 0.451568 0.670666
endloop
endfacet
facet normal -0.077485 0.149155 0.985773
outer loop
vertex 0.999994 0.444448 0.670714
vertex 1.013089 0.451568 0.670666
vertex 1.008686 0.466398 0.668076
endloop
endfacet
facet normal -0.210656 0.151003 0.965827
outer loop
vertex 1.023993 0.488533 0.667954
vertex 1.003949 0.480974 0.664764
vertex 1.008686 0.466398 0.668076
endloop
endfacet
facet normal -0.141315 0.175459 0.974292
outer loop
vertex 0.988592 0.472287 0.664101
vertex 1.008686 0.466398 0.668076
vertex 1.003949 0.480974 0.664764
endloop
endfacet
facet normal -0.275078 0.351817 0.894739
outer loop
vertex 1.017036 0.502536 0.660309
vertex 1.003949 0.480974 0.664764
vertex 1.023993 0.488533 0.667954
endloop
endfacet
facet normal -0.120812 0.270653 0.955066
outer loop
vertex 1.017036 0.502536 0.660309
vertex 0.998261 0.494819 0.660121
vertex 1.003949 0.480974 0.664764
endloop
endfacet
facet normal -0.179987 0.245490 0.952543
outer loop
vertex 0.998261 0.494819 0.660121
vertex 0.988592 0.472287 0.664101
vertex 1.003949 0.480974 0.664764
endloop
endfacet
facet normal -0.293027 0.456666 0.839995
outer loop
vertex 0.982566 0.485471 0.659728
vertex 0.998261 0.494819 0.660121
vertex 0.991155 0.505922 0.651606
endloop
endfacet
facet normal 0.007441 0.611527 0.791188
outer loop
vertex 1.009511 0.510782 0.647677
vertex 0.991155 0.505922 0.651606
vertex 0.998261 0.494819 0.660121
endloop
endfacet
facet normal -0.167286 0.240667 0.956083
outer loop
vertex 0.998261 0.494819 0.660121
vertex 0.982566 0.485471 0.659728
vertex 0.988592 0.472287 0.664101
endloop
endfacet
facet normal -0.297636 0.708544 0.639827
outer loop
vertex 1.009511 0.510782 0.647677
vertex 0.998261 0.494819 0.660121
vertex 1.017036 0.502536 0.660309
endloop
endfacet
facet normal 0.292013 0.871162 0.394722
outer loop
vertex 1.009511 0.510782 0.647677
vertex 1.017036 0.502536 0.660309
vertex 1.032985 0.501976 0.649746
endloop
endfacet
facet normal 0.296534 0.878491 0.374595
outer loop
vertex 1.009511 0.510782 0.647677
vertex 1.032985 0.501976 0.649746
vertex 1.023678 0.509936 0.638446
endloop
endfacet
facet normal 0.085078 0.995598 0.039320
outer loop
vertex 1.008579 0.511571 0.629718
vertex 1.009511 0.510782 0.647677
vertex 1.023678 0.509936 0.638446
endloop
endfacet
facet normal -0.244488 0.968079 0.055218
outer loop
vertex 1.008579 0.511571 0.629718
vertex 0.991155 0.505922 0.651606
vertex 1.009511 0.510782 0.647677
endloop
endfacet
facet normal -0.110225 0.993852 -0.010476
outer loop
vertex 1.000400 0.510522 0.616254
vertex 1.008579 0.511571 0.629718
vertex 1.020668 0.512757 0.615039
endloop
endfacet
facet normal -0.277122 0.956242 0.093838
outer loop
vertex 1.008579 0.511571 0.629718
vertex 1.000400 0.510522 0.616254
vertex 0.991554 0.507295 0.623015
endloop
endfacet
facet normal -0.255759 0.966168 0.033260
outer loop
vertex 1.008579 0.511571 0.629718
vertex 0.991554 0.507295 0.623015
vertex 0.991275 0.506726 0.637398
endloop
endfacet
facet normal 0.150205 0.985794 -0.075164
outer loop
vertex 1.008579 0.511571 0.629718
vertex 1.023678 0.509936 0.638446
vertex 1.033062 0.507499 0.625238
endloop
endfacet
facet normal -0.247512 0.967453 0.052653
outer loop
vertex 1.008579 0.511571 0.629718
vertex 0.991275 0.506726 0.637398
vertex 0.991155 0.505922 0.651606
endloop
endfacet
facet normal 0.202287 0.948640 0.243231
outer loop
vertex 1.008579 0.511571 0.629718
vertex 1.033062 0.507499 0.625238
vertex 1.020668 0.512757 0.615039
endloop
endfacet
facet normal -0.440482 0.897357 0.026954
outer loop
vertex 0.981369 0.502249 0.624566
vertex 0.991275 0.506726 0.637398
vertex 0.991554 0.507295 0.623015
endloop
endfacet
facet normal -0.551574 0.833044 0.042482
outer loop
vertex 0.991275 0.506726 0.637398
vertex 0.976902 0.496411 0.653056
vertex 0.991155 0.505922 0.651606
endloop
endfacet
facet normal -0.424072 0.884706 0.193540
outer loop
vertex 0.991275 0.506726 0.637398
vertex 0.974434 0.498060 0.640111
vertex 0.976902 0.496411 0.653056
endloop
endfacet
facet normal -0.452326 0.891029 0.038319
outer loop
vertex 0.981369 0.502249 0.624566
vertex 0.974434 0.498060 0.640111
vertex 0.991275 0.506726 0.637398
endloop
endfacet
facet normal -0.540799 0.815293 0.206963
outer loop
vertex 0.963095 0.488556 0.647921
vertex 0.976902 0.496411 0.653056
vertex 0.974434 0.498060 0.640111
endloop
endfacet
facet normal -0.199435 0.432888 0.879110
outer loop
vertex 0.982566 0.485471 0.659728
vertex 0.991155 0.505922 0.651606
vertex 0.976902 0.496411 0.653056
endloop
endfacet
facet normal -0.467277 0.271251 0.841472
outer loop
vertex 0.982566 0.485471 0.659728
vertex 0.976902 0.496411 0.653056
vertex 0.963095 0.488556 0.647921
endloop
endfacet
facet normal -0.610611 0.788552 0.073083
outer loop
vertex 0.960003 0.487656 0.631798
vertex 0.963095 0.488556 0.647921
vertex 0.974434 0.498060 0.640111
endloop
endfacet
facet normal -0.656721 0.749429 0.084109
outer loop
vertex 0.960003 0.487656 0.631798
vertex 0.950922 0.478729 0.640434
vertex 0.963095 0.488556 0.647921
endloop
endfacet
facet normal -0.419574 0.423882 0.802671
outer loop
vertex 0.982566 0.485471 0.659728
vertex 0.963095 0.488556 0.647921
vertex 0.967844 0.476674 0.656678
endloop
endfacet
facet normal -0.617615 0.182138 0.765099
outer loop
vertex 0.963095 0.488556 0.647921
vertex 0.950922 0.478729 0.640434
vertex 0.956840 0.466750 0.648063
endloop
endfacet
facet normal -0.712633 0.208777 0.669751
outer loop
vertex 0.963095 0.488556 0.647921
vertex 0.956840 0.466750 0.648063
vertex 0.967844 0.476674 0.656678
endloop
endfacet
facet normal -0.292727 0.198320 0.935404
outer loop
vertex 0.988592 0.472287 0.664101
vertex 0.967844 0.476674 0.656678
vertex 0.974407 0.463797 0.661462
endloop
endfacet
facet normal -0.298731 0.174655 0.938219
outer loop
vertex 0.988592 0.472287 0.664101
vertex 0.982566 0.485471 0.659728
vertex 0.967844 0.476674 0.656678
endloop
endfacet
facet normal -0.607978 -0.014959 0.793813
outer loop
vertex 0.956840 0.466750 0.648063
vertex 0.974407 0.463797 0.661462
vertex 0.967844 0.476674 0.656678
endloop
endfacet
facet normal -0.530643 0.847555 -0.008337
outer loop
vertex 0.981369 0.502249 0.624566
vertex 0.970601 0.495535 0.627385
vertex 0.974434 0.498060 0.640111
endloop
endfacet
facet normal -0.591616 0.806013 0.018271
outer loop
vertex 0.960003 0.487656 0.631798
vertex 0.974434 0.498060 0.640111
vertex 0.970601 0.495535 0.627385
endloop
endfacet
facet normal 0.561020 0.778948 -0.280173
outer loop
vertex 1.028594 0.502969 0.603697
vertex 1.020668 0.512757 0.615039
vertex 1.033062 0.507499 0.625238
endloop
endfacet
facet normal 0.125821 0.792851 -0.596286
outer loop
vertex 1.008392 0.507395 0.605319
vertex 1.020668 0.512757 0.615039
vertex 1.028594 0.502969 0.603697
endloop
endfacet
facet normal -0.123475 0.926594 -0.355215
outer loop
vertex 1.000400 0.510522 0.616254
vertex 1.020668 0.512757 0.615039
vertex 1.008392 0.507395 0.605319
endloop
endfacet
facet normal 0.526933 0.803094 -0.278176
outer loop
vertex 1.028594 0.502969 0.603697
vertex 1.033062 0.507499 0.625238
vertex 1.040078 0.498742 0.613247
endloop
endfacet
facet normal 0.652806 0.713437 -0.254660
outer loop
vertex 1.043718 0.488857 0.602932
vertex 1.035453 0.493607 0.595052
vertex 1.028594 0.502969 0.603697
endloop
endfacet
facet normal 0.232194 0.746219 -0.623894
outer loop
vertex 1.035453 0.493607 0.595052
vertex 1.015221 0.499960 0.595121
vertex 1.028594 0.502969 0.603697
endloop
endfacet
facet normal 0.143013 0.842883 -0.518744
outer loop
vertex 1.008392 0.507395 0.605319
vertex 1.028594 0.502969 0.603697
vertex 1.015221 0.499960 0.595121
endloop
endfacet
facet normal 0.604311 0.670929 -0.429724
outer loop
vertex 1.043718 0.488857 0.602932
vertex 1.028594 0.502969 0.603697
vertex 1.040078 0.498742 0.613247
endloop
endfacet
facet normal 0.849163 0.495008 -0.184091
outer loop
vertex 1.050069 0.480841 0.610673
vertex 1.046772 0.480295 0.593997
vertex 1.043718 0.488857 0.602932
endloop
endfacet
facet normal 0.697475 0.621348 -0.357009
outer loop
vertex 1.046772 0.480295 0.593997
vertex 1.035453 0.493607 0.595052
vertex 1.043718 0.488857 0.602932
endloop
endfacet
facet normal 0.847932 0.498982 -0.178964
outer loop
vertex 1.050069 0.480841 0.610673
vertex 1.043718 0.488857 0.602932
vertex 1.040078 0.498742 0.613247
endloop
endfacet
facet normal 0.860172 0.475027 -0.185616
outer loop
vertex 1.050069 0.480841 0.610673
vertex 1.051651 0.474092 0.600732
vertex 1.046772 0.480295 0.593997
endloop
endfacet
facet normal 0.916630 0.383081 -0.114187
outer loop
vertex 1.051651 0.474092 0.600732
vertex 1.050069 0.480841 0.610673
vertex 1.055296 0.470193 0.616912
endloop
endfacet
facet normal 0.845520 0.499164 -0.189557
outer loop
vertex 1.050069 0.480841 0.610673
vertex 1.040078 0.498742 0.613247
vertex 1.047691 0.489262 0.622241
endloop
endfacet
facet normal 0.925543 0.370254 -0.079263
outer loop
vertex 1.050069 0.480841 0.610673
vertex 1.047691 0.489262 0.622241
vertex 1.053190 0.477138 0.629820
endloop
endfacet
facet normal 0.911086 0.406239 -0.069940
outer loop
vertex 1.050069 0.480841 0.610673
vertex 1.053190 0.477138 0.629820
vertex 1.055296 0.470193 0.616912
endloop
endfacet
facet normal 0.835445 0.508793 0.207752
outer loop
vertex 1.047691 0.489262 0.622241
vertex 1.046449 0.482672 0.643375
vertex 1.053190 0.477138 0.629820
endloop
endfacet
facet normal 0.897857 0.296544 0.325446
outer loop
vertex 1.053190 0.477138 0.629820
vertex 1.046449 0.482672 0.643375
vertex 1.049265 0.467870 0.649093
endloop
endfacet
facet normal 0.985239 0.151833 0.079063
outer loop
vertex 1.055296 0.470193 0.616912
vertex 1.053190 0.477138 0.629820
vertex 1.054891 0.463109 0.635561
endloop
endfacet
facet normal 0.924015 0.235334 0.301355
outer loop
vertex 1.053190 0.477138 0.629820
vertex 1.049265 0.467870 0.649093
vertex 1.054891 0.463109 0.635561
endloop
endfacet
facet normal 0.877421 0.308764 0.367148
outer loop
vertex 1.049265 0.467870 0.649093
vertex 1.046449 0.482672 0.643375
vertex 1.038565 0.487851 0.657861
endloop
endfacet
facet normal 0.886482 0.334322 0.319967
outer loop
vertex 1.049265 0.467870 0.649093
vertex 1.038565 0.487851 0.657861
vertex 1.042443 0.472008 0.663670
endloop
endfacet
facet normal 0.935816 0.227873 0.268928
outer loop
vertex 1.056274 0.449603 0.640182
vertex 1.049265 0.467870 0.649093
vertex 1.051656 0.453400 0.653034
endloop
endfacet
facet normal 0.904305 0.244693 0.349797
outer loop
vertex 1.045707 0.455598 0.666876
vertex 1.051656 0.453400 0.653034
vertex 1.049265 0.467870 0.649093
endloop
endfacet
facet normal 0.902516 0.248256 0.351900
outer loop
vertex 1.045707 0.455598 0.666876
vertex 1.049265 0.467870 0.649093
vertex 1.042443 0.472008 0.663670
endloop
endfacet
facet normal 0.927457 0.202522 0.314339
outer loop
vertex 1.056274 0.449603 0.640182
vertex 1.054891 0.463109 0.635561
vertex 1.049265 0.467870 0.649093
endloop
endfacet
facet normal 0.963846 0.169143 0.205892
outer loop
vertex 1.054891 0.463109 0.635561
vertex 1.056274 0.449603 0.640182
vertex 1.059903 0.444118 0.627699
endloop
endfacet
facet normal 0.966176 0.085685 0.243232
outer loop
vertex 1.059787 0.429728 0.633230
vertex 1.059903 0.444118 0.627699
vertex 1.056274 0.449603 0.640182
endloop
endfacet
facet normal 0.945074 0.119059 0.304402
outer loop
vertex 1.054700 0.436806 0.650074
vertex 1.056274 0.449603 0.640182
vertex 1.051656 0.453400 0.653034
endloop
endfacet
facet normal 0.963040 0.080309 0.257106
outer loop
vertex 1.059787 0.429728 0.633230
vertex 1.056274 0.449603 0.640182
vertex 1.054700 0.436806 0.650074
endloop
endfacet
facet normal 0.962452 0.063845 0.263838
outer loop
vertex 1.054700 0.436806 0.650074
vertex 1.059611 0.414135 0.637646
vertex 1.059787 0.429728 0.633230
endloop
endfacet
facet normal 0.980044 0.043841 0.193884
outer loop
vertex 1.062869 0.408808 0.622382
vertex 1.059787 0.429728 0.633230
vertex 1.059611 0.414135 0.637646
endloop
endfacet
facet normal 0.988979 0.081636 0.123518
outer loop
vertex 1.062869 0.408808 0.622382
vertex 1.062224 0.424139 0.617412
vertex 1.059787 0.429728 0.633230
endloop
endfacet
facet normal 0.989607 0.044582 0.136714
outer loop
vertex 1.062224 0.424139 0.617412
vertex 1.059903 0.444118 0.627699
vertex 1.059787 0.429728 0.633230
endloop
endfacet
facet normal 0.980270 0.058692 0.188747
outer loop
vertex 1.059766 0.398728 0.641632
vertex 1.062869 0.408808 0.622382
vertex 1.059611 0.414135 0.637646
endloop
endfacet
facet normal 0.970590 0.069405 0.230517
outer loop
vertex 1.055486 0.419420 0.653423
vertex 1.059766 0.398728 0.641632
vertex 1.059611 0.414135 0.637646
endloop
endfacet
facet normal 0.970554 0.087145 0.224568
outer loop
vertex 1.054700 0.436806 0.650074
vertex 1.055486 0.419420 0.653423
vertex 1.059611 0.414135 0.637646
endloop
endfacet
facet normal 0.977172 0.093393 0.190823
outer loop
vertex 1.055486 0.419420 0.653423
vertex 1.056418 0.403538 0.656423
vertex 1.059766 0.398728 0.641632
endloop
endfacet
facet normal 0.930819 0.119821 0.345281
outer loop
vertex 1.056418 0.403538 0.656423
vertex 1.055486 0.419420 0.653423
vertex 1.049316 0.423258 0.668724
endloop
endfacet
facet normal 0.931092 0.109145 0.348073
outer loop
vertex 1.049316 0.423258 0.668724
vertex 1.055486 0.419420 0.653423
vertex 1.054700 0.436806 0.650074
endloop
endfacet
facet normal 0.924675 0.104648 0.366093
outer loop
vertex 1.056418 0.403538 0.656423
vertex 1.049316 0.423258 0.668724
vertex 1.050308 0.407909 0.670606
endloop
endfacet
facet normal 0.433058 0.137215 0.890861
outer loop
vertex 1.050308 0.407909 0.670606
vertex 1.049316 0.423258 0.668724
vertex 1.035900 0.423405 0.675223
endloop
endfacet
facet normal 0.435946 0.041562 0.899012
outer loop
vertex 1.033747 0.438740 0.675558
vertex 1.035900 0.423405 0.675223
vertex 1.049316 0.423258 0.668724
endloop
endfacet
facet normal 0.931961 0.106641 0.346521
outer loop
vertex 1.049316 0.423258 0.668724
vertex 1.054700 0.436806 0.650074
vertex 1.048024 0.439104 0.667322
endloop
endfacet
facet normal 0.494057 0.116521 0.861586
outer loop
vertex 1.033747 0.438740 0.675558
vertex 1.049316 0.423258 0.668724
vertex 1.048024 0.439104 0.667322
endloop
endfacet
facet normal 0.495747 0.092985 0.863475
outer loop
vertex 1.045707 0.455598 0.666876
vertex 1.033747 0.438740 0.675558
vertex 1.048024 0.439104 0.667322
endloop
endfacet
facet normal 0.917640 0.138979 0.372320
outer loop
vertex 1.051656 0.453400 0.653034
vertex 1.045707 0.455598 0.666876
vertex 1.048024 0.439104 0.667322
endloop
endfacet
facet normal 0.931814 0.109190 0.346120
outer loop
vertex 1.051656 0.453400 0.653034
vertex 1.048024 0.439104 0.667322
vertex 1.054700 0.436806 0.650074
endloop
endfacet
facet normal -0.184178 -0.009521 0.982847
outer loop
vertex 1.031240 0.455129 0.675247
vertex 1.017762 0.436727 0.672543
vertex 1.033747 0.438740 0.675558
endloop
endfacet
facet normal 0.496445 0.092316 0.863145
outer loop
vertex 1.045707 0.455598 0.666876
vertex 1.031240 0.455129 0.675247
vertex 1.033747 0.438740 0.675558
endloop
endfacet
facet normal -0.186049 0.005745 0.982524
outer loop
vertex 1.033747 0.438740 0.675558
vertex 1.017762 0.436727 0.672543
vertex 1.023508 0.422187 0.673716
endloop
endfacet
facet normal -0.116932 -0.038101 0.992409
outer loop
vertex 1.033747 0.438740 0.675558
vertex 1.023508 0.422187 0.673716
vertex 1.035900 0.423405 0.675223
endloop
endfacet
facet normal -0.118313 -0.024438 0.992676
outer loop
vertex 1.029797 0.407824 0.674112
vertex 1.035900 0.423405 0.675223
vertex 1.023508 0.422187 0.673716
endloop
endfacet
facet normal -0.008372 0.077121 0.996987
outer loop
vertex 1.005966 0.430404 0.672933
vertex 1.023508 0.422187 0.673716
vertex 1.017762 0.436727 0.672543
endloop
endfacet
facet normal 0.026557 0.039172 0.998880
outer loop
vertex 1.018194 0.403911 0.674574
vertex 1.029797 0.407824 0.674112
vertex 1.023508 0.422187 0.673716
endloop
endfacet
facet normal 0.010124 0.043958 0.998982
outer loop
vertex 1.018194 0.403911 0.674574
vertex 1.023508 0.422187 0.673716
vertex 1.012240 0.416758 0.674069
endloop
endfacet
facet normal -0.007167 0.079681 0.996795
outer loop
vertex 1.005966 0.430404 0.672933
vertex 1.012240 0.416758 0.674069
vertex 1.023508 0.422187 0.673716
endloop
endfacet
facet normal -0.173160 0.063367 0.982853
outer loop
vertex 1.005966 0.430404 0.672933
vertex 0.987008 0.437041 0.669165
vertex 0.994169 0.423588 0.671294
endloop
endfacet
facet normal -0.146169 0.015135 0.989144
outer loop
vertex 1.012240 0.416758 0.674069
vertex 1.005966 0.430404 0.672933
vertex 0.994169 0.423588 0.671294
endloop
endfacet
facet normal -0.165585 0.084833 0.982540
outer loop
vertex 1.005966 0.430404 0.672933
vertex 0.999994 0.444448 0.670714
vertex 0.987008 0.437041 0.669165
endloop
endfacet
facet normal -0.066107 0.128243 0.989537
outer loop
vertex 1.013089 0.451568 0.670666
vertex 0.999994 0.444448 0.670714
vertex 1.005966 0.430404 0.672933
endloop
endfacet
facet normal -0.029494 0.116271 0.992779
outer loop
vertex 1.013089 0.451568 0.670666
vertex 1.005966 0.430404 0.672933
vertex 1.017762 0.436727 0.672543
endloop
endfacet
facet normal -0.565191 -0.307561 0.765483
outer loop
vertex 1.001717 0.411054 0.671831
vertex 0.994169 0.423588 0.671294
vertex 0.986006 0.416816 0.662546
endloop
endfacet
facet normal -0.625798 -0.214420 0.749934
outer loop
vertex 0.987008 0.437041 0.669165
vertex 0.986006 0.416816 0.662546
vertex 0.994169 0.423588 0.671294
endloop
endfacet
facet normal -0.174737 -0.063140 0.982589
outer loop
vertex 1.012240 0.416758 0.674069
vertex 0.994169 0.423588 0.671294
vertex 1.001717 0.411054 0.671831
endloop
endfacet
facet normal -0.570995 -0.435363 0.696006
outer loop
vertex 1.001717 0.411054 0.671831
vertex 0.986006 0.416816 0.662546
vertex 0.995145 0.406016 0.663288
endloop
endfacet
facet normal -0.739649 -0.605727 0.293283
outer loop
vertex 0.984312 0.412567 0.649498
vertex 0.995145 0.406016 0.663288
vertex 0.986006 0.416816 0.662546
endloop
endfacet
facet normal -0.515312 -0.243394 0.821713
outer loop
vertex 0.987008 0.437041 0.669165
vertex 0.977468 0.429015 0.660805
vertex 0.986006 0.416816 0.662546
endloop
endfacet
facet normal -0.805539 -0.524412 0.275862
outer loop
vertex 0.986006 0.416816 0.662546
vertex 0.977468 0.429015 0.660805
vertex 0.975756 0.424376 0.646987
endloop
endfacet
facet normal -0.250700 -0.078246 0.964897
outer loop
vertex 1.008318 0.399975 0.671689
vertex 1.018194 0.403911 0.674574
vertex 1.012240 0.416758 0.674069
endloop
endfacet
facet normal -0.152830 -0.103651 0.982802
outer loop
vertex 1.008318 0.399975 0.671689
vertex 1.012240 0.416758 0.674069
vertex 1.001717 0.411054 0.671831
endloop
endfacet
facet normal -0.252368 0.042792 0.966685
outer loop
vertex 1.031240 0.455129 0.675247
vertex 1.013089 0.451568 0.670666
vertex 1.017762 0.436727 0.672543
endloop
endfacet
facet normal 0.485680 0.201254 0.850654
outer loop
vertex 1.027687 0.471976 0.673290
vertex 1.031240 0.455129 0.675247
vertex 1.045707 0.455598 0.666876
endloop
endfacet
facet normal -0.255034 0.058329 0.965171
outer loop
vertex 1.027687 0.471976 0.673290
vertex 1.013089 0.451568 0.670666
vertex 1.031240 0.455129 0.675247
endloop
endfacet
facet normal 0.167489 -0.135233 0.976555
outer loop
vertex 1.050308 0.407909 0.670606
vertex 1.035900 0.423405 0.675223
vertex 1.029797 0.407824 0.674112
endloop
endfacet
facet normal 0.924547 0.129607 0.358350
outer loop
vertex 1.057502 0.387845 0.659302
vertex 1.056418 0.403538 0.656423
vertex 1.050308 0.407909 0.670606
endloop
endfacet
facet normal 0.977593 0.069980 0.198531
outer loop
vertex 1.056418 0.403538 0.656423
vertex 1.060173 0.383480 0.645003
vertex 1.059766 0.398728 0.641632
endloop
endfacet
facet normal 0.983325 0.096240 0.154302
outer loop
vertex 1.056418 0.403538 0.656423
vertex 1.057502 0.387845 0.659302
vertex 1.060173 0.383480 0.645003
endloop
endfacet
facet normal 0.976313 0.071223 0.204303
outer loop
vertex 1.063076 0.393899 0.627498
vertex 1.059766 0.398728 0.641632
vertex 1.060173 0.383480 0.645003
endloop
endfacet
facet normal 0.976230 0.082358 0.200482
outer loop
vertex 1.059766 0.398728 0.641632
vertex 1.063076 0.393899 0.627498
vertex 1.062869 0.408808 0.622382
endloop
endfacet
facet normal 0.978381 0.059955 0.197930
outer loop
vertex 1.063076 0.393899 0.627498
vertex 1.060173 0.383480 0.645003
vertex 1.063318 0.378419 0.630990
endloop
endfacet
facet normal 0.999457 0.021290 0.025153
outer loop
vertex 1.063489 0.389613 0.614719
vertex 1.063076 0.393899 0.627498
vertex 1.063318 0.378419 0.630990
endloop
endfacet
facet normal 0.999612 0.020401 0.018987
outer loop
vertex 1.063076 0.393899 0.627498
vertex 1.063270 0.403293 0.607195
vertex 1.062869 0.408808 0.622382
endloop
endfacet
facet normal 0.999335 0.028506 0.022734
outer loop
vertex 1.063076 0.393899 0.627498
vertex 1.063489 0.389613 0.614719
vertex 1.063270 0.403293 0.607195
endloop
endfacet
facet normal 0.843722 -0.300924 -0.444498
outer loop
vertex 1.055881 0.384711 0.605750
vertex 1.054990 0.396446 0.596114
vertex 1.063270 0.403293 0.607195
endloop
endfacet
facet normal 0.834210 -0.149986 -0.530658
outer loop
vertex 1.054990 0.396446 0.596114
vertex 1.061439 0.418945 0.599893
vertex 1.063270 0.403293 0.607195
endloop
endfacet
facet normal 0.802137 -0.277878 -0.528546
outer loop
vertex 1.055881 0.384711 0.605750
vertex 1.063270 0.403293 0.607195
vertex 1.063489 0.389613 0.614719
endloop
endfacet
facet normal 0.994053 0.083911 -0.069416
outer loop
vertex 1.062224 0.424139 0.617412
vertex 1.063270 0.403293 0.607195
vertex 1.061439 0.418945 0.599893
endloop
endfacet
facet normal 0.998926 0.045243 0.009947
outer loop
vertex 1.062224 0.424139 0.617412
vertex 1.062869 0.408808 0.622382
vertex 1.063270 0.403293 0.607195
endloop
endfacet
facet normal 0.993796 0.110864 0.008913
outer loop
vertex 1.062224 0.424139 0.617412
vertex 1.060610 0.438900 0.613770
vertex 1.059903 0.444118 0.627699
endloop
endfacet
facet normal 0.993286 0.090962 -0.071477
outer loop
vertex 1.060610 0.438900 0.613770
vertex 1.062224 0.424139 0.617412
vertex 1.061439 0.418945 0.599893
endloop
endfacet
facet normal 0.979071 0.166646 -0.116830
outer loop
vertex 1.057855 0.452022 0.609400
vertex 1.060610 0.438900 0.613770
vertex 1.059732 0.434943 0.600767
endloop
endfacet
facet normal 0.980573 0.179594 -0.078885
outer loop
vertex 1.060610 0.438900 0.613770
vertex 1.057855 0.452022 0.609400
vertex 1.057900 0.457485 0.622397
endloop
endfacet
facet normal 0.989216 0.146391 -0.004631
outer loop
vertex 1.060610 0.438900 0.613770
vertex 1.057900 0.457485 0.622397
vertex 1.059903 0.444118 0.627699
endloop
endfacet
facet normal 0.988722 0.110990 -0.100545
outer loop
vertex 1.060610 0.438900 0.613770
vertex 1.061439 0.418945 0.599893
vertex 1.059732 0.434943 0.600767
endloop
endfacet
facet normal 0.981094 0.177180 -0.077859
outer loop
vertex 1.055311 0.464123 0.604878
vertex 1.057900 0.457485 0.622397
vertex 1.057855 0.452022 0.609400
endloop
endfacet
facet normal 0.982710 0.165801 -0.082404
outer loop
vertex 1.055311 0.464123 0.604878
vertex 1.055296 0.470193 0.616912
vertex 1.057900 0.457485 0.622397
endloop
endfacet
facet normal 0.962309 0.246638 0.114588
outer loop
vertex 1.055296 0.470193 0.616912
vertex 1.054891 0.463109 0.635561
vertex 1.057900 0.457485 0.622397
endloop
endfacet
facet normal 0.970327 0.199558 0.136535
outer loop
vertex 1.054891 0.463109 0.635561
vertex 1.059903 0.444118 0.627699
vertex 1.057900 0.457485 0.622397
endloop
endfacet
facet normal 0.944455 0.238951 -0.225628
outer loop
vertex 1.050224 0.470804 0.590660
vertex 1.055311 0.464123 0.604878
vertex 1.053592 0.459666 0.592962
endloop
endfacet
facet normal 0.942106 0.255682 -0.216942
outer loop
vertex 1.050224 0.470804 0.590660
vertex 1.051651 0.474092 0.600732
vertex 1.055311 0.464123 0.604878
endloop
endfacet
facet normal 0.946831 0.287727 -0.143956
outer loop
vertex 1.051651 0.474092 0.600732
vertex 1.055296 0.470193 0.616912
vertex 1.055311 0.464123 0.604878
endloop
endfacet
facet normal 0.965444 0.165614 -0.201220
outer loop
vertex 1.055311 0.464123 0.604878
vertex 1.056490 0.447376 0.596751
vertex 1.053592 0.459666 0.592962
endloop
endfacet
facet normal 0.976445 0.145899 -0.158959
outer loop
vertex 1.055311 0.464123 0.604878
vertex 1.057855 0.452022 0.609400
vertex 1.056490 0.447376 0.596751
endloop
endfacet
facet normal 0.942826 0.041778 -0.330656
outer loop
vertex 1.050197 0.455919 0.579887
vertex 1.056490 0.447376 0.596751
vertex 1.052390 0.442400 0.584432
endloop
endfacet
facet normal 0.948780 0.135786 -0.285268
outer loop
vertex 1.050197 0.455919 0.579887
vertex 1.053592 0.459666 0.592962
vertex 1.056490 0.447376 0.596751
endloop
endfacet
facet normal 0.928241 0.112752 -0.354479
outer loop
vertex 1.055807 0.429989 0.589432
vertex 1.052390 0.442400 0.584432
vertex 1.056490 0.447376 0.596751
endloop
endfacet
facet normal 0.964962 0.194867 -0.175713
outer loop
vertex 1.057855 0.452022 0.609400
vertex 1.059732 0.434943 0.600767
vertex 1.056490 0.447376 0.596751
endloop
endfacet
facet normal 0.920701 0.120139 -0.371316
outer loop
vertex 1.055807 0.429989 0.589432
vertex 1.056490 0.447376 0.596751
vertex 1.059732 0.434943 0.600767
endloop
endfacet
facet normal 0.927666 0.217824 -0.303296
outer loop
vertex 1.050197 0.455919 0.579887
vertex 1.050224 0.470804 0.590660
vertex 1.053592 0.459666 0.592962
endloop
endfacet
facet normal 0.921126 0.118550 -0.370773
outer loop
vertex 1.055807 0.429989 0.589432
vertex 1.059732 0.434943 0.600767
vertex 1.061439 0.418945 0.599893
endloop
endfacet
facet normal 0.507934 0.364802 0.780335
outer loop
vertex 1.023993 0.488533 0.667954
vertex 1.027687 0.471976 0.673290
vertex 1.042443 0.472008 0.663670
endloop
endfacet
facet normal 0.526547 0.262694 0.808542
outer loop
vertex 1.027687 0.471976 0.673290
vertex 1.045707 0.455598 0.666876
vertex 1.042443 0.472008 0.663670
endloop
endfacet
facet normal 0.533731 0.403198 0.743345
outer loop
vertex 1.023993 0.488533 0.667954
vertex 1.042443 0.472008 0.663670
vertex 1.038565 0.487851 0.657861
endloop
endfacet
facet normal 0.477511 0.591798 0.649429
outer loop
vertex 1.017036 0.502536 0.660309
vertex 1.023993 0.488533 0.667954
vertex 1.038565 0.487851 0.657861
endloop
endfacet
facet normal 0.466819 0.571932 0.674518
outer loop
vertex 1.017036 0.502536 0.660309
vertex 1.038565 0.487851 0.657861
vertex 1.032985 0.501976 0.649746
endloop
endfacet
facet normal 0.828598 0.486495 0.277033
outer loop
vertex 1.032985 0.501976 0.649746
vertex 1.038565 0.487851 0.657861
vertex 1.046449 0.482672 0.643375
endloop
endfacet
facet normal 0.838949 0.503581 0.206328
outer loop
vertex 1.047691 0.489262 0.622241
vertex 1.040511 0.495895 0.635247
vertex 1.046449 0.482672 0.643375
endloop
endfacet
facet normal 0.832731 0.508543 0.218960
outer loop
vertex 1.032985 0.501976 0.649746
vertex 1.046449 0.482672 0.643375
vertex 1.040511 0.495895 0.635247
endloop
endfacet
facet normal 0.783908 0.608711 0.122311
outer loop
vertex 1.033062 0.507499 0.625238
vertex 1.040511 0.495895 0.635247
vertex 1.047691 0.489262 0.622241
endloop
endfacet
facet normal 0.641149 0.694041 0.327468
outer loop
vertex 1.023678 0.509936 0.638446
vertex 1.040511 0.495895 0.635247
vertex 1.033062 0.507499 0.625238
endloop
endfacet
facet normal 0.641799 0.766786 0.011540
outer loop
vertex 1.023678 0.509936 0.638446
vertex 1.032985 0.501976 0.649746
vertex 1.040511 0.495895 0.635247
endloop
endfacet
facet normal 0.779994 0.625786 -0.000625
outer loop
vertex 1.033062 0.507499 0.625238
vertex 1.047691 0.489262 0.622241
vertex 1.040078 0.498742 0.613247
endloop
endfacet
facet normal 0.875458 0.408954 -0.257547
outer loop
vertex 1.051651 0.474092 0.600732
vertex 1.050224 0.470804 0.590660
vertex 1.046772 0.480295 0.593997
endloop
endfacet
facet normal -0.117268 0.928879 -0.351328
outer loop
vertex 0.992503 0.506807 0.609068
vertex 1.000400 0.510522 0.616254
vertex 1.008392 0.507395 0.605319
endloop
endfacet
facet normal -0.173735 0.768519 -0.615788
outer loop
vertex 0.992503 0.506807 0.609068
vertex 1.008392 0.507395 0.605319
vertex 0.997662 0.499141 0.598045
endloop
endfacet
facet normal -0.142246 0.752061 -0.643561
outer loop
vertex 0.997662 0.499141 0.598045
vertex 1.008392 0.507395 0.605319
vertex 1.015221 0.499960 0.595121
endloop
endfacet
facet normal -0.381092 0.922703 -0.058214
outer loop
vertex 1.000400 0.510522 0.616254
vertex 0.992503 0.506807 0.609068
vertex 0.991554 0.507295 0.623015
endloop
endfacet
facet normal -0.463111 0.611226 -0.641819
outer loop
vertex 0.980877 0.499842 0.610824
vertex 0.992503 0.506807 0.609068
vertex 0.997662 0.499141 0.598045
endloop
endfacet
facet normal -0.520059 0.851639 -0.065184
outer loop
vertex 0.980877 0.499842 0.610824
vertex 0.991554 0.507295 0.623015
vertex 0.992503 0.506807 0.609068
endloop
endfacet
facet normal -0.456455 0.879039 -0.137623
outer loop
vertex 0.980877 0.499842 0.610824
vertex 0.981369 0.502249 0.624566
vertex 0.991554 0.507295 0.623015
endloop
endfacet
facet normal -0.803781 -0.592870 -0.049417
outer loop
vertex 0.984312 0.412567 0.649498
vertex 0.975756 0.424376 0.646987
vertex 0.977884 0.422696 0.632530
endloop
endfacet
facet normal -0.848449 -0.525415 -0.063830
outer loop
vertex 0.968534 0.436358 0.644353
vertex 0.977884 0.422696 0.632530
vertex 0.975756 0.424376 0.646987
endloop
endfacet
facet normal -0.856090 -0.513680 -0.056947
outer loop
vertex 0.968534 0.436358 0.644353
vertex 0.962241 0.447331 0.639977
vertex 0.968981 0.437326 0.628901
endloop
endfacet
facet normal -0.846420 -0.529386 -0.057649
outer loop
vertex 0.968534 0.436358 0.644353
vertex 0.968981 0.437326 0.628901
vertex 0.977884 0.422696 0.632530
endloop
endfacet
facet normal -0.871455 -0.481032 -0.095785
outer loop
vertex 0.962241 0.447331 0.639977
vertex 0.962591 0.450545 0.620652
vertex 0.968981 0.437326 0.628901
endloop
endfacet
facet normal -0.795359 -0.547187 -0.260749
outer loop
vertex 0.962591 0.450545 0.620652
vertex 0.976131 0.433738 0.614621
vertex 0.968981 0.437326 0.628901
endloop
endfacet
facet normal -0.794817 -0.548229 -0.260214
outer loop
vertex 0.977884 0.422696 0.632530
vertex 0.968981 0.437326 0.628901
vertex 0.976131 0.433738 0.614621
endloop
endfacet
facet normal -0.789982 -0.519628 -0.325445
outer loop
vertex 0.962591 0.450545 0.620652
vertex 0.970216 0.446190 0.609097
vertex 0.976131 0.433738 0.614621
endloop
endfacet
facet normal -0.664225 -0.543301 -0.513448
outer loop
vertex 0.976131 0.433738 0.614621
vertex 0.970216 0.446190 0.609097
vertex 0.986080 0.441692 0.593334
endloop
endfacet
facet normal -0.728671 -0.456029 -0.510956
outer loop
vertex 0.976131 0.433738 0.614621
vertex 0.986080 0.441692 0.593334
vertex 0.988558 0.429655 0.600543
endloop
endfacet
facet normal -0.718400 -0.492437 -0.491331
outer loop
vertex 0.976131 0.433738 0.614621
vertex 0.988558 0.429655 0.600543
vertex 0.992904 0.417535 0.606336
endloop
endfacet
facet normal -0.728841 -0.537823 -0.423718
outer loop
vertex 0.976131 0.433738 0.614621
vertex 0.992904 0.417535 0.606336
vertex 0.983073 0.421190 0.618607
endloop
endfacet
facet normal -0.812954 -0.527870 -0.245885
outer loop
vertex 0.977884 0.422696 0.632530
vertex 0.976131 0.433738 0.614621
vertex 0.983073 0.421190 0.618607
endloop
endfacet
facet normal -0.626050 -0.507466 -0.592064
outer loop
vertex 0.992904 0.417535 0.606336
vertex 0.988558 0.429655 0.600543
vertex 1.000350 0.427177 0.590198
endloop
endfacet
facet normal -0.743963 -0.495346 -0.448498
outer loop
vertex 0.997917 0.405161 0.611687
vertex 0.983073 0.421190 0.618607
vertex 0.992904 0.417535 0.606336
endloop
endfacet
facet normal -0.652281 -0.507660 -0.562859
outer loop
vertex 0.997917 0.405161 0.611687
vertex 0.992904 0.417535 0.606336
vertex 1.003602 0.415420 0.595846
endloop
endfacet
facet normal -0.665065 -0.464763 -0.584537
outer loop
vertex 0.992904 0.417535 0.606336
vertex 1.000350 0.427177 0.590198
vertex 1.003602 0.415420 0.595846
endloop
endfacet
facet normal -0.571021 -0.407408 -0.712709
outer loop
vertex 0.986080 0.441692 0.593334
vertex 1.003144 0.439866 0.580706
vertex 1.000350 0.427177 0.590198
endloop
endfacet
facet normal -0.397771 -0.491804 -0.774537
outer loop
vertex 1.003144 0.439866 0.580706
vertex 1.012277 0.427975 0.583566
vertex 1.000350 0.427177 0.590198
endloop
endfacet
facet normal -0.393034 -0.506096 -0.767718
outer loop
vertex 1.016547 0.416442 0.588983
vertex 1.000350 0.427177 0.590198
vertex 1.012277 0.427975 0.583566
endloop
endfacet
facet normal -0.379807 -0.483826 -0.788453
outer loop
vertex 1.016547 0.416442 0.588983
vertex 1.003602 0.415420 0.595846
vertex 1.000350 0.427177 0.590198
endloop
endfacet
facet normal -0.630765 -0.490141 -0.601580
outer loop
vertex 0.986080 0.441692 0.593334
vertex 1.000350 0.427177 0.590198
vertex 0.988558 0.429655 0.600543
endloop
endfacet
facet normal -0.270642 -0.416603 -0.867868
outer loop
vertex 1.012277 0.427975 0.583566
vertex 1.003144 0.439866 0.580706
vertex 1.021619 0.445613 0.572186
endloop
endfacet
facet normal -0.180874 -0.491564 -0.851851
outer loop
vertex 1.030499 0.419972 0.584315
vertex 1.012277 0.427975 0.583566
vertex 1.025319 0.432501 0.578185
endloop
endfacet
facet normal -0.170823 -0.470000 -0.865979
outer loop
vertex 1.030499 0.419972 0.584315
vertex 1.016547 0.416442 0.588983
vertex 1.012277 0.427975 0.583566
endloop
endfacet
facet normal -0.200696 -0.453846 -0.868185
outer loop
vertex 1.012277 0.427975 0.583566
vertex 1.021619 0.445613 0.572186
vertex 1.025319 0.432501 0.578185
endloop
endfacet
facet normal -0.138663 -0.479940 -0.866274
outer loop
vertex 1.016547 0.416442 0.588983
vertex 1.035816 0.407662 0.590763
vertex 1.020790 0.404352 0.595002
endloop
endfacet
facet normal -0.154148 -0.509885 -0.846319
outer loop
vertex 1.016547 0.416442 0.588983
vertex 1.030499 0.419972 0.584315
vertex 1.035816 0.407662 0.590763
endloop
endfacet
facet normal -0.369492 -0.514804 -0.773597
outer loop
vertex 1.003602 0.415420 0.595846
vertex 1.016547 0.416442 0.588983
vertex 1.020790 0.404352 0.595002
endloop
endfacet
facet normal -0.398729 -0.631605 -0.664899
outer loop
vertex 0.981342 0.451067 0.583140
vertex 0.998678 0.452127 0.571737
vertex 1.003144 0.439866 0.580706
endloop
endfacet
facet normal -0.161089 -0.620251 -0.767684
outer loop
vertex 0.998678 0.452127 0.571737
vertex 1.021619 0.445613 0.572186
vertex 1.003144 0.439866 0.580706
endloop
endfacet
facet normal -0.441432 -0.753266 -0.487573
outer loop
vertex 0.981342 0.451067 0.583140
vertex 1.003144 0.439866 0.580706
vertex 0.986080 0.441692 0.593334
endloop
endfacet
facet normal -0.533863 -0.172948 -0.827695
outer loop
vertex 0.982037 0.464538 0.579877
vertex 0.998678 0.452127 0.571737
vertex 0.981342 0.451067 0.583140
endloop
endfacet
facet normal -0.729845 -0.125135 -0.672062
outer loop
vertex 0.966066 0.454641 0.599064
vertex 0.982037 0.464538 0.579877
vertex 0.981342 0.451067 0.583140
endloop
endfacet
facet normal -0.567420 -0.730282 -0.380424
outer loop
vertex 0.970216 0.446190 0.609097
vertex 0.966066 0.454641 0.599064
vertex 0.981342 0.451067 0.583140
endloop
endfacet
facet normal -0.584848 -0.714035 -0.384845
outer loop
vertex 0.970216 0.446190 0.609097
vertex 0.981342 0.451067 0.583140
vertex 0.986080 0.441692 0.593334
endloop
endfacet
facet normal -0.457466 -0.030521 -0.888703
outer loop
vertex 0.982037 0.464538 0.579877
vertex 0.997439 0.466535 0.571880
vertex 0.998678 0.452127 0.571737
endloop
endfacet
facet normal -0.311583 -0.017359 -0.950060
outer loop
vertex 0.997439 0.466535 0.571880
vertex 1.017144 0.458140 0.565571
vertex 0.998678 0.452127 0.571737
endloop
endfacet
facet normal -0.124528 -0.497742 -0.858339
outer loop
vertex 0.998678 0.452127 0.571737
vertex 1.017144 0.458140 0.565571
vertex 1.021619 0.445613 0.572186
endloop
endfacet
facet normal -0.304187 0.539484 -0.785129
outer loop
vertex 0.997439 0.466535 0.571880
vertex 0.987792 0.476378 0.582381
vertex 1.007610 0.480814 0.577751
endloop
endfacet
facet normal -0.463332 0.393178 -0.794188
outer loop
vertex 0.997439 0.466535 0.571880
vertex 0.982037 0.464538 0.579877
vertex 0.987792 0.476378 0.582381
endloop
endfacet
facet normal -0.262010 0.105898 -0.959237
outer loop
vertex 0.997439 0.466535 0.571880
vertex 1.012411 0.469727 0.568143
vertex 1.017144 0.458140 0.565571
endloop
endfacet
facet normal -0.310483 0.542185 -0.780791
outer loop
vertex 0.997439 0.466535 0.571880
vertex 1.007610 0.480814 0.577751
vertex 1.012411 0.469727 0.568143
endloop
endfacet
facet normal -0.355363 -0.491211 -0.795254
outer loop
vertex 1.003602 0.415420 0.595846
vertex 1.020790 0.404352 0.595002
vertex 1.007409 0.403255 0.601659
endloop
endfacet
facet normal -0.681440 -0.478070 -0.554156
outer loop
vertex 0.997917 0.405161 0.611687
vertex 1.003602 0.415420 0.595846
vertex 1.007409 0.403255 0.601659
endloop
endfacet
facet normal -0.728766 -0.641679 -0.239057
outer loop
vertex 0.962591 0.450545 0.620652
vertex 0.966066 0.454641 0.599064
vertex 0.970216 0.446190 0.609097
endloop
endfacet
facet normal -0.791030 0.554371 -0.258735
outer loop
vertex 0.960003 0.487656 0.631798
vertex 0.949649 0.469684 0.624946
vertex 0.950922 0.478729 0.640434
endloop
endfacet
facet normal -0.582327 -0.415234 -0.698910
outer loop
vertex 0.966066 0.454641 0.599064
vertex 0.967019 0.466741 0.591081
vertex 0.982037 0.464538 0.579877
endloop
endfacet
facet normal -0.407355 0.710327 -0.574018
outer loop
vertex 0.980877 0.499842 0.610824
vertex 0.997662 0.499141 0.598045
vertex 0.984803 0.492553 0.599018
endloop
endfacet
facet normal -0.022677 0.207806 -0.977907
outer loop
vertex 1.033835 0.465213 0.566687
vertex 1.017144 0.458140 0.565571
vertex 1.012411 0.469727 0.568143
endloop
endfacet
facet normal 0.130535 -0.623231 -0.771066
outer loop
vertex 1.054990 0.396446 0.596114
vertex 1.055881 0.384711 0.605750
vertex 1.044132 0.382954 0.605181
endloop
endfacet
facet normal -0.621397 -0.627712 -0.468875
outer loop
vertex 1.004610 0.394612 0.616939
vertex 0.997917 0.405161 0.611687
vertex 1.007409 0.403255 0.601659
endloop
endfacet
facet normal -0.706070 -0.701941 0.093505
outer loop
vertex 1.010931 0.387563 0.662713
vertex 1.005463 0.390428 0.642932
vertex 1.014580 0.382002 0.648519
endloop
endfacet
facet normal -0.699677 -0.711086 0.069353
outer loop
vertex 1.005463 0.390428 0.642932
vertex 1.018719 0.376552 0.634397
vertex 1.014580 0.382002 0.648519
endloop
endfacet
facet normal 0.917455 0.114267 0.381076
outer loop
vertex 1.057502 0.387845 0.659302
vertex 1.050308 0.407909 0.670606
vertex 1.051574 0.392841 0.672076
endloop
endfacet
facet normal -0.805337 -0.524918 0.275488
outer loop
vertex 0.986006 0.416816 0.662546
vertex 0.975756 0.424376 0.646987
vertex 0.984312 0.412567 0.649498
endloop
endfacet
endsolid Exported from Blender-4.0.2
