solid Exported from Blender-4.0.2
facet normal 0.050067 -0.366355 0.929127
outer loop
vertex 0.907994 -0.044004 1.105253
vertex 0.890187 -0.045955 1.105443
vertex 0.885232 -0.059300 1.100448
endloop
endfacet
facet normal 0.065906 -0.103658 0.992427
outer loop
vertex 0.907994 -0.044004 1.105253
vertex 0.910006 -0.029206 1.106665
vertex 0.894286 -0.031549 1.107464
endloop
endfacet
facet normal 0.187914 -0.118590 0.975000
outer loop
vertex 0.925238 -0.026771 1.104025
vertex 0.910006 -0.029206 1.106665
vertex 0.907994 -0.044004 1.105253
endloop
endfacet
facet normal 0.181204 -0.340623 0.922573
outer loop
vertex 0.924238 -0.041762 1.102890
vertex 0.907994 -0.044004 1.105253
vertex 0.906559 -0.058231 1.100282
endloop
endfacet
facet normal 0.023965 -0.331905 0.943008
outer loop
vertex 0.907994 -0.044004 1.105253
vertex 0.885232 -0.059300 1.100448
vertex 0.906559 -0.058231 1.100282
endloop
endfacet
facet normal 0.154906 -0.084851 0.984279
outer loop
vertex 0.925238 -0.026771 1.104025
vertex 0.907994 -0.044004 1.105253
vertex 0.924238 -0.041762 1.102890
endloop
endfacet
facet normal 0.028829 -0.435432 0.899760
outer loop
vertex 0.892579 -0.071654 1.094234
vertex 0.906559 -0.058231 1.100282
vertex 0.885232 -0.059300 1.100448
endloop
endfacet
facet normal -0.008948 0.842382 0.538806
outer loop
vertex 0.897275 0.024488 1.059246
vertex 0.887817 0.015550 1.073063
vertex 0.903703 0.017145 1.070833
endloop
endfacet
facet normal -0.025397 -0.461220 0.886922
outer loop
vertex 0.885232 -0.059300 1.100448
vertex 0.877330 -0.070599 1.094346
vertex 0.892579 -0.071654 1.094234
endloop
endfacet
facet normal -0.063195 -0.596278 0.800286
outer loop
vertex 0.871016 -0.087771 1.081053
vertex 0.886838 -0.084329 1.084867
vertex 0.877330 -0.070599 1.094346
endloop
endfacet
facet normal -0.034433 -0.583845 0.811135
outer loop
vertex 0.886838 -0.084329 1.084867
vertex 0.892579 -0.071654 1.094234
vertex 0.877330 -0.070599 1.094346
endloop
endfacet
facet normal 0.063560 -0.611587 0.788620
outer loop
vertex 0.905926 -0.084282 1.083365
vertex 0.892579 -0.071654 1.094234
vertex 0.886838 -0.084329 1.084867
endloop
endfacet
facet normal -0.000120 -0.742108 0.670280
outer loop
vertex 0.872996 -0.097666 1.070098
vertex 0.886838 -0.084329 1.084867
vertex 0.871016 -0.087771 1.081053
endloop
endfacet
facet normal -0.005223 -0.739722 0.672892
outer loop
vertex 0.872996 -0.097666 1.070098
vertex 0.888822 -0.096476 1.071529
vertex 0.886838 -0.084329 1.084867
endloop
endfacet
facet normal 0.081736 -0.730785 0.677697
outer loop
vertex 0.886838 -0.084329 1.084867
vertex 0.888822 -0.096476 1.071529
vertex 0.905670 -0.095199 1.070874
endloop
endfacet
facet normal 0.053509 -0.752419 0.656508
outer loop
vertex 0.886838 -0.084329 1.084867
vertex 0.905670 -0.095199 1.070874
vertex 0.905926 -0.084282 1.083365
endloop
endfacet
facet normal 0.065283 -0.610422 0.789382
outer loop
vertex 0.905926 -0.084282 1.083365
vertex 0.907816 -0.071531 1.093069
vertex 0.892579 -0.071654 1.094234
endloop
endfacet
facet normal 0.176682 -0.742901 0.645663
outer loop
vertex 0.905926 -0.084282 1.083365
vertex 0.905670 -0.095199 1.070874
vertex 0.921902 -0.093055 1.068899
endloop
endfacet
facet normal 0.186674 -0.612336 0.768243
outer loop
vertex 0.922336 -0.082393 1.080883
vertex 0.907816 -0.071531 1.093069
vertex 0.905926 -0.084282 1.083365
endloop
endfacet
facet normal 0.183193 -0.737754 0.649738
outer loop
vertex 0.905926 -0.084282 1.083365
vertex 0.921902 -0.093055 1.068899
vertex 0.922336 -0.082393 1.080883
endloop
endfacet
facet normal 0.273721 -0.706547 0.652586
outer loop
vertex 0.922336 -0.082393 1.080883
vertex 0.937444 -0.090170 1.066126
vertex 0.937687 -0.079480 1.077598
endloop
endfacet
facet normal 0.249104 -0.728026 0.638691
outer loop
vertex 0.922336 -0.082393 1.080883
vertex 0.921902 -0.093055 1.068899
vertex 0.937444 -0.090170 1.066126
endloop
endfacet
facet normal 0.274494 -0.592216 0.757584
outer loop
vertex 0.937687 -0.079480 1.077598
vertex 0.922795 -0.069851 1.090521
vertex 0.922336 -0.082393 1.080883
endloop
endfacet
facet normal 0.199073 -0.601695 0.773520
outer loop
vertex 0.922336 -0.082393 1.080883
vertex 0.922795 -0.069851 1.090521
vertex 0.907816 -0.071531 1.093069
endloop
endfacet
facet normal 0.295445 -0.458666 0.838056
outer loop
vertex 0.938401 -0.053484 1.093977
vertex 0.923217 -0.056230 1.097827
vertex 0.922795 -0.069851 1.090521
endloop
endfacet
facet normal 0.183668 -0.469043 0.863866
outer loop
vertex 0.906559 -0.058231 1.100282
vertex 0.922795 -0.069851 1.090521
vertex 0.923217 -0.056230 1.097827
endloop
endfacet
facet normal 0.198634 -0.452674 0.869271
outer loop
vertex 0.906559 -0.058231 1.100282
vertex 0.907816 -0.071531 1.093069
vertex 0.922795 -0.069851 1.090521
endloop
endfacet
facet normal 0.294505 -0.457943 0.838782
outer loop
vertex 0.938401 -0.053484 1.093977
vertex 0.922795 -0.069851 1.090521
vertex 0.937388 -0.066999 1.086954
endloop
endfacet
facet normal 0.298484 -0.567873 0.767090
outer loop
vertex 0.937687 -0.079480 1.077598
vertex 0.937388 -0.066999 1.086954
vertex 0.922795 -0.069851 1.090521
endloop
endfacet
facet normal 0.344349 -0.453095 0.822270
outer loop
vertex 0.937388 -0.066999 1.086954
vertex 0.952881 -0.050363 1.089633
vertex 0.938401 -0.053484 1.093977
endloop
endfacet
facet normal 0.345495 -0.454019 0.821279
outer loop
vertex 0.937388 -0.066999 1.086954
vertex 0.951708 -0.063529 1.082848
vertex 0.952881 -0.050363 1.089633
endloop
endfacet
facet normal 0.350792 -0.556294 0.753314
outer loop
vertex 0.951708 -0.063529 1.082848
vertex 0.937388 -0.066999 1.086954
vertex 0.937687 -0.079480 1.077598
endloop
endfacet
facet normal 0.354753 -0.453076 0.817846
outer loop
vertex 0.967058 -0.047104 1.085289
vertex 0.952881 -0.050363 1.089633
vertex 0.951708 -0.063529 1.082848
endloop
endfacet
facet normal 0.337763 -0.548622 0.764807
outer loop
vertex 0.951708 -0.063529 1.082848
vertex 0.937687 -0.079480 1.077598
vertex 0.952394 -0.075865 1.073696
endloop
endfacet
facet normal 0.369672 -0.540278 0.755938
outer loop
vertex 0.965907 -0.059825 1.078552
vertex 0.951708 -0.063529 1.082848
vertex 0.952394 -0.075865 1.073696
endloop
endfacet
facet normal 0.365016 -0.461297 0.808683
outer loop
vertex 0.967058 -0.047104 1.085289
vertex 0.951708 -0.063529 1.082848
vertex 0.965907 -0.059825 1.078552
endloop
endfacet
facet normal 0.367469 -0.539025 0.757904
outer loop
vertex 0.965907 -0.059825 1.078552
vertex 0.952394 -0.075865 1.073696
vertex 0.966746 -0.071971 1.069507
endloop
endfacet
facet normal 0.363542 -0.540118 0.759018
outer loop
vertex 0.966746 -0.071971 1.069507
vertex 0.980148 -0.056198 1.074312
vertex 0.965907 -0.059825 1.078552
endloop
endfacet
facet normal 0.360674 -0.484380 0.797051
outer loop
vertex 0.965907 -0.059825 1.078552
vertex 0.980148 -0.056198 1.074312
vertex 0.981179 -0.043956 1.081285
endloop
endfacet
facet normal 0.335885 -0.464380 0.819471
outer loop
vertex 0.965907 -0.059825 1.078552
vertex 0.981179 -0.043956 1.081285
vertex 0.967058 -0.047104 1.085289
endloop
endfacet
facet normal 0.326204 -0.342734 0.880979
outer loop
vertex 0.967058 -0.047104 1.085289
vertex 0.981179 -0.043956 1.081285
vertex 0.982003 -0.030718 1.086130
endloop
endfacet
facet normal 0.287377 -0.344924 0.893556
outer loop
vertex 0.982003 -0.030718 1.086130
vertex 0.981179 -0.043956 1.081285
vertex 0.995728 -0.041073 1.077719
endloop
endfacet
facet normal 0.334343 -0.487564 0.806534
outer loop
vertex 0.981179 -0.043956 1.081285
vertex 0.980148 -0.056198 1.074312
vertex 0.995088 -0.048893 1.072535
endloop
endfacet
facet normal 0.299874 -0.544058 0.783630
outer loop
vertex 0.981179 -0.043956 1.081285
vertex 0.995088 -0.048893 1.072535
vertex 0.995728 -0.041073 1.077719
endloop
endfacet
facet normal 0.460064 -0.516461 0.722225
outer loop
vertex 0.995728 -0.041073 1.077719
vertex 0.995088 -0.048893 1.072535
vertex 1.003401 -0.044620 1.070295
endloop
endfacet
facet normal 0.553576 -0.367122 0.747513
outer loop
vertex 0.995728 -0.041073 1.077719
vertex 1.003401 -0.044620 1.070295
vertex 1.008633 -0.025242 1.075937
endloop
endfacet
facet normal 0.522070 -0.337433 0.783315
outer loop
vertex 0.996430 -0.028201 1.082796
vertex 0.995728 -0.041073 1.077719
vertex 1.008633 -0.025242 1.075937
endloop
endfacet
facet normal 0.269691 -0.366009 0.890676
outer loop
vertex 0.982003 -0.030718 1.086130
vertex 0.995728 -0.041073 1.077719
vertex 0.996430 -0.028201 1.082796
endloop
endfacet
facet normal -0.033525 0.159480 0.986632
outer loop
vertex 1.011362 -0.005136 1.079575
vertex 0.995878 -0.009472 1.079750
vertex 0.996430 -0.028201 1.082796
endloop
endfacet
facet normal 0.195059 0.163046 0.967144
outer loop
vertex 0.995878 -0.009472 1.079750
vertex 0.982003 -0.030718 1.086130
vertex 0.996430 -0.028201 1.082796
endloop
endfacet
facet normal 0.517955 -0.219842 0.826675
outer loop
vertex 0.996430 -0.028201 1.082796
vertex 1.008633 -0.025242 1.075937
vertex 1.011362 -0.005136 1.079575
endloop
endfacet
facet normal -0.058947 0.249571 0.966561
outer loop
vertex 1.011362 -0.005136 1.079575
vertex 1.011621 0.013510 1.074776
vertex 0.995878 -0.009472 1.079750
endloop
endfacet
facet normal 0.256638 0.237537 0.936863
outer loop
vertex 1.025825 -0.000246 1.074373
vertex 1.011621 0.013510 1.074776
vertex 1.011362 -0.005136 1.079575
endloop
endfacet
facet normal 0.215053 -0.202045 0.955474
outer loop
vertex 1.024616 -0.016434 1.074203
vertex 1.011362 -0.005136 1.079575
vertex 1.008633 -0.025242 1.075937
endloop
endfacet
facet normal 0.348946 -0.035945 0.936453
outer loop
vertex 1.024616 -0.016434 1.074203
vertex 1.025825 -0.000246 1.074373
vertex 1.011362 -0.005136 1.079575
endloop
endfacet
facet normal 0.375235 -0.426019 0.823229
outer loop
vertex 1.024616 -0.016434 1.074203
vertex 1.023635 -0.030203 1.067524
vertex 1.038090 -0.026839 1.062676
endloop
endfacet
facet normal 0.328739 -0.431008 0.840335
outer loop
vertex 1.008633 -0.025242 1.075937
vertex 1.023635 -0.030203 1.067524
vertex 1.024616 -0.016434 1.074203
endloop
endfacet
facet normal 0.382152 -0.418070 0.824122
outer loop
vertex 1.024616 -0.016434 1.074203
vertex 1.038090 -0.026839 1.062676
vertex 1.039364 -0.013632 1.068785
endloop
endfacet
facet normal 0.350597 -0.036055 0.935832
outer loop
vertex 1.039364 -0.013632 1.068785
vertex 1.025825 -0.000246 1.074373
vertex 1.024616 -0.016434 1.074203
endloop
endfacet
facet normal 0.423644 -0.413619 0.805881
outer loop
vertex 1.039364 -0.013632 1.068785
vertex 1.038090 -0.026839 1.062676
vertex 1.052290 -0.023011 1.057176
endloop
endfacet
facet normal 0.337898 -0.146205 0.929757
outer loop
vertex 1.053199 -0.010731 1.064213
vertex 1.039756 0.001607 1.071039
vertex 1.039364 -0.013632 1.068785
endloop
endfacet
facet normal 0.248764 -0.147973 0.957194
outer loop
vertex 1.039364 -0.013632 1.068785
vertex 1.039756 0.001607 1.071039
vertex 1.025825 -0.000246 1.074373
endloop
endfacet
facet normal 0.364403 -0.483175 0.796086
outer loop
vertex 1.039364 -0.013632 1.068785
vertex 1.052290 -0.023011 1.057176
vertex 1.053199 -0.010731 1.064213
endloop
endfacet
facet normal 0.535184 -0.449483 0.715222
outer loop
vertex 1.053199 -0.010731 1.064213
vertex 1.052290 -0.023011 1.057176
vertex 1.065738 -0.018075 1.050215
endloop
endfacet
facet normal 0.454092 -0.165196 0.875506
outer loop
vertex 1.066531 -0.006563 1.058085
vertex 1.052700 0.004083 1.067267
vertex 1.053199 -0.010731 1.064213
endloop
endfacet
facet normal 0.307047 -0.182227 0.934085
outer loop
vertex 1.053199 -0.010731 1.064213
vertex 1.052700 0.004083 1.067267
vertex 1.039756 0.001607 1.071039
endloop
endfacet
facet normal 0.485657 -0.515881 0.705695
outer loop
vertex 1.053199 -0.010731 1.064213
vertex 1.065738 -0.018075 1.050215
vertex 1.066531 -0.006563 1.058085
endloop
endfacet
facet normal 0.712016 -0.429040 0.555840
outer loop
vertex 1.077243 -0.000159 1.049306
vertex 1.066531 -0.006563 1.058085
vertex 1.065738 -0.018075 1.050215
endloop
endfacet
facet normal 0.681278 -0.127155 0.720897
outer loop
vertex 1.074585 0.013283 1.053974
vertex 1.065243 0.007519 1.061786
vertex 1.066531 -0.006563 1.058085
endloop
endfacet
facet normal 0.436521 -0.191143 0.879155
outer loop
vertex 1.066531 -0.006563 1.058085
vertex 1.065243 0.007519 1.061786
vertex 1.052700 0.004083 1.067267
endloop
endfacet
facet normal 0.671516 -0.121076 0.731031
outer loop
vertex 1.074585 0.013283 1.053974
vertex 1.066531 -0.006563 1.058085
vertex 1.077243 -0.000159 1.049306
endloop
endfacet
facet normal 0.886240 0.014459 0.463001
outer loop
vertex 1.077243 -0.000159 1.049306
vertex 1.079943 0.020721 1.043486
vertex 1.074585 0.013283 1.053974
endloop
endfacet
facet normal 0.517552 0.264195 0.813843
outer loop
vertex 1.064677 0.024917 1.056498
vertex 1.065243 0.007519 1.061786
vertex 1.074585 0.013283 1.053974
endloop
endfacet
facet normal 0.634788 0.396763 0.663041
outer loop
vertex 1.072347 0.033717 1.043889
vertex 1.064677 0.024917 1.056498
vertex 1.074585 0.013283 1.053974
endloop
endfacet
facet normal 0.685276 0.381288 0.620496
outer loop
vertex 1.072347 0.033717 1.043889
vertex 1.074585 0.013283 1.053974
vertex 1.079943 0.020721 1.043486
endloop
endfacet
facet normal 0.876098 0.020983 0.481676
outer loop
vertex 1.077243 -0.000159 1.049306
vertex 1.083173 0.007583 1.038183
vertex 1.079943 0.020721 1.043486
endloop
endfacet
facet normal 0.914415 -0.278819 0.293435
outer loop
vertex 1.076849 -0.010957 1.040274
vertex 1.083173 0.007583 1.038183
vertex 1.077243 -0.000159 1.049306
endloop
endfacet
facet normal 0.918467 -0.282019 0.277279
outer loop
vertex 1.076849 -0.010957 1.040274
vertex 1.082383 -0.003464 1.029564
vertex 1.083173 0.007583 1.038183
endloop
endfacet
facet normal 0.474177 0.577999 0.664133
outer loop
vertex 1.064677 0.024917 1.056498
vertex 1.062286 0.044745 1.040949
vertex 1.055362 0.039330 1.050605
endloop
endfacet
facet normal 0.249925 0.757002 0.603726
outer loop
vertex 1.050894 0.052760 1.035615
vertex 1.055362 0.039330 1.050605
vertex 1.062286 0.044745 1.040949
endloop
endfacet
facet normal 0.443572 0.585562 0.678499
outer loop
vertex 1.064677 0.024917 1.056498
vertex 1.072347 0.033717 1.043889
vertex 1.062286 0.044745 1.040949
endloop
endfacet
facet normal 0.060899 0.752373 0.655916
outer loop
vertex 1.041936 0.033515 1.058522
vertex 1.055362 0.039330 1.050605
vertex 1.050894 0.052760 1.035615
endloop
endfacet
facet normal 0.326089 0.657132 0.679591
outer loop
vertex 1.041936 0.033515 1.058522
vertex 1.050894 0.052760 1.035615
vertex 1.039599 0.048235 1.045410
endloop
endfacet
facet normal -0.004988 0.909978 0.414626
outer loop
vertex 1.039599 0.048235 1.045410
vertex 1.050894 0.052760 1.035615
vertex 1.039384 0.056298 1.027712
endloop
endfacet
facet normal 0.121511 0.648887 0.751119
outer loop
vertex 1.026346 0.032422 1.061215
vertex 1.039599 0.048235 1.045410
vertex 1.025829 0.046892 1.048798
endloop
endfacet
facet normal 0.080499 0.670081 0.737910
outer loop
vertex 1.026346 0.032422 1.061215
vertex 1.041936 0.033515 1.058522
vertex 1.039599 0.048235 1.045410
endloop
endfacet
facet normal -0.001596 0.931831 0.362888
outer loop
vertex 1.039599 0.048235 1.045410
vertex 1.025108 0.053818 1.031010
vertex 1.025829 0.046892 1.048798
endloop
endfacet
facet normal -0.061992 0.907974 0.414416
outer loop
vertex 1.039599 0.048235 1.045410
vertex 1.039384 0.056298 1.027712
vertex 1.025108 0.053818 1.031010
endloop
endfacet
facet normal -0.013029 0.971579 0.236357
outer loop
vertex 1.007950 0.056030 1.020972
vertex 1.012088 0.052532 1.035577
vertex 1.025108 0.053818 1.031010
endloop
endfacet
facet normal 0.034748 0.931766 0.361392
outer loop
vertex 1.025829 0.046892 1.048798
vertex 1.025108 0.053818 1.031010
vertex 1.012088 0.052532 1.035577
endloop
endfacet
facet normal -0.194667 0.939981 0.280250
outer loop
vertex 0.998636 0.047104 1.044439
vertex 1.012088 0.052532 1.035577
vertex 1.007950 0.056030 1.020972
endloop
endfacet
facet normal -0.225556 0.936973 0.266845
outer loop
vertex 0.998636 0.047104 1.044439
vertex 1.007950 0.056030 1.020972
vertex 0.989234 0.047435 1.035332
endloop
endfacet
facet normal -0.227004 0.937132 0.265051
outer loop
vertex 1.007950 0.056030 1.020972
vertex 0.985897 0.049441 1.025382
vertex 0.989234 0.047435 1.035332
endloop
endfacet
facet normal -0.217556 0.854746 0.471252
outer loop
vertex 0.985897 0.049441 1.025382
vertex 0.971805 0.038607 1.038526
vertex 0.976086 0.032809 1.051018
endloop
endfacet
facet normal -0.499134 0.801631 0.329018
outer loop
vertex 0.985897 0.049441 1.025382
vertex 0.976086 0.032809 1.051018
vertex 0.989234 0.047435 1.035332
endloop
endfacet
facet normal -0.009904 0.876214 0.481821
outer loop
vertex 0.976086 0.032809 1.051018
vertex 0.957546 0.037305 1.042461
vertex 0.962318 0.030019 1.055809
endloop
endfacet
facet normal 0.030593 0.910602 0.412150
outer loop
vertex 0.976086 0.032809 1.051018
vertex 0.971805 0.038607 1.038526
vertex 0.957546 0.037305 1.042461
endloop
endfacet
facet normal -0.001345 0.865812 0.500367
outer loop
vertex 0.962318 0.030019 1.055809
vertex 0.981076 0.025011 1.064525
vertex 0.976086 0.032809 1.051018
endloop
endfacet
facet normal -0.235596 0.801422 0.549743
outer loop
vertex 0.989234 0.047435 1.035332
vertex 0.976086 0.032809 1.051018
vertex 0.981076 0.025011 1.064525
endloop
endfacet
facet normal -0.292082 0.655020 0.696876
outer loop
vertex 0.993107 0.029469 1.065378
vertex 0.981076 0.025011 1.064525
vertex 0.981887 0.012789 1.076353
endloop
endfacet
facet normal 0.057473 0.696248 0.715497
outer loop
vertex 0.981887 0.012789 1.076353
vertex 0.981076 0.025011 1.064525
vertex 0.967008 0.022182 1.068408
endloop
endfacet
facet normal -0.322727 0.764207 0.558422
outer loop
vertex 0.993107 0.029469 1.065378
vertex 0.998636 0.047104 1.044439
vertex 0.981076 0.025011 1.064525
endloop
endfacet
facet normal -0.429645 0.770132 0.471488
outer loop
vertex 0.989234 0.047435 1.035332
vertex 0.981076 0.025011 1.064525
vertex 0.998636 0.047104 1.044439
endloop
endfacet
facet normal -0.022537 0.845130 0.534085
outer loop
vertex 0.962318 0.030019 1.055809
vertex 0.967008 0.022182 1.068408
vertex 0.981076 0.025011 1.064525
endloop
endfacet
facet normal -0.063561 0.836626 0.544074
outer loop
vertex 0.953318 0.018334 1.072726
vertex 0.967008 0.022182 1.068408
vertex 0.962318 0.030019 1.055809
endloop
endfacet
facet normal 0.029885 0.697311 0.716145
outer loop
vertex 0.967836 0.010338 1.079906
vertex 0.967008 0.022182 1.068408
vertex 0.953318 0.018334 1.072726
endloop
endfacet
facet normal 0.058930 0.697453 0.714203
outer loop
vertex 0.981887 0.012789 1.076353
vertex 0.967008 0.022182 1.068408
vertex 0.967836 0.010338 1.079906
endloop
endfacet
facet normal 0.144508 0.475356 0.867844
outer loop
vertex 0.954297 -0.006660 1.091471
vertex 0.967836 0.010338 1.079906
vertex 0.953879 0.007291 1.083899
endloop
endfacet
facet normal 0.045209 0.711639 0.701089
outer loop
vertex 0.967836 0.010338 1.079906
vertex 0.953318 0.018334 1.072726
vertex 0.953879 0.007291 1.083899
endloop
endfacet
facet normal 0.148379 0.436023 0.887619
outer loop
vertex 0.981887 0.012789 1.076353
vertex 0.967836 0.010338 1.079906
vertex 0.968171 -0.004087 1.086936
endloop
endfacet
facet normal 0.206662 0.432505 0.877628
outer loop
vertex 0.954297 -0.006660 1.091471
vertex 0.968171 -0.004087 1.086936
vertex 0.967836 0.010338 1.079906
endloop
endfacet
facet normal 0.187817 0.407718 0.893583
outer loop
vertex 0.981887 0.012789 1.076353
vertex 0.968171 -0.004087 1.086936
vertex 0.982001 -0.001939 1.083049
endloop
endfacet
facet normal 0.230816 0.226269 0.946323
outer loop
vertex 0.982001 -0.001939 1.083049
vertex 0.968171 -0.004087 1.086936
vertex 0.968281 -0.018917 1.090455
endloop
endfacet
facet normal 0.263591 0.229957 0.936824
outer loop
vertex 0.954369 -0.021568 1.095110
vertex 0.968171 -0.004087 1.086936
vertex 0.954297 -0.006660 1.091471
endloop
endfacet
facet normal 0.270555 0.224168 0.936242
outer loop
vertex 0.954369 -0.021568 1.095110
vertex 0.968281 -0.018917 1.090455
vertex 0.968171 -0.004087 1.086936
endloop
endfacet
facet normal 0.243403 0.215792 0.945616
outer loop
vertex 0.982001 -0.001939 1.083049
vertex 0.968281 -0.018917 1.090455
vertex 0.982089 -0.016639 1.086381
endloop
endfacet
facet normal 0.287434 -0.030196 0.957325
outer loop
vertex 0.982089 -0.016639 1.086381
vertex 0.968281 -0.018917 1.090455
vertex 0.967991 -0.033474 1.090083
endloop
endfacet
facet normal 0.325628 -0.051070 0.944118
outer loop
vertex 0.968281 -0.018917 1.090455
vertex 0.954369 -0.021568 1.095110
vertex 0.953820 -0.036364 1.094499
endloop
endfacet
facet normal 0.303012 -0.030384 0.952502
outer loop
vertex 0.968281 -0.018917 1.090455
vertex 0.953820 -0.036364 1.094499
vertex 0.967991 -0.033474 1.090083
endloop
endfacet
facet normal 0.341455 -0.328945 0.880456
outer loop
vertex 0.967991 -0.033474 1.090083
vertex 0.953820 -0.036364 1.094499
vertex 0.952881 -0.050363 1.089633
endloop
endfacet
facet normal 0.345328 -0.332336 0.877668
outer loop
vertex 0.967991 -0.033474 1.090083
vertex 0.952881 -0.050363 1.089633
vertex 0.967058 -0.047104 1.085289
endloop
endfacet
facet normal 0.274906 -0.018811 0.961287
outer loop
vertex 0.982089 -0.016639 1.086381
vertex 0.967991 -0.033474 1.090083
vertex 0.982003 -0.030718 1.086130
endloop
endfacet
facet normal 0.316195 -0.333967 0.887968
outer loop
vertex 0.967058 -0.047104 1.085289
vertex 0.982003 -0.030718 1.086130
vertex 0.967991 -0.033474 1.090083
endloop
endfacet
facet normal 0.335730 -0.329283 0.882529
outer loop
vertex 0.938401 -0.053484 1.093977
vertex 0.952881 -0.050363 1.089633
vertex 0.953820 -0.036364 1.094499
endloop
endfacet
facet normal 0.303400 -0.050554 0.951521
outer loop
vertex 0.954369 -0.021568 1.095110
vertex 0.939366 -0.039187 1.098958
vertex 0.953820 -0.036364 1.094499
endloop
endfacet
facet normal 0.336519 -0.329991 0.881964
outer loop
vertex 0.938401 -0.053484 1.093977
vertex 0.953820 -0.036364 1.094499
vertex 0.939366 -0.039187 1.098958
endloop
endfacet
facet normal 0.287837 -0.332346 0.898163
outer loop
vertex 0.939366 -0.039187 1.098958
vertex 0.923217 -0.056230 1.097827
vertex 0.938401 -0.053484 1.093977
endloop
endfacet
facet normal 0.289986 -0.334278 0.896753
outer loop
vertex 0.939366 -0.039187 1.098958
vertex 0.924238 -0.041762 1.102890
vertex 0.923217 -0.056230 1.097827
endloop
endfacet
facet normal 0.325645 -0.071377 0.942794
outer loop
vertex 0.954369 -0.021568 1.095110
vertex 0.939967 -0.024228 1.099883
vertex 0.939366 -0.039187 1.098958
endloop
endfacet
facet normal 0.262101 -0.070042 0.962495
outer loop
vertex 0.939967 -0.024228 1.099883
vertex 0.924238 -0.041762 1.102890
vertex 0.939366 -0.039187 1.098958
endloop
endfacet
facet normal 0.284138 -0.091218 0.954434
outer loop
vertex 0.939967 -0.024228 1.099883
vertex 0.925238 -0.026771 1.104025
vertex 0.924238 -0.041762 1.102890
endloop
endfacet
facet normal 0.225309 0.235053 0.945508
outer loop
vertex 0.940258 -0.009471 1.096145
vertex 0.925238 -0.026771 1.104025
vertex 0.939967 -0.024228 1.099883
endloop
endfacet
facet normal 0.265191 0.231839 0.935908
outer loop
vertex 0.939967 -0.024228 1.099883
vertex 0.954297 -0.006660 1.091471
vertex 0.940258 -0.009471 1.096145
endloop
endfacet
facet normal 0.267651 0.229709 0.935733
outer loop
vertex 0.939967 -0.024228 1.099883
vertex 0.954369 -0.021568 1.095110
vertex 0.954297 -0.006660 1.091471
endloop
endfacet
facet normal 0.114145 0.523905 0.844094
outer loop
vertex 0.953879 0.007291 1.083899
vertex 0.939912 0.004030 1.087812
vertex 0.940258 -0.009471 1.096145
endloop
endfacet
facet normal 0.091856 0.524708 0.846312
outer loop
vertex 0.925957 0.000976 1.091220
vertex 0.940258 -0.009471 1.096145
vertex 0.939912 0.004030 1.087812
endloop
endfacet
facet normal 0.191769 0.472602 0.860158
outer loop
vertex 0.953879 0.007291 1.083899
vertex 0.940258 -0.009471 1.096145
vertex 0.954297 -0.006660 1.091471
endloop
endfacet
facet normal 0.234611 0.226847 0.945250
outer loop
vertex 0.940258 -0.009471 1.096145
vertex 0.925936 -0.012088 1.100328
vertex 0.925238 -0.026771 1.104025
endloop
endfacet
facet normal 0.133914 0.566616 0.813027
outer loop
vertex 0.925957 0.000976 1.091220
vertex 0.925936 -0.012088 1.100328
vertex 0.940258 -0.009471 1.096145
endloop
endfacet
facet normal 0.054602 0.570994 0.819137
outer loop
vertex 0.925936 -0.012088 1.100328
vertex 0.925957 0.000976 1.091220
vertex 0.912213 -0.001434 1.093816
endloop
endfacet
facet normal -0.007104 0.751312 0.659909
outer loop
vertex 0.925957 0.000976 1.091220
vertex 0.911156 0.008389 1.082621
vertex 0.912213 -0.001434 1.093816
endloop
endfacet
facet normal -0.017157 0.742508 0.669618
outer loop
vertex 0.925957 0.000976 1.091220
vertex 0.925644 0.010724 1.080403
vertex 0.911156 0.008389 1.082621
endloop
endfacet
facet normal 0.000910 0.742878 0.669426
outer loop
vertex 0.939912 0.004030 1.087812
vertex 0.925644 0.010724 1.080403
vertex 0.925957 0.000976 1.091220
endloop
endfacet
facet normal -0.034264 0.791810 0.609805
outer loop
vertex 0.903703 0.017145 1.070833
vertex 0.911156 0.008389 1.082621
vertex 0.925644 0.010724 1.080403
endloop
endfacet
facet normal -0.020034 0.808379 0.588322
outer loop
vertex 0.903703 0.017145 1.070833
vertex 0.925644 0.010724 1.080403
vertex 0.918870 0.019956 1.067487
endloop
endfacet
facet normal -0.053893 0.798777 0.599208
outer loop
vertex 0.918870 0.019956 1.067487
vertex 0.925644 0.010724 1.080403
vertex 0.939635 0.014301 1.076893
endloop
endfacet
facet normal -0.014238 0.728133 0.685288
outer loop
vertex 0.939912 0.004030 1.087812
vertex 0.939635 0.014301 1.076893
vertex 0.925644 0.010724 1.080403
endloop
endfacet
facet normal 0.021742 0.728497 0.684704
outer loop
vertex 0.953879 0.007291 1.083899
vertex 0.939635 0.014301 1.076893
vertex 0.939912 0.004030 1.087812
endloop
endfacet
facet normal 0.004379 0.711339 0.702835
outer loop
vertex 0.953879 0.007291 1.083899
vertex 0.953318 0.018334 1.072726
vertex 0.939635 0.014301 1.076893
endloop
endfacet
facet normal -0.060318 0.808891 0.584857
outer loop
vertex 0.933522 0.023270 1.063858
vertex 0.939635 0.014301 1.076893
vertex 0.953318 0.018334 1.072726
endloop
endfacet
facet normal -0.040662 0.814133 0.579253
outer loop
vertex 0.918870 0.019956 1.067487
vertex 0.939635 0.014301 1.076893
vertex 0.933522 0.023270 1.063858
endloop
endfacet
facet normal -0.061813 0.848601 0.525409
outer loop
vertex 0.927981 0.030929 1.050836
vertex 0.918870 0.019956 1.067487
vertex 0.933522 0.023270 1.063858
endloop
endfacet
facet normal -0.046336 0.825285 0.562812
outer loop
vertex 0.933522 0.023270 1.063858
vertex 0.953318 0.018334 1.072726
vertex 0.947978 0.026813 1.059853
endloop
endfacet
facet normal -0.053666 0.850576 0.523106
outer loop
vertex 0.933522 0.023270 1.063858
vertex 0.942790 0.034420 1.046679
vertex 0.927981 0.030929 1.050836
endloop
endfacet
facet normal -0.065447 0.852764 0.518180
outer loop
vertex 0.933522 0.023270 1.063858
vertex 0.947978 0.026813 1.059853
vertex 0.942790 0.034420 1.046679
endloop
endfacet
facet normal -0.023590 0.861707 0.506858
outer loop
vertex 0.947978 0.026813 1.059853
vertex 0.957546 0.037305 1.042461
vertex 0.942790 0.034420 1.046679
endloop
endfacet
facet normal 0.873332 -0.461966 0.154529
outer loop
vertex 1.080898 -0.011703 1.017488
vertex 1.067913 -0.034362 1.023133
vertex 1.078822 -0.019692 1.005337
endloop
endfacet
facet normal 0.731705 -0.565012 0.381274
outer loop
vertex 1.067913 -0.034362 1.023133
vertex 1.062443 -0.029420 1.040954
vertex 1.059389 -0.039735 1.031529
endloop
endfacet
facet normal 0.873582 -0.464229 0.146107
outer loop
vertex 1.080898 -0.011703 1.017488
vertex 1.072611 -0.022782 1.031836
vertex 1.067913 -0.034362 1.023133
endloop
endfacet
facet normal 0.720351 -0.579138 0.381699
outer loop
vertex 1.067913 -0.034362 1.023133
vertex 1.072611 -0.022782 1.031836
vertex 1.062443 -0.029420 1.040954
endloop
endfacet
facet normal 0.726824 -0.552051 0.408615
outer loop
vertex 1.062443 -0.029420 1.040954
vertex 1.072611 -0.022782 1.031836
vertex 1.076849 -0.010957 1.040274
endloop
endfacet
facet normal 0.577913 -0.610208 0.541907
outer loop
vertex 1.065738 -0.018075 1.050215
vertex 1.050226 -0.034614 1.048134
vertex 1.062443 -0.029420 1.040954
endloop
endfacet
facet normal 0.724346 -0.549872 0.415889
outer loop
vertex 1.062443 -0.029420 1.040954
vertex 1.076849 -0.010957 1.040274
vertex 1.065738 -0.018075 1.050215
endloop
endfacet
facet normal 0.579220 -0.600703 0.551053
outer loop
vertex 1.048347 -0.045258 1.038506
vertex 1.062443 -0.029420 1.040954
vertex 1.050226 -0.034614 1.048134
endloop
endfacet
facet normal 0.616161 -0.622870 0.482056
outer loop
vertex 1.048347 -0.045258 1.038506
vertex 1.059389 -0.039735 1.031529
vertex 1.062443 -0.029420 1.040954
endloop
endfacet
facet normal 0.532373 -0.577225 0.619185
outer loop
vertex 1.065738 -0.018075 1.050215
vertex 1.052290 -0.023011 1.057176
vertex 1.050226 -0.034614 1.048134
endloop
endfacet
facet normal 0.424271 -0.602367 0.676128
outer loop
vertex 1.050226 -0.034614 1.048134
vertex 1.052290 -0.023011 1.057176
vertex 1.038090 -0.026839 1.062676
endloop
endfacet
facet normal 0.489723 -0.630834 0.601846
outer loop
vertex 1.036919 -0.039092 1.054268
vertex 1.048347 -0.045258 1.038506
vertex 1.050226 -0.034614 1.048134
endloop
endfacet
facet normal 0.495631 -0.523127 0.693317
outer loop
vertex 1.050226 -0.034614 1.048134
vertex 1.038090 -0.026839 1.062676
vertex 1.036919 -0.039092 1.054268
endloop
endfacet
facet normal 0.448394 -0.547670 0.706400
outer loop
vertex 1.022410 -0.055182 1.051003
vertex 1.036919 -0.039092 1.054268
vertex 1.023144 -0.043255 1.059784
endloop
endfacet
facet normal 0.498848 -0.580456 0.643600
outer loop
vertex 1.022410 -0.055182 1.051003
vertex 1.035656 -0.050364 1.045081
vertex 1.036919 -0.039092 1.054268
endloop
endfacet
facet normal 0.547245 -0.564764 0.617709
outer loop
vertex 1.036919 -0.039092 1.054268
vertex 1.035656 -0.050364 1.045081
vertex 1.048347 -0.045258 1.038506
endloop
endfacet
facet normal 0.448416 -0.534470 0.716425
outer loop
vertex 1.023144 -0.043255 1.059784
vertex 1.036919 -0.039092 1.054268
vertex 1.038090 -0.026839 1.062676
endloop
endfacet
facet normal 0.377380 -0.482810 0.790240
outer loop
vertex 1.023144 -0.043255 1.059784
vertex 1.038090 -0.026839 1.062676
vertex 1.023635 -0.030203 1.067524
endloop
endfacet
facet normal 0.422589 -0.473994 0.772494
outer loop
vertex 1.023635 -0.030203 1.067524
vertex 1.009153 -0.047324 1.064941
vertex 1.023144 -0.043255 1.059784
endloop
endfacet
facet normal 0.470124 -0.541859 0.696687
outer loop
vertex 1.023144 -0.043255 1.059784
vertex 1.008879 -0.059894 1.056469
vertex 1.022410 -0.055182 1.051003
endloop
endfacet
facet normal 0.424228 -0.512457 0.746605
outer loop
vertex 1.023144 -0.043255 1.059784
vertex 1.009153 -0.047324 1.064941
vertex 1.008879 -0.059894 1.056469
endloop
endfacet
facet normal 0.454897 -0.496324 0.739413
outer loop
vertex 1.023635 -0.030203 1.067524
vertex 1.003401 -0.044620 1.070295
vertex 1.009153 -0.047324 1.064941
endloop
endfacet
facet normal 0.431829 -0.510556 0.743543
outer loop
vertex 0.997354 -0.065464 1.059337
vertex 1.008879 -0.059894 1.056469
vertex 1.009153 -0.047324 1.064941
endloop
endfacet
facet normal 0.449556 -0.503945 0.737522
outer loop
vertex 0.995127 -0.057881 1.066277
vertex 1.009153 -0.047324 1.064941
vertex 1.003401 -0.044620 1.070295
endloop
endfacet
facet normal 0.460982 -0.521624 0.717916
outer loop
vertex 0.997354 -0.065464 1.059337
vertex 1.009153 -0.047324 1.064941
vertex 0.995127 -0.057881 1.066277
endloop
endfacet
facet normal 0.276552 -0.603318 0.748015
outer loop
vertex 0.995127 -0.057881 1.066277
vertex 0.979839 -0.075707 1.057552
vertex 0.997354 -0.065464 1.059337
endloop
endfacet
facet normal 0.426151 -0.665459 0.612829
outer loop
vertex 0.995127 -0.057881 1.066277
vertex 0.980899 -0.067987 1.065197
vertex 0.979839 -0.075707 1.057552
endloop
endfacet
facet normal 0.433583 -0.663455 0.609782
outer loop
vertex 0.966928 -0.082825 1.058987
vertex 0.979839 -0.075707 1.057552
vertex 0.980899 -0.067987 1.065197
endloop
endfacet
facet normal 0.346078 -0.668501 0.658283
outer loop
vertex 0.966928 -0.082825 1.058987
vertex 0.952394 -0.075865 1.073696
vertex 0.952393 -0.086657 1.062737
endloop
endfacet
facet normal 0.383009 -0.639579 0.666515
outer loop
vertex 0.966928 -0.082825 1.058987
vertex 0.980899 -0.067987 1.065197
vertex 0.966746 -0.071971 1.069507
endloop
endfacet
facet normal 0.370156 -0.643328 0.670159
outer loop
vertex 0.966928 -0.082825 1.058987
vertex 0.966746 -0.071971 1.069507
vertex 0.952394 -0.075865 1.073696
endloop
endfacet
facet normal 0.310323 -0.698758 0.644544
outer loop
vertex 0.952393 -0.086657 1.062737
vertex 0.937687 -0.079480 1.077598
vertex 0.937444 -0.090170 1.066126
endloop
endfacet
facet normal 0.339802 -0.670132 0.659892
outer loop
vertex 0.952393 -0.086657 1.062737
vertex 0.952394 -0.075865 1.073696
vertex 0.937687 -0.079480 1.077598
endloop
endfacet
facet normal -0.000264 -0.670149 0.742227
outer loop
vertex 0.856204 -0.080856 1.086548
vertex 0.845801 -0.082280 1.085259
vertex 0.857467 -0.089482 1.078760
endloop
endfacet
facet normal 0.020125 0.833129 0.552712
outer loop
vertex 0.897275 0.024488 1.059246
vertex 0.879406 0.022654 1.062661
vertex 0.887817 0.015550 1.073063
endloop
endfacet
facet normal -0.033894 0.835573 0.548333
outer loop
vertex 0.897275 0.024488 1.059246
vertex 0.903703 0.017145 1.070833
vertex 0.918870 0.019956 1.067487
endloop
endfacet
facet normal -0.052247 0.846751 0.529417
outer loop
vertex 0.927981 0.030929 1.050836
vertex 0.912833 0.027522 1.054790
vertex 0.918870 0.019956 1.067487
endloop
endfacet
facet normal 0.002856 0.803633 0.595118
outer loop
vertex 0.887817 0.015550 1.073063
vertex 0.911156 0.008389 1.082621
vertex 0.903703 0.017145 1.070833
endloop
endfacet
facet normal -0.008165 0.790611 0.612264
outer loop
vertex 0.911156 0.008389 1.082621
vertex 0.887817 0.015550 1.073063
vertex 0.896326 0.007882 1.083078
endloop
endfacet
facet normal 0.038756 0.586804 0.808801
outer loop
vertex 0.899827 -0.003091 1.095612
vertex 0.911627 -0.014656 1.103437
vertex 0.912213 -0.001434 1.093816
endloop
endfacet
facet normal 0.166310 0.233327 0.958071
outer loop
vertex 0.925238 -0.026771 1.104025
vertex 0.925936 -0.012088 1.100328
vertex 0.911627 -0.014656 1.103437
endloop
endfacet
facet normal 0.070625 0.584859 0.808054
outer loop
vertex 0.925936 -0.012088 1.100328
vertex 0.912213 -0.001434 1.093816
vertex 0.911627 -0.014656 1.103437
endloop
endfacet
facet normal 0.136193 0.200083 0.970267
outer loop
vertex 0.925238 -0.026771 1.104025
vertex 0.911627 -0.014656 1.103437
vertex 0.910006 -0.029206 1.106665
endloop
endfacet
facet normal 0.081407 0.207214 0.974903
outer loop
vertex 0.910006 -0.029206 1.106665
vertex 0.911627 -0.014656 1.103437
vertex 0.897696 -0.017091 1.105118
endloop
endfacet
facet normal -0.012902 -0.763044 0.646217
outer loop
vertex 0.857467 -0.089482 1.078760
vertex 0.845801 -0.098252 1.068172
vertex 0.858379 -0.098101 1.068601
endloop
endfacet
facet normal 0.026584 -0.146298 0.988883
outer loop
vertex 0.890187 -0.045955 1.105443
vertex 0.907994 -0.044004 1.105253
vertex 0.894286 -0.031549 1.107464
endloop
endfacet
facet normal -0.045941 -0.745422 0.665008
outer loop
vertex 0.871016 -0.087771 1.081053
vertex 0.858379 -0.098101 1.068601
vertex 0.872996 -0.097666 1.070098
endloop
endfacet
facet normal -0.002092 -0.769025 0.639216
outer loop
vertex 0.845801 -0.090007 1.078091
vertex 0.845801 -0.098252 1.068172
vertex 0.857467 -0.089482 1.078760
endloop
endfacet
facet normal -0.011467 -0.680038 0.733087
outer loop
vertex 0.845801 -0.090007 1.078091
vertex 0.857467 -0.089482 1.078760
vertex 0.845801 -0.082280 1.085259
endloop
endfacet
facet normal 0.008766 -0.669399 0.742851
outer loop
vertex 0.857467 -0.089482 1.078760
vertex 0.867145 -0.077905 1.089078
vertex 0.856204 -0.080856 1.086548
endloop
endfacet
facet normal -0.048520 -0.641657 0.765455
outer loop
vertex 0.867145 -0.077905 1.089078
vertex 0.857467 -0.089482 1.078760
vertex 0.871016 -0.087771 1.081053
endloop
endfacet
facet normal 0.381130 -0.550184 0.742992
outer loop
vertex 0.966746 -0.071971 1.069507
vertex 0.980899 -0.067987 1.065197
vertex 0.980148 -0.056198 1.074312
endloop
endfacet
facet normal 0.360916 -0.555942 0.748778
outer loop
vertex 0.995088 -0.048893 1.072535
vertex 0.980148 -0.056198 1.074312
vertex 0.980899 -0.067987 1.065197
endloop
endfacet
facet normal 0.324262 -0.539561 0.776999
outer loop
vertex 0.995088 -0.048893 1.072535
vertex 0.980899 -0.067987 1.065197
vertex 0.995127 -0.057881 1.066277
endloop
endfacet
facet normal 0.457381 -0.506769 0.730745
outer loop
vertex 0.995127 -0.057881 1.066277
vertex 1.003401 -0.044620 1.070295
vertex 0.995088 -0.048893 1.072535
endloop
endfacet
facet normal 0.882357 -0.438355 0.171146
outer loop
vertex 1.080898 -0.011703 1.017488
vertex 1.076849 -0.010957 1.040274
vertex 1.072611 -0.022782 1.031836
endloop
endfacet
facet normal 0.893903 -0.413784 0.172392
outer loop
vertex 1.080898 -0.011703 1.017488
vertex 1.082383 -0.003464 1.029564
vertex 1.076849 -0.010957 1.040274
endloop
endfacet
facet normal -0.028087 0.829404 0.557942
outer loop
vertex 0.953318 0.018334 1.072726
vertex 0.962318 0.030019 1.055809
vertex 0.947978 0.026813 1.059853
endloop
endfacet
facet normal -0.054908 0.868035 0.493457
outer loop
vertex 0.947978 0.026813 1.059853
vertex 0.962318 0.030019 1.055809
vertex 0.957546 0.037305 1.042461
endloop
endfacet
facet normal 0.280659 0.213768 0.935700
outer loop
vertex 0.982089 -0.016639 1.086381
vertex 0.993822 0.003102 1.078352
vertex 0.982001 -0.001939 1.083049
endloop
endfacet
facet normal 0.358576 0.160865 0.919535
outer loop
vertex 0.982089 -0.016639 1.086381
vertex 0.995878 -0.009472 1.079750
vertex 0.993822 0.003102 1.078352
endloop
endfacet
facet normal 0.441199 -0.018684 0.897215
outer loop
vertex 0.995878 -0.009472 1.079750
vertex 0.982089 -0.016639 1.086381
vertex 0.982003 -0.030718 1.086130
endloop
endfacet
facet normal -0.071228 0.438846 0.895734
outer loop
vertex 0.993107 0.029469 1.065378
vertex 0.993822 0.003102 1.078352
vertex 1.011115 0.029005 1.067037
endloop
endfacet
facet normal 0.360021 0.161039 0.918940
outer loop
vertex 1.011115 0.029005 1.067037
vertex 0.993822 0.003102 1.078352
vertex 0.995878 -0.009472 1.079750
endloop
endfacet
facet normal 0.163722 0.439131 0.883379
outer loop
vertex 0.982001 -0.001939 1.083049
vertex 0.993822 0.003102 1.078352
vertex 0.993107 0.029469 1.065378
endloop
endfacet
facet normal -0.334212 0.412370 0.847498
outer loop
vertex 1.011115 0.029005 1.067037
vertex 0.995878 -0.009472 1.079750
vertex 1.011621 0.013510 1.074776
endloop
endfacet
facet normal 0.213488 0.442106 0.871186
outer loop
vertex 1.011115 0.029005 1.067037
vertex 1.011621 0.013510 1.074776
vertex 1.025773 0.016122 1.069983
endloop
endfacet
facet normal 0.134650 0.659634 0.739427
outer loop
vertex 1.026346 0.032422 1.061215
vertex 1.012300 0.040415 1.056643
vertex 1.011115 0.029005 1.067037
endloop
endfacet
facet normal 0.226998 0.455156 0.860991
outer loop
vertex 1.011115 0.029005 1.067037
vertex 1.025773 0.016122 1.069983
vertex 1.026346 0.032422 1.061215
endloop
endfacet
facet normal -0.050408 0.675446 0.735684
outer loop
vertex 0.993107 0.029469 1.065378
vertex 1.011115 0.029005 1.067037
vertex 1.012300 0.040415 1.056643
endloop
endfacet
facet normal -0.164801 0.775412 0.609571
outer loop
vertex 1.012300 0.040415 1.056643
vertex 0.998636 0.047104 1.044439
vertex 0.993107 0.029469 1.065378
endloop
endfacet
facet normal -0.021138 0.866538 0.498664
outer loop
vertex 1.012300 0.040415 1.056643
vertex 1.012088 0.052532 1.035577
vertex 0.998636 0.047104 1.044439
endloop
endfacet
facet normal 0.124754 0.648701 0.750748
outer loop
vertex 1.026346 0.032422 1.061215
vertex 1.025829 0.046892 1.048798
vertex 1.012300 0.040415 1.056643
endloop
endfacet
facet normal -0.124121 0.859578 0.495701
outer loop
vertex 1.025829 0.046892 1.048798
vertex 1.012088 0.052532 1.035577
vertex 1.012300 0.040415 1.056643
endloop
endfacet
facet normal 0.192888 0.254755 0.947573
outer loop
vertex 1.039756 0.001607 1.071039
vertex 1.025773 0.016122 1.069983
vertex 1.025825 -0.000246 1.074373
endloop
endfacet
facet normal 0.268811 0.250311 0.930099
outer loop
vertex 1.025825 -0.000246 1.074373
vertex 1.025773 0.016122 1.069983
vertex 1.011621 0.013510 1.074776
endloop
endfacet
facet normal 0.162122 0.226069 0.960526
outer loop
vertex 1.039756 0.001607 1.071039
vertex 1.038881 0.017033 1.067556
vertex 1.025773 0.016122 1.069983
endloop
endfacet
facet normal 0.131017 0.457722 0.879389
outer loop
vertex 1.025773 0.016122 1.069983
vertex 1.038881 0.017033 1.067556
vertex 1.041936 0.033515 1.058522
endloop
endfacet
facet normal 0.118593 0.467144 0.876192
outer loop
vertex 1.025773 0.016122 1.069983
vertex 1.041936 0.033515 1.058522
vertex 1.026346 0.032422 1.061215
endloop
endfacet
facet normal 0.157548 0.452036 0.877976
outer loop
vertex 1.041936 0.033515 1.058522
vertex 1.038881 0.017033 1.067556
vertex 1.050717 0.019570 1.064126
endloop
endfacet
facet normal 0.225961 0.226720 0.947386
outer loop
vertex 1.039756 0.001607 1.071039
vertex 1.050717 0.019570 1.064126
vertex 1.038881 0.017033 1.067556
endloop
endfacet
facet normal 0.268819 0.500092 0.823192
outer loop
vertex 1.050717 0.019570 1.064126
vertex 1.055362 0.039330 1.050605
vertex 1.041936 0.033515 1.058522
endloop
endfacet
facet normal 0.257652 0.503663 0.824585
outer loop
vertex 1.050717 0.019570 1.064126
vertex 1.064677 0.024917 1.056498
vertex 1.055362 0.039330 1.050605
endloop
endfacet
facet normal 0.233441 0.221899 0.946713
outer loop
vertex 1.039756 0.001607 1.071039
vertex 1.052700 0.004083 1.067267
vertex 1.050717 0.019570 1.064126
endloop
endfacet
facet normal 0.396912 0.230981 0.888318
outer loop
vertex 1.052700 0.004083 1.067267
vertex 1.064677 0.024917 1.056498
vertex 1.050717 0.019570 1.064126
endloop
endfacet
facet normal 0.262354 0.401062 0.877679
outer loop
vertex 0.982001 -0.001939 1.083049
vertex 0.993107 0.029469 1.065378
vertex 0.981887 0.012789 1.076353
endloop
endfacet
facet normal 0.738190 -0.448458 0.503945
outer loop
vertex 1.077243 -0.000159 1.049306
vertex 1.065738 -0.018075 1.050215
vertex 1.076849 -0.010957 1.040274
endloop
endfacet
facet normal 0.317087 0.285235 0.904487
outer loop
vertex 1.052700 0.004083 1.067267
vertex 1.065243 0.007519 1.061786
vertex 1.064677 0.024917 1.056498
endloop
endfacet
facet normal 0.367442 -0.350098 0.861637
outer loop
vertex 1.008633 -0.025242 1.075937
vertex 1.003401 -0.044620 1.070295
vertex 1.023635 -0.030203 1.067524
endloop
endfacet
facet normal 0.176733 -0.336195 0.925061
outer loop
vertex 0.924238 -0.041762 1.102890
vertex 0.906559 -0.058231 1.100282
vertex 0.923217 -0.056230 1.097827
endloop
endfacet
facet normal 0.071060 -0.470335 0.879622
outer loop
vertex 0.892579 -0.071654 1.094234
vertex 0.907816 -0.071531 1.093069
vertex 0.906559 -0.058231 1.100282
endloop
endfacet
facet normal 0.040472 -0.620895 0.782848
outer loop
vertex 0.871016 -0.087771 1.081053
vertex 0.877330 -0.070599 1.094346
vertex 0.867145 -0.077905 1.089078
endloop
endfacet
facet normal 0.001689 0.561569 0.827428
outer loop
vertex 0.897696 -0.017091 1.105118
vertex 0.911627 -0.014656 1.103437
vertex 0.899827 -0.003091 1.095612
endloop
endfacet
facet normal -0.012999 -0.763049 0.646210
outer loop
vertex 0.871016 -0.087771 1.081053
vertex 0.857467 -0.089482 1.078760
vertex 0.858379 -0.098101 1.068601
endloop
endfacet
facet normal 0.027292 0.153840 0.987719
outer loop
vertex 0.894286 -0.031549 1.107464
vertex 0.910006 -0.029206 1.106665
vertex 0.897696 -0.017091 1.105118
endloop
endfacet
facet normal -0.018315 0.855050 0.518222
outer loop
vertex 0.918870 0.019956 1.067487
vertex 0.912833 0.027522 1.054790
vertex 0.897275 0.024488 1.059246
endloop
endfacet
facet normal -0.004839 0.751432 0.659793
outer loop
vertex 0.899827 -0.003091 1.095612
vertex 0.912213 -0.001434 1.093816
vertex 0.911156 0.008389 1.082621
endloop
endfacet
facet normal -0.005384 0.751646 0.659545
outer loop
vertex 0.911156 0.008389 1.082621
vertex 0.896326 0.007882 1.083078
vertex 0.899827 -0.003091 1.095612
endloop
endfacet
endsolid Exported from Blender-4.0.2
