solid vcg
  facet normal -1.000000e+00 -0.000000e+00  0.000000e+00
    outer loop
      vertex   2.106318e+00  5.561839e-01  8.300000e-01
      vertex   2.106318e+00  5.061839e-01  8.000000e-01
      vertex   2.106318e+00  5.061839e-01  8.300000e-01
    endloop
  endfacet
  facet normal -1.000000e+00  0.000000e+00  0.000000e+00
    outer loop
      vertex   2.106318e+00  5.061839e-01  8.000000e-01
      vertex   2.106318e+00  5.561839e-01  8.300000e-01
      vertex   2.106318e+00  5.561839e-01  8.000000e-01
    endloop
  endfacet
  facet normal  0.000000e+00 -1.000000e+00 -0.000000e+00
    outer loop
      vertex   2.156317e+00  5.061839e-01  8.300000e-01
      vertex   2.106318e+00  5.061839e-01  8.000000e-01
      vertex   2.156317e+00  5.061839e-01  8.000000e-01
    endloop
  endfacet
  facet normal  0.000000e+00 -1.000000e+00  0.000000e+00
    outer loop
      vertex   2.106318e+00  5.061839e-01  8.000000e-01
      vertex   2.156317e+00  5.061839e-01  8.300000e-01
      vertex   2.106318e+00  5.061839e-01  8.300000e-01
    endloop
  endfacet
  facet normal  0.000000e+00 -1.000000e+00 -0.000000e+00
    outer loop
      vertex   2.156317e+00  5.561839e-01  8.300000e-01
      vertex   2.106318e+00  5.561839e-01  8.000000e-01
      vertex   2.156317e+00  5.561839e-01  8.000000e-01
    endloop
  endfacet
  facet normal  0.000000e+00 -1.000000e+00  0.000000e+00
    outer loop
      vertex   2.106318e+00  5.561839e-01  8.000000e-01
      vertex   2.156317e+00  5.561839e-01  8.300000e-01
      vertex   2.106318e+00  5.561839e-01  8.300000e-01
    endloop
  endfacet
  facet normal -1.000000e+00 -0.000000e+00  0.000000e+00
    outer loop
      vertex   2.156317e+00  5.561839e-01  8.300000e-01
      vertex   2.156317e+00  5.061839e-01  8.000000e-01
      vertex   2.156317e+00  5.061839e-01  8.300000e-01
    endloop
  endfacet
  facet normal -1.000000e+00  0.000000e+00  0.000000e+00
    outer loop
      vertex   2.156317e+00  5.061839e-01  8.000000e-01
      vertex   2.156317e+00  5.561839e-01  8.300000e-01
      vertex   2.156317e+00  5.561839e-01  8.000000e-01
    endloop
  endfacet
  facet normal  0.000000e+00 -1.000000e+00 -0.000000e+00
    outer loop
      vertex   3.056318e+00  5.061839e-01  8.300000e-01
      vertex   2.156317e+00  5.061839e-01  8.000000e-01
      vertex   3.056318e+00  5.061839e-01  8.000000e-01
    endloop
  endfacet
  facet normal  0.000000e+00 -1.000000e+00  0.000000e+00
    outer loop
      vertex   2.156317e+00  5.061839e-01  8.000000e-01
      vertex   3.056318e+00  5.061839e-01  8.300000e-01
      vertex   2.156317e+00  5.061839e-01  8.300000e-01
    endloop
  endfacet
  facet normal  0.000000e+00  0.000000e+00  1.000000e+00
    outer loop
      vertex   2.156317e+00  5.061839e-01  8.300000e-01
      vertex   2.106318e+00  5.561839e-01  8.300000e-01
      vertex   2.106318e+00  5.061839e-01  8.300000e-01
    endloop
  endfacet
  facet normal -0.000000e+00  0.000000e+00  1.000000e+00
    outer loop
      vertex   2.106318e+00  5.561839e-01  8.300000e-01
      vertex   2.156317e+00  5.061839e-01  8.300000e-01
      vertex   2.156317e+00  5.561839e-01  8.300000e-01
    endloop
  endfacet
  facet normal  1.000000e+00  0.000000e+00  0.000000e+00
    outer loop
      vertex   3.106318e+00  1.056184e+00  8.000000e-01
      vertex   3.106318e+00  5.561839e-01  8.300000e-01
      vertex   3.106318e+00  5.561839e-01  8.000000e-01
    endloop
  endfacet
  facet normal  1.000000e+00 -0.000000e+00  0.000000e+00
    outer loop
      vertex   3.106318e+00  5.561839e-01  8.300000e-01
      vertex   3.106318e+00  1.056184e+00  8.000000e-01
      vertex   3.106318e+00  1.056184e+00  8.300000e-01
    endloop
  endfacet
  facet normal  0.000000e+00  1.000000e+00  0.000000e+00
    outer loop
      vertex   3.056318e+00  5.561839e-01  8.300000e-01
      vertex   3.106318e+00  5.561839e-01  8.000000e-01
      vertex   3.056318e+00  5.561839e-01  8.000000e-01
    endloop
  endfacet
  facet normal  0.000000e+00  1.000000e+00 -0.000000e+00
    outer loop
      vertex   3.106318e+00  5.561839e-01  8.000000e-01
      vertex   3.056318e+00  5.561839e-01  8.300000e-01
      vertex   3.106318e+00  5.561839e-01  8.300000e-01
    endloop
  endfacet
  facet normal -1.000000e+00 -0.000000e+00  0.000000e+00
    outer loop
      vertex   3.056318e+00  5.561839e-01  8.300000e-01
      vertex   3.056318e+00  5.061839e-01  8.000000e-01
      vertex   3.056318e+00  5.061839e-01  8.300000e-01
    endloop
  endfacet
  facet normal -1.000000e+00  0.000000e+00  0.000000e+00
    outer loop
      vertex   3.056318e+00  5.061839e-01  8.000000e-01
      vertex   3.056318e+00  5.561839e-01  8.300000e-01
      vertex   3.056318e+00  5.561839e-01  8.000000e-01
    endloop
  endfacet
  facet normal  0.000000e+00  0.000000e+00  1.000000e+00
    outer loop
      vertex   3.106318e+00  5.061839e-01  8.300000e-01
      vertex   3.056318e+00  5.561839e-01  8.300000e-01
      vertex   3.056318e+00  5.061839e-01  8.300000e-01
    endloop
  endfacet
  facet normal -0.000000e+00  0.000000e+00  1.000000e+00
    outer loop
      vertex   3.056318e+00  5.561839e-01  8.300000e-01
      vertex   3.106318e+00  5.061839e-01  8.300000e-01
      vertex   3.106318e+00  5.561839e-01  8.300000e-01
    endloop
  endfacet
  facet normal -0.000000e+00  0.000000e+00 -1.000000e+00
    outer loop
      vertex   3.106318e+00  5.561839e-01  1.000000e-01
      vertex   3.056318e+00  5.061839e-01  1.000000e-01
      vertex   3.056318e+00  5.561839e-01  1.000000e-01
    endloop
  endfacet
  facet normal  0.000000e+00  0.000000e+00 -1.000000e+00
    outer loop
      vertex   3.056318e+00  5.061839e-01  1.000000e-01
      vertex   3.106318e+00  5.561839e-01  1.000000e-01
      vertex   3.106318e+00  5.061839e-01  1.000000e-01
    endloop
  endfacet
  facet normal  1.000000e+00  0.000000e+00  0.000000e+00
    outer loop
      vertex   3.106318e+00  5.561839e-01  1.000000e-01
      vertex   3.106318e+00  5.061839e-01  8.300000e-01
      vertex   3.106318e+00  5.061839e-01  1.000000e-01
    endloop
  endfacet
  facet normal  1.000000e+00 -0.000000e+00  0.000000e+00
    outer loop
      vertex   3.106318e+00  5.061839e-01  8.300000e-01
      vertex   3.106318e+00  5.561839e-01  1.000000e-01
      vertex   3.106318e+00  5.561839e-01  8.300000e-01
    endloop
  endfacet
  facet normal  0.000000e+00  0.000000e+00  0.000000e+00
    outer loop
      vertex   3.106318e+00  5.561839e-01  8.300000e-01
      vertex   3.106318e+00  5.561839e-01  1.000000e-01
      vertex   3.106318e+00  5.561839e-01  8.000000e-01
    endloop
  endfacet
  facet normal  0.000000e+00  1.000000e+00  0.000000e+00
    outer loop
      vertex   3.056318e+00  5.561839e-01  8.000000e-01
      vertex   3.106318e+00  5.561839e-01  1.000000e-01
      vertex   3.056318e+00  5.561839e-01  1.000000e-01
    endloop
  endfacet
  facet normal  0.000000e+00  1.000000e+00 -0.000000e+00
    outer loop
      vertex   3.106318e+00  5.561839e-01  1.000000e-01
      vertex   3.056318e+00  5.561839e-01  8.000000e-01
      vertex   3.106318e+00  5.561839e-01  8.000000e-01
    endloop
  endfacet
  facet normal -1.000000e+00 -0.000000e+00  0.000000e+00
    outer loop
      vertex   3.056318e+00  5.561839e-01  8.000000e-01
      vertex   3.056318e+00  5.061839e-01  1.000000e-01
      vertex   3.056318e+00  5.061839e-01  8.000000e-01
    endloop
  endfacet
  facet normal -1.000000e+00  0.000000e+00  0.000000e+00
    outer loop
      vertex   3.056318e+00  5.061839e-01  1.000000e-01
      vertex   3.056318e+00  5.561839e-01  8.000000e-01
      vertex   3.056318e+00  5.561839e-01  1.000000e-01
    endloop
  endfacet
  facet normal  0.000000e+00 -1.000000e+00 -0.000000e+00
    outer loop
      vertex   3.106318e+00  5.061839e-01  8.300000e-01
      vertex   3.056318e+00  5.061839e-01  1.000000e-01
      vertex   3.106318e+00  5.061839e-01  1.000000e-01
    endloop
  endfacet
  facet normal  0.000000e+00 -1.000000e+00  0.000000e+00
    outer loop
      vertex   3.056318e+00  5.061839e-01  1.000000e-01
      vertex   3.106318e+00  5.061839e-01  8.300000e-01
      vertex   3.056318e+00  5.061839e-01  8.000000e-01
    endloop
  endfacet
  facet normal  0.000000e+00 -1.000000e+00  0.000000e+00
    outer loop
      vertex   3.056318e+00  5.061839e-01  8.000000e-01
      vertex   3.106318e+00  5.061839e-01  8.300000e-01
      vertex   3.056318e+00  5.061839e-01  8.300000e-01
    endloop
  endfacet
  facet normal -1.000000e+00 -0.000000e+00  0.000000e+00
    outer loop
      vertex   3.056318e+00  1.106184e+00  8.300000e-01
      vertex   3.056318e+00  1.056184e+00  8.000000e-01
      vertex   3.056318e+00  1.056184e+00  8.300000e-01
    endloop
  endfacet
  facet normal -1.000000e+00  0.000000e+00  0.000000e+00
    outer loop
      vertex   3.056318e+00  1.056184e+00  8.000000e-01
      vertex   3.056318e+00  1.106184e+00  8.300000e-01
      vertex   3.056318e+00  1.106184e+00  8.000000e-01
    endloop
  endfacet
  facet normal  0.000000e+00 -1.000000e+00 -0.000000e+00
    outer loop
      vertex   3.106318e+00  1.056184e+00  8.300000e-01
      vertex   3.056318e+00  1.056184e+00  8.000000e-01
      vertex   3.106318e+00  1.056184e+00  8.000000e-01
    endloop
  endfacet
  facet normal  0.000000e+00 -1.000000e+00  0.000000e+00
    outer loop
      vertex   3.056318e+00  1.056184e+00  8.000000e-01
      vertex   3.106318e+00  1.056184e+00  8.300000e-01
      vertex   3.056318e+00  1.056184e+00  8.300000e-01
    endloop
  endfacet
  facet normal  0.000000e+00  0.000000e+00  1.000000e+00
    outer loop
      vertex   3.106318e+00  1.056184e+00  8.300000e-01
      vertex   3.056318e+00  1.106184e+00  8.300000e-01
      vertex   3.056318e+00  1.056184e+00  8.300000e-01
    endloop
  endfacet
  facet normal -0.000000e+00  0.000000e+00  1.000000e+00
    outer loop
      vertex   3.056318e+00  1.106184e+00  8.300000e-01
      vertex   3.106318e+00  1.056184e+00  8.300000e-01
      vertex   3.106318e+00  1.106184e+00  8.300000e-01
    endloop
  endfacet
  facet normal -0.000000e+00  0.000000e+00 -1.000000e+00
    outer loop
      vertex   3.106318e+00  1.106184e+00  1.000000e-01
      vertex   3.056318e+00  1.056184e+00  1.000000e-01
      vertex   3.056318e+00  1.106184e+00  1.000000e-01
    endloop
  endfacet
  facet normal  0.000000e+00  0.000000e+00 -1.000000e+00
    outer loop
      vertex   3.056318e+00  1.056184e+00  1.000000e-01
      vertex   3.106318e+00  1.106184e+00  1.000000e-01
      vertex   3.106318e+00  1.056184e+00  1.000000e-01
    endloop
  endfacet
  facet normal  1.000000e+00  0.000000e+00  0.000000e+00
    outer loop
      vertex   3.106318e+00  1.106184e+00  1.000000e-01
      vertex   3.106318e+00  1.056184e+00  8.000000e-01
      vertex   3.106318e+00  1.056184e+00  1.000000e-01
    endloop
  endfacet
  facet normal  1.000000e+00 -0.000000e+00  0.000000e+00
    outer loop
      vertex   3.106318e+00  1.056184e+00  8.000000e-01
      vertex   3.106318e+00  1.106184e+00  1.000000e-01
      vertex   3.106318e+00  1.056184e+00  8.300000e-01
    endloop
  endfacet
  facet normal  1.000000e+00 -0.000000e+00  0.000000e+00
    outer loop
      vertex   3.106318e+00  1.056184e+00  8.300000e-01
      vertex   3.106318e+00  1.106184e+00  1.000000e-01
      vertex   3.106318e+00  1.106184e+00  8.300000e-01
    endloop
  endfacet
  facet normal  0.000000e+00  1.000000e+00  0.000000e+00
    outer loop
      vertex   3.056318e+00  1.106184e+00  8.000000e-01
      vertex   3.106318e+00  1.106184e+00  1.000000e-01
      vertex   3.056318e+00  1.106184e+00  1.000000e-01
    endloop
  endfacet
  facet normal  0.000000e+00  1.000000e+00 -0.000000e+00
    outer loop
      vertex   3.106318e+00  1.106184e+00  1.000000e-01
      vertex   3.056318e+00  1.106184e+00  8.000000e-01
      vertex   3.106318e+00  1.106184e+00  8.300000e-01
    endloop
  endfacet
  facet normal  0.000000e+00  1.000000e+00  0.000000e+00
    outer loop
      vertex   3.106318e+00  1.106184e+00  8.300000e-01
      vertex   3.056318e+00  1.106184e+00  8.000000e-01
      vertex   3.056318e+00  1.106184e+00  8.300000e-01
    endloop
  endfacet
  facet normal -1.000000e+00 -0.000000e+00  0.000000e+00
    outer loop
      vertex   3.056318e+00  1.106184e+00  8.000000e-01
      vertex   3.056318e+00  1.056184e+00  1.000000e-01
      vertex   3.056318e+00  1.056184e+00  8.000000e-01
    endloop
  endfacet
  facet normal -1.000000e+00  0.000000e+00  0.000000e+00
    outer loop
      vertex   3.056318e+00  1.056184e+00  1.000000e-01
      vertex   3.056318e+00  1.106184e+00  8.000000e-01
      vertex   3.056318e+00  1.106184e+00  1.000000e-01
    endloop
  endfacet
  facet normal  0.000000e+00 -1.000000e+00 -0.000000e+00
    outer loop
      vertex   3.106318e+00  1.056184e+00  8.000000e-01
      vertex   3.056318e+00  1.056184e+00  1.000000e-01
      vertex   3.106318e+00  1.056184e+00  1.000000e-01
    endloop
  endfacet
  facet normal  0.000000e+00 -1.000000e+00  0.000000e+00
    outer loop
      vertex   3.056318e+00  1.056184e+00  1.000000e-01
      vertex   3.106318e+00  1.056184e+00  8.000000e-01
      vertex   3.056318e+00  1.056184e+00  8.000000e-01
    endloop
  endfacet
  facet normal  0.000000e+00 -1.000000e+00  0.000000e+00
    outer loop
      vertex   2.106318e+00  5.061839e-01  1.000000e-01
      vertex   1.706317e+00  5.061839e-01  8.300000e-01
      vertex   1.706317e+00  5.061839e-01  1.000000e-01
    endloop
  endfacet
  facet normal  0.000000e+00 -1.000000e+00  0.000000e+00
    outer loop
      vertex   1.706317e+00  5.061839e-01  8.300000e-01
      vertex   2.106318e+00  5.061839e-01  1.000000e-01
      vertex   2.106318e+00  5.061839e-01  8.000000e-01
    endloop
  endfacet
  facet normal  0.000000e+00 -1.000000e+00  0.000000e+00
    outer loop
      vertex   1.706317e+00  5.061839e-01  8.300000e-01
      vertex   2.106318e+00  5.061839e-01  8.000000e-01
      vertex   2.106318e+00  5.061839e-01  8.300000e-01
    endloop
  endfacet
  facet normal -1.000000e+00 -0.000000e+00  0.000000e+00
    outer loop
      vertex   1.706317e+00  1.106184e+00  8.300000e-01
      vertex   1.706317e+00  5.061839e-01  1.000000e-01
      vertex   1.706317e+00  5.061839e-01  8.300000e-01
    endloop
  endfacet
  facet normal -1.000000e+00  0.000000e+00  0.000000e+00
    outer loop
      vertex   1.706317e+00  5.061839e-01  1.000000e-01
      vertex   1.706317e+00  1.106184e+00  8.300000e-01
      vertex   1.706317e+00  1.106184e+00  1.000000e-01
    endloop
  endfacet
  facet normal -0.000000e+00  0.000000e+00 -1.000000e+00
    outer loop
      vertex   3.106318e+00  1.056184e+00  8.000000e-01
      vertex   3.056318e+00  5.561839e-01  8.000000e-01
      vertex   3.056318e+00  1.056184e+00  8.000000e-01
    endloop
  endfacet
  facet normal  0.000000e+00  0.000000e+00 -1.000000e+00
    outer loop
      vertex   3.056318e+00  5.561839e-01  8.000000e-01
      vertex   3.106318e+00  1.056184e+00  8.000000e-01
      vertex   3.106318e+00  5.561839e-01  8.000000e-01
    endloop
  endfacet
  facet normal -0.000000e+00  0.000000e+00 -1.000000e+00
    outer loop
      vertex   3.056318e+00  1.106184e+00  8.000000e-01
      vertex   2.156317e+00  1.056184e+00  8.000000e-01
      vertex   2.156317e+00  1.106184e+00  8.000000e-01
    endloop
  endfacet
  facet normal  0.000000e+00  0.000000e+00 -1.000000e+00
    outer loop
      vertex   2.156317e+00  1.056184e+00  8.000000e-01
      vertex   3.056318e+00  1.106184e+00  8.000000e-01
      vertex   2.156317e+00  5.561839e-01  8.000000e-01
    endloop
  endfacet
  facet normal  0.000000e+00  0.000000e+00 -1.000000e+00
    outer loop
      vertex   2.156317e+00  5.561839e-01  8.000000e-01
      vertex   3.056318e+00  1.106184e+00  8.000000e-01
      vertex   2.156317e+00  5.061839e-01  8.000000e-01
    endloop
  endfacet
  facet normal  0.000000e+00  0.000000e+00 -1.000000e+00
    outer loop
      vertex   2.156317e+00  5.061839e-01  8.000000e-01
      vertex   3.056318e+00  1.106184e+00  8.000000e-01
      vertex   3.056318e+00  5.061839e-01  8.000000e-01
    endloop
  endfacet
  facet normal  0.000000e+00  0.000000e+00  0.000000e+00
    outer loop
      vertex   3.056318e+00  5.061839e-01  8.000000e-01
      vertex   3.056318e+00  1.106184e+00  8.000000e-01
      vertex   3.056318e+00  1.056184e+00  8.000000e-01
    endloop
  endfacet
  facet normal  0.000000e+00  0.000000e+00  0.000000e+00
    outer loop
      vertex   3.056318e+00  5.061839e-01  8.000000e-01
      vertex   3.056318e+00  1.056184e+00  8.000000e-01
      vertex   3.056318e+00  5.561839e-01  8.000000e-01
    endloop
  endfacet
  facet normal -0.000000e+00  0.000000e+00 -1.000000e+00
    outer loop
      vertex   2.156317e+00  1.056184e+00  8.000000e-01
      vertex   2.106318e+00  5.561839e-01  8.000000e-01
      vertex   2.106318e+00  1.056184e+00  8.000000e-01
    endloop
  endfacet
  facet normal  0.000000e+00  0.000000e+00 -1.000000e+00
    outer loop
      vertex   2.106318e+00  5.561839e-01  8.000000e-01
      vertex   2.156317e+00  1.056184e+00  8.000000e-01
      vertex   2.156317e+00  5.561839e-01  8.000000e-01
    endloop
  endfacet
  facet normal  0.000000e+00 -1.000000e+00 -0.000000e+00
    outer loop
      vertex   2.156317e+00  1.056184e+00  8.300000e-01
      vertex   2.106318e+00  1.056184e+00  8.000000e-01
      vertex   2.156317e+00  1.056184e+00  8.000000e-01
    endloop
  endfacet
  facet normal  0.000000e+00 -1.000000e+00  0.000000e+00
    outer loop
      vertex   2.106318e+00  1.056184e+00  8.000000e-01
      vertex   2.156317e+00  1.056184e+00  8.300000e-01
      vertex   2.106318e+00  1.056184e+00  8.300000e-01
    endloop
  endfacet
  facet normal  1.000000e+00  0.000000e+00  0.000000e+00
    outer loop
      vertex   2.156317e+00  1.106184e+00  8.000000e-01
      vertex   2.156317e+00  1.056184e+00  8.300000e-01
      vertex   2.156317e+00  1.056184e+00  8.000000e-01
    endloop
  endfacet
  facet normal  1.000000e+00 -0.000000e+00  0.000000e+00
    outer loop
      vertex   2.156317e+00  1.056184e+00  8.300000e-01
      vertex   2.156317e+00  1.106184e+00  8.000000e-01
      vertex   2.156317e+00  1.106184e+00  8.300000e-01
    endloop
  endfacet
  facet normal  0.000000e+00  0.000000e+00  1.000000e+00
    outer loop
      vertex   2.156317e+00  1.056184e+00  8.300000e-01
      vertex   2.106318e+00  1.106184e+00  8.300000e-01
      vertex   2.106318e+00  1.056184e+00  8.300000e-01
    endloop
  endfacet
  facet normal -0.000000e+00  0.000000e+00  1.000000e+00
    outer loop
      vertex   2.106318e+00  1.106184e+00  8.300000e-01
      vertex   2.156317e+00  1.056184e+00  8.300000e-01
      vertex   2.156317e+00  1.106184e+00  8.300000e-01
    endloop
  endfacet
  facet normal  0.000000e+00  0.000000e+00  1.000000e+00
    outer loop
      vertex   3.106318e+00  5.561839e-01  8.300000e-01
      vertex   3.056318e+00  1.056184e+00  8.300000e-01
      vertex   3.056318e+00  5.561839e-01  8.300000e-01
    endloop
  endfacet
  facet normal -0.000000e+00  0.000000e+00  1.000000e+00
    outer loop
      vertex   3.056318e+00  1.056184e+00  8.300000e-01
      vertex   3.106318e+00  5.561839e-01  8.300000e-01
      vertex   3.106318e+00  1.056184e+00  8.300000e-01
    endloop
  endfacet
  facet normal  0.000000e+00  0.000000e+00  1.000000e+00
    outer loop
      vertex   3.056318e+00  5.061839e-01  8.300000e-01
      vertex   2.156317e+00  5.561839e-01  8.300000e-01
      vertex   2.156317e+00  5.061839e-01  8.300000e-01
    endloop
  endfacet
  facet normal -0.000000e+00  0.000000e+00  1.000000e+00
    outer loop
      vertex   2.156317e+00  5.561839e-01  8.300000e-01
      vertex   3.056318e+00  5.061839e-01  8.300000e-01
      vertex   2.156317e+00  1.056184e+00  8.300000e-01
    endloop
  endfacet
  facet normal -0.000000e+00  0.000000e+00  1.000000e+00
    outer loop
      vertex   2.156317e+00  1.056184e+00  8.300000e-01
      vertex   3.056318e+00  5.061839e-01  8.300000e-01
      vertex   2.156317e+00  1.106184e+00  8.300000e-01
    endloop
  endfacet
  facet normal -0.000000e+00  0.000000e+00  1.000000e+00
    outer loop
      vertex   2.156317e+00  1.106184e+00  8.300000e-01
      vertex   3.056318e+00  5.061839e-01  8.300000e-01
      vertex   3.056318e+00  1.106184e+00  8.300000e-01
    endloop
  endfacet
  facet normal  0.000000e+00  0.000000e+00  0.000000e+00
    outer loop
      vertex   3.056318e+00  1.106184e+00  8.300000e-01
      vertex   3.056318e+00  5.061839e-01  8.300000e-01
      vertex   3.056318e+00  5.561839e-01  8.300000e-01
    endloop
  endfacet
  facet normal  0.000000e+00  0.000000e+00  0.000000e+00
    outer loop
      vertex   3.056318e+00  1.106184e+00  8.300000e-01
      vertex   3.056318e+00  5.561839e-01  8.300000e-01
      vertex   3.056318e+00  1.056184e+00  8.300000e-01
    endloop
  endfacet
  facet normal  0.000000e+00  0.000000e+00  1.000000e+00
    outer loop
      vertex   2.156317e+00  5.561839e-01  8.300000e-01
      vertex   2.106318e+00  1.056184e+00  8.300000e-01
      vertex   2.106318e+00  5.561839e-01  8.300000e-01
    endloop
  endfacet
  facet normal -0.000000e+00  0.000000e+00  1.000000e+00
    outer loop
      vertex   2.106318e+00  1.056184e+00  8.300000e-01
      vertex   2.156317e+00  5.561839e-01  8.300000e-01
      vertex   2.156317e+00  1.056184e+00  8.300000e-01
    endloop
  endfacet
  facet normal  0.000000e+00  1.000000e+00  0.000000e+00
    outer loop
      vertex   2.156317e+00  1.106184e+00  8.300000e-01
      vertex   3.056318e+00  1.106184e+00  8.000000e-01
      vertex   2.156317e+00  1.106184e+00  8.000000e-01
    endloop
  endfacet
  facet normal  0.000000e+00  1.000000e+00 -0.000000e+00
    outer loop
      vertex   3.056318e+00  1.106184e+00  8.000000e-01
      vertex   2.156317e+00  1.106184e+00  8.300000e-01
      vertex   3.056318e+00  1.106184e+00  8.300000e-01
    endloop
  endfacet
  facet normal  0.000000e+00  0.000000e+00  1.000000e+00
    outer loop
      vertex   2.106318e+00  5.061839e-01  8.300000e-01
      vertex   1.706317e+00  1.106184e+00  8.300000e-01
      vertex   1.706317e+00  5.061839e-01  8.300000e-01
    endloop
  endfacet
  facet normal -0.000000e+00  0.000000e+00  1.000000e+00
    outer loop
      vertex   1.706317e+00  1.106184e+00  8.300000e-01
      vertex   2.106318e+00  5.061839e-01  8.300000e-01
      vertex   2.106318e+00  1.106184e+00  8.300000e-01
    endloop
  endfacet
  facet normal  0.000000e+00  0.000000e+00  0.000000e+00
    outer loop
      vertex   2.106318e+00  1.106184e+00  8.300000e-01
      vertex   2.106318e+00  5.061839e-01  8.300000e-01
      vertex   2.106318e+00  5.561839e-01  8.300000e-01
    endloop
  endfacet
  facet normal  0.000000e+00  0.000000e+00  0.000000e+00
    outer loop
      vertex   2.106318e+00  1.106184e+00  8.300000e-01
      vertex   2.106318e+00  5.561839e-01  8.300000e-01
      vertex   2.106318e+00  1.056184e+00  8.300000e-01
    endloop
  endfacet
  facet normal -0.000000e+00  0.000000e+00 -1.000000e+00
    outer loop
      vertex   2.106318e+00  1.106184e+00  1.000000e-01
      vertex   1.706317e+00  5.061839e-01  1.000000e-01
      vertex   1.706317e+00  1.106184e+00  1.000000e-01
    endloop
  endfacet
  facet normal  0.000000e+00  0.000000e+00 -1.000000e+00
    outer loop
      vertex   1.706317e+00  5.061839e-01  1.000000e-01
      vertex   2.106318e+00  1.106184e+00  1.000000e-01
      vertex   2.106318e+00  5.061839e-01  1.000000e-01
    endloop
  endfacet
  facet normal  1.000000e+00  0.000000e+00  0.000000e+00
    outer loop
      vertex   2.106318e+00  1.056184e+00  8.000000e-01
      vertex   2.106318e+00  5.561839e-01  8.300000e-01
      vertex   2.106318e+00  5.561839e-01  8.000000e-01
    endloop
  endfacet
  facet normal  1.000000e+00 -0.000000e+00  0.000000e+00
    outer loop
      vertex   2.106318e+00  5.561839e-01  8.300000e-01
      vertex   2.106318e+00  1.056184e+00  8.000000e-01
      vertex   2.106318e+00  1.056184e+00  8.300000e-01
    endloop
  endfacet
  facet normal  0.000000e+00  1.000000e+00  0.000000e+00
    outer loop
      vertex   1.706317e+00  1.106184e+00  8.300000e-01
      vertex   2.106318e+00  1.106184e+00  1.000000e-01
      vertex   1.706317e+00  1.106184e+00  1.000000e-01
    endloop
  endfacet
  facet normal  0.000000e+00  1.000000e+00 -0.000000e+00
    outer loop
      vertex   2.106318e+00  1.106184e+00  1.000000e-01
      vertex   1.706317e+00  1.106184e+00  8.300000e-01
      vertex   2.106318e+00  1.106184e+00  8.000000e-01
    endloop
  endfacet
  facet normal  0.000000e+00  1.000000e+00 -0.000000e+00
    outer loop
      vertex   2.106318e+00  1.106184e+00  8.000000e-01
      vertex   1.706317e+00  1.106184e+00  8.300000e-01
      vertex   2.106318e+00  1.106184e+00  8.300000e-01
    endloop
  endfacet
  facet normal -0.000000e+00  0.000000e+00 -1.000000e+00
    outer loop
      vertex   2.156317e+00  1.106184e+00  8.000000e-01
      vertex   2.106318e+00  1.056184e+00  8.000000e-01
      vertex   2.106318e+00  1.106184e+00  8.000000e-01
    endloop
  endfacet
  facet normal  0.000000e+00  0.000000e+00 -1.000000e+00
    outer loop
      vertex   2.106318e+00  1.056184e+00  8.000000e-01
      vertex   2.156317e+00  1.106184e+00  8.000000e-01
      vertex   2.156317e+00  1.056184e+00  8.000000e-01
    endloop
  endfacet
  facet normal  0.000000e+00  1.000000e+00  0.000000e+00
    outer loop
      vertex   2.106318e+00  1.106184e+00  8.300000e-01
      vertex   2.156317e+00  1.106184e+00  8.000000e-01
      vertex   2.106318e+00  1.106184e+00  8.000000e-01
    endloop
  endfacet
  facet normal  0.000000e+00  1.000000e+00 -0.000000e+00
    outer loop
      vertex   2.156317e+00  1.106184e+00  8.000000e-01
      vertex   2.106318e+00  1.106184e+00  8.300000e-01
      vertex   2.156317e+00  1.106184e+00  8.300000e-01
    endloop
  endfacet
  facet normal  1.000000e+00  0.000000e+00  0.000000e+00
    outer loop
      vertex   2.106318e+00  1.106184e+00  8.000000e-01
      vertex   2.106318e+00  1.056184e+00  8.300000e-01
      vertex   2.106318e+00  1.056184e+00  8.000000e-01
    endloop
  endfacet
  facet normal  1.000000e+00 -0.000000e+00  0.000000e+00
    outer loop
      vertex   2.106318e+00  1.056184e+00  8.300000e-01
      vertex   2.106318e+00  1.106184e+00  8.000000e-01
      vertex   2.106318e+00  1.106184e+00  8.300000e-01
    endloop
  endfacet
  facet normal -0.000000e+00  0.000000e+00 -1.000000e+00
    outer loop
      vertex   2.156317e+00  5.561839e-01  8.000000e-01
      vertex   2.106318e+00  5.061839e-01  8.000000e-01
      vertex   2.106318e+00  5.561839e-01  8.000000e-01
    endloop
  endfacet
  facet normal  0.000000e+00  0.000000e+00 -1.000000e+00
    outer loop
      vertex   2.106318e+00  5.061839e-01  8.000000e-01
      vertex   2.156317e+00  5.561839e-01  8.000000e-01
      vertex   2.156317e+00  5.061839e-01  8.000000e-01
    endloop
  endfacet
  facet normal  1.000000e+00  0.000000e+00  0.000000e+00
    outer loop
      vertex   2.106318e+00  1.106184e+00  1.000000e-01
      vertex   2.106318e+00  5.061839e-01  8.000000e-01
      vertex   2.106318e+00  5.061839e-01  1.000000e-01
    endloop
  endfacet
  facet normal  1.000000e+00 -0.000000e+00  0.000000e+00
    outer loop
      vertex   2.106318e+00  5.061839e-01  8.000000e-01
      vertex   2.106318e+00  1.106184e+00  1.000000e-01
      vertex   2.106318e+00  5.561839e-01  8.000000e-01
    endloop
  endfacet
  facet normal  1.000000e+00 -0.000000e+00  0.000000e+00
    outer loop
      vertex   2.106318e+00  5.561839e-01  8.000000e-01
      vertex   2.106318e+00  1.106184e+00  1.000000e-01
      vertex   2.106318e+00  1.056184e+00  8.000000e-01
    endloop
  endfacet
  facet normal  1.000000e+00 -0.000000e+00  0.000000e+00
    outer loop
      vertex   2.106318e+00  1.056184e+00  8.000000e-01
      vertex   2.106318e+00  1.106184e+00  1.000000e-01
      vertex   2.106318e+00  1.106184e+00  8.000000e-01
    endloop
  endfacet
endsolid vcg
